<svg xmlns="http://www.w3.org/2000/svg" fill="none" viewBox="0 0 48 48" id="Add-Square--Streamline-Plump"><desc>Add Square Streamline Icon: https://streamlinehq.com</desc><g id="Solid/Interface Essential/Add Remove Delete/add-square--square-remove-cross-buttons-add-plus-button-+-mathematics-math"><path id="Subtract" fill="#000000" fill-rule="evenodd" d="M8.13571 2.04389C11.4073 1.77808 16.5986 1.5 24 1.5c7.4014 0 12.5927 0.27808 15.8643 0.54389 3.2878 0.26714 5.8247 2.80397 6.0918 6.09182C46.2219 11.4073 46.5 16.5986 46.5 24c0 7.4014 -0.2781 12.5927 -0.5439 15.8643 -0.2671 3.2879 -2.804 5.8247 -6.0918 6.0918 -3.2716 0.2658 -8.4629 0.5439 -15.8643 0.5439 -7.4014 0 -12.5927 -0.2781 -15.8643 -0.5439 -3.28785 -0.2671 -5.82468 -2.8039 -6.09181 -6.0918C1.77808 36.5927 1.5 31.4014 1.5 24c0 -7.4014 0.27808 -12.5927 0.5439 -15.86431 0.26713 -3.28785 2.80396 -5.82467 6.09181 -6.0918ZM21.8388 35.8579c-1.0117 -0.1478 -1.6377 -1.0167 -1.6826 -2.0382 -0.0508 -1.1537 -0.1082 -3.0082 -0.1372 -5.8387 -2.8305 -0.029 -4.685 -0.0864 -5.8387 -0.1372 -1.0215 -0.0449 -1.8904 -0.6709 -2.0382 -1.6826C12.061 25.6055 12 24.8914 12 24s0.061 -1.6055 0.1421 -2.1612c0.1478 -1.0117 1.0167 -1.6377 2.0382 -1.6826 1.1537 -0.0508 3.0082 -0.1082 5.8387 -0.1372 0.029 -2.8305 0.0864 -4.685 0.1372 -5.8387 0.0449 -1.0215 0.6709 -1.8904 1.6826 -2.0382C22.3945 12.061 23.1086 12 24 12s1.6055 0.061 2.1612 0.1421c1.0117 0.1478 1.6377 1.0167 1.6826 2.0382 0.0508 1.1537 0.1082 3.0082 0.1372 5.8387 2.8305 0.029 4.685 0.0864 5.8387 0.1372 1.0215 0.0449 1.8904 0.6709 2.0382 1.6826C35.939 22.3945 36 23.1086 36 24s-0.061 1.6055 -0.1421 2.1612c-0.1478 1.0117 -1.0167 1.6377 -2.0382 1.6826 -1.1537 0.0508 -3.0082 0.1082 -5.8387 0.1372 -0.029 2.8305 -0.0864 4.685 -0.1372 5.8387 -0.0449 1.0215 -0.6709 1.8904 -1.6826 2.0382C25.6055 35.939 24.8914 36 24 36s-1.6055 -0.061 -2.1612 -0.1421Z" clip-rule="evenodd" stroke-width="1"></path></g></svg>