<svg xmlns="http://www.w3.org/2000/svg" fill="none" viewBox="0 0 48 48" id="Add-Bookmark--Streamline-Plump"><desc>Add Bookmark Streamline Icon: https://streamlinehq.com</desc><g id="Solid/Interface Essential/Bookmark Favorite/add-bookmark--bookmarks-double-tags-favorite-add-plus-new"><path id="Subtract" fill="#000000" fill-rule="evenodd" d="M10.9754 1.0905C14.0081 0.808072 18.5622 0.5 24 0.5c5.4378 0 9.9919 0.308072 13.0246 0.5905 2.6671 0.24838 4.7404 2.23565 4.9603 4.92931 0.2558 3.13376 0.5151 8.41169 0.5151 16.93469v20.3862c0 2.2997 -1.8643 4.1593 -4.1627 4.1593 -0.9816 0 -1.9315 -0.3468 -2.6821 -0.9792l-9.4001 -7.9195c-1.303 -1.0978 -3.2072 -1.0978 -4.5102 0l-9.4001 7.9195c-0.7506 0.6324 -1.7005 0.9792 -2.68205 0.9792C7.36435 47.5 5.5 45.6404 5.5 43.3407V22.9545c0 -8.523 0.25931 -13.80093 0.51511 -16.93469 0.21988 -2.69366 2.2932 -4.68093 4.96029 -4.92931Zm9.638 25.2814c0.0462 1.0666 0.7323 1.9493 1.7948 2.0551 0.4356 0.0433 0.9633 0.073 1.5918 0.073 0.6285 0 1.1562 -0.0297 1.5918 -0.073 1.0625 -0.1058 1.7486 -0.9885 1.7948 -2.0551 0.0341 -0.7879 0.0685 -1.8907 0.0903 -3.395 1.5043 -0.0218 2.6071 -0.0562 3.395 -0.0903 1.0666 -0.0462 1.9493 -0.7323 2.0551 -1.7948 0.0433 -0.4356 0.073 -0.9633 0.073 -1.5918 0 -0.6285 -0.0297 -1.1562 -0.073 -1.5918 -0.1058 -1.0625 -0.9885 -1.7486 -2.0551 -1.7948 -0.7879 -0.0341 -1.8907 -0.0685 -3.395 -0.0903 -0.0218 -1.5043 -0.0562 -2.6071 -0.0903 -3.395 -0.0462 -1.0666 -0.7323 -1.9493 -1.7948 -2.0551 -0.4356 -0.0433 -0.9633 -0.073 -1.5918 -0.073 -0.6285 0 -1.1562 0.0297 -1.5918 0.073 -1.0625 0.1058 -1.7486 0.9885 -1.7948 2.0551 -0.0341 0.7879 -0.0685 1.8907 -0.0903 3.395 -1.5043 0.0218 -2.6071 0.0562 -3.395 0.0903 -1.0666 0.0462 -1.9493 0.7323 -2.0551 1.7948 -0.0433 0.4356 -0.073 0.9633 -0.073 1.5918 0 0.6285 0.0297 1.1562 0.073 1.5918 0.1058 1.0625 0.9885 1.7486 2.0551 1.7948 0.7879 0.0341 1.8907 0.0685 3.395 0.0903 0.0218 1.5043 0.0562 2.6071 0.0903 3.395Z" clip-rule="evenodd" stroke-width="1"></path></g></svg>