<svg xmlns="http://www.w3.org/2000/svg" fill="none" viewBox="0 0 48 48" id="Add-Tag--Streamline-Plump"><desc>Add Tag Streamline Icon: https://streamlinehq.com</desc><g id="Solid/Interface Essential/Add Remove Delete/add-tag--add-tag-plus-button-mathematics-math"><path id="Subtract" fill="#000000" fill-rule="evenodd" d="M6.44237 6.0425C9.14293 5.7764 13.334 5.5 19.0925 5.5c6.9082 0 11.489 0.39778 13.9666 0.69884 1.6833 0.20454 3.3059 0.88358 4.5973 2.09169 2.1354 1.99767 5.7946 6.03187 8.6163 12.32597 0.943 2.1034 0.9472 4.5123 0.0161 6.6191 -2.8234 6.3887 -6.4918 10.4593 -8.6321 12.4696 -1.2905 1.2122 -2.9144 1.8914 -4.5976 2.096 -2.4776 0.301 -7.0584 0.6988 -13.9666 0.6988 -5.5568 0 -9.65408 -0.2574 -12.36091 -0.5145 -3.06672 -0.2914 -5.45171 -2.6161 -5.74108 -5.7138C0.741001 33.6008 0.499977 29.4698 0.5 23.4751c0.000022 -5.7852 0.224485 -9.6065 0.465878 -12.0453C1.25962 8.46212 3.55243 6.32727 6.44237 6.0425Zm9.17103 24.8294c0.0462 1.0666 0.7323 1.9493 1.7948 2.0551 0.4356 0.0433 0.9633 0.073 1.5918 0.073 0.6285 0 1.1562 -0.0297 1.5918 -0.073 1.0625 -0.1058 1.7486 -0.9885 1.7948 -2.0551 0.0341 -0.7879 0.0685 -1.8907 0.0903 -3.395 1.5043 -0.0218 2.6071 -0.0562 3.395 -0.0903 1.0666 -0.0462 1.9493 -0.7323 2.0551 -1.7948 0.0433 -0.4356 0.073 -0.9633 0.073 -1.5918 0 -0.6285 -0.0297 -1.1562 -0.073 -1.5918 -0.1058 -1.0625 -0.9885 -1.7486 -2.0551 -1.7948 -0.7879 -0.0341 -1.8907 -0.0685 -3.395 -0.0903 -0.0218 -1.5043 -0.0562 -2.6071 -0.0903 -3.395 -0.0462 -1.0666 -0.7323 -1.9493 -1.7948 -2.0551C20.1562 15.0297 19.6285 15 19 15c-0.6285 0 -1.1562 0.0297 -1.5918 0.073 -1.0625 0.1058 -1.7486 0.9885 -1.7948 2.0551 -0.0341 0.7879 -0.0685 1.8907 -0.0903 3.395 -1.5043 0.0218 -2.6071 0.0562 -3.395 0.0903 -1.0666 0.0462 -1.9493 0.7323 -2.0551 1.7948 -0.0433 0.4356 -0.073 0.9633 -0.073 1.5918 0 0.6285 0.0297 1.1562 0.073 1.5918 0.1058 1.0625 0.9885 1.7486 2.0551 1.7948 0.7879 0.0341 1.8907 0.0685 3.395 0.0903 0.0218 1.5043 0.0562 2.6071 0.0903 3.395Z" clip-rule="evenodd" stroke-width="1"></path></g></svg>