<svg xmlns="http://www.w3.org/2000/svg" fill="none" viewBox="0 0 48 48" id="Add-2--Streamline-Plump"><desc>Add 2 Streamline Icon: https://streamlinehq.com</desc><g id="Solid/Interface Essential/Add Remove Delete/add-2--remove-bold-cross-buttons-button-add-plus-+-mathematics-math"><path id="Union" fill="#000000" d="M46.2173 20.469c-0.4323 -2.3434 -2.4897 -3.4407 -4.387 -3.5663 -1.9035 -0.126 -5.1451 -0.2761 -10.3804 -0.3526 -0.0765 -5.2353 -0.2266 -8.47695 -0.3526 -10.38039 -0.1256 -1.89728 -1.2229 -3.95468 -3.5663 -4.387C26.6302 1.61653 25.4738 1.5 24 1.5c-1.4738 0 -2.6302 0.11653 -3.531 0.28271 -2.3434 0.43232 -3.4407 2.48972 -3.5663 4.387 -0.126 1.90344 -0.2761 5.14509 -0.3526 10.38039 -5.2353 0.0765 -8.47695 0.2266 -10.38039 0.3526 -1.89728 0.1256 -3.95468 1.2229 -4.38699 3.5663C1.61653 21.3698 1.5 22.5262 1.5 24c0 1.4738 0.11653 2.6302 0.28271 3.531 0.43232 2.3434 2.48972 3.4407 4.387 3.5663 1.90344 0.126 5.14509 0.2761 10.38039 0.3526 0.0765 5.2353 0.2266 8.4769 0.3526 10.3804 0.1256 1.8973 1.2229 3.9547 3.5663 4.387 0.9008 0.1662 2.0572 0.2827 3.531 0.2827 1.4738 0 2.6302 -0.1165 3.531 -0.2827 2.3434 -0.4323 3.4407 -2.4897 3.5663 -4.387 0.126 -1.9035 0.2761 -5.1451 0.3526 -10.3804 5.2353 -0.0765 8.4769 -0.2266 10.3804 -0.3526 1.8973 -0.1256 3.9547 -1.2229 4.387 -3.5663 0.1662 -0.9008 0.2827 -2.0572 0.2827 -3.531 0 -1.4738 -0.1165 -2.6302 -0.2827 -3.531Z" stroke-width="1"></path></g></svg>