<svg xmlns="http://www.w3.org/2000/svg" fill="none" viewBox="0 0 48 48" id="Ai-Automate-Automation--Streamline-Plump"><desc>Ai Automate Automation Streamline Icon: https://streamlinehq.com</desc><g id="ai-automate-automation--ai-automate-automation-thunder-flash-fast-quick"><path id="Union" fill="#000000" fill-rule="evenodd" d="M32.47 4.69147c0.3149 -3.46578 -3.6439 -5.384109 -6.2814 -3.36011C16.9533 8.41823 8.28919 16.7504 3.76956 21.2716c-2.37526 2.3761 -1.26774 6.2838 2.06822 7.0034 2.55246 0.5506 6.08972 1.1998 10.48372 1.7308 -0.42 3.6118 -0.731 7.974 -1.0543 13.3428 -0.2048 3.4022 3.7044 5.3613 6.3648 3.3198 1.9903 -1.5273 3.9541 -3.1124 5.8557 -4.7049l-1.5556 -0.8507c-3.6464 -1.9943 -3.6464 -7.2314 0 -9.2256l3.4811 -1.904c0.2406 -0.1315 0.4385 -0.3294 0.57 -0.57l1.904 -3.4811c1.9943 -3.6464 7.2313 -3.6464 9.2256 0l1.3156 2.4054c0.6617 -0.6508 1.2667 -1.2524 1.8083 -1.7953 2.2952 -2.3007 1.3393 -6.0993 -1.8781 -6.9411 -2.7492 -0.7192 -6.6821 -1.5825 -11.4963 -2.1872 0.0778 -0.5473 0.1596 -1.1103 0.244 -1.6913l0.0005 -0.0033c0.446 -3.071 0.9647 -6.64229 1.3632 -11.02783m2.6269 22.30523c0.4733 -1.3289 2.3527 -1.3289 2.826 0l0.3753 1.0536c1.1088 3.1129 3.5584 5.5624 6.6713 6.6713l1.0536 0.3753c1.3289 0.4733 1.3289 2.3527 0 2.826l-1.0536 0.3753c-3.1129 1.1088 -5.5625 3.5584 -6.6713 6.6713l-0.3753 1.0536c-0.4733 1.3289 -2.3527 1.3289 -2.826 0l-0.3753 -1.0536c-1.1089 -3.1129 -3.5584 -5.5625 -6.6713 -6.6713l-1.0536 -0.3753c-1.3289 -0.4733 -1.3289 -2.3527 0 -2.826l1.0536 -0.3753c3.1129 -1.1089 5.5624 -3.5584 6.6713 -6.6713z" clip-rule="evenodd" stroke-width="1"></path></g></svg>