<svg xmlns="http://www.w3.org/2000/svg" fill="none" viewBox="0 0 48 48" id="Ai-Database-Spark--Streamline-Plump"><desc>Ai Database Spark Streamline Icon: https://streamlinehq.com</desc><g id="ai-database-spark--network-data-information-storage-artificial-intelligence-ai"><path id="Union" fill="#000000" fill-rule="evenodd" d="M6.02617 5.93489C5.27585 6.702 5 7.39789 5 8c0 0.60212 0.27585 1.29802 1.02615 2.0651 0.75696 0.7739 1.92581 1.5396 3.48771 2.215 3.11884 1.3487 7.53224 2.22 12.48604 2.22s9.3672 -0.8713 12.486 -2.22c1.5619 -0.6754 2.7308 -1.4411 3.4877 -2.215 0.7503 -0.76707 1.0262 -1.46297 1.0262 -2.0651s-0.2759 -1.29803 -1.0262 -2.06513c-0.7569 -0.7739 -1.9257 -1.53953 -3.4876 -2.21495C31.3672 2.37122 26.9539 1.5 22.0001 1.5s-9.3672 0.87122 -12.48614 2.21992c-1.56193 0.67542 -2.73081 1.44106 -3.48779 2.21497M39.1829 29.9497c0.7829 1.3236 1.8335 2.4659 3.08 3.3551 0.8208 0.5856 1.7266 1.0614 2.6968 1.407l1.0536 0.3753c1.329 0.4733 1.329 2.3527 0 2.8261l-1.0536 0.3753c-3.1129 1.1088 -5.5624 3.5583 -6.6712 6.6712l-0.3753 1.0536c-0.4734 1.3289 -2.3528 1.3289 -2.8261 0l-0.3753 -1.0536c-0.0562 -0.1578 -0.1159 -0.314 -0.1789 -0.4683 -1.18 -2.8896 -3.5373 -5.1503 -6.4924 -6.2029l-1.0536 -0.3753c-1.3289 -0.4734 -1.3289 -2.3528 0 -2.8261l1.0536 -0.3753c0.0862 -0.0307 0.1719 -0.0624 0.2571 -0.0952 1.2773 -0.4911 2.437 -1.2102 3.4306 -2.1089 1.1702 -1.0585 2.1099 -2.366 2.7398 -3.8433 0.0873 -0.2048 0.1686 -0.4128 0.2438 -0.6239l0.3753 -1.0536c0.4733 -1.3289 2.3527 -1.3289 2.8261 0l0.0729 0.2047 0.3024 0.8489c0.2384 0.6693 0.5388 1.308 0.8944 1.9092m3.3092 -7.7344c-0.0755 1.0393 -0.6972 2.172 -1.9582 3.2739 -1.6907 -3.4883 -6.9137 -3.3246 -8.2729 0.4911l-0.3753 1.0536c-0.3619 1.016 -0.9202 1.9348 -1.6303 2.712C27.735 30.2287 24.946 30.5 22 30.5c-5.9115 0 -11.1906 -1.0922 -14.93569 -2.7945 -3.72774 -1.6944 -5.42838 -3.7269 -5.5565 -5.4901 0.02939 -3.412 0.13659 -6.7118 0.24356 -9.2778 0.06281 -1.5068 0.12564 -2.7628 0.1728 -3.64282 0.01691 -0.31552 0.04146 -0.72262 0.05909 -1.01497l0 -0.00004 0 -0.00004 0 -0.00003L2 8c0 1.60703 0.75949 3.0157 1.88147 4.1628 1.11534 1.1403 2.65573 2.0986 4.44165 2.8709 3.57678 1.5467 8.41338 2.4664 13.67678 2.4664s10.1 -0.9197 13.6768 -2.4664c1.7859 -0.7723 3.3263 -1.7305 4.4416 -2.8709 1.122 -1.1471 1.8845 -2.55448 1.8845 -4.16151l0.0731 1.29352c0.0472 0.87999 0.11 2.13599 0.1728 3.64279 0.1069 2.566 0.214 5.8658 0.2434 9.2777M22 33.5002c0.7253 0 1.4437 -0.0155 2.1534 -0.0459 -2.0187 2.199 -1.4098 6.132 1.8269 7.2849l1.0536 0.3753c2.0634 0.735 3.726 2.2799 4.6149 4.2619 -2.8682 0.7209 -6.165 1.1238 -9.6488 1.1238 -5.2634 0 -10.1 -0.9196 -13.67682 -2.4663 -1.78592 -0.7723 -3.32633 -1.7306 -4.44167 -2.8709 -1.193 -1.2197 -1.74672 -2.5851 -1.89697 -4.2592 -0.01413 -0.1575 -0.03412 -0.3894 -0.05799 -0.6918 -0.04774 -0.6047 -0.11103 -1.4913 -0.17422 -2.6286 -0.08409 -1.5136 -0.168 -3.4718 -0.21473 -5.8007 1.20021 1.035 2.67756 1.9232 4.28537 2.6541C10.0403 32.3537 15.7612 33.5002 22 33.5002m-11.4999 4c0 1.1045 -0.89546 2 -2.00003 2s-2 -0.8955 -2 -2c0 -1.1046 0.89543 -2 2 -2s2.00003 0.8954 2.00003 2m6.5 1.75c0 1.1045 -0.8955 2 -2 2 -1.1046 0 -2 -0.8955 -2 -2 0 -1.1046 0.8954 -2 2 -2 1.1045 0 2 0.8954 2 2M8.5 24c1.10457 0 2 -0.8954 2 -2s-0.89543 -2 -2 -2 -2 0.8954 -2 2 0.89543 2 2 2m8.5 -0.25c0 1.1046 -0.8954 2 -2 2s-2 -0.8954 -2 -2 0.8954 -2 2 -2 2 0.8954 2 2" clip-rule="evenodd" stroke-width="1"></path></g></svg>