<svg xmlns="http://www.w3.org/2000/svg" fill="none" viewBox="0 0 48 48" id="Ai-Edit-Spark--Streamline-Plump"><desc>Ai Edit Spark Streamline Icon: https://streamlinehq.com</desc><g id="ai-edit-spark--change-edit-modify-pencil-write-writing-artificial-intelligence-ai"><path id="Union" fill="#000000" fill-rule="evenodd" d="M13.4132 1.98691c-0.4734 -1.3289 -2.3528 -1.328905 -2.8261 0l-0.5066 1.42231C8.97166 6.52214 6.52214 8.97166 3.40922 10.0805l-1.42231 0.5066c-1.3289 0.4733 -1.328904 2.3527 0 2.8261l1.42231 0.5066c3.11292 1.1088 5.56244 3.5583 6.67128 6.6712l0.5066 1.4223c0.4733 1.3289 2.3527 1.329 2.8261 0l0.5066 -1.4223c1.1088 -3.1129 3.5583 -5.5624 6.6712 -6.6712l1.4223 -0.5066c1.3289 -0.4734 1.329 -2.3528 0 -2.8261l-1.4223 -0.5066c-3.1129 -1.10884 -5.5624 -3.55836 -6.6712 -6.67128zm26.1021 9.02979c-2.6732 -1.95079 -6.0448 -1.16128 -8.1351 0.929l-1.4466 1.4466c1.8876 1.075 4.3494 2.8097 7.1126 5.573 3.0253 3.0253 4.8178 5.6892 5.8613 7.634 0.1491 0.2777 0.2827 0.5406 0.4024 0.7876l1.7558 -1.7557c2.0902 -2.0903 2.8797 -5.462 0.9289 -8.1352 -0.7587 -1.0398 -1.7429 -2.231 -2.9956 -3.4837 -1.2527 -1.2526 -2.4439 -2.2368 -3.4837 -2.9956M11.9336 31.3923l15.7881 -15.7881c0.0884 0.0457 0.1791 0.0934 0.2721 0.1432 1.6854 0.9044 4.1127 2.5208 6.9311 5.3392s4.4348 5.2457 5.3391 6.9311c0.3595 0.6699 0.6073 1.2242 0.7738 1.6413L25.3099 45.3868c-0.1197 -0.2469 -0.2533 -0.5098 -0.4024 -0.7875 -1.0435 -1.9448 -2.836 -4.6087 -5.8613 -7.634 -2.7632 -2.7632 -5.2249 -4.498 -7.1126 -5.573m-1.96743 2.3404c-0.26902 0.5354 -0.44615 1.1259 -0.50097 1.7552 -0.14131 1.622 -0.28392 4.6308 0.00919 8.8591 0.11853 1.7098 1.48011 3.0714 3.19001 3.19 4.2283 0.2931 7.237 0.1505 8.859 0.0092 0.4689 -0.0409 0.9163 -0.1496 1.3354 -0.3137 -0.1517 -0.3451 -0.3467 -0.7524 -0.5948 -1.2148 -0.9043 -1.6854 -2.5207 -4.1127 -5.3391 -6.9311s-5.2457 -4.4348 -6.93112 -5.3392z" clip-rule="evenodd" stroke-width="1"></path></g></svg>