<svg xmlns="http://www.w3.org/2000/svg" fill="none" viewBox="0 0 48 48" id="Ai-Spark-Starlight--Streamline-Plump"><desc>Ai Spark Starlight Streamline Icon: https://streamlinehq.com</desc><g id="ai-spark-starlight--ai-spark-starlight-generating-creation-automate"><path id="Union" fill="#000000" fill-rule="evenodd" d="M8.42305 1.98063C7.58989 0.752891 5.89569 0.0621876 4.42423 1.06543c-0.52115 0.35532 -1.12532 0.84308 -1.79415 1.51191 -0.66884 0.66884 -1.15659 1.27301 -1.51192 1.79416 -1.003238 1.47145 -0.312534 3.16566 0.91521 3.99881C4.97131 10.364 8.06244 11.5944 9.88988 12.219c1.50522 0.5145 2.89632 -0.8767 2.38192 -2.38185 -0.6246 -1.82745 -1.855 -4.91857 -3.84875 -7.85652m31.20705 0c0.8332 -1.227739 2.5274 -1.9184424 3.9989 -0.9152 0.5211 0.35532 1.1253 0.84308 1.7941 1.51191 0.6688 0.66884 1.1566 1.27301 1.5119 1.79416 1.0033 1.47145 0.3126 3.16566 -0.9152 3.99881 -2.9379 1.99369 -6.029 3.22409 -7.8565 3.84869 -1.5052 0.5145 -2.8963 -0.8767 -2.3819 -2.38185 0.6246 -1.82745 1.855 -4.91857 3.8487 -7.85652m6.3894 37.60277c1.2277 0.8332 1.9184 2.5274 0.9152 3.9988 -0.3553 0.5212 -0.8431 1.1253 -1.5119 1.7942 -0.6689 0.6688 -1.273 1.1566 -1.7942 1.5119 -1.4714 1.0032 -3.1656 0.3125 -3.9988 -0.9152 -1.9937 -2.938 -3.2241 -6.0291 -3.8487 -7.8565 -0.5145 -1.5052 0.8767 -2.8964 2.3819 -2.3819 1.8274 0.6246 4.9185 1.855 7.8565 3.8487m-43.98579 0c-1.227739 0.8332 -1.918442 2.5274 -0.9152 3.9988 0.35532 0.5212 0.84308 1.1253 1.51191 1.7942 0.66884 0.6688 1.27301 1.1566 1.79416 1.5119 1.47145 1.0032 3.16566 0.3125 3.99881 -0.9152 1.99371 -2.938 3.22411 -6.0291 3.84871 -7.8565 0.5145 -1.5052 -0.8767 -2.8964 -2.38187 -2.3819 -1.82745 0.6246 -4.91857 1.855 -7.85652 3.8487M22.5933 8.02797c0.4834 -1.30552 2.33 -1.30552 2.8134 0l2.1743 5.87213c1.1142 3.0092 3.4868 5.3818 6.4959 6.496l5.8722 2.1743c1.3055 0.4834 1.3055 2.3299 0 2.8133l-5.8722 2.1743c-3.0091 1.1142 -5.3817 3.4868 -6.4959 6.496l-2.1743 5.8721c-0.4834 1.3056 -2.33 1.3056 -2.8134 0L20.419 34.054c-1.1142 -3.0092 -3.4868 -5.3818 -6.4959 -6.496l-5.87218 -2.1743c-1.30552 -0.4834 -1.30552 -2.3299 0 -2.8133l5.87218 -2.1743c3.0091 -1.1142 5.3817 -3.4868 6.4959 -6.496z" clip-rule="evenodd" stroke-width="1"></path></g></svg>