<svg xmlns="http://www.w3.org/2000/svg" fill="none" viewBox="0 0 48 48" id="Ai-Sparkles--Streamline-Plump"><desc>Ai Sparkles Streamline Icon: https://streamlinehq.com</desc><g id="ai-sparkles--artificial-intelligence-ai-sparks-sparkles"><path id="Union" fill="#000000" fill-rule="evenodd" d="M12.3839 1.81914c-0.6311 -1.7718796 -3.13693 -1.7718696 -3.76806 0l-0.11266 0.31627c-1.05841 2.97142 -3.39659 5.3096 -6.36801 6.36802l-0.31627 0.11265c-1.7718793 0.63114 -1.7718781 3.13692 0 3.76812l0.31627 0.1126c2.97142 1.0584 5.3096 3.3966 6.36801 6.368l0.11266 0.3163c0.63114 1.7719 3.13696 1.7719 3.76806 0l0.1127 -0.3163c1.0584 -2.9714 3.3966 -5.3096 6.368 -6.368l0.3163 -0.1126c1.7718 -0.6312 1.7718 -3.13698 0 -3.76812l-0.3163 -0.11266c-2.9714 -1.05841 -5.3096 -3.39658 -6.368 -6.36801zm18.5 10.99996c-0.6311 -1.7718 -3.1369 -1.7718 -3.7681 0l-2.0825 5.8465c-1.0584 2.9714 -3.3965 5.3096 -6.368 6.368l-5.8464 2.0825c-1.7719 0.6311 -1.7719 3.1369 0 3.7681l5.8464 2.0825c2.9715 1.0584 5.3096 3.3966 6.368 6.368l2.0825 5.8464c0.6312 1.7719 3.137 1.7719 3.7681 0l2.0825 -5.8464c1.0584 -2.9714 3.3966 -5.3096 6.368 -6.368l5.8465 -2.0825c1.7718 -0.6312 1.7719 -3.137 0 -3.7681l-5.8465 -2.0825c-2.9714 -1.0584 -5.3096 -3.3966 -6.368 -6.368z" clip-rule="evenodd" stroke-width="1"></path></g></svg>