<svg xmlns="http://www.w3.org/2000/svg" fill="none" viewBox="0 0 48 48" id="Airplane--Streamline-Plump"><desc>Airplane Streamline Icon: https://streamlinehq.com</desc><g id="airplane--travel-plane-adventure-airplane-transportation"><path id="Union" fill="#000000" fill-rule="evenodd" d="M17.1791 3.77655c1.167 -0.29328 2.3472 -0.01621 3.2684 0.65003 1.3793 0.99767 4.0971 3.08971 7.2176 6.17212 -4.7954 1.0027 -9.3634 3.0108 -13.2523 4.8679 -1.4511 -2.5076 -2.578 -4.7371 -3.205 -6.0239 -0.6579 -1.35046 -0.2053 -3.04647 1.1968 -3.80633 1.8942 -1.02647 3.6597 -1.57966 4.7745 -1.85982ZM12.0396 17.5777c0.2254 0.3562 0.4266 0.6828 0.5996 0.969l0.4745 -0.2302c5.8301 -2.829 13.1162 -6.3645 20.4512 -6.3645 7.7428 0 12.7258 6.0788 13.7383 12.5383 0.3483 2.2213 -1.2105 4.0603 -3.1516 4.5433 -3.5767 0.89 -7.2854 1.6025 -10.9316 2.173 -2.9702 5.6752 -6.0935 9.867 -7.4147 11.545 -0.6251 0.7939 -1.5271 1.3513 -2.5734 1.5036 -1.2771 0.186 -3.5951 0.4078 -6.1047 0.0676 -1.6432 -0.2227 -2.6579 -1.7492 -2.4239 -3.2832 0.2512 -1.6466 0.7722 -4.6422 1.6681 -7.9978 -0.0145 0.001 -0.029 0.0019 -0.0434 0.0029 0.1784 -0.6216 0.3699 -1.2504 0.5749 -1.8796 0.3744 -1.2472 0.8002 -2.5177 1.2823 -3.7648 0.0205 -0.053 0.0423 -0.1053 0.0652 -0.1568 -0.0028 -0.5839 -0.3485 -1.1374 -0.9211 -1.3771 -0.7641 -0.32 -1.643 0.0401 -1.9629 0.8043 -0.9058 2.1635 -1.6316 4.4357 -2.205 6.5637 -2.9295 0.1545 -5.25315 0.2188 -6.68018 0.2457 -1.64164 0.0309 -3.0774 -1.0959 -3.41827 -2.7151 -0.5618 -2.6686 -1.68775 -8.4744 -2.415278 -15.2844 -0.149285 -1.3973 0.591638 -2.9991 2.240268 -3.456 0.86747 -0.2404 1.73568 -0.3683 2.41462 -0.4377 1.37332 -0.1404 2.66992 0.4499 3.5065 1.4682 1.28784 1.5674 2.42284 3.2467 3.23054 4.5226Zm24.7335 2.989c0.8146 -0.1508 1.3527 -0.9335 1.2018 -1.748 -0.1508 -0.8146 -0.9335 -1.3527 -1.748 -1.2018l-1.7594 0.3258c-0.8146 0.1508 -1.3527 0.9335 -1.2018 1.748 0.1508 0.8146 0.9335 1.3527 1.748 1.2018l1.7594 -0.3258Zm-5.5 1.0185c0.8146 -0.1508 1.3527 -0.9334 1.2018 -1.748 -0.1508 -0.8146 -0.9335 -1.3527 -1.748 -1.2018l-1.7213 0.3187c-0.8145 0.1509 -1.3526 0.9335 -1.2017 1.7481 0.1508 0.8146 0.9334 1.3526 1.748 1.2018l1.7212 -0.3188Zm-5.8915 1.0911c0.8146 -0.1509 1.3526 -0.9335 1.2018 -1.7481 -0.1509 -0.8146 -0.9335 -1.3526 -1.7481 -1.2018l-1.6084 0.2979c-0.8146 0.1508 -1.3527 0.9335 -1.2018 1.748 0.1508 0.8146 0.9335 1.3527 1.748 1.2018l1.6085 -0.2978Z" clip-rule="evenodd" stroke-width="1"></path></g></svg>