<svg xmlns="http://www.w3.org/2000/svg" fill="none" viewBox="0 0 48 48" id="Alarm-Clock--Streamline-Plump"><desc>Alarm Clock Streamline Icon: https://streamlinehq.com</desc><g id="Solid/Interface Essential/Time/alarm-clock--time-tock-stopwatch-measure-clock-tick"><path id="Union" fill="#000000" fill-rule="evenodd" d="M15.345 2.14513C13.8222 1.10695 11.982 0.5 10 0.5 4.75329 0.5 0.5 4.75329 0.5 10c0 1.982 0.60695 3.8222 1.64513 5.345C4.53003 9.32792 9.32792 4.53003 15.345 2.14513Zm17.31 0C38.6721 4.53003 43.47 9.32792 45.8549 15.345 46.893 13.8222 47.5 11.982 47.5 10c0 -5.24671 -4.2533 -9.5 -9.5 -9.5 -1.982 0 -3.8222 0.60695 -5.345 1.64513ZM6.85296 36.9723C4.12092 33.3666 2.5 28.8726 2.5 24 2.5 12.1259 12.1259 2.5 24 2.5S45.5 12.1259 45.5 24c0 4.8726 -1.6209 9.3666 -4.353 12.9723 0.9474 1.9685 1.9512 4.1021 2.5973 5.4822 0.5057 1.0802 0.4665 2.4613 -0.4927 3.3633 -0.3196 0.3005 -0.701 0.6068 -1.1272 0.847 -0.4554 0.2567 -0.9522 0.4323 -1.4025 0.5533 -1.2229 0.3285 -2.3901 -0.2888 -3.0708 -1.2223 -0.6648 -0.9115 -1.6105 -2.2126 -2.5806 -3.5612C31.8368 44.3807 28.0491 45.5 24 45.5c-4.0491 0 -7.8368 -1.1193 -11.0705 -3.0654 -0.9701 1.3486 -1.9158 2.6497 -2.5806 3.5612 -0.68069 0.9335 -1.84791 1.5508 -3.07082 1.2223 -0.45028 -0.121 -0.94708 -0.2966 -1.40251 -0.5533 -0.42618 -0.2402 -0.80756 -0.5465 -1.12717 -0.847 -0.95924 -0.902 -0.99844 -2.2831 -0.49272 -3.3633 0.64615 -1.3801 1.64996 -3.5137 2.59728 -5.4822Zm25.56124 -7.3865c0.7811 0.781 0.7811 2.0474 0 2.8284 -0.781 0.7811 -2.0474 0.7811 -2.8284 0l-7 -7C22.2107 25.0391 22 24.5304 22 24V14c0 -1.1046 0.8954 -2 2 -2s2 0.8954 2 2v9.1716l6.4142 6.4142ZM10.5643 10.5646c0.7811 -0.78104 2.0474 -0.78104 2.8284 0l0.7071 0.7071c0.7811 0.7811 0.7811 2.0474 0 2.8284 -0.781 0.7811 -2.0473 0.7811 -2.8284 0l-0.7071 -0.7071c-0.78105 -0.781 -0.78105 -2.0473 0 -2.8284ZM7 22c-1.10457 0 -2 0.8954 -2 2s0.89543 2 2 2h1c1.10457 0 2 -0.8954 2 -2s-0.89543 -2 -2 -2H7Zm3.5644 15.4357c-0.78109 -0.7811 -0.78109 -2.0474 0 -2.8284l0.7071 -0.7071c0.781 -0.7811 2.0473 -0.7811 2.8284 0 0.781 0.781 0.781 2.0473 0 2.8284l-0.7071 0.7071c-0.7811 0.781 -2.0474 0.781 -2.8284 0ZM26 7c0 -1.10457 -0.8954 -2 -2 -2s-2 0.89543 -2 2v1c0 1.10457 0.8954 2 2 2s2 -0.89543 2 -2V7Zm11.4357 3.5646c-0.7811 -0.78104 -2.0474 -0.78104 -2.8284 0l-0.7071 0.7071c-0.7811 0.7811 -0.7811 2.0474 0 2.8284 0.781 0.7811 2.0473 0.7811 2.8284 0l0.7071 -0.7071c0.781 -0.781 0.781 -2.0473 0 -2.8284ZM41 22c1.1046 0 2 0.8954 2 2s-0.8954 2 -2 2h-1c-1.1046 0 -2 -0.8954 -2 -2s0.8954 -2 2 -2h1ZM24 43c1.1046 0 2 -0.8954 2 -2v-1c0 -1.1046 -0.8954 -2 -2 -2s-2 0.8954 -2 2v1c0 1.1046 0.8954 2 2 2Zm13.4356 -8.3927c0.7811 0.781 0.7811 2.0473 0 2.8284 -0.781 0.781 -2.0473 0.781 -2.8284 0l-0.7071 -0.7071c-0.781 -0.7811 -0.781 -2.0474 0 -2.8284 0.7811 -0.7811 2.0474 -0.7811 2.8284 0l0.7071 0.7071Z" clip-rule="evenodd" stroke-width="1"></path></g></svg>