<svg xmlns="http://www.w3.org/2000/svg" fill="none" viewBox="0 0 48 48" id="Alarm--Streamline-Plump"><desc>Alarm Streamline Icon: https://streamlinehq.com</desc><path fill="#000000" fill-rule="evenodd" d="M26.5006 4.02441c0 -1.38071 -1.1193 -2.5 -2.5 -2.5s-2.5 1.11929 -2.5 2.5v3.40672c0 1.38071 1.1193 2.5 2.5 2.5s2.5 -1.11929 2.5 -2.5V4.02441ZM9.45536 9.01301c-0.97631 -0.97631 -2.55922 -0.97631 -3.53553 0 -0.97631 0.97631 -0.97632 2.55919 0 3.53549l2.8087 2.8087c0.97631 0.9764 2.55927 0.9764 3.53557 0 0.9763 -0.9763 0.9763 -2.5592 0 -3.5355L9.45536 9.01301ZM42.0783 12.5486c0.9763 -0.9763 0.9763 -2.55925 0 -3.53556 -0.9763 -0.97631 -2.5592 -0.97631 -3.5355 0l-2.8087 2.80866c-0.9764 0.9764 -0.9764 2.5593 0 3.5356 0.9763 0.9763 2.5592 0.9763 3.5355 0l2.8087 -2.8087ZM2.7074 24.592c-1.38071 0 -2.500003 1.1193 -2.500003 2.5 0 1.3808 1.119293 2.5 2.500003 2.5h3.41242c1.38072 0 2.5 -1.1192 2.5 -2.5 0 -1.3807 -1.11928 -2.5 -2.5 -2.5H2.7074Zm39.174 0c-1.3808 0 -2.5 1.1193 -2.5 2.5 0 1.3808 1.1192 2.5 2.5 2.5h3.4124c1.3807 0 2.5 -1.1192 2.5 -2.5 0 -1.3807 -1.1193 -2.5 -2.5 -2.5h-3.4124Zm-17.8825 -12.3c-7.7991 0 -14.12158 6.3224 -14.12158 14.1216 0 0.342 -0.00189 0.7112 -0.00389 1.1026 -0.01164 2.2771 -0.02712 5.3048 0.30297 8.0813 2.2721 -0.0671 5.5657 -0.1257 10.3164 -0.1453 0.0411 -1.8462 0.1234 -3.568 0.2467 -4.9173 0.0641 -0.7014 0.998 -1.2546 2.5252 -1.2816 0.2252 -0.004 0.47 -0.0062 0.7357 -0.0062 0.2656 0 0.5104 0.0022 0.7357 0.0062 1.5271 0.027 2.461 0.5802 2.5251 1.2816 0.1233 1.3493 0.2056 3.0711 0.2468 4.9173 4.7485 0.0196 8.0413 0.0781 10.3135 0.1452 0.33 -2.7765 0.3146 -5.8041 0.3029 -8.0812 -0.002 -0.3914 -0.0039 -0.7606 -0.0039 -1.1026 0 -7.7992 -6.3224 -14.1216 -14.1216 -14.1216Zm18.7396 27.9319c-0.1177 -0.8694 -1.3176 -1.4835 -2.987 -1.5558 -2.4769 -0.1071 -7.1438 -0.2228 -15.7505 -0.2228 -6.4551 0 -10.694 0.0651 -13.4549 0.1428 -0.92035 0.0259 -1.67644 0.0532 -2.29567 0.08 -1.66943 0.0723 -2.86932 0.6864 -2.98702 1.5558 -0.07321 0.5407 -0.12901 1.27 -0.12901 2.2367 0 0.9667 0.0558 1.696 0.12901 2.2367 0.1177 0.8693 1.31759 1.4835 2.98703 1.5558 2.47686 0.1071 7.14376 0.2228 15.75056 0.2228 8.6067 0 13.2736 -0.1157 15.7505 -0.2228 1.6694 -0.0723 2.8693 -0.6864 2.987 -1.5558 0.0732 -0.5407 0.129 -1.27 0.129 -2.2367 0 -0.9667 -0.0558 -1.696 -0.129 -2.2367Z" clip-rule="evenodd" stroke-width="1"></path></svg>