<svg xmlns="http://www.w3.org/2000/svg" fill="none" viewBox="0 0 48 48"><g id="alert-square-priority-medium--alert-square-priority-medium-exclamation-mark"><path id="Subtract" fill="#000000" fill-rule="evenodd" d="M24 1.5c7.4014 0 12.5927 0.27808 15.8643 0.54389 3.2878 0.26714 5.8247 2.80396 6.0918 6.09182C46.2219 11.4073 46.5 16.5986 46.5 24c0 7.4014 -0.2781 12.5927 -0.5439 15.8643 -0.2671 3.2879 -2.804 5.8247 -6.0918 6.0918 -3.2716 0.2658 -8.4629 0.5439 -15.8643 0.5439 -7.4014 0 -12.5927 -0.2781 -15.8643 -0.5439 -3.28785 -0.2671 -5.82468 -2.8039 -6.09181 -6.0918C1.77807 36.5927 1.5 31.4014 1.5 24c0 -7.4014 0.27808 -12.5927 0.54389 -15.86431 0.26714 -3.28785 2.80396 -5.82467 6.09181 -6.0918C11.4073 1.77808 16.5986 1.5 24 1.5ZM13.634 14.1371c-0.0917 -1.2963 0.4896 -2.5714 1.7499 -2.8882 0.5732 -0.1441 1.2769 -0.2489 2.111 -0.2489 0.8341 0 1.5377 0.1048 2.1109 0.2489 1.2604 0.3168 1.8416 1.5919 1.7499 2.8882 -0.1907 2.6959 -0.5548 7.3786 -0.9486 10.0033 -0.1297 0.8647 -0.6503 1.6086 -1.5124 1.754 -0.3687 0.0621 -0.8302 0.1056 -1.3998 0.1056 -0.5697 0 -1.0311 -0.0435 -1.3998 -0.1056 -0.8622 -0.1454 -1.3828 -0.8893 -1.5125 -1.754 -0.3937 -2.6247 -0.7579 -7.3074 -0.9486 -10.0033Zm14.7602 -2.8882c-1.2604 0.3168 -1.8416 1.5919 -1.7499 2.8882 0.1907 2.6959 0.5548 7.3786 0.9486 10.0033 0.1297 0.8647 0.6503 1.6086 1.5124 1.754 0.3687 0.0621 0.8302 0.1056 1.3998 0.1056 0.5697 0 1.0311 -0.0435 1.3998 -0.1056 0.8622 -0.1454 1.3828 -0.8893 1.5125 -1.754 0.3937 -2.6247 0.7579 -7.3074 0.9486 -10.0033 0.0917 -1.2963 -0.4896 -2.5714 -1.7499 -2.8882 -0.5732 -0.1441 -1.2769 -0.2489 -2.111 -0.2489 -0.8341 0 -1.5377 0.1048 -2.1109 0.2489ZM20.9949 33.5c0 1.933 -1.567 3.5 -3.5 3.5s-3.5 -1.567 -3.5 -3.5 1.567 -3.5 3.5 -3.5 3.5 1.567 3.5 3.5Zm9.5102 3.5c1.933 0 3.5 -1.567 3.5 -3.5s-1.567 -3.5 -3.5 -3.5 -3.5 1.567 -3.5 3.5 1.567 3.5 3.5 3.5Z" clip-rule="evenodd" stroke-width="1"></path></g></svg>