<svg xmlns="http://www.w3.org/2000/svg" fill="none" viewBox="0 0 48 48" id="Animation--Streamline-Plump"><desc>Animation Streamline Icon: https://streamlinehq.com</desc><path fill="#000000" fill-rule="evenodd" d="M27.6641 2.16324c0.9669 -1.852419 3.5259 -1.852417 4.4928 0l4.1709 7.99106 8.5906 1.6809c1.9834 0.3881 2.7713 2.8996 1.3889 4.4273l-6.0134 6.646 1.1241 9.0516c0.259 2.086 -1.8084 3.6416 -3.6354 2.7355l-7.8721 -3.9046 -7.8721 3.9046c-1.827 0.9061 -3.8944 -0.6495 -3.6354 -2.7355l1.1241 -9.0516 -6.0135 -6.646c-1.3823 -1.5277 -0.5945 -4.0392 1.3889 -4.4273l8.5907 -1.6809 4.1709 -7.99106ZM2.24175 42.8714c-0.97631 0.9763 -0.97631 2.5592 0 3.5355 0.97632 0.9763 2.55923 0.9763 3.53554 0l8.95431 -8.9543c0.9763 -0.9763 0.9763 -2.5592 0 -3.5356 -0.9763 -0.9763 -2.5592 -0.9763 -3.5355 0l-8.95435 8.9544Zm-0.51196 -9.5651c-0.976309 -0.9763 -0.976309 -2.5592 0 -3.5355l7.66016 -7.6601c0.97635 -0.9764 2.55925 -0.9764 3.53555 0 0.9763 0.9763 0.9763 2.5592 0 3.5355l-7.66017 7.6601c-0.97632 0.9763 -2.55923 0.9763 -3.53554 0Zm14.56931 9.652c-0.9763 0.9763 -0.9763 2.5592 0 3.5355 0.9763 0.9763 2.5593 0.9763 3.5356 0l3.8769 -3.8769c0.9763 -0.9763 0.9763 -2.5592 0 -3.5355 -0.9763 -0.9764 -2.5592 -0.9764 -3.5355 0l-3.877 3.8769Z" clip-rule="evenodd" stroke-width="1"></path></svg>