<svg xmlns="http://www.w3.org/2000/svg" fill="none" viewBox="0 0 48 48" id="Announcement-Megaphone--Streamline-Plump"><desc>Announcement Megaphone Streamline Icon: https://streamlinehq.com</desc><g id="Solid/Business/Marketing strategy/annoncement-megaphone"><path id="Union" fill="#000000" fill-rule="evenodd" d="M23.7503 2c0 -1.10457 0.8954 -2 2 -2s2 0.89543 2 2v3c0 1.10457 -0.8954 2 -2 2s-2 -0.89543 -2 -2V2ZM6.75031 19c0 1.1046 0.89543 2 2 2h2.99999c1.1046 0 2 -0.8954 2 -2s-0.8954 -2 -2 -2H8.75031c-1.10457 0 -2 0.8954 -2 2Zm37.99999 0c0 1.1046 -0.8954 2 -2 2h-3c-1.1046 0 -2 -0.8954 -2 -2s0.8954 -2 2 -2h3c1.1046 0 2 0.8954 2 2ZM12.3146 5.56626c-0.781 0.78104 -0.781 2.04737 0 2.82842l2.1213 2.12132c0.7811 0.7811 2.0474 0.7811 2.8285 0 0.781 -0.78105 0.781 -2.04738 0 -2.82842L15.143 5.56626c-0.781 -0.78105 -2.0473 -0.78105 -2.8284 0Zm26.8695 2.82842c0.781 -0.78105 0.781 -2.04738 0 -2.82842 -0.7811 -0.78105 -2.0474 -0.78105 -2.8285 0l-2.1213 2.12132c-0.781 0.78104 -0.781 2.04737 0 2.82842 0.7811 0.7811 2.0474 0.7811 2.8284 0l2.1214 -2.12132ZM26.0483 38.3728c1.9923 -0.5715 4.0544 -1.179 6.129 -1.8126 -1.7358 -7.0464 -6.3496 -14.7755 -11.4792 -20.0722C13.672 23.0496 7.2085 29.6754 4.51329 32.4635c-1.21014 1.2519 -1.63627 3.1287 -0.90282 4.802 0.26682 0.6087 0.59604 1.305 0.94932 1.9169 0.35329 0.6119 0.79172 1.2452 1.18547 1.7806 1.08237 1.4719 2.92085 2.0412 4.61004 1.6192 0.7094 -0.1773 1.6038 -0.403 2.6498 -0.6713l0.2886 1.0768 0 0.0001c0.9659 3.6046 4.6711 5.7438 8.2759 4.7779 3.6047 -0.9658 5.7439 -4.6711 4.778 -8.2758l-0.2993 -1.1171Zm-3.8502 1.0856c-1.9053 0.5281 -3.6994 1.0125 -5.3224 1.4428l0.2817 1.0511 0 0.0001c0.3941 1.4709 1.906 2.3438 3.3769 1.9496 1.4708 -0.3941 2.3437 -1.906 1.9496 -3.3768l-0.2858 -1.0668Zm4.0613 -30.06197c0.6113 -0.55904 1.5601 -0.51661 2.1192 0.09476 0.1013 0.11118 0.1978 0.22684 0.2936 0.3427 0.1781 0.21531 0.4365 0.53791 0.7752 0.98651 1.1896 1.5755 3.3744 4.7105 6.5492 10.2094 3.1734 5.4965 4.7959 8.9554 5.566 10.7741 0.2195 0.5184 0.37 0.9042 0.4676 1.1665 0.0522 0.1403 0.1039 0.2809 0.1493 0.4236 0.2445 0.7728 -0.2026 1.6404 -0.9766 1.8853 -0.7886 0.2496 -1.6384 -0.2114 -1.8899 -0.9988 -1.4028 0.471 -2.8311 0.9349 -4.2661 1.3884 -1.9058 -7.5596 -6.7581 -15.6359 -12.1457 -21.2182 1.0861 -0.9941 2.1776 -1.9772 3.263 -2.9355 -0.5506 -0.604 -0.5085 -1.56681 0.0952 -2.11877Z" clip-rule="evenodd" stroke-width="1"></path></g></svg>