<svg xmlns="http://www.w3.org/2000/svg" fill="none" viewBox="0 0 48 48" id="App-Store-Logo--Streamline-Plump"><desc>App Store Logo Streamline Icon: https://streamlinehq.com</desc><g id="app-store-logo"><path id="Union" fill="#000000" fill-rule="evenodd" d="M18.5074 2.80168c-0.3197 0.14674 -0.677 0.33151 -1.0738 0.56382 -0.4174 0.24428 -0.7678 0.47637 -1.0621 0.69275 -1.2842 0.94444 -1.2576 2.53019 -0.6172 3.76327 0.6764 1.3023 1.8504 3.50028 3.8588 7.12368 -2.7726 4.7228 -5.5241 9.4602 -8.2156 14.2351 -0.8028 0.0151 -1.60555 0.0306 -2.40815 0.0461l-0.0066 0.0001 -0.00661 0.0001 -0.00638 0.0001 -0.00057 0 -0.00036 0 -0.00272 0.0001 -0.00037 0c-1.70495 0.0328 -3.40924 0.0657 -5.11326 0.0953 -0.80624 0.014 -1.59745 0.2319 -2.214 0.6809 -0.62816 0.4575 -1.056428 1.1441 -1.117801 2.0276 -0.019368 0.2788 -0.030445 0.5864 -0.030445 0.9251 0 0.3388 0.011077 0.6463 0.030445 0.9252 0.061372 0.8835 0.489621 1.5702 1.117861 2.0276 0.61664 0.4489 1.40798 0.6666 2.21441 0.6798 1.48281 0.0245 2.96568 0.0503 4.44883 0.0762l0.0013 0h0.00024c6.65138 0.1159 13.30858 0.2319 19.96698 0.2233 1.0289 -0.0013 1.7982 -1.0449 1.2871 -2.0374 -0.6776 -1.316 -1.9615 -3.3761 -3.9696 -4.901 -0.9149 -0.6947 -2.0448 -0.9299 -3.1145 -0.9234 -0.6849 0.0042 -1.3699 0.0097 -2.0548 0.0164 3.2764 -5.7702 6.4646 -11.5902 9.6507 -17.4063l0.001 -0.0017 0.0016 -0.003c0.6525 -1.1911 1.3049 -2.38203 1.958 -3.5725 0.7484 -1.364 0.8238 -3.16234 -0.6543 -4.18175l-0.2869 0.41593 0.2869 -0.41593c-0.2366 -0.16321 -0.5045 -0.33421 -0.8076 -0.51165 -0.2834 -0.1659 -0.5466 -0.30754 -0.7904 -0.4284 -0.7926 -0.39307 -1.5992 -0.36614 -2.3062 -0.04928 -0.6934 0.31072 -1.2725 0.88949 -1.6811 1.58187 -0.4907 0.83128 -0.9815 1.66241 -1.4724 2.49358l-0.0017 0.00281 -0.005 0.00847 -0.0001 0.00028 -0.0024 0.00403 -0.0002 0.00028 -0.2365 0.40049c-0.8644 -1.44881 -1.497 -2.48537 -1.9536 -3.22025 -0.7469 -1.2021 -2.1332 -2.036 -3.6109 -1.3577l0.2128 0.4635 -0.2128 -0.4635ZM7.28883 38.181c-0.54906 -0.0043 -1.02827 0.3111 -1.27246 0.7733 -0.23818 0.4508 -0.44236 0.8426 -0.61642 1.1806 -0.64843 1.259 -0.66958 2.8784 0.64049 3.8306 0.28468 0.2069 0.62063 0.4279 1.01697 0.6599 0.39662 0.2321 0.75362 0.4167 1.07297 0.5633 1.47142 0.6755 2.85322 -0.1548 3.59852 -1.3543 0.4062 -0.6537 0.9515 -1.5461 1.6753 -2.7548 0.228 -0.3806 0.1923 -0.9142 -0.1965 -1.2365 -0.9124 -0.7563 -2.1095 -1.163 -3.1922 -1.3856 -1.09073 -0.2242 -2.1161 -0.2717 -2.72667 -0.2765ZM27.9879 18.1727c0.5882 -0.9613 1.8898 -0.8177 2.402 0.079 2.053 3.5945 4.0655 7.2117 6.0616 10.8365 4.078 0.0476 6.5488 0.1149 8.0156 0.172 1.4144 0.055 2.8154 0.8452 2.9754 2.4526 0.0356 0.358 0.0572 0.7701 0.0572 1.2432 0 0.4731 -0.0216 0.8852 -0.0572 1.2433 -0.16 1.6072 -1.5598 2.3974 -2.9745 2.4525 -0.8728 0.0339 -2.1011 0.0715 -3.8119 0.1064 0.5815 1.063 1.1632 2.1256 1.7457 3.1878 0.7467 1.3618 0.8205 3.1535 -0.6515 4.1688 -0.2365 0.163 -0.5041 0.3339 -0.807 0.5112 -0.2833 0.1658 -0.5463 0.3073 -0.7898 0.4281 -0.7899 0.3917 -1.5931 0.3647 -2.2977 0.0492 -0.691 -0.3095 -1.269 -0.8862 -1.6777 -1.5764 -0.8804 -1.4868 -1.7641 -2.9728 -2.6477 -4.4586l-0.0042 -0.0071 -0.0007 -0.0013 -0.0003 -0.0005 -0.0008 -0.0012 -0.0016 -0.0027c-2.3018 -3.8708 -4.6058 -7.7453 -6.8608 -11.6482 -0.1593 -0.2756 -0.3018 -0.5826 -0.3873 -0.9192 -0.8632 -3.3965 0.6959 -6.6529 1.7132 -8.3154Z" clip-rule="evenodd" stroke-width="1"></path></g></svg>