<svg xmlns="http://www.w3.org/2000/svg" fill="none" viewBox="0 0 48 48" id="Apple-Logo--Streamline-Plump"><desc>Apple Logo Streamline Icon: https://streamlinehq.com</desc><g id="apple-logo--os-system-apple"><path id="Union" fill="#000000" fill-rule="evenodd" d="M23.6884 8.6853c0 -4.5317 3.6737 -8.2053 8.2053 -8.2053 1.0553 0 1.9108 0.8555 1.9108 1.9108 0 4.5317 -3.6737 8.2053 -8.2053 8.2053 -1.0553 0 -1.9108 -0.8555 -1.9108 -1.9108Zm-6.0704 3.4282c-3.6652 0 -7.3512 1.1725 -10.1328 3.8078 -2.8017 2.6544 -4.5349 6.65 -4.5349 11.9912 0 5.3163 1.7118 10.1599 4.3637 13.7032C9.9488 45.136 13.6409 47.52 17.618 47.52c2.6027 0 4.6238 -0.7491 6.0016 -1.5108 0.4199 -0.2322 0.7805 -0.4656 1.0804 -0.6797 0.2999 0.2141 0.6605 0.4475 1.0804 0.6797 1.3778 0.7617 3.3989 1.5108 6.0016 1.5108 5.7005 0 10.7977 -4.8447 13.172 -11.2102 0.1594 -0.4276 0.1181 -0.9042 -0.1128 -1.2979 -0.2308 -0.3936 -0.6265 -0.6625 -1.0775 -0.7321 -3.6351 -0.561 -6.4185 -3.7057 -6.4185 -7.4979 0 -3.3136 2.1252 -6.1348 5.0915 -7.1675 0.4656 -0.1621 0.8234 -0.5402 0.9595 -1.0141 0.1361 -0.4738 0.0336 -0.9842 -0.2749 -1.3687 -2.8525 -3.5544 -7.1111 -5.1181 -11.3393 -5.1181 -2.3886 0 -4.3995 0.7386 -5.7929 1.4555 -0.5083 0.2615 -0.9414 0.5236 -1.2891 0.7531 -0.3477 -0.2295 -0.7808 -0.4916 -1.2891 -0.7531 -1.3934 -0.7169 -3.4043 -1.4555 -5.7929 -1.4555Z" clip-rule="evenodd" stroke-width="1"></path></g></svg>