<svg xmlns="http://www.w3.org/2000/svg" fill="none" viewBox="0 0 48 48" id="Bag--Streamline-Plump"><desc>Bag Streamline Icon: https://streamlinehq.com</desc><g id="bag--bag-payment-cash-money-finance"><path id="Subtract" fill="#000000" fill-rule="evenodd" d="M14.588 2.17174C16.4775 1.87175 19.6886 1.5 24 1.5c4.3114 0 7.5225 0.37175 9.412 0.67174 1.8645 0.29604 3.088 1.91645 3.088 3.68687 0 1.72921 -0.5079 3.33902 -1.3819 4.68909 -0.029 0.0061 -0.0688 0.0143 -0.1193 0.0244 -0.126 0.0252 -0.3179 0.0621 -0.572 0.107 -0.5082 0.0897 -1.2645 0.2108 -2.2379 0.3325 -1.9473 0.2434 -4.7596 0.4884 -8.1889 0.4884 -3.4293 0 -6.2416 -0.245 -8.1889 -0.4884 -0.9734 -0.1217 -1.7297 -0.2428 -2.2379 -0.3325 -0.2541 -0.0449 -0.446 -0.0818 -0.572 -0.107 -0.0505 -0.0101 -0.0903 -0.0183 -0.1193 -0.0244C12.0079 9.19763 11.5 7.58782 11.5 5.85861c0 -1.77043 1.2235 -3.39083 3.088 -3.68687ZM12.1796 13.4434c-0.0046 0.021 -0.0045 0.021 -0.0045 0.021l0.0007 0.0001 0.0015 0.0004 0.0044 0.0009 0.0136 0.003 0.0469 0.01c0.0399 0.0085 0.0969 0.0203 0.1707 0.035 0.1474 0.0295 0.3617 0.0707 0.6389 0.1196 0.5543 0.0978 1.3605 0.2267 2.3871 0.355 2.0527 0.2566 4.9904 0.5116 8.5611 0.5116 3.5707 0 6.5084 -0.255 8.5611 -0.5116 1.0266 -0.1283 1.8328 -0.2572 2.3871 -0.355 0.2772 -0.0489 0.4915 -0.0901 0.6389 -0.1196 0.0738 -0.0147 0.1308 -0.0265 0.1707 -0.035l0.0469 -0.01 0.0136 -0.003 0.0044 -0.0009 0.0015 -0.0004 0.0007 -0.0001s0.0001 0 -0.0045 -0.021c0.0001 0.0001 0.0003 0.0002 0.0004 0.0003l0.0046 0.0206c0.0062 -0.0014 0.0124 -0.0028 0.0186 -0.0043 2.5082 1.7724 4.6745 4.0143 6.382 6.4638C44.877 23.7267 46.5 28.1432 46.5 32.25c0 5.328 -2.7305 8.986 -6.9484 11.2212C35.4364 45.652 29.9006 46.5 24 46.5c-5.9006 0 -11.4364 -0.848 -15.55162 -3.0288C4.23052 41.236 1.5 37.578 1.5 32.25c0 -4.1068 1.62298 -8.5233 4.274 -12.3262 1.71287 -2.4571 3.88736 -4.7054 6.4056 -6.4804Z" clip-rule="evenodd" stroke-width="1"></path></g></svg>