<svg xmlns="http://www.w3.org/2000/svg" fill="none" viewBox="0 0 48 48" id="Balloon--Streamline-Plump"><desc>Balloon Streamline Icon: https://streamlinehq.com</desc><g id="Solid/Entertainment/Party/balloon--hobby-entertainment-party-balloon"><path id="Union" fill="#000000" fill-rule="evenodd" d="M5.8787 4.61C8.9098 1.9023 13.036 0.48 17.4945 0.48s8.5847 1.4223 11.6157 4.13c3.0502 2.7247 4.8983 6.6714 4.8983 11.5009 0 4.7838 -1.8098 9.5869 -4.7298 13.2077 -2.2224 2.756 -5.1579 4.9046 -8.5147 5.7728 0.327 0.3798 0.6798 0.8133 1.054 1.3064 0.1351 0.1779 0.2614 0.3484 0.3798 0.512 0.8189 1.1319 1.0334 2.5231 0.3797 3.7213 -0.5144 0.9428 -1.434 1.5211 -2.473 1.7409 0.1933 0.2215 0.4073 0.441 0.6417 0.6503 0.9593 0.8564 2.2019 1.4951 3.7542 1.4951 2.0684 0 3.3881 -0.3413 4.4305 -0.8074 0.8325 -0.3724 1.4937 -0.8164 2.3025 -1.3598 0.2767 -0.1859 0.5706 -0.3833 0.8947 -0.5935 1.2331 -0.7998 2.6989 -1.6298 4.8334 -2.247 2.1163 -0.6119 4.8277 -0.9974 8.5568 -0.9974 0.8291 0 1.5013 0.6722 1.5013 1.5013s-0.6722 1.5013 -1.5013 1.5013c-3.5271 0 -5.9451 0.3652 -7.7227 0.8793 -1.7595 0.5087 -2.9521 1.18 -4.0335 1.8815 -0.2311 0.1499 -0.4681 0.3094 -0.7122 0.4738 -0.8575 0.5773 -1.8031 1.2139 -2.8933 1.7014 -1.4753 0.6599 -3.2207 1.0691 -5.6562 1.0691 -2.4511 0 -4.3778 -1.0294 -5.7539 -2.258 -0.9829 -0.8776 -1.7147 -1.8808 -2.1999 -2.7586 -0.3302 -0.0086 -0.6441 -0.0214 -0.9408 -0.0372 -1.3228 -0.0707 -2.5633 -0.6786 -3.1943 -1.8351 -0.6537 -1.1982 -0.4391 -2.5894 0.3798 -3.7213 0.1184 -0.1636 0.2447 -0.3341 0.3797 -0.512 0.3742 -0.4931 0.7269 -0.9266 1.054 -1.3063 -3.3569 -0.8682 -6.2923 -3.0169 -8.5148 -5.7729 -2.92 -3.6208 -4.7298 -8.4239 -4.7298 -13.2077 0 -4.8295 1.8481 -8.7761 4.8983 -11.5009Zm12.6166 0.8743c-0.8291 0 -1.5013 0.6721 -1.5013 1.5012s0.6722 1.5013 1.5013 1.5013c2.1577 0 4.0288 0.7142 5.3467 1.9405 1.3034 1.2128 2.1597 3.0122 2.1597 5.3892 0 0.8293 0.6722 1.5013 1.5013 1.5013s1.5013 -0.672 1.5013 -1.5013c0 -3.1504 -1.1602 -5.7666 -3.1169 -7.5873 -1.9424 -1.8074 -4.575 -2.7449 -7.3921 -2.7449Z" clip-rule="evenodd" stroke-width="1"></path></g></svg>