<svg xmlns="http://www.w3.org/2000/svg" fill="none" viewBox="0 0 48 48" id="Ball--Streamline-Plump"><desc>Ball Streamline Icon: https://streamlinehq.com</desc><g id="Solid/Money Shopping/Sports/ball--sports-ball-sport-basketball-shopping-catergories"><path id="Subtract" fill="#000000" fill-rule="evenodd" d="M21.4519 0.636195c-4.947 0.533335 -9.434 2.601845 -12.97491 5.719505l8.33131 8.3313C20.25 10.6786 21.7979 5.60381 21.4519 0.636195ZM6.35567 8.47703C3.23802 12.018 1.16951 16.5049 0.63619 21.4519c4.9676 0.346 10.04241 -1.2019 14.05081 -4.6435L6.35567 8.47703ZM0.503906 24.4499C0.612378 30.2231 2.80275 35.487 6.35567 39.5223L21.8783 23.9997l-5.0646 -5.0646C12.1826 22.9942 6.28348 24.8325 0.503906 24.4499ZM8.47699 41.6437c4.03521 3.5528 9.29901 5.7432 15.07211 5.8517 -0.3827 -5.7797 1.4555 -11.6789 5.5148 -16.3102l-5.0643 -5.0642L8.47699 41.6437Zm18.07011 5.7195c4.9471 -0.5333 9.4342 -2.6018 12.9752 -5.7195l-8.3317 -8.3318c-3.4418 4.0086 -4.9896 9.0836 -4.6435 14.0513Zm15.0966 -7.8408c3.1177 -3.5411 5.1862 -8.0282 5.7195 -12.9753 -4.9677 -0.3461 -10.0428 1.2017 -14.0513 4.6435l8.3318 8.3318Zm5.8517 -15.9732c-0.1085 -5.7731 -2.2989 -11.037 -5.8517 -15.07221L26.121 23.9997l5.0642 5.0642c4.6313 -4.0592 10.5305 -5.8975 16.3102 -5.5147ZM39.5223 6.35567 23.9996 21.8784l-5.0646 -5.0646c4.0592 -4.6312 5.8975 -10.53031 5.5148 -16.309894C30.2231 0.612368 35.487 2.80274 39.5223 6.35567Z" clip-rule="evenodd" stroke-width="1"></path></g></svg>