<svg xmlns="http://www.w3.org/2000/svg" fill="none" viewBox="0 0 48 48" id="Bank--Streamline-Plump"><desc>Bank Streamline Icon: https://streamlinehq.com</desc><g id="Solid/Money Shopping/Bank/bank--institution-saving-bank-payment-finance"><path id="Union" fill="#000000" fill-rule="evenodd" d="M25.5714 1.82018c-1.0326 -0.26024 -2.1109 -0.26024 -3.1435 0C14.7441 3.7566 6.52372 8.85917 3.45556 10.8792c-1.25561 0.8266 -1.95566 2.2182 -1.9555 3.6721L1.5 16.6595c-0.00024 1.8185 1.40198 3.3533 3.2546 3.4523 2.79325 0.1494 8.8588 0.3861 19.245 0.3861 10.3869 0 16.4526 -0.2367 19.2456 -0.3861 1.8521 -0.099 3.2544 -1.6332 3.2544 -3.4516v-2.11c0 -1.4536 -0.7002 -2.8443 -1.955 -3.6705 -3.0676 -2.01959 -11.2887 -7.12292 -18.9732 -9.05952ZM28 11.998c0 2.2092 -1.7909 4 -4 4 -2.2091 0 -4 -1.7908 -4 -4 0 -2.20909 1.7909 -3.99995 4 -3.99995 2.2091 0 4 1.79086 4 3.99995Zm1.5 10.9763c-1.6814 0.015 -3.5125 0.0236 -5.5004 0.0236 -1.9876 0 -3.8184 -0.0086 -5.4996 -0.0236v12.0403c1.6701 -0.0105 3.4996 -0.0166 5.5 -0.0166 2.0057 0 3.8348 0.0061 5.5 0.0167V22.9743Zm3 -0.0355v12.1014c4.9626 0.0537 8.1284 0.1485 10 0.2251V22.6526c-2.0634 0.0985 -5.3228 0.2167 -10 0.2862Zm10 -0.4483 -10 -1.3405v-0.0001l10 1.3406Zm-13 -1.7427v0.0001l-1.8639 -0.2499h0.0011l1.8628 0.2498Zm-24 1.9049c2.06355 0.0985 5.3229 0.2167 10 0.2861v12.1011c-4.8474 0.0516 -8.04403 0.1419 -10 0.2169V22.6527ZM24 46.498c-11.8463 0 -17.48345 -0.2118 -19.57667 -0.3188 -1.19649 -0.0612 -2.31015 -0.8606 -2.62773 -2.1293 -0.13609 -0.5436 -0.2956 -1.3198 -0.2956 -2.0519 0 -0.5241 0.04056 -1.0951 0.08503 -1.5697 0.13724 -1.4645 1.33085 -2.5525 2.75867 -2.6201C6.64949 37.699 12.4604 37.498 24 37.498c11.8463 0 17.4835 0.2119 19.5767 0.3189 1.1965 0.0612 2.3101 0.8606 2.6277 2.1293 0.1361 0.5436 0.2956 1.3198 0.2956 2.0518 0 0.7321 -0.1595 1.5083 -0.2956 2.0519 -0.3176 1.2687 -1.4312 2.0681 -2.6277 2.1293 -2.0932 0.107 -7.7304 0.3188 -19.5767 0.3188Z" clip-rule="evenodd" stroke-width="1"></path></g></svg>