<svg xmlns="http://www.w3.org/2000/svg" fill="none" viewBox="0 0 48 48" id="Bell--Streamline-Plump"><desc>Bell Streamline Icon: https://streamlinehq.com</desc><g id="bell--service-concierge-porter-call-ring-bellhop-bell-reception-hotel"><path id="Union" fill="#000000" fill-rule="evenodd" d="M18 6c0 -1.10457 0.8954 -2 2 -2h8c1.1046 0 2 0.89543 2 2s-0.8954 2 -2 2h-2v1.58776c10.7839 0.95024 19.3824 9.50764 20.3985 20.27334 0.1956 2.073 -1.5063 3.6389 -3.3987 3.6389H4.99805c-1.89242 0 -3.59434 -1.5659 -3.39869 -3.6389C2.61547 19.0946 11.2151 10.5369 22 9.58757V8h-2c-1.1046 0 -2 -0.89543 -2 -2Zm6.9996 10.5c5.1784 0 9.6783 2.9152 11.9438 7.201 0.3872 0.7324 1.2947 1.0123 2.0271 0.6251 0.7324 -0.3871 1.0123 -1.2947 0.6252 -2.0271 -2.7645 -5.2298 -8.2623 -8.799 -14.5961 -8.799 -0.8284 0 -1.5 0.6716 -1.5 1.5s0.6716 1.5 1.5 1.5ZM39.2391 36H8.7608c-0.22347 0.3597 -0.49018 0.6657 -0.78967 0.9271 -0.93845 0.8191 -2.26029 1.2545 -3.77411 1.4471 -1.48429 0.1888 -2.84939 1.1735 -3.231536 2.7021C0.657827 42.3069 1.58733 43.5 2.85684 43.5H45.1478c1.2719 0 2.1937 -1.1954 1.8866 -2.4237 -0.3821 -1.5286 -1.7472 -2.5133 -3.2315 -2.7021 -1.5138 -0.1926 -2.8357 -0.628 -3.7741 -1.4471 -0.2995 -0.2614 -0.5662 -0.5674 -0.7897 -0.9271Z" clip-rule="evenodd" stroke-width="1"></path></g></svg>