<svg xmlns="http://www.w3.org/2000/svg" fill="none" viewBox="0 0 48 48" id="Bicycle-Bike--Streamline-Plump"><desc>Bicycle Bike Streamline Icon: https://streamlinehq.com</desc><g id="bicycle-bike"><path id="Union" fill="#000000" fill-rule="evenodd" d="M39.998 6.9876c0.1371 1.097 -0.6409 2.0975 -1.738 2.2346 -1.9681 0.246 -3.6778 0.7588 -4.8304 1.1768l3.901 13.3748c0.225 -0.0159 0.4522 -0.024 0.6813 -0.024 5.2512 0 9.5081 4.2569 9.5081 9.5081s-4.2569 9.508 -9.5081 9.508 -9.5081 -4.2569 -9.5081 -9.508c0 -3.6131 2.0153 -6.7555 4.9832 -8.3645l-0.663 -2.2731c-5.5739 1.2378 -10.5521 3.9235 -14.295 6.4548 0.6194 1.2622 0.9672 2.6819 0.9672 4.1828 0 5.2511 -4.257 9.5081 -9.5081 9.5081C4.7369 42.7659 0.48 38.509 0.48 33.2579s4.2569 -9.5081 9.5081 -9.5081c1.7109 0 3.3163 0.4518 4.7033 1.2428 0.7985 -0.5696 1.6604 -1.1497 2.5815 -1.7244 -0.0355 -0.0601 -0.0683 -0.1226 -0.0979 -0.1875l-2.3388 -5.1134c-0.7163 0.1735 -1.4423 0.3872 -2.144 0.6503 -1.0351 0.3882 -2.189 -0.1362 -2.5771 -1.1714 -0.3881 -1.0351 0.1363 -2.1889 1.1714 -2.5771 2.8952 -1.0856 6.0485 -1.5949 9.137 -1.6282 1.1112 -0.0092 2.0748 0.8592 2.0748 2.0012 0 1.1213 -0.9306 1.9927 -2.0317 2.0019 -0.1368 0.0015 -0.7034 0.0118 -1.523 0.0787l1.8148 3.9676c3.1004 -1.5878 6.668 -2.9648 10.5923 -3.7215l-2.208 -7.5702c-0.2985 -1.0231 0.1603 -2.1822 1.2113 -2.6672 0.8088 -0.3733 3.7072 -1.619 7.4095 -2.0817 1.0969 -0.1371 2.0974 0.641 2.2345 1.7379Zm-3.9079 26.8309 -1.2842 -4.4032c-1.099 0.918 -1.7982 2.2986 -1.7982 3.8426 0 2.7637 2.2405 5.0042 5.0042 5.0042s5.0043 -2.2405 5.0043 -5.0042c0 -2.548 -1.9042 -4.6512 -4.3672 -4.9642l1.2844 4.4039c0.3095 1.0613 -0.2999 2.1725 -1.3612 2.4821 -1.0612 0.3095 -2.1725 -0.2999 -2.4821 -1.3612Zm-26.2586 -0.1594c-0.4422 -0.4294 -0.7973 -0.9032 -1.0733 -1.3412 -0.5756 -0.9136 -0.3302 -2.0512 0.4484 -2.7992 0.3684 -0.3539 0.8167 -0.771 1.3405 -1.2343 -0.1835 -0.0203 -0.3701 -0.0308 -0.559 -0.0308 -2.7638 0 -5.0043 2.2405 -5.0043 5.0043s2.2405 5.0042 5.0043 5.0042c2.7637 0 5.0042 -2.2405 5.0042 -5.0042 0 -0.4922 -0.071 -0.9677 -0.2033 -1.4169 -0.7247 0.5845 -1.3424 1.1131 -1.8404 1.5549 -0.9069 0.8043 -2.2476 1.1076 -3.1171 0.2632Z" clip-rule="evenodd" stroke-width="1"></path></g></svg>