<svg xmlns="http://www.w3.org/2000/svg" fill="none" viewBox="0 0 48 48" id="Binder-Clip--Streamline-Plump"><desc>Binder Clip Streamline Icon: https://streamlinehq.com</desc><g id="Solid/Interface Essential/Edit/binder-clip--binder-clip-clipper-company-office-supplies-work"><path id="Union" fill="#000000" fill-rule="evenodd" d="m13.5206 37.6328 4.2044 -22.364c-2.0182 -0.8846 -3.582 -2.0291 -4.6116 -3.3956 -1.3374 -1.7749 -1.7099 -3.86582 -1.0039 -5.84025C13.4569 2.26513 18.1823 0 23.9986 0c5.8162 0 10.5416 2.26513 11.889 6.03295 0.7061 1.97443 0.3335 4.06535 -1.0039 5.84025 -1.0296 1.3665 -2.5934 2.511 -4.6116 3.3956l4.1953 22.315 0.5627 2.7201c0.1679 0.8113 0.9616 1.3328 1.7728 1.165 0.8113 -0.1679 1.3329 -0.9616 1.165 -1.7728l-4.3635 -21.0903c3.9091 0.0907 6.824 0.2234 8.7446 0.332 2.3493 0.1327 4.2046 2.1022 4.06 4.5142 -0.3702 6.1743 -1.8186 13.6562 -3.19 19.3009 -0.5916 2.4349 -2.605 4.2571 -5.1833 4.4225 -2.5145 0.1614 -6.8354 0.3246 -14.0362 0.3246 -7.2009 0 -11.5217 -0.1632 -14.0362 -0.3246 -2.57832 -0.1654 -4.59174 -1.9876 -5.18332 -4.4225 -1.37144 -5.6447 -2.81983 -13.1266 -3.19003 -19.3009 -0.14462 -2.412 1.71069 -4.3815 4.05997 -4.5142 1.92053 -0.1086 4.83508 -0.2413 8.74368 -0.332l-4.3635 21.0903c-0.16781 0.8112 0.3538 1.6049 1.165 1.7728 0.8113 0.1678 1.605 -0.3537 1.7728 -1.165l0.5527 -2.6711Zm7.1104 -25.5302c-2.3524 -0.7841 -3.6776 -1.78 -4.3229 -2.63645 -0.6016 -0.79844 -0.6447 -1.49195 -0.4322 -2.08632C16.3658 6.01006 18.8148 4 23.9986 4c5.1837 0 7.6328 2.01006 8.1226 3.37983 0.2125 0.59437 0.1694 1.28788 -0.4322 2.08632 -0.6453 0.85645 -1.9705 1.85235 -4.3229 2.63645 -0.9485 0.3162 -1.5178 1.2843 -1.3331 2.2669l0.7781 4.139c-0.9038 -0.0055 -1.841 -0.0085 -2.8116 -0.0085 -0.9713 0 -1.9092 0.003 -2.8135 0.0085l0.7781 -4.139c0.1848 -0.9826 -0.3845 -1.9507 -1.3331 -2.2669Z" clip-rule="evenodd" stroke-width="1"></path></g></svg>