<svg xmlns="http://www.w3.org/2000/svg" fill="none" viewBox="0 0 48 48" id="Binoculars--Streamline-Plump"><desc>Binoculars Streamline Icon: https://streamlinehq.com</desc><g id="Solid/Interface Essential/Edit/binoculars--binocular-binoculars-view-zoom"><path id="Subtract" fill="#000000" fill-rule="evenodd" d="M14.5 1.5c-3.3367 0 -5.3315 1.19037 -6.37565 2.15126 -0.6901 0.63507 -1.06979 1.42317 -1.30826 2.09657 -0.97472 2.75245 -2.31529 8.60537 -3.5184 14.64677 -1.02022 5.1229 -1.96207 10.4873 -2.518619 14.404C0.59687 35.501 0.5 36.2374 0.5 37c0 5.4079 4.87198 9.5 10.5 9.5 5.6091 0 10.4673 -4.0647 10.4998 -9.4456 0.3297 -4.768 0.5507 -9.8269 0.6988 -14.4672 -2.2633 0.2219 -4.393 0.8655 -6.4131 1.9058 -0.7365 0.3792 -1.6577 0.1646 -2.0913 -0.5413s-0.215 -1.6348 0.5177 -2.0214C17.24 20.3325 20.5015 19.5 24.0001 19.5c3.4927 0 6.7465 0.8307 9.7645 2.4336 0.7317 0.3885 0.9469 1.3182 0.5109 2.0226 -0.4361 0.7044 -1.358 0.9157 -2.0936 0.5346 -2.0086 -1.0405 -4.1271 -1.6819 -6.3805 -1.9034 0.1481 4.6402 0.3691 9.6991 0.6988 14.467C26.5327 42.4353 31.3909 46.5 37 46.5c5.628 0 10.5 -4.0921 10.5 -9.5 0 -0.7626 -0.0969 -1.499 -0.2791 -2.2014 -0.5565 -3.9167 -1.4984 -9.2811 -2.5186 -14.404 -1.2031 -6.0414 -2.5437 -11.89432 -3.5184 -14.64677 -0.2385 -0.6734 -0.6181 -1.4615 -1.3083 -2.09657C38.8315 2.69037 36.8367 1.5 33.5 1.5c-2.4177 0 -4.2407 0.6246 -5.5061 1.31196 -1.912 1.03864 -2.496 3.10019 -2.4842 4.77304 0.0057 0.80052 0.0147 1.80245 0.029 2.9672 -0.4858 -0.0338 -0.9985 -0.0522 -1.5387 -0.0522 -0.5402 0 -1.0529 0.0184 -1.5387 0.0522 0.0143 -1.16475 0.0233 -2.16668 0.029 -2.9672 0.0118 -1.67285 -0.5722 -3.7344 -2.4842 -4.77304C18.7407 2.1246 16.9177 1.5 14.5 1.5Zm22.5 41c-3.3137 0 -6 -2.4624 -6 -5.5s2.6863 -5.5 6 -5.5 6 2.4624 6 5.5 -2.6863 5.5 -6 5.5ZM17 37c0 3.0376 -2.6863 5.5 -6 5.5 -3.31371 0 -6 -2.4624 -6 -5.5s2.68629 -5.5 6 -5.5c3.3137 0 6 2.4624 6 5.5Z" clip-rule="evenodd" stroke-width="1"></path></g></svg>