<svg xmlns="http://www.w3.org/2000/svg" fill="none" viewBox="0 0 48 48" id="Blank-Calendar--Streamline-Plump"><desc>Blank Calendar Streamline Icon: https://streamlinehq.com</desc><g id="Solid/Interface Essential/Calendar/blank-calendar--blank-calendar-date-day-month-empty"><path id="Union" fill="#000000" fill-rule="evenodd" d="M37.8047 5.9399c-0.002 -0.9182 -0.0212 -1.7277 -0.0461 -2.4012 -0.0575 -1.558 -1.0597 -2.9246 -2.7374 -3.0232C34.6445 0.4934 34.2115 0.48 33.7145 0.48c-0.4969 0 -0.9301 0.0134 -1.3067 0.0355 -1.6777 0.0986 -2.68 1.4652 -2.7374 3.0232 -0.0222 0.6001 -0.0398 1.3083 -0.0449 2.105 -1.7152 -0.032 -3.5886 -0.0507 -5.6258 -0.0507s-3.9106 0.0187 -5.6258 0.0507c-0.005 -0.7967 -0.0227 -1.5049 -0.0449 -2.105 -0.0574 -1.558 -1.0597 -2.9246 -2.7374 -3.0232C15.215 0.4934 14.7819 0.48 14.2849 0.48c-0.4969 0 -0.93 0.0134 -1.3067 0.0355 -1.6777 0.0986 -2.6799 1.4652 -2.7374 3.0232 -0.0248 0.6735 -0.0441 1.483 -0.0461 2.4012 -0.8941 0.0508 -1.696 0.1037 -2.4085 0.1561 -3.3506 0.2464 -5.9855 2.7972 -6.2739 6.1687 -0.086 1.005 -0.1719 2.187 -0.2484 3.5544h45.4716c-0.0765 -1.3674 -0.1624 -2.5494 -0.2483 -3.5544 -0.2885 -3.3715 -2.9235 -5.9223 -6.2739 -6.1687 -0.7126 -0.0524 -1.5145 -0.1053 -2.4086 -0.1561ZM0.9913 26.5565c0 -2.9205 0.0517 -5.4702 0.1321 -7.6695h45.7533c0.0804 2.1993 0.132 4.7489 0.132 7.6695 0 6.5541 -0.2601 11.2397 -0.5212 14.2918 -0.2885 3.3715 -2.9234 5.9223 -6.2739 6.1688 -3.3413 0.2456 -8.6467 0.5029 -16.2136 0.5029s-12.8723 -0.2573 -16.2135 -0.5029c-3.3506 -0.2465 -5.9855 -2.7973 -6.2739 -6.1688 -0.2611 -3.0521 -0.5213 -7.7378 -0.5213 -14.2918Z" clip-rule="evenodd" stroke-width="1"></path></g></svg>