<svg xmlns="http://www.w3.org/2000/svg" fill="none" viewBox="0 0 48 48" id="Bomb--Streamline-Plump"><desc>Bomb Streamline Icon: https://streamlinehq.com</desc><g id="Solid/Interface Essential/Edit/bomb--delete-bomb-remove"><path id="Subtract" fill="#000000" fill-rule="evenodd" d="M35.194 5.3702c0.265 0.1908 0.5408 0.4011 0.8259 0.6329 2.5509 -2.7886 6.7414 -3.4271 10.024 -1.4576l0.504 0.3024c0.9479 0.5688 1.2553 1.7983 0.6866 2.7463 -0.5688 0.948 -1.7985 1.2553 -2.7464 0.6866l-0.504 -0.3024c-1.6835 -1.0101 -3.8447 -0.6482 -5.1088 0.8386 0.3113 0.3705 0.5867 0.7264 0.8304 1.0648 1.7804 2.473 0.8053 5.4153 -0.9678 7.1885l-0.6572 0.6571c0.9234 2.2692 1.4322 4.7512 1.4322 7.3521 0 10.7787 -8.7378 19.5164 -19.5165 19.5164C9.2178 44.5959 0.48 35.8582 0.48 25.0795S9.2178 5.5631 19.9964 5.5631c2.6008 0 5.0828 0.5087 7.3519 1.4321l0.6573 -0.6573c1.7732 -1.7731 4.7154 -2.7482 7.1884 -0.9677ZM5.9846 25.0795c0 1.1055 0.8962 2.0017 2.0017 2.0017s2.0017 -0.8962 2.0017 -2.0017c0 -5.5274 4.481 -10.0084 10.0084 -10.0084 1.1055 0 2.0017 -0.8962 2.0017 -2.0017s-0.8962 -2.0017 -2.0017 -2.0017c-7.7385 0 -14.0118 6.2733 -14.0118 14.0118Z" clip-rule="evenodd" stroke-width="1"></path></g></svg>