<svg xmlns="http://www.w3.org/2000/svg" fill="none" viewBox="0 0 48 48" id="Bookmark-Library--Streamline-Plump"><desc>Bookmark Library Streamline Icon: https://streamlinehq.com</desc><path fill="#000000" fill-rule="evenodd" d="M34.1766 13.2827c2.0401 0.3992 2.8506 2.9825 1.4286 4.5539l-0.7454 0.8239 0 0.0001 -5.44 6.0122 1.1562 9.3107c0.2665 2.1456 -1.8601 3.7458 -3.7394 2.8137l-8.0974 -4.0162 -0.6833 0.3388 -7.4141 3.6774 -0.0001 0c-0.2349 0.1165 -0.4736 0.1935 -0.71106 0.2348 -0.4332 0.0752 -0.8621 0.0317 -1.25539 -0.107 -1.11593 -0.3934 -1.94523 -1.5533 -1.77284 -2.9415l1.15625 -9.3107 -6.18557 -6.8362c-1.421922 -1.5714 -0.61149 -4.1547 1.42868 -4.5539l8.83653 -1.7291 4.2902 -8.21974c0.4983 -0.95456 1.4075 -1.43092 2.316 -1.42907 0.9049 0.00187 1.809 0.47823 2.3053 1.42907l4.2903 8.21974 0.0001 0 1.8907 0.37 4.5804 0.8963 2.3653 0.4628ZM18.2481 36.3733l0.4911 -0.2436 6.7644 3.3551c4.2321 2.0991 8.5811 -1.5904 8.0495 -5.871l-0.9869 -7.9471 4.406 -4.8694 7.726 1.5117c2.0401 0.3992 2.8506 2.9825 1.4286 4.554l-6.1855 6.8362 1.1562 9.3106c0.2665 2.1457 -1.8601 3.7459 -3.7394 2.8138l-8.0974 -4.0163 -8.0974 4.0163c-1.8792 0.9321 -4.0058 -0.6681 -3.7394 -2.8138l0.8242 -6.6365Z" clip-rule="evenodd" stroke-width="1"></path></svg>