<svg xmlns="http://www.w3.org/2000/svg" fill="none" viewBox="0 0 48 48" id="Book-1--Streamline-Plump"><desc>Book 1 Streamline Icon: https://streamlinehq.com</desc><g id="Solid/Interface Essential/Content/book-1--content-books-book-close"><path id="Subtract" fill="#000000" fill-rule="evenodd" d="M23.976 0.48c-6.5292 0 -11.203 0.216 -14.2536 0.4334 -3.3637 0.2397 -5.9717 2.8396 -6.2331 6.1976 -0.2394 3.076 -0.4825 7.7174 -0.4825 13.8864v21.0179c0 0.0132 0.0002 0.0263 0.0006 0.0394 0.0014 0.4796 0.0288 0.9209 0.075 1.3256 0.3241 2.8368 2.9652 3.9755 5.0762 4.0169 2.8022 0.0549 7.7963 0.1228 15.3662 0.1228 6.3462 0 11.1076 -0.0477 14.2844 -0.0955 1.5921 -0.0239 3.1844 -0.0499 4.7759 -0.0958 0.8288 -0.0249 1.4809 -0.717 1.4559 -1.5458 -0.0249 -0.8287 -0.717 -1.4803 -1.5457 -1.4554l-0.4553 0.0123v-5.3789c1.7675 -0.9476 2.9714 -2.8191 2.953 -4.9674 -0.0242 -2.7974 -0.048 -7.0642 -0.048 -12.996 0 -6.1691 -0.243 -10.8105 -0.4824 -13.8865 -0.2614 -3.3579 -2.8694 -5.9579 -6.2331 -6.1976C35.1789 0.696 30.505 0.48 23.976 0.48ZM8.197 39.6375c2.826 -0.0548 7.9494 -0.1243 15.779 -0.1243 6.7758 0 11.8056 0.052 15.0615 0.1017v4.7869c-0.3912 0.0068 -0.8157 0.0137 -1.2734 0.0205 -3.1618 0.0475 -7.9081 0.0952 -14.2393 0.0952 -7.5521 0 -12.5265 -0.0678 -15.3073 -0.1223 -0.8556 -0.0168 -2.0371 -0.3507 -2.152 -1.3558 -0.0343 -0.3006 -0.0557 -0.6412 -0.0557 -1.0241 0 -0.3976 0.0233 -0.7498 0.0609 -1.0583 0.119 -0.9744 1.3 -1.3034 2.1263 -1.3195Zm4.3179 -28.6486c0 -1.1055 0.8962 -2.0017 2.0017 -2.0017h18.0153c1.1056 0 2.0017 0.8962 2.0017 2.0017 0 1.1056 -0.8961 2.0017 -2.0017 2.0017H14.5166c-1.1055 0 -2.0017 -0.8961 -2.0017 -2.0017Zm2.0017 8.0068c-1.1055 0 -2.0017 0.8962 -2.0017 2.0017s0.8962 2.0017 2.0017 2.0017h9.0077c1.1055 0 2.0017 -0.8961 2.0017 -2.0017s-0.8962 -2.0017 -2.0017 -2.0017h-9.0077Z" clip-rule="evenodd" stroke-width="1"></path></g></svg>