<svg xmlns="http://www.w3.org/2000/svg" fill="none" viewBox="0 0 48 48" id="Book-Flip-Next-Page--Streamline-Plump"><desc>Book Flip Next Page Streamline Icon: https://streamlinehq.com</desc><g id="book-flip-next-page--book-flip-next-page-e-book-electronic-pdf-turn-left"><path id="Subtract" fill="#000000" fill-rule="evenodd" d="m35.6906 3.8499 0 0.00007c0.0067 0.12006 0.0134 0.24358 0.0201 0.3706 0.1417 2.67542 0.2894 6.89953 0.2894 12.88373 0 6.2684 -0.162 11.6055 -0.3095 14.2544 -0.1056 1.8969 -0.7812 2.8863 -2.0244 3.3221 -1.8654 0.654 -3.6567 1.8194 -5.2116 3.1421 -1.1306 0.9617 -2.1363 2.0066 -2.9546 2.9985L25.5 7c0 -0.05659 -0.0031 -0.11245 -0.0092 -0.16741 1.9435 -2.35884 4.9486 -5.02053 8.1754 -6.151764 0.7348 -0.257527 1.3006 0.303798 1.6475 1.224104 0.2081 0.5522 0.3373 1.23364 0.3769 1.94497Zm-13.236 3.69904c-4.8089 -2.28898 -9.4273 -3.6429 -16.10224 -3.97035 -2.68852 -0.13188 -5.00134 1.812 -5.27719 4.51506C0.799341 10.7966 0.5 15.1847 0.5 21.5003c0 6.3157 0.299341 10.7038 0.57517 13.4067 0.27952 2.739 2.59519 4.5437 5.13019 4.668 6.79884 0.3336 11.22094 1.7772 16.18724 4.2853 0.0356 0.018 0.0714 0.0353 0.1074 0.052v-2.5148c-0.0299 -0.17 -0.0454 -0.3441 -0.0454 -0.5209V7.54894ZM25.5 43.9123c0.0267 -0.0124 0.0534 -0.0251 0.0799 -0.0382 -0.0266 0.0011 -0.0532 0.0019 -0.0799 0.0023v0.0359Zm2.2152 -1.0634c0.0201 -0.0232 0.04 -0.0467 0.0596 -0.0706 1.7631 -2.151 4.3615 -4.3821 6.8839 -5.2664 1.179 -0.4133 2.2451 -1.1644 2.9889 -2.352 0.7002 -1.118 0.9692 -2.3923 1.0384 -3.6345 0.1513 -2.7183 0.3141 -8.1131 0.3141 -14.4211 0 -6.2271 -0.1586 -10.58337 -0.3075 -13.30075 0.9415 -0.09926 1.9237 -0.17436 2.955 -0.22496 2.6886 -0.13188 5.0014 1.812 5.2772 4.51506 0.2759 2.70295 0.5752 7.09105 0.5752 13.40665 0 6.3157 -0.2993 10.7038 -0.5752 13.4067 -0.2795 2.739 -2.5952 4.5437 -5.1302 4.668 -5.8256 0.2858 -9.9062 1.3866 -14.0794 3.2739Z" clip-rule="evenodd" stroke-width="1"></path></g></svg>