<svg xmlns="http://www.w3.org/2000/svg" fill="none" viewBox="0 0 48 48"><g id="bookmark-book--bookmark-favorite-book-tag"><path id="Subtract" fill="#000000" fill-rule="evenodd" d="M24.4442 0.5C18.0503 0.505388 13.4603 0.718483 10.451 0.932936 7.09025 1.17244 4.48443 3.77014 4.22326 7.12527c-0.23923 3.07333 -0.48205 7.71083 -0.48205 13.87463l0 21c0.00001 0.0132 0.00017 0.0263 0.00051 0.0394 0.00143 0.4791 0.02879 0.9201 0.07498 1.3244 0.32385 2.8344 2.96266 3.9721 5.07191 4.0135 2.79979 0.0548 7.78959 0.1227 15.35309 0.1227 6.3408 0 11.0982 -0.0477 14.2723 -0.0954 1.5907 -0.0239 3.1816 -0.0499 4.7718 -0.0957 0.8281 -0.0249 1.4796 -0.7164 1.4547 -1.5445 -0.0249 -0.828 -0.7163 -1.4791 -1.5444 -1.4542l-0.4549 0.0123 0 -5.3743c1.766 -0.9468 2.9688 -2.8167 2.9504 -4.9632 -0.0241 -2.795 -0.0479 -7.0582 -0.0479 -12.985 0 -6.1638 -0.2428 -10.8013 -0.482 -13.87461 -0.2612 -3.35513 -2.867 -5.95284 -6.2278 -6.192342 -1.0974 -0.078209 -2.405 -0.156236 -3.9338 -0.224076 0 0.011927 -0.0001 0.023859 -0.0001 0.035798C32.2841 0.608642 28.79 0.503889 24.4442 0.5Zm-3.1469 22.116c-0.0673 -2.98 -0.1932 -10.9421 -0.254 -18.09745 0.9947 -0.01205 2.0445 -0.01866 3.1504 -0.01866 4.4931 0 8.0581 0.10918 10.7782 0.24849 -0.0616 7.07582 -0.1855 14.92342 -0.2521 17.86832 -0.0182 0.8051 -0.9321 1.2507 -1.5837 0.7775l-4.5399 -3.2965c-0.3504 -0.2544 -0.8246 -0.2544 -1.175 -0.0001l-4.5403 3.2959c-0.6517 0.4731 -1.5654 0.0276 -1.5836 -0.7775Zm3.3952 16.8839c-7.8229 0 -12.942 0.0694 -15.76557 0.1242 -0.8256 0.016 -2.00554 0.3448 -2.12442 1.3184 -0.03764 0.3082 -0.06085 0.6601 -0.06085 1.0574 0 0.3825 0.02134 0.7229 0.05564 1.0232 0.11475 1.0042 1.29522 1.3379 2.15012 1.3546 2.77848 0.0545 7.74858 0.1222 15.29428 0.1222 6.3258 0 11.0681 -0.0476 14.2272 -0.0951 0.4573 -0.0069 0.8814 -0.0137 1.2723 -0.0205l0 -4.7828c-3.2531 -0.0496 -8.2786 -0.1016 -15.0487 -0.1016Z" clip-rule="evenodd" stroke-width="1"></path></g></svg>