<svg xmlns="http://www.w3.org/2000/svg" fill="none" viewBox="0 0 48 48"><g id="bookmark-favorite-heart--bookmark-favorite-heart-like-favor-important"><path id="Subtract" fill="#000000" fill-rule="evenodd" d="M10.8736 1.07002C13.9291 0.797475 18.5187 0.5 24 0.5c5.4812 0 10.0709 0.297474 13.1264 0.57002 3.1162 0.27796 5.6021 2.60911 5.8685 5.80637C43.2492 9.92881 43.5 14.9718 43.5 23v19.3071c0 2.8713 -2.328 5.1929 -5.1961 5.1929 -1.1862 0 -2.3367 -0.4059 -3.2604 -1.1502l-9.4748 -7.6354c-0.9157 -0.7379 -2.2217 -0.7379 -3.1374 0l-9.4748 7.6354c-0.9237 0.7443 -2.0742 1.1502 -3.26042 1.1502C6.82803 47.5 4.5 45.1784 4.5 42.3071V23c0 -8.0282 0.25077 -13.07119 0.5051 -16.12361 0.2664 -3.19725 2.75231 -5.52841 5.8685 -5.80637Zm2.992 11.50728c1.1032 -1.2869 2.7519 -2.13 4.9055 -2.13 1.9669 0 3.3893 0.8534 4.3097 1.6955 0.3951 0.3615 0.7 0.7226 0.9197 1.0176 0.2197 -0.295 0.5244 -0.6561 0.9194 -1.0176 0.9203 -0.8421 2.3428 -1.6955 4.3103 -1.6955 2.1532 0 3.8016 0.8431 4.9047 2.1301 1.094 1.2764 1.6288 2.9613 1.6288 4.6275 0 2.5066 -1.1877 4.7464 -2.9099 6.6806 -1.7222 1.9342 -4.0115 3.6008 -6.3006 4.9746 -1.5715 0.9432 -3.5337 0.9432 -5.1052 0.0001 -2.2892 -1.3738 -4.5788 -3.0405 -6.3012 -4.9746 -1.7225 -1.9342 -2.9105 -4.174 -2.9105 -6.6807 0 -1.6662 0.535 -3.3511 1.6293 -4.6276Z" clip-rule="evenodd" stroke-width="1"></path></g></svg>