<svg xmlns="http://www.w3.org/2000/svg" fill="none" viewBox="0 0 48 48"><g id="bookmark-favorite-star--bookmark-favorite-star-like-favor-important"><path id="Subtract" fill="#000000" fill-rule="evenodd" d="M10.8736 1.07002C13.9291 0.797475 18.5187 0.5 24 0.5c5.4812 0 10.0709 0.297474 13.1264 0.57002 3.1162 0.27796 5.6021 2.60911 5.8685 5.80637C43.2492 9.92881 43.5 14.9718 43.5 23v19.3071c0 2.8713 -2.328 5.1929 -5.1961 5.1929 -1.1862 0 -2.3367 -0.4059 -3.2604 -1.1502l-9.4748 -7.6354c-0.9157 -0.7379 -2.2217 -0.7379 -3.1374 0l-9.4748 7.6354c-0.9237 0.7443 -2.0742 1.1502 -3.26042 1.1502C6.82803 47.5 4.5 45.1784 4.5 42.3071V23c0 -8.0282 0.25077 -13.07119 0.5051 -16.12361 0.2664 -3.19725 2.75231 -5.52841 5.8685 -5.80637Zm10.8039 7.92306c1.0367 -1.77984 3.6079 -1.77984 4.6446 0.00001l2.1505 3.69221c0.2385 0.4094 0.638 0.6997 1.1011 0.8l4.1761 0.9043c2.0131 0.4359 2.8076 2.8814 1.4352 4.4173l-2.847 3.1862c-0.3156 0.3533 -0.4682 0.823 -0.4205 1.2944l0.4304 4.2512c0.2075 2.0492 -1.8727 3.5606 -3.7575 2.73l-3.9101 -1.7231c-0.4336 -0.191 -0.9275 -0.191 -1.361 0l-3.9101 1.7231c-1.8848 0.8306 -3.965 -0.6808 -3.7575 -2.73l0.4304 -4.2512c0.0477 -0.4714 -0.1049 -0.9411 -0.4206 -1.2944l-2.847 -3.1862c-1.3723 -1.5359 -0.5778 -3.9814 1.4353 -4.4173l4.1761 -0.9043c0.463 -0.1003 0.8626 -0.3906 1.101 -0.8l2.1506 -3.69222Z" clip-rule="evenodd" stroke-width="1"></path></g></svg>