<svg xmlns="http://www.w3.org/2000/svg" fill="none" viewBox="0 0 48 48" id="Broken-Link-2--Streamline-Plump"><desc>Broken Link 2 Streamline Icon: https://streamlinehq.com</desc><g id="Solid/Interface Essential/Link Unlink/broken-link-2--break-broken-hyperlink-link-remove-unlink-chain"><path id="Union" fill="#000000" fill-rule="evenodd" d="M1.62868 1.62868c1.17157 -1.171573 3.07107 -1.171573 4.24264 0l8.80898 8.80902c0.1665 -0.4978 0.448 -0.96561 0.8443 -1.36199l2.4192 -2.41914c6.4613 -6.461364 16.9373 -6.461364 23.3986 0 6.4614 6.46133 6.4614 16.93733 0.0001 23.39873l-2.4192 2.4191c-0.3964 0.3964 -0.8642 0.6778 -1.362 0.8443l8.81 8.81c1.1716 1.1716 1.1716 3.071 0 4.2426 -1.1716 1.1716 -3.071 1.1716 -4.2426 0L1.62868 5.87132c-1.171573 -1.17157 -1.171573 -3.07107 0 -4.24264ZM22.9283 18.6857l-2.3803 -2.3804c0.4978 -0.1664 0.9656 -0.4479 1.362 -0.8442l2.4298 -2.4299c1.3417 -1.3417 3.0659 -2.0658 4.8219 -2.1764 2.0821 -0.1313 4.209 0.6 5.796 2.1871 2.9255 2.9254 2.9431 7.6849 0.0107 10.6173l-2.4687 2.4687c-0.3763 0.3879 -0.6449 0.8415 -0.806 1.3231l-2.3805 -2.3805 3.8437 -3.8437c1.7539 -1.7539 1.7502 -4.6138 -0.0107 -6.3746 -0.8647 -0.8648 -1.9946 -1.3058 -3.1283 -1.3229 -1.1743 -0.0174 -2.3527 0.42 -3.2449 1.3122 -1.2815 1.2815 -2.5631 2.5628 -3.8447 3.8442Zm-8.4285 4.1857 -1.7802 1.7802c-2.93244 2.9324 -2.9148 7.6919 0.0107 10.6173 1.587 1.5871 3.7139 2.3184 5.796 2.1871 1.756 -0.1106 3.4802 -0.8347 4.8219 -2.1764l1.7799 -1.7799 6.3853 6.3853 -1.7692 1.7692c-6.4613 6.4614 -16.9373 6.4614 -23.39866 0 -6.461369 -6.4613 -6.461371 -16.9373 0 -23.3987l1.76922 -1.7692 6.38504 6.3851Zm2.1214 2.1213 6.385 6.3851 -1.78 1.78c-0.7929 0.7929 -1.8119 1.2266 -2.8532 1.3011 -1.2618 0.0901 -2.5562 -0.3473 -3.5208 -1.3119 -1.7609 -1.7608 -1.7646 -4.6207 -0.0107 -6.3746l1.7797 -1.7797Z" clip-rule="evenodd" stroke-width="1"></path></g></svg>