<svg xmlns="http://www.w3.org/2000/svg" fill="none" viewBox="0 0 48 48" id="Broken-Link-1--Streamline-Plump"><desc>Broken Link 1 Streamline Icon: https://streamlinehq.com</desc><g id="broken-link-1--break-broken-hyperlink-link-remove-unlink-chain"><path id="Union" fill="#000000" fill-rule="evenodd" d="M14 3c0 -1.10457 -0.8954 -2 -2 -2s-2 0.89543 -2 2v3c0 1.10457 0.8954 2 2 2s2 -0.89543 2 -2V3Zm-10.41421 0.58579c0.78105 -0.78105 2.04738 -0.78105 2.82842 0l2 2c0.78105 0.78105 0.78105 2.04738 0 2.82842 -0.78104 0.78105 -2.04737 0.78105 -2.82842 0l-2 -2c-0.78105 -0.78104 -0.78105 -2.04737 0 -2.82842ZM1 12c0 -1.1046 0.89543 -2 2 -2h3c1.10457 0 2 0.8954 2 2s-0.89543 2 -2 2H3c-1.10457 0 -2 -0.8954 -2 -2Zm46 24c0 1.1046 -0.8954 2 -2 2h-3c-1.1046 0 -2 -0.8954 -2 -2s0.8954 -2 2 -2h3c1.1046 0 2 0.8954 2 2Zm-2.5858 8.4142c-0.781 0.7811 -2.0474 0.7811 -2.8284 0l-2 -2c-0.7811 -0.781 -0.7811 -2.0474 0 -2.8284 0.781 -0.7811 2.0474 -0.7811 2.8284 0l2 2c0.7811 0.781 0.7811 2.0474 0 2.8284ZM34 45c0 1.1046 0.8954 2 2 2s2 -0.8954 2 -2v-3c0 -1.1046 -0.8954 -2 -2 -2s-2 0.8954 -2 2v3ZM18.2557 6.34602C24.717 -0.115343 35.193 -0.115341 41.6543 6.34603c6.4614 6.46137 6.4614 16.93727 0 23.39867l-2.4191 2.4191c-1.3668 1.3669 -3.5829 1.3669 -4.9497 0l-1.4356 -1.4356c-1.3669 -1.3668 -1.3669 -3.5829 0 -4.9497l2.4298 -2.4298c2.9324 -2.9324 2.9148 -7.6919 -0.0107 -10.6173 -1.4386 -1.4387 -3.3208 -2.1741 -5.211 -2.2013 -1.9541 -0.0285 -3.917 0.6998 -5.4077 2.1906l-2.4895 2.4894c-1.371 1.3069 -3.542 1.2871 -4.8887 -0.0596l-1.4356 -1.4356c-1.3668 -1.3668 -1.3668 -3.5829 0 -4.94974l2.4192 -2.41914ZM15.15 17.2718c1.354 1.3539 1.3667 3.5412 0.0383 4.9109l-2.4687 2.4687c-2.93244 2.9324 -2.9148 7.6918 0.0107 10.6173 1.587 1.5871 3.7139 2.3183 5.796 2.187 1.756 -0.1105 3.4802 -0.8347 4.8219 -2.1764l2.4298 -2.4298c1.3668 -1.3668 3.5829 -1.3668 4.9498 0l1.4355 1.4356c1.3669 1.3668 1.3669 3.5829 0 4.9497l-2.4191 2.4192c-6.4613 6.4613 -16.9373 6.4613 -23.39866 0 -6.461369 -6.4614 -6.461371 -16.9373 0 -23.3987l2.41913 -2.4191c1.36683 -1.3669 3.58293 -1.3669 4.94973 0l1.4356 1.4356Zm2.1734 7.0183c-0.0172 0.0176 -0.0346 0.0352 -0.0521 0.0527l-2.4298 2.4298c-1.7539 1.7539 -1.7502 4.6138 0.0107 6.3747 0.9646 0.9646 2.259 1.4019 3.5208 1.3118 1.0413 -0.0745 2.0603 -0.5081 2.8532 -1.3011l11.9307 -11.9307c1.7539 -1.7539 1.7502 -4.6138 -0.0107 -6.3747 -0.8647 -0.8647 -1.9946 -1.3057 -3.1283 -1.3228 -1.1743 -0.0174 -2.3527 0.42 -3.2449 1.3122 -1.568 1.568 -3.1362 3.1358 -4.7044 4.7037l-0.0126 0.0125c-1.5775 1.5772 -3.1551 3.1545 -4.7326 4.7319Z" clip-rule="evenodd" stroke-width="1"></path></g></svg>