<svg xmlns="http://www.w3.org/2000/svg" fill="none" viewBox="0 0 48 48" id="Broken-Heart--Streamline-Plump"><desc>Broken Heart Streamline Icon: https://streamlinehq.com</desc><g id="Solid/Interface Essential/Bookmark Favorite/broken-heart--reward-social-rating-media-heart-it-like-favorite-love-broken-break"><path id="Union" fill="#000000" d="M24.015 7.2546c-0.5792 1.1734 -1.2101 2.5436 -1.8465 4.0876 -0.1379 0.3346 -0.0815 0.7156 0.1542 0.9904 0.7371 0.8592 2.5138 2.8389 4.9139 4.9043 0.3534 0.3041 0.4631 0.8076 0.2702 1.232 -0.59 1.2977 -1.831 4.2375 -2.7465 7.8481 -0.2045 0.8068 0.4799 1.2245 1.0287 0.5988 1.2493 -1.4245 3.3381 -4.248 6.4517 -9.7629 0.1951 -0.3453 0.168 -0.7786 -0.0865 -1.0827 -0.6456 -0.7718 -2.0292 -2.3189 -3.9665 -3.9084 -0.1944 -0.1596 -0.246 -0.4356 -0.1129 -0.6489 0.7157 -1.1479 3.0117 -4.729 5.5385 -7.6117 8.1669 0.2495 13.9067 7.1 13.9067 14.2049 0 5.7955 -2.6818 10.7137 -6.46 14.8148 -3.7691 4.0912 -8.7141 7.4656 -13.4692 10.2192 -2.2214 1.2864 -4.9602 1.2864 -7.1815 0 -4.7552 -2.7536 -9.7002 -6.128 -13.4693 -10.2192C3.1618 28.8198 0.48 23.9016 0.48 18.1061c0 -7.1535 5.6614 -14.211 14.2044 -14.211 3.3074 0 5.9069 1.0985 7.6709 2.1904 0.6651 0.4116 1.215 0.8244 1.6447 1.1816 0.005 -0.0042 0.01 -0.0083 0.015 -0.0125Z" stroke-width="1"></path></g></svg>