<svg xmlns="http://www.w3.org/2000/svg" fill="none" viewBox="0 0 48 48" id="Bug-Virus-Phone--Streamline-Plump"><desc>Bug Virus Phone Streamline Icon: https://streamlinehq.com</desc><g id="bug-virus-phone--bug-phone-file-virus-threat-danger-mobile"><path id="Union" fill="#000000" fill-rule="evenodd" d="M33.923 1.52607C33.6611 0.74015 32.8116 0.31541 32.0257 0.577382c-0.786 0.261972 -1.2107 1.111448 -0.9487 1.897368l0.6027 1.8082c-0.8164 0.36752 -1.5508 0.85846 -2.183 1.45988 -0.4622 0.43971 -0.867 0.93578 -1.208 1.48151 0.0466 0.02887 0.0921 0.06058 0.1362 0.09515l0.0009 0.00069c0.0057 0.00422 0.0208 0.01531 0.0454 0.03233 0.0492 0.03404 0.1366 0.09183 0.2631 0.16588 0.2529 0.14801 0.6626 0.3614 1.2372 0.58029 1.1457 0.43645 2.9649 0.90173 5.5285 0.90173s4.3828 -0.46528 5.5285 -0.90173c0.5746 -0.21889 0.9843 -0.43228 1.2372 -0.58029 0.1265 -0.07405 0.2139 -0.13184 0.2631 -0.16588 0.0246 -0.01702 0.0397 -0.02811 0.0454 -0.03233l0.0009 -0.0007c0.0441 -0.03456 0.0896 -0.06627 0.1362 -0.09514 -0.341 -0.54573 -0.7458 -1.0418 -1.208 -1.48151 -0.6322 -0.60142 -1.3666 -1.09236 -2.183 -1.45988l0.6027 -1.8082c0.262 -0.78592 -0.1627 -1.635396 -0.9487 -1.897368 -0.7859 -0.261972 -1.6354 0.162768 -1.8973 0.948688l-0.6712 2.01355c-0.2965 -0.02602 -0.5986 -0.03921 -0.9058 -0.03921 -0.3072 0 -0.6093 0.01319 -0.9058 0.03921l-0.6712 -2.01355Zm-7.5909 7.92548 1.4114 0.94095c0.3202 0.1619 0.7063 0.3368 1.16 0.5096 1.4793 0.5636 3.6601 1.0983 6.5965 1.0983s5.1172 -0.5347 6.5965 -1.0983c0.4537 -0.1728 0.8398 -0.3477 1.16 -0.5096l1.4114 -0.94095c0.6893 -0.45953 1.6206 -0.27327 2.0802 0.41603 0.4595 0.68932 0.2732 1.62062 -0.416 2.08012l-2.3333 1.5555c0.0008 0.163 0.0012 0.3287 0.0012 0.4972l-0.0002 0.1992H46c0.8284 0 1.5 0.6716 1.5 1.5 0 0.8285 -0.6716 1.5 -1.5 1.5h-2.0831c-0.0216 0.1986 -0.0491 0.3942 -0.0825 0.5869l2.4977 1.6651c0.6892 0.4595 0.8755 1.3908 0.416 2.0801 -0.4596 0.6893 -1.3909 0.8755 -2.0802 0.416l-1.8985 -1.2657c-0.3528 0.583 -0.7773 1.111 -1.2661 1.576 -1.5099 1.4363 -3.6022 2.2424 -6.0033 2.2424 -2.4011 0 -4.4934 -0.8061 -6.0033 -2.2424 -0.4888 -0.465 -0.9133 -0.993 -1.2661 -1.576l-1.8985 1.2657c-0.6893 0.4595 -1.6206 0.2733 -2.0802 -0.416 -0.4595 -0.6893 -0.2732 -1.6206 0.416 -2.0801l2.4977 -1.6651c-0.0334 -0.1927 -0.0609 -0.3883 -0.0825 -0.5869H25c-0.8284 0 -1.5 -0.6715 -1.5 -1.5 0 -0.8284 0.6716 -1.5 1.5 -1.5h2.0002L27 14.0004c0 -0.1685 0.0004 -0.3342 0.0012 -0.4972l-2.3333 -1.5555c-0.6892 -0.4595 -0.8755 -1.3908 -0.416 -2.08012 0.4596 -0.6893 1.3909 -0.87556 2.0802 -0.41603Zm0.9344 -6.52285c0.258 0.02468 0.5102 0.06366 0.7561 0.11608 -0.2036 0.16666 -0.4016 0.34135 -0.5936 0.52402 -0.8966 0.85293 -1.6256 1.84422 -2.1755 2.93899 -0.7008 0.04372 -1.3855 0.27094 -1.9775 0.66638l-0.179 -0.01055 -0.0324 0.16196c-0.3395 0.26043 -0.6427 0.58019 -0.8932 0.95604 -0.5078 0.76167 -0.7199 1.63415 -0.6634 2.48198 -0.5973 0.4643 -1.3457 0.7364 -2.1476 0.7364h-4.7208c-1.6684 0 -3.1048 -1.1776 -3.432 -2.81359l-0.3046 -1.52279c-1.58064 0.09147 -2.84955 0.20981 -3.82799 0.32421 -0.90726 0.10609 -1.59627 0.82601 -1.66088 1.8202C5.23115 12.1233 5 17.2195 5 25s0.23115 12.8767 0.41412 15.692c0.06462 0.9942 0.75363 1.7141 1.66089 1.8202C9.08976 42.7478 12.3361 43 17 43c4.6639 0 7.9102 -0.2522 9.925 -0.4878 0.9072 -0.1061 1.5962 -0.826 1.6609 -1.8202 0.1777 -2.7341 0.4008 -7.6194 0.4135 -15.0254 1.3401 0.8648 2.8662 1.4286 4.4937 1.6809 -0.0367 6.1998 -0.2148 10.6455 -0.3844 13.5469 -0.1878 3.2139 -2.5474 5.8617 -5.8422 6.1769C24.9016 47.2975 21.522 47.5 17 47.5s-7.90164 -0.2025 -10.26652 -0.4287c-3.29475 -0.3152 -5.65436 -2.963 -5.842223 -6.1769C0.70098 37.639 0.5 32.4398 0.5 25S0.700982 12.361 0.89126 9.10562C1.07912 5.89166 3.43873 3.2439 6.73348 2.9287 9.09836 2.70246 12.478 2.5 17 2.5s7.9016 0.20247 10.2665 0.4287ZM13 39c0 -1.1046 0.8954 -2 2 -2h4c1.1046 0 2 0.8954 2 2s-0.8954 2 -2 2h-4c-1.1046 0 -2 -0.8954 -2 -2Z" clip-rule="evenodd" stroke-width="1"></path></g></svg>