<svg xmlns="http://www.w3.org/2000/svg" fill="none" viewBox="0 0 48 48" id="Bug--Streamline-Plump"><desc>Bug Streamline Icon: https://streamlinehq.com</desc><g id="bug--code-bug-security-programming-secure-computer"><path id="Union" fill="#000000" fill-rule="evenodd" d="M17.7893 1.60601C17.2953 0.618054 16.094 0.217605 15.106 0.711584c-0.9879 0.493976 -1.3884 1.695326 -0.8944 2.683286l1.4683 2.93665c-1.4933 0.72887 -2.8476 1.66527 -4.0311 2.79106 -1.83039 1.74122 -3.22057 3.90572 -4.08341 6.39162C12.0169 17.4161 17.6221 18.5 24 18.5c6.3779 0 11.9831 -1.0839 16.4346 -2.9858 -0.8628 -2.4859 -2.253 -4.6504 -4.0834 -6.39162 -1.1833 -1.12561 -2.5374 -2.0619 -4.0304 -2.79072l1.4685 -2.93699c0.494 -0.98796 0.0935 -2.18931 -0.8944 -2.683286 -0.988 -0.493979 -2.1893 -0.09353 -2.6833 0.894426L28.5161 4.9969C27.0854 4.66928 25.5736 4.5 24 4.5c-1.5733 0 -3.0849 0.16922 -4.5154 0.49672l-1.6953 -3.39071ZM2.35695 20.8783C1.31989 20.498 0.787448 19.3491 1.1677 18.312c0.38026 -1.037 1.52921 -1.5695 2.56626 -1.1892l5.45455 2c0.26062 0.0956 0.48936 0.2397 0.67977 0.4183C13.6361 20.697 17.9002 21.3622 22.5 21.4808l0 25.9669c-4.2921 -0.3022 -8.0502 -1.9058 -10.8512 -4.5703 -2.04965 -1.9497 -3.54732 -4.4304 -4.37063 -7.2986l-3.54421 1.2995c-1.03705 0.3802 -2.186 -0.1522 -2.56626 -1.1892 -0.380252 -1.0371 0.15219 -2.1861 1.18925 -2.5663l4.23589 -1.5532c-0.01725 -0.2682 -0.02932 -0.5387 -0.03615 -0.8114 -0.01416 -0.5654 -0.0259 -1.1511 -0.03495 -1.7577H2.5c-1.10457 0 -2 -0.8954 -2 -2 0 -1.1045 0.89543 -2 2 -2h4.00232c0.00424 -0.9049 0.01421 -1.7682 0.02919 -2.5915l-4.17456 -1.5307Zm43.28665 0c1.0371 -0.3803 1.5695 -1.5292 1.1892 -2.5663 -0.3802 -1.037 -1.5292 -1.5695 -2.5662 -1.1892l-5.4546 2c-0.2605 0.0955 -0.4891 0.2395 -0.6795 0.4181 -3.768 1.156 -8.0324 1.8213 -12.6325 1.9399l0 25.9669c4.2921 -0.3022 8.0502 -1.9058 10.8512 -4.5703 2.0497 -1.9498 3.5474 -4.4305 4.3707 -7.2988l3.5447 1.2997c1.037 0.3802 2.186 -0.1522 2.5662 -1.1892 0.3803 -1.0371 -0.1521 -2.1861 -1.1892 -2.5663l-4.2364 -1.5534c0.0172 -0.2681 0.0293 -0.5385 0.0361 -0.8112 0.0142 -0.5654 0.0259 -1.1511 0.035 -1.7577h4.0222c1.1046 0 2 -0.8954 2 -2 0 -1.1045 -0.8954 -2 -2 -2h-4.0028c-0.0043 -0.9048 -0.0142 -1.768 -0.0292 -2.5913l4.1751 -1.5309Z" clip-rule="evenodd" stroke-width="1"></path></g></svg>