<svg xmlns="http://www.w3.org/2000/svg" fill="none" viewBox="0 0 48 48" id="Business-Handshake--Streamline-Plump"><desc>Business Handshake Streamline Icon: https://streamlinehq.com</desc><g id="Solid/Business/Marketing strategy/business-handshake--deal-contract-business-money-payment-agreement"><path id="Union" fill="#000000" fill-rule="evenodd" d="m31.1672 20.2549 -1.1044 -1.3195 0.0002 0.0002 -0.1708 -0.204c-2.9572 2.6071 -5.6594 4.4432 -7.0501 5.3309 -0.5848 0.3732 -1.2895 0.509 -1.9214 0.2564 -0.0177 -0.0071 -0.0354 -0.0145 -0.053 -0.0221 -0.0293 -0.0129 -0.0585 -0.0266 -0.0874 -0.0412 -0.6529 -0.3282 -1.5307 -0.8993 -2.4251 -1.87 -0.8914 -0.9674 -0.7473 -2.4358 0.1535 -3.3947 1.1943 -1.2715 3.0857 -3.1806 5.565 -5.3516 0.8613 -0.7542 1.7934 -1.54 2.792 -2.3416 1.0484 -0.8416 2.365 -1.3031 3.7038 -1.1795 3.7697 0.3482 6.929 1.4944 6.929 1.4944s3.0381 -2.6154 7.6454 -6.358c0.6055 -0.4919 1.5065 -0.1505 1.6146 0.6222 0.303 2.1648 0.7615 6.051 0.7615 9.7449 0 3.4973 -0.411 7.5778 -0.7119 10.0967 -0.1837 1.5386 -0.9801 2.9304 -2.1996 3.8864 -1.1579 0.9079 -2.3002 1.7845 -3.4172 2.6262l-6.1231 -7.3155c1.5253 -0.1182 3.161 -0.7376 4.8549 -2.0176 0.6759 -0.5108 0.8098 -1.4728 0.299 -2.1486 -0.5107 -0.6759 -1.4727 -0.8098 -2.1486 -0.299 -1.85 1.3981 -3.2845 1.5528 -4.3254 1.3401 -1.0369 -0.2121 -1.9208 -0.8388 -2.5807 -1.5353l-0.0002 -0.0002Zm-14.8947 -3.3643c1.1844 -1.2609 3.0109 -3.1074 5.3866 -5.2127 -0.1781 -0.1405 -0.357 -0.2807 -0.5365 -0.4205 -1.0454 -0.814 -2.3409 -1.2623 -3.6602 -1.142 -3.7839 0.3446 -6.9609 1.4972 -6.9609 1.4972s-3.0621 -2.636 -7.7001 -6.4024c-0.5928 -0.4814 -1.4687 -0.1628 -1.5851 0.592C0.9138 7.7649 0.48 11.328 0.48 15.6217c0 4.0727 0.3903 7.8783 0.6887 10.1925 0.191 1.482 0.9756 2.8119 2.1509 3.7347 7.2166 5.6662 13.8306 10.1362 17.5493 12.5405 0.9575 0.6192 2.0443 0.9288 3.1311 0.9288 1.0867 0 2.1736 -0.3096 3.1311 -0.9288 2.6618 -1.7209 6.807 -4.5075 11.5947 -8.0242l-9.2177 -11.0128c-2.1156 1.6819 -3.9301 2.9033 -5.0156 3.5962 -1.283 0.8188 -3.2132 1.2916 -5.0901 0.3481 -0.947 -0.4761 -2.1322 -1.2614 -3.3032 -2.5322 -2.1883 -2.3747 -1.6065 -5.6789 0.1733 -7.5739Z" clip-rule="evenodd" stroke-width="1"></path></g></svg>