<svg xmlns="http://www.w3.org/2000/svg" fill="none" viewBox="0 0 48 48"><g id="button-power-switch-on--button-power-switch-on-lighting-state"><path id="Subtract" fill="#000000" fill-rule="evenodd" d="M12.5845 24.5784c-0.2896 -0.6035 -0.4397 -1.2656 -0.4378 -1.9327 0.0207 -7.218 0.2047 -12.2538 0.3726 -15.38887 0.0972 -1.81408 1.3508 -3.1696 3.0395 -3.34482 2.0957 -0.21745 5.088 -0.41201 9.086 -0.41201 3.9979 0 6.9902 0.19456 9.086 0.41201 1.6887 0.17522 2.9422 1.53074 3.0394 3.34482 0.1666 3.10987 0.349 8.08997 0.3721 15.21517 0.0041 1.2519 0.3189 2.4835 0.9088 3.5829 3.3774 6.2951 5.4484 10.913 6.6954 14.0425 0.8152 2.0459 -0.3732 3.9575 -2.5515 4.1306 -1.9435 0.1545 -4.4432 0.272 -7.5502 0.272 -5.1537 0 -8.6362 -0.3233 -10.6814 -0.6022 -1.0606 -0.1446 -1.9862 -0.8099 -2.543 -1.8329 -1.5233 -2.7987 -4.4976 -8.4456 -8.8359 -17.4865Zm8.4707 21.3739c-0.9491 -0.6043 -1.7264 -1.4549 -2.2698 -2.4532 -1.4544 -2.6721 -4.1847 -7.8519 -8.1194 -15.9904 0.0572 5.94 0.2199 10.3571 0.3655 13.2602 0.1262 2.5148 1.8966 4.5658 4.4011 4.8256 1.4568 0.1511 3.3198 0.2884 5.6226 0.3578Zm9.9328 -15.6144c-2.4853 0 -4.5 2.0147 -4.5 4.5s2.0147 4.5 4.5 4.5 4.5 -2.0147 4.5 -4.5 -2.0147 -4.5 -4.5 -4.5Zm-4.4273 -19.3984c0 -0.8285 -0.6715 -1.50005 -1.5 -1.50005 -0.8284 0 -1.5 0.67155 -1.5 1.50005v5.5962c0 0.8285 0.6716 1.5 1.5 1.5 0.8285 0 1.5 -0.6715 1.5 -1.5v-5.5962Z" clip-rule="evenodd" stroke-width="1"></path></g></svg>