<svg xmlns="http://www.w3.org/2000/svg" fill="none" viewBox="0 0 48 48"><g id="button-power-switch-off--button-power-switch-off-lighting-state"><path id="Subtract" fill="#000000" fill-rule="evenodd" d="M10.6064 23.4208c-0.2895 0.6035 -0.4397 1.2656 -0.4377 1.9327 0.0207 7.218 0.2047 12.2538 0.3726 15.3889 0.0972 1.814 1.3507 3.1696 3.0394 3.3448 2.0958 0.2174 5.0881 0.412 9.086 0.412 3.998 0 6.9903 -0.1946 9.086 -0.412 1.6888 -0.1752 2.9423 -1.5308 3.0395 -3.3448 0.1666 -3.1099 0.3489 -8.09 0.3721 -15.2152 0.004 -1.2519 0.3189 -2.4835 0.9087 -3.5829 3.3775 -6.2951 5.4485 -10.913 6.6955 -14.04247 0.8152 -2.0459 -0.3733 -3.95757 -2.5515 -4.13067 -1.9435 -0.15445 -4.4432 -0.27196 -7.5503 -0.27196 -5.1537 0 -8.6361 0.32331 -10.6813 0.60218 -1.0606 0.14461 -1.9863 0.80993 -2.5431 1.83293 -1.5232 2.79867 -4.4975 8.44559 -8.8359 17.48649Zm8.4707 -21.37392c-2.3028 0.06944 -4.1657 0.2067 -5.6225 0.35783 -2.5045 0.25983 -4.2749 2.31075 -4.40109 4.82555 -0.14569 2.90314 -0.3083 7.32024 -0.36552 13.26024C12.6227 12.352 15.353 7.17221 16.8074 4.50014c0.5433 -0.99835 1.3207 -1.8489 2.2697 -2.45326Zm4.2561 37.42102c-2.4853 0 -4.5 -2.0147 -4.5 -4.5 0 -2.4852 2.0147 -4.5 4.5 -4.5s4.5 2.0148 4.5 4.5c0 2.4853 -2.0147 4.5 -4.5 4.5Zm5.3567 -22.829c-0.3533 0.7493 -1.2471 1.0704 -1.9964 0.717 -0.7493 -0.3533 -1.0704 -1.2471 -0.717 -1.9964l2.4838 -5.2679c0.3533 -0.74933 1.2472 -1.07035 1.9965 -0.71705 0.7493 0.35331 1.0703 1.24715 0.717 1.99645l-2.4839 5.2679Z" clip-rule="evenodd" stroke-width="1"></path></g></svg>