<svg xmlns="http://www.w3.org/2000/svg" fill="none" viewBox="0 0 48 48" id="Cake--Streamline-Plump"><desc>Cake Streamline Icon: https://streamlinehq.com</desc><g id="cake--candle-birthday-event-special-sweet-cake-bake"><path id="Union" fill="#000000" fill-rule="evenodd" d="M10.9796 11.3891c-2.4472 0 -4.507 -1.8282 -4.507 -4.1731 0 -2.9295 2.3195 -4.6746 3.5037 -5.3799 0.6222 -0.3705 1.3844 -0.3705 2.0065 0 1.1843 0.7053 3.5037 2.4504 3.5037 5.3799 0 2.3449 -2.0597 4.1731 -4.5069 4.1731Zm13.0201 0c-2.4472 0 -4.507 -1.8282 -4.507 -4.1731 0 -2.9295 2.3195 -4.6746 3.5037 -5.3799 0.6222 -0.3705 1.3843 -0.3705 2.0065 0 1.1842 0.7053 3.5037 2.4504 3.5037 5.3799 0 2.3449 -2.0598 4.1731 -4.507 4.1731Zm0 6.0079c1.5033 0 2.9074 0.0057 4.2184 0.016 0.0236 -0.3156 0.0479 -0.6428 0.0728 -0.982 0.1462 -1.9936 -1.1053 -3.9089 -3.2403 -4.0149 -0.325 -0.0162 -0.6753 -0.0255 -1.0508 -0.0255 -0.3755 0 -0.7259 0.0093 -1.0509 0.0255 -2.135 0.106 -3.3864 2.0213 -3.2403 4.0149 0.025 0.3392 0.0492 0.6664 0.073 0.982 1.3108 -0.0103 2.7148 -0.016 4.2181 -0.016Zm8.8064 0.0763c3.75 0.0714 6.47 0.1835 8.4052 0.2957 0.032 -0.4237 0.0653 -0.8694 0.0996 -1.338 0.1463 -1.9936 -1.1053 -3.9089 -3.2403 -4.0149 -0.325 -0.0161 -0.6752 -0.0255 -1.0508 -0.0255 -0.3755 0 -0.7258 0.0093 -1.0508 0.0255 -2.135 0.106 -3.3864 2.0213 -3.2403 4.0149 0.0264 0.3608 0.0523 0.7082 0.0774 1.0423Zm-26.0178 0.2957c1.9351 -0.1121 4.6551 -0.2243 8.4051 -0.2957 0.0251 -0.3341 0.051 -0.6815 0.0774 -1.0423 0.1462 -1.9936 -1.1053 -3.9089 -3.2403 -4.0149 -0.325 -0.0162 -0.6752 -0.0255 -1.0508 -0.0255 -0.3755 0 -0.7258 0.0093 -1.0508 0.0255 -2.135 0.106 -3.3865 2.0213 -3.2403 4.0149 0.0344 0.4686 0.0676 0.9143 0.0997 1.338Zm30.2314 -6.3799c-2.4471 0 -4.5069 -1.8282 -4.5069 -4.1731 0 -2.9295 2.3194 -4.6746 3.5037 -5.3799 0.6221 -0.3705 1.3843 -0.3705 2.0065 0 1.1842 0.7053 3.5037 2.4504 3.5037 5.3799 0 2.3449 -2.0598 4.1731 -4.507 4.1731Zm-13.0196 8.011c9.1119 0 14.5435 0.2078 17.6231 0.4004 2.79 0.1744 5.1488 2.1053 5.5026 5.0346 0.1561 1.2929 0.295 2.9692 0.3642 5.1 -1.1113 3.358 -4.1839 5.7401 -7.7481 5.7401 -2.1227 0 -4.0602 -0.8381 -5.5218 -2.2253 -1.2763 -1.2115 -3.4191 -1.2115 -4.6953 0 -1.4616 1.3872 -3.3992 2.2253 -5.5219 2.2253s-4.0604 -0.8381 -5.522 -2.2253c-1.2762 -1.2115 -3.419 -1.2115 -4.6953 0 -1.4615 1.3872 -3.3991 2.2253 -5.5219 2.2253 -3.5695 0 -6.6461 -2.3894 -7.753 -5.7555 0.0693 -2.1235 0.2079 -3.7948 0.3637 -5.0846 0.3538 -2.9293 2.7125 -4.8602 5.5025 -5.0346 3.0796 -0.1926 8.5112 -0.4004 17.6232 -0.4004Zm15.7418 18.779c3.0776 0 5.8344 -1.3321 7.7781 -3.4554 -0.0503 2.7043 -0.2102 4.7598 -0.3943 6.2831 -0.3539 2.9292 -2.7124 4.8601 -5.5024 5.0346 -3.0796 0.1927 -8.5112 0.4004 -17.6232 0.4004 -9.1121 0 -14.5437 -0.2077 -17.6233 -0.4004 -2.79 -0.1745 -5.1486 -2.1054 -5.5024 -5.0346 -0.1842 -1.5245 -0.3443 -3.582 -0.3944 -6.2893 1.944 2.1269 4.7033 3.4616 7.7837 3.4616 2.8001 0 5.3455 -1.1096 7.2457 -2.9132 0.31 -0.2943 0.9378 -0.2943 1.2478 0 1.9002 1.8036 4.4455 2.9132 7.2457 2.9132s5.3454 -1.1096 7.2456 -2.9132c0.31 -0.2943 0.9378 -0.2943 1.2478 0 1.9002 1.8036 4.4456 2.9132 7.2456 2.9132Z" clip-rule="evenodd" stroke-width="1"></path></g></svg>