<svg xmlns="http://www.w3.org/2000/svg" fill="none" viewBox="0 0 48 48" id="Calendar-Fire--Streamline-Plump"><desc>Calendar Fire Streamline Icon: https://streamlinehq.com</desc><g id="Solid/Interface Essential/Calendar/calendar-fire--calendar-date-day-month-fire-trend-deadline"><path id="Subtract" fill="#000000" fill-rule="evenodd" d="M37.7589 3.5387c0.0248 0.6735 0.0441 1.483 0.0461 2.4012 0.8941 0.0508 1.696 0.1037 2.4086 0.1561 3.3504 0.2464 5.9854 2.7972 6.2739 6.1687 0.261 3.0521 0.5212 7.7378 0.5212 14.2918 0 6.5541 -0.2602 11.2397 -0.5212 14.2918 -0.2885 3.3715 -2.9235 5.9223 -6.2739 6.1688 -3.3413 0.2456 -8.6467 0.5029 -16.2136 0.5029s-12.8723 -0.2573 -16.2135 -0.5029c-3.3506 -0.2465 -5.9855 -2.7973 -6.2739 -6.1688 -0.2611 -3.0521 -0.5213 -7.7378 -0.5213 -14.2918s0.2602 -11.2397 0.5213 -14.2917C1.801 8.8932 4.4359 6.3424 7.7865 6.096c0.7125 -0.0524 1.5144 -0.1053 2.4085 -0.1561 0.002 -0.9182 0.0213 -1.7277 0.0461 -2.4012 0.0575 -1.558 1.0597 -2.9246 2.7374 -3.0232 0.3767 -0.0221 0.8097 -0.0355 1.3067 -0.0355s0.9301 0.0134 1.3067 0.0355c1.6777 0.0986 2.68 1.4652 2.7374 3.0232 0.0222 0.6001 0.0399 1.3083 0.0449 2.105 1.7152 -0.032 3.5886 -0.0507 5.6258 -0.0507s3.9106 0.0187 5.6258 0.0507c0.0051 -0.7967 0.0227 -1.5049 0.0449 -2.105 0.0574 -1.558 1.0597 -2.9246 2.7374 -3.0232 0.3766 -0.0221 0.8097 -0.0355 1.3067 -0.0355s0.93 0.0134 1.3067 0.0355c1.6777 0.0986 2.6799 1.4652 2.7374 3.0232ZM24.1048 18.2486c0.2885 0.2905 0.4473 0.7061 0.4296 1.1365 -0.0509 1.2359 -0.0343 2.8408 0.2237 4.3789 0.2602 1.551 0.7543 2.9618 1.603 3.8779 0.2531 0.2735 0.6159 0.305 0.8475 0.1388 0.4758 -0.3411 0.9072 -0.9087 1.2881 -1.6369 0.3781 -0.7226 0.6878 -1.5672 0.9379 -2.4216 0.1658 -0.5666 0.6078 -0.9603 1.1102 -1.0933 0.5114 -0.1354 1.0977 -0.0003 1.4891 0.4904 1.537 1.9268 2.7035 4.3542 2.7035 7.2739 0 3.0634 -1.2134 5.3278 -3.2007 6.8106C29.57 38.6713 26.8933 39.339 24 39.339s-5.5699 -0.6677 -7.5367 -2.1352c-1.9873 -1.4827 -3.2007 -3.7472 -3.2007 -6.8106 0 -6.1825 5.2111 -10.1453 8.2337 -11.933 0.4435 -0.2623 0.9155 -0.4502 1.4002 -0.563 0.4764 -0.111 0.9122 0.0534 1.2083 0.3515Z" clip-rule="evenodd" stroke-width="1"></path></g></svg>