<svg xmlns="http://www.w3.org/2000/svg" fill="none" viewBox="0 0 48 48" id="Calendar-Deadline--Streamline-Plump"><desc>Calendar Deadline Streamline Icon: https://streamlinehq.com</desc><g id="calendar-deadline--deadline-calendar-date-day-month-skull"><path id="Union" fill="#000000" fill-rule="evenodd" d="M37.805 5.9399c-0.002 -0.9182 -0.0213 -1.7277 -0.0461 -2.4012 -0.0575 -1.558 -1.0597 -2.9246 -2.7374 -3.0232C34.6448 0.4934 34.2118 0.48 33.7148 0.48s-0.9301 0.0134 -1.3067 0.0355c-1.6777 0.0986 -2.68 1.4652 -2.7374 3.0232 -0.0222 0.6001 -0.0398 1.3083 -0.0449 2.105 -1.7152 -0.032 -3.5886 -0.0507 -5.6258 -0.0507s-3.9106 0.0187 -5.6258 0.0507c-0.005 -0.7967 -0.0227 -1.5049 -0.0449 -2.105 -0.0574 -1.558 -1.0597 -2.9246 -2.7374 -3.0232C15.2153 0.4934 14.7822 0.48 14.2852 0.48s-0.93 0.0134 -1.3067 0.0355c-1.6777 0.0986 -2.6799 1.4652 -2.7374 3.0232 -0.0248 0.6735 -0.0441 1.483 -0.0461 2.4012 -0.8941 0.0508 -1.696 0.1037 -2.4085 0.1561 -3.3506 0.2464 -5.9855 2.7972 -6.2739 6.1687 -0.2611 3.0521 -0.5213 7.7378 -0.5213 14.2918s0.2602 11.2397 0.5213 14.2918c0.2884 3.3715 2.9233 5.9223 6.2739 6.1688 3.3412 0.2456 8.6466 0.5029 16.2135 0.5029s12.8723 -0.2573 16.2136 -0.5029c3.3504 -0.2465 5.9854 -2.7973 6.2739 -6.1688 0.261 -3.0521 0.5212 -7.7377 0.5212 -14.2918 0 -6.554 -0.2602 -11.2397 -0.5212 -14.2917 -0.2885 -3.3716 -2.9235 -5.9224 -6.2739 -6.1688 -0.7126 -0.0524 -1.5145 -0.1053 -2.4086 -0.1561ZM24 15.3078c-7.0076 0 -12.7826 5.1242 -12.7826 11.5555 0 3.7235 1.9455 7.0197 4.9377 9.1247 0.0215 0.7625 0.0537 1.3839 0.0895 1.8873 0.1015 1.422 1.0783 2.5349 2.5201 2.7239 0.2638 0.0345 0.5592 0.0681 0.8892 0.0992v-3.4045c0 -0.706 0.5723 -1.2782 1.2783 -1.2782s1.2782 0.5722 1.2782 1.2782v3.554c0.5448 0.0159 1.1402 0.0249 1.7904 0.0249 0.6495 0 1.2444 -0.009 1.7888 -0.0248v-3.5541c0 -0.706 0.5722 -1.2782 1.2782 -1.2782s1.2783 0.5722 1.2783 1.2782v3.4047c0.3306 -0.0312 0.6266 -0.0648 0.8909 -0.0994 1.4418 -0.189 2.4186 -1.3019 2.52 -2.7239 0.0359 -0.5037 0.068 -1.1255 0.0896 -1.8884 2.9912 -2.1051 4.936 -5.4007 4.936 -9.1236 0 -6.4313 -5.775 -11.5555 -12.7826 -11.5555Zm-4.0904 8.1809c1.1295 0 2.0452 0.9156 2.0452 2.0452v2.5565c0 1.1296 -0.9156 2.0453 -2.0452 2.0453s-2.0452 -0.9157 -2.0452 -2.0453v-2.5565c0 -1.1296 0.9156 -2.0452 2.0452 -2.0452Zm10.2261 2.0452c0 -1.1296 -0.9157 -2.0452 -2.0453 -2.0452s-2.0452 0.9156 -2.0452 2.0452v2.5565c0 1.1296 0.9157 2.0453 2.0452 2.0453s2.0453 -0.9157 2.0453 -2.0453v-2.5565Z" clip-rule="evenodd" stroke-width="1"></path></g></svg>