<svg xmlns="http://www.w3.org/2000/svg" fill="none" viewBox="0 0 48 48"><g id="calendar-user--calendar-user-shared-organized-event"><path id="Subtract" fill="#000000" fill-rule="evenodd" d="M37.4547 3.49104c0.0243 0.65865 0.0431 1.45022 0.0451 2.3481 0.8743 0.04972 1.6585 0.10147 2.3553 0.1527 3.2764 0.24092 5.8531 2.73536 6.1352 6.03236 0.2553 2.9846 0.5097 7.5667 0.5097 13.9758 0 6.4092 -0.2544 10.9912 -0.5097 13.9758 -0.2821 3.297 -2.8588 5.7914 -6.1352 6.0324 -3.2674 0.2402 -8.4555 0.4918 -15.8551 0.4918 -7.3996 0 -12.5877 -0.2516 -15.85508 -0.4918 -3.27646 -0.241 -5.85313 -2.7354 -6.13517 -6.0324C1.75443 36.9912 1.5 32.4091 1.5 26s0.25444 -10.9912 0.50975 -13.9758c0.28204 -3.29701 2.85871 -5.79145 6.13517 -6.03236 0.6968 -0.05124 1.48095 -0.10299 2.35528 -0.1527 0.002 -0.89788 0.0208 -1.68946 0.0451 -2.3481 0.0562 -1.52351 1.0363 -2.859916 2.6769 -2.956319C13.5905 0.513082 14.014 0.5 14.5 0.5c0.486 0 0.9095 0.013082 1.2778 0.034721 1.6406 0.096403 2.6207 1.432809 2.6769 2.956319 0.0217 0.58691 0.039 1.27937 0.0439 2.05854C20.1759 5.51824 22.0078 5.5 24 5.5c1.9922 0 3.8241 0.01824 5.5014 0.04958 0.005 -0.77917 0.0222 -1.47163 0.0439 -2.05854 0.0562 -1.52351 1.0363 -2.859916 2.6769 -2.956319C32.5905 0.513082 33.014 0.5 33.5 0.5c0.486 0 0.9095 0.013082 1.2778 0.034721 1.6406 0.096403 2.6207 1.432809 2.6769 2.956319ZM16.0113 21.4885c0 -4.4119 3.5766 -7.9885 7.9885 -7.9885 4.412 0 7.9885 3.5766 7.9885 7.9885 0 2.4924 -1.1417 4.718 -2.9291 6.1824 3.0706 1.3696 5.4129 3.9521 6.2941 7.1003 0.265 0.9467 0.1066 1.8479 -0.3996 2.5403 -0.503 0.6881 -1.3154 1.1241 -2.2762 1.2193 -1.6712 0.1657 -4.36 0.3069 -8.6777 0.3069 -4.3176 0 -7.0065 -0.1412 -8.6777 -0.3069 -0.9608 -0.0952 -1.7731 -0.5312 -2.2762 -1.2193 -0.5061 -0.6924 -0.6646 -1.5936 -0.3996 -2.5403 0.8812 -3.1482 3.2236 -5.7307 6.2941 -7.1003 -1.7873 -1.4644 -2.9291 -3.69 -2.9291 -6.1824Z" clip-rule="evenodd" stroke-width="1"></path></g></svg>