<svg xmlns="http://www.w3.org/2000/svg" fill="none" viewBox="0 0 48 48" id="Camera-Square--Streamline-Plump"><desc>Camera Square Streamline Icon: https://streamlinehq.com</desc><g id="Solid/Image Photography/Cameras/camera-square--photos-picture-camera-photography-photo-pictures-frame-square"><path id="Subtract" fill="#000000" fill-rule="evenodd" d="M8.1357 45.9561c3.2716 0.2658 8.4629 0.5439 15.8643 0.5439 7.4014 0 12.5927 -0.2781 15.8643 -0.5439 3.2878 -0.2671 5.8247 -2.8039 6.0918 -6.0918 0.2658 -3.2716 0.5439 -8.4629 0.5439 -15.8643 0 -7.4014 -0.2781 -12.5927 -0.5439 -15.8643 -0.2671 -3.28785 -2.804 -5.82468 -6.0918 -6.0918C36.5927 1.77808 31.4014 1.5 24 1.5c-7.4014 0 -12.5927 0.27808 -15.86429 0.54389 -3.28786 0.26713 -5.82469 2.80396 -6.09182 6.09181C1.77808 11.4073 1.5 16.5986 1.5 24c0 7.4014 0.27808 12.5927 0.54389 15.8643 0.26713 3.2879 2.80396 5.8247 6.09181 6.0918ZM24 10.5c-1.3968 0 -2.5518 0.053 -3.4125 0.1132 -1.2694 0.0887 -2.3218 0.9221 -2.7873 2.0736l-0.7812 1.9322c-1.3077 0.0475 -2.4147 0.1041 -3.3216 0.1598 -2.0557 0.1262 -3.6814 1.7041 -3.86229 3.7572C9.66757 20.4374 9.5 23.0709 9.5 26s0.16757 5.5626 0.33511 7.464c0.18089 2.0531 1.80659 3.631 3.86229 3.7572 2.226 0.1367 5.6573 0.2788 10.3026 0.2788s8.0766 -0.1421 10.3026 -0.2788c2.0557 -0.1262 3.6814 -1.7041 3.8623 -3.7572 0.1675 -1.9014 0.3351 -4.5349 0.3351 -7.464s-0.1676 -5.5626 -0.3351 -7.464c-0.1809 -2.0531 -1.8066 -3.631 -3.8623 -3.7572 -0.9069 -0.0557 -2.0139 -0.1123 -3.3216 -0.1598l-0.7812 -1.9322c-0.4655 -1.1515 -1.5179 -1.9849 -2.7873 -2.0736C26.5518 10.553 25.3968 10.5 24 10.5Zm0 9.5c-3.3137 0 -6 2.6863 -6 6s2.6863 6 6 6 6 -2.6863 6 -6 -2.6863 -6 -6 -6Z" clip-rule="evenodd" stroke-width="1"></path></g></svg>