<svg xmlns="http://www.w3.org/2000/svg" fill="none" viewBox="0 0 48 48" id="Camera-1--Streamline-Plump"><desc>Camera 1 Streamline Icon: https://streamlinehq.com</desc><g id="Solid/Image Photography/Cameras/camera-1--photos-picture-camera-photography-photo-pictures"><path id="Subtract" fill="#000000" fill-rule="evenodd" d="M19.1322 2.6565c1.2472 -0.0941 2.8929 -0.1748 4.8678 -0.1748 1.9749 0 3.6206 0.0807 4.8678 0.1748 2.2096 0.1666 4.0359 1.5558 4.9582 3.4561l-1.3507 0.6555 1.3507 -0.6555 1.2427 2.561c2.1401 0.077 3.9383 0.1691 5.3953 0.259 3.4498 0.2127 6.1995 2.8589 6.5128 6.3123 0.2693 2.9674 0.5432 7.1238 0.5432 11.7577s-0.2739 8.7902 -0.5432 11.7577c-0.3133 3.4533 -3.0629 6.0996 -6.5128 6.3122 -3.5076 0.2163 -8.9908 0.4458 -16.464 0.4458 -7.4731 0 -12.9564 -0.2295 -16.464 -0.4458 -3.4499 -0.2126 -6.1994 -2.8589 -6.5128 -6.3122C0.754 35.7928 0.48 31.6364 0.48 27.0026s0.274 -8.7903 0.5432 -11.7577c0.3133 -3.4534 3.0629 -6.0997 6.5128 -6.3123 1.4571 -0.0899 3.2552 -0.182 5.3953 -0.259l1.2428 -2.561c0.9222 -1.9003 2.7485 -3.2895 4.9581 -3.4561Zm-4.6403 23.3452c0 -5.2512 4.2569 -9.5081 9.5081 -9.5081s9.5081 4.2569 9.5081 9.5081S29.2512 35.5098 24 35.5098s-9.5081 -4.2569 -9.5081 -9.5081Z" clip-rule="evenodd" stroke-width="1"></path></g></svg>