<svg xmlns="http://www.w3.org/2000/svg" fill="none" viewBox="0 0 48 48" id="Campfire--Streamline-Plump"><desc>Campfire Streamline Icon: https://streamlinehq.com</desc><g id="campfire--campfire-burn-leisure-outdoor-activity"><path id="Union" fill="#000000" fill-rule="evenodd" d="M23.8369 0.842895c0.3114 0.278995 0.5009 0.691515 0.5161 1.130475 0.064 1.85437 0.3795 3.87736 1.264 5.09743 0.2488 0.34325 0.6537 0.35308 0.8635 0.14352 0.553 -0.55233 1.0047 -1.52957 1.3537 -2.64971 0.3225 -1.03528 1.6228 -1.59534 2.5443 -0.81433C33.8204 6.66747 37.5 11.2429 37.5 17.4783c0 4.1115 -1.5114 7.1421 -3.9949 9.1331 -2.4673 1.9781 -5.8402 2.8878 -9.5051 2.8878 -3.6649 0 -7.0378 -0.9097 -9.5051 -2.8878 -2.4835 -1.991 -3.9949 -5.0216 -3.9949 -9.1331 0 -8.55029 6.9109 -13.9809 10.7114 -16.32795 0.4362 -0.269431 0.8997 -0.470955 1.3769 -0.604009 0.4791 -0.133593 0.9296 0.010732 1.2486 0.296554ZM27.4953 23.4252C28.4405 22.6652 29 21.515 29 20.0001c0 -1.7816 -0.8134 -3.1875 -1.7447 -4.2103 -0.9289 -1.0201 -1.9992 -1.6875 -2.5864 -2.01 -0.4186 -0.2298 -0.9192 -0.2298 -1.3378 0 -0.5872 0.3225 -1.6575 0.9898 -2.5864 2.01C19.8134 16.8126 19 18.2185 19 20.0001c0 1.5149 0.5595 2.6651 1.5047 3.4251 0.9292 0.7472 2.1773 1.0749 3.4953 1.0749s2.5661 -0.3277 3.4953 -1.0749ZM9.68963 46.9894c-1.00879 0.3481 -2.34619 0.3368 -3.08732 -0.7433 -0.25844 -0.3767 -0.51452 -0.8574 -0.72978 -1.4661 -0.22595 -0.6389 -0.32914 -1.1989 -0.36134 -1.6715 -0.08627 -1.2667 0.8886 -2.115 1.85527 -2.5065 1.19678 -0.4847 3.28054 -1.313 6.63514 -2.6024 -3.3546 -1.2894 -5.43836 -2.1178 -6.63514 -2.6024 -0.96667 -0.3915 -1.94154 -1.2398 -1.85527 -2.5065 0.0322 -0.4727 0.13539 -1.0326 0.36134 -1.6715 0.21526 -0.6087 0.47134 -1.0894 0.72978 -1.4661 0.74114 -1.0802 2.07853 -1.0914 3.08732 -0.7433 1.97897 0.6828 6.24977 2.1958 14.30997 5.2072 8.0601 -3.0114 12.3309 -4.5244 14.3099 -5.2072 1.0088 -0.3481 2.3462 -0.3369 3.0873 0.7433 0.2584 0.3767 0.5145 0.8574 0.7298 1.4661 0.2259 0.6389 0.3291 1.1988 0.3613 1.6715 0.0863 1.2667 -0.8886 2.115 -1.8553 2.5065 -1.1967 0.4846 -3.2805 1.313 -6.6351 2.6024 3.3546 1.2894 5.4384 2.1177 6.6352 2.6024 0.9666 0.3915 1.9415 1.2398 1.8552 2.5065 -0.0322 0.4726 -0.1354 1.0326 -0.3613 1.6715 -0.2153 0.6087 -0.4714 1.0894 -0.7298 1.4661 -0.7411 1.0801 -2.0785 1.0914 -3.0873 0.7433 -1.979 -0.6828 -6.2498 -2.1959 -14.3099 -5.2073 -8.0602 3.0114 -12.331 4.5245 -14.30997 5.2073Z" clip-rule="evenodd" stroke-width="1"></path></g></svg>