<svg xmlns="http://www.w3.org/2000/svg" fill="none" viewBox="0 0 48 48" id="Candle--Streamline-Plump"><desc>Candle Streamline Icon: https://streamlinehq.com</desc><g id="candle--lighting-light-incandescent-candle"><path id="Union" fill="#000000" fill-rule="evenodd" d="M22.6942 0.559908c0.837 -0.194867 1.6092 0.100909 2.1178 0.612972 0.4863 0.48957 0.7381 1.16974 0.7097 1.85716 -0.0483 1.17269 -0.0306 2.66609 0.2058 4.07554 0.2154 1.28376 0.5857 2.33218 1.1081 3.02922 0.7985 -0.8532 1.1988 -2.09122 1.5191 -3.1856 0.264 -0.90197 0.9719 -1.53834 1.7894 -1.75485 0.8439 -0.22348 1.8393 0.00191 2.494 0.82269C34.2423 8.0282 35.5 10.6151 35.5 13.7536c0 3.2931 -1.3214 5.8122 -3.5319 7.4615 -2.1505 1.6047 -5.003 2.2866 -7.9681 2.2866 -2.9651 0 -5.8176 -0.6819 -7.9681 -2.2866 -2.2105 -1.6493 -3.5319 -4.1684 -3.5319 -7.4615 0 -6.63423 5.5624 -10.76734 8.5426 -12.52983 0.5214 -0.308372 1.0781 -0.530362 1.6516 -0.663862ZM33.3917 25.569c3.0151 -0.1043 5.7031 2.0135 5.9378 5.173 0.0984 1.3247 0.1705 2.9904 0.1705 5.0273L39.5 46c0 0.8285 -0.6716 1.5 -1.5 1.5l-28 0c-0.39782 0 -0.77936 -0.158 -1.06066 -0.4393C8.65804 46.7794 8.5 46.3979 8.5 46l0 -8.1846c0 -1.6862 0.07064 -3.1151 0.1675 -4.2819 0.24556 -2.9578 2.4749 -5.1562 5.2462 -5.7132 6.2098 -1.2483 12.9428 -2.0252 19.478 -2.2513Z" clip-rule="evenodd" stroke-width="1"></path></g></svg>