<svg xmlns="http://www.w3.org/2000/svg" fill="none" viewBox="0 0 48 48" id="Car-1--Streamline-Plump"><desc>Car 1 Streamline Icon: https://streamlinehq.com</desc><g id="car-1--transportation-travel-transport-car"><path id="Union" fill="#000000" fill-rule="evenodd" d="M37.3219 10.3002c-1.042 -3.031 -3.8935 -5.0662 -7.0987 -5.0662H15.0377c-3.363 0 -6.3156 2.2367 -7.2261 5.4741l-2.3708 8.4298c-0.3785 0.0913 -0.7205 0.1791 -1.026 0.2613 -1.5713 0.4226 -3.0436 1.5619 -3.454 3.4209C0.6997 24.0032 0.48 25.7302 0.48 28.198c0 2.0299 0.1486 3.5579 0.3465 4.6941 0.3614 2.0757 1.9265 3.3194 3.6819 3.7322 0.3245 -4.1242 3.7741 -7.3698 7.9818 -7.3698 4.4182 0 8.0005 3.5784 8.0068 7.9952 1.1024 0.0075 2.269 0.0116 3.503 0.0116s2.4006 -0.0041 3.503 -0.0116c0.0063 -4.4168 3.5886 -7.9952 8.0068 -7.9952 4.2077 0 7.6573 3.2456 7.9819 7.3698 1.7554 -0.4128 3.3204 -1.6565 3.6819 -3.7322 0.1978 -1.1362 0.3464 -2.6642 0.3464 -4.6941 0 -2.4678 -0.2197 -4.1948 -0.4808 -5.3779 -0.4104 -1.859 -1.8827 -2.9982 -3.454 -3.4209 -0.8509 -0.2288 -1.9844 -0.5011 -3.4016 -0.774l-2.8617 -8.3249Zm-5.4211 2.7537c-0.3069 -1.0742 -1.2887 -1.8148 -2.4058 -1.8148h-2.9979c-1.1055 0 -2.0017 0.8962 -2.0017 2.0017v4.0034c0 1.1056 0.8962 2.0017 2.0017 2.0017h4.5192c1.3298 0 2.29 -1.2728 1.9246 -2.5515l-1.0401 -3.6405Zm-11.4088 0.1869c0 -1.1055 -0.8961 -2.0017 -2.0017 -2.0017h-2.9908c-1.1168 0 -2.0982 0.74 -2.4056 1.8136l-1.0422 3.6407c-0.3662 1.2789 0.594 2.5526 1.9244 2.5526h4.5142c1.1056 0 2.0017 -0.8962 2.0017 -2.0017v-4.0034ZM6.9855 37.2613c0 3.0402 2.4646 5.5047 5.5047 5.5047 3.0402 0 5.5047 -2.4645 5.5047 -5.5047s-2.4645 -5.5047 -5.5047 -5.5047c-3.0401 0 -5.5047 2.4645 -5.5047 5.5047Zm23.0196 0c0 3.0402 2.4645 5.5047 5.5047 5.5047s5.5047 -2.4645 5.5047 -5.5047 -2.4645 -5.5047 -5.5047 -5.5047 -5.5047 2.4645 -5.5047 5.5047Z" clip-rule="evenodd" stroke-width="1"></path></g></svg>