<svg xmlns="http://www.w3.org/2000/svg" fill="none" viewBox="0 0 48 48" id="Carousel-Horizontal--Streamline-Plump"><desc>Carousel Horizontal Streamline Icon: https://streamlinehq.com</desc><g id="carousel-horizontal"><path id="Union" fill="#000000" fill-rule="evenodd" d="M24 4.5c3.1382 0 5.5938 0.13015 7.4328 0.29162 3.3021 0.28994 5.6221 2.95592 5.784 6.14858C37.3596 13.7549 37.5 18.039 37.5 24c0 5.961 -0.1404 10.2451 -0.2832 13.0598 -0.1619 3.1927 -2.482 5.8586 -5.784 6.1486 -1.839 0.1615 -4.2946 0.2916 -7.4328 0.2916 -3.1382 0 -5.5938 -0.1301 -7.4328 -0.2916 -3.3021 -0.29 -5.6221 -2.9559 -5.784 -6.1486C10.6404 34.2451 10.5 29.961 10.5 24c0 -5.961 0.1404 -10.2451 0.2832 -13.0598 0.1619 -3.19267 2.482 -5.85864 5.784 -6.14858C18.4062 4.63015 20.8618 4.5 24 4.5ZM0.503178 38.0968c-0.002409 -0.0373 -0.003436 -0.0743 -0.003124 -0.1111l0.000001 -27.9715c-0.000307 -0.03671 0.00072 -0.07369 0.003125 -0.1109 0.053439 -0.82671 0.76693 -1.45356 1.59363 -1.40012 0.35728 0.02309 0.69289 0.04757 1.0073 0.07285 2.89384 0.2327 4.99563 2.53577 5.15346 5.35927 0.12444 2.2261 0.24249 5.5323 0.24249 10.0648 0 4.5324 -0.11805 7.8386 -0.24249 10.0647 -0.15783 2.8235 -2.25962 5.1266 -5.15346 5.3593 -0.31441 0.0253 -0.65003 0.0497 -1.0073 0.0728 -0.8267 0.0535 -1.540194 -0.5734 -1.593632 -1.4001Zm46.993722 0c0.0024 -0.0372 0.0034 -0.0742 0.0031 -0.1109V10.0147c0.0003 -0.03688 -0.0007 -0.07402 -0.0031 -0.1114 -0.0535 -0.82671 -0.767 -1.45356 -1.5937 -1.40012 -0.3572 0.02309 -0.6928 0.04757 -1.0072 0.07285 -2.8939 0.2327 -4.9957 2.53577 -5.1535 5.35927 -0.1245 2.2261 -0.2425 5.5323 -0.2425 10.0648 0 4.5324 0.118 7.8386 0.2425 10.0647 0.1578 2.8235 2.2596 5.1266 5.1534 5.3593 0.3145 0.0253 0.6501 0.0497 1.0073 0.0728 0.8267 0.0535 1.5402 -0.5734 1.5937 -1.4001Z" clip-rule="evenodd" stroke-width="1"></path></g></svg>