<svg xmlns="http://www.w3.org/2000/svg" fill="none" viewBox="0 0 48 48" id="Carrot--Streamline-Plump"><desc>Carrot Streamline Icon: https://streamlinehq.com</desc><g id="carrot--vegetable-carrot"><path id="Union" fill="#000000" fill-rule="evenodd" d="M28.9998 0.5c-0.5226 0 -0.9907 0.015256 -1.4068 0.040215C25.7239 0.652336 24.4952 2.20847 24.5 4.00458c0.0051 1.9186 0.1199 4.09957 0.274 6.18092 2.4279 1.0386 5.0491 2.7218 7.6847 5.3574 2.635 2.635 4.3181 5.2555 5.3567 7.683 2.081 0.1541 4.2616 0.2688 6.1799 0.2739 1.7961 0.0048 3.3522 -1.2238 3.4643 -3.093 0.025 -0.4161 0.0402 -0.8842 0.0402 -1.4068 0 -0.5226 -0.0152 -0.9907 -0.0402 -1.4068 -0.1121 -1.8692 -1.6682 -3.0978 -3.4643 -3.093 -1.5603 0.0041 -3.291 0.0807 -4.9975 0.1915 1.9694 -1.6419 4.2486 -3.6148 6.1265 -5.43957 1.5723 -1.52788 1.8431 -3.92239 0.2825 -5.58055 -0.1647 -0.17492 -0.3415 -0.35743 -0.5313 -0.54724 -0.1898 -0.1898 -0.3723 -0.36664 -0.5472 -0.53127 -1.6582 -1.56065 -4.0527 -1.28981 -5.5806 0.28249C36.9229 4.7534 34.95 7.0326 33.3081 9.00204c0.1108 -1.70653 0.1874 -3.43725 0.1916 -4.99746 0.0047 -1.7961 -1.2239 -3.352244 -3.0931 -3.464365C29.9905 0.515256 29.5224 0.5 28.9998 0.5ZM11.742 15.8171c1.5537 -2.5742 4.3433 -4.9868 7.9133 -4.4977 2.9773 0.408 6.9267 1.8819 11.0357 5.9909 4.1087 4.1087 5.5827 8.0578 5.9907 11.0351 0.4892 3.5697 -1.9223 6.3503 -4.471 7.9216 -4.3753 2.6975 -8.1774 4.8293 -11.4814 6.4874 -1.0921 -2.4339 -2.8695 -5.103 -5.6855 -7.8316 -0.5949 -0.5765 -1.5446 -0.5616 -2.121 0.0334 -0.5765 0.5949 -0.5616 1.5446 0.0334 2.121 2.587 2.5068 4.1443 4.8918 5.0697 6.9808 -3.7472 1.7283 -6.7634 2.7705 -9.19077 3.3014 -0.46363 0.1014 -0.92193 0.1409 -1.36114 0.1409h-0.1826C3.54061 47.5003 0.5 44.4597 0.5 40.7089c0 -0.6 0.077424 -1.2149 0.26956 -1.8285 0.66869 -2.1359 2.97944 -8.8511 8.22805 -18.3225 2.95579 0.2549 7.30869 1.4545 12.01479 5.5711 0.6236 0.5454 1.5712 0.4821 2.1166 -0.1414 0.5454 -0.6236 0.4821 -1.5712 -0.1414 -2.1166 -4.6065 -4.0295 -9.0014 -5.607 -12.3832 -6.1374 0.3669 -0.6288 0.746 -1.2677 1.1376 -1.9165Z" clip-rule="evenodd" stroke-width="1"></path></g></svg>