<svg xmlns="http://www.w3.org/2000/svg" fill="none" viewBox="0 0 48 48" id="Chat-Two-Bubbles-Square-Text-2--Streamline-Plump"><desc>Chat Two Bubbles Square Text 2 Streamline Icon: https://streamlinehq.com</desc><g id="chat-two-bubbles-square-text-2"><path id="Union" fill="#000000" fill-rule="evenodd" d="M28.0032 1.0174c5.9071 0 10.1738 0.1835 13.0008 0.3723 3.2834 0.2193 5.8724 2.7101 6.1342 6.0213 0.1992 2.5194 0.3818 6.1773 0.3818 11.1214s-0.1825 8.6021 -0.3818 11.1215c-0.2618 3.3112 -2.8508 5.802 -6.1342 6.0213l-0.1412 0.0095 -0.0016 0.0001c-0.1135 0.0077 -0.2292 0.0155 -0.3472 0.0229v3.1778c0 2.0659 -2.3619 3.2417 -4.0103 1.9965l-4.8078 -3.6318c0.0237 -0.1764 0.0422 -0.3549 0.055 -0.5351 0.138 -1.9426 0.2558 -4.637 0.2558 -8.1741s-0.1178 -6.2314 -0.2558 -8.174c-0.2954 -4.1593 -3.5627 -7.3252 -7.6644 -7.5866 -2.1 -0.1338 -5.0936 -0.2531 -9.0944 -0.2531 -2.53 0 -4.6572 0.0476 -6.4104 0.1166 0.0719 -2.1072 0.1767 -3.8433 0.2866 -5.2329 0.2618 -3.3112 2.8508 -5.802 6.1342 -6.0213 2.827 -0.1888 7.0938 -0.3723 13.0007 -0.3723Zm-13.0107 14.012c3.9513 0 6.8916 0.1178 8.9352 0.248 2.8712 0.183 5.1223 2.3757 5.3277 5.2669 0.1335 1.88 0.2495 4.5151 0.2495 7.9967 0 3.4816 -0.116 6.1168 -0.2495 7.9968 -0.2054 2.8912 -2.4565 5.0839 -5.3277 5.2668 -1.6748 0.1067 -3.9518 0.2051 -6.8937 0.2371l-5.4844 4.3876c-1.6432 1.3145 -4.0636 0.1366 -4.0636 -1.9552v-2.589c-0.5176 -0.0255 -0.9935 -0.0527 -1.4288 -0.0805C3.1861 41.6217 0.9349 39.429 0.7295 36.5378 0.596 34.6578 0.48 32.0226 0.48 28.541c0 -3.4815 0.116 -6.1167 0.2495 -7.9967 0.2054 -2.8912 2.4566 -5.0839 5.3277 -5.2668 2.0437 -0.1303 4.984 -0.2481 8.9353 -0.2481Zm-6.0052 7.5065c-1.1055 0 -2.0017 0.8962 -2.0017 2.0017s0.8962 2.0017 2.0017 2.0017h12.0103c1.1056 0 2.0017 -0.8961 2.0017 -2.0017s-0.8961 -2.0017 -2.0017 -2.0017H8.9873Zm0 8.0069c-1.1055 0 -2.0017 0.8961 -2.0017 2.0017s0.8962 2.0017 2.0017 2.0017h6.0052c1.1055 0 2.0017 -0.8962 2.0017 -2.0017s-0.8962 -2.0017 -2.0017 -2.0017H8.9873Z" clip-rule="evenodd" stroke-width="1"></path></g></svg>