<svg xmlns="http://www.w3.org/2000/svg" fill="none" viewBox="0 0 48 48" id="Check-Circle--Streamline-Plump"><desc>Check Circle Streamline Icon: https://streamlinehq.com</desc><g id="Solid/Interface Essential/Validation/check-circle--checkmark-addition-circle-success-check-validation-add-form-tick"><path id="Subtract" fill="#000000" fill-rule="evenodd" d="M0.5 24C0.5 11.0213 11.0213 0.5 24 0.5S47.5 11.0213 47.5 24 36.9787 47.5 24 47.5 0.5 36.9787 0.5 24Zm22.0769 1.1234c-0.189 -0.2267 -0.4383 -0.5228 -0.7433 -0.8787 -0.755 -0.8812 -1.8518 -2.1299 -3.2211 -3.6024 -1.0991 -1.1818 -2.9412 -1.4643 -4.2261 -0.3462 -0.5844 0.5084 -1.2243 1.1405 -1.7952 1.8745 -0.872 1.1212 -0.6547 2.6222 0.1691 3.6431 2.7126 3.3619 5.3322 6.1072 7.2067 7.9549 1.7204 1.6959 4.4336 1.5579 5.9515 -0.3306 2.0418 -2.5404 5.3051 -6.8802 9.6461 -13.541 0.6105 -0.9367 0.8122 -2.2395 0.0697 -3.2521 -0.7676 -1.0467 -1.7314 -1.7711 -2.5669 -2.2544 -1.3641 -0.7891 -2.9264 -0.1522 -3.7489 1.0156 -2.1926 3.1133 -3.9717 5.6805 -5.2027 7.4696 -0.6155 0.8946 -1.094 1.5946 -1.4187 2.0712l-0.1202 0.1765Z" clip-rule="evenodd" stroke-width="1"></path></g></svg>