<svg xmlns="http://www.w3.org/2000/svg" fill="none" viewBox="0 0 48 48" id="Check-Double-Thick--Streamline-Plump"><desc>Check Double Thick Streamline Icon: https://streamlinehq.com</desc><g id="check-double-thick--check-double-thick-form-validation-checkmark-success-tick"><path id="Union" fill="#000000" fill-rule="evenodd" d="M25.8673 10.3274c1.3814 -1.9689 4.0241 -3.1208 6.354 -1.70322 1.1025 0.67078 2.3279 1.61902 3.3635 2.92452 1.4162 1.7852 1.0232 4.1719 -0.0484 5.8179 -6.8039 10.4506 -11.8041 17.0184 -14.7457 20.632 -2.0277 2.4908 -5.5645 2.6756 -7.8525 0.4481 -2.7506 -2.678 -6.8614 -6.9222 -11.15641 -12.2249 -1.45481 -1.7962 -1.8551882 -4.5187 -0.23479 -6.4889 0.69396 -0.8438 1.43749 -1.5884 2.1388 -2.2184 2.17352 -1.9523 5.26993 -1.4328 7.115 0.565 1.9654 2.1281 3.5375 3.9273 4.6193 5.1959 0.3164 0.371 0.5908 0.6966 0.821 0.9718 0.4724 -0.6955 1.1596 -1.7042 2.0389 -2.9866 1.794 -2.6166 4.3877 -6.3729 7.5873 -10.9332Zm5.9234 27.6712c-1.9707 2.4208 -5.3669 2.6634 -7.6566 0.6303 3.0801 -3.8778 7.7799 -10.1984 13.9174 -19.6255 1.4867 -2.2835 2.3882 -6.1631 -0.1154 -9.31916 -0.0805 -0.10147 -0.1618 -0.20112 -0.2438 -0.29897 1.4643 -1.3492 3.6034 -1.93265 5.529 -0.76109 1.1025 0.67078 2.3279 1.61902 3.3635 2.92452 1.4162 1.7852 1.0232 4.1719 -0.0484 5.8179 -6.8039 10.4506 -11.8041 17.0184 -14.7457 20.632Z" clip-rule="evenodd" stroke-width="1"></path></g></svg>