<svg xmlns="http://www.w3.org/2000/svg" fill="none" viewBox="0 0 48 48" id="Check-Thick--Streamline-Plump"><desc>Check Thick Streamline Icon: https://streamlinehq.com</desc><g id="Solid/Interface Essential/Validation/check-thick--check-form-validation-checkmark-success-add-addition-1-tick"><path id="Union" fill="#000000" d="M41.1315 3.708c-2.1744 -1.1686 -4.6598 -0.2051 -6.0099 1.7029 -4.4377 6.2719 -8.0423 11.451 -10.5375 15.0624 -1.2475 1.8056 -2.2179 3.2193 -2.8764 4.1818 -0.2514 0.3676 -0.4575 0.6694 -0.6162 0.902 -0.057 -0.0688 -0.1193 -0.144 -0.1869 -0.2253 -0.4112 -0.4939 -1.018 -1.2148 -1.8019 -2.1244 -1.5677 -1.8191 -3.844 -4.3935 -6.681 -7.4172 -1.7943 -1.9126 -4.7381 -2.3361 -6.8159 -0.6076 -1.3624 1.1333 -2.9325 2.6329 -4.2636 4.4184 -1.3448 1.8041 -1.0243 4.2088 0.3244 5.8827 6.456 8.0126 12.6806 14.2859 16.4335 17.8577 2.1976 2.0915 5.6048 1.9178 7.5528 -0.4169 3.8269 -4.5869 10.9659 -13.7381 20.9731 -29.0577 1.0096 -1.5454 1.293 -3.6175 0.172 -5.2371 -1.6522 -2.387 -3.8585 -3.9499 -5.6665 -4.9217Z" stroke-width="1"></path></g></svg>