<svg xmlns="http://www.w3.org/2000/svg" fill="none" viewBox="0 0 48 48" id="Check-Square--Streamline-Plump"><desc>Check Square Streamline Icon: https://streamlinehq.com</desc><g id="Solid/Interface Essential/Validation/check-square--check-form-validation-checkmark-success-add-addition-box-square-tick"><path id="Subtract" fill="#000000" fill-rule="evenodd" d="M24 1.5c-7.4014 0 -12.5927 0.27807 -15.86429 0.54389 -3.28785 0.26713 -5.82468 2.80395 -6.09181 6.0918C1.77808 11.4073 1.5 16.5986 1.5 24c0 7.4014 0.27807 12.5927 0.54389 15.8643 0.26713 3.2878 2.80395 5.8247 6.0918 6.0918C11.4073 46.2219 16.5986 46.5 24 46.5c7.4014 0 12.5927 -0.2781 15.8643 -0.5439 3.2878 -0.2671 5.8247 -2.804 6.0918 -6.0918 0.2658 -3.2716 0.5439 -8.4629 0.5439 -15.8643 0 -7.4014 -0.2781 -12.5927 -0.5439 -15.86429 -0.2671 -3.28785 -2.8039 -5.82468 -6.0918 -6.09181C36.5927 1.77808 31.4014 1.5 24 1.5Zm-1.4231 23.6234c-0.189 -0.2267 -0.4383 -0.5228 -0.7433 -0.8787 -0.755 -0.8812 -1.8518 -2.1299 -3.2211 -3.6024 -1.0991 -1.1818 -2.9412 -1.4643 -4.2261 -0.3462 -0.5844 0.5084 -1.2243 1.1405 -1.7952 1.8745 -0.872 1.1212 -0.6547 2.6222 0.1691 3.6431 2.7126 3.3619 5.3322 6.1072 7.2067 7.9549 1.7204 1.6959 4.4336 1.5579 5.9515 -0.3306 2.0418 -2.5404 5.3051 -6.8802 9.6461 -13.541 0.6105 -0.9367 0.8122 -2.2395 0.0697 -3.2521 -0.7676 -1.0467 -1.7314 -1.7711 -2.5669 -2.2544 -1.3641 -0.7891 -2.9264 -0.1522 -3.7489 1.0156 -2.1926 3.1133 -3.9717 5.6805 -5.2027 7.4696 -0.6155 0.8946 -1.094 1.5946 -1.4187 2.0712l-0.1202 0.1765Z" clip-rule="evenodd" stroke-width="1"></path></g></svg>