<svg xmlns="http://www.w3.org/2000/svg" fill="none" viewBox="0 0 48 48" id="Clapping--Streamline-Plump"><desc>Clapping Streamline Icon: https://streamlinehq.com</desc><g id="Solid/Interface Essential/Hand Gestures/clapping"><path id="Union" fill="#000000" fill-rule="evenodd" d="M33.6408 0.504218c-1.1023 0.07109 -1.9382 1.022292 -1.8672 2.124572l0.2321 3.59808c0.0711 1.10228 1.0223 1.93822 2.1246 1.86713 1.1022 -0.07109 1.9382 -1.02229 1.8671 -2.12457l-0.2321 -3.59808c-0.071 -1.10228 -1.0222 -1.938221 -2.1245 -1.867132Zm9.8958 4.836962c0.6667 -0.88069 0.4932 -2.13508 -0.3875 -2.80175 -0.8807 -0.66667 -2.1351 -0.49317 -2.8017 0.38753l-2.4331 3.2141c-0.6666 0.8807 -0.4931 2.13508 0.3876 2.80175 0.8807 0.66667 2.1351 0.49317 2.8017 -0.38753l2.433 -3.2141Zm2.3104 8.62962c1.0885 -0.1881 1.8183 -1.2229 1.6302 -2.3113 -0.1881 -1.0885 -1.223 -1.81833 -2.3114 -1.6302l-3.8481 0.665c-1.0884 0.1882 -1.8183 1.223 -1.6301 2.3114 0.1881 1.0885 1.2229 1.8183 2.3114 1.6302l3.848 -0.6651ZM22.3651 11.042c-0.8782 -1.42183 -2.6272 -2.41597 -4.3302 -1.66298 -0.1979 0.08749 -0.3966 0.18642 -0.5903 0.29827 -0.2693 0.15545 -0.5126 0.31485 -0.7318 0.47371 -1.4486 1.0501 -1.3144 2.9276 -0.4922 4.2459 1.28 2.0523 3.2833 5.2742 4.5411 7.3454 0.3597 0.5922 0.16 1.3612 -0.45 1.7134 -0.5992 0.346 -1.3596 0.1538 -1.7191 -0.433l-5.5305 -9.0267c-0.6261 -1.0218 -1.7964 -1.924 -3.16798 -1.5038 -0.4148 0.127 -0.87848 0.3195 -1.37591 0.6067 -0.33929 0.1959 -0.63885 0.3943 -0.90194 0.5881 -1.34215 0.9883 -1.33343 2.7105 -0.56102 3.9892 0.91417 1.5132 2.25914 3.6767 3.52425 5.7116l0 0.0001 0.0014 0.0022c0.8041 1.2934 1.5761 2.5352 2.1866 3.5282 0.3662 0.5956 0.167 1.374 -0.4463 1.7281 -0.5928 0.3422 -1.3502 0.1532 -1.7127 -0.4276l-3.8725 -6.205c-0.60556 -0.9703 -1.74055 -1.8332 -3.05634 -1.3686 -0.36329 0.1282 -0.77178 0.3116 -1.22122 0.5711 -0.29054 0.1677 -0.55463 0.3421 -0.7934 0.5169 -1.515722 1.1098 -1.395129 3.1035 -0.50895 4.5015 1.39385 2.199 3.66731 5.8451 5.74461 9.4439 1.43377 2.4945 3.6159 5.5079 5.8538 8.0297 3.1393 3.5376 8.077 4.0166 12.1916 1.8402 0.7472 -0.3953 1.5469 -0.8355 2.3922 -1.3235 2.3786 -1.3733 4.0677 -2.5086 5.2202 -3.3562 1.4958 -1.1001 2.6138 -2.6022 3.3026 -4.3121 1.9406 -4.818 2.8958 -10.2027 3.2937 -12.9855 0.1897 -1.3259 -0.0373 -2.8056 -1.0684 -3.8401 -0.4759 -0.4775 -0.981 -0.8657 -1.473 -1.18 -0.9335 -0.5962 -1.9684 -0.5978 -2.8527 -0.199 -0.8732 0.3938 -1.5954 1.1726 -1.9771 2.1432 -0.5171 1.3145 -0.9632 2.5267 -1.2801 3.4101 -0.0522 0.1455 -0.1009 0.282 -0.1458 0.4087 -2.8884 -4.964 -6.2044 -10.3773 -7.9926 -13.2721Zm5.4068 35.8126c1.8349 0.0591 3.7205 -0.3864 5.4592 -1.3061 0.7473 -0.3953 1.547 -0.8355 2.3923 -1.3235 2.3785 -1.3733 4.0677 -2.5086 5.2201 -3.3562 1.4959 -1.1001 2.6139 -2.6022 3.3026 -4.3121 1.9406 -4.818 2.8959 -10.2027 3.2938 -12.9855 0.1896 -1.3259 -0.0373 -2.8056 -1.0685 -3.8401 -0.4759 -0.4775 -0.9809 -0.8657 -1.473 -1.18 -0.9335 -0.5962 -1.9684 -0.5978 -2.8526 -0.199 -0.4526 0.2041 -0.8645 0.5115 -1.2096 0.8955 0.8881 1.5504 0.9902 3.2994 0.7931 4.6774 -0.4072 2.8479 -1.3962 8.4677 -3.4496 13.5657 -0.8495 2.1089 -2.2437 3.9971 -4.1404 5.392 -1.2331 0.907 -3.0002 2.0921 -5.4513 3.5072 -0.2768 0.1598 -0.5488 0.3147 -0.8161 0.4647Zm5.7794 -31.0779c-0.281 0.0779 -0.5548 0.1773 -0.8187 0.2963 -1.2188 0.5497 -2.2073 1.4962 -2.8599 2.6389l-5.1051 -8.3754c0.0718 -0.0643 0.1485 -0.1262 0.2303 -0.1855 0.2192 -0.15886 0.4625 -0.31826 0.7317 -0.47371 0.1938 -0.11185 0.3925 -0.21078 0.5903 -0.29827 1.703 -0.75299 3.452 0.24115 4.3303 1.66298 0.7476 1.2103 1.7623 2.8609 2.9011 4.7347Z" clip-rule="evenodd" stroke-width="1"></path></g></svg>