<svg xmlns="http://www.w3.org/2000/svg" fill="none" viewBox="0 0 48 48" id="Clean-Broom-Wipe--Streamline-Plump"><desc>Clean Broom Wipe Streamline Icon: https://streamlinehq.com</desc><g id="clean-broom-wipe"><path id="Union" fill="#000000" fill-rule="evenodd" d="M21.4172 1.1882c-1.365 -0.2313 -2.2748 0.8125 -2.6176 1.8957 -1.5755 4.9786 -2.9097 10.0497 -4.2366 15.0926 -0.2294 0.8717 -0.4585 1.7425 -0.6887 2.6119 -5.625 0.4184 -9.8619 4.7837 -11.2719 10.0691 -0.8888 3.3316 -1.7701 7.2621 -2.103 10.7592 -0.2237 2.3505 1.5169 4.2882 3.7484 4.5491 1.0459 0.1223 2.356 0.2597 3.8219 0.3788 -1.7105 -3.6799 -1.8235 -7.5825 -1.6073 -9.4095 0.0977 -0.8255 0.8461 -1.4155 1.6716 -1.3178 0.8255 0.0977 1.4155 0.846 1.3178 1.6715 -0.2049 1.7319 -0.0043 5.9285 2.1712 9.2801 1.0739 0.047 2.1793 0.0753 3.2861 0.0753 1.1038 0 2.2614 -0.0281 3.4235 -0.0748 -1.1427 -1.6333 -1.8278 -3.405 -2.2416 -4.9224 -0.4114 -1.5085 -0.5892 -3.0064 -0.6517 -4.5355 -0.0339 -0.8306 0.6454 -1.5048 1.4766 -1.5048 0.8313 0 1.4983 0.6743 1.5353 1.5048 0.0564 1.2602 0.204 2.4969 0.544 3.7434 0.5149 1.8882 1.4517 3.9719 3.1263 5.5048 0.8512 -0.0584 1.6736 -0.1216 2.4452 -0.1855 3.5526 -0.294 4.9681 -4.565 2.49 -6.9971l-1.1098 -1.0892c-1.0887 -1.0685 -1.6871 -2.5397 -1.6533 -4.0647l0.0571 -2.5782c0.0832 -3.7541 -1.6234 -7.4561 -4.6196 -9.4285 0.2234 -0.8237 0.4484 -1.6483 0.6735 -2.4734l0.0006 -0.0023c1.3723 -5.0306 2.7521 -10.0884 3.877 -15.1878 0.2448 -1.1095 -0.0213 -2.4683 -1.319 -2.9506 -0.2236 -0.083 -0.4769 -0.1644 -0.7638 -0.2413s-0.5471 -0.133 -0.7822 -0.1729Zm4.0278 28.0964c0 -1.1084 0.8984 -2.0069 2.0068 -2.0069h12.0409c1.1084 0 2.0068 0.8985 2.0068 2.0069s-0.8984 2.0068 -2.0068 2.0068H27.4518c-1.1084 0 -2.0068 -0.8985 -2.0068 -2.0068Zm5.017 4.5153c-1.1083 0 -2.0068 0.8985 -2.0068 2.0068s0.8985 2.0069 2.0068 2.0069h12.0409c1.1084 0 2.0069 -0.8985 2.0069 -2.0069s-0.8985 -2.0068 -2.0069 -2.0068H30.462Zm3.0103 6.5222c-1.1084 0 -2.0069 0.8984 -2.0069 2.0068s0.8985 2.0068 2.0069 2.0068h12.0409c1.1083 0 2.0068 -0.8984 2.0068 -2.0068s-0.8985 -2.0068 -2.0068 -2.0068H33.4723Z" clip-rule="evenodd" stroke-width="1"></path></g></svg>