<svg xmlns="http://www.w3.org/2000/svg" fill="none" viewBox="0 0 48 48" id="Cog-1--Streamline-Plump"><desc>Cog 1 Streamline Icon: https://streamlinehq.com</desc><g id="cog-1--work-loading-cog-gear-settings-machine"><path id="Subtract" fill="#000000" fill-rule="evenodd" d="M18.9917 1.43889C19.6696 1.07506 21.1877 0.5 23.9991 0.5c2.8114 0 4.3294 0.57506 5.0073 0.93889 0.3567 0.19142 0.5862 0.50039 0.7312 0.80243 0.2019 0.42071 0.5519 1.16779 0.9314 2.05852 0.5632 1.32194 1.6184 2.40348 2.8955 3.14293 1.2772 0.73949 2.7291 1.1048 4.1591 0.93107 0.9622 -0.11689 1.7852 -0.1874 2.2509 -0.2229 0.334 -0.02546 0.7164 0.0188 1.0604 0.23197 0.6541 0.40516 1.9111 1.43227 3.3168 3.86699 1.4057 2.4348 1.6667 4.037 1.6906 4.806 0.0125 0.4046 -0.1403 0.7578 -0.3294 1.0344 -0.2639 0.3861 -0.7375 1.065 -1.321 1.8412 -0.8638 1.1492 -1.2748 2.5947 -1.2748 4.0685 0 1.4737 0.411 2.919 1.2748 4.0682 0.5837 0.7765 1.0574 1.4556 1.3214 1.8418 0.1891 0.2766 0.342 0.6298 0.3294 1.0344 -0.0239 0.769 -0.2849 2.3712 -1.6906 4.8059 -1.4057 2.4348 -2.6627 3.4619 -3.3167 3.8671 -0.3441 0.2131 -0.7265 0.2574 -1.0605 0.2319 -0.4659 -0.0355 -1.2893 -0.106 -2.2519 -0.223 -1.4298 -0.1737 -2.8816 0.1915 -4.1587 0.9309 -1.277 0.7394 -2.332 1.8208 -2.8952 3.1426 -0.3795 0.8909 -0.7296 1.6381 -0.9315 2.0589 -0.145 0.302 -0.3745 0.611 -0.7312 0.8024 -0.6779 0.3638 -2.1959 0.9389 -5.0073 0.9389s-4.3295 -0.5751 -5.0074 -0.9389c-0.3566 -0.1914 -0.5861 -0.5004 -0.7311 -0.8024 -0.2018 -0.4204 -0.5514 -1.1667 -0.9306 -2.0565 -0.5635 -1.3227 -1.6194 -2.4047 -2.8973 -3.1444 -1.2775 -0.7396 -2.7297 -1.1051 -4.16 -0.9314 -0.96053 0.1166 -1.78201 0.187 -2.24712 0.2224 -0.33406 0.0255 -0.71639 -0.0188 -1.06048 -0.2319 -0.65405 -0.4052 -1.91107 -1.4323 -3.31678 -3.8671 -1.40571 -2.4347 -1.6667 -4.0369 -1.69057 -4.8059 -0.01255 -0.4046 0.14027 -0.7578 0.32936 -1.0344 0.26316 -0.3849 0.73457 -1.0608 1.31556 -1.834 0.86509 -1.1513 1.27638 -2.5993 1.27638 -4.0755 0 -1.4764 -0.41128 -2.9243 -1.27638 -4.0757 -0.58087 -0.773 -1.05219 -1.4488 -1.31531 -1.8336 -0.18908 -0.2766 -0.34191 -0.6298 -0.32935 -1.0344 0.02386 -0.769 0.28485 -2.3712 1.69056 -4.806 1.40572 -2.43473 2.66273 -3.46183 3.31678 -3.867 0.3441 -0.21316 0.72642 -0.25743 1.06048 -0.23196 0.46501 0.03544 1.28622 0.10579 2.24647 0.22237 1.4304 0.17364 2.8827 -0.19185 4.1603 -0.93149 1.278 -0.73983 2.3339 -1.82193 2.8975 -3.14465 0.3791 -0.88973 0.7287 -1.63589 0.9305 -2.05625 0.145 -0.30204 0.3745 -0.61101 0.7311 -0.80243ZM15 24c0 -4.9706 4.0294 -9 9 -9s9 4.0294 9 9 -4.0294 9 -9 9 -9 -4.0294 -9 -9Z" clip-rule="evenodd" stroke-width="1"></path></g></svg>