<svg xmlns="http://www.w3.org/2000/svg" fill="none" viewBox="0 0 48 48" id="Cog-2--Streamline-Plump"><desc>Cog 2 Streamline Icon: https://streamlinehq.com</desc><g id="cog-2"><path id="Union" fill="#000000" fill-rule="evenodd" d="M24 1.5c-0.938 0 -1.6595 0.20301 -2.1833 0.44398 -0.8842 0.40681 -1.18 1.33614 -1.1924 2.11946 -0.007 0.44469 -0.0156 1.02753 -0.0249 1.74852 -2.5795 0.47934 -4.9709 1.4938 -7.0544 2.92348 -0.5167 -0.5036 -0.9352 -0.90995 -1.2548 -1.2196 -0.5627 -0.54514 -1.429 -0.9931 -2.34185 -0.65553 -0.54073 0.19995 -1.19448 0.5666 -1.85773 1.22985 -0.66325 0.66325 -1.02991 1.31701 -1.22986 1.85774 -0.33756 0.9129 0.1104 1.7792 0.65553 2.3418 0.30964 0.3196 0.71595 0.7381 1.21952 1.2548 -1.42988 2.0836 -2.44447 4.4752 -2.92385 7.0549 -0.72099 0.0093 -1.30382 0.0179 -1.74852 0.0249 -0.78332 0.0124 -1.71265 0.3082 -2.11946 1.1924C1.70301 22.3405 1.5 23.062 1.5 24s0.20301 1.6595 0.44398 2.1833c0.40681 0.8842 1.33614 1.18 2.11946 1.1924 0.4447 0.007 1.02753 0.0156 1.74852 0.0249 0.47938 2.5797 1.49397 4.9713 2.92384 7.0549 -0.50383 0.517 -0.91034 0.9357 -1.22009 1.2553 -0.54514 0.5627 -0.9931 1.429 -0.65553 2.3419 0.19995 0.5407 0.5666 1.1945 1.22985 1.8577 0.66325 0.6633 1.31701 1.0299 1.85774 1.2299 0.91293 0.3375 1.77923 -0.1104 2.34183 -0.6556 0.3197 -0.3097 0.7384 -0.7163 1.2555 -1.2201 2.0834 1.4296 4.4748 2.4441 7.0543 2.9234 0.0093 0.721 0.0179 1.3039 0.0249 1.7486 0.0124 0.7833 0.3082 1.7126 1.1924 2.1194 0.5238 0.241 1.2453 0.444 2.1833 0.444s1.6595 -0.203 2.1833 -0.444c0.8842 -0.4068 1.18 -1.3361 1.1924 -2.1194 0.007 -0.4447 0.0155 -1.0276 0.0249 -1.7486 2.5797 -0.4793 4.9713 -1.4939 7.0549 -2.9238 0.517 0.5038 0.9357 0.9103 1.2553 1.2201 0.5627 0.5451 1.429 0.9931 2.3419 0.6555 0.5407 -0.1999 1.1945 -0.5666 1.8577 -1.2298 0.6633 -0.6633 1.0299 -1.317 1.2299 -1.8578 0.3375 -0.9129 -0.1104 -1.7792 -0.6556 -2.3418 -0.3097 -0.3197 -0.7163 -0.7384 -1.2201 -1.2555 1.4296 -2.0834 2.4441 -4.4748 2.9234 -7.0543 0.721 -0.0093 1.3039 -0.0179 1.7486 -0.0249 0.7833 -0.0124 1.7126 -0.3082 2.1194 -1.1924 0.241 -0.5238 0.444 -1.2453 0.444 -2.1833s-0.203 -1.6595 -0.444 -2.1833c-0.4068 -0.8842 -1.3361 -1.18 -2.1194 -1.1924 -0.4447 -0.007 -1.0276 -0.0155 -1.7486 -0.0249 -0.4793 -2.5795 -1.4938 -4.9709 -2.9234 -7.0544 0.5036 -0.5167 0.9099 -0.9352 1.2196 -1.2548 0.5451 -0.5627 0.9931 -1.429 0.6555 -2.34185 -0.2 -0.54073 -0.5666 -1.19448 -1.2299 -1.85773 -0.6632 -0.66325 -1.317 -1.02991 -1.8577 -1.22986 -0.9129 -0.33756 -1.7792 0.1104 -2.3418 0.65553 -0.3196 0.30964 -0.738 0.71595 -1.2548 1.21952 -2.0836 -1.42988 -4.4752 -2.44447 -7.0549 -2.92385 -0.0094 -0.72098 -0.0179 -1.30382 -0.0249 -1.74852 -0.0124 -0.78332 -0.3082 -1.71264 -1.1924 -2.11946C25.6595 1.70301 24.938 1.5 24 1.5Zm2.0197 19.0017c-2.4942 -4.2951 -4.2123 -7.1578 -5.0995 -8.6196 0.9847 -0.2494 2.0165 -0.3821 3.0798 -0.3821 5.7276 0 10.5564 3.8526 12.0345 9.1082 -1.7093 -0.0374 -5.0476 -0.094 -10.0148 -0.1065ZM11.5 24c0 -3.394 1.3521 -6.4715 3.5482 -8.7245 0.8228 1.5 2.4425 4.4184 4.9137 8.7236 -2.4718 4.3063 -4.0917 7.2251 -4.9143 8.7247C12.8519 30.471 11.5 27.3937 11.5 24Zm9.4193 12.1176c0.8869 -1.4613 2.6053 -4.3244 5.1004 -8.621 4.9677 -0.0125 8.3061 -0.0691 10.0153 -0.1065C34.5575 32.6465 29.7282 36.5 24 36.5c-1.0637 0 -2.0957 -0.1327 -3.0807 -0.3824Z" clip-rule="evenodd" stroke-width="1"></path></g></svg>