<svg xmlns="http://www.w3.org/2000/svg" fill="none" viewBox="0 0 48 48" id="Collaborations-Idea--Streamline-Plump"><desc>Collaborations Idea Streamline Icon: https://streamlinehq.com</desc><g id="Solid/Work Education/Working Collaborations/collaborations-idea--collaborations-idea-work"><path id="Union" fill="#000000" fill-rule="evenodd" d="M37.2475 1c0.8284 0 1.5 0.67157 1.5 1.5v2c0 0.82843 -0.6716 1.5 -1.5 1.5s-1.5 -0.67157 -1.5 -1.5v-2c0 -0.82843 0.6716 -1.5 1.5 -1.5Zm0 7c-4.9706 0 -9 4.0294 -9 9 0 3.058 1.5258 5.7582 3.852 7.3831 0.0501 0.3924 0.0996 0.78 0.1456 1.14 0.2209 1.7266 1.5123 3.3249 3.5265 3.4383 0.4217 0.0237 0.9113 0.0386 1.4759 0.0386s1.0541 -0.0149 1.4759 -0.0386c2.0141 -0.1134 3.3055 -1.7117 3.5264 -3.4383 0.0461 -0.36 0.0956 -0.7476 0.1456 -1.14 2.3263 -1.6249 3.8521 -4.3251 3.8521 -7.3831 0 -4.9706 -4.0295 -9 -9 -9Zm9.2387 -1.86768c0.6253 -0.54334 0.6918 -1.49076 0.1485 -2.11612 -0.5434 -0.62536 -1.4908 -0.69185 -2.1161 -0.14852l-1.5098 1.31173c-0.6254 0.54334 -0.6918 1.49076 -0.1485 2.11612 0.5433 0.62536 1.4907 0.69185 2.1161 0.14852l1.5098 -1.31173ZM27.9797 3.93934c-0.5858 0.58579 -0.5858 1.53553 0 2.12132l1.4142 1.41421c0.5858 0.58579 1.5356 0.58579 2.1214 0 0.5857 -0.58578 0.5857 -1.53553 0 -2.12132L30.101 3.93934c-0.5857 -0.58579 -1.5355 -0.58579 -2.1213 0ZM15.257 15C9.45798 15 4.75697 19.701 4.75697 25.5c0 3.2313 1.46003 6.1216 3.75469 8.0471 -3.70512 1.8166 -6.47401 5.089 -7.41037 9.0192 -0.239479 1.0051 -0.05751 1.9549 0.47563 2.687 0.5316 0.7299 1.38104 1.2009 2.39865 1.3146 2.03 0.2268 5.46982 0.4321 11.28143 0.4321 5.8115 0 9.2514 -0.2053 11.2814 -0.4321 1.0176 -0.1137 1.867 -0.5847 2.3986 -1.3146 0.5332 -0.7321 0.7151 -1.6819 0.4756 -2.687 -0.9363 -3.9302 -3.7052 -7.2026 -7.4103 -9.0192 2.2946 -1.9255 3.7547 -4.8158 3.7547 -8.0471 0 -5.799 -4.701 -10.5 -10.5 -10.5Z" clip-rule="evenodd" stroke-width="1"></path></g></svg>