<svg xmlns="http://www.w3.org/2000/svg" fill="none" viewBox="0 0 48 48" id="Contact-Phonebook--Streamline-Plump">
  <desc>
    Contact Phonebook Streamline Icon: https://streamlinehq.com
  </desc>
  <g id="Solid/Phone/Contact/contact-phonebook--phonebook-phone-number-books-book">
    <path id="Subtract" fill="#000000" fill-rule="evenodd" d="M46.0082 39.8551C46.2484 36.5877 46.5 31.3996 46.5 24c0 -7.3996 -0.2516 -12.5877 -0.4918 -15.85507 -0.2409 -3.27646 -2.7354 -5.85313 -6.0324 -6.13517C36.9912 1.75444 32.4092 1.5 26 1.5c-6.4091 0 -10.9912 0.25443 -13.9758 0.50975 -3.29701 0.28204 -5.79145 2.85871 -6.03236 6.13517 -0.03087 0.41981 -0.06193 0.87133 -0.09261 1.35517 -0.5222 0.00098 -0.99999 0.00954 -1.42534 0.02206 -1.56772 0.04612 -2.90677 1.08015 -2.96243 2.75495C1.50412 12.498 1.5 12.7385 1.5 13s0.00412 0.5019 0.01146 0.7229c0.05566 1.6747 1.3947 2.7088 2.96243 2.7549 0.34125 0.0101 0.71627 0.0176 1.12088 0.0207 -0.03294 1.2367 -0.05889 2.5703 -0.07524 4.0037 -0.37595 0.0034 -0.72564 0.0105 -1.04564 0.0199 -1.56772 0.0462 -2.90677 1.0802 -2.96243 2.755C1.50412 23.498 1.5 23.7385 1.5 24s0.00412 0.5019 0.01146 0.7229c0.05566 1.6747 1.3947 2.7088 2.96243 2.7549 0.32 0.0095 0.66969 0.0166 1.04563 0.02 0.01636 1.4334 0.04231 2.767 0.07525 4.0037 -0.40462 0.0031 -0.77963 0.0106 -1.12088 0.0206 -1.56772 0.0462 -2.90677 1.0802 -2.96243 2.755C1.50412 34.498 1.5 34.7385 1.5 35s0.00412 0.5019 0.01146 0.7229c0.05566 1.6747 1.3947 2.7088 2.96243 2.7549 0.42534 0.0125 0.90314 0.0211 1.42533 0.0221 0.03068 0.4838 0.06174 0.9353 0.0926 1.3552 0.24092 3.2764 2.73535 5.8531 6.03238 6.1351 2.9846 0.2553 7.5666 0.5098 13.9758 0.5098 6.4091 0 10.9912 -0.2544 13.9758 -0.5098 3.297 -0.282 5.7915 -2.8587 6.0324 -6.1351ZM32.0008 20c0 2.1338 -1.1139 4.0075 -2.792 5.0713 2.8422 1.0417 5.0176 3.4147 5.7294 6.3412 0.3117 1.2813 -0.4381 2.4986 -1.7132 2.8349 -1.4247 0.3759 -3.7315 0.7526 -7.2549 0.7526 -3.5233 0 -5.8302 -0.3767 -7.2549 -0.7526 -1.275 -0.3363 -2.0248 -1.5536 -1.7131 -2.8349 0.715 -2.9399 2.9071 -5.3212 5.7684 -6.3554 -1.6657 -1.0662 -2.7697 -2.9327 -2.7697 -5.0571 0 -3.3137 2.6863 -6 6 -6s6 2.6863 6 6Z" clip-rule="evenodd" stroke-width="1"></path>
  </g>
</svg>