<svg xmlns="http://www.w3.org/2000/svg" fill="none" viewBox="0 0 48 48" id="Copy-Paste--Streamline-Plump"><desc>Copy Paste Streamline Icon: https://streamlinehq.com</desc><g id="Solid/Interface Essential/Select Copy/copy-paste--clipboard-copy-cut-paste"><path id="Union" fill="#000000" fill-rule="evenodd" d="M17.2542 3.54614C18.6687 3.51691 20.2456 3.5 22.0011 3.5c1.7548 0 3.3311 0.0169 4.7451 0.04611 0.8402 0.01736 1.5002 0.75999 1.4017 1.63299l-0.2246 1.9892C27.8376 7.92679 27.196 8.5 26.4327 8.5h-8.8649c-0.7633 0 -1.4049 -0.57321 -1.4906 -1.33169l-0.2246 -1.98919c-0.0986 -0.87299 0.5614 -1.61561 1.4016 -1.63298ZM22.0011 0.5c-1.7747 0 -3.3723 0.017094 -4.8089 0.046783 -1.6012 0.033094 -2.9553 0.899377 -3.7091 2.152837 -1.6501 0.08235 -3.0393 0.18093 -4.16771 0.27725 -2.85113 0.24338 -5.07012 2.44296 -5.30948 5.30626C3.7621 11.1998 3.5 15.9699 3.5 23s0.2621 11.8002 0.50591 14.7169c0.23936 2.8633 2.45835 5.0628 5.30948 5.3062 0.77711 0.0664 1.67801 0.1338 2.70251 0.1962 -0.0693 -0.3402 -0.12 -0.6892 -0.151 -1.0461C11.6686 39.8915 11.5 36.4897 11.5 31.5c0 -4.9897 0.1686 -8.3915 0.3669 -10.6732 0.3889 -4.4749 3.8765 -7.6998 8.1772 -8.0246 2.1409 -0.1617 5.2192 -0.3022 9.456 -0.3022 4.2367 0 7.3149 0.1405 9.4558 0.3022 0.4553 0.0344 0.9014 0.1013 1.3358 0.1987 -0.0884 -1.9236 -0.1946 -3.48596 -0.2976 -4.71777 -0.2394 -2.8633 -2.4584 -5.06288 -5.3095 -5.30626 -1.1283 -0.09631 -2.5173 -0.19488 -4.1672 -0.27722 -0.7538 -1.25351 -2.1079 -2.119822 -3.7092 -2.152902C25.3721 0.517081 23.775 0.5 22.0011 0.5Zm22.1433 20.5865c0.189 2.1754 0.3556 5.4879 0.3556 10.4135 0 4.9256 -0.1666 8.2381 -0.3556 10.4135 -0.2564 2.9503 -2.5186 5.0741 -5.4145 5.2928 -2.0564 0.1553 -5.0586 0.2937 -9.2298 0.2937 -4.1713 0 -7.1735 -0.1384 -9.23 -0.2937 -2.8959 -0.2187 -5.1581 -2.3425 -5.4145 -5.2928 -0.189 -2.1754 -0.3556 -5.4879 -0.3556 -10.4135 0 -4.9256 0.1666 -8.2381 0.3556 -10.4134 0.2564 -2.9504 2.5186 -5.0742 5.4145 -5.2929 2.0565 -0.1553 5.0587 -0.2937 9.23 -0.2937 4.1712 0 7.1734 0.1384 9.2298 0.2937 2.8959 0.2187 5.1581 2.3425 5.4145 5.2928ZM23 23.5c-0.8284 0 -1.5 0.6716 -1.5 1.5s0.6716 1.5 1.5 1.5h13c0.8284 0 1.5 -0.6716 1.5 -1.5s-0.6716 -1.5 -1.5 -1.5H23ZM21.5 32c0 -0.8284 0.6716 -1.5 1.5 -1.5h13c0.8284 0 1.5 0.6716 1.5 1.5s-0.6716 1.5 -1.5 1.5H23c-0.8284 0 -1.5 -0.6716 -1.5 -1.5Z" clip-rule="evenodd" stroke-width="1"></path></g></svg>