<svg xmlns="http://www.w3.org/2000/svg" fill="none" viewBox="0 0 48 48" id="Copy-Document--Streamline-Plump"><desc>Copy Document Streamline Icon: https://streamlinehq.com</desc><g id="copy-document"><path id="Union" fill="#000000" fill-rule="evenodd" d="M0.5 20c0 -5.97 0.179676 -10.21855 0.366603 -13.02332C1.08581 3.68756 3.59094 1.10694 6.89695 0.844883 9.19663 0.662593 12.3977 0.5 16.5 0.5s7.3034 0.162593 9.603 0.344883c2.7955 0.221587 5.0183 2.100857 5.7707 4.664467C31.2687 5.50325 30.6442 5.5 30 5.5c-4.862 0 -8.6084 0.18496 -11.2388 0.38508 -4.7633 0.3624 -8.4958 4.06958 -8.8481 8.85982C9.70061 17.6337 9.5 21.9599 9.5 28c0 4.8283 0.12819 8.5614 0.28816 11.3405 -1.08477 -0.0544 -2.04851 -0.1186 -2.89121 -0.1854 -3.30601 -0.262 -5.81114 -2.8427 -6.030346 -6.1318C0.679676 30.2186 0.5 25.97 0.5 20ZM32.5235 8.52322c-0.1015 -0.00539 -0.2022 -0.00859 -0.3021 -0.00981C31.5097 8.5047 30.7693 8.5 30 8.5c-4.7859 0 -8.4563 0.18206 -11.0112 0.37644 -3.2919 0.25045 -5.841 2.78756 -6.0838 6.08846C12.6984 17.7734 12.5 22.0258 12.5 28s0.1984 10.2266 0.405 13.0351c0.2428 3.3009 2.7919 5.838 6.0838 6.0885 2.5549 0.1943 6.2253 0.3764 11.0112 0.3764 4.7859 0 8.4563 -0.1821 11.0112 -0.3764 3.2919 -0.2505 5.841 -2.7876 6.0838 -6.0885 0.2066 -2.8085 0.405 -7.0609 0.405 -13.0351 0 -1.5443 -0.0133 -2.9735 -0.0365 -4.2924 -0.0013 -0.0767 -0.0038 -0.1539 -0.0076 -0.2315 -2.5254 -0.043 -5.2954 -0.138 -7.6232 -0.2316 -3.8485 -0.1548 -6.9224 -3.2287 -7.0772 -7.0772 -0.0939 -2.3342 -0.1891 -5.1131 -0.232 -7.64408ZM46.6021 20.4593c-0.7891 -1.6967 -2.2117 -4.1901 -4.5414 -6.5199 -2.3294 -2.3293 -4.8225 -3.7523 -6.5199 -4.54194 0.0475 2.23374 0.13 4.60384 0.2123 6.64934 0.0919 2.2863 1.9139 4.1083 4.2002 4.2002 2.0454 0.0823 4.4152 0.1648 6.6488 0.2123Z" clip-rule="evenodd" stroke-width="1"></path></g></svg>