<svg xmlns="http://www.w3.org/2000/svg" fill="none" viewBox="0 0 48 48" id="Crown--Streamline-Plump"><desc>Crown Streamline Icon: https://streamlinehq.com</desc><g id="Solid/Interface Essential/Trophy Award/crown--reward-social-rating-media-queen-vip-king-crown"><path id="Subtract" fill="#000000" fill-rule="evenodd" d="M20.6546 5.2063c1.5999 -2.3646 5.0908 -2.3646 6.6908 0 1.7589 2.5997 4.2522 6.2459 6.087 8.7741 2.8499 -1.6712 6.0146 -3.3492 8.3653 -4.5604 2.6569 -1.369 5.8077 0.5792 5.7205 3.5907 -0.2996 10.352 -1.6456 20.1275 -2.4188 25.0244 -0.4068 2.5759 -2.2278 4.7888 -4.955 5.312 -3.0067 0.5768 -8.1508 1.2201 -16.1444 1.2201 -7.9936 0 -13.1376 -0.6433 -16.1443 -1.2201 -2.7272 -0.5232 -4.5483 -2.7361 -4.9551 -5.312C2.1274 33.1382 0.7814 23.3627 0.4818 13.0107 0.3946 9.9992 3.5454 8.051 6.2023 9.42c2.3507 1.2112 5.5153 2.8892 8.3653 4.5604 1.8347 -2.5282 4.328 -6.1744 6.087 -8.7741Zm2.3732 14.6466c0.286 -0.1939 0.627 -0.3695 0.9721 -0.3695 0.3453 0 0.6862 0.1756 0.9723 0.3695 0.3039 0.206 0.6288 0.4907 0.958 0.8199 0.6601 0.6601 1.3828 1.5451 2.0505 2.4669 0.6685 0.9232 1.2922 1.898 1.7512 2.7436 0.2293 0.4224 0.4217 0.8202 0.5583 1.1683 0.1306 0.3333 0.2314 0.6731 0.2314 0.9602 0 0.2869 -0.1008 0.6269 -0.2314 0.9601 -0.1366 0.348 -0.329 0.7459 -0.5583 1.1683 -0.459 0.8457 -1.0827 1.8203 -1.7512 2.7435 -0.6676 0.922 -1.3904 1.8069 -2.0505 2.467 -0.3292 0.3292 -0.6541 0.6139 -0.958 0.8199 -0.2861 0.1939 -0.627 0.3696 -0.9723 0.3696 -0.3451 0 -0.6861 -0.1757 -0.9721 -0.3696 -0.3039 -0.206 -0.6289 -0.4907 -0.9581 -0.8199 -0.6601 -0.6601 -1.3828 -1.545 -2.0504 -2.467 -0.6686 -0.9232 -1.2922 -1.8978 -1.7513 -2.7435 -0.2292 -0.4224 -0.4217 -0.8203 -0.5582 -1.1683 -0.1307 -0.3332 -0.2316 -0.6732 -0.2316 -0.9601 0 -0.2871 0.1009 -0.6269 0.2316 -0.9602 0.1365 -0.3481 0.329 -0.7459 0.5582 -1.1683 0.4591 -0.8456 1.0827 -1.8204 1.7513 -2.7436 0.6676 -0.9218 1.3903 -1.8068 2.0504 -2.4669 0.3292 -0.3292 0.6542 -0.6139 0.9581 -0.8199Z" clip-rule="evenodd" stroke-width="1"></path></g></svg>