<svg xmlns="http://www.w3.org/2000/svg" fill="none" viewBox="0 0 48 48" id="Crown-Square--Streamline-Plump"><desc>Crown Square Streamline Icon: https://streamlinehq.com</desc><g id="Solid/Interface Essential/Trophy Award/crown-square--reward-social-rating-media-queen-vip-king-crown-square"><path id="Union" fill="#000000" fill-rule="evenodd" d="M1.5 24c0 -7.4014 0.27808 -12.5927 0.5439 -15.86431 0.26713 -3.28785 2.80396 -5.82467 6.09181 -6.0918C11.4073 1.77807 16.5986 1.5 24 1.5c7.4015 0 12.5927 0.27808 15.8643 0.5439 3.2879 0.26713 5.8247 2.80396 6.0918 6.09181C46.2219 11.4073 46.5 16.5986 46.5 24c0 7.4014 -0.2781 12.5927 -0.5439 15.8643 -0.2671 3.2878 -2.804 5.8247 -6.0918 6.0918 -3.2716 0.2658 -8.4629 0.5439 -15.8643 0.5439 -7.4014 0 -12.5927 -0.2781 -15.86431 -0.5439 -3.28785 -0.2671 -5.82467 -2.804 -6.0918 -6.0918C1.77807 36.5927 1.5 31.4014 1.5 24Zm24.6029 -11.7195c-0.997 -1.5003 -3.2089 -1.5003 -4.2059 0 -1.1646 1.7525 -2.6853 4.0124 -3.757 5.5013 -1.6556 -1.0061 -3.529 -2.0353 -5.0343 -2.836 -1.648 -0.8766 -3.61259 0.3309 -3.54774 2.2055 0.19787 5.7194 0.86074 11.102 1.33804 14.3794 0.3213 2.2061 1.858 4.0419 4.1304 4.3924 1.9505 0.301 4.8598 0.5766 8.9736 0.5766 4.1137 0 7.023 -0.2756 8.9736 -0.5766 2.2724 -0.3505 3.809 -2.1863 4.1303 -4.3924 0.4774 -3.2774 1.1402 -8.66 1.3381 -14.3794 0.0648 -1.8746 -1.8997 -3.0821 -3.5478 -2.2055 -1.5053 0.8007 -3.3787 1.8299 -5.0342 2.836 -1.0717 -1.4889 -2.5925 -3.7488 -3.7571 -5.5013Zm-2.83 8.4739c0.198 -0.1258 0.455 -0.2544 0.7271 -0.2544 0.2721 0 0.5291 0.1286 0.7271 0.2544 0.214 0.1359 0.4386 0.321 0.6617 0.5302 0.4479 0.4199 0.9346 0.9791 1.3819 1.5582 0.4481 0.5802 0.8675 1.1943 1.1776 1.7299 0.1548 0.2673 0.287 0.523 0.3821 0.7504 0.0884 0.2113 0.1696 0.4547 0.1696 0.6769 0 0.2222 -0.0812 0.4656 -0.1696 0.6769 -0.0951 0.2274 -0.2273 0.4831 -0.3821 0.7504 -0.3101 0.5356 -0.7295 1.1497 -1.1776 1.7299 -0.4473 0.5791 -0.934 1.1383 -1.3819 1.5582 -0.2231 0.2092 -0.4477 0.3943 -0.6617 0.5302 -0.198 0.1258 -0.455 0.2544 -0.7271 0.2544 -0.2721 0 -0.5291 -0.1286 -0.7271 -0.2544 -0.214 -0.1359 -0.4386 -0.321 -0.6617 -0.5302 -0.4479 -0.4199 -0.9346 -0.9791 -1.3819 -1.5582 -0.4481 -0.5802 -0.8675 -1.1943 -1.1776 -1.7299 -0.1548 -0.2673 -0.287 -0.523 -0.3821 -0.7504 -0.0884 -0.2113 -0.1696 -0.4547 -0.1696 -0.6769 0 -0.2222 0.0812 -0.4656 0.1696 -0.6769 0.0951 -0.2274 0.2273 -0.4831 0.3821 -0.7504 0.3101 -0.5356 0.7295 -1.1497 1.1776 -1.7299 0.4473 -0.5791 0.934 -1.1383 1.3819 -1.5582 0.2231 -0.2092 0.4477 -0.3943 0.6617 -0.5302Z" clip-rule="evenodd" stroke-width="1"></path></g></svg>