<svg xmlns="http://www.w3.org/2000/svg" fill="none" viewBox="0 0 48 48" id="Dark-Dislay-Mode--Streamline-Plump"><desc>Dark Dislay Mode Streamline Icon: https://streamlinehq.com</desc><g id="Solid/Interface Essential/Lighting/dark-dislay-mode"><path id="Subtract" fill="#000000" fill-rule="evenodd" d="M47.5 24C47.5 11.0213 36.9787 0.5 24 0.5S0.5 11.0213 0.5 24 11.0213 47.5 24 47.5 47.5 36.9787 47.5 24Zm-38 0c0 -8.0218 6.6916 -14.5 14.9152 -14.5 3.6444 0 6.9862 1.2714 9.5784 3.3846 0.3116 0.254 0.4786 0.5887 0.5032 0.9467 0.0237 0.3451 -0.0864 0.6749 -0.2575 0.948 -0.3356 0.5358 -0.9809 0.9707 -1.7156 0.9707 -4.7135 0 -8.5095 3.7073 -8.5095 8.25s3.796 8.25 8.5095 8.25c0.7347 0 1.38 0.4349 1.7156 0.9707 0.1711 0.2731 0.2812 0.6029 0.2575 0.948 -0.0246 0.358 -0.1916 0.6927 -0.5032 0.9467 -2.5922 2.1132 -5.934 3.3846 -9.5784 3.3846C16.1916 38.5 9.5 32.0218 9.5 24Z" clip-rule="evenodd" stroke-width="1"></path></g></svg>