<svg xmlns="http://www.w3.org/2000/svg" fill="none" viewBox="0 0 48 48" id="Dashboard-2--Streamline-Plump"><desc>Dashboard 2 Streamline Icon: https://streamlinehq.com</desc><g id="dashboard-2--corners-dashboard-frame-layout-circle-square-center"><path id="Union" fill="#000000" fill-rule="evenodd" d="M16.4989 3.92401c-0.042 -1.38007 -1.1948 -2.46481 -2.5749 -2.42283l-6.3561 0.19335c-0.02385 0.00072 -0.04769 0.00179 -0.07151 0.0032 -3.13191 0.18513 -5.61295 2.66567 -5.79837 5.79775 -0.00141 0.02386 -0.00248 0.04774 -0.00321 0.07163l-0.19363 6.35679c-0.04203 1.3801 1.04266 2.5329 2.42273 2.575 1.38007 0.042 2.53292 -1.0427 2.57495 -2.4228l0.19225 -6.31133c0.04667 -0.58142 0.49256 -1.02732 1.07417 -1.07394l6.31072 -0.19196c1.3801 -0.04198 2.4648 -1.19479 2.4229 -2.57486Zm15.0023 0c0.042 -1.38007 1.1948 -2.46481 2.5748 -2.42283l6.3561 0.19335c0.0239 0.00072 0.0477 0.00179 0.0716 0.0032 3.1319 0.18513 5.6129 2.66567 5.7983 5.79775 0.0014 0.02386 0.0025 0.04774 0.0032 0.07163l0.1937 6.35679c0.042 1.3801 -1.0427 2.5329 -2.4228 2.575 -1.38 0.042 -2.5329 -1.0427 -2.5749 -2.4228l-0.1923 -6.31133c-0.0466 -0.58142 -0.4925 -1.02732 -1.0741 -1.07394l-6.3108 -0.19196c-1.3801 -0.04198 -2.4648 -1.19479 -2.4228 -2.57486ZM6.49886 33.9239c-0.04203 -1.3801 -1.19488 -2.4648 -2.57495 -2.4227 -1.38007 0.042 -2.46477 1.1949 -2.42273 2.5749l0.19363 6.3568c0.00073 0.0239 0.0018 0.0478 0.00321 0.0717 0.18542 3.132 2.66647 5.6126 5.79837 5.7977 0.02382 0.0014 0.04766 0.0025 0.07151 0.0032l6.3561 0.1934c1.3801 0.0419 2.5329 -1.0428 2.5749 -2.4229 0.0419 -1.38 -1.0428 -2.5328 -2.4229 -2.5748l-6.31072 -0.192c-0.5816 -0.0466 -1.0275 -0.4925 -1.07417 -1.0739l-0.19225 -6.3114Zm37.57724 -2.4227c-1.38 -0.0421 -2.5329 1.0426 -2.5749 2.4227l-0.1923 6.3114c-0.0466 0.5814 -0.4925 1.0273 -1.0741 1.0739l-6.3108 0.192c-1.3801 0.042 -2.4648 1.1948 -2.4228 2.5748 0.042 1.3801 1.1948 2.4648 2.5748 2.4229l6.3561 -0.1934c0.0239 -0.0007 0.0477 -0.0018 0.0716 -0.0032 3.1319 -0.1851 5.6129 -2.6657 5.7983 -5.7977 0.0014 -0.0239 0.0025 -0.0478 0.0032 -0.0717l0.1937 -6.3568c0.042 -1.38 -1.0427 -2.5329 -2.4228 -2.5749ZM10.5 24c0 -7.4558 6.0442 -13.5 13.5 -13.5S37.5 16.5442 37.5 24 31.4558 37.5 24 37.5 10.5 31.4558 10.5 24Z" clip-rule="evenodd" stroke-width="1"></path></g></svg>