<svg xmlns="http://www.w3.org/2000/svg" fill="none" viewBox="0 0 48 48" id="Database--Streamline-Plump"><desc>Database Streamline Icon: https://streamlinehq.com</desc><g id="database--raid-storage-code-disk-programming-database-array-hard-disc"><path id="Subtract" fill="#000000" fill-rule="evenodd" d="M37.6767 0.965386c1.7859 0.772294 3.3263 1.730514 4.4416 2.870834 1.122 1.14712 1.8814 2.5558 1.8814 4.16281 0 1.60703 -0.7595 3.01567 -1.8815 4.16287 -1.1153 1.1403 -2.6557 2.0985 -4.4416 2.8708 -3.5768 1.5467 -8.4133 2.4664 -13.6768 2.4664 -5.2634 0 -10.0999 -0.9197 -13.6767 -2.4664 -1.78595 -0.7723 -3.32634 -1.7305 -4.44168 -2.8708 -1.12198 -1.1472 -1.88147 -2.55584 -1.88147 -4.16287l0.00021 -0.04556 -0.00286 0.04681c-0.00372 0.06158 -0.00916 0.15249 -0.01607 0.27079 -0.0138 0.23657 -0.03348 0.5827 -0.05706 1.02273 -0.04716 0.88 -0.10999 2.136 -0.1728 3.6428 -0.10697 2.566 -0.21417 5.8658 -0.24356 9.2778 0.12812 1.7633 1.82876 3.7957 5.5565 5.4901C12.8094 29.4069 18.0885 30.499 24 30.499c5.9114 0 11.1905 -1.0921 14.9356 -2.7944 3.7278 -1.6945 5.4284 -3.7269 5.5565 -5.4902 -0.0294 -3.412 -0.1365 -6.7118 -0.2435 -9.2778 -0.0627 -1.5068 -0.1255 -2.7628 -0.1727 -3.64277 -0.0235 -0.44003 -0.0432 -0.78615 -0.057 -1.02273 -0.0069 -0.11829 -0.0123 -0.20921 -0.0161 -0.27079l-0.0031 -0.05126c-0.0156 -1.58624 -0.7709 -2.97761 -1.8812 -4.1128 -1.1154 -1.14032 -2.6557 -2.09855 -4.4417 -2.870845l-0.0001 -0.000019ZM40.177 30.4357c1.6078 -0.7309 3.0852 -1.6191 4.2854 -2.6541 -0.0468 2.3289 -0.1307 4.287 -0.2148 5.8007 -0.0631 1.1372 -0.1264 2.0239 -0.1742 2.6286 -0.0238 0.3023 -0.0438 0.5343 -0.058 0.6918l-0.0074 0.0822 -0.0086 0.0926c-0.0243 1.5745 -0.7772 2.956 -1.8809 4.0844 -1.1154 1.1403 -2.6558 2.0985 -4.4417 2.8708C34.1 45.5795 29.2634 46.4991 24 46.4991c-5.2635 0 -10.1001 -0.9196 -13.6769 -2.4664 -1.78592 -0.7723 -3.32632 -1.7305 -4.44166 -2.8708 -1.1037 -1.1284 -1.85663 -2.5099 -1.88088 -4.0844 -0.00388 -0.0409 -0.00931 -0.0993 -0.01609 -0.1748 -0.01414 -0.1575 -0.03412 -0.3895 -0.05799 -0.6918 -0.04774 -0.6047 -0.11104 -1.4914 -0.17422 -2.6286 -0.08409 -1.5137 -0.16801 -3.4718 -0.21473 -5.8007 1.20021 1.035 2.67756 1.9232 4.28537 2.654C12.0402 32.3526 17.7611 33.499 24 33.499c6.2388 0 11.9597 -1.1464 16.177 -3.0633ZM6.99995 7.99903c0 -0.60211 0.27585 -1.298 1.02618 -2.06511 0.75697 -0.77391 1.92585 -1.53955 3.48777 -2.21497 3.1189 -1.3487 7.5324 -2.21992 12.4862 -2.21992 4.9537 0 9.3671 0.87122 12.4859 2.21992 1.5618 0.67542 2.7307 1.44105 3.4876 2.21495 0.7503 0.7671 1.0261 1.463 1.0261 2.06513 0 0.60213 -0.2758 1.29803 -1.0261 2.06517 -0.757 0.7739 -1.9258 1.5395 -3.4877 2.2149 -3.1189 1.3487 -7.5323 2.22 -12.4861 2.22 -4.9537 0 -9.3671 -0.8713 -12.486 -2.22 -1.56189 -0.6754 -2.73074 -1.441 -3.48769 -2.2149 -0.75031 -0.76715 -1.02616 -1.46305 -1.02616 -2.06517ZM10.5 23.999c1.1045 0 2 -0.8954 2 -2 0 -1.1045 -0.8955 -2 -2 -2 -1.10462 0 -2.00005 0.8955 -2.00005 2 0 1.1046 0.89543 2 2.00005 2Zm2 13.5c0 1.1046 -0.8955 2 -2 2 -1.10462 0 -2.00005 -0.8954 -2.00005 -2 0 -1.1045 0.89543 -2 2.00005 -2 1.1045 0 2 0.8955 2 2Zm4.5 -11.75c1.1045 0 2 -0.8954 2 -2 0 -1.1045 -0.8955 -2 -2 -2 -1.1046 0 -2 0.8955 -2 2 0 1.1046 0.8954 2 2 2Zm2 13.5c0 1.1046 -0.8955 2 -2 2 -1.1046 0 -2 -0.8954 -2 -2 0 -1.1045 0.8954 -2 2 -2 1.1045 0 2 0.8955 2 2Z" clip-rule="evenodd" stroke-width="1"></path></g></svg>