<svg xmlns="http://www.w3.org/2000/svg" fill="none" viewBox="0 0 48 48" id="Delete-Tag--Streamline-Plump"><desc>Delete Tag Streamline Icon: https://streamlinehq.com</desc><g id="Solid/Interface Essential/Add Remove Delete/delete-tag--delete-tag-remove-cross-x-button-mathematics-math"><path id="Subtract" fill="#000000" fill-rule="evenodd" d="M6.44237 6.0425C9.14293 5.7764 13.334 5.5 19.0925 5.5c6.9082 0 11.489 0.39778 13.9666 0.69884 1.6833 0.20454 3.3059 0.88358 4.5973 2.09169 2.1354 1.99767 5.7946 6.03187 8.6163 12.32597 0.943 2.1034 0.9472 4.5123 0.0161 6.6191 -2.8234 6.3887 -6.4918 10.4593 -8.6321 12.4696 -1.2905 1.2122 -2.9144 1.8914 -4.5976 2.096 -2.4776 0.301 -7.0584 0.6988 -13.9666 0.6988 -5.5568 0 -9.65408 -0.2574 -12.36091 -0.5145 -3.06672 -0.2914 -5.45171 -2.6161 -5.74108 -5.7138C0.741001 33.6008 0.499977 29.4698 0.5 23.4751c0.000022 -5.7852 0.224485 -9.6065 0.465878 -12.0453C1.25962 8.46212 3.55243 6.32727 6.44237 6.0425ZM11.6876 26.768c-0.7817 0.8446 -0.9544 2.0375 -0.2179 2.9217 0.2378 0.2855 0.5281 0.6065 0.8811 0.9595s0.674 0.6433 0.9595 0.8811c0.8842 0.7365 2.0771 0.5638 2.9217 -0.2179 0.6443 -0.5964 1.5457 -1.4499 2.768 -2.644 1.2223 1.1941 2.1237 2.0476 2.768 2.644 0.8446 0.7817 2.0375 0.9544 2.9217 0.2179 0.2855 -0.2378 0.6065 -0.5281 0.9595 -0.8811s0.6433 -0.674 0.8811 -0.9595c0.7365 -0.8842 0.5638 -2.0771 -0.2179 -2.9217 -0.5964 -0.6443 -1.4499 -1.5457 -2.644 -2.768 1.1941 -1.2223 2.0476 -2.1237 2.644 -2.768 0.7817 -0.8446 0.9544 -2.0375 0.2179 -2.9217 -0.2378 -0.2855 -0.5281 -0.6065 -0.8811 -0.9595s-0.674 -0.6433 -0.9595 -0.8811c-0.8842 -0.7365 -2.0771 -0.5638 -2.9217 0.2179 -0.6443 0.5964 -1.5457 1.4499 -2.768 2.644 -1.2223 -1.1941 -2.1237 -2.0476 -2.768 -2.644 -0.8446 -0.7817 -2.0375 -0.9544 -2.9217 -0.2179 -0.2855 0.2378 -0.6065 0.5281 -0.9595 0.8811s-0.6433 0.674 -0.8811 0.9595c-0.7365 0.8842 -0.5638 2.0771 0.2179 2.9217 0.5964 0.6443 1.4499 1.5457 2.644 2.768 -1.1941 1.2223 -2.0476 2.1237 -2.644 2.768Z" clip-rule="evenodd" stroke-width="1"></path></g></svg>