<svg xmlns="http://www.w3.org/2000/svg" fill="none" viewBox="0 0 48 48" id="Delete-2--Streamline-Plump"><desc>Delete 2 Streamline Icon: https://streamlinehq.com</desc><g id="Solid/Interface Essential/Add Remove Delete/delete-2--remove-bold-add-button-buttons-delete-cross-x-mathematics-multiply-math"><path id="Union" fill="#000000" d="M13.0464 3.19952c-1.2171 -1.06987 -3.05809 -1.70825 -4.74487 -0.69186 -0.86358 0.52036 -1.93565 1.33065 -3.19773 2.59274 -1.26209 1.26208 -2.07238 2.33415 -2.59274 3.19773 -1.01639 1.68678 -0.37801 3.52777 0.69186 4.74487 1.55722 1.7714 4.63993 5.1439 10.33588 10.9534 -5.69812 5.8116 -8.78174 9.1851 -10.33928 10.9569 -1.06987 1.2171 -1.70825 3.0581 -0.69186 4.7449 0.52036 0.8636 1.33065 1.9356 2.59274 3.1977 1.26208 1.2621 2.33415 2.0724 3.19773 2.5927 1.68677 1.0164 3.52777 0.3781 4.74487 -0.6918 1.7718 -1.5575 5.1453 -4.6412 10.9569 -10.3392 5.8115 5.698 9.185 8.7817 10.9568 10.3392 1.2171 1.0699 3.0581 1.7082 4.7449 0.6918 0.8635 -0.5203 1.9356 -1.3306 3.1977 -2.5927 1.2621 -1.2621 2.0724 -2.3341 2.5927 -3.1977 1.0164 -1.6868 0.378 -3.5278 -0.6918 -4.7449 -1.5576 -1.7718 -4.6412 -5.1453 -10.3393 -10.9569 5.6959 -5.8095 8.7787 -9.182 10.3359 -10.9534 1.0698 -1.2171 1.7082 -3.05809 0.6918 -4.74487 -0.5203 -0.86358 -1.3306 -1.93565 -2.5927 -3.19773 -1.2621 -1.26209 -2.3342 -2.07238 -3.1977 -2.59274 -1.6868 -1.01639 -3.5278 -0.37801 -4.7449 0.69186 -1.7714 1.55723 -5.1439 4.63994 -10.9535 10.33588 -5.8095 -5.69594 -9.182 -8.77865 -10.9534 -10.33588Z" stroke-width="1"></path></g></svg>