<svg xmlns="http://www.w3.org/2000/svg" fill="none" viewBox="0 0 48 48" id="Delete-Bookmark--Streamline-Plump"><desc>Delete Bookmark Streamline Icon: https://streamlinehq.com</desc><g id="Solid/Interface Essential/Bookmark Favorite/delete-bookmark--bookmarks-double-tags-favorite-cross-delete"><path id="Subtract" fill="#000000" fill-rule="evenodd" d="M10.9754 1.0905C14.0081 0.808072 18.5622 0.5 24 0.5c5.4378 0 9.9919 0.308072 13.0246 0.5905 2.6671 0.24838 4.7404 2.23565 4.9603 4.92931 0.2558 3.13376 0.5151 8.41169 0.5151 16.93469v20.3862c0 2.2997 -1.8643 4.1593 -4.1627 4.1593 -0.9816 0 -1.9315 -0.3468 -2.6821 -0.9792l-9.4001 -7.9195c-1.303 -1.0978 -3.2072 -1.0978 -4.5102 0l-9.4001 7.9195c-0.7506 0.6324 -1.7005 0.9792 -2.68205 0.9792C7.36435 47.5 5.5 45.6404 5.5 43.3407V22.9545c0 -8.523 0.25931 -13.80093 0.51511 -16.93469 0.21988 -2.69366 2.2932 -4.68093 4.96029 -4.92931Zm4.6485 20.6791c-0.7023 0.7639 -0.8623 1.8397 -0.2182 2.6533 0.2796 0.3532 0.6416 0.7665 1.1077 1.2326 0.466 0.466 0.8793 0.8281 1.2325 1.1077 0.8137 0.6441 1.8894 0.4841 2.6533 -0.2183 0.698 -0.6417 1.7282 -1.6127 3.1857 -3.0372 1.4577 1.4248 2.4881 2.3959 3.1861 3.0378 0.7639 0.7023 1.8397 0.8623 2.6533 0.2182 0.3532 -0.2796 0.7666 -0.6416 1.2326 -1.1077 0.4661 -0.466 0.8281 -0.8794 1.1077 -1.2326 0.6441 -0.8136 0.4841 -1.8894 -0.2183 -2.6532 -0.6418 -0.6981 -1.6129 -1.7285 -3.0378 -3.1862 1.4241 -1.457 2.3948 -2.4869 3.0364 -3.1848 0.7024 -0.7639 0.8624 -1.8396 0.2183 -2.6533 -0.2796 -0.3532 -0.6417 -0.7665 -1.1077 -1.2325 -0.4661 -0.4661 -0.8794 -0.8281 -1.2326 -1.1077 -0.8136 -0.64413 -1.8894 -0.48414 -2.6533 0.2182 -0.6978 0.6416 -1.7277 1.6124 -3.1847 3.0364 -1.4568 -1.4237 -2.4865 -2.3943 -3.1842 -3.0358 -0.7639 -0.70241 -1.8397 -0.86239 -2.6533 -0.2183 -0.3532 0.2796 -0.7666 0.6416 -1.2326 1.1077 -0.4661 0.466 -0.8281 0.8794 -1.1077 1.2326 -0.6441 0.8136 -0.4841 1.8894 0.2182 2.6533 0.6416 0.6977 1.6121 1.7274 3.0359 3.1842 -1.4245 1.4575 -2.3955 2.4876 -3.0373 3.1856Z" clip-rule="evenodd" stroke-width="1"></path></g></svg>