<svg xmlns="http://www.w3.org/2000/svg" fill="none" viewBox="0 0 48 48" id="Delete-Square--Streamline-Plump"><desc>Delete Square Streamline Icon: https://streamlinehq.com</desc><g id="Solid/Interface Essential/Add Remove Delete/delete-square--button-remove-buttons-add-square-delete-cross-x-mathematics-multiply-math"><path id="Subtract" fill="#000000" fill-rule="evenodd" d="M8.13571 2.04389C11.4073 1.77808 16.5986 1.5 24 1.5c7.4014 0 12.5927 0.27808 15.8643 0.54389 3.2878 0.26714 5.8247 2.80397 6.0918 6.09182C46.2219 11.4073 46.5 16.5986 46.5 24c0 7.4014 -0.2781 12.5927 -0.5439 15.8643 -0.2671 3.2879 -2.804 5.8247 -6.0918 6.0918 -3.2716 0.2658 -8.4629 0.5439 -15.8643 0.5439 -7.4014 0 -12.5927 -0.2781 -15.8643 -0.5439 -3.28785 -0.2671 -5.82468 -2.8039 -6.09181 -6.0918C1.77808 36.5927 1.5 31.4014 1.5 24c0 -7.4014 0.27808 -12.5927 0.5439 -15.86431 0.26713 -3.28785 2.80396 -5.82467 6.09181 -6.0918ZM13.3559 31.509c-0.5808 -0.8088 -0.3923 -1.8364 0.2811 -2.5698 0.8629 -0.9397 2.3391 -2.5067 4.7298 -4.9387 -2.391 -2.4324 -3.8674 -3.9995 -4.7304 -4.9393 -0.6734 -0.7334 -0.8619 -1.7611 -0.2811 -2.5698 0.3331 -0.4638 0.801 -1.0316 1.453 -1.6836 0.652 -0.652 1.2198 -1.1199 1.6836 -1.453 0.8087 -0.5807 1.8364 -0.3923 2.5697 0.2811 0.9399 0.863 2.507 2.3394 4.9394 4.7304 2.4324 -2.391 3.9995 -3.8674 4.9393 -4.7304 0.7334 -0.6734 1.761 -0.8619 2.5697 -0.2811 0.4639 0.3331 1.0316 0.801 1.6837 1.453 0.652 0.652 1.1198 1.2198 1.4529 1.6836 0.5808 0.8087 0.3924 1.8364 -0.2811 2.5698 -0.863 0.9398 -2.3394 2.5069 -4.7304 4.9393 2.3907 2.4321 3.8669 3.999 4.7298 4.9387 0.6735 0.7334 0.8619 1.761 0.2811 2.5698 -0.3331 0.4638 -0.8009 1.0316 -1.4529 1.6836 -0.6521 0.652 -1.2198 1.1198 -1.6837 1.4529 -0.8087 0.5808 -1.8363 0.3924 -2.5697 -0.2811 -0.9397 -0.8629 -2.5067 -2.3391 -4.9387 -4.7297 -2.4321 2.3906 -3.999 3.8668 -4.9388 4.7297 -0.7333 0.6735 -1.761 0.8619 -2.5697 0.2811 -0.4638 -0.3331 -1.0316 -0.8009 -1.6836 -1.4529 -0.652 -0.652 -1.1199 -1.2198 -1.453 -1.6836Z" clip-rule="evenodd" stroke-width="1"></path></g></svg>