<svg xmlns="http://www.w3.org/2000/svg" fill="none" viewBox="0 0 48 48" id="Diamond-1--Streamline-Plump"><desc>Diamond 1 Streamline Icon: https://streamlinehq.com</desc><g id="Solid/Money Shopping/Jewelry/diamond-1--diamond-money-payment-finance-wealth-jewelry"><path id="Union" fill="#000000" fill-rule="evenodd" d="M35.816 1.30578c0.4237 -1.074373 1.9443 -1.074373 2.368 0l2.3225 5.88892c0.0539 0.13667 0.1621 0.24486 0.2988 0.29876l5.8889 2.32256c1.0744 0.42368 1.0744 1.94428 0 2.36798l-5.8889 2.3225c-0.1367 0.0539 -0.2449 0.1621 -0.2988 0.2988l-2.3225 5.8889c-0.4237 1.0744 -1.9443 1.0744 -2.368 0l-2.3225 -5.8889c-0.0539 -0.1367 -0.1621 -0.2449 -0.2988 -0.2988l-5.8889 -2.3225c-1.0744 -0.4237 -1.0744 -1.9443 0 -2.36798l5.8889 -2.32256c0.1367 -0.0539 0.2449 -0.16209 0.2988 -0.29876l2.3225 -5.88892Zm-15.65 6.19813h5.1377c-2.6751 1.84925 -2.3746 6.17879 0.9014 7.47089l4.8911 1.929 1.8129 4.5966H15.5304L20.166 7.50391ZM47.6967 21.5004h-6.6058l1.8129 -4.5966 2.0281 -0.7999 2.327 4.2486c0.2012 0.3675 0.3467 0.7538 0.4378 1.1479ZM17.0058 7.50391h-6.562c-1.64396 0 -3.1571 0.89648 -3.9468 2.33835L0.740608 20.3525c-0.201285 0.3675 -0.346759 0.7538 -0.437874 1.1479H12.4772c0.0253 -0.2207 0.0642 -0.4405 0.1165 -0.6581 0.0098 -0.0407 0.0213 -0.0811 0.0345 -0.1209l4.3776 -13.21749ZM0.649151 24.5004c0.199929 0.4066 0.463719 0.7875 0.789309 1.1273L19.9555 44.9498 12.943 24.5004H0.649151ZM28.0461 44.9476 46.561 25.6277c0.3256 -0.3398 0.5894 -0.7207 0.7893 -1.1273H35.0578l-7.0117 20.4472Zm-4.0457 2.5492 -7.886 -22.9964h15.772l-7.886 22.9964Z" clip-rule="evenodd" stroke-width="1"></path></g></svg>