<svg xmlns="http://www.w3.org/2000/svg" fill="none" viewBox="0 0 48 48" id="Dices-Entertainment-Gaming-Dices--Streamline-Plump"><desc>Dices Entertainment Gaming Dices Streamline Icon: https://streamlinehq.com</desc><g id="Solid/Entertainment/Gaming/dices-entertainment-gaming-dices"><path id="Union" fill="#000000" fill-rule="evenodd" d="M24.339 5.23344C23.2534 1.84001 19.9046 -0.0933862 16.4231 0.663193c-1.4976 0.325421 -3.3655 0.770557 -5.6277 1.376717 -2.26215 0.60615 -4.10237 1.1546 -5.56196 1.62153C1.84002 4.74701 -0.0933871 8.09576 0.663193 11.5773c0.325422 1.4975 0.770567 3.3655 1.376717 5.6276 0.60615 2.2622 1.1546 4.1025 1.62153 5.5621 1.08557 3.3934 4.43432 5.3268 7.91586 4.5702 1.4975 -0.3254 3.3655 -0.7706 5.6276 -1.3767 2.2622 -0.6062 4.1025 -1.1546 5.5621 -1.6215 0.6164 -0.1972 1.1846 -0.4691 1.6973 -0.8029 -0.3338 0.5127 -0.6057 1.0809 -0.8029 1.6973 -0.4669 1.4596 -1.0153 3.2998 -1.6215 5.562 -0.6061 2.2622 -1.0513 4.1301 -1.3767 5.6277 -0.7566 3.4815 1.1768 6.8303 4.5702 7.9159 1.4596 0.4669 3.2999 1.0153 5.562 1.6215 2.2622 0.6061 4.1301 1.0513 5.6276 1.3767 3.4816 0.7566 6.8304 -1.1768 7.916 -4.5702 0.4669 -1.4596 1.0153 -3.2999 1.6215 -5.562 0.6061 -2.2622 1.0513 -4.1301 1.3767 -5.6277 0.7566 -3.4815 -1.1768 -6.8303 -4.5702 -7.9159 -1.4596 -0.4669 -3.2999 -1.0153 -5.562 -1.6215 -2.2622 -0.6061 -4.1302 -1.0513 -5.6277 -1.3767 -1.8622 -0.4047 -3.6864 -0.0398 -5.1466 0.9065 0.9463 -1.4602 1.3112 -3.2844 0.9065 -5.1466 -0.3254 -1.4975 -0.7706 -3.3655 -1.3767 -5.6277 -0.6062 -2.26215 -1.1546 -4.10237 -1.6215 -5.56196ZM14.8345 16.6213c1.3929 -0.4419 2.2047 -1.9064 1.8226 -3.3324 -0.393 -1.467 -1.901 -2.3376 -3.368 -1.9445 -0.0413 0.0111 -0.082 0.0234 -0.122 0.0368 -1.393 0.4419 -2.2048 1.9065 -1.8227 3.3324 0.3931 1.4671 1.901 2.3377 3.368 1.9446 0.0414 -0.0111 0.0821 -0.0234 0.1221 -0.0369Zm20.4903 14.3708c0.3838 -1.4324 1.8303 -2.2962 3.2639 -1.9704 0.0348 0.0074 0.0696 0.0157 0.1043 0.0251 1.467 0.393 2.3376 1.901 1.9445 3.368 -0.3837 1.4323 -1.8303 2.2961 -3.2639 1.9703 -0.0347 -0.0073 -0.0695 -0.0157 -0.1043 -0.025 -1.467 -0.3931 -2.3376 -1.901 -1.9445 -3.368Zm-6.0163 7.9649c0.0347 0.0093 0.0695 0.0176 0.1042 0.025 1.4336 0.3258 2.8802 -0.538 3.264 -1.9703 0.3931 -1.4671 -0.4775 -2.975 -1.9446 -3.3681 -0.0347 -0.0093 -0.0695 -0.0176 -0.1043 -0.025 -1.4336 -0.3258 -2.8801 0.538 -3.2639 1.9703 -0.3931 1.4671 0.4775 2.975 1.9446 3.3681Z" clip-rule="evenodd" stroke-width="1"></path></g></svg>