<svg xmlns="http://www.w3.org/2000/svg" fill="none" viewBox="0 0 48 48" id="Disable-Bell-Notification--Streamline-Plump"><desc>Disable Bell Notification Streamline Icon: https://streamlinehq.com</desc><g id="Solid/Interface Essential/Alerts/disable-bell-notification--disable-silent-notification-off-silence-alarm-bell-alert"><path id="Union" fill="#000000" fill-rule="evenodd" d="m7.35814 15.8301 0.00787 -0.0928L31.036 39.4074c-2.0612 0.0589 -4.3946 0.0926 -7.0361 0.0926 -9.6615 0 -15.2018 -0.4514 -18.37794 -0.9347 -1.60495 -0.2442 -2.86514 -1.1566 -3.38371 -2.5715 -0.49707 -1.3562 -0.19757 -2.8605 0.59222 -4.1402l1.877 -3.0414c1.20094 -1.946 1.92461 -4.1484 2.11192 -6.4274l0.53875 -6.5547ZM42.7402 38.4975c1.4312 -0.319 2.5425 -1.1971 3.0214 -2.5037 0.497 -1.3562 0.1975 -2.8605 -0.5922 -4.1402l-1.877 -3.0415c-1.201 -1.9459 -1.9246 -4.1483 -2.112 -6.4273l-0.5387 -6.5547C39.9297 7.16763 32.6916 0.5 23.9999 0.5 18.7631 0.5 14.054 2.92046 10.982 6.73933L5.87132 1.62868c-1.17157 -1.171573 -3.07107 -1.171573 -4.24264 0 -1.171573 1.17157 -1.171573 3.07107 0 4.24264L42.1287 46.3713c1.1716 1.1716 3.071 1.1716 4.2426 0 1.1716 -1.1716 1.1716 -3.071 0 -4.2426l-3.6311 -3.6312Zm-18.7399 4.0023c-3.267 0 -6.0805 -0.0511 -8.5049 -0.1385 1.5576 3.1193 4.7808 5.2616 8.5044 5.2616 3.7236 0 6.9468 -2.1423 8.5044 -5.2615 -2.4243 0.0873 -5.2374 0.1384 -8.5039 0.1384Z" clip-rule="evenodd" stroke-width="1"></path></g></svg>