<svg xmlns="http://www.w3.org/2000/svg" fill="none" viewBox="0 0 48 48" id="Disabled-Padlock--Streamline-Plump"><desc>Disabled Padlock Streamline Icon: https://streamlinehq.com</desc><g id="Solid/Interface Essential/Lock Unlock/disabled-padlock"><path id="Union" fill="#000000" fill-rule="evenodd" d="m46.3713 42.1287 -2.0996 -2.0997c0.1316 -1.8499 0.2283 -4.1788 0.2283 -7.029 0 -3.5902 -0.1534 -6.3533 -0.3368 -8.3738 -0.2994 -3.2985 -2.9567 -5.6367 -6.1592 -5.8078l-0.0175 -0.001 -0.5713 -6.8555C36.8753 5.48328 31.4595 0.5 24.9584 0.5h-1.9168c-4.919 0 -9.2167 2.85295 -11.251 7.04796L5.87132 1.62868c-1.17157 -1.171573 -3.07107 -1.171573 -4.24264 0 -1.171573 1.17157 -1.171573 3.07107 0 4.24264L42.1287 46.3713c1.1716 1.1716 3.071 1.1716 4.2426 0 1.1716 -1.1716 1.1716 -3.071 0 -4.2426ZM24 18.5c-0.4265 0 -0.845 0.0007 -1.2553 0.0021l-3.6471 -3.6471 0.1079 -1.8343C19.3548 10.4822 21.457 8.5 24 8.5c2.5429 0 4.6451 1.9822 4.7944 4.5207l0.3245 5.5153c-1.5556 -0.0227 -3.26 -0.036 -5.1189 -0.036Zm-13.9533 -0.082 -0.0332 0.3993 -0.01746 0.001c-3.20253 0.1711 -5.85981 2.5093 -6.15922 5.8079C3.65342 26.6466 3.5 29.4097 3.5 32.9999c0 3.5902 0.15342 6.3533 0.33682 8.3738 0.29941 3.2985 2.95668 5.6367 6.15922 5.8078 2.96516 0.1585 7.55456 0.3184 14.00396 0.3184 6.4494 0 11.0388 -0.1599 14.004 -0.3183 0.2464 -0.0132 0.4897 -0.0392 0.7288 -0.0775L26.6805 35.0517l0.9692 3.6346c0.1988 0.7454 -0.21 1.4979 -0.9719 1.6194 -0.6517 0.1039 -1.5443 0.1942 -2.6778 0.1942s-2.0261 -0.0903 -2.6778 -0.1942c-0.7619 -0.1215 -1.1707 -0.874 -0.9719 -1.6194l1.2938 -4.8516c-1.2865 -0.7921 -2.1441 -2.2133 -2.1441 -3.8348 0 -0.6276 0.1285 -1.2253 0.3606 -1.768l-9.8139 -9.8139Z" clip-rule="evenodd" stroke-width="1"></path></g></svg>