<svg xmlns="http://www.w3.org/2000/svg" fill="none" viewBox="0 0 48 48" id="Discord-Logo--Streamline-Plump"><desc>Discord Logo Streamline Icon: https://streamlinehq.com</desc><g id="discord-logo"><path id="Subtract" fill="#000000" fill-rule="evenodd" d="M17.254 5.51252c0.6619 -0.02186 1.239 0.40555 1.4411 1.01662l0.559 1.68969c0.0851 0.25724 0.3831 0.43684 0.6974 0.37744 0.86 -0.16259 2.2447 -0.34971 4.0627 -0.34971 1.8068 0 3.1767 0.18483 4.0305 0.34686 0.3167 0.0601 0.6173 -0.12087 0.7026 -0.37883l0.5576 -1.68545c0.2018 -0.61 0.7784 -1.04034 1.4436 -1.01392 3.6346 0.14435 7.2874 1.29527 8.8417 1.8425 0.6148 0.21646 1.1447 0.62122 1.5021 1.17907 1.6018 2.50001 6.5784 11.46531 6.4032 26.11141 -0.0105 0.8787 -0.3694 1.7445 -1.0815 2.3221 -1.4924 1.2107 -4.8346 3.528 -10.1988 5.1775 -0.8696 0.2675 -1.8781 0.0249 -2.4316 -0.7881 -0.7327 -1.0763 -1.3734 -2.444 -1.8062 -3.4665 -0.1089 -0.2573 -0.4034 -0.3976 -0.6836 -0.3142 -1.8691 0.5562 -4.28 0.9819 -7.2796 0.9819 -3.0095 0 -5.4298 -0.4285 -7.3059 -0.9873 -0.28 -0.0834 -0.5745 0.0568 -0.6834 0.3142 -0.4329 1.0231 -1.0745 2.3937 -1.8085 3.4719 -0.5535 0.813 -1.562 1.0556 -2.4316 0.7881 -5.36421 -1.6495 -8.7064 -3.9668 -10.19881 -5.1775 -0.712052 -0.5776 -1.070966 -1.4434 -1.081478 -2.3221C0.327845 19.8808 5.38863 10.8886 6.94666 8.47599c0.33275 -0.51525 0.81271 -0.89647 1.37974 -1.1135 1.45083 -0.55531 4.9272 -1.71788 8.9276 -1.84997ZM20 25c0 2.7614 -2.0147 5 -4.5 5S11 27.7614 11 25s2.0147 -5 4.5 -5 4.5 2.2386 4.5 5Zm8 0c0 2.7614 2.0147 5 4.5 5s4.5 -2.2386 4.5 -5 -2.0147 -5 -4.5 -5 -4.5 2.2386 -4.5 5Z" clip-rule="evenodd" stroke-width="1"></path></g></svg>