<svg xmlns="http://www.w3.org/2000/svg" fill="none" viewBox="0 0 48 48" id="Dislike-Square--Streamline-Plump"><desc>Dislike Square Streamline Icon: https://streamlinehq.com</desc><g id="Solid/Interface Essential/Bookmark Favorite/dislike-square--reward-social-up-rating-media-dislike-thumb-hand"><path id="Subtract" fill="#000000" fill-rule="evenodd" d="M46.5 24c0 -7.4014 -0.2781 -12.5927 -0.5439 -15.86429 -0.2671 -3.28786 -2.8039 -5.82468 -6.0918 -6.09181 -3.2716 -0.26581 -8.4629 -0.54388 -15.8643 -0.54388 -7.4014 0 -12.5927 0.27808 -15.8643 0.54389 -3.28786 0.26714 -5.82469 2.80397 -6.09181 6.09182C1.77807 11.4074 1.5 16.5986 1.5 24c0 7.4015 0.27808 12.5927 0.5439 15.8643 0.26713 3.2879 2.80396 5.8247 6.09181 6.0918C11.4073 46.2219 16.5986 46.5 24 46.5c7.4015 0 12.5927 -0.2781 15.8643 -0.5439 3.2879 -0.2671 5.8247 -2.804 6.0918 -6.0918 0.2658 -3.2716 0.5439 -8.4629 0.5439 -15.8643ZM20.8609 38.9126c-1.2274 0.1058 -2.3138 -0.704 -2.6678 -1.8839l-2.1147 -7.049c-0.052 -0.1734 -0.0784 -0.3534 -0.0784 -0.5344V15.5777c0 -0.9677 0.7379 -1.7722 1.703 -1.8427 2.6191 -0.1914 7.8981 -0.5413 13.2651 -0.6873 2.736 -0.0744 5.181 1.6473 5.9113 4.2851 0.7664 2.7681 1.6571 6.5685 2.0951 10.5355 0.2818 2.5522 -1.8099 4.6296 -4.3764 4.5519 -4.4469 -0.1347 -9.2996 -0.3774 -9.2996 -0.3774v3.3633c0 1.6009 -1.027 3.0394 -2.6086 3.2874 -0.6485 0.1016 -1.2749 0.1713 -1.829 0.2191ZM11 13.0449c1.1046 0 2 0.8955 2 2v14c0 1.1046 -0.8954 2 -2 2 -1.10457 0 -2 -0.8954 -2 -2v-14c0 -1.1045 0.89543 -2 2 -2Z" clip-rule="evenodd" stroke-width="1"></path></g></svg>