<svg xmlns="http://www.w3.org/2000/svg" fill="none" viewBox="0 0 48 48" id="Dislike-1--Streamline-Plump"><desc>Dislike 1 Streamline Icon: https://streamlinehq.com</desc><g id="Solid/Interface Essential/Bookmark Favorite/dislike-1--reward-down-thumb-hand-social-media-dislike-rating"><path id="Union" fill="#000000" fill-rule="evenodd" d="M6.5 3.5c-1.28363 0 -2.37785 0.15696 -3.24535 0.3538C1.59729 4.22986 0.679993 5.756 0.637166 7.33539 0.576528 9.57163 0.5 13.3207 0.5 18s0.076528 8.4284 0.137166 10.6646c0.042827 1.5794 0.960124 3.1055 2.617484 3.4816 0.8675 0.1968 1.96173 0.3538 3.24535 0.3538 1.28362 0 2.37785 -0.157 3.24535 -0.3538 1.65735 -0.3761 2.57465 -1.9022 2.61745 -3.4816 0.0607 -2.2362 0.1372 -5.9853 0.1372 -10.6646 0 -4.6793 -0.0765 -8.42837 -0.1372 -10.66461C12.32 5.756 11.4027 4.22986 9.74535 3.8538 8.87785 3.65696 7.78362 3.5 6.5 3.5Zm0 10.5c1.10457 0 2 -0.8954 2 -2l0 -2c0 -1.10457 -0.89543 -2 -2 -2s-2 0.89543 -2 2v2c0 1.1046 0.89543 2 2 2Zm8.3619 16.7324c-0.0028 0.1061 -0.0084 0.213 -0.0167 0.3203l3.4989 9.7968c0.7782 2.1792 2.8662 3.695 5.2262 3.4317 0.8718 -0.0972 1.8195 -0.2384 2.7304 -0.4441 2.5443 -0.5744 3.7585 -3.0076 3.8786 -5.4098l0.2937 -5.8743c0.1055 0.011 0.2258 0.0233 0.3602 0.037 0.5691 0.0576 1.3896 0.1374 2.3959 0.2259 2.0124 0.177 4.77 0.3893 7.7496 0.5298 3.6019 0.1699 6.5588 -2.7691 6.3488 -6.3783 -0.4425 -7.605 -1.6609 -13.3996 -2.7696 -17.2948 -1.1079 -3.89261 -4.7728 -6.20241 -8.7573 -6.05886 -5.8967 0.21246 -11.1142 0.6852 -14.8579 1.10481 -1.872 0.20984 -3.376 0.40645 -4.4128 0.55072 -0.5183 0.07214 -0.9199 0.13119 -1.1923 0.17228 -0.1362 0.02054 -0.2401 0.03659 -0.3102 0.04754l-0.0669 0.01053h-0.0925C14.9283 7.9069 15 13.4578 15 18c0 4.6949 -0.0766 10.4675 -0.1381 12.7324Z" clip-rule="evenodd" stroke-width="1"></path></g></svg>