<svg xmlns="http://www.w3.org/2000/svg" fill="none" viewBox="0 0 48 48"><g id="documentation-newsletter--documentation-newsletter-newspaper-infomation-publication"><path id="Subtract" fill="#000000" fill-rule="evenodd" d="M41.4043 1.33388c-8.2272 -0.636968 -19.222 -0.722553 -26.9182 -0.15145 -2.754 0.20436 -4.81898 2.48245 -4.86235 5.19806 -0.0261 1.63413 -0.0386 3.70441 0.00164 5.85421 0.01292 0.4499 0.02885 0.8997 0.04826 1.3451 0.14151 3.2455 0.46995 7.7369 0.76445 11.4315 0.147 1.8441 0.2852 3.4842 0.3865 4.6632 0.0507 0.5895 0.0922 1.0636 0.121 1.3901l0.0332 0.375 0.0087 0.097 0.0022 0.0245 0.0005 0.0062 0.0002 0.0015 0 0.0003c0 0.0001 0 0.0001 -1.49394 0.1346l1.49394 -0.1345 0.0009 0.0099c0.2132 2.5592 0.3634 4.8423 -0.1165 6.5349 -0.2591 0.9137 -0.7218 1.7484 -1.51083 2.3795 -0.77372 0.6189 -1.72836 0.9352 -2.78412 1.0672 -0.82203 0.1027 -1.57172 -0.4804 -1.67447 -1.3024 -0.10275 -0.822 0.48033 -1.5717 1.30236 -1.6744 0.70605 -0.0883 1.07521 -0.2675 1.2824 -0.4332 0.19186 -0.1534 0.36721 -0.3923 0.4984 -0.855 0.30043 -1.0596 0.24035 -2.7393 0.0135 -5.4626l-0.00033 -0.0037 -0.00225 -0.0251 -0.00878 -0.0983 -0.03349 -0.3779c-0.02897 -0.3285 -0.07064 -0.8047 -0.12153 -1.3966 -0.10177 -1.1836 -0.24044 -2.83 -0.38807 -4.6818 -0.29476 -3.6973 -0.62704 -8.2353 -0.77109 -11.5393 -0.01389 -0.3185 -0.02604 -0.6389 -0.03662 -0.9596 -0.59171 0.0643 -1.11017 0.1311 -1.55866 0.196 -2.03355 0.2944 -3.38962 1.9995 -3.50266 3.9087 -0.50536 8.5357 -0.38183 13.6988 0.1341 22.1388 0.15835 2.5903 1.02476 4.5353 2.49243 5.8137 1.424 1.2403 3.21452 1.6785 4.92308 1.692 0.01986 0.0008 0.03982 0.0012 0.05986 0.0012H39.0236c4.3706 0 7.8067 -3.7078 7.5833 -8.0391 -0.2789 -5.4044 -0.6041 -13.7829 -0.6041 -23.4609 0 -2.7296 0.2005 -5.35136 0.4213 -7.40826 0.3256 -3.03325 -1.7918 -6.00914 -5.0198 -6.25906ZM20.7705 17.6133c-0.8284 0 -1.5 0.6716 -1.5 1.5s0.6716 1.5 1.5 1.5l15.2295 0c0.8284 0 1.5 -0.6716 1.5 -1.5s-0.6716 -1.5 -1.5 -1.5l-15.2295 0ZM19.2705 12c0 -0.8284 0.6716 -1.5 1.5 -1.5L36 10.5c0.8284 0 1.5 0.6716 1.5 1.5s-0.6716 1.5 -1.5 1.5l-15.2295 0c-0.8284 0 -1.5 -0.6716 -1.5 -1.5Zm1.5 12.7285c-0.8284 0 -1.5 0.6716 -1.5 1.5s0.6716 1.5 1.5 1.5h8.5523c0.8284 0 1.5 -0.6716 1.5 -1.5s-0.6716 -1.5 -1.5 -1.5h-8.5523Z" clip-rule="evenodd" stroke-width="1"></path></g></svg>