<svg xmlns="http://www.w3.org/2000/svg" fill="none" viewBox="0 0 48 48" id="Door-Open-House-Enter-Login--Streamline-Plump"><desc>Door Open House Enter Login Streamline Icon: https://streamlinehq.com</desc><g id="door-open-house-enter-login--door-open-house-enter-login-entry-entrance-join"><path id="Union" fill="#000000" fill-rule="evenodd" d="m18.5956 20.2237 0 -0.0003c-0.6824 -0.8422 -1.6053 -1.837 -2.8439 -2.942 -0.3855 -0.3439 -0.7519 -0.6606 -1.0993 -0.9522l0 0.0004c-1.0758 -0.9029 -1.9686 -1.5644 -2.6778 -2.0438 -1.024 -0.6924 -2.21095 -0.0581 -2.30955 1.1741 -0.07454 0.9316 -0.14861 2.1636 -0.19747 3.7358 -2.8484 0.0721 -5.13767 0.1966 -6.62642 0.2944 -1.16938 0.0768 -2.150238 0.8639 -2.265396 2.0301 -0.044733 0.4531 -0.075276 0.9852 -0.075276 1.5936 0 0.6085 0.030543 1.1406 0.075276 1.5936 0.115158 1.1662 1.096016 1.9533 2.265396 2.0301 1.48874 0.0979 3.77798 0.2223 6.62635 0.2944 0.04884 1.5731 0.12292 2.8057 0.19749 3.7377 0.0986 1.2324 1.2859 1.8668 2.3101 1.1742 0.938 -0.6343 2.1975 -1.5869 3.7766 -2.9954 1.8678 -1.666 3.0176 -3.0818 3.7075 -4.1012 0.7215 -1.0661 0.7214 -2.3981 -0.0001 -3.4642 -0.2324 -0.3433 -0.517 -0.7316 -0.8635 -1.1593Zm0.3316 15.8418c-0.089 -1.4824 -0.1782 -3.3869 -0.2431 -5.7451 -0.2935 0.2826 -0.605 0.5716 -0.9355 0.8664 -1.1212 1.0001 -2.1052 1.7963 -2.9516 2.4285 0.0434 1.0104 0.0903 1.9055 0.1373 2.6897 0.2091 3.4854 2.8156 6.3249 6.3832 6.6282 1.9623 0.1667 4.6089 0.3156 8.0113 0.3553 0.3697 1.5732 1.6899 2.7776 3.342 2.6828 3.9001 -0.2237 7.794 -1.7359 10.9579 -3.8243 0.5419 -0.2876 1.0374 -0.6442 1.4775 -1.0577 0.0396 -0.0307 0.0791 -0.0616 0.1184 -0.0925 0.5992 -0.4712 1.0355 -1.0963 1.3033 -1.7956 0.4508 -0.8745 0.7264 -1.8566 0.7887 -2.8962 0.1752 -2.9205 0.3484 -7.3801 0.3484 -13.598 0 -7.3437 -0.2416 -12.2349 -0.4427 -15.03463 -0.1882 -2.61986 -2.1515 -4.76734 -4.8366 -5.0531 -2.2997 -0.24474 -5.9816 -0.50404 -11.2602 -0.50404 -4.2818 0 -7.5129 0.17062 -9.808 0.36567 -3.5676 0.30322 -6.1741 3.14272 -6.3832 6.62813 -0.0589 0.98307 -0.1177 2.14047 -0.1697 3.48067 0.8538 0.6361 1.8487 1.44 2.9842 2.4531 0.3228 0.2879 0.6274 0.5703 0.9148 0.8466 0.0658 -2.7293 0.1648 -4.8952 0.2636 -6.54086 0.0954 -1.59197 1.2285 -2.75448 2.7291 -2.88201 2.1756 -0.1849 5.2935 -0.3513 9.4692 -0.3513 1.529 0 2.9162 0.02231 4.1672 0.05967 -1.5807 0.77372 -3.0537 1.70396 -4.3528 2.72569 -0.9597 0.75471 -1.5016 1.90411 -1.6022 3.12081 -0.7479 9.0481 -0.8578 18.1877 -0.3296 27.2626 -3.132 -0.0446 -5.5611 -0.1843 -7.3518 -0.3365 -1.5006 -0.1275 -2.6337 -1.29 -2.7291 -2.882ZM36.106 23.7617c0 -1.1046 -0.8955 -2 -2 -2 -1.1046 0 -2 0.8954 -2 2v4.0877c0 1.1046 0.8954 2 2 2 1.1045 0 2 -0.8954 2 -2v-4.0877Z" clip-rule="evenodd" stroke-width="1"></path></g></svg>