<svg xmlns="http://www.w3.org/2000/svg" fill="none" viewBox="0 0 48 48" id="Door-Open-House-Exit-Logout--Streamline-Plump"><desc>Door Open House Exit Logout Streamline Icon: https://streamlinehq.com</desc><g id="door-open-house-exit-logout--door-open-house-exit-logout-emergency-escape-way-out-leave"><path id="Union" fill="#000000" fill-rule="evenodd" d="M14.6141 26.9074c-1.0571 0.0482 -2.2588 0.0929 -3.581 0.1264 -0.0488 1.5722 -0.1229 2.8042 -0.1974 3.7358 -0.0986 1.2322 -1.28559 1.8665 -2.30962 1.1741 -0.93806 -0.6342 -2.1977 -1.587 -3.77703 -2.9959 -1.86769 -1.6663 -3.01745 -3.082 -3.70738 -4.1013 -0.721519 -1.0661 -0.721592 -2.3981 -0.00012 -3.4642 0.68991 -1.0194 1.83969 -2.4352 3.7075 -4.1012 1.57907 -1.4085 2.83854 -2.3611 3.77656 -2.9954 1.02418 -0.6926 2.21149 -0.0583 2.31009 1.1742 0.0746 0.932 0.1487 2.1646 0.1975 3.7377 2.8484 0.0721 5.1376 0.1965 6.6264 0.2944 1.1693 0.0768 2.1502 0.8639 2.2654 2.0301 0.0447 0.453 0.0752 0.9851 0.0752 1.5936 0 0.6084 -0.0305 1.1405 -0.0752 1.5935 -0.0819 0.8295 -0.6018 1.4672 -1.3159 1.7939l0 0.0004c-0.2899 0.1326 -0.6119 0.2141 -0.9495 0.2363 -0.7977 0.0524 -1.8253 0.1124 -3.0455 0.168l0 -0.0004Zm4.3133 9.1581c-0.0976 -1.6264 -0.1955 -3.7611 -0.2612 -6.4456 -0.2689 0.0577 -0.5399 0.0957 -0.8099 0.1134 -0.8331 0.0547 -1.9078 0.1174 -3.1842 0.1749 0.0668 2.6411 0.1643 4.7605 0.2625 6.3968 0.209 3.4854 2.8155 6.3249 6.3832 6.6282 1.9622 0.1667 4.6088 0.3156 8.0113 0.3553 0.3697 1.5732 1.6899 2.7776 3.342 2.6828 3.9001 -0.2237 7.794 -1.7359 10.9578 -3.8243 0.5419 -0.2876 1.0375 -0.6442 1.4776 -1.0577 0.0396 -0.0307 0.079 -0.0616 0.1183 -0.0925 0.5992 -0.4712 1.0355 -1.0963 1.3033 -1.7956 0.4508 -0.8745 0.7264 -1.8566 0.7888 -2.8962 0.1752 -2.9205 0.3484 -7.3801 0.3484 -13.598 0 -7.3437 -0.2416 -12.2349 -0.4428 -15.03463 -0.1882 -2.61986 -2.1515 -4.76734 -4.8366 -5.0531 -2.2997 -0.24474 -5.9816 -0.50404 -11.2602 -0.50404 -4.2817 0 -7.5129 0.17062 -9.8079 0.36567 -3.5677 0.30322 -6.1742 3.14272 -6.3832 6.62813 -0.1081 1.80177 -0.2154 4.18927 -0.2818 7.21397 1.2849 0.0577 2.3662 0.1207 3.2035 0.1758 0.2638 0.0173 0.5286 0.0539 0.7913 0.1094 0.0649 -3.0705 0.1726 -5.4721 0.2798 -7.25966 0.0955 -1.59197 1.2286 -2.75448 2.7291 -2.88201 2.1756 -0.1849 5.2935 -0.3513 9.4692 -0.3513 1.5291 0 2.9162 0.02231 4.1672 0.05967 -1.5807 0.77372 -3.0536 1.70396 -4.3528 2.72569 -0.9596 0.75471 -1.5016 1.90411 -1.6022 3.12081 -0.7479 9.0481 -0.8577 18.1877 -0.3296 27.2626 -3.1319 -0.0446 -5.5611 -0.1843 -7.3518 -0.3365 -1.5005 -0.1275 -2.6336 -1.29 -2.7291 -2.882Zm17.1788 -12.3038c0 -1.1046 -0.8954 -2 -2 -2s-2 0.8954 -2 2v4.0877c0 1.1046 0.8954 2 2 2s2 -0.8954 2 -2v-4.0877Z" clip-rule="evenodd" stroke-width="1"></path></g></svg>