<svg xmlns="http://www.w3.org/2000/svg" fill="none" viewBox="0 0 48 48" id="Door-Open-House-Entrance-Access--Streamline-Plump"><desc>Door Open House Entrance Access Streamline Icon: https://streamlinehq.com</desc><g id="door-open-house-entrance-access--door-open-house-entrance-access-invitation-furniture-interior"><path id="Union" fill="#000000" fill-rule="evenodd" d="M9.44436 8.56982c-0.19944 2.89028 -0.40188 7.38088 -0.40188 13.70168 0 6.3208 0.20244 10.8114 0.40188 13.7017 0.1095 1.5868 1.26814 2.7609 2.81324 2.8868 1.7228 0.1405 4.0234 0.2775 6.9541 0.3526 -0.6297 -9.1527 -0.4851 -18.3665 0.4338 -27.4912 0.1365 -1.3545 0.8272 -2.60277 1.9721 -3.33934 1.8175 -1.16929 3.9068 -2.22444 6.1543 -3.07466 -1.165 -0.02288 -2.4213 -0.03592 -3.7719 -0.03592 -5.3158 0 -9.1722 0.20195 -11.7424 0.41145 -1.5451 0.12593 -2.70374 1.30001 -2.81324 2.88689ZM40.7884 4.04174c-1.1621 -1.31782 -2.8157 -2.19029 -4.7211 -2.34559 -2.6854 -0.21888 -6.6505 -0.42467 -12.0673 -0.42467 -5.4168 0 -9.3819 0.20578 -12.0673 0.42467 -3.55673 0.28989 -6.23598 3.07864 -6.47885 6.59831 -0.20622 2.98844 -0.41137 7.57114 -0.41137 13.97704 0 6.4059 0.20515 10.9886 0.41137 13.977 0.24287 3.5197 2.92212 6.3084 6.47885 6.5983 1.8847 0.1536 4.3998 0.3008 7.6047 0.3749 0.0019 0.0198 0.0037 0.0397 0.0056 0.0595 0.1748 1.8575 1.6477 3.3484 3.5132 3.319 6.1389 -0.0967 12.3455 -2.2997 16.8687 -5.2097 0.7079 -0.4554 1.2421 -1.1065 1.5791 -1.8573 0.5909 -0.9622 0.9591 -2.0807 1.0422 -3.2847 0.2062 -2.9884 0.4113 -7.5711 0.4113 -13.977s-0.2051 -10.9886 -0.4113 -13.97704c-0.0706 -1.02211 -0.3466 -1.98258 -0.7899 -2.83811 -0.2122 -0.54901 -0.5456 -1.03418 -0.9679 -1.41461ZM25.3433 22.1163c1.1045 0 2 0.8954 2 2v4.3105c0 1.1046 -0.8955 2 -2 2 -1.1046 0 -2 -0.8954 -2 -2v-4.3105c0 -1.1046 0.8954 -2 2 -2Z" clip-rule="evenodd" stroke-width="1"></path></g></svg>