<svg xmlns="http://www.w3.org/2000/svg" fill="none" viewBox="0 0 48 48" id="Double-Bookmark--Streamline-Plump"><desc>Double Bookmark Streamline Icon: https://streamlinehq.com</desc><g id="double-bookmark--bookmarks-double-tags-favorite"><path id="Union" fill="#000000" fill-rule="evenodd" d="M27.9999 0.5c-4.6316 0 -8.5471 0.21986 -11.2565 0.433138 -2.8005 0.220442 -5.1152 2.108102 -5.72 4.834982C13.5008 5.61907 16.5568 5.5 19.9999 5.5c4.7243 0 8.7198 0.22418 11.4919 0.44239 4.4531 0.35053 8.2241 3.69627 8.6074 8.47121 0.2131 2.6552 0.4007 6.7081 0.4007 12.7682v12.3156c0.053 0.0017 0.1061 0.0026 0.1593 0.0026 2.6718 0 4.8407 -2.1629 4.8407 -4.838V19.1818c0 -6.0017 -0.1859 -9.9719 -0.3911 -12.52816 -0.2566 -3.19773 -2.758 -5.47692 -5.8524 -5.720502C36.547 0.71986 32.6314 0.5 27.9999 0.5ZM8.74348 8.93314C11.4529 8.71986 15.3684 8.5 20 8.5s8.5471 0.21986 11.2565 0.43314c3.0945 0.24358 5.5958 2.52276 5.8525 5.72046 0.2051 2.5563 0.391 6.5265 0.391 12.5282V42.662c0 2.6751 -2.1689 4.838 -4.8407 4.838 -1.0386 0 -2.0497 -0.3341 -2.8839 -0.9528l-8.286 -6.1463c-0.8845 -0.6561 -2.0943 -0.6561 -2.9788 0l-8.286 6.1463c-0.83421 0.6187 -1.84529 0.9528 -2.8839 0.9528C4.66886 47.5 2.5 45.3371 2.5 42.662V27.1818c0 -6.0017 0.18586 -9.9719 0.39105 -12.5282 0.25667 -3.1977 2.75799 -5.47688 5.85243 -5.72046Z" clip-rule="evenodd" stroke-width="1"></path></g></svg>