<svg xmlns="http://www.w3.org/2000/svg" fill="none" viewBox="0 0 48 48" id="Dumbell--Streamline-Plump"><desc>Dumbell Streamline Icon: https://streamlinehq.com</desc><g id="dumbell--sports-weights-dumbbell-sport-fitness-hotel"><path id="Union" fill="#000000" fill-rule="evenodd" d="M12 9.5c-1.0783 0 -1.8647 0.29989 -2.37642 0.6067 -0.7881 0.4725 -1.02459 1.2811 -1.0363 1.8562C8.56388 13.1112 8.5 16.8973 8.5 24c0 7.1027 0.06389 10.8888 0.08728 12.0371 0.01172 0.5751 0.24821 1.3837 1.03631 1.8562 0.51171 0.3068 1.29811 0.6067 2.37641 0.6067 1.0783 0 1.8647 -0.2999 2.3764 -0.6067 0.7881 -0.4725 1.0246 -1.2811 1.0363 -1.8562 0.0187 -0.9175 0.0633 -3.5192 0.0804 -8.1515 0.6762 0.0125 1.5267 0.0277 2.4404 0.0428 2.1485 0.0357 4.6569 0.0716 6.0666 0.0716s3.9181 -0.0359 6.0665 -0.0716c0.9137 -0.0151 1.7641 -0.0303 2.4403 -0.0428 0.0171 4.6323 0.0617 7.234 0.0804 8.1515 0.0117 0.5751 0.2482 1.3837 1.0363 1.8562 0.5117 0.3068 1.2981 0.6067 2.3764 0.6067 1.0783 0 1.8647 -0.2999 2.3764 -0.6067 0.7881 -0.4725 1.0246 -1.2811 1.0363 -1.8562 0.0234 -1.1483 0.0873 -4.9344 0.0873 -12.0371 0 -7.1027 -0.0639 -10.8888 -0.0873 -12.0371 -0.0117 -0.5751 -0.2482 -1.3837 -1.0363 -1.8562C37.8647 9.79989 37.0783 9.5 36 9.5c-1.0783 0 -1.8647 0.29989 -2.3764 0.6067 -0.7881 0.4725 -1.0246 1.2811 -1.0363 1.8562 -0.0187 0.9175 -0.0633 3.5192 -0.0804 8.1515 -0.6762 -0.0125 -1.5266 -0.0277 -2.4403 -0.0428C27.9182 20.0359 25.4098 20 24.0001 20s-3.9181 0.0359 -6.0666 0.0716c-0.9137 0.0151 -1.7642 0.0303 -2.4404 0.0428 -0.0171 -4.6323 -0.0617 -7.234 -0.0804 -8.1515 -0.0117 -0.5751 -0.2482 -1.3837 -1.0363 -1.8562C13.8647 9.79989 13.0783 9.5 12 9.5Zm-8.5 5c-0.65951 0 -1.18898 0.12 -1.59431 0.2771 -1.015192 0.3934 -1.33025 1.356 -1.344796 1.9996C0.540604 17.6744 0.5 19.9737 0.5 24s0.040607 6.3256 0.060896 7.2233c0.014547 0.6436 0.329605 1.6062 1.344794 1.9996 0.40533 0.1571 0.9348 0.2771 1.59431 0.2771 0.65952 0 1.18899 -0.12 1.59432 -0.2771 1.01519 -0.3934 1.33024 -1.356 1.34479 -1.9996C6.4594 30.3256 6.5 28.0263 6.5 24s-0.0406 -6.3256 -0.06089 -7.2233c-0.01455 -0.6436 -0.32961 -1.6062 -1.3448 -1.9996C4.68898 14.62 4.15951 14.5 3.5 14.5Zm41 0c0.6595 0 1.189 0.12 1.5943 0.2771 1.0152 0.3934 1.3303 1.356 1.3448 1.9996 0.0203 0.8977 0.0609 3.197 0.0609 7.2233s-0.0406 6.3256 -0.0609 7.2233c-0.0145 0.6436 -0.3296 1.6062 -1.3448 1.9996 -0.4053 0.1571 -0.9348 0.2771 -1.5943 0.2771 -0.6595 0 -1.189 -0.12 -1.5943 -0.2771 -1.0152 -0.3934 -1.3303 -1.356 -1.3448 -1.9996 -0.0203 -0.8977 -0.0609 -3.197 -0.0609 -7.2233s0.0406 -6.3256 0.0609 -7.2233c0.0145 -0.6436 0.3296 -1.6062 1.3448 -1.9996 0.4053 -0.1571 0.9348 -0.2771 1.5943 -0.2771Z" clip-rule="evenodd" stroke-width="1"></path></g></svg>