<svg xmlns="http://www.w3.org/2000/svg" fill="none" viewBox="0 0 48 48" id="Earth-1--Streamline-Plump"><desc>Earth 1 Streamline Icon: https://streamlinehq.com</desc><g id="earth-1--planet-earth-globe-world"><path id="Union" fill="#000000" fill-rule="evenodd" d="M25.7154 0.561653C25.1489 0.520787 24.5769 0.5 24 0.5 11.0213 0.5 0.5 11.0213 0.5 24c0 3.3233 0.68984 6.4855 1.93413 9.3511l0.00349 -0.0514c3.005 0.2042 5.75174 0.0702 7.49746 -0.0745 0.99802 -0.0827 1.77522 -0.4803 2.19872 -1.0802 0.9475 -1.3424 1.567 -2.9661 1.9305 -4.1754 0.216 -0.7184 0.1673 -1.5569 -0.0968 -2.4834 -0.2821 -0.9893 -0.6188 -2.3139 -0.8178 -3.6122 -0.1873 -1.2217 -0.3025 -2.7026 0.077 -3.8463 0.3273 -0.9868 1.088 -1.6349 1.7865 -2.0518 0.7143 -0.4264 1.5439 -0.7203 2.3137 -0.9286 1.5456 -0.4184 3.1426 -0.5682 3.8195 -0.6171 0.2202 -0.0159 0.3218 -0.029 0.3974 -0.0481 0.5451 -0.1378 2.1569 -0.6619 3.8244 -2.3343 0.5382 -0.5398 0.8512 -1.3373 0.8828 -2.25785 0.0706 -2.05357 0.0607 -5.5777 -0.5356 -9.228297ZM4.02148 36.3806C8.16676 43.0558 15.5642 47.5004 23.9998 47.5004c2.4245 0 4.7633 -0.3672 6.9638 -1.0489 -0.4031 -2.6117 -0.5874 -4.9573 -0.6709 -6.4346 -0.0335 -0.5921 -0.3108 -1.1212 -0.7429 -1.4544l-2.2704 -1.7508c-2.8165 -2.172 -4.8609 -6.2774 -2.5319 -9.8983 0.4134 -0.6427 0.9071 -1.2947 1.4955 -1.9191 1.7474 -1.8545 4.283 -2.2119 6.3997 -1.9575 3.3734 0.4055 9.2209 1.2027 14.8124 2.4245 0.0296 -0.4832 0.0447 -0.9703 0.0447 -1.4609 0 -11.3284 -8.0158 -20.78466 -18.685 -23.006259 0.5021 3.580409 0.5024 6.913609 0.4342 8.899209 -0.0519 1.51245 -0.576 3.08905 -1.7566 4.27315 -2.1423 2.1485 -4.2845 2.8896 -5.2134 3.1244 -0.3564 0.0902 -0.6924 0.1158 -0.9167 0.132 -0.6118 0.0441 -1.9838 0.1773 -3.2517 0.5205 -0.6368 0.1724 -1.175 0.3791 -1.56 0.6089 -0.4009 0.2393 -0.4711 0.4032 -0.4768 0.4203 -0.1335 0.4027 -0.1428 1.2485 0.041 2.4472 0.1721 1.1223 0.4717 2.312 0.7375 3.2443 0.3578 1.2552 0.5219 2.7154 0.0848 4.1695 -0.4057 1.3497 -1.1384 3.3217 -2.3526 5.0418 -1.0794 1.5292 -2.8028 2.2074 -4.4019 2.34 -1.49024 0.1235 -3.68048 0.2408 -6.16112 0.1652ZM32.2848 26.0157c3.3936 0.4079 9.2647 1.2109 14.7944 2.4349 -1.4424 7.526 -6.4748 13.7764 -13.2461 16.9003 -0.3183 -2.2279 -0.472 -4.2109 -0.545 -5.503 -0.0799 -1.4137 -0.7474 -2.7672 -1.9061 -3.6608l-2.2704 -1.7508c-2.2204 -1.7122 -2.9527 -4.1709 -1.8408 -5.8997 0.3253 -0.5057 0.7075 -1.009 1.1557 -1.4846 0.8354 -0.8866 2.2357 -1.2313 3.8583 -1.0363Z" clip-rule="evenodd" stroke-width="1"></path></g></svg>