<svg xmlns="http://www.w3.org/2000/svg" fill="none" viewBox="0 0 48 48" id="Empty-Clipboard--Streamline-Plump"><desc>Empty Clipboard Streamline Icon: https://streamlinehq.com</desc><g id="empty-clipboard--work-plain-clipboard-task-list-company-office"><path id="Union" fill="#000000" fill-rule="evenodd" d="M23.9997 0.5c-2.7761 0 -4.9145 0.085306 -6.4154 0.177562 -1.7741 0.109045 -3.1053 1.598328 -3.0056 3.375458 0.0496 0.88257 0.1164 1.69888 0.1824 2.38743 0.1434 1.49573 1.2816 2.68275 2.7986 2.81693 1.3929 0.12322 3.501 0.24262 6.44 0.24262 2.9392 0 5.0474 -0.11942 6.4405 -0.24264 1.517 -0.13417 2.6554 -1.32123 2.7987 -2.81703 0.066 -0.6885 0.1328 -1.50475 0.1824 -2.38723 0.0997 -1.77717 -1.2315 -3.266478 -3.0056 -3.37552C28.9146 0.585317 26.7759 0.5 23.9997 0.5ZM12.0742 3.83105c-0.0007 0.11996 0.0024 0.24076 0.0092 0.3623 0.0517 0.92121 0.1213 1.77088 0.1898 2.48584 0.2532 2.64213 2.2982 4.82381 5.0669 5.06871 1.472 0.1302 3.6538 0.2523 6.6603 0.2523 3.0066 0 5.1887 -0.1221 6.6608 -0.2523 2.7687 -0.2449 4.8138 -2.42659 5.067 -5.06883 0.0686 -0.71492 0.1382 -1.56451 0.1899 -2.48564 0.0068 -0.12153 0.0098 -0.24233 0.0091 -0.36229 1.0523 0.0635 1.9875 0.13102 2.8058 0.19763 2.7939 0.22745 4.96 2.35819 5.1967 5.15742 0.2778 3.28481 0.5703 8.58011 0.5703 16.31401 0 7.734 -0.2925 13.0293 -0.5703 16.3141 -0.2367 2.7992 -2.4028 4.93 -5.1967 5.1574 -3.1627 0.2575 -8.0738 0.5285 -14.733 0.5285s-11.5703 -0.271 -14.73298 -0.5285c-2.79391 -0.2274 -4.96007 -2.3582 -5.19675 -5.1574C3.79252 38.5295 3.5 33.2342 3.5 25.5002c0 -7.7339 0.29252 -13.0292 0.57027 -16.31401 0.23668 -2.79923 2.40284 -4.92997 5.19675 -5.15742 0.81858 -0.06664 1.75438 -0.13419 2.80718 -0.19772Z" clip-rule="evenodd" stroke-width="1"></path></g></svg>