<svg xmlns="http://www.w3.org/2000/svg" fill="none" viewBox="0 0 48 48" id="Enabled-Bell-Notification--Streamline-Plump"><desc>Enabled Bell Notification Streamline Icon: https://streamlinehq.com</desc><g id="Solid/Interface Essential/Alerts/enabled-bell-notification--notification-alarm-alert-bell"><path id="Union" fill="#000000" fill-rule="evenodd" d="M26.5458 4.2023c1.5968 -1.4558 3.493 -1.7617 5.1923 -1.3724C29.2344 1.3349 26.3114 0.48 23.2018 0.48 14.5255 0.48 7.3001 7.1359 6.5894 15.7831l-0.5378 6.5432c-0.187 2.275 -0.9094 4.4735 -2.1082 6.4161l-1.8737 3.036c-0.7884 1.2775 -1.0874 2.7791 -0.5912 4.133 0.5177 1.4124 1.7756 2.3232 3.3778 2.5669 3.1705 0.4825 8.701 0.9331 18.3455 0.9331 9.6446 0 15.1752 -0.4506 18.3457 -0.9331 1.6022 -0.2437 2.8601 -1.1545 3.3778 -2.5669 0.4962 -1.3539 0.1972 -2.8555 -0.5912 -4.133l-1.8737 -3.0361c-1.1988 -1.9425 -1.9212 -4.141 -2.1082 -6.416l-0.2222 -2.7027c-2.6542 2.4559 -6.7822 2.4619 -9.4616 -0.2178 -1.4663 -1.4666 -3.3833 -3.5189 -5.5195 -6.1449 -1.4806 -1.8201 -2.176 -4.9434 -0.1482 -7.4338 0.5108 -0.6273 1.0475 -1.1711 1.5452 -1.6248Zm-3.3436 38.2036c-3.2611 0 -6.0697 -0.051 -8.4899 -0.1383 1.5549 3.1139 4.7724 5.2524 8.4894 5.2524 3.7171 0 6.9346 -2.1385 8.4895 -5.2523 -2.42 0.0872 -5.2282 0.1382 -8.489 0.1382ZM35.3484 9.5318c-0.1128 -0.1222 -0.2455 -0.2665 -0.3953 -0.4304 -0.5105 -0.5585 -1.2186 -1.3429 -2.0084 -2.2467 -1.1016 -1.2603 -3.0441 -1.6583 -4.3813 -0.4391 -0.4119 0.3755 -0.8414 0.8124 -1.2405 1.3026 -0.9067 1.1136 -0.6815 2.6322 0.149 3.6531 2.0652 2.5387 3.9124 4.5154 5.3141 5.9174 1.6857 1.6859 4.328 1.507 5.7808 -0.3795 1.6259 -2.1113 4.1313 -5.5633 7.6459 -10.9221 0.6139 -0.9361 0.8287 -2.2614 0.046 -3.2668 -0.6249 -0.8027 -1.3737 -1.3874 -2.0529 -1.8023 -1.3815 -0.8439 -2.9787 -0.157 -3.7855 1.0488 -1.7841 2.6663 -3.1399 4.6882 -4.0497 6.0433 -0.4511 0.6721 -0.7926 1.1802 -1.0222 1.5217Z" clip-rule="evenodd" stroke-width="1"></path></g></svg>