<svg xmlns="http://www.w3.org/2000/svg" fill="none" viewBox="0 0 48 48" id="Encrypted-Lock--Streamline-Plump"><desc>Encrypted Lock Streamline Icon: https://streamlinehq.com</desc><path fill="#000000" fill-rule="evenodd" d="M12.9699 16.5537c-0.6669 0 -1.2779 0.004 -1.8352 0.0109l0.4408 -5.2885C12.0784 5.24111 17.1233 0.599121 23.1791 0.599121h1.86c6.0558 0 11.1007 4.641989 11.6037 10.676979l0.4432 5.3194c-1.3241 -0.0242 -2.9797 -0.0418 -4.9952 -0.0418 -0.941 0 -1.8035 0.0038 -2.5905 0.0104l-0.2547 -4.3294c-0.16 -2.71971 -2.4121 -4.8433 -5.1365 -4.8433 -2.7244 0 -4.9765 2.12359 -5.1365 4.8433l-0.2657 4.5161c-0.2783 -0.0592 -0.5512 -0.0938 -0.8101 -0.1051 -1.0583 -0.0463 -2.6736 -0.092 -4.9269 -0.092Zm6.4303 8.9867c-0.0783 0.706 -0.7694 1.2153 -1.6344 1.2531 -1.0115 0.0443 -2.5829 0.0891 -4.7958 0.0891 -2.2128 0 -3.78433 -0.0448 -4.79578 -0.0891 -0.86496 -0.0378 -1.55615 -0.5471 -1.63446 -1.2531 -0.06168 -0.5562 -0.11389 -1.3222 -0.11389 -2.3222s0.05221 -1.7661 0.11389 -2.3222c0.07831 -0.706 0.7695 -1.2153 1.63446 -1.2532 1.01145 -0.0442 2.58298 -0.0891 4.79578 -0.0891 2.2129 0 3.7843 0.0449 4.7958 0.0891 0.865 0.0379 1.5561 0.5472 1.6344 1.2532 0.0617 0.5561 0.1139 1.3222 0.1139 2.3222s-0.0522 1.766 -0.1139 2.3222Zm22.0094 0c-0.1134 0.706 -1.1151 1.2153 -2.3686 1.2531 -1.4658 0.0443 -3.7432 0.0891 -6.9501 0.0891s-5.4843 -0.0448 -6.9501 -0.0891c-1.2535 -0.0378 -2.2551 -0.5471 -2.3686 -1.2531 -0.0894 -0.5562 -0.1651 -1.3222 -0.1651 -2.3222s0.0757 -1.7661 0.1651 -2.3222c0.1135 -0.706 1.1151 -1.2153 2.3686 -1.2532 1.4658 -0.0442 3.7432 -0.0891 6.9501 -0.0891s5.4843 0.0449 6.9501 0.0891c1.2535 0.0379 2.2552 0.5472 2.3686 1.2532 0.0894 0.5561 0.1651 1.3222 0.1651 2.3222s-0.0757 1.766 -0.1651 2.3222Zm0.0949 10.2255c-0.0482 0.706 -0.4739 1.2154 -1.0066 1.2532 -0.623 0.0442 -1.5908 0.0891 -2.9537 0.0891s-2.3308 -0.0449 -2.9537 -0.0891c-0.5328 -0.0378 -0.9585 -0.5471 -1.0067 -1.2531 -0.038 -0.5562 -0.0701 -1.3223 -0.0701 -2.3222 0 -1 0.0321 -1.7661 0.0701 -2.3222 0.0482 -0.706 0.4739 -1.2153 1.0067 -1.2532 0.6229 -0.0442 1.5908 -0.0891 2.9537 -0.0891s2.3307 0.0449 2.9537 0.0891c0.5327 0.0379 0.9584 0.5472 1.0066 1.2532 0.038 0.5561 0.0702 1.3222 0.0702 2.3222 0 0.9999 -0.0322 1.766 -0.0702 2.3221ZM38.482 47.3116c1.5301 -0.0379 2.7527 -0.5472 2.8912 -1.2532 0.1091 -0.5561 0.2015 -1.3222 0.2015 -2.3222 0 -0.9999 -0.0924 -1.766 -0.2015 -2.3221 -0.1385 -0.706 -1.3611 -1.2154 -2.8912 -1.2532 -1.7891 -0.0442 -4.5689 -0.0891 -8.4832 -0.0891s-6.6941 0.0449 -8.4832 0.0891c-1.53 0.0379 -2.7527 0.5472 -2.8912 1.2532 -0.1091 0.5561 -0.2015 1.3222 -0.2015 2.3221 0 1 0.0924 1.7661 0.2015 2.3222 0.1385 0.706 1.3612 1.2153 2.8912 1.2532 1.7891 0.0442 4.5689 0.0891 8.4832 0.0891s6.6941 -0.0449 8.4832 -0.0891Zm-8.2704 -11.5457c-0.1436 0.706 -1.4107 1.2154 -2.9965 1.2532 -1.8543 0.0442 -4.7353 0.0891 -8.7922 0.0891s-6.9379 -0.0449 -8.79223 -0.0891c-1.58575 -0.0378 -2.85292 -0.5471 -2.99648 -1.2531 -0.11308 -0.5562 -0.20881 -1.3223 -0.20881 -2.3222 0 -1 0.09573 -1.7661 0.20881 -2.3222 0.14356 -0.706 1.41073 -1.2153 2.99648 -1.2532 1.85433 -0.0442 4.73533 -0.0891 8.79223 -0.0891s6.9379 0.0449 8.7922 0.0891c1.5858 0.0379 2.8529 0.5472 2.9965 1.2532 0.1131 0.5561 0.2088 1.3222 0.2088 2.3222 0 0.9999 -0.0957 1.766 -0.2088 2.3221ZM14.1401 47.3116c0.5885 -0.0379 1.0587 -0.5472 1.112 -1.2532 0.042 -0.5561 0.0775 -1.3222 0.0775 -2.3222 0 -0.9999 -0.0355 -1.766 -0.0775 -2.3221 -0.0533 -0.706 -0.5235 -1.2154 -1.112 -1.2532 -0.6881 -0.0442 -1.7572 -0.0891 -3.2627 -0.0891 -1.50543 0 -2.57455 0.0449 -3.26266 0.0891 -0.58845 0.0379 -1.05869 0.5472 -1.11196 1.2532 -0.04196 0.5561 -0.07749 1.3222 -0.07749 2.3221 0 1 0.03553 1.7661 0.07749 2.3222 0.05327 0.706 0.52351 1.2153 1.11196 1.2532 0.68811 0.0442 1.75724 0.0891 3.26266 0.0891 1.5055 0 2.5746 -0.0449 3.2627 -0.0891Z" clip-rule="evenodd" stroke-width="1"></path></svg>