<svg xmlns="http://www.w3.org/2000/svg" fill="none" viewBox="0 0 48 48" id="Erlenmeyer-Flask--Streamline-Plump"><desc>Erlenmeyer Flask Streamline Icon: https://streamlinehq.com</desc><g id="erlenmeyer-flask--science-experiment-lab-flask-chemistry-solution"><path id="Subtract" fill="#000000" fill-rule="evenodd" d="M14.5125 1.01556C16.717 0.762166 19.9709 0.5 24 0.5c4.0292 0 7.2832 0.262173 9.4877 0.51557 2.6722 0.30716 3.7799 3.30755 2.29 5.35047l-1.9393 2.65902c-0.2565 0.35174 -0.4168 0.76437 -0.4648 1.19704l-0.7765 6.9882c-0.0161 0.1446 0.0361 0.3041 0.1517 0.421 5.3393 5.401 8.7369 9.5743 10.8002 12.3984 0.9876 1.3518 1.7657 2.629 2.2579 4.0459 0.4983 1.4341 0.6754 2.9281 0.5769 4.6893 -0.1096 1.9609 -0.9739 3.9187 -2.2497 5.4205 -1.2739 1.4995 -3.0853 2.6868 -5.1845 2.8411 -3.295 0.2423 -8.206 0.4735 -14.9496 0.4735 -6.7437 0 -11.6546 -0.2312 -14.94955 -0.4735 -2.0992 -0.1543 -3.91054 -1.3415 -5.18439 -2.841 -1.2758 -1.5017 -2.14015 -3.4595 -2.24982 -5.4203 -0.09851 -1.7613 0.07859 -3.2553 0.57683 -4.6896 0.49222 -1.4169 1.27036 -2.6942 2.25803 -4.046 2.06342 -2.8242 5.46106 -6.9974 10.8004 -12.3983 0.1155 -0.1169 0.1677 -0.2764 0.1516 -0.421l-0.7764 -6.9882c-0.0481 -0.43267 -0.2083 -0.8453 -0.4649 -1.19704l-1.9393 -2.65904c-1.4899 -2.04291 -0.3822 -5.04329 2.29 -5.35046ZM31.0523 23.4146c-0.7966 -0.7652 -2.0626 -0.7398 -2.8279 0.0568 -0.7652 0.7965 -0.7398 2.0626 0.0568 2.8278 2.3225 2.2311 4.0845 4.3711 5.2622 5.948 0.5882 0.7876 1.0286 1.432 1.3185 1.8736 0.1449 0.2207 0.252 0.3905 0.321 0.5019 0.0345 0.0557 0.0594 0.0967 0.0748 0.1222l0.0158 0.0264 0.0019 0.0031 0.0006 0.0011c0.5594 0.9513 1.7839 1.2698 2.736 0.7113 0.9527 -0.5589 1.272 -1.7843 0.7131 -2.7371l-0.0008 -0.0014 -0.004 -0.0067 -0.0084 -0.0143 -0.0281 -0.0468c-0.0236 -0.0392 -0.0571 -0.0942 -0.1004 -0.1642 -0.0866 -0.1398 -0.2126 -0.3392 -0.3776 -0.5906 -0.3299 -0.5025 -0.8165 -1.2137 -1.4575 -2.072 -1.2806 -1.7147 -3.1852 -4.0271 -5.696 -6.4391Z" clip-rule="evenodd" stroke-width="1"></path></g></svg>