<svg xmlns="http://www.w3.org/2000/svg" fill="none" viewBox="0 0 48 48" id="Facebook-Logo-2--Streamline-Plump"><desc>Facebook Logo 2 Streamline Icon: https://streamlinehq.com</desc><g id="facebook-logo-2--media-facebook-social"><path id="Union" fill="#000000" fill-rule="evenodd" d="M38.8529 2.9702c-0.2199 -1.5554 -1.61 -2.5175 -3.0953 -2.4896 -5.6743 0.1064 -10.2942 0.7241 -13.477 3.3289 -3.1402 2.57 -4.7627 6.9648 -4.8329 14.2604h-5.2941c-1.4305 0 -2.7944 0.9003 -3.0136 2.4245 -0.1676 1.1651 -0.2542 2.7672 0.0083 4.684 0.2239 1.6349 1.6896 2.6967 3.2619 2.6967h5.0351v16.3015c0 1.5511 1.041 2.9706 2.6565 3.1742 0.7585 0.0955 1.6726 0.1692 2.6884 0.1692 1.1147 0 2.1852 -0.0887 3.0777 -0.197 1.6691 -0.2026 2.8027 -1.6552 2.8027 -3.2825V27.8751h7.003c1.5224 0 2.9751 -1.0016 3.1961 -2.606 0.2471 -1.795 0.1484 -3.4269 -0.022 -4.6433 -0.2206 -1.5751 -1.6209 -2.5559 -3.1225 -2.5559H28.673c0.0138 -1.4106 0.0888 -2.5667 0.2649 -3.5174 0.1959 -1.058 0.5115 -1.8298 0.9784 -2.4062 0.9249 -1.1421 2.5827 -1.6819 5.7443 -1.8323 1.5154 -0.0721 2.9789 -1.0672 3.2022 -2.6903 0.2529 -1.8399 0.1593 -3.4579 -0.0099 -4.6535Z" clip-rule="evenodd" stroke-width="1"></path></g></svg>