<svg xmlns="http://www.w3.org/2000/svg" fill="none" viewBox="0 0 48 48" id="Face-Scan-1--Streamline-Plump"><desc>Face Scan 1 Streamline Icon: https://streamlinehq.com</desc><g id="face-scan-1--identification-angle-secure-human-id-person-face-security-brackets"><path id="Union" fill="#000000" fill-rule="evenodd" d="M16.4989 3.92401c0.0419 1.38007 -1.0428 2.53288 -2.4229 2.57486l-6.31073 0.19196c-0.5816 0.04662 -1.02749 0.49252 -1.07416 1.07394l-0.19225 6.31133c-0.04203 1.3801 -1.19488 2.4648 -2.57495 2.4228 -1.38007 -0.0421 -2.46476 -1.1949 -2.42273 -2.575l0.19363 -6.35679c0.00073 -0.02389 0.0018 -0.04777 0.00321 -0.07163 0.18542 -3.13208 2.66646 -5.61262 5.79837 -5.79775 0.02382 -0.00141 0.04766 -0.00248 0.07151 -0.0032l6.3561 -0.19335c1.3801 -0.04198 2.5329 1.04276 2.5749 2.42283ZM33.924 6.49887c-1.3801 -0.04198 -2.4648 -1.19479 -2.4228 -2.57486 0.042 -1.38007 1.1948 -2.46481 2.5748 -2.42283l6.3561 0.19335c0.0239 0.00072 0.0477 0.00179 0.0716 0.0032 3.1319 0.18513 5.6129 2.66567 5.7983 5.79775 0.0014 0.02386 0.0025 0.04774 0.0032 0.07163l0.1937 6.35679c0.042 1.3801 -1.0427 2.5329 -2.4228 2.575 -1.38 0.042 -2.5329 -1.0427 -2.5749 -2.4228l-0.1923 -6.31133c-0.0466 -0.58142 -0.4925 -1.02732 -1.0741 -1.07394l-6.3108 -0.19196ZM46.4989 34.0761c0.042 -1.38 -1.0427 -2.5329 -2.4228 -2.5749 -1.38 -0.0421 -2.5329 1.0426 -2.5749 2.4227l-0.1923 6.3114c-0.0466 0.5814 -0.4925 1.0273 -1.0741 1.0739l-6.3108 0.192c-1.3801 0.042 -2.4648 1.1948 -2.4228 2.5748 0.042 1.3801 1.1948 2.4648 2.5748 2.4229l6.3561 -0.1934c0.0239 -0.0007 0.0477 -0.0018 0.0716 -0.0032 3.1319 -0.1851 5.6129 -2.6657 5.7983 -5.7977l0.0014 -0.0244 0.001 -0.0222 0.0008 -0.0251 0.1937 -6.3568Zm-44.99772 0c-0.04203 -1.38 1.04266 -2.5329 2.42273 -2.5749 1.38007 -0.0421 2.53292 1.0426 2.57495 2.4227l0.19225 6.3114c0.04667 0.5814 0.49256 1.0273 1.07417 1.0739l6.31072 0.192c1.3801 0.042 2.4648 1.1948 2.4229 2.5748 -0.042 1.3801 -1.1948 2.4648 -2.5749 2.4229l-6.35609 -0.1934c-0.02386 -0.0007 -0.0477 -0.0018 -0.07152 -0.0032 -3.1319 -0.1851 -5.61295 -2.6657 -5.79837 -5.7977 -0.00141 -0.0239 -0.00248 -0.0478 -0.00321 -0.0717l-0.19363 -6.3568Zm21.84102 -22.488c1.3321 -0.3633 2.7064 0.4221 3.0697 1.7541l2.311 8.4738c0.7808 2.8626 -1.3742 5.684 -4.3414 5.684H21c-1.3807 0 -2.5 -1.1193 -2.5 -2.5s1.1193 -2.5 2.5 -2.5h2.7269l-2.1388 -7.8422c-0.3633 -1.3321 0.422 -2.7064 1.7541 -3.0697ZM14 11.5c1.3807 0 2.5 1.1193 2.5 2.5v2c0 1.3807 -1.1193 2.5 -2.5 2.5s-2.5 -1.1193 -2.5 -2.5v-2c0 -1.3807 1.1193 -2.5 2.5 -2.5Zm0.6576 17.3908c1.1649 -0.7413 2.7101 -0.3979 3.4514 0.767 1.207 1.8967 3.4512 2.9671 5.8908 2.9671 2.4397 0 4.6839 -1.0704 5.8909 -2.9671 0.7412 -1.1649 2.2865 -1.5083 3.4513 -0.767 1.1649 0.7413 1.5083 2.2865 0.767 3.4513 -2.293 3.6033 -6.2988 5.2829 -10.1092 5.2829 -3.8103 0 -7.8161 -1.6796 -10.1091 -5.2829 -0.7413 -1.1648 -0.3979 -2.71 0.7669 -3.4513ZM31.5 14c0 -1.3807 1.1193 -2.5 2.5 -2.5s2.5 1.1193 2.5 2.5v2c0 1.3807 -1.1193 2.5 -2.5 2.5s-2.5 -1.1193 -2.5 -2.5v-2Z" clip-rule="evenodd" stroke-width="1"></path></g></svg>