<svg xmlns="http://www.w3.org/2000/svg" fill="none" viewBox="0 0 48 48" id="Film--Streamline-Plump"><desc>Film Streamline Icon: https://streamlinehq.com</desc><g id="Solid/Image Photography/Accessories/lens--photos-camera-shutter-picture-photography-pictures-photo-lens"><path id="Subtract" fill="#000000" fill-rule="evenodd" d="M39.8643 45.9561C36.5927 46.2219 31.4014 46.5 24 46.5c-7.4014 0 -12.5927 -0.2781 -15.8643 -0.5439 -3.28785 -0.2671 -5.82468 -2.8039 -6.09181 -6.0918C1.77808 36.5927 1.5 31.4014 1.5 24c0 -7.4014 0.27807 -12.5927 0.54389 -15.8643 0.26713 -3.28785 2.80396 -5.82467 6.09181 -6.0918C11.4073 1.77808 16.5986 1.5 24 1.5c7.4014 0 12.5927 0.27808 15.8643 0.54389 3.2878 0.26713 5.8247 2.80396 6.0918 6.09181 0.2658 3.2716 0.5439 8.4629 0.5439 15.8643 0 7.4014 -0.2781 12.5927 -0.5439 15.8643 -0.2671 3.2879 -2.804 5.8247 -6.0918 6.0918ZM24 22c-2.9807 0 -5.1316 -0.0757 -6.5549 -0.1535 -1.9632 -0.1074 -3.6092 -1.5667 -3.7844 -3.6153 -0.088 -1.03 -0.1607 -2.4266 -0.1607 -4.2312 0 -1.8046 0.0727 -3.2012 0.1608 -4.23125 0.1751 -2.0486 1.8211 -3.50789 3.7843 -3.61521C18.8684 6.07574 21.0193 6 24 6s5.1316 0.07574 6.5549 0.15355c1.9632 0.10731 3.6092 1.5666 3.7843 3.6152C34.4273 10.7988 34.5 12.1954 34.5 14c0 1.8046 -0.0727 3.2012 -0.1608 4.2313 -0.1751 2.0486 -1.8211 3.5078 -3.7843 3.6152C29.1316 21.9243 26.9807 22 24 22Zm0 20c-2.9807 0 -5.1316 -0.0757 -6.5549 -0.1535 -1.9632 -0.1074 -3.6092 -1.5667 -3.7844 -3.6153 -0.088 -1.03 -0.1607 -2.4266 -0.1607 -4.2312 0 -1.8046 0.0727 -3.2012 0.1608 -4.2312 0.1751 -2.0486 1.8211 -3.5079 3.7843 -3.6153C18.8684 26.0757 21.0193 26 24 26s5.1316 0.0757 6.5549 0.1535c1.9632 0.1074 3.6092 1.5667 3.7843 3.6153 0.0881 1.03 0.1608 2.4266 0.1608 4.2312 0 1.8046 -0.0727 3.2012 -0.1608 4.2313 -0.1751 2.0486 -1.8211 3.5078 -3.7843 3.6152C29.1316 41.9243 26.9807 42 24 42Zm17 -24.5c0.8284 0 1.5 -0.6716 1.5 -1.5s-0.6716 -1.5 -1.5 -1.5h-2c-0.8284 0 -1.5 0.6716 -1.5 1.5s0.6716 1.5 1.5 1.5h2Zm1.5 6.5c0 0.8284 -0.6716 1.5 -1.5 1.5h-2c-0.8284 0 -1.5 -0.6716 -1.5 -1.5s0.6716 -1.5 1.5 -1.5h2c0.8284 0 1.5 0.6716 1.5 1.5ZM41 33.5c0.8284 0 1.5 -0.6716 1.5 -1.5s-0.6716 -1.5 -1.5 -1.5h-2c-0.8284 0 -1.5 0.6716 -1.5 1.5s0.6716 1.5 1.5 1.5h2Zm1.5 6.5c0 0.8284 -0.6716 1.5 -1.5 1.5h-2c-0.8284 0 -1.5 -0.6716 -1.5 -1.5s0.6716 -1.5 1.5 -1.5h2c0.8284 0 1.5 0.6716 1.5 1.5ZM41 9.5c0.8284 0 1.5 -0.67157 1.5 -1.5s-0.6716 -1.5 -1.5 -1.5h-2c-0.8284 0 -1.5 0.67157 -1.5 1.5s0.6716 1.5 1.5 1.5h2ZM5.5 16c0 0.8284 0.67157 1.5 1.5 1.5h2c0.82843 0 1.5 -0.6716 1.5 -1.5s-0.67157 -1.5 -1.5 -1.5H7c-0.82843 0 -1.5 0.6716 -1.5 1.5ZM7 25.5c-0.82843 0 -1.5 -0.6716 -1.5 -1.5s0.67157 -1.5 1.5 -1.5h2c0.82843 0 1.5 0.6716 1.5 1.5s-0.67157 1.5 -1.5 1.5H7ZM5.5 32c0 0.8284 0.67157 1.5 1.5 1.5h2c0.82843 0 1.5 -0.6716 1.5 -1.5s-0.67157 -1.5 -1.5 -1.5H7c-0.82843 0 -1.5 0.6716 -1.5 1.5ZM7 41.5c-0.82843 0 -1.5 -0.6716 -1.5 -1.5s0.67157 -1.5 1.5 -1.5h2c0.82843 0 1.5 0.6716 1.5 1.5s-0.67157 1.5 -1.5 1.5H7ZM5.5 8c0 0.82843 0.67157 1.5 1.5 1.5h2c0.82843 0 1.5 -0.67157 1.5 -1.5S9.82843 6.5 9 6.5H7c-0.82843 0 -1.5 0.67157 -1.5 1.5Z" clip-rule="evenodd" stroke-width="1"></path></g></svg>