<svg xmlns="http://www.w3.org/2000/svg" fill="none" viewBox="0 0 48 48" id="Finger-Point-Right--Streamline-Plump"><desc>Finger Point Right Streamline Icon: https://streamlinehq.com</desc><g id="Solid/Interface Essential/Hand Gestures/finger-point-right"><path id="Union (Stroke)" fill="#000000" fill-rule="evenodd" d="M46.3887 19.118c0.0473 0.4334 0.0761 0.8873 0.0761 1.3506 0 0.4851 -0.0315 0.96 -0.0829 1.4118 -0.2887 2.5406 -2.551 4.1175 -4.9541 4.3219 -3.1275 0.2661 -7.5333 0.6082 -9.9776 0.65 -0.1495 1.7668 -0.7973 8.2884 -2.6806 13.9969 -0.9941 3.0133 -3.9589 4.7258 -7.0704 4.3788 -3.7269 -0.4157 -9.2133 -1.3793 -14.82175 -3.616 -2.87924 -1.1483 -4.83643 -3.7797 -5.12474 -6.8638 -0.47706 -5.1035 -0.35716 -10.2722 0.19908 -15.3638 0.25008 -2.2891 1.25061 -4.4322 2.89768 -6.0554C9.69589 8.55284 15.1119 5.11921 17.7958 3.5543c1.8002 -1.04968 3.6328 -1.02762 5.5064 -0.27053 3.6505 1.47511 4.1016 6.09042 1.417 8.77343 -0.8626 0.8622 -1.6681 1.5412 -2.2956 2.0288 7.4163 0.0499 14.7023 0.4418 18.9296 0.7128 2.4418 0.1565 4.7541 1.7408 5.0355 4.3192Z" clip-rule="evenodd" stroke-width="1"></path></g></svg>