<svg xmlns="http://www.w3.org/2000/svg" fill="none" viewBox="0 0 48 48" id="Finger-Point-Up--Streamline-Plump"><desc>Finger Point Up Streamline Icon: https://streamlinehq.com</desc><g id="Solid/Interface Essential/Hand Gestures/finger-point-up"><path id="Union (Stroke)" fill="#000000" fill-rule="evenodd" d="M19.0731 1.5761c0.4334 -0.0473 0.8873 -0.0761 1.3506 -0.0761 0.4851 0 0.96 0.03158 1.4118 0.08293 2.5406 0.2887 4.1175 2.55105 4.3219 4.95413 0.2661 3.12753 0.6082 7.53334 0.65 9.97754 1.7668 0.1496 8.2883 0.7974 13.9969 2.6807 3.0133 0.9941 4.7258 3.9588 4.3787 7.0704 -0.4156 3.7268 -1.3792 9.2132 -3.616 14.8217 -1.1482 2.8792 -3.7796 4.8364 -6.8637 5.1247 -5.1035 0.4771 -10.2722 0.3572 -15.3638 -0.199 -2.2891 -0.2501 -4.4322 -1.2507 -6.0554 -2.8977 -4.77618 -4.8464 -8.20981 -10.2625 -9.77472 -12.9463 -1.04968 -1.8003 -1.02762 -3.6329 -0.27053 -5.5065 1.47511 -3.6505 6.09042 -4.1015 8.77345 -1.417 0.8622 0.8627 1.5411 1.6681 2.0288 2.2957 0.0499 -7.4163 0.4418 -14.7023 0.7128 -18.92966 0.1565 -2.44175 1.7408 -4.75412 4.3192 -5.03554Z" clip-rule="evenodd" stroke-width="1"></path></g></svg>