<svg xmlns="http://www.w3.org/2000/svg" fill="none" viewBox="0 0 48 48" id="Finger-Point-Left--Streamline-Plump"><desc>Finger Point Left Streamline Icon: https://streamlinehq.com</desc><g id="Solid/Interface Essential/Hand Gestures/finger-point-left"><path id="Union (Stroke)" fill="#000000" fill-rule="evenodd" d="M1.53314 19.118c-0.0473 0.4334 -0.07611 0.8873 -0.07611 1.3506 0 0.4851 0.03159 0.96 0.08293 1.4118 0.2887 2.5406 2.55105 4.1175 4.95413 4.3219 3.12753 0.2661 7.53331 0.6082 9.97761 0.65 0.1495 1.7668 0.7973 8.2884 2.6806 13.9969 0.9941 3.0133 3.9589 4.7258 7.0704 4.3788 3.7269 -0.4157 9.2132 -1.3793 14.8217 -3.616 2.8793 -1.1483 4.8365 -3.7797 5.1248 -6.8638 0.477 -5.1035 0.3571 -10.2722 -0.1991 -15.3638 -0.2501 -2.2891 -1.2506 -4.4322 -2.8977 -6.0554C38.226 8.55284 32.81 5.11921 30.1261 3.5543c-1.8002 -1.04968 -3.6329 -1.02762 -5.5065 -0.27053 -3.6504 1.47511 -4.1015 6.09042 -1.4169 8.77343 0.8626 0.8622 1.6681 1.5412 2.2956 2.0288 -7.4163 0.0499 -14.7023 0.4418 -18.92963 0.7128 -2.44175 0.1565 -4.75412 1.7408 -5.03553 4.3192Z" clip-rule="evenodd" stroke-width="1"></path></g></svg>