<svg xmlns="http://www.w3.org/2000/svg" fill="none" viewBox="0 0 48 48" id="Finger-Point-Down--Streamline-Plump"><desc>Finger Point Down Streamline Icon: https://streamlinehq.com</desc><g id="Solid/Interface Essential/Hand Gestures/finger-point-down"><path id="Union (Stroke)" fill="#000000" fill-rule="evenodd" d="M19.075 46.4337c0.4334 0.0473 0.8873 0.0761 1.3506 0.0761 0.4852 0 0.9601 -0.0316 1.4119 -0.083 2.5406 -0.2887 4.1175 -2.551 4.3219 -4.9541 0.266 -3.1275 0.6081 -7.5333 0.6499 -9.9776 1.7668 -0.1495 8.2884 -0.7973 13.9969 -2.6806 3.0133 -0.9941 4.7258 -3.9589 4.3788 -7.0704 -0.4157 -3.7269 -1.3792 -9.2133 -3.616 -14.82172 -1.1483 -2.87925 -3.7796 -4.83643 -6.8638 -5.12474 -5.1034 -0.47707 -10.2721 -0.35717 -15.3638 0.19907 -2.2891 0.25008 -4.4322 1.25062 -6.0553 2.89768C8.50988 9.74081 5.07624 15.1568 3.51134 17.8407c-1.04969 1.8002 -1.02763 3.6329 -0.27053 5.5064 1.4751 3.6505 6.09042 4.1016 8.77349 1.417 0.8621 -0.8626 1.5411 -1.6681 2.0287 -2.2956 0.05 7.4163 0.4418 14.7023 0.7128 18.9296 0.1565 2.4418 1.7408 4.7541 4.3192 5.0356Z" clip-rule="evenodd" stroke-width="1"></path></g></svg>