<svg xmlns="http://www.w3.org/2000/svg" fill="none" viewBox="0 0 48 48" id="Fingers-Cross--Streamline-Plump"><desc>Fingers Cross Streamline Icon: https://streamlinehq.com</desc><g id="Solid/Interface Essential/Hand Gestures/fingers-cross"><path id="Subtract" fill="#000000" fill-rule="evenodd" d="M28.261 0.503c0.0237 0.0346 0.0469 0.0695 0.0698 0.1048 1.4727 2.2699 4.1737 6.7148 6.6981 12.3666v0.0038l1.9938 -4.6002c1.2403 -2.8619 -0.1424 -6.4288 -3.4512 -7.166 -1.7068 -0.3802 -3.2236 -0.5911 -4.3837 -0.7083 -0.3149 -0.0319 -0.6248 -0.0311 -0.9268 -0.0007Zm5.2878 15.8906 -0.0025 0.0022c-2.4583 -6.095 -4.9882 -10.3654 -6.3364 -12.4486 -0.5234 -0.8088 -1.3003 -1.4212 -2.2168 -1.6139l0.0001 -0.0001c-0.168 -0.0353 -0.3406 -0.0566 -0.5173 -0.0623 -1.5041 -0.049 -3.7145 0.2294 -5.5374 1.8812 -1.1609 1.0521 -1.165 2.7901 -0.5309 4.2347l1.8918 4.31 3.0839 7.0259c-0.2995 0.4748 -0.988 0.6644 -1.495 0.1727 -0.8386 -0.8132 -2.0718 -2.077 -3.3925 -3.6641l-0.722 1.3587c-0.0532 0.1 -0.1405 0.1819 -0.2511 0.2299 -2.1973 0.9555 -5.0504 2.2693 -7.6105 3.8384 -3.2932 2.0184 -4.7962 5.8068 -4.0989 9.5143 0.683 3.6316 1.9435 7.9666 3.6106 11.1521 1.3069 2.497 3.6708 4.1838 6.421 4.6726 1.6478 0.2929 3.9069 0.5227 6.9418 0.5227 4.1416 0 7.0956 -0.4279 8.996 -0.8474 1.8618 -0.4111 3.6476 -1.3323 4.9777 -2.8426 3.0972 -3.5171 5.5937 -9.4887 5.5937 -14.8742 0 -2.1543 -0.7928 -3.8807 -2.2838 -5.0211 -1.2036 -0.9204 -2.7287 -1.3565 -4.341 -1.4701 -0.0003 -0.0012 -0.0007 -0.0023 -0.0011 -0.0035l-0.0011 0.0037 0.0227 0.0017c-3.2198 0.4634 -6.9258 1.3329 -10.182 2.2205 -1.3161 0.3588 -2.0159 1.4286 -1.8856 2.453 0.0397 0.3129 0.0897 0.6372 0.1519 0.9677 0.218 1.157 1.4127 2.1028 3.142 2.1028h3.8775l0.0668 -0.0013c0.1342 -0.0023 0.2424 -0.002 0.3203 -0.001 0.039 0.0004 0.0704 0.0011 0.0938 0.0016l0.024 0.0007h0.5782c0.9699 0 1.7561 0.7862 1.7561 1.7561s-0.7862 1.7561 -1.7561 1.7561H30.894c-0.193 0.0047 -0.4526 0.0164 -0.7584 0.0431 -0.7153 0.0624 -1.6348 0.2026 -2.5273 0.5014 -0.9011 0.3015 -1.671 0.7299 -2.2024 1.3024 -0.4948 0.5328 -0.8636 1.2724 -0.8636 2.4174 0 0.9699 -0.7863 1.7561 -1.7562 1.7561S21.03 38.9569 21.03 37.987c0 -2.0212 0.6973 -3.6174 1.8019 -4.8071 0.1406 -0.1514 0.2863 -0.2947 0.4361 -0.4303 -1.4148 -0.8139 -2.5367 -2.141 -2.8854 -3.9916 -0.0763 -0.4052 -0.1368 -0.799 -0.1847 -1.175 -0.3915 -3.08 1.7706 -5.5552 4.4462 -6.2846 3.0323 -0.8265 6.6231 -1.6885 9.9358 -2.2069 -0.3288 -0.9036 -0.6729 -1.8016 -1.0328 -2.6939l0.0017 -0.004Z" clip-rule="evenodd" stroke-width="1"></path></g></svg>