<svg xmlns="http://www.w3.org/2000/svg" fill="none" viewBox="0 0 48 48" id="Fingerprint-1--Streamline-Plump"><desc>Fingerprint 1 Streamline Icon: https://streamlinehq.com</desc><g id="Solid/Interface Essential/ID/fingerprint-1--identification-password-touch-id-secure-fingerprint-finger-security"><path id="Union" fill="#000000" fill-rule="evenodd" d="M23.9995 0.5C12.3523 0.5 3.61769 9.52282 3.51283 21.1204 3.50412 22.0836 3.5 43.9784 3.5 45c0 1.3807 1.11929 2.5 2.5 2.5s2.5 -1.1193 2.5 -2.5c0 -1.047 0.00419 -22.9012 0.01263 -23.8344C8.59364 12.2053 15.2013 5.5 23.9995 5.5c3.1823 0 6.0399 0.87106 8.4027 2.3684 1.1662 0.73908 2.7108 0.3928 3.4499 -0.77344 0.7391 -1.16624 0.3928 -2.71081 -0.7735 -3.4499C31.9019 1.63185 28.1134 0.5 23.9995 0.5Zm17.1239 9.14159c-0.7502 -1.1591 -2.2981 -1.49056 -3.4572 -0.74033 -1.1591 0.75022 -1.4905 2.29804 -0.7403 3.45714 1.5904 2.4573 2.5303 5.4648 2.5605 8.8072 0.0039 0.4311 0.0072 4.474 0.0095 9.8355 0.0006 1.3807 1.1204 2.4995 2.5011 2.4989 1.3807 -0.0006 2.4995 -1.1204 2.4989 -2.5011 -0.0023 -5.3391 -0.0055 -9.4189 -0.0097 -9.8785 -0.0385 -4.2651 -1.2429 -8.2036 -3.3628 -11.47881Zm3.3741 29.35751c-0.0005 -1.3807 -1.1202 -2.4996 -2.5009 -2.4991 -1.3807 0.0005 -2.4996 1.1202 -2.4991 2.5009 0.001 2.928 0.0018 4.3872 0.0022 5.171v0.0103L39.5 45c0 1.3807 1.1193 2.5 2.5 2.5s2.5 -1.1193 2.5 -2.5l-0.0003 -0.8229 -0.0001 -0.0382c-0.0003 -0.7923 -0.0011 -2.2523 -0.0021 -5.1398ZM12.5012 20.2025C12.5389 13.8684 17.4513 8.5 23.9888 8.5c6.5712 0 11.3665 5.3864 11.4777 11.6718 0.0206 1.1643 0.033 2.441 0.033 3.8282 0 1.3502 -0.0121 19.8653 -0.033 21.0442 -0.0244 1.3805 -1.1633 2.4798 -2.5438 2.4554 -1.3805 -0.0244 -2.4798 -1.1633 -2.4554 -2.5438 0.0198 -1.1205 0.0322 -19.5613 0.0322 -20.9558 0 -1.3575 -0.0121 -2.6047 -0.0322 -3.7398 -0.0681 -3.8481 -2.9147 -6.7602 -6.4785 -6.7602 -3.5866 0 -6.4652 2.9425 -6.4877 6.7323 -0.0011 0.1717 -0.0016 0.3444 -0.0016 0.5177 0 1.3807 -1.1193 2.5 -2.5 2.5s-2.5 -1.1193 -2.5 -2.5c0 -0.1835 0.0006 -0.3661 0.0017 -0.5475Zm2.4983 5.5475c1.3807 0 2.5 1.1193 2.5 2.5l0.0013 16.6842 0.0001 0.0476 0 0.0044c0.0071 1.3807 -1.1064 2.5058 -2.4871 2.5129 -1.3807 0.0071 -2.5057 -1.1063 -2.5129 -2.487 -0.0009 -0.1846 -0.0014 -16.5909 -0.0014 -16.7621 0 -1.3807 1.1193 -2.5 2.5 -2.5Zm11.5 -5.75c0 -1.3807 -1.1193 -2.5 -2.5 -2.5s-2.5 1.1193 -2.5 2.5v8c0 1.3807 1.1193 2.5 2.5 2.5s2.5 -1.1193 2.5 -2.5v-8Zm0 15c0 -1.3807 -1.1193 -2.5 -2.5 -2.5s-2.5 1.1193 -2.5 2.5l0 10c0 1.3807 1.1193 2.5 2.5 2.5s2.5 -1.1193 2.5 -2.5l0 -10Z" clip-rule="evenodd" stroke-width="1"></path></g></svg>