<svg xmlns="http://www.w3.org/2000/svg" fill="none" viewBox="0 0 48 48" id="Fire-Wall--Streamline-Plump"><desc>Fire Wall Streamline Icon: https://streamlinehq.com</desc><g id="Solid/Interface Essential/Security/fire-wall--code-firewall-programming-secure-security"><path id="Union" fill="#000000" fill-rule="evenodd" d="M24.3688 1.97568c-0.0158 -0.41388 -0.1953 -0.8029 -0.4902 -1.066878 -0.3023 -0.270577 -0.7293 -0.408554 -1.1841 -0.285076 -0.5035 0.136723 -0.9913 0.35357 -1.4462 0.649694C19.467 2.43307 17.04 4.2745 15.0541 6.73693c-1.9873 2.46418 -3.5531 5.57657 -3.5531 9.26277 0 3.8287 1.4317 6.7239 3.7419 8.6533 1.4689 1.2266 3.2747 2.0482 5.2579 2.4814v8.3652h13v-8.9048c-1.2045 -0.0272 -2.5246 -0.0496 -3.9711 -0.0659 1.1884 -0.459 2.279 -1.0828 3.2288 -1.8759 2.3102 -1.9294 3.742 -4.8246 3.742 -8.6533 0 -5.4551 -3.4249 -9.65138 -6.6 -12.37477 -0.8728 -0.74869 -2.1122 -0.22149 -2.4226 0.7585 -0.3181 1.00446 -0.724 1.86831 -1.2125 2.36053 -0.1733 0.17459 -0.5212 0.17597 -0.7403 -0.12845 -0.7968 -1.10713 -1.0916 -2.93751 -1.1563 -4.63983ZM28.501 17.9997c0 2.8003 -2.2644 4.5 -4.5 4.5s-4.5 -1.6997 -4.5 -4.5c0 -1.3742 0.7268 -2.526 1.5293 -3.3832 0.807 -0.862 1.7426 -1.4826 2.2801 -1.8033 0.4281 -0.2553 0.9531 -0.2553 1.3812 0 0.5374 0.3207 1.4731 0.9413 2.2801 1.8033 0.8024 0.8572 1.5293 2.009 1.5293 3.3832ZM17.5008 26.541v8.9586H0.511719c0.022216 -1.4782 0.076312 -2.6687 0.143233 -3.6188 0.190762 -2.7083 2.192658 -4.6551 4.855088 -4.8766 2.23684 -0.186 5.93816 -0.3804 11.99076 -0.4632Zm19 8.9586v-8.82c2.6876 0.0928 4.6158 0.2103 5.9908 0.3247 2.6624 0.2214 4.6643 2.1683 4.8551 4.8765 0.0669 0.9501 0.121 2.1406 0.1432 3.6188H36.5008Zm-25 3.0004 0 8.8201c-2.68754 -0.0929 -4.61582 -0.2104 -5.99075 -0.3247 -2.66243 -0.2215 -4.664338 -2.1683 -4.855099 -4.8766C0.58803 41.1687 0.533935 39.9782 0.511719 38.5H11.5008Zm16 8.9888 0 -8.9888h-13l0 8.9048c2.5945 0.0586 5.7255 0.0952 9.5 0.0952 1.2342 0 2.3997 -0.0039 3.5 -0.0112Zm3 -0.0301c6.0526 -0.0829 9.7539 -0.2773 11.9908 -0.4633 2.6624 -0.2214 4.6643 -2.1683 4.8551 -4.8766 0.0669 -0.9501 0.121 -2.1406 0.1432 -3.6188H30.5008l0 8.9587Z" clip-rule="evenodd" stroke-width="1"></path></g></svg>