<svg xmlns="http://www.w3.org/2000/svg" fill="none" viewBox="0 0 48 48" id="Fishing--Streamline-Plump"><desc>Fishing Streamline Icon: https://streamlinehq.com</desc><g id="fishing--fishing-fish-bait-lure-leisure-activity"><path id="Union" fill="#000000" fill-rule="evenodd" d="M8.25 3c0 -0.9665 -0.7835 -1.75 -1.75 -1.75S4.75 2.0335 4.75 3v2.5c0 0.14457 -0.05857 0.3745 -0.35109 0.72947 -0.29938 0.3633 -0.73707 0.72688 -1.26441 1.10799C1.69344 8.3789 0.75 10.0793 0.75 12c0 3.1756 2.57436 5.75 5.75 5.75s5.75 -2.5744 5.75 -5.75c0 -0.9665 -0.7835 -1.75 -1.75 -1.75s-1.75 0.7835 -1.75 1.75c0 1.2426 -1.00736 2.25 -2.25 2.25S4.25 13.2426 4.25 12c0 -0.7497 0.36496 -1.4141 0.9346 -1.8258 0.59172 -0.42764 1.32426 -1.00161 1.91534 -1.71887C7.69787 7.72975 8.25 6.73614 8.25 5.5V3Zm11.9167 14c-4.5836 0 -8.3814 2.1606 -11.0136 5.0804C6.53604 24.9834 5 28.7142 5 32c0 3.2858 1.53604 7.0166 4.1531 9.9196C11.7853 44.8394 15.5831 47 20.1667 47c7.3044 0 13.4157 -4.3071 17.0514 -8.3171 0.0861 0.2035 0.1793 0.4088 0.2799 0.6158 1.1951 2.4595 3.8519 4.0559 5.5869 4.8964 1.6519 0.8001 3.4722 -0.2724 3.6959 -2.0326 0.1417 -1.1157 0.2626 -2.5676 0.2039 -4.0439 -0.0582 -1.4612 -0.2949 -3.0312 -0.9269 -4.3319 -0.3936 -0.81 -0.8294 -1.5021 -1.303 -2.0731 0.4736 -0.571 0.9094 -1.263 1.303 -2.0731 0.632 -1.3006 0.8687 -2.8706 0.9269 -4.3318 0.0587 -1.4764 -0.0622 -2.9282 -0.2039 -4.044 -0.2237 -1.7602 -2.044 -2.8327 -3.6959 -2.0325 -1.735 0.8404 -4.3918 2.4368 -5.5869 4.8963 -0.1665 0.3427 -0.313 0.6808 -0.4398 1.0137C33.406 21.1843 27.366 17 20.1667 17Zm-0.0739 4.4072c0.6429 -0.4574 1.5349 -0.3069 1.9922 0.336 1.8455 2.5944 2.6826 6.363 2.6826 9.971 0 3.6081 -0.8371 7.3767 -2.6826 9.9711 -0.4573 0.6429 -1.3493 0.7933 -1.9922 0.336s-0.7934 -1.3492 -0.336 -1.9922c1.3787 -1.9382 2.1536 -5.0462 2.1536 -8.3149 0 -3.2686 -0.7749 -6.3767 -2.1536 -8.3149 -0.4574 -0.6429 -0.3069 -1.5348 0.336 -1.9921Zm8.3087 5.1423c0.7478 -0.2515 1.5579 0.151 1.8093 0.8988 0.3891 1.1575 0.5507 2.768 0.5507 4.2649 0 1.4968 -0.1616 3.1073 -0.5507 4.2648 -0.2514 0.7478 -1.0615 1.1503 -1.8093 0.8988 -0.7479 -0.2514 -1.1503 -1.0615 -0.8989 -1.8093 0.2458 -0.7312 0.4017 -1.9859 0.4017 -3.3543 0 -1.3685 -0.1559 -2.6232 -0.4017 -3.3544 -0.2514 -0.7478 0.151 -1.5579 0.8989 -1.8093Zm-11.4486 1.3557c0 -0.789 -0.6396 -1.4286 -1.4286 -1.4286 -0.789 0 -1.4286 0.6396 -1.4286 1.4286v0.9523c0 0.789 0.6396 1.4286 1.4286 1.4286 0.789 0 1.4286 -0.6396 1.4286 -1.4286v-0.9523Z" clip-rule="evenodd" stroke-width="1"></path></g></svg>