<svg xmlns="http://www.w3.org/2000/svg" fill="none" viewBox="0 0 48 48" id="Fist-Bump--Streamline-Plump"><desc>Fist Bump Streamline Icon: https://streamlinehq.com</desc><path fill="#000000" fill-rule="evenodd" d="M26.5006 5.2832c0 -1.38071 -1.1193 -2.5 -2.5 -2.5s-2.5 1.11929 -2.5 2.5v8.3894c0 1.3807 1.1193 2.5 2.5 2.5s2.5 -1.1193 2.5 -2.5V5.2832Zm-6.6023 36.9402c1.9071 -5.203 1.6837 -9.119 1.4943 -11.9605 -0.1221 -1.831 -1.5292 -3.1926 -3.2424 -3.4833l-1.2422 -0.2107c0.125 -1.7833 -0.3644 -3.0971 -1.1668 -3.9993 -0.9029 -1.0154 -2.1062 -1.3944 -2.8919 -1.3944 -2.3 0 -5.01219 0.11 -7.34708 1.174 -1.43348 0.6533 -2.54378 1.3508 -3.89075 2.3047 -0.26473 0.1875 -0.42208 0.4917 -0.42208 0.8161v16.2038c0 0.3737 0.20835 0.7162 0.54019 0.888l0.15715 0.0814c1.0861 0.5628 2.4409 1.2647 3.59752 1.7132 0.64717 0.2509 1.31498 0.3887 1.97543 0.4477 1.36428 0.1219 4.20122 0.3375 7.88982 0.4122 1.9495 0.0394 3.8416 -1.0636 4.5488 -2.9929Zm8.2046 0c-1.9071 -5.203 -1.6837 -9.119 -1.4943 -11.9605 0.1221 -1.831 1.5292 -3.1926 3.2424 -3.4833l1.2422 -0.2107c-0.125 -1.7833 0.3644 -3.0971 1.1668 -3.9993 0.9029 -1.0154 2.1062 -1.3944 2.8919 -1.3944 2.3001 0 5.0122 0.11 7.3471 1.174 1.4335 0.6533 2.5438 1.3508 3.8907 2.3047 0.2648 0.1875 0.4221 0.4917 0.4221 0.8161v16.2038c0 0.3737 -0.2083 0.7162 -0.5402 0.888l-0.1571 0.0814c-1.0861 0.5628 -2.4409 1.2647 -3.5976 1.7132 -0.6471 0.2509 -1.3149 0.3887 -1.9754 0.4477 -1.3643 0.1219 -4.2012 0.3375 -7.8898 0.4122 -1.9495 0.0394 -3.8416 -1.0636 -4.5488 -2.9929ZM10.5727 9.36016c0.9763 -0.97631 2.5592 -0.97631 3.5355 0l5.0893 5.08924c0.9763 0.9763 0.9763 2.5592 0 3.5355 -0.9764 0.9763 -2.5593 0.9763 -3.5356 0l-5.0892 -5.0892c-0.97633 -0.9763 -0.97633 -2.5592 0 -3.53554Zm23.3203 0c0.9763 -0.97631 2.5592 -0.97631 3.5355 0 0.9763 0.97634 0.9763 2.55924 0 3.53554l-5.0892 5.0892c-0.9763 0.9763 -2.5592 0.9763 -3.5356 0 -0.9763 -0.9763 -0.9763 -2.5592 0 -3.5355l5.0893 -5.08924Z" clip-rule="evenodd" stroke-width="1"></path></svg>