<svg xmlns="http://www.w3.org/2000/svg" fill="none" viewBox="0 0 48 48" id="Fit-Screen--Streamline-Plump"><desc>Fit Screen Streamline Icon: https://streamlinehq.com</desc><g id="Solid/Interface Essential/Page Controller/fit-screen--fit-screen-adjust-display-artboard-frame-corner"><path id="Union" fill="#000000" fill-rule="evenodd" d="M6.36637 1.67266C7.7516 1.57724 9.37439 1.5 11 1.5c2.595 0 5.1853 0.19688 6.8161 0.35095 1.2388 0.11705 2.2813 1.01712 2.4941 2.27191 0.1013 0.59769 0.1898 1.27575 0.1898 1.83786 0 0.48935 -0.067 1.06464 -0.1503 1.59578 -0.22 1.40248 -1.4648 2.33553 -2.8311 2.33553H9.8921v7.63107c0 1.3635 -0.92982 2.6078 -2.33094 2.8273 -0.53029 0.0831 -1.10581 0.1496 -1.6004 0.1496 -0.56835 0 -1.24597 -0.088 -1.84224 -0.1891 -1.2533 -0.2125 -2.15032 -1.2545 -2.26718 -2.4908C1.69721 16.1896 1.5 13.5972 1.5 11c0 -1.62561 0.07724 -3.2484 0.17266 -4.63363C1.847 3.83533 3.83533 1.847 6.36637 1.67266Zm35.26723 0C40.2484 1.57724 38.6256 1.5 37 1.5c-2.595 0 -5.1853 0.19688 -6.8161 0.35095 -1.2388 0.11705 -2.2813 1.01712 -2.4941 2.27191 -0.1013 0.59769 -0.1898 1.27575 -0.1898 1.83786 0 0.48935 0.067 1.06464 0.1503 1.59578 0.22 1.40248 1.4648 2.33553 2.8311 2.33553h7.6265v7.63107c0 1.3635 0.9298 2.6078 2.3309 2.8273 0.5303 0.0831 1.1059 0.1496 1.6004 0.1496 0.5684 0 1.246 -0.088 1.8423 -0.1891 1.2533 -0.2125 2.1503 -1.2545 2.2672 -2.4908 0.1541 -1.6305 0.3513 -4.2229 0.3513 -6.8201 0 -1.62561 -0.0772 -3.2484 -0.1727 -4.63363 -0.1743 -2.53104 -2.1626 -4.51937 -4.6937 -4.69371ZM37 46.5c1.6256 0 3.2484 -0.0772 4.6336 -0.1727 2.5311 -0.1743 4.5194 -2.1626 4.6937 -4.6937 0.0955 -1.3852 0.1727 -3.008 0.1727 -4.6336 0 -2.5972 -0.1972 -5.1896 -0.3513 -6.8201 -0.1169 -1.2363 -1.0139 -2.2783 -2.2672 -2.4908 -0.5963 -0.1011 -1.2739 -0.1891 -1.8423 -0.1891 -0.4945 0 -1.0701 0.0665 -1.6004 0.1496 -1.4011 0.2195 -2.3309 1.4638 -2.3309 2.8273v7.6311h-7.6265c-1.3663 0 -2.6111 0.933 -2.8311 2.3355 -0.0833 0.5311 -0.1503 1.1064 -0.1503 1.5958 0 0.5621 0.0885 1.2401 0.1898 1.8378 0.2128 1.2548 1.2553 2.1549 2.4941 2.2719 1.6308 0.1541 4.2211 0.351 6.8161 0.351Zm-30.63363 -0.1727C7.7516 46.4228 9.37439 46.5 11 46.5c2.595 0 5.1853 -0.1969 6.8161 -0.351 1.2388 -0.117 2.2813 -1.0171 2.4941 -2.2719 0.1013 -0.5977 0.1898 -1.2757 0.1898 -1.8378 0 -0.4894 -0.067 -1.0647 -0.1503 -1.5958 -0.22 -1.4025 -1.4648 -2.3355 -2.8311 -2.3355H9.8921v-7.6311c0 -1.3635 -0.92982 -2.6078 -2.33094 -2.8273 -0.53029 -0.0831 -1.10581 -0.1496 -1.6004 -0.1496 -0.56835 0 -1.24597 0.088 -1.84224 0.1891 -1.2533 0.2125 -2.15032 1.2545 -2.26718 2.4908C1.69721 31.8104 1.5 34.4028 1.5 37c0 1.6256 0.07724 3.2484 0.17266 4.6336 0.17434 2.5311 2.16267 4.5194 4.69371 4.6937Z" clip-rule="evenodd" stroke-width="1"></path></g></svg>