<svg xmlns="http://www.w3.org/2000/svg" fill="none" viewBox="0 0 48 48" id="Flash-1--Streamline-Plump"><desc>Flash 1 Streamline Icon: https://streamlinehq.com</desc><g id="Solid/Image Photography/Flash/flash-1--flash-power-connect-charge-electricity-lightning"><path id="Union" fill="#000000" fill-rule="evenodd" d="M31.4215 0.75942C27.4818 0.537364 20.6024 0.297765 13.8446 0.782534 11.7937 0.929653 9.98983 2.21536 9.23211 4.12232 5.82809 12.6893 4.2268 20.5962 3.55681 24.7082c-0.41421 2.5421 1.48965 4.726 3.9863 4.894 2.32328 0.1563 5.80879 0.3228 9.89239 0.2977 -0.4337 3.3763 -0.8865 7.9252 -1.3352 12.8062 -0.3828 4.1647 4.6512 6.4064 7.5504 3.4352 8.2639 -8.4692 15.8608 -17.976 19.9388 -23.2774 2.1864 -2.8424 0.2235 -6.7257 -3.3131 -6.8196 -1.8275 -0.0486 -4.1069 -0.0774 -6.8175 -0.0534 0.7645 -3.1983 1.4543 -6.6795 2.0875 -10.03329 0.4968 -2.63088 -1.4499 -5.047419 -4.1249 -5.19819Z" clip-rule="evenodd" stroke-width="1"></path></g></svg>