<svg xmlns="http://www.w3.org/2000/svg" fill="none" viewBox="0 0 48 48"><g id="flash-always-on--flash-always-on-photography-lighting-image"><path id="Union" fill="#000000" fill-rule="evenodd" d="M8.42368 1.98063C7.59053 0.752892 5.89632 0.0621878 4.42486 1.06543c-0.52115 0.35532 -1.12532 0.84308 -1.79415 1.51191 -0.66884 0.66884 -1.15659 1.27301 -1.51191 1.79416C0.115553 5.84295 0.806256 7.53716 2.034 8.37031 4.97195 10.364 8.06307 11.5944 9.89051 12.219c1.50519 0.5145 2.89629 -0.8767 2.38189 -2.38185 -0.6246 -1.82745 -1.855 -4.91857 -3.84872 -7.85652Zm31.20662 0c0.8331 -1.227738 2.5273 -1.9184422 3.9988 -0.9152 0.5211 0.35532 1.1253 0.84308 1.7942 1.51191 0.6688 0.66884 1.1565 1.27301 1.5119 1.79416 1.0032 1.47145 0.3125 3.16566 -0.9152 3.99881 -2.938 1.99369 -6.0291 3.22409 -7.8566 3.84869 -1.5051 0.5145 -2.8963 -0.8767 -2.3818 -2.38185 0.6246 -1.82745 1.855 -4.91857 3.8487 -7.85652Zm6.3893 37.60277c1.2278 0.8332 1.9185 2.5274 0.9152 3.9988 -0.3553 0.5212 -0.8431 1.1253 -1.5119 1.7942 -0.6688 0.6688 -1.273 1.1566 -1.7941 1.5119 -1.4715 1.0032 -3.1657 0.3125 -3.9989 -0.9152 -1.9937 -2.938 -3.2241 -6.0291 -3.8487 -7.8565 -0.5144 -1.5052 0.8767 -2.8964 2.3819 -2.3819 1.8274 0.6246 4.9186 1.855 7.8565 3.8487Zm-43.98574 0c-1.227746 0.8332 -1.91845 2.5274 -0.91521 3.9988 0.35533 0.5212 0.84308 1.1253 1.51192 1.7942 0.66883 0.6688 1.273 1.1566 1.79415 1.5119 1.47145 1.0032 3.16566 0.3125 3.99882 -0.9152 1.99376 -2.938 3.22416 -6.0291 3.84876 -7.8565 0.5144 -1.5052 -0.8767 -2.8964 -2.38193 -2.3819 -1.82744 0.6246 -4.91857 1.855 -7.85651 3.8487ZM30.7264 9.55457c0.268 -2.94903 -3.0947 -4.55362 -5.3128 -2.85153C18.468 12.0329 11.9565 18.2954 8.56246 21.6906c-1.98945 1.9902 -1.05757 5.2814 1.73734 5.8842 1.8524 0.3996 4.3901 0.8675 7.5272 1.2585 -0.2953 2.6473 -0.5189 5.8126 -0.7504 9.6577 -0.1736 2.8843 3.1353 4.5294 5.3762 2.8099 7.0415 -5.4035 13.6371 -11.7657 16.9907 -15.1273 1.9217 -1.9264 1.1196 -5.1275 -1.5791 -5.8335 -2.0027 -0.524 -4.8348 -1.1484 -8.2921 -1.6012 0.0416 -0.2887 0.0844 -0.5836 0.1282 -0.8851 0.3348 -2.3054 0.7261 -4.9992 1.0259 -8.29923Z" clip-rule="evenodd" stroke-width="1"></path></g></svg>