<svg xmlns="http://www.w3.org/2000/svg" fill="none" viewBox="0 0 48 48" id="Flash-2--Streamline-Plump"><desc>Flash 2 Streamline Icon: https://streamlinehq.com</desc><g id="Solid/Image Photography/Flash/flash-2--flash-power-connect-charge-electricity-lightning"><path id="Union" fill="#000000" fill-rule="evenodd" d="M32.4704 4.69343c0.3149 -3.46579 -3.6439 -5.384116 -6.2815 -3.36012C16.9537 8.42018 8.28956 16.7523 3.76993 21.2736c-2.37527 2.3761 -1.26774 6.2838 2.06822 7.0033 2.55245 0.5506 6.08975 1.1999 10.48375 1.7309 -0.42 3.6118 -0.731 7.974 -1.0543 13.3428 -0.2048 3.4022 3.7044 5.3613 6.3648 3.3198 9.3628 -7.1848 18.1389 -15.6497 22.6047 -20.1262 2.2952 -2.3007 1.3393 -6.0994 -1.8781 -6.9411 -2.7492 -0.7193 -6.6822 -1.5825 -11.4964 -2.1873 0.078 -0.5479 0.1599 -1.1116 0.2443 -1.6933l0.0002 -0.0013c0.4461 -3.071 0.9647 -6.64225 1.3633 -11.02777Z" clip-rule="evenodd" stroke-width="1"></path></g></svg>