<svg xmlns="http://www.w3.org/2000/svg" fill="none" viewBox="0 0 48 48" id="Focus-Center-Square--Streamline-Plump"><desc>Focus Center Square Streamline Icon: https://streamlinehq.com</desc><g id="Solid/Image Photography/Photos/focus-center-square"><path id="Union" fill="#000000" fill-rule="evenodd" d="M32.5 5.99997C32.5 4.61926 33.6193 3.49998 35 3.5c0.1852 0.00024 0.3703 0.00148 0.5555 0.00312 0.3486 0.0031 0.8463 0.00927 1.4474 0.02159 1.1997 0.02457 2.823 0.07382 4.5007 0.17299 3.1319 0.18514 5.613 2.66568 5.7984 5.79776 0.0993 1.67804 0.1487 3.30154 0.1733 4.50134 0.0123 0.6012 0.0185 1.099 0.0216 1.4477 0.0016 0.1847 0.0029 0.3707 0.0031 0.5555 0 1.3807 -1.1193 2.5 -2.5 2.5s-2.4999 -1.1192 -2.5 -2.4999c-0.0002 -0.1704 -0.0014 -0.3408 -0.0029 -0.5112 -0.003 -0.3322 -0.0089 -0.8104 -0.0208 -1.3896 -0.0238 -1.1608 -0.0713 -2.7157 -0.1656 -4.30835 -0.0357 -0.60293 -0.499 -1.06631 -1.1021 -1.10196 -1.5925 -0.09413 -3.1473 -0.14156 -4.3081 -0.16533 -0.5791 -0.01186 -1.0573 -0.01778 -1.3894 -0.02073 -0.1704 -0.00152 -0.3408 -0.00269 -0.5111 -0.00293 -1.3807 -0.00008 -2.5 -1.11936 -2.5 -2.50003ZM15.5 42c0 1.3807 -1.1193 2.5 -2.5 2.5 -0.1852 -0.0002 -0.3703 -0.0015 -0.5555 -0.0031 -0.3486 -0.0031 -0.8463 -0.0093 -1.4474 -0.0216 -1.19973 -0.0246 -2.82299 -0.0738 -4.50073 -0.173 -3.13191 -0.1851 -5.612952 -2.6657 -5.798374 -5.7978 -0.099341 -1.678 -0.148664 -3.3015 -0.173267 -4.5013 -0.012327 -0.6012 -0.018506 -1.099 -0.021605 -1.4477C0.501482 32.3708 0.500246 32.1848 0.5 32c0 -1.3807 1.11929 -2.5 2.5 -2.5 1.38067 0 2.49994 1.1192 2.5 2.4999 0.00023 0.1704 0.00141 0.3408 0.00293 0.5112 0.00295 0.3322 0.00887 0.8104 0.02075 1.3896 0.0238 1.1608 0.07129 2.7157 0.16558 4.3084 0.03569 0.6029 0.49904 1.0663 1.10216 1.1019 1.59246 0.0941 3.14725 0.1416 4.30808 0.1653 0.5791 0.0119 1.0573 0.0178 1.3894 0.0208 0.1704 0.0015 0.3408 0.0027 0.5111 0.0029 1.3807 0.0001 2.5 1.1194 2.5 2.5ZM13 3.5c1.3807 -0.00002 2.5 1.11926 2.5 2.49997C15.5 7.38064 14.3807 8.49992 13 8.5c-0.1703 0.00024 -0.3407 0.00141 -0.5111 0.00293 -0.3321 0.00295 -0.8103 0.00887 -1.3894 0.02073 -1.16083 0.02377 -2.71562 0.0712 -4.30808 0.16533 -0.60312 0.03565 -1.06647 0.49903 -1.10216 1.10196 -0.09429 1.59265 -0.14178 3.14755 -0.16558 4.30835 -0.01188 0.5792 -0.0178 1.0574 -0.02075 1.3896 -0.00152 0.1704 -0.0027 0.3408 -0.00293 0.5112C5.49994 17.3808 4.38067 18.5 3 18.5 1.61929 18.5 0.5 17.3807 0.5 16c0.000246 -0.1848 0.001482 -0.3708 0.003124 -0.5555 0.003099 -0.3487 0.009278 -0.8465 0.021605 -1.4477 0.024603 -1.1998 0.073926 -2.8233 0.173267 -4.50134C0.883418 6.36338 3.36446 3.88284 6.49637 3.6977c1.67774 -0.09917 3.301 -0.14842 4.50073 -0.17299 0.6011 -0.01232 1.0988 -0.01849 1.4474 -0.02159 0.1852 -0.00164 0.3703 -0.00288 0.5555 -0.00312ZM32.5 42c0 1.3807 1.1193 2.5 2.5 2.5 0.1852 -0.0002 0.3703 -0.0015 0.5555 -0.0031 0.3486 -0.0031 0.8463 -0.0093 1.4474 -0.0216 1.1997 -0.0246 2.823 -0.0738 4.5007 -0.173 3.1319 -0.1851 5.613 -2.6657 5.7984 -5.7978 0.0993 -1.678 0.1487 -3.3015 0.1733 -4.5013 0.0123 -0.6012 0.0185 -1.099 0.0216 -1.4477 0.0016 -0.1847 0.0029 -0.3707 0.0031 -0.5555 0 -1.3807 -1.1193 -2.5 -2.5 -2.5s-2.4999 1.1192 -2.5 2.4999c-0.0002 0.1704 -0.0014 0.3408 -0.0029 0.5112 -0.003 0.3322 -0.0089 0.8104 -0.0208 1.3896 -0.0238 1.1608 -0.0713 2.7157 -0.1656 4.3084 -0.0357 0.6029 -0.499 1.0663 -1.1021 1.1019 -1.5925 0.0941 -3.1473 0.1416 -4.3081 0.1653 -0.5791 0.0119 -1.0573 0.0178 -1.3894 0.0208 -0.1704 0.0015 -0.3408 0.0027 -0.5111 0.0029 -1.3807 0.0001 -2.5 1.1194 -2.5 2.5Zm0.7459 -23.1451c0.1442 1.2263 0.2541 2.897 0.2541 5.1451 0 2.2481 -0.1099 3.9188 -0.2541 5.1451 -0.2962 2.5171 -2.2917 4.1217 -4.6631 4.2503 -1.1049 0.06 -2.5945 0.1046 -4.5828 0.1046 -1.9883 0 -3.4779 -0.0446 -4.5828 -0.1046 -2.3714 -0.1286 -4.3669 -1.7332 -4.6631 -4.2503C14.6099 27.9188 14.5 26.2481 14.5 24c0 -2.2481 0.1099 -3.9188 0.2541 -5.1451 0.2962 -2.5171 2.2917 -4.1217 4.6631 -4.2503 1.1049 -0.06 2.5945 -0.1046 4.5828 -0.1046 1.9883 0 3.4779 0.0446 4.5828 0.1046 2.3714 0.1286 4.3669 1.7332 4.6631 4.2503Z" clip-rule="evenodd" stroke-width="1"></path></g></svg>