<svg xmlns="http://www.w3.org/2000/svg" fill="none" viewBox="0 0 48 48" id="Footprint--Streamline-Plump"><desc>Footprint Streamline Icon: https://streamlinehq.com</desc><g id="footprint"><path id="Union" fill="#000000" fill-rule="evenodd" d="M5.89417 4.39941C7.50436 2.06053 9.9371 0.5 13.0039 0.5c3.0672 0 5.4982 1.56092 7.1062 3.90029C21.6947 6.70538 22.4995 9.77109 22.4995 13c0 3.6958 -0.6574 6.3505 -1.2287 7.9578 -0.573 1.6119 -2.0061 2.6068 -3.5866 2.7914 -1.098 0.1282 -2.6735 0.2508 -4.6847 0.2508 -2.0109 0 -3.58639 -0.1225 -4.68431 -0.2507 -1.58077 -0.1846 -3.01404 -1.1798 -3.5869 -2.792C4.15717 19.35 3.5 16.6955 3.5 13c0 -3.22974 0.80734 -6.29564 2.39417 -8.60059ZM9.46859 26.181C10.5028 26.0829 11.7457 26 13.0005 26c1.2549 0 2.4977 0.0829 3.532 0.181 2.3491 0.2228 3.9456 2.2842 3.8277 4.5252l-0.0707 1.3438c-0.2077 3.9461 -2.9773 7.45 -7.289 7.45 -4.3116 0 -7.08119 -3.5039 -7.28889 -7.45l-0.07072 -1.3438c-0.11795 -2.241 1.47858 -4.3024 3.8277 -4.5252ZM27.8942 12.3994C29.5044 10.0605 31.9371 8.5 35.0039 8.5c3.0673 0 5.4982 1.5609 7.1062 3.9003 1.5846 2.3051 2.3894 5.3708 2.3894 8.5997 0 3.6958 -0.6574 6.3505 -1.2287 7.9578 -0.573 1.6119 -2.0061 2.6068 -3.5866 2.7914 -1.098 0.1282 -2.6735 0.2508 -4.6847 0.2508 -2.0109 0 -3.5864 -0.1225 -4.6843 -0.2507 -1.5808 -0.1846 -3.014 -1.1798 -3.5869 -2.792C26.1572 27.35 25.5 24.6955 25.5 21c0 -3.2297 0.8073 -6.2956 2.3942 -8.6006Zm3.5744 21.7816c1.0342 -0.0981 2.2771 -0.181 3.5319 -0.181 1.2549 0 2.4977 0.0829 3.532 0.181 2.3491 0.2228 3.9456 2.2842 3.8277 4.5252l-0.0707 1.3438c-0.2077 3.9461 -2.9773 7.45 -7.289 7.45 -4.3116 0 -7.0812 -3.5039 -7.2889 -7.45l-0.0707 -1.3438c-0.118 -2.241 1.4786 -4.3024 3.8277 -4.5252Z" clip-rule="evenodd" stroke-width="1"></path></g></svg>