<svg xmlns="http://www.w3.org/2000/svg" fill="none" viewBox="0 0 48 48" id="Fork-Knife--Streamline-Plump"><desc>Fork Knife Streamline Icon: https://streamlinehq.com</desc><g id="fork-knife--fork-spoon-knife-food-dine-cook-utensils-eat-restaurant-dining-kitchenware"><path id="Union" fill="#000000" fill-rule="evenodd" d="M31.2313 0.7782c0.6227 -0.4075 1.4329 -0.4206 2.1416 0.1055 4.1322 3.068 9.7637 11.3883 10.3299 24.1273 0.0659 1.4819 -0.6565 2.9336 -2.0624 3.5864 -1.0204 0.4738 -2.451 1.0182 -4.2915 1.4409l1.6279 11.3953c0.1887 1.3205 0.0299 2.6089 -0.5314 3.6728 -0.5669 1.0744 -1.5288 1.8872 -2.871 2.2566 -2.5129 0.6913 -5.3233 -0.9634 -5.3233 -3.7154V2.72c0 -0.8222 0.3787 -1.5482 0.9803 -1.9418ZM5.3942 3.5203C5.6818 1.8193 7.167 0.6382 8.8659 0.6382h0.303c0.1417 0 0.2774 0.058 0.3753 0.1605 0.098 0.1025 0.1497 0.2406 0.1433 0.3822l-0.4611 10.1435c-0.0325 0.7162 0.5216 1.3229 1.2376 1.3556 0.7161 0.0325 1.323 -0.5216 1.3555 -1.2377l0.4686 -10.3085c0.0126 -0.2773 0.2411 -0.4956 0.5187 -0.4956h2.7006c0.2776 0 0.5061 0.2183 0.5187 0.4956l0.4686 10.3085c0.0325 0.7161 0.6394 1.2702 1.3555 1.2377 0.716 -0.0326 1.2702 -0.6394 1.2376 -1.3556l-0.461 -10.1435c-0.0065 -0.1416 0.0452 -0.2797 0.1431 -0.3822 0.0981 -0.1025 0.2337 -0.1605 0.3754 -0.1605h0.3024c1.6985 0 3.1834 1.1805 3.4715 2.8811 0.4806 2.8381 1.1539 7.8018 1.0998 13.1098 -0.0301 2.9487 -2.0038 5.5991 -5.1017 6.2936 -0.4516 0.1011 -0.9265 0.1949 -1.4196 0.2754l1.9126 18.2169c0.2863 2.7283 -1.4127 5.4703 -4.2407 5.864 -0.3653 0.0507 -0.7146 0.0839 -1.0121 0.0839 -0.2974 0 -0.6467 -0.0332 -1.0119 -0.0839 -2.8281 -0.3937 -4.5272 -3.1357 -4.2407 -5.864l1.9125 -18.217c-0.4929 -0.0805 -0.9678 -0.1742 -1.4192 -0.2754 -3.0982 -0.6944 -5.072 -3.345 -5.1021 -6.2937 -0.0541 -5.3074 0.6181 -10.2705 1.0981 -13.1086Z" clip-rule="evenodd" stroke-width="1"></path></g></svg>