<svg xmlns="http://www.w3.org/2000/svg" fill="none" viewBox="0 0 48 48"><g id="gallery-slide--gallery-slide-list-stack-album"><path id="Union" fill="#000000" fill-rule="evenodd" d="M21.3482 33.1471c-0.0891 -1.2293 -0.1759 -2.831 -0.2299 -4.8354 2.1114 -1.8855 3.6632 -3.0474 4.7279 -3.754 1.1285 -0.749 2.5091 -0.6237 3.557 0.2313 1.0719 0.8745 2.7166 2.3064 5.1171 4.6019 1.6203 -1.3907 2.8554 -2.3033 3.7481 -2.8958 1.1286 -0.7489 2.5091 -0.6237 3.5571 0.2314 0.6454 0.5266 1.4986 1.2553 2.5995 2.2531 -0.0541 1.6958 -0.1313 3.0779 -0.2102 4.1675 -0.0911 1.2575 -1.0285 2.1949 -2.2859 2.286 -2.0098 0.1456 -5.0144 0.2851 -9.1474 0.2851 -4.133 0 -7.1377 -0.1395 -9.1474 -0.2851 -1.2575 -0.0911 -2.1949 -1.0285 -2.2859 -2.286Zm2.0691 -23.57284c2.0867 -0.15115 5.1638 -0.29301 9.3642 -0.29301 4.2003 0 7.2775 0.14185 9.3641 0.29301 2.7434 0.19873 4.8626 2.31794 5.0614 5.06134 0.1511 2.0866 0.293 5.1638 0.293 9.3641 0 4.2004 -0.1419 7.2775 -0.293 9.3642 -0.1988 2.7434 -2.318 4.8626 -5.0614 5.0613 -2.0866 0.1512 -5.1638 0.293 -9.3641 0.293 -4.2004 0 -7.2775 -0.1418 -9.3642 -0.293 -2.7434 -0.1987 -4.8626 -2.3179 -5.0613 -5.0613 -0.1512 -2.0867 -0.293 -5.1638 -0.293 -9.3642 0 -4.2003 0.1418 -7.2774 0.293 -9.3641 0.1987 -2.7434 2.3179 -4.86261 5.0613 -5.06134ZM39.0558 20.8047c1.7027 0 3.083 -1.3803 3.083 -3.083s-1.3803 -3.083 -3.083 -3.083 -3.083 1.3803 -3.083 3.083 1.3803 3.083 3.083 3.083ZM17.1544 9.76758c-1.3977 0.05519 -2.577 0.12408 -3.5499 0.19456 -2.1715 0.15726 -3.83042 1.81626 -3.98772 3.98766 -0.16105 2.2233 -0.3138 5.5242 -0.3138 10.047 0 4.5229 0.15275 7.8238 0.31381 10.0471 0.15729 2.1714 1.81621 3.8304 3.98771 3.9877 0.9721 0.0704 2.1503 0.1392 3.5466 0.1944 -1.0146 -1.2891 -1.6599 -2.8874 -1.7873 -4.6462 -0.1567 -2.1636 -0.3009 -5.3132 -0.3009 -9.5809s0.1442 -7.4174 0.3009 -9.5809c0.1275 -1.7607 0.7741 -3.3606 1.7906 -4.65042Zm-9.76446 0.37692c-0.59662 0.9817 -0.97172 2.1188 -1.06067 3.3468C6.15873 15.8455 6 19.299 6 23.999c0 4.7001 0.15873 8.1536 0.32927 10.5078 0.08907 1.2296 0.46503 2.3681 1.06299 3.3506 -1.111 -0.0511 -2.06277 -0.1105 -2.86307 -0.1705 -2.00007 -0.1497 -3.52701 -1.6767 -3.676776 -3.6767C0.689875 31.8396 0.53125 28.5547 0.53125 24.0009s0.158624 -7.8387 0.321162 -10.0093c0.149768 -2 1.676708 -3.527 3.676778 -3.6767 0.79974 -0.0599 1.75074 -0.1193 2.86075 -0.1704Z" clip-rule="evenodd" stroke-width="1"></path></g></svg>