<svg xmlns="http://www.w3.org/2000/svg" fill="none" viewBox="0 0 48 48" id="Gallery-2--Streamline-Plump"><desc>Gallery 2 Streamline Icon: https://streamlinehq.com</desc><g id="Solid/Image Photography/Pictures/gallery-2--pages-filter-picture-pagination-image"><path id="Union" fill="#000000" fill-rule="evenodd" d="M19.5 1.5c-5.1662 0 -8.9662 0.17219 -11.55932 0.3574 -3.30138 0.23579 -5.84749 2.7819 -6.08328 6.08329C1.67219 10.5338 1.5 14.3338 1.5 19.5s0.17219 8.9662 0.3574 11.5593c0.2296 3.2147 2.6497 5.7132 5.82465 6.06C7.57579 34.8074 7.5 31.9495 7.5 28.5c0 -5.2327 0.1744 -9.1041 0.36502 -11.773 0.3421 -4.7898 4.07218 -8.51988 8.86198 -8.86198C19.3959 7.6744 23.2673 7.5 28.5 7.5c3.4495 0 6.3074 0.07579 8.6193 0.18205 -0.3468 -3.17495 -2.8453 -5.59505 -6.06 -5.82465C28.4662 1.67219 24.6662 1.5 19.5 1.5Zm9 9c-5.1662 0 -8.9662 0.1722 -11.5593 0.3574 -3.3014 0.2358 -5.8475 2.7819 -6.0833 6.0833C10.6722 19.5338 10.5 23.3338 10.5 28.5c0 5.1662 0.1722 8.9662 0.3574 11.5593 0.2358 3.3014 2.7819 5.8475 6.0833 6.0833 2.5931 0.1852 6.3931 0.3574 11.5593 0.3574 5.1662 0 8.9662 -0.1722 11.5593 -0.3574 3.3014 -0.2358 5.8475 -2.7819 6.0833 -6.0833 0.1852 -2.5931 0.3574 -6.3931 0.3574 -11.5593 0 -5.1662 -0.1722 -8.9662 -0.3574 -11.5593 -0.2358 -3.3014 -2.7819 -5.8475 -6.0833 -6.0833C37.4662 10.6722 33.6662 10.5 28.5 10.5Zm4 10c0 -2.2091 1.7909 -4 4 -4 2.2091 0 4 1.7909 4 4 0 2.2091 -1.7909 4 -4 4 -2.2091 0 -4 -1.7909 -4 -4Zm7.6545 11.0578c0.8165 0.6679 1.8878 1.5848 3.2624 2.8319 -0.0665 2.2245 -0.1649 4.0335 -0.2665 5.4559 -0.1295 1.813 -1.4916 3.1751 -3.3047 3.3046 -2.5173 0.1798 -6.2458 0.3498 -11.3455 0.3498 -5.0997 0 -8.8283 -0.17 -11.3456 -0.3498 -1.8131 -0.1295 -3.1752 -1.4916 -3.3047 -3.3046 -0.114 -1.5966 -0.2241 -3.6804 -0.2894 -6.2922 2.6389 -2.3599 4.5932 -3.8302 5.9515 -4.7361 1.6387 -1.093 3.6431 -0.8996 5.1365 0.3219 1.301 1.0641 3.2493 2.7609 6.0408 5.4183 1.8363 -1.5569 3.265 -2.6121 4.3287 -3.3216 1.6387 -1.0929 3.6431 -0.8995 5.1365 0.3219Z" clip-rule="evenodd" stroke-width="1"></path></g></svg>