<svg xmlns="http://www.w3.org/2000/svg" fill="none" viewBox="0 0 48 48" id="Gift-2--Streamline-Plump"><desc>Gift 2 Streamline Icon: https://streamlinehq.com</desc><g id="Solid/Money Shopping/Gift-Present/gift-2--reward-box-social-present-gift-media-rating-bow"><path id="Union" fill="#000000" fill-rule="evenodd" d="M15.25 5C13.572 5 12 6.48839 12 9c0 0.98894 0.2926 1.8693 0.7513 2.5471 2.4365 -0.0224 5.4114 -0.04 8.9644 -0.0454 -0.3134 -1.0109 -0.8891 -2.27027 -1.7446 -3.45746C18.6034 6.14619 16.9392 5 15.25 5ZM8 9c0 0.90373 0.1361 1.779 0.3905 2.5989 -1.33547 0.02 -2.35503 0.0397 -3.07801 0.0555 -1.09181 0.0238 -2.79818 0.4434 -3.43363 2.135C1.65549 14.384 1.5 15.1183 1.5 16c0 0.8817 0.15549 1.616 0.37886 2.2106 0.63546 1.6916 2.34183 2.1112 3.43363 2.135C7.79238 20.3998 13.7616 20.5 24 20.5s16.2076 -0.1002 18.6875 -0.1544c1.0918 -0.0238 2.7982 -0.4434 3.4336 -2.1349 0.2234 -0.5946 0.3789 -1.329 0.3789 -2.2107 0 -0.8817 -0.1555 -1.6161 -0.3789 -2.2107 -0.6354 -1.6915 -2.3418 -2.1111 -3.4336 -2.1349 -0.723 -0.0158 -1.7425 -0.0355 -3.078 -0.0555C39.8639 10.779 40 9.90373 40 9c0 -4.11581 -2.803 -8 -7.25 -8 -3.5608 0 -6.2716 2.35381 -7.9664 4.70576 -0.2779 0.38574 -0.5399 0.78679 -0.7836 1.19681 -0.2437 -0.41002 -0.5057 -0.81107 -0.7836 -1.19681C21.5216 3.35381 18.8108 1 15.25 1 10.803 1 8 4.88419 8 9Zm18.2843 2.5017c3.553 0.0054 6.5279 0.023 8.9644 0.0454C35.7074 10.8693 36 9.98894 36 9c0 -2.51161 -1.572 -4 -3.25 -4 -1.6892 0 -3.3534 1.14619 -4.7211 3.04424 -0.8555 1.18719 -1.4312 2.44656 -1.7446 3.45746ZM4.5 23.3193v-0.0302c0.27844 0.0342 0.53112 0.0505 0.74695 0.0553 2.37944 0.0519 7.90755 0.1452 17.25305 0.1543v22.9961c-5.3154 -0.0331 -9.1826 -0.2386 -11.7708 -0.4439 -3.12793 -0.2482 -5.60618 -2.5996 -5.88105 -5.7774C4.66205 38.1219 4.5 35.0776 4.5 30.9994v-7.6801Zm38.253 0.0251c-2.3794 0.0519 -7.9075 0.1452 -17.253 0.1543v22.9961c5.3154 -0.0331 9.1826 -0.2386 11.7708 -0.4439 3.1279 -0.2482 5.6062 -2.5996 5.881 -5.7774 0.1861 -2.1516 0.3482 -5.1959 0.3482 -9.2741v-7.7103c-0.2784 0.0342 -0.5311 0.0505 -0.747 0.0553Z" clip-rule="evenodd" stroke-width="1"></path></g></svg>