<svg xmlns="http://www.w3.org/2000/svg" fill="none" viewBox="0 0 48 48" id="Give-Star--Streamline-Plump"><desc>Give Star Streamline Icon: https://streamlinehq.com</desc><g id="Solid/Interface Essential/Trophy Award/give-star--reward-social-rating-media-hand-star"><path id="Union" fill="#000000" fill-rule="evenodd" d="M30.501 2.26835c1.2726 -2.3578012 4.7256 -2.3577965 5.9982 0l2.3187 4.29603 4.9333 0.93349c2.5273 0.47821 3.6989 3.52953 1.8575 5.49753l-3.5134 3.755 0.644 5.0148c0.3516 2.7378 -2.5464 4.5016 -4.8585 3.3926l-4.3807 -2.1012 -4.3807 2.1012c-2.3121 1.109 -5.2101 -0.6548 -4.8585 -3.3926l0.644 -5.0148 -3.5135 -3.755c-1.8413 -1.968 -0.6697 -5.01932 1.8576 -5.49753l4.9333 -0.93349 2.3187 -4.29603ZM3.30321 26.8725c-1.07186 0.3335 -1.82811 1.2708 -1.93883 2.3879C1.20145 30.9044 1 33.4522 1 36c0 2.3662 0.17376 4.7325 0.32905 6.3747 0.12307 1.3015 1.1084 2.3339 2.39914 2.5411C7.962 45.5956 17.5263 47 24.284 47c5.1158 0 15.3522 -3.4439 20.1383 -5.161 1.5582 -0.5591 2.7047 -2.0874 2.1982 -3.6635 -0.6781 -2.1103 -2.1201 -2.9099 -3.1154 -3.2129 -0.6796 -0.2068 -1.3933 -0.1227 -2.0931 -0.0013 -3.2752 0.5683 -13.3475 2.2609 -17.128 2.2609 -1.7828 0 -4.2168 -0.3258 -5.6417 -0.5431 -0.6805 -0.1037 -1.1732 -0.6918 -1.1732 -1.3802 0 -0.8293 0.708 -1.4819 1.5346 -1.4145l7.7155 0.6289c1.7472 0.1425 3.2836 -1.2565 2.8843 -2.9634 -0.2145 -0.9168 -0.4999 -1.68 -0.7845 -2.2897 -0.5943 -1.2728 -1.8334 -2.0366 -3.1939 -2.3864C22.8155 26.1515 17.6032 25 12.9259 25c-3.11622 0 -7.30121 1.1501 -9.62269 1.8725Z" clip-rule="evenodd" stroke-width="1"></path></g></svg>