<svg xmlns="http://www.w3.org/2000/svg" fill="none" viewBox="0 0 48 48" id="Glasses--Streamline-Plump"><desc>Glasses Streamline Icon: https://streamlinehq.com</desc><g id="Solid/Interface Essential/Content/glasses--vision-sunglasses-protection-spectacles-correction-sun-eye-glasses"><path id="Subtract" fill="#000000" fill-rule="evenodd" d="M13.1342 5.98871c1.0982 -0.83677 1.3102 -2.40542 0.4734 -3.50369 -0.8367 -1.09826 -2.4054 -1.31024 -3.5036 -0.47347 -2.39244 1.82278 -4.30634 3.86337 -5.32086 5.02361 -0.79478 0.90895 -1.34902 2.00749 -1.58811 3.21844 -0.55835 2.828 -1.69502 10.3964 -1.69502 25.1751l0 0.1679c-0.00008 1.6093 -0.00016 3.2183 0.06499 4.8266 0.13613 3.3608 2.7521 5.8759 6.07003 6.0009 1.19135 0.0449 2.63977 0.076 4.36497 0.076 1.7252 0 3.1737 -0.0312 4.365 -0.076 3.3179 -0.125 5.9339 -2.6401 6.07 -6.0009 0.0393 -0.9687 0.065 -2.106 0.065 -3.4231 0 -1.317 -0.0257 -2.4544 -0.065 -3.423 -0.0169 -0.4173 -0.072 -0.8215 -0.1619 -1.2097 0.4936 -0.154 1.0851 -0.2483 1.7277 -0.2483 0.642 0 1.2329 0.0941 1.7263 0.2478 -0.09 0.3884 -0.1452 0.7928 -0.1621 1.2102 -0.0392 0.9686 -0.065 2.106 -0.065 3.423 0 1.3171 0.0258 2.4544 0.065 3.4231 0.1361 3.3608 2.7521 5.8759 6.07 6.0009 1.1914 0.0449 2.6398 0.076 4.365 0.076s3.1737 -0.0312 4.365 -0.076c3.3179 -0.125 5.9339 -2.6401 6.07 -6.0009 0.0652 -1.6082 0.0651 -3.2169 0.065 -4.826l0 -0.1685c0 -14.7787 -1.1367 -22.3471 -1.695 -25.1751 -0.2391 -1.21095 -0.7933 -2.3095 -1.5881 -3.21844 -1.0145 -1.16024 -2.9284 -3.20083 -5.3208 -5.02361 -1.0983 -0.83677 -2.6669 -0.62479 -3.5037 0.47347 -0.8368 1.09827 -0.6248 2.66692 0.4735 3.50369 2.0217 1.54035 3.6868 3.30825 4.587 4.33769 0.2349 0.2687 0.3829 0.572 0.4468 0.8957 0.3871 1.9606 1.1855 7.0175 1.4842 16.4705 -0.3305 -0.0639 -0.6709 -0.1033 -1.0189 -0.1164 -1.1914 -0.0449 -2.6398 -0.0761 -4.365 -0.0761s-3.1736 0.0312 -4.365 0.0761c-1.0004 0.0376 -1.9369 0.2926 -2.761 0.7225 -1.4836 -0.8282 -3.2387 -1.1796 -4.8732 -1.1796 -1.6347 0 -3.3902 0.3516 -4.874 1.18 -0.8242 -0.4301 -1.7611 -0.6853 -2.7618 -0.7229 -1.1914 -0.0449 -2.6398 -0.0761 -4.365 -0.0761s-3.17363 0.0312 -4.36498 0.0761c-0.34804 0.0131 -0.68835 0.0525 -1.01889 0.1164 0.29866 -9.453 1.09712 -14.5099 1.48421 -16.4705 0.06392 -0.3237 0.21185 -0.627 0.4468 -0.8957 0.90016 -1.02945 2.56536 -2.79734 4.58706 -4.33769ZM12 32.0001c-1.5565 0 -2.81037 0.0321 -3.78708 0.0744 -1.20386 0.0521 -2.08998 0.9236 -2.14801 2.0922 -0.03805 0.766 -0.0649 1.706 -0.0649 2.8334 0 1.1274 0.02686 2.0674 0.0649 2.8334 0.05804 1.1686 0.94415 2.0402 2.14802 2.0923 0.9767 0.0423 2.23057 0.0743 3.78707 0.0743 1.5565 0 2.8104 -0.0321 3.7871 -0.0743 1.2039 -0.0521 2.09 -0.9237 2.148 -2.0923 0.0381 -0.766 0.0649 -1.706 0.0649 -2.8334 0 -1.1274 -0.0268 -2.0674 -0.0649 -2.8334 -0.058 -1.1686 -0.9441 -2.0401 -2.148 -2.0922 -0.9767 -0.0423 -2.2306 -0.0744 -3.7871 -0.0744Zm20.2129 0.0744c0.9767 -0.0423 2.2306 -0.0744 3.7871 -0.0744 1.5565 0 2.8104 0.0321 3.7871 0.0744 1.2039 0.0521 2.09 0.9236 2.148 2.0922 0.0381 0.766 0.0649 1.706 0.0649 2.8334 0 1.1274 -0.0268 2.0674 -0.0649 2.8334 -0.058 1.1686 -0.9441 2.0402 -2.148 2.0923 -0.9767 0.0422 -2.2306 0.0743 -3.7871 0.0743 -1.5565 0 -2.8104 -0.032 -3.7871 -0.0743 -1.2038 -0.0521 -2.09 -0.9237 -2.148 -2.0923 -0.038 -0.766 -0.0649 -1.706 -0.0649 -2.8334 0 -1.1274 0.0269 -2.0674 0.0649 -2.8334 0.058 -1.1686 0.9442 -2.0401 2.148 -2.0922Z" clip-rule="evenodd" stroke-width="1"></path></g></svg>