<svg xmlns="http://www.w3.org/2000/svg" fill="none" viewBox="0 0 48 48" id="Google-Logo--Streamline-Plump"><desc>Google Logo Streamline Icon: https://streamlinehq.com</desc><g id="google-logo--media-google-social"><path id="Union" fill="#000000" fill-rule="evenodd" d="M37.4055 4.19657c-4.193 -2.38906 -8.1648 -3.297213 -12.7406 -3.18782C11.7427 0.980257 3 11.0924 3 23.9875 3 36.8843 11.7794 47 24.5405 47c6.3158 0 11.4564 -2.2646 15.0123 -6.1123C43.0999 37.0495 45 31.7134 45 25.6807c0 -0.6252 -0.006 -1.1867 -0.0161 -1.6887 -0.0519 -2.5921 -1.9555 -4.6577 -4.5418 -4.9041 -1.6948 -0.1614 -3.9508 -0.2966 -6.6647 -0.2771 -3.3863 0.0244 -5.9041 0.238 -7.5193 0.4327 -1.7148 0.2067 -3.0219 1.572 -3.1567 3.2926 -0.0493 0.6292 -0.0855 1.3363 -0.0761 2.0029 0.0074 0.5296 0.0521 1.0653 0.1112 1.5591 0.2326 1.9412 1.9394 3.1903 3.751 3.1903h7.0045c-0.4859 4.3681 -4.7006 7.8706 -9.2602 7.4526 -0.0303 -0.0028 -0.0608 -0.0042 -0.0913 -0.0042 -3.4603 0 -5.9677 -1.4529 -7.6407 -3.7246 -1.6985 -2.3062 -2.5755 -5.5172 -2.5755 -9.0247 0 -3.4927 0.9374 -6.7051 2.6717 -9.0179 1.7137 -2.2854 4.228 -3.7315 7.5445 -3.7315 0.0111 0 0.0222 -0.0002 0.0333 -0.0006 2.7423 -0.0912 5.4614 0.7285 7.6823 2.2831 1.4912 1.0438 3.9544 1.2337 5.2306 -0.6202 0.9173 -1.3325 1.6352 -2.7463 1.9956 -4.35991 0.4071 -1.82316 -0.6135 -3.51015 -2.0768 -4.34392Z" clip-rule="evenodd" stroke-width="1"></path></g></svg>