<svg xmlns="http://www.w3.org/2000/svg" fill="none" viewBox="0 0 48 48"><g id="growth-analytics-chart-down-loss--growth-analytics-chart-down-loss-finance-business-decrease-graph"><path id="Union" fill="#000000" fill-rule="evenodd" d="M4.53302 19.7121c1.21747 1.6894 2.63499 3.4893 4.26067 5.3085 0.96787 1.083 2.58931 1.2499 3.76891 0.4023 3.5761 -2.5695 7.3312 -5.5908 7.3312 -5.5908 1.6477 2.309 3.191 4.9995 4.4172 7.6522 -1.6202 1.1981 -2.8662 2.1619 -3.8188 2.9266 -1.5297 1.228 -1.121 3.2348 0.7777 3.7278 1.2989 0.3373 2.9941 0.727 5.1665 1.1415 3.5653 0.6802 5.8977 0.7681 7.298 0.7019 1.1457 -0.0541 2.1024 -0.7298 2.5433 -1.7887 0.5452 -1.3092 1.2731 -3.5676 1.8784 -7.2202 0.3645 -2.2 0.589 -3.9425 0.7258 -5.2935 0.2002 -1.9765 -1.5655 -3.0574 -3.2509 -2.0058 -0.9373 0.5848 -2.1033 1.3393 -3.5411 2.3096 -0.9726 -1.0716 -2.0338 -2.3038 -3.1417 -3.5904l-0.0001 0 0 -0.0001c-1.9748 -2.2932 -4.0984 -4.7592 -6.1347 -6.7962 -1.0873 -1.0877 -2.8245 -1.0505 -3.9628 -0.0165 -2.0154 1.8308 -5.1267 4.5807 -7.2238 6.0722 -1.83491 -1.9121 -4.77177 -5.8308 -6.65905 -8.41954 -0.18342 2.48434 -0.36269 5.94304 -0.43473 10.47914ZM23.9999 46.5c7.4014 0 12.5927 -0.2781 15.8643 -0.5439 3.2878 -0.2671 5.8247 -2.8039 6.0918 -6.0918 0.2658 -3.2716 0.5439 -8.4629 0.5439 -15.8643 0 -7.4014 -0.2781 -12.5927 -0.5439 -15.8643 -0.2671 -3.28785 -2.804 -5.82468 -6.0918 -6.09181 -0.0511 -0.00415 -0.1027 -0.00831 -0.1548 -0.01247 -0.3644 -0.02911 -0.7518 -0.05831 -1.1626 -0.08722C35.2602 1.7129 30.4761 1.5 23.9999 1.5c-0.0289 0 -0.0578 0 -0.0866 0.00001 -0.0324 0.00001 -0.0647 0.00003 -0.0969 0.00005 -7.3038 0.00455 -12.4363 0.28022 -15.68081 0.54383 -0.41098 0.0334 -0.81022 0.10225 -1.19477 0.2036 -0.96053 0.25317 -1.82934 0.70909 -2.5602 1.32155C3.06329 4.67295 2.19411 6.2854 2.04378 8.13571 1.77796 11.4073 1.49989 16.5986 1.49989 24c0 7.4015 0.27808 12.5927 0.54389 15.8643 0.06679 0.822 0.27543 1.597 0.6022 2.3014 0.9803 2.113 3.02373 3.5901 5.48962 3.7904 3.2716 0.2658 8.4629 0.5439 15.8643 0.5439Z" clip-rule="evenodd" stroke-width="1"></path></g></svg>