<svg xmlns="http://www.w3.org/2000/svg" fill="none" viewBox="0 0 48 48"><g id="growth-analytics-chart-up-gain--growth-analytics-chart-up-gain-increase-progress-improvement-graph"><path id="Union" fill="#000000" fill-rule="evenodd" d="M4.96788 38.7674c-0.18342 -2.4843 -0.3627 -5.943 -0.43475 -10.4792 1.21746 -1.6894 2.63499 -3.4893 4.26066 -5.3084 0.96788 -1.0831 2.58931 -1.2499 3.76891 -0.4024 3.5761 2.5695 7.3312 5.5909 7.3312 5.5909 1.6478 -2.3091 3.191 -4.9995 4.4173 -7.6522 -1.6203 -1.1982 -2.8663 -2.162 -3.8189 -2.9267 -1.5297 -1.228 -1.121 -3.2348 0.7777 -3.7278 1.2989 -0.3372 2.9941 -0.7269 5.1665 -1.1414 3.5653 -0.6803 5.8977 -0.7681 7.298 -0.702 1.1457 0.0542 2.1024 0.7299 2.5433 1.7887 0.5452 1.3093 1.2732 3.5676 1.8784 7.2202 0.3645 2.2 0.589 3.9425 0.7258 5.2936 0.2003 1.9764 -1.5655 3.0573 -3.2509 2.0057 -0.9373 -0.5848 -2.1033 -1.3392 -3.5411 -2.3095 -0.9726 1.0715 -2.0338 2.3038 -3.1417 3.5904 -1.9748 2.2932 -4.0984 4.7592 -6.1348 6.7963 -1.0873 1.0876 -2.8245 1.0505 -3.9628 0.0164 -2.0154 -1.8308 -5.1267 -4.5806 -7.2238 -6.0722 -1.8349 1.9121 -4.77175 5.8309 -6.65902 8.4196ZM35.3586 1.75499c1.782 0.08782 3.2788 0.18922 4.5057 0.2889 3.2878 0.26714 5.8247 2.80396 6.0918 6.09182 0.0332 0.40895 0.0666 0.8479 0.0997 1.31741C46.2871 12.7397 46.5 17.5237 46.5 24c0 0.4626 -0.0011 0.9166 -0.0032 1.3619 -0.0315 6.681 -0.2915 11.4353 -0.5407 14.5024 -0.0334 0.411 -0.1023 0.8102 -0.2036 1.1948 -0.7095 2.6918 -3.0113 4.6633 -5.8882 4.897 -0.409 0.0332 -0.8479 0.0667 -1.3174 0.0997 -3.2866 0.2313 -8.0707 0.4442 -14.5469 0.4442 -0.4626 0 -0.9166 -0.0011 -1.3619 -0.0032 -6.681 -0.0315 -11.4353 -0.2915 -14.5024 -0.5407 -0.41098 -0.0334 -0.81023 -0.1022 -1.19478 -0.2036 -2.69182 -0.7095 -4.66329 -3.0113 -4.89703 -5.8882C1.77807 36.5927 1.49999 31.4014 1.5 24c-0.00001 -7.4014 0.27807 -12.5927 0.54389 -15.8643 0.16487 -2.02923 1.19431 -3.77237 2.7313 -4.87239 0.95331 -0.68229 2.10188 -1.11716 3.36051 -1.21942 1.9014 -0.15449 4.4512 -0.31312 7.7065 -0.41889C18.188 1.54878 20.9002 1.5 24 1.5c4.6259 0 8.3884 0.10862 11.3586 0.25499Z" clip-rule="evenodd" stroke-width="1"></path></g></svg>