<svg xmlns="http://www.w3.org/2000/svg" fill="none" viewBox="0 0 48 48" id="Hamburger-Menu-1--Streamline-Plump"><desc>Hamburger Menu 1 Streamline Icon: https://streamlinehq.com</desc><g id="hamburger-menu-1--button-parallel-horizontal-lines-menu-navigation-three-hamburger"><path id="Union" fill="#000000" fill-rule="evenodd" d="M24 2.5c10.1858 0 16.9471 0.264 19.9017 0.4096 1.61 0.07935 3.1728 1.18447 3.4428 3.00789C47.4322 6.5097 47.5 7.21901 47.5 8c0 0.78099 -0.0678 1.4903 -0.1555 2.0825 -0.27 1.8234 -1.8328 2.9286 -3.4428 3.0079C40.9471 13.236 34.1858 13.5 24 13.5c-10.1858 0 -16.94715 -0.264 -19.90168 -0.4096 -1.61003 -0.0793 -3.172794 -1.1845 -3.442837 -3.0079C0.56778 9.4903 0.5 8.78099 0.5 8c0 -0.78099 0.06778 -1.4903 0.155483 -2.08251C0.925526 4.09407 2.48829 2.98895 4.09832 2.9096 7.05285 2.764 13.8142 2.5 24 2.5Zm0 16c10.1858 0 16.9471 0.264 19.9017 0.4096 1.61 0.0793 3.1728 1.1845 3.4428 3.0079 0.0877 0.5922 0.1555 1.3015 0.1555 2.0825 0 0.781 -0.0678 1.4903 -0.1555 2.0825 -0.27 1.8234 -1.8328 2.9286 -3.4428 3.0079C40.9471 29.236 34.1858 29.5 24 29.5c-10.1858 0 -16.94715 -0.264 -19.90168 -0.4096 -1.61003 -0.0793 -3.172794 -1.1845 -3.442837 -3.0079C0.56778 25.4903 0.5 24.781 0.5 24c0 -0.781 0.06778 -1.4903 0.155483 -2.0825 0.270043 -1.8234 1.832807 -2.9286 3.442837 -3.0079C7.05285 18.764 13.8142 18.5 24 18.5Zm19.9017 16.4096C40.9471 34.764 34.1858 34.5 24 34.5c-10.1858 0 -16.94715 0.264 -19.90168 0.4096 -1.61003 0.0793 -3.172794 1.1845 -3.442837 3.0079C0.56778 38.5097 0.5 39.219 0.5 40c0 0.781 0.06778 1.4903 0.155483 2.0825 0.270043 1.8234 1.832807 2.9286 3.442837 3.0079C7.05285 45.236 13.8142 45.5 24 45.5c10.1858 0 16.9471 -0.264 19.9017 -0.4096 1.61 -0.0793 3.1728 -1.1845 3.4428 -3.0079 0.0877 -0.5922 0.1555 -1.3015 0.1555 -2.0825 0 -0.781 -0.0678 -1.4903 -0.1555 -2.0825 -0.27 -1.8234 -1.8328 -2.9286 -3.4428 -3.0079Z" clip-rule="evenodd" stroke-width="1"></path></g></svg>