<svg xmlns="http://www.w3.org/2000/svg" fill="none" viewBox="0 0 48 48" id="Heart-Rate--Streamline-Plump"><desc>Heart Rate Streamline Icon: https://streamlinehq.com</desc><g id="Solid/Health/Medical Monitoring/heart-rate--health-beauty-information-data-beat-pulse-monitor-heart-rate-info"><path id="Subtract" fill="#000000" fill-rule="evenodd" d="M0.48 18.1061c0 -7.1535 5.6614 -14.211 14.2044 -14.211 3.3074 0 5.9069 1.0985 7.6709 2.1904 0.6651 0.4116 1.215 0.8244 1.6447 1.1816 0.4297 -0.3572 0.9796 -0.77 1.6447 -1.1816 1.764 -1.0919 4.3635 -2.1904 7.6709 -2.1904l0.018 0.0001c8.3153 0.0997 14.1864 7.0252 14.1864 14.2109 0 5.7955 -2.6818 10.7137 -6.46 14.8148 -3.7691 4.0912 -8.7141 7.4656 -13.4692 10.2192 -2.2214 1.2864 -4.9602 1.2864 -7.1815 0 -4.7552 -2.7536 -9.7002 -6.128 -13.4693 -10.2192 -2.0753 -2.2526 -3.8198 -4.7518 -4.9708 -7.5075h13.0231c0.5772 0 1.1264 -0.2492 1.5065 -0.6836l1.6204 -1.8518 4.1269 7.5034c0.3695 0.6721 1.0906 1.0739 1.8566 1.0345 0.7658 -0.0393 1.442 -0.5128 1.7408 -1.2191l3.9292 -9.2873 1.9974 3.4954c0.3564 0.6236 1.0197 1.0085 1.738 1.0085h5.5047c1.1055 0 2.0017 -0.8961 2.0017 -2.0017s-0.8962 -2.0017 -2.0017 -2.0017h-4.3431l-3.427 -5.9974c-0.3777 -0.6607 -1.0973 -1.0502 -1.8569 -1.005 -0.7598 0.0452 -1.4281 0.5173 -1.7246 1.2182l-3.8964 9.2097 -3.5156 -6.3918c-0.3147 -0.5723 -0.8888 -0.955 -1.5381 -1.0254 -0.6493 -0.0704 -1.2921 0.1804 -1.7223 0.6719L14.0841 21.41H0.7766C0.5828 20.342 0.48 19.2409 0.48 18.1061Z" clip-rule="evenodd" stroke-width="1"></path></g></svg>