<svg xmlns="http://www.w3.org/2000/svg" fill="none" viewBox="0 0 48 48" id="Heart--Streamline-Plump"><desc>Heart Streamline Icon: https://streamlinehq.com</desc><g id="Solid/Interface Essential/Bookmark Favorite/heart--reward-social-rating-media-heart-it-like-favorite-love"><path id="Subtract" fill="#000000" fill-rule="evenodd" d="M0.48 18.1061c0 -7.1535 5.6614 -14.211 14.2044 -14.211 3.3074 0 5.9069 1.0985 7.6709 2.1904 0.6651 0.4116 1.215 0.8244 1.6447 1.1816 0.4297 -0.3572 0.9796 -0.77 1.6447 -1.1816 1.764 -1.0919 4.3635 -2.1904 7.6709 -2.1904l0.018 0.0001c8.3153 0.0997 14.1864 7.0252 14.1864 14.2109 0 5.7955 -2.6818 10.7137 -6.46 14.8148 -3.7691 4.0912 -8.7141 7.4656 -13.4692 10.2192 -2.2214 1.2864 -4.9602 1.2864 -7.1815 0 -4.7552 -2.7536 -9.7002 -6.128 -13.4693 -10.2192C3.1618 28.8198 0.48 23.9016 0.48 18.1061Zm33.9242 -8.6668c-1.0838 -0.2185 -2.1394 0.4828 -2.3578 1.5666 -0.2186 1.0837 0.4828 2.1393 1.5665 2.3578 2.0694 0.4172 3.9198 2.0164 4.4434 4.4619 0.2315 1.0811 1.2954 1.7697 2.3764 1.5384 1.081 -0.2315 1.7697 -1.2954 1.5383 -2.3765 -0.8752 -4.088 -4.0202 -6.8332 -7.5668 -7.5482Z" clip-rule="evenodd" stroke-width="1"></path></g></svg>