<svg xmlns="http://www.w3.org/2000/svg" fill="none" viewBox="0 0 48 48"><g id="heat-off--hotel-heat-off-reduce-disable-room-accomodation"><path id="Union" fill="#000000" fill-rule="evenodd" d="M4.3664 0.829889c-0.97631 -0.97631 -2.55922 -0.97631 -3.535534 0 -0.976311 0.976311 -0.976311 2.559221 0 3.535531L9.04441 12.579c-0.00085 0.0012 -0.00169 0.0024 -0.00254 0.0037L19.7975 23.3383l0.003 -0.0033 10.4223 10.4224c-0.0008 0.0012 -0.0016 0.0025 -0.0025 0.0037l8.0861 8.0861c0.0011 -0.001 0.0022 -0.002 0.0033 -0.0029l5.3239 5.3239c0.9763 0.9763 2.5592 0.9763 3.5355 0 0.9763 -0.9764 0.9763 -2.5593 0 -3.5356l-5.6455 -5.6455c1.6245 -2.6994 2.5466 -5.981 2.5466 -9.7904 0 -12.1606 -8.6711 -20.84011 -14.4975 -25.30625 -0.9758 -0.748 -2.0543 -1.2774 -3.1759 -1.58656 -0.7568 -0.2086 -1.4559 0.03368 -1.944 0.5064 -0.4795 0.46448 -0.7597 1.15032 -0.7436 1.87213 0.0305 1.36376 -0.0105 3.00709 -0.2424 4.60467 -0.2329 1.60468 -0.6531 3.12341 -1.3557 4.26511 -0.5054 0.8212 -1.5243 0.9078 -2.0412 0.2753 -0.8858 -1.0836 -1.542 -2.86 -2.0063 -4.66077 -0.2392 -0.92811 -0.9243 -1.6034 -1.7253 -1.87745 -0.8081 -0.27643 -1.752 -0.14741 -2.4584 0.55085 -0.5725 0.56584 -1.1458 1.16305 -1.7121 1.79111L4.3664 0.829889ZM28.0519 35.8353l7.8173 7.8173c-3.338 2.0589 -7.448 3.121 -11.871 3.121 -5.5006 0 -10.5172 -1.6428 -14.16672 -4.8026 -3.65819 -3.1674 -5.90521 -7.8278 -5.90521 -13.7743 0 -4.918 1.41885 -9.2663 3.49188 -12.9951L18.0085 25.792c-0.7328 1.3188 -1.237 2.8532 -1.237 4.58 0 4.0198 3.6679 6.6163 7.2278 6.6163 1.4125 0 2.842 -0.4088 4.0526 -1.153Z" clip-rule="evenodd" stroke-width="1"></path></g></svg>