<svg xmlns="http://www.w3.org/2000/svg" fill="none" viewBox="0 0 48 48"><g id="heat-alert--hotel-heat-alert-warning-dangerous-issue"><path id="Union" fill="#000000" fill-rule="evenodd" d="M41.9998 1.21875c-0.7139 0 -1.3452 0.05686 -1.8935 0.14417 -2.1527 0.3428 -3.0618 2.39647 -2.8976 4.18426 0.1892 2.05892 0.4933 5.03962 0.8285 6.99152 0.2144 1.2487 1.1015 2.432 2.5809 2.6057 0.3865 0.0454 0.8437 0.0744 1.3817 0.0744 0.538 0 0.9953 -0.029 1.3817 -0.0744 1.4794 -0.1737 2.3666 -1.357 2.581 -2.6057 0.3351 -1.9519 0.6393 -4.93259 0.8284 -6.99151 0.1643 -1.7878 -0.7449 -3.84147 -2.8976 -4.18427 -0.5483 -0.08731 -1.1796 -0.14417 -1.8935 -0.14417Zm-23.961 7.91429c0.6942 -0.6241 1.6859 -0.96562 2.7571 -0.69644 1.1397 0.28641 2.2386 0.78577 3.2417 1.4941 4.9797 3.5162 12.408 10.5014 12.408 21.0081 0 5.586 -1.9996 9.7987 -5.3687 12.5853 -3.3263 2.7511 -7.8202 3.9755 -12.6041 3.9755 -4.7839 0 -9.27772 -1.2244 -12.60403 -3.9755C2.49968 40.7375 0.5 36.5248 0.5 30.9388c0 -7.6997 3.99951 -13.5122 8.0571 -17.4243 0.96584 -0.9312 2.2371 -1.1099 3.3184 -0.7816 1.0542 0.3201 1.9683 1.1231 2.4191 2.2209 0.2962 0.7214 0.6157 1.304 0.9445 1.7183 0.0156 0.0196 0.027 0.029 0.0323 0.0329 0.0053 0.0039 0.0088 0.0056 0.0113 0.0065 0.0039 0.0015 0.02 0.0069 0.0525 0.0026 0.0702 -0.0091 0.1873 -0.0618 0.2727 -0.2041 0.7369 -1.2289 1.1272 -3.0579 1.282 -5.0033 0.0721 -0.905 0.478 -1.77055 1.1489 -2.37366ZM19.291 25.2402c-0.5085 -0.3023 -1.1275 -0.3023 -1.636 0 -1.8235 1.0842 -6.0627 4.1466 -6.0627 9.1874 0 3.7462 3.0806 6.422 6.8807 6.422s6.8808 -2.6758 6.8808 -6.422c0 -5.0408 -4.2392 -8.1032 -6.0628 -9.1874ZM42 17.2188c-2.2091 0 -4 1.7908 -4 4 0 2.2091 1.7909 4 4 4 2.2091 0 4 -1.7909 4 -4 0 -2.2092 -1.7909 -4 -4 -4Z" clip-rule="evenodd" stroke-width="1"></path></g></svg>