<svg xmlns="http://www.w3.org/2000/svg" fill="none" viewBox="0 0 48 48" id="Help-Support-Lifebuoy--Streamline-Plump"><desc>Help Support Lifebuoy Streamline Icon: https://streamlinehq.com</desc><g id="help-support-lifebuoy--help-support-lifebuoy-life-security-guard-sea-swimming"><path id="Subtract" fill="#000000" fill-rule="evenodd" d="M8.84886 6.44583C12.9398 2.99196 18.2268 0.910156 24 0.910156c5.7407 0 11.0006 2.058424 15.0819 5.477454 -2.1232 1.25919 -3.8147 2.51693 -5.3219 4.03589 -1.5967 1.6091 -2.9405 3.4653 -4.3698 5.8264 -1.5453 -1.0228 -3.3981 -1.6184 -5.39 -1.6184 -2.0013 0 -3.8622 0.6012 -5.4119 1.6329 -2.8404 -4.3797 -5.2652 -6.7721 -9.73944 -9.81857ZM6.63787 8.57306C2.82522 12.7505 0.5 18.3088 0.5 24.4102c0 5.8168 2.11341 11.1401 5.61427 15.2437 3.21309 -4.6919 5.57483 -7.2271 9.67273 -9.9354 -0.9902 -1.5288 -1.5651 -3.3516 -1.5651 -5.3087 0 -2.3005 0.7944 -4.4155 2.1239 -6.0855 -2.831 -4.4545 -5.0322 -6.6263 -9.70793 -9.75124ZM7.95973 41.5847C12.1593 45.5085 17.7992 47.9102 24 47.9102c6.2211 0 11.8775 -2.4174 16.0813 -6.364l-0.3692 0.2453c-3.1049 -4.6746 -5.2927 -6.8399 -9.549 -9.7896 -1.6819 1.3669 -3.8267 2.1862 -6.1629 2.1862 -2.3487 0 -4.504 -0.8281 -6.1899 -2.2082 -4.0705 2.6293 -6.2243 4.9376 -9.52919 9.8222l-0.32138 -0.2174Zm33.92897 -1.9343C45.3878 35.5472 47.5 30.2253 47.5 24.4102c0 -6.114 -2.3348 -11.6827 -6.1615 -15.86301 -2.3386 1.32508 -4.0118 2.54101 -5.449 3.98941 -1.4728 1.4843 -2.7513 3.2663 -4.2405 5.7807 1.3328 1.6711 2.1295 3.7888 2.1295 6.0925 0 1.9735 -0.5846 3.8104 -1.5902 5.3471 4.1993 2.9438 6.6037 5.3108 9.7004 9.8935Z" clip-rule="evenodd" stroke-width="1"></path></g></svg>