<svg xmlns="http://www.w3.org/2000/svg" fill="none" viewBox="0 0 48 48" id="Help-Question-2--Streamline-Plump"><desc>Help Question 2 Streamline Icon: https://streamlinehq.com</desc><g id="Solid/Interface Essential/Help/help-question-2--frame-help-mark-query-question-square"><path id="Subtract" fill="#000000" fill-rule="evenodd" d="M39.8643 2.04389C36.5927 1.77808 31.4014 1.5 24 1.5c-7.4014 0 -12.5927 0.27808 -15.8643 0.54389 -3.28785 0.26713 -5.82467 2.80395 -6.09181 6.0918C1.77808 11.4073 1.5 16.5986 1.5 24c0 7.4014 0.27807 12.5927 0.54389 15.8643 0.26713 3.2879 2.80396 5.8247 6.09181 6.0918 3.2716 0.2658 8.4629 0.5439 15.8643 0.5439 7.4014 0 12.5927 -0.2781 15.8643 -0.5439 3.2878 -0.2671 5.8247 -2.8039 6.0918 -6.0918 0.2658 -3.2716 0.5439 -8.4629 0.5439 -15.8643 0 -7.4014 -0.2781 -12.5927 -0.5439 -15.86429 -0.2671 -3.28786 -2.804 -5.82468 -6.0918 -6.09182ZM19.7701 35.333c0 -1.749 1.4178 -3.1667 3.1668 -3.1667 1.7489 0 3.1667 1.4177 3.1667 3.1667 0 1.7489 -1.4178 3.1667 -3.1667 3.1667 -1.749 0 -3.1668 -1.4178 -3.1668 -3.1667Zm0.1454 -24.0606c-1.6722 1.0829 -2.7137 2.4656 -3.0377 3.7588 -0.3157 1.2603 -0.0616 2.3035 0.438 2.9728 0.4817 0.6453 1.2876 1.0801 2.431 0.9893 0.2779 -0.022 0.6168 -0.1503 1.081 -0.4268 1.0689 -0.6366 3.0339 -1.7862 4.5837 -2.5712 0.7296 -0.3695 1.6206 -0.0866 2.0034 0.6361 0.3827 0.7226 0.1161 1.6187 -0.5995 2.0146 -0.3092 0.1711 -0.632 0.3447 -0.962 0.5222 -1.2138 0.6529 -2.5295 1.3607 -3.6638 2.2065 -1.4913 1.1121 -2.1591 2.1003 -2.1591 2.9811l-0.0053 3.8091c-0.0008 0.5528 0.4471 1.0014 1 1.0014h3.1386c0.5522 0 1 -0.4477 1 -1v-0.8327c0 -0.5526 0.3037 -1.0604 0.7905 -1.3217 2.4876 -1.3352 4.484 -2.462 5.8842 -3.8215 1.3225 -1.2841 2.0842 -2.7504 2.0842 -4.857 0 -2.0494 -0.6197 -4.0096 -1.8555 -5.4336C30.8616 10.5105 28.9582 9.5 26.0893 9.5c-2.357 0 -4.5204 0.7017 -6.1738 1.7724Z" clip-rule="evenodd" stroke-width="1"></path></g></svg>