<svg xmlns="http://www.w3.org/2000/svg" fill="none" viewBox="0 0 48 48" id="Highlighter--Streamline-Plump"><desc>Highlighter Streamline Icon: https://streamlinehq.com</desc><g id="highlighter"><path id="Union" fill="#000000" fill-rule="evenodd" d="M22.8576 2.5585c-1.7746 -0.8445 -3.8803 -0.5318 -5.3102 0.8452 -2.8428 2.7374 -8.3769 8.5061 -12.9083 15.9017 0.1363 0.0438 0.3004 0.0979 0.4916 0.1633 0.6213 0.2128 1.5294 0.5453 2.7067 1.0328 2.3548 0.9749 5.7858 2.5692 10.1523 5.0632 4.364 2.4927 7.4905 4.6271 9.5371 6.1488 1.0232 0.7607 1.7763 1.3683 2.2789 1.7907 0.1734 0.1456 0.317 0.2694 0.4316 0.3696 4.1138 -7.5517 6.343 -15.1338 7.2998 -18.9418 0.4864 -1.9363 -0.3008 -3.9297 -1.9328 -5.045 -1.5687 -1.072 -3.8443 -2.5698 -6.2088 -3.9296 -2.3722 -1.3641 -4.8205 -2.5817 -6.5379 -3.3989Zm5.2256 33.4642c-0.068 -0.0585 -0.1446 -0.1235 -0.2298 -0.1952 -0.4568 -0.3839 -1.1627 -0.954 -2.1373 -1.6786 -1.9491 -1.4492 -4.9736 -3.5168 -9.2315 -5.9489 -4.2552 -2.4306 -7.5712 -3.9685 -9.8079 -4.8945 -1.1185 -0.4631 -1.9673 -0.7733 -2.529 -0.9656 -0.0778 -0.0267 -0.1502 -0.0511 -0.217 -0.0732 0.0156 0.1986 0.0428 0.3967 0.0818 0.5932l1.6546 8.3338c-0.2564 0.453 -0.5137 0.921 -0.7695 1.3978l0.0734 0.0295c0.4328 0.1747 1.0482 0.43 1.7866 0.7553 1.4736 0.6491 3.4523 1.5837 5.4518 2.7197 2.006 1.1397 3.6695 2.2871 4.8333 3.1508 0.5826 0.4325 1.042 0.7951 1.3584 1.0522l0.0422 0.0344 0.8477 -1.2713 8.1178 -2.7548c0.232 -0.0787 0.4574 -0.1739 0.6744 -0.2846ZM3.498 35.301c-1.0923 2.1891 -2.0759 4.3205 -2.7544 5.8285 -0.7687 1.7087 0.2059 3.7224 2.1154 4.0544 2.3457 0.4078 6.1691 0.8994 10.0929 0.6627 1.2383 -0.0747 2.32 -0.7579 2.9793 -1.7466l0.8193 -1.2286c-0.0672 -0.0561 -0.1552 -0.129 -0.2632 -0.2167 -0.2856 -0.232 -0.71 -0.5673 -1.2536 -0.9707 -1.0887 -0.808 -2.6481 -1.8835 -4.5239 -2.9492 -1.8819 -1.0693 -3.7616 -1.9581 -5.176 -2.5811 -0.7056 -0.3109 -1.2916 -0.5539 -1.6992 -0.7184 -0.1315 -0.0531 -0.2444 -0.098 -0.3366 -0.1343Zm19.2375 5.232H44.991c1.3967 0 2.529 1.1323 2.529 2.529s-1.1323 2.529 -2.529 2.529H22.7355c-1.3967 0 -2.529 -1.1323 -2.529 -2.529s1.1322 -2.529 2.529 -2.529Z" clip-rule="evenodd" stroke-width="1"></path></g></svg>