<svg xmlns="http://www.w3.org/2000/svg" fill="none" viewBox="0 0 48 48" id="High-Five--Streamline-Plump"><desc>High Five Streamline Icon: https://streamlinehq.com</desc><g id="Solid/Interface Essential/Hand Gestures/high-five"><path id="Union" fill="#000000" fill-rule="evenodd" d="M19.2847 0.66026c0.7465 -0.185945 1.5139 -0.191128 2.2377 -0.111408 1.6136 0.177729 2.4116 1.657578 2.422 3.076878 0.0115 1.56845 0.0071 3.76132 -0.0031 5.85951 -1.7835 0.79726 -2.7088 2.50986 -3.0026 4.08406 -0.3848 -0.196 -0.8142 -0.3446 -1.2888 -0.4302 -0.4884 -0.0881 -1.025 -0.1381 -1.6122 -0.1381 -0.1966 0 -0.3881 0.0056 -0.5743 0.016 0.0028 -0.0319 0.0041 -0.0641 0.004 -0.0968 -0.0071 -2.3969 -0.0181 -6.93862 -0.009 -9.46865 0.0041 -1.12423 0.4906 -2.458606 1.8263 -2.79129ZM15.4254 13.4176c-0.0773 -0.1489 -0.1209 -0.318 -0.1209 -0.4973V5.25018c0 -1.41842 -0.7413 -3.0073 -2.3999 -3.20208 -0.3529 -0.04145 -0.7718 -0.06468 -1.1961 -0.03184 -1.88852 0.14619 -2.83492 1.98935 -2.83492 3.63408V20.6915l-0.07727 -0.0726c-0.57507 -0.5398 -1.37711 -1.2813 -2.28502 -2.0883 -0.84204 -0.7485 -1.92547 -1.1059 -2.93141 -0.9969 -1.02162 0.1107 -1.95054 0.7053 -2.40561 1.8099 -0.185745 0.4508 -0.348942 0.9467 -0.468143 1.4831 -0.290643 1.3081 0.16427 2.5924 0.882073 3.6054 1.51783 2.1419 4.6238 6.2436 8.25894 9.4519 0.74776 0.66 1.58226 1.2054 2.48056 1.6104 -0.2151 -1.9806 -0.3296 -3.9223 -0.3267 -5.6158 0.0004 -4.0414 0.0003 -8.6978 0.0002 -10.9231 -0.0001 -1.8738 0.9249 -4.5488 3.4242 -5.5379Zm17.0921 -2.2635c-0.0087 -1.0815 -0.0168 -2.16057 -0.0167 -3.23618 0 -1.5016 -0.8091 -3.14056 -2.5258 -3.35903 -0.6676 -0.08496 -1.366 -0.08585 -2.0471 0.04007 -1.3717 0.25359 -1.8579 1.60408 -1.8579 2.71386V9.0202c0.2132 -0.01248 0.4344 -0.01922 0.6633 -0.01922 0.735 0 1.397 0.08812 1.9831 0.23037 1.5705 0.38117 2.527 1.34485 3.0848 2.40855 0.2182 -0.1795 0.4565 -0.3429 0.7163 -0.4858Zm-5.7842 0.3469c-0.3413 0 -0.656 0.019 -0.9435 0.0509 -1.6264 0.1799 -2.4458 1.6625 -2.4564 3.1038 -0.0195 2.6244 0.0065 6.9665 0.0291 9.7086 0.0051 0.6267 -0.5009 1.1367 -1.1286 1.1367 -0.6223 0 -1.1268 -0.5045 -1.1268 -1.1269v-6.0246c0 -1.137 -0.5085 -2.499 -1.9009 -2.7501 -0.3359 -0.0606 -0.7238 -0.0984 -1.1685 -0.0984 -0.3463 0 -0.6705 0.023 -0.9699 0.061 -1.7331 0.2204 -2.5667 1.8659 -2.5666 3.3928 0.0001 2.4836 0.0002 6.7002 -0.0002 10.9261 -0.0051 2.8172 0.3383 6.425 0.947 9.6746 0.8866 4.7331 4.9306 7.7748 9.6861 7.9168 0.614 0.0183 1.2628 0.0287 1.9446 0.0287 2.3888 0 4.1991 -0.12 5.5115 -0.264 1.9297 -0.2117 3.7112 -1.0298 5.1784 -2.2762 3.7744 -3.2066 7.0069 -7.3351 8.5915 -9.4994 0.7517 -1.0267 1.2333 -2.3455 0.9175 -3.6864 -0.1351 -0.5739 -0.3218 -1.1006 -0.5326 -1.5748 -0.474 -1.0663 -1.3932 -1.6365 -2.3973 -1.7428 -0.9896 -0.1048 -2.0517 0.2382 -2.8862 0.9544 -0.9692 0.8317 -1.83 1.6016 -2.4485 2.1634l-0.1547 0.1408V16.6857c0 -1.6694 -0.9714 -3.5097 -2.8704 -3.6664 -0.1423 -0.0117 -0.2871 -0.0183 -0.4331 -0.0183 -0.3087 0 -0.596 0.0183 -0.8613 0.0494 -1.676 0.1964 -2.4413 1.7941 -2.4413 3.2385v7.5815c0 0.6246 -0.5062 1.1306 -1.1321 1.1306 -0.6283 0 -1.1346 -0.5073 -1.1327 -1.133 0.0073 -2.3987 0.0184 -6.8626 0.0092 -9.3811 -0.0042 -1.1501 -0.5132 -2.4968 -1.8698 -2.8261 -0.3957 -0.096 -0.8598 -0.1598 -1.3935 -0.1598ZM37.0808 0.539815c1.0831 0.216624 1.7855 1.270275 1.5689 2.353395l-0.7071 3.53553c-0.2166 1.08312 -1.2703 1.78556 -2.3534 1.56893 -1.0831 -0.21662 -1.7855 -1.27027 -1.5689 -2.35339l0.7071 -3.53554C34.944 1.02562 35.9977 0.323191 37.0808 0.539815Zm7.7868 6.817245c0.8719 -0.67814 1.0289 -1.93469 0.3508 -2.80658 -0.6782 -0.8719 -1.9347 -1.02897 -2.8066 -0.35083l-3.182 2.47488c-0.8719 0.67814 -1.0289 1.93469 -0.3508 2.80658 0.6781 0.87189 1.9347 1.02899 2.8066 0.35083l3.182 -2.47488Zm-3.0762 3.91974c-1.1 -0.1 -2.0728 0.7106 -2.1728 1.8107 -0.1 1.1 0.7106 2.0728 1.8107 2.1728l3.8891 0.3536c1.1 0.1 2.0728 -0.7107 2.1728 -1.8107 0.1 -1.1001 -0.7107 -2.0729 -1.8107 -2.1729l-3.8891 -0.3535Z" clip-rule="evenodd" stroke-width="1"></path></g></svg>