<svg xmlns="http://www.w3.org/2000/svg" fill="none" viewBox="0 0 48 48" id="Home-Chimney-1--Streamline-Plump"><desc>Home Chimney 1 Streamline Icon: https://streamlinehq.com</desc><g id="Solid/Interface Essential/Home/home-chimney-1--home-chimney-house-roof-shelter"><path id="Subtract" fill="#000000" fill-rule="evenodd" d="M34.415 1.75824c0.7207 -0.134 1.6418 -0.25824 2.5867 -0.25824 0.9449 0 1.866 0.12424 2.5867 0.25824 1.1205 0.20836 1.8419 1.20028 1.8513 2.28648 0.0215 2.49267 0.062 7.56588 0.062 10.39968l-0.0002 0.565c1.9712 2.3479 3.7447 4.7093 5.1971 6.8215 1.405 2.0432 0.2112 4.7979 -2.3334 5.0338 -0.5461 0.0507 -1.1829 0.1031 -1.9223 0.1551 -0.0815 5.7863 -0.2305 10.812 -0.3354 13.8773 -0.0873 2.5495 -1.9546 4.7382 -4.59 5.0108 -2.71 0.2804 -7.1565 0.5928 -13.5157 0.5928 -6.359 0 -10.8031 -0.3124 -13.5109 -0.5928 -2.63356 -0.2726 -4.49988 -2.459 -4.58845 -5.0067 -0.10655 -3.0651 -0.258 -8.0927 -0.34083 -13.8813 -0.74019 -0.0521 -1.37766 -0.1046 -1.92418 -0.1553 -2.5439 -0.2359 -3.738228 -2.9897 -2.33367 -5.0331 2.39131 -3.4788 5.65473 -7.6331 9.23733 -11.29 3.555 -3.62865 7.5446 -6.89324 11.3975 -8.43092 1.3251 -0.52888 2.8011 -0.52897 4.1264 -0.00017 2.1514 0.85846 4.3452 2.25534 6.482 3.95336 0.0061 -0.76702 0.0119 -1.45833 0.0167 -2.01905 0.0094 -1.0862 0.7308 -2.07812 1.8513 -2.28648ZM29.1906 41.9187c1.0133 -0.0333 1.8111 -0.8679 1.8111 -1.8817 0 -2.4013 -0.0464 -6.3406 -0.0841 -9.1397 -0.0257 -1.9099 -1.403 -3.5328 -3.3045 -3.7136C26.5305 27.0809 25.2748 27 24.0017 27c-1.2731 0 -2.5288 0.0809 -3.6113 0.1837 -1.9016 0.1808 -3.2789 1.8037 -3.3046 3.7136 -0.0376 2.7991 -0.0841 6.7384 -0.0841 9.1397 0 1.014 0.798 1.8487 1.8114 1.882 1.5366 0.0504 3.2613 0.081 5.1848 0.081 1.9266 0 3.654 -0.0307 5.1927 -0.0813Z" clip-rule="evenodd" stroke-width="1"></path></g></svg>