<svg xmlns="http://www.w3.org/2000/svg" fill="none" viewBox="0 0 48 48" id="Horizontal-Menu--Streamline-Plump"><desc>Horizontal Menu Streamline Icon: https://streamlinehq.com</desc><g id="horizontal-menu--navigation-dots-three-circle-button-horizontal-menu"><path id="Union" fill="#000000" fill-rule="evenodd" d="M8 17c-3.86599 0 -7 3.134 -7 7s3.13401 7 7 7c3.866 0 7 -3.134 7 -7s-3.134 -7 -7 -7Zm32 0c-3.866 0 -7 3.134 -7 7s3.134 7 7 7 7 -3.134 7 -7 -3.134 -7 -7 -7Zm-23 7c0 -3.866 3.134 -7 7 -7s7 3.134 7 7 -3.134 7 -7 7 -7 -3.134 -7 -7Z" clip-rule="evenodd" stroke-width="1"></path></g></svg>