<svg xmlns="http://www.w3.org/2000/svg" fill="none" viewBox="0 0 48 48" id="Horizontal-Menu-Square--Streamline-Plump"><desc>Horizontal Menu Square Streamline Icon: https://streamlinehq.com</desc><g id="horizontal-menu-square--navigation-dots-three-square-button-horizontal-menu"><path id="Subtract" fill="#000000" fill-rule="evenodd" d="M8.1357 45.9561c3.2716 0.2658 8.4629 0.5439 15.8643 0.5439 7.4014 0 12.5927 -0.2781 15.8643 -0.5439 3.2878 -0.2671 5.8247 -2.8039 6.0918 -6.0918 0.2658 -3.2716 0.5439 -8.4629 0.5439 -15.8643 0 -7.4014 -0.2781 -12.5927 -0.5439 -15.8643 -0.2671 -3.28785 -2.804 -5.82468 -6.0918 -6.09181C36.5927 1.77808 31.4014 1.5 24 1.5c-7.4014 0 -12.5927 0.27807 -15.8643 0.54389 -3.28785 0.26713 -5.82468 2.80396 -6.09181 6.09181C1.77808 11.4073 1.5 16.5986 1.5 24c0 7.4014 0.27808 12.5927 0.54389 15.8643 0.26713 3.2878 2.80396 5.8247 6.09181 6.0918ZM8.5 24c0 -2.2091 1.7909 -4 4 -4 2.2091 0 4 1.7909 4 4 0 2.2091 -1.7909 4 -4 4 -2.2091 0 -4 -1.7909 -4 -4ZM24 20c-2.2091 0 -4 1.7909 -4 4 0 2.2091 1.7909 4 4 4 2.2091 0 4 -1.7909 4 -4 0 -2.2091 -1.7909 -4 -4 -4Zm7.5 4c0 -2.2091 1.7909 -4 4 -4 2.2091 0 4 1.7909 4 4 0 2.2091 -1.7909 4 -4 4 -2.2091 0 -4 -1.7909 -4 -4Z" clip-rule="evenodd" stroke-width="1"></path></g></svg>