<svg xmlns="http://www.w3.org/2000/svg" fill="none" viewBox="0 0 48 48" id="Hot-Air-Balloon--Streamline-Plump"><desc>Hot Air Balloon Streamline Icon: https://streamlinehq.com</desc><g id="hot-air-balloon"><path id="Subtract" fill="#000000" fill-rule="evenodd" d="M9.72281 4.61817C13.5046 1.82662 18.5959 0.5 24 0.5s10.4954 1.32662 14.2772 4.11817C42.1102 7.44751 44.5 11.7181 44.5 17.3c0 4.1887 -1.8256 8.2944 -3.9768 11.7058l-0.0135 0.0209c-0.009 0.0139 -0.0183 0.0276 -0.0278 0.0411 -0.0062 0.0117 -0.013 0.0233 -0.0202 0.0347 -0.7505 1.182 -1.5437 2.287 -2.322 3.2912 -1.5579 2.01 -3.1123 3.6873 -4.2765 4.862 -0.0851 0.0859 -0.1682 0.1692 -0.2492 0.2498 0.5338 0.5366 0.8713 1.2655 0.8835 2.1312 0.0016 0.1171 0.0025 0.2381 0.0025 0.3633s-0.0009 0.2462 -0.0025 0.3633c-0.0205 1.4617 -0.9781 2.546 -2.2419 2.9558 -0.1009 0.7452 -0.2213 1.3682 -0.3375 1.8691 -0.2669 1.1501 -1.2171 1.9353 -2.3651 2.0603 -1.1385 0.1241 -2.9431 0.2515 -5.553 0.2515s-4.4145 -0.1274 -5.553 -0.2515c-1.148 -0.125 -2.0982 -0.9102 -2.3651 -2.0603 -0.1162 -0.5009 -0.2366 -1.1239 -0.3375 -1.8691 -1.2638 -0.4098 -2.2214 -1.4941 -2.2419 -2.9558 -0.0016 -0.1171 -0.0025 -0.2381 -0.0025 -0.3633s0.0009 -0.2462 0.0025 -0.3633c0.0122 -0.8654 0.3495 -1.5942 0.883 -2.1308 -0.0811 -0.0807 -0.1644 -0.1641 -0.2497 -0.2502 -1.1642 -1.1747 -2.7186 -2.852 -4.27641 -4.862 -0.7783 -1.0042 -1.57157 -2.1092 -2.32199 -3.2912 -0.00839 -0.0132 -0.01606 -0.0266 -0.02303 -0.04 -0.0129 -0.0186 -0.02542 -0.0375 -0.03754 -0.0567C5.32558 25.5944 3.5 21.4887 3.5 17.3c0 -5.5819 2.38984 -9.85249 6.22281 -12.68183ZM12.8973 30.1237c1.2108 0.0916 2.5441 0.1715 4.008 0.2339l0.2745 0.0115c2.0215 0.0822 4.2879 0.1309 6.8202 0.1309 2.6476 0 5.0044 -0.0533 7.0947 -0.1424 1.4629 -0.0623 2.7953 -0.1422 4.0054 -0.2337 -1.0567 1.3983 -2.1328 2.648 -3.0905 3.6854 -1.172 1.2698 -2.1542 2.2078 -2.6773 2.6907H18.6647c-0.5236 -0.4835 -1.5048 -1.4207 -2.6753 -2.6887 -0.9581 -1.038 -2.0349 -2.2884 -3.0921 -3.6876Zm6.9359 -23.83739c0.4342 -0.70555 0.2142 -1.62946 -0.4914 -2.06361 -0.7055 -0.43416 -1.6294 -0.21414 -2.0636 0.49141C15.5133 7.58239 14.5 11.8242 14.5 17.2995c0 3.2752 0.5004 6.3668 1.1869 9.0699 0.2039 0.803 1.0201 1.2886 1.8231 1.0847 0.8029 -0.204 1.2885 -1.0202 1.0846 -1.8231 -0.6393 -2.5175 -1.0946 -5.3568 -1.0946 -8.3315 0 -5.1667 0.9659 -8.79104 2.3332 -11.01319Zm10.8886 -1.5722c-0.4342 -0.70555 -1.3581 -0.92557 -2.0636 -0.49141 -0.7056 0.43415 -0.9256 1.35806 -0.4914 2.06361C29.5341 8.50846 30.5 12.1328 30.5 17.2995c0 2.9747 -0.4553 5.814 -1.0946 8.3315 -0.2039 0.8029 0.2817 1.6191 1.0846 1.8231 0.803 0.2039 1.6192 -0.2817 1.8231 -1.0847 0.6865 -2.7031 1.1869 -5.7947 1.1869 -9.0699 0 -5.4753 -1.0133 -9.71711 -2.7782 -12.58539Z" clip-rule="evenodd" stroke-width="1"></path></g></svg>