<svg xmlns="http://www.w3.org/2000/svg" fill="none" viewBox="0 0 48 48" id="Hourglass--Streamline-Plump"><desc>Hourglass Streamline Icon: https://streamlinehq.com</desc><g id="Solid/Interface Essential/Time/hourglass--hourglass-loading-measure-clock-time"><path id="Subtract" fill="#000000" fill-rule="evenodd" d="M4 0.5c-1.10457 0 -2 0.89543 -2 2s0.89543 2 2 2h2.2711c-0.20856 5.9921 1.94536 10.116 4.2905 13.1646 0.8766 1.1395 1.832 2.1868 2.6355 3.0676 0.366 0.4011 0.7004 0.7677 0.9816 1.0928 0.482 0.5573 0.8275 1.0087 1.0509 1.3997 0.2206 0.386 0.2712 0.626 0.2712 0.7753s-0.0506 0.3893 -0.2712 0.7753c-0.2234 0.391 -0.5689 0.8424 -1.0509 1.3997 -0.2811 0.325 -0.6158 0.6918 -0.9815 1.0928 -0.8035 0.8807 -1.759 1.9281 -2.6356 3.0676C8.21646 33.384 6.06253 37.5079 6.2711 43.5H4c-1.10457 0 -2 0.8954 -2 2s0.89543 2 2 2h40c1.1046 0 2 -0.8954 2 -2s-0.8954 -2 -2 -2h-2.2709c0.2089 -5.992 -1.9447 -10.1159 -4.2897 -13.1645 -0.8765 -1.1396 -1.8318 -2.1868 -2.6352 -3.0676 -0.3659 -0.4011 -0.7003 -0.7678 -0.9815 -1.0929 -0.482 -0.5573 -0.8274 -1.0086 -1.0509 -1.3997 -0.2206 -0.386 -0.2711 -0.626 -0.2711 -0.7753s0.0505 -0.3893 0.2711 -0.7753c0.2235 -0.3911 0.5689 -0.8424 1.0509 -1.3997 0.281 -0.3249 0.6152 -0.6913 0.9808 -1.0921l0.0007 -0.0008c0.8034 -0.8808 1.7587 -1.928 2.6352 -3.0676 2.345 -3.0486 4.4986 -7.1725 4.2897 -13.1645H44c1.1046 0 2 -0.89543 2 -2s-0.8954 -2 -2 -2H4Zm13.6581 9.5265c1.4081 -0.26813 3.5025 -0.5265 6.3432 -0.5265 2.8407 0 4.9344 0.25837 6.3419 0.5265 0.7036 0.134 1.2348 0.2703 1.6015 0.3777 0.1833 0.0536 0.3253 0.1 0.4271 0.1351 0.0508 0.0176 0.0916 0.0324 0.1224 0.0439l0.0388 0.0147 0.0138 0.0054 0.0055 0.0022 0.0036 0.0014s0.001 0.0004 -0.556 1.393l0.557 -1.3926c0.7374 0.2949 1.1171 1.1136 0.866 1.867 -0.6187 1.856 -2.2047 3.8171 -3.8585 5.2757 -0.8469 0.747 -1.7687 1.4135 -2.6821 1.9013 -0.8854 0.4729 -1.8941 0.8488 -2.8802 0.8488 -0.9859 0 -1.9948 -0.3759 -2.8806 -0.8486 -0.9137 -0.4878 -1.836 -1.1542 -2.6835 -1.9011 -1.6548 -1.4585 -3.2424 -3.4197 -3.8612 -5.2761 -0.2512 -0.7536 0.1288 -1.5725 0.8665 -1.8672L15.9998 12c-0.5565 -1.3929 -0.5554 -1.3934 -0.5554 -1.3934l0.0035 -0.0014 0.0055 -0.0021 0.0138 -0.0054 0.0388 -0.0147c0.0308 -0.0115 0.0716 -0.0262 0.1225 -0.0438 0.1018 -0.0352 0.2439 -0.0815 0.4273 -0.1351 0.3668 -0.1073 0.8984 -0.2436 1.6023 -0.3776ZM35.5 40.5c0 0.8284 -0.6716 1.5 -1.5 1.5H14c-0.8284 0 -1.5 -0.6716 -1.5 -1.5 0 -1.2529 0.5173 -2.5842 1.1954 -3.7793 0.697 -1.2285 1.6534 -2.4695 2.7277 -3.5774 1.0739 -1.1075 2.3023 -2.1197 3.5644 -2.8647C21.2271 29.5469 22.6229 29 24 29s2.7729 0.5469 4.0125 1.2786c1.2621 0.745 2.4905 1.7572 3.5644 2.8647 1.0743 1.1079 2.0307 2.3489 2.7277 3.5774C34.9827 37.9158 35.5 39.2471 35.5 40.5Z" clip-rule="evenodd" stroke-width="1"></path></g></svg>