<svg xmlns="http://www.w3.org/2000/svg" fill="none" viewBox="0 0 48 48"><g id="house-key-access--house-key-access-door-property-real-estate"><path id="Subtract" fill="#000000" fill-rule="evenodd" d="M17.9216 15.5395C17.9216 7.50954 24.4312 1 32.4611 1c8.0299 0 14.5395 6.50954 14.5395 14.5395 0 8.0299 -6.5096 14.5394 -14.5395 14.5394 -1.2216 0 -2.4092 -0.1508 -3.5447 -0.4354 -0.902 0.9824 -1.9996 2.1468 -3.3315 3.5177 -0.1883 0.1938 -0.447 0.3032 -0.7173 0.3032h-4.111l-0.0001 -0.0002v3.1845c0 1.1048 -0.8957 1.9999 -2.0001 1.9999h-3.0571l-0.0002 -0.0001v3.6801c0 0.2854 -0.1219 0.5572 -0.335 0.7469 -0.7785 0.6931 -1.4044 1.2271 -1.8982 1.6346 -1.151 0.9498 -2.5888 1.345 -4.00805 1.2897l-4.4124 -0.1718c-1.56499 -0.0609 -2.82012 -1.3153 -2.88125 -2.8804l-0.1723 -4.4118c-0.05543 -1.4194 0.33988 -2.8572 1.29015 -4.0081 1.29571 -1.5694 3.87666 -4.4803 8.79545 -9.3978 2.6351 -2.6344 4.6937 -4.5976 6.2781 -6.0515 -0.2836 -1.1337 -0.434 -2.3194 -0.434 -3.5389ZM35.4873 16C33.5613 16 32 14.4387 32 12.5127s1.5613 -3.48731 3.4873 -3.48731 3.4873 1.56131 3.4873 3.48731S37.4133 16 35.4873 16Z" clip-rule="evenodd" stroke-width="1"></path></g></svg>