<svg xmlns="http://www.w3.org/2000/svg" fill="none" viewBox="0 0 48 48"><g id="house-key-no-access--house-key-no-access-disable-property-door-real-estate"><path id="Union" fill="#000000" fill-rule="evenodd" d="M4.3664 0.829889c-0.97631 -0.97631 -2.55922 -0.97631 -3.535534 0 -0.976311 0.976311 -0.976311 2.559221 0 3.535531L16.8994 20.4339c-0.0009 0.0009 -0.0018 0.0017 -0.0027 0.0026L27.56 31.0998c0.0009 -0.0009 0.0017 -0.0018 0.0026 -0.0027l16.071 16.0711c0.9763 0.9763 2.5592 0.9763 3.5355 0 0.9763 -0.9764 0.9763 -2.5593 0 -3.5356L33.5735 30.037c7.5102 -0.5682 13.4271 -6.8419 13.4271 -14.4975C47.0006 7.50954 40.491 1 32.4611 1c-7.6556 0 -13.9293 5.91686 -14.4975 13.427L4.3664 0.829889ZM14.7302 22.5127l10.7456 10.7455c-0.1735 0.1329 -0.387 0.2062 -0.6082 0.2062h-4.111l-0.0001 -0.0002v3.1845c0 1.1048 -0.8957 1.9999 -2.0001 1.9999h-3.0571l-0.0002 -0.0001v3.6801c0 0.2854 -0.1219 0.5572 -0.335 0.7469 -0.7785 0.6931 -1.4044 1.2271 -1.8982 1.6346 -1.151 0.9498 -2.5888 1.345 -4.00805 1.2897l-4.4124 -0.1718c-1.56499 -0.0609 -2.82012 -1.3153 -2.88125 -2.8804l-0.1723 -4.4118c-0.05543 -1.4194 0.33988 -2.8572 1.29015 -4.0081 1.29571 -1.5694 3.87666 -4.4803 8.79545 -9.3978 0.9589 -0.9587 1.8415 -1.8285 2.6527 -2.6172ZM35.4873 16C33.5613 16 32 14.4387 32 12.5127s1.5613 -3.48731 3.4873 -3.48731 3.4873 1.56131 3.4873 3.48731S37.4133 16 35.4873 16Z" clip-rule="evenodd" stroke-width="1"></path></g></svg>