<svg xmlns="http://www.w3.org/2000/svg" fill="none" viewBox="0 0 48 48" id="Hurricane--Streamline-Plump"><desc>Hurricane Streamline Icon: https://streamlinehq.com</desc><g id="hurricane--twister-tornado-hurricane-cyclone-disaster-natural-weather"><path id="Union" fill="#000000" fill-rule="evenodd" d="M39.5201 3.73374C43.4798 5.71359 46.5 8.72626 46.5 12.5c0 3.7737 -3.0202 6.7864 -6.9799 8.7663C35.4706 23.291 29.9814 24.5 24 24.5c-5.9814 0 -11.4706 -1.209 -15.52006 -3.2337C4.52023 19.2864 1.5 16.2737 1.5 12.5c0 -3.77374 3.02023 -6.78641 6.97994 -8.76626C12.5294 1.70902 18.0186 0.5 24 0.5c5.9814 0 11.4706 1.20902 15.5201 3.23374ZM37 10.5c1.1046 0 2 0.8954 2 2 0 1.445 -0.7007 2.6481 -1.6072 3.5549 -0.8987 0.8989 -2.0983 1.6165 -3.4211 2.1761C31.3181 19.3537 27.7913 20 24 20c-3.7913 0 -7.3181 -0.6463 -9.9717 -1.769 -1.3228 -0.5596 -2.5224 -1.2772 -3.4211 -2.1761C9.70067 15.1481 9 13.945 9 12.5c0 -1.445 0.70067 -2.6481 1.6072 -3.55487 0.8987 -0.8989 2.0983 -1.61648 3.4211 -2.17615C16.6819 5.64632 20.2087 5 24 5c1.1046 0 2 0.89543 2 2s-0.8954 2 -2 2c-3.3884 0 -6.3616 0.5849 -8.4131 1.4528 -1.0297 0.4357 -1.7339 0.9032 -2.1509 1.3204 -0.4091 0.4092 -0.436 0.653 -0.436 0.7268 0 0.0738 0.0269 0.3176 0.436 0.7268 0.417 0.4172 1.1212 0.8847 2.1509 1.3204C17.6384 15.4151 20.6116 16 24 16s6.3616 -0.5849 8.4131 -1.4528c1.0297 -0.4357 1.7339 -0.9032 2.1509 -1.3204 0.4091 -0.4092 0.436 -0.653 0.436 -0.7268 0 -1.1046 0.8954 -2 2 -2Zm2.7731 14.5259c0.5112 0.9792 0.1319 2.1874 -0.8472 2.6986C35.5866 29.4682 29.7522 30.5 23.3842 30.5c-3.5353 0 -6.8517 -0.3174 -9.6563 -0.8751 -2.7559 -0.548 -5.19283 -1.3618 -6.83907 -2.4622 -0.91833 -0.6137 -1.1652 -1.8558 -0.5514 -2.7741 0.6138 -0.9183 1.85583 -1.1652 2.77416 -0.5514 1.00041 0.6687 2.83331 1.3548 5.39651 1.8646 2.5146 0.5 5.5668 0.7982 8.8761 0.7982 6.1231 0 11.1946 -1.0181 13.6903 -2.3212 0.9791 -0.5113 2.1873 -0.132 2.6986 0.8471Zm-3.0944 16.3556c1.0391 -0.3746 1.5778 -1.5206 1.2032 -2.5597 -0.3746 -1.0391 -1.5206 -1.5778 -2.5597 -1.2032 -1.4361 0.5177 -3.6013 0.8815 -6.1044 0.8815 -1.7995 0 -3.4411 -0.1883 -4.7669 -0.4948 -1.0762 -0.2488 -2.1503 0.422 -2.3991 1.4982 -0.2487 1.0762 0.422 2.1503 1.4982 2.399 1.6587 0.3835 3.6062 0.5976 5.6678 0.5976 2.8296 0 5.478 -0.4037 7.4609 -1.1186Zm-2.2312 3.7693c0.2524 1.0754 -0.4147 2.1517 -1.49 2.4042 -1.2314 0.289 -2.5677 0.445 -3.957 0.445 -1.3894 0 -2.7257 -0.156 -3.9571 -0.445 -1.0753 -0.2525 -1.7424 -1.3288 -1.49 -2.4042 0.2524 -1.0753 1.3287 -1.7424 2.4041 -1.49 0.9204 0.216 1.9495 0.3392 3.043 0.3392 1.0934 0 2.1225 -0.1232 3.0429 -0.3392 1.0754 -0.2524 2.1517 0.4147 2.4041 1.49Zm7.9912 -12.2613c0.7674 -0.7944 0.7455 -2.0606 -0.0489 -2.828 -0.7945 -0.7674 -2.0606 -0.7455 -2.828 0.049 -0.1491 0.1543 -0.5299 0.4301 -1.2769 0.7447 -0.7179 0.3025 -1.6541 0.5911 -2.7856 0.84 -2.2614 0.4975 -5.1586 0.8048 -8.346 0.8048 -2.119 0 -4.1154 -0.1358 -5.8852 -0.375 -1.0947 -0.1479 -2.1019 0.6196 -2.2499 1.7142 -0.1479 1.0946 0.6196 2.1019 1.7142 2.2498 1.96 0.2648 4.136 0.411 6.4209 0.411 3.4222 0 6.6133 -0.328 9.2053 -0.8982 1.2952 -0.2849 2.477 -0.6381 3.4792 -1.0603 0.9732 -0.41 1.9147 -0.9416 2.6009 -1.652Z" clip-rule="evenodd" stroke-width="1"></path></g></svg>