<svg xmlns="http://www.w3.org/2000/svg" fill="none" viewBox="0 0 48 48" id="Ice-Cream-3--Streamline-Plump"><desc>Ice Cream 3 Streamline Icon: https://streamlinehq.com</desc><g id="ice-cream-3--cook-frozen-cone-cream-ice-cooking-nutrition-freezer-cold-food"><path id="Union" fill="#000000" fill-rule="evenodd" d="M24 0.5c-9.0297 0 -16.5 6.19177 -16.5 14 0 1.5213 0.28611 2.8459 0.82736 3.9892C7.21724 19.2606 6.5 20.5503 6.5 22c0 2.2844 1.78257 4.1741 4.0756 4.259 0.3211 0.0119 0.6615 0.024 1.0204 0.0361C12.5985 27.6329 14.1979 28.5 16 28.5c1.5763 0 2.9977 -0.6635 4 -1.7251 1.0023 1.0616 2.4237 1.7251 4 1.7251 1.5763 0 2.9977 -0.6635 4 -1.7251 1.0023 1.0616 2.4237 1.7251 4 1.7251 1.8021 0 3.4015 -0.8671 4.404 -2.2049 0.3589 -0.0121 0.6993 -0.0242 1.0204 -0.0361C39.7174 26.1741 41.5 24.2844 41.5 22c0 -1.4497 -0.7172 -2.7394 -1.8274 -3.5108 0.5413 -1.1433 0.8274 -2.4679 0.8274 -3.9892 0 -7.80823 -7.4703 -14 -16.5 -14Zm11.4891 19.456c-0.0998 -0.8224 -0.8474 -1.4081 -1.6698 -1.3084 -1.5407 0.187 -4.9316 0.5135 -9.8193 0.5135 -0.8284 0 -1.5 0.6716 -1.5 1.5s0.6716 1.5 1.5 1.5c5.0207 0 8.5328 -0.3354 10.1807 -0.5353 0.8224 -0.0998 1.4082 -0.8474 1.3084 -1.6698Zm-22.9782 0c-0.0998 0.8224 0.486 1.57 1.3084 1.6698 0.6984 0.0847 1.7313 0.1938 3.0719 0.2913 0.8262 0.0601 1.5447 -0.561 1.6048 -1.3872 0.0602 -0.8263 -0.5609 -1.5448 -1.3872 -1.6049 -1.2904 -0.0939 -2.2754 -0.1982 -2.9281 -0.2774 -0.8224 -0.0997 -1.57 0.486 -1.6698 1.3084Zm3.4887 11.0446c-1.6569 0 -3.1959 -0.5049 -4.4713 -1.3658 3.7658 8.0278 8.3823 14.1898 10.6678 17.0071 0.9433 1.1627 2.6637 1.1627 3.607 0 2.2855 -2.8173 6.902 -8.9793 10.6678 -17.0071 -1.2754 0.8609 -2.8144 1.3658 -4.4713 1.3658 -1.4568 0 -2.8237 -0.3908 -4 -1.071 -1.1763 0.6802 -2.5433 1.071 -4 1.071 -1.4568 0 -2.8237 -0.3908 -4 -1.071 -1.1763 0.6802 -2.5433 1.071 -4 1.071Z" clip-rule="evenodd" stroke-width="1"></path></g></svg>