<svg xmlns="http://www.w3.org/2000/svg" fill="none" viewBox="0 0 48 48"><g id="image-wallpaper-scan--image-wallpaper-scan-gallery-now"><path id="Union" fill="#000000" fill-rule="evenodd" d="M13.0003 3.37695c0 -2 -0.0001 -2 -0.0002 -2h-0.003l-0.0077 0.00001 -0.0286 0.00004 -0.1078 0.00035c-0.0937 0.00039 -0.2302 0.00117 -0.4037 0.00271 -0.347 0.00308 -0.8427 0.00923 -1.4417 0.02149 -1.19578 0.0245 -2.81219 0.07356 -4.48141 0.17224 -2.87492 0.16994 -5.1719 2.45061 -5.30706 5.35502 -0.07891 1.69557 -0.09699 3.34529 -0.09561 4.56679 0.00069 0.612 0.00627 1.1195 0.01172 1.4751 0.00272 0.1779 0.0054 0.3179 0.00743 0.4143l0.00247 0.111 0.00072 0.0296 0.0002 0.0081 0.00006 0.0023 0.00002 0.0007 0 0.0003c0.00001 0.0001 0.00001 0.0002 1.99933 -0.052l-1.99932 0.0522c0.02881 1.1042 0.94729 1.976 2.05149 1.9471 1.10415 -0.0288 1.9759 -0.9472 1.94715 -2.0513l0 -0.0001 -0.00003 -0.0011 -0.00014 -0.0057 -0.0006 -0.0246 -0.00223 -0.1006c-0.00188 -0.0893 -0.00443 -0.2216 -0.00702 -0.3914 -0.0052 -0.3396 -0.01059 -0.828 -0.01126 -1.4185 -0.00133 -1.1835 0.01633 -2.7654 0.09129 -4.37624 0.03877 -0.8331 0.68734 -1.4971 1.54743 -1.54794 1.601 -0.09464 3.16264 -0.14225 4.32727 -0.1661 0.5814 -0.01191 1.0615 -0.01785 1.3953 -0.02082 0.1669 -0.00148 0.297 -0.00222 0.3849 -0.00259l0.0992 -0.00031 0.0245 -0.00004 0.0057 -0.00001 0.0012 0h0.0001c1.1046 -0.00006 1.9999 -0.89548 1.9999 -2.00002 0 -1.10457 -0.8954 -1.99999 -2 -1.99998l0 2Zm21.9997 0c0 -2 0.0001 -2 0.0002 -2h0.0031l0.0077 0.00001 0.0285 0.00004 0.1078 0.00035c0.0937 0.00039 0.2302 0.00117 0.4038 0.00271 0.3469 0.00308 0.8427 0.00923 1.4416 0.02149 1.1958 0.0245 2.8122 0.07356 4.4814 0.17224 2.8751 0.16995 5.1701 2.44954 5.3121 5.34979 0.081 1.65554 0.1037 3.24702 0.1063 4.42092 0.0013 0.5881 -0.0025 1.0742 -0.0065 1.4144 -0.0021 0.1702 -0.0042 0.304 -0.0059 0.3961l-0.002 0.1062 -0.0006 0.0283 -0.0001 0.0078 -0.0001 0.0022 0 0.0007 0 0.0003c0 0.0001 0 0.0002 -1.9995 -0.0457l1.9995 0.0459c-0.0253 1.1043 -0.941 1.9789 -2.0453 1.9536 -1.1043 -0.0253 -1.9789 -0.9409 -1.9537 -2.0452v-0.0001l0.0001 -0.001 0.0001 -0.0052 0.0005 -0.0233 0.0018 -0.0956c0.0015 -0.0849 0.0035 -0.211 0.0054 -0.373 0.0039 -0.324 0.0075 -0.7909 0.0063 -1.3576 -0.0025 -1.1356 -0.0245 -2.66082 -0.1015 -4.23411 -0.041 -0.83682 -0.6929 -1.50154 -1.5529 -1.55237 -1.601 -0.09464 -3.1626 -0.14225 -4.3273 -0.1661 -0.5813 -0.01191 -1.0615 -0.01785 -1.3953 -0.02082 -0.1668 -0.00148 -0.297 -0.00222 -0.3848 -0.00259l-0.0993 -0.00031 -0.0244 -0.00004 -0.0057 -0.00001 -0.0012 0h-0.0002C33.8954 5.37689 33 4.48147 33 3.37693c0 -1.10457 0.8955 -1.99999 2 -1.99998l0 2Zm0.0001 44.00005c-0.0001 0 -0.0001 0 -0.0002 -2l0.0001 2c-1.1046 0 -2.0001 -0.8955 -2.0001 -2 0 -1.1046 0.8954 -2 1.9999 -2h0.0014l0.0057 -0.0001 0.0244 0 0.0993 -0.0003c0.0878 -0.0004 0.218 -0.0011 0.3848 -0.0026 0.3338 -0.003 0.814 -0.0089 1.3953 -0.0208 1.1647 -0.0239 2.7263 -0.0715 4.3273 -0.1661 0.8599 -0.0508 1.512 -0.7156 1.5531 -1.5526 0.0772 -1.5735 0.0994 -3.0991 0.1021 -4.2349 0.0013 -0.5668 -0.0022 -1.0338 -0.006 -1.358 -0.0019 -0.162 -0.0039 -0.2881 -0.0054 -0.373l-0.0018 -0.0956 -0.0005 -0.0233 -0.0001 -0.0053 0 -0.001 0 -0.0001c-0.025 -1.1043 0.8498 -2.0197 1.9541 -2.0448 1.1043 -0.0251 2.0198 0.8498 2.0448 1.9541l-1.9994 0.0454c1.9994 -0.0454 1.9994 -0.0453 1.9994 -0.0452l0.0001 0.0002 0 0.0008 0 0.0022 0.0002 0.0078 0.0006 0.0283 0.002 0.1062c0.0016 0.0921 0.0037 0.2259 0.0057 0.3961 0.004 0.3403 0.0077 0.8264 0.0063 1.4147 -0.0028 1.1741 -0.0257 2.7658 -0.1069 4.4214 -0.1423 2.9001 -2.4371 5.1797 -5.3122 5.3496 -1.6693 0.0987 -3.2857 0.1478 -4.4815 0.1723 -0.5989 0.0122 -1.0946 0.0184 -1.4416 0.0214 -0.1736 0.0016 -0.31 0.0024 -0.4037 0.0028l-0.1079 0.0003 -0.0285 0 -0.0077 0 -0.0022 0.0001h-0.0009ZM13 45.377c-0.0001 2 -0.0001 2 -0.0002 2h-0.0009l-0.0022 -0.0001 -0.0077 0 -0.0285 0 -0.1079 -0.0003c-0.0937 -0.0004 -0.2301 -0.0012 -0.4037 -0.0028 -0.347 -0.003 -0.8427 -0.0092 -1.4416 -0.0214 -1.19584 -0.0245 -2.81225 -0.0736 -4.48146 -0.1723 -2.87557 -0.17 -5.16919 -2.4499 -5.31233 -5.349 -0.08263 -1.6736 -0.10708 -3.2919 -0.11108 -4.488 -0.002 -0.5992 0.00112 -1.0952 0.00477 -1.4425 0.00182 -0.1737 0.00378 -0.3104 0.00529 -0.4045l0.00188 -0.1083 0.00055 -0.0289 0.00016 -0.0078 0.00005 -0.0023 0.00001 -0.0007 0.00001 -0.0003c0 -0.0001 0 -0.0002 1.99956 0.042l-1.99956 -0.0422c0.02329 -1.1043 0.93739 -1.9806 2.04172 -1.9574 1.10429 0.0233 1.98062 0.9374 1.95739 2.0416l0 0.0002 -0.00002 0.001 -0.00011 0.0055 -0.00046 0.024 -0.0017 0.0981c-0.0014 0.087 -0.00325 0.2162 -0.00499 0.382 -0.00348 0.3316 -0.0065 0.8089 -0.00457 1.3872 0.00388 1.1588 0.02762 2.7118 0.10623 4.3041 0.04137 0.8379 0.69377 1.5024 1.55324 1.5532 1.60099 0.0946 3.16263 0.1422 4.32732 0.1661 0.5813 0.0119 1.0614 0.0178 1.3953 0.0208 0.1668 0.0015 0.297 0.0022 0.3848 0.0026l0.0993 0.0003 0.0244 0 0.0057 0.0001h0.0014c1.1045 0 1.9999 0.8954 1.9999 2 0 1.1045 -0.8955 2 -2.0001 2l0.0001 -2Zm14.5107 -28.08c0 -1.7626 1.4288 -3.1915 3.1915 -3.1915 1.7626 0 3.1915 1.4289 3.1915 3.1915s-1.4289 3.1915 -3.1915 3.1915c-1.7627 0 -3.1915 -1.4289 -3.1915 -3.1915Zm-7.2557 6.3587c1.058 0.8557 2.7811 2.352 5.4091 4.8962 1.8058 -1.5614 3.1351 -2.5249 4.0469 -3.1113 1.0518 -0.6764 2.325 -0.5515 3.2801 0.221 0.6686 0.5408 1.6027 1.3372 2.8627 2.4922 -0.0638 2.5149 -0.1788 4.4206 -0.2887 5.7734 -0.073 0.8985 -0.7395 1.565 -1.638 1.638 -2.0172 0.1639 -5.2642 0.3391 -9.9272 0.3391 -4.663 0 -7.9099 -0.1752 -9.9272 -0.3391 -0.8985 -0.073 -1.565 -0.7395 -1.638 -1.638 -0.1227 -1.5101 -0.2517 -3.7093 -0.3088 -6.6758 2.2205 -1.9844 3.8074 -3.1468 4.849 -3.8167 1.0518 -0.6764 2.325 -0.5516 3.2801 0.221Zm3.7449 15.2486c-4.7379 0 -8.0661 -0.178 -10.1701 -0.3489 -2.3636 -0.1921 -4.1932 -2.0217 -4.38524 -4.3853 -0.17094 -2.1039 -0.34895 -5.4322 -0.34895 -10.1701s0.17801 -8.0661 0.34895 -10.1701c0.19204 -2.3636 2.02164 -4.19321 4.38524 -4.38525 2.104 -0.17094 5.4322 -0.34894 10.1701 -0.34894s8.0662 0.178 10.1701 0.34894c2.3636 0.19204 4.1932 2.02165 4.3853 4.38525 0.1709 2.104 0.3489 5.4322 0.3489 10.1701s-0.178 8.0662 -0.3489 10.1701c-0.1921 2.3636 -2.0217 4.1932 -4.3853 4.3853 -2.1039 0.1709 -5.4322 0.3489 -10.1701 0.3489Z" clip-rule="evenodd" stroke-width="1"></path></g></svg>