<svg xmlns="http://www.w3.org/2000/svg" fill="none" viewBox="0 0 48 48" id="Information-Square--Streamline-Plump"><desc>Information Square Streamline Icon: https://streamlinehq.com</desc><g id="Solid/Interface Essential/Alerts/information-square--information-frame-info-more-help-point-square"><path id="Subtract" fill="#000000" fill-rule="evenodd" d="M2.0439 8.13569C1.77808 11.4073 1.5 16.5986 1.5 24c0 7.4014 0.27807 12.5927 0.54389 15.8643 0.26713 3.2878 2.80395 5.8247 6.0918 6.0918C11.4073 46.2219 16.5986 46.5 24 46.5c7.4014 0 12.5927 -0.2781 15.8643 -0.5439 3.2878 -0.2671 5.8247 -2.804 6.0918 -6.0918 0.2658 -3.2716 0.5439 -8.4629 0.5439 -15.8643 0 -7.4014 -0.2781 -12.5927 -0.5439 -15.86429 -0.2671 -3.28785 -2.8039 -5.82468 -6.0918 -6.09181C36.5927 1.77808 31.4015 1.5 24 1.5c-7.4014 0 -12.5927 0.27807 -15.86429 0.54389 -3.28785 0.26713 -5.82468 2.80395 -6.09181 6.0918ZM24 8.5c-2.2091 0 -4 1.7909 -4 4 0 2.2091 1.7909 4 4 4 2.2091 0 4 -1.7909 4 -4 0 -2.2091 -1.7909 -4 -4 -4Zm0.9437 10.5255c1.1382 0.0661 1.8663 0.9506 1.9368 2.0885C26.9441 22.14 27 23.6971 27 26v6.0284c1.2699 0.0262 2.2173 0.0675 2.9122 0.11 1.0939 0.0669 1.9719 0.7401 2.0527 1.8331 0.0217 0.2941 0.0351 0.635 0.0351 1.0285 0 0.3935 -0.0134 0.7344 -0.0351 1.0285 -0.0808 1.093 -0.9588 1.7662 -2.0527 1.8331C28.7527 37.9325 26.8903 38 24 38c-2.8903 0 -4.7527 -0.0675 -5.9122 -0.1384 -1.0939 -0.0669 -1.9719 -0.7401 -2.0527 -1.8331C16.0134 35.7344 16 35.3935 16 35c0 -0.3935 0.0134 -0.7344 0.0351 -1.0285 0.0808 -1.093 0.9588 -1.7662 2.0527 -1.8331 0.6949 -0.0425 1.6423 -0.0838 2.9122 -0.11V26c0 -0.3517 0.0013 -0.6861 0.0037 -1.0038 -0.1594 0.0025 -0.3271 0.0038 -0.5037 0.0038 -0.5855 0 -1.0745 -0.0145 -1.4813 -0.037 -1.1866 -0.0659 -1.9792 -0.941 -2.0089 -2.1291C17.0036 22.5866 17 22.3096 17 22s0.0036 -0.5866 0.0098 -0.8339c0.0297 -1.1881 0.8223 -2.0632 2.0089 -2.1291 0.4068 -0.0225 0.8958 -0.037 1.4813 -0.037H24c0.3563 0 0.6694 0.0096 0.9437 0.0255Z" clip-rule="evenodd" stroke-width="1"></path></g></svg>