<svg xmlns="http://www.w3.org/2000/svg" fill="none" viewBox="0 0 48 48" id="Instagram-Logo--Streamline-Plump"><desc>Instagram Logo Streamline Icon: https://streamlinehq.com</desc><g id="instagram-logo"><path id="Subtract" fill="#000000" fill-rule="evenodd" d="M12.4571 1.76417C15.4553 1.61319 19.2778 1.5 24 1.5c4.7222 0 8.5447 0.1132 11.5429 0.26417C41.433 2.06077 45.9392 6.567 46.2358 12.457c0.151 2.9983 0.2642 6.8208 0.2642 11.543 0 4.7222 -0.1132 8.5447 -0.2642 11.543 -0.2966 5.89 -4.8028 10.3962 -10.6929 10.6928 -2.9982 0.151 -6.8207 0.2642 -11.5429 0.2642 -4.7222 0 -8.5447 -0.1132 -11.5429 -0.2642C6.567 45.9392 2.06077 41.433 1.76417 35.5429 1.61319 32.5447 1.5 28.7222 1.5 24c0 -4.7222 0.1132 -8.5447 0.26417 -11.543C2.06077 6.56699 6.567 2.06077 12.4571 1.76417ZM35 10c0 -1.10457 0.8954 -2 2 -2h1c1.1046 0 2 0.89543 2 2 0 1.1046 -0.8954 2 -2 2h-1c-1.1046 0 -2 -0.8954 -2 -2Zm-11 6c-4.4183 0 -8 3.5817 -8 8s3.5817 8 8 8 8 -3.5817 8 -8 -3.5817 -8 -8 -8Zm-12 8c0 -6.6274 5.3726 -12 12 -12s12 5.3726 12 12 -5.3726 12 -12 12 -12 -5.3726 -12 -12Z" clip-rule="evenodd" stroke-width="1"></path></g></svg>