<svg xmlns="http://www.w3.org/2000/svg" fill="none" viewBox="0 0 48 48" id="Invisible-2--Streamline-Plump"><desc>Invisible 2 Streamline Icon: https://streamlinehq.com</desc><g id="Solid/Interface Essential/View/invisible-2"><path id="Union" fill="#000000" d="M4.1293 11.4359c-0.878 -0.0248 -2.2382 0.2814 -3.3169 1.9367 -0.4958 0.7608 -0.3994 1.7047 0.0416 2.4066 1.2554 1.9981 2.7179 3.7746 4.3384 5.3217l-3.3558 2.956c-1.0978 0.9668 -1.6064 2.6363 -0.6369 3.9511 0.3897 0.5284 0.8972 1.0936 1.5397 1.5861 1.3005 0.9972 2.9659 0.3892 3.8884 -0.6763l3.519 -4.065c1.5365 0.9086 3.1477 1.6579 4.8066 2.244l-1.7196 5.1023c-0.4673 1.3863 -0.0731 3.0865 1.4239 3.7403 0.6017 0.2628 1.3239 0.4984 2.1265 0.6038 1.6249 0.2133 2.7632 -1.1459 3.0293 -2.53l1.0653 -5.5412c1.0365 0.1209 2.0787 0.1818 3.1212 0.1818 0.8353 0 1.6705 -0.0391 2.5026 -0.1168l1.0528 5.4762c0.266 1.3841 1.4045 2.7433 3.0292 2.53 0.8027 -0.1054 1.5248 -0.341 2.1265 -0.6038 1.497 -0.6538 1.8912 -2.354 1.4241 -3.7403l-1.6547 -4.9092c1.7071 -0.5615 3.3675 -1.2941 4.9524 -2.1936l3.3082 3.8215c0.9224 1.0655 2.5879 1.6735 3.8883 0.6763 0.6425 -0.4925 1.1501 -1.0577 1.5398 -1.5861 0.9694 -1.3148 0.4608 -2.9843 -0.637 -3.9511l-3.0299 -2.669c1.7424 -1.6132 3.31 -3.4859 4.6438 -5.6087 0.4409 -0.7019 0.5374 -1.6458 0.0415 -2.4066 -1.0787 -1.6553 -2.439 -1.9615 -3.3169 -1.9367 -0.6857 0.0195 -1.1795 0.4717 -1.4808 0.8957 -4.4601 6.2755 -11.4129 9.212 -18.3899 9.212 -6.9769 0 -13.9298 -2.9366 -18.3898 -9.212 -0.3014 -0.424 -0.7952 -0.8762 -1.4809 -0.8957Z" stroke-width="1"></path></g></svg>