<svg xmlns="http://www.w3.org/2000/svg" fill="none" viewBox="0 0 48 48" id="Key--Streamline-Plump"><desc>Key Streamline Icon: https://streamlinehq.com</desc><g id="Solid/Interface Essential/Login Logout/key--entry-key-lock-login-pass-unlock-access"><path id="Subtract" fill="#000000" fill-rule="evenodd" d="M14.5 20.4999c-7.1797 0 -13 5.8203 -13 13s5.8203 13 13 13 13 -5.8203 13 -13c0 -1.9365 -0.4237 -3.7753 -1.1839 -5.4276 1.9117 -1.7902 4.7346 -4.5086 8.7844 -8.5595l0.1738 -0.1739c0.1175 0.1203 0.2396 0.244 0.3667 0.3711 1.0111 1.0113 1.8055 1.7116 2.4133 2.1957 1.1188 0.891 2.5505 0.7359 3.5688 -0.1776 0.5311 -0.4764 1.2257 -1.1299 2.1137 -2.0181 0.888 -0.8883 1.5413 -1.583 2.0176 -2.1142 0.9132 -1.0186 1.0682 -2.4505 0.1775 -3.5694 -0.4839 -0.608 -1.184 -1.4026 -2.1951 -2.414 -0.1634 -0.1634 -0.3212 -0.3187 -0.4733 -0.4663 0.9601 -1.0199 1.6821 -1.80729 2.216 -2.40135 0.9625 -1.0708 1.4935 -2.65033 0.5326 -4.00097 -0.311 -0.43706 -0.7254 -0.93433 -1.2777 -1.48678s-1.0494 -0.96698 -1.4864 -1.27802c-1.3505 -0.96132 -2.9298 -0.42997 -4.0003 0.53273 -1.6987 1.52763 -4.9806 4.5955 -10.7653 10.38169 -4.0511 4.0521 -6.7692 6.8763 -8.5589 8.7886 -1.6513 -0.759 -3.4886 -1.1821 -5.4235 -1.1821ZM18.9994 33.5c0 -2.4853 -2.0147 -4.5 -4.5 -4.5s-4.50001 2.0147 -4.50001 4.5S12.0141 38 14.4994 38c2.4853 0 4.5 -2.0147 4.5 -4.5Z" clip-rule="evenodd" stroke-width="1"></path></g></svg>