<svg xmlns="http://www.w3.org/2000/svg" fill="none" viewBox="0 0 48 48" id="Key-Access-Vpn-Alert--Streamline-Plump"><desc>Key Access Vpn Alert Streamline Icon: https://streamlinehq.com</desc><g id="key-access-vpn-alert--key-access-vpn-alert-login-access-notice-basic-lock"><path id="Union" fill="#000000" fill-rule="evenodd" d="M14.5005 20.4995c-7.17972 0 -13.00001 5.8202 -13.00001 13 0 7.1797 5.8203 13 13.00001 13 7.1797 0 13 -5.8203 13 -13 0 -1.9366 -0.4238 -3.7754 -1.184 -5.4277 1.9117 -1.7902 4.7347 -4.5086 8.7845 -8.5595l0.1738 -0.1739c0.1174 0.1203 0.2396 0.244 0.3666 0.3711 0.7266 0.7267 1.3413 1.2928 1.8552 1.7335 0.7727 -0.6152 1.746 -1.0701 2.9481 -1.2615C41.147 20.0697 41.9361 20 42.81 20c0.2127 0 0.4205 0.0041 0.6232 0.012 0.0987 -0.0977 0.2001 -0.1985 0.3041 -0.3025 0.888 -0.8883 1.5413 -1.583 2.0176 -2.1142 0.9132 -1.0186 1.0682 -2.4505 0.1775 -3.5694 -0.4839 -0.608 -1.184 -1.4026 -2.1951 -2.414 -0.1634 -0.1634 -0.3212 -0.3187 -0.4733 -0.4663 0.9601 -1.0199 1.6821 -1.80728 2.216 -2.40134 0.9625 -1.0708 1.4935 -2.65032 0.5326 -4.00096 -0.311 -0.43707 -0.7254 -0.93434 -1.2777 -1.48679 -0.5523 -0.55245 -1.0494 -0.96698 -1.4864 -1.27802 -1.3505 -0.96132 -2.9298 -0.42997 -4.0003 0.53273 -1.6987 1.52763 -4.9806 4.5955 -10.7653 10.38168 -4.0511 4.0521 -6.7692 6.8764 -8.5589 8.7886 -1.6513 -0.759 -3.4886 -1.182 -5.4235 -1.182ZM19 33.5c0 -2.4853 -2.0147 -4.5 -4.5 -4.5S10 31.0147 10 33.5s2.0147 4.5 4.5 4.5 4.5 -2.0147 4.5 -4.5Zm21.9149 -10.3558c0.5483 -0.0873 1.1796 -0.1442 1.8935 -0.1442s1.3452 0.0569 1.8935 0.1442c2.1527 0.3428 3.0619 2.3964 2.8976 4.1842 -0.1892 2.059 -0.4933 5.0396 -0.8284 6.9915 -0.2144 1.2487 -1.1016 2.432 -2.581 2.6058 -0.3864 0.0454 -0.8437 0.0743 -1.3817 0.0743 -0.538 0 -0.9953 -0.0289 -1.3817 -0.0743 -1.4794 -0.1738 -2.3665 -1.3571 -2.5809 -2.6058 -0.3352 -1.9519 -0.6393 -4.9325 -0.8285 -6.9915 -0.1642 -1.7878 0.7449 -3.8414 2.8976 -4.1842ZM38.3086 43.5c0 -2.4853 2.0147 -4.5 4.5 -4.5s4.5 2.0147 4.5 4.5 -2.0147 4.5 -4.5 4.5 -4.5 -2.0147 -4.5 -4.5Z" clip-rule="evenodd" stroke-width="1"></path></g></svg>