<svg xmlns="http://www.w3.org/2000/svg" fill="none" viewBox="0 0 48 48" id="Keyhole-Lock-Square--Streamline-Plump"><desc>Keyhole Lock Square Streamline Icon: https://streamlinehq.com</desc><g id="Solid/Interface Essential/Lock Unlock/keyhole-lock-square--square-frame-key-keyhole-lock-locked-secure-security"><path id="Subtract" fill="#000000" fill-rule="evenodd" d="M8.1357 45.9561c3.2716 0.2658 8.4629 0.5439 15.8643 0.5439 7.4014 0 12.5927 -0.2781 15.8643 -0.5439 3.2878 -0.2671 5.8247 -2.8039 6.0918 -6.0918 0.2658 -3.2716 0.5439 -8.4629 0.5439 -15.8643 0 -7.4014 -0.2781 -12.5927 -0.5439 -15.8643 -0.2671 -3.28785 -2.804 -5.82468 -6.0918 -6.09181C36.5927 1.77808 31.4014 1.5 24 1.5c-7.4014 0 -12.5927 0.27808 -15.86429 0.54389 -3.28786 0.26713 -5.82469 2.80396 -6.09182 6.09181C1.77808 11.4073 1.5 16.5986 1.5 24c0 7.4014 0.27808 12.5927 0.54389 15.8643 0.26713 3.2878 2.80396 5.8247 6.09181 6.0918ZM31 19c0 2.5881 -1.4046 4.8482 -3.493 6.0595l2.0795 8.4482c0.2374 0.9645 -0.2815 1.9325 -1.257 2.1197C27.3325 35.8187 25.8894 36 24 36c-1.8894 0 -3.3325 -0.1813 -4.3295 -0.3726 -0.9755 -0.1872 -1.4944 -1.1552 -1.257 -2.1197l2.0795 -8.4482C18.4046 23.8482 17 21.5881 17 19c0 -3.866 3.134 -7 7 -7s7 3.134 7 7Z" clip-rule="evenodd" stroke-width="1"></path></g></svg>