<svg xmlns="http://www.w3.org/2000/svg" fill="none" viewBox="0 0 48 48" id="Landscape-1--Streamline-Plump"><desc>Landscape 1 Streamline Icon: https://streamlinehq.com</desc><g id="Solid/Image Photography/Pictures/landscape-1--photos-photo-landscape-picture-photography-camera-pictures-image"><path id="Union" fill="#000000" fill-rule="evenodd" d="M8.37864 42.966C11.5635 43.2247 16.6735 43.5 24 43.5c7.3265 0 12.4365 -0.2753 15.6213 -0.534 1.8228 -0.1481 3.1966 -1.5219 3.3447 -3.3446 0.1624 -1.9993 0.3313 -4.7572 0.4346 -8.3458 -2.3994 -2.2294 -4.1243 -3.7072 -5.3133 -4.6689 -1.4963 -1.2103 -3.4909 -1.4059 -5.1388 -0.3462 -1.4285 0.9187 -3.511 2.4282 -6.34 4.8743 -4.1172 -3.9859 -6.8167 -6.33 -8.4743 -7.6707 -1.4963 -1.2103 -3.4909 -1.4058 -5.1387 -0.3461 -1.7597 1.1316 -4.51275 3.1605 -8.4325 6.7338 0.09616 4.2916 0.28774 7.5135 0.47104 9.7696 0.14809 1.8227 1.52186 3.1965 3.3446 3.3446ZM24 46.5c-7.4014 0 -12.5927 -0.2781 -15.8643 -0.5439 -3.28785 -0.2671 -5.82468 -2.8039 -6.09181 -6.0918C1.77808 36.5927 1.5 31.4014 1.5 24c0 -7.4014 0.27808 -12.5927 0.54389 -15.8643 0.26713 -3.28785 2.80396 -5.82468 6.09181 -6.09181C11.4073 1.77808 16.5986 1.5 24 1.5c7.4014 0 12.5927 0.27808 15.8643 0.5439 3.2878 0.26712 5.8247 2.80395 6.0918 6.0918 0.2658 3.2716 0.5439 8.4629 0.5439 15.8643 0 7.4014 -0.2781 12.5927 -0.5439 15.8643 -0.2671 3.2879 -2.804 5.8247 -6.0918 6.0918 -3.2716 0.2658 -8.4629 0.5439 -15.8643 0.5439Zm5.5 -33c0 -2.7614 2.2386 -5 5 -5s5 2.2386 5 5 -2.2386 5 -5 5 -5 -2.2386 -5 -5Z" clip-rule="evenodd" stroke-width="1"></path></g></svg>