<svg xmlns="http://www.w3.org/2000/svg" fill="none" viewBox="0 0 48 48" id="Laurel-Award-Winner-Nomination--Streamline-Plump"><desc>Laurel Award Winner Nomination Streamline Icon: https://streamlinehq.com</desc><g id="laurel-award-winner-nomination--laurel-award-winner-nomination-wreath-decoration-win-victory"><path id="Union" fill="#000000" fill-rule="evenodd" d="M16.559 8.14931c0.7158 -2.68844 -0.539 -5.2971 -1.566 -6.85995 -0.6259 -0.952396 -1.8247 -1.2715784 -2.8412 -0.756478 -1.6682 0.845258 -4.05402 2.484588 -4.76982 5.173028 -0.75318 2.82883 0.69059 5.66899 3.22472 6.34379 2.5342 0.6747 5.1991 -1.0716 5.9523 -3.90039ZM9.17685 14.2547c-1.35032 -2.4324 -4.06411 -3.4398 -5.88812 -3.8524 -1.11156 -0.2514 -2.1962 0.3507 -2.570667 1.4271 -0.614491 1.7662 -1.194638 4.6022 0.155685 7.0347 1.420842 2.5594 4.431372 3.6024 6.724202 2.3296 2.29284 -1.2728 2.99975 -4.3795 1.5789 -6.939Zm-6.99876 9.8181c1.7708 -0.6013 4.6111 -1.1601 7.03333 0.2084 2.54868 1.44 3.56908 4.4583 2.27908 6.7415 -1.29 2.2833 -4.40188 2.9668 -6.9506 1.5268 -2.42222 -1.3685 -3.40928 -4.0898 -3.808123 -5.9168 -0.243058 -1.1135 0.367183 -2.1935 1.446313 -2.5599Zm43.64351 0c-1.7708 -0.6013 -4.6111 -1.1601 -7.0333 0.2084 -2.5487 1.44 -3.5691 4.4583 -2.2791 6.7415 1.29 2.2833 4.4019 2.9668 6.9506 1.5268 2.4223 -1.3685 3.4093 -4.0898 3.8082 -5.9168 0.243 -1.1135 -0.3672 -2.1935 -1.4464 -2.5599ZM44.711 10.4023c-1.824 0.4126 -4.5378 1.42 -5.8881 3.8524 -1.4209 2.5595 -0.714 5.6662 1.5789 6.939 2.2928 1.2728 5.3033 0.2298 6.7242 -2.3296 1.3503 -2.4325 0.7702 -5.2685 0.1557 -7.0347 -0.3745 -1.0764 -1.4591 -1.6785 -2.5707 -1.4271ZM33.0067 1.28936c-1.027 1.56285 -2.2817 4.17151 -1.5659 6.85995 0.7531 2.82879 3.418 4.57509 5.9522 3.90039 2.5342 -0.6748 3.9779 -3.51496 3.2248 -6.34379 -0.7158 -2.68844 -3.1017 -4.32777 -4.7698 -5.173028 -1.0166 -0.5151004 -2.2154 -0.195918 -2.8413 0.756478ZM9.93789 35.2739c1.48071 -1.1422 3.98711 -2.5906 6.72191 -2.08 0.7823 0.146 1.4954 0.4389 2.1096 0.8399l0.0048 -0.0008c0.0583 0.0398 0.1161 0.0806 0.1734 0.1221 0.1026 0.0728 0.2022 0.1487 0.2985 0.2275 2.1457 1.7179 3.5101 4.6401 3.1307 7.5896 -0.4066 3.1603 -2.4096 4.3807 -4.4484 5.0691 -1.9014 0.6419 -4.0185 -2.5019 -3.1791 -3.5512 0.276 -0.3451 0.9656 -0.5352 1.6475 -0.7231 0.3418 -0.0942 0.6816 -0.1878 0.9664 -0.3002 -0.7666 0.1889 -1.5996 0.2205 -2.446 0.0625 -2.7349 -0.5105 -4.5499 -2.7656 -5.51885 -4.3651 -0.59047 -0.9747 -0.36282 -2.1942 0.53954 -2.8903Zm21.40201 -2.08c2.7349 -0.5106 5.2412 0.9378 6.7219 2.08 0.9024 0.6961 1.1301 1.9156 0.5396 2.8903 -0.969 1.5995 -2.784 3.8546 -5.5188 4.3651 -0.8465 0.158 -1.6795 0.1264 -2.4461 -0.0625 0.2848 0.1124 0.6247 0.206 0.9665 0.3002 0.6818 0.1879 1.3714 0.378 1.6475 0.7231 0.8393 1.0493 -1.2778 4.1931 -3.1792 3.5512 -2.0388 -0.6884 -4.0417 -1.9088 -4.4483 -5.0691 -0.3795 -2.9495 0.9849 -5.8717 3.1306 -7.5896 0.0964 -0.0788 0.1959 -0.1547 0.2985 -0.2275 0.0574 -0.0415 0.1152 -0.0823 0.1735 -0.1221l0.0048 0.0008c0.6141 -0.401 1.3273 -0.6939 2.1095 -0.8399Z" clip-rule="evenodd" stroke-width="1"></path></g></svg>