<svg xmlns="http://www.w3.org/2000/svg" fill="none" viewBox="0 0 48 48" id="Leaf--Streamline-Plump"><desc>Leaf Streamline Icon: https://streamlinehq.com</desc><g id="leaf--nature-environment-leaf-ecology-plant-plants-eco"><path id="Subtract" fill="#000000" fill-rule="evenodd" d="M39.8592 0.9951C36.9677 0.5764 31.8866 0.1193 26.3588 0.9204c-5.5256 0.8007 -11.6155 2.8772 -16.368 7.6298 -7.0657 7.0657 -8.5406 17.6722 -3.6288 25.1542 -1.7579 3.8426 -2.8787 7.8499 -2.8787 11.8139 0 1.1055 0.8962 2.0017 2.0017 2.0017s2.0017 -0.8962 2.0017 -2.0017c0 -2.7064 0.6466 -5.5488 1.7861 -8.4368 0.0004 0.0004 0.0009 0.0009 0.0014 0.0013 1.925 -4.9744 5.1996 -9.6706 8.7984 -13.7901 -0.7868 -3.8203 -0.6454 -7.2216 -0.3038 -9.6813 0.305 -2.1965 0.7708 -3.6577 0.9008 -4.0395 0.2717 -0.799 1.1247 -1.2974 1.9576 -0.9945 0.8072 0.2935 1.156 1.1762 0.885 1.9614 -0.0814 0.2392 -0.4968 1.5223 -0.7694 3.4856 -0.2385 1.7172 -0.3671 3.9428 -0.0816 6.4522C27.2804 13.6142 34.4818 8.5051 37.19 6.7308c0.6935 -0.4544 1.6241 -0.2605 2.0785 0.433 0.4544 0.6936 0.2605 1.6241 -0.4331 2.0785 -1.2208 0.7999 -3.4159 2.3222 -6.0656 4.4016 1.2706 0.1654 2.4541 0.4446 3.452 0.7334 1.7649 0.5109 3.0357 1.0762 3.3593 1.2252 0.7638 0.3544 1.1668 1.244 0.7871 2.0389 -0.3705 0.7754 -1.2861 1.0394 -2.0418 0.6888 -0.2281 -0.1049 -1.3729 -0.6152 -2.9395 -1.0687 -1.8139 -0.5251 -4.0839 -0.9439 -6.1832 -0.6931 -2.1534 1.8456 -4.4326 3.9524 -6.6336 6.2554 -2.0184 2.1117 -3.9415 4.358 -5.6359 6.6926 2.1202 -0.3119 4.1525 -0.3603 5.7992 -0.3133 2.1044 0.0602 3.628 0.2771 4.0082 0.3355 0.8313 0.1302 1.471 0.869 1.3255 1.7422 -0.1425 0.8547 -0.9552 1.3549 -1.7815 1.2255 -0.2896 -0.0444 -1.698 -0.2464 -3.6379 -0.3018 -2.7711 -0.0792 -6.3566 0 -8.0531 0.8509 -1.1481 1.9299 -2.1073 3.9017 -2.809 5.8917 7.4491 4.5342 17.7501 2.9725 24.6623 -3.9398 4.7526 -4.7525 6.8291 -10.8424 7.6299 -16.368 0.8011 -5.5278 0.344 -10.6088 -0.0748 -13.5004 -0.3133 -2.1633 -1.9805 -3.8305 -4.1438 -4.1438Z" clip-rule="evenodd" stroke-width="1"></path></g></svg>