<svg xmlns="http://www.w3.org/2000/svg" fill="none" viewBox="0 0 48 48" id="Lightbulb-On--Streamline-Plump"><desc>Lightbulb On Streamline Icon: https://streamlinehq.com</desc><g id="lightbulb-on--lighting-light-shine-incandescent-bulb-lights"><path id="Union" fill="#000000" fill-rule="evenodd" d="M24 0.25c1.2426 0 2.25 1.00736 2.25 2.25v2c0 1.24264 -1.0074 2.25 -2.25 2.25s-2.25 -1.00736 -2.25 -2.25v-2c0 -1.24264 1.0074 -2.25 2.25 -2.25ZM2.5 21.75C1.25736 21.75 0.25 22.7574 0.25 24s1.00736 2.25 2.25 2.25h2c1.24264 0 2.25 -1.0074 2.25 -2.25s-1.00736 -2.25 -2.25 -2.25h-2Zm41 0c-1.2426 0 -2.25 1.0074 -2.25 2.25s1.0074 2.25 2.25 2.25h2c1.2426 0 2.25 -1.0074 2.25 -2.25s-1.0074 -2.25 -2.25 -2.25h-2ZM10.3879 7.20622c-0.87871 -0.87867 -2.30334 -0.87867 -3.18202 0 -0.87867 0.87868 -0.87867 2.30331 0 3.18198l1.41422 1.4142c0.87868 0.8787 2.3033 0.8787 3.182 0 0.8787 -0.8787 0.8787 -2.30328 0 -3.18196l-1.4142 -1.41422Zm30.4062 0c-0.8787 -0.87867 -2.3033 -0.87867 -3.182 0l-1.4142 1.41422c-0.8787 0.87868 -0.8787 2.30326 0 3.18196 0.8787 0.8787 2.3033 0.8787 3.182 0l1.4142 -1.4142c0.8787 -0.87867 0.8787 -2.3033 0 -3.18198ZM8.5 24c0 -8.5604 6.9396 -15.5 15.5 -15.5S39.5 15.4396 39.5 24c0 4.8874 -2.2635 9.2465 -5.7937 12.0852 -0.1085 0.607 -0.2136 1.1782 -0.3077 1.6807 -0.3369 1.8007 -1.7719 3.2589 -3.6876 3.4586 -1.3337 0.139 -3.2659 0.2755 -5.711 0.2755 -2.4451 0 -4.3773 -0.1365 -5.711 -0.2755 -1.9157 -0.1997 -3.3507 -1.6579 -3.6876 -3.4586 -0.0941 -0.5025 -0.1992 -1.0737 -0.3077 -1.6807C10.7635 33.2465 8.5 28.8874 8.5 24Zm24 0c0 -4.6944 -3.8056 -8.5 -8.5 -8.5 -0.8284 0 -1.5 -0.6716 -1.5 -1.5s0.6716 -1.5 1.5 -1.5c6.3513 0 11.5 5.1487 11.5 11.5 0 0.8284 -0.6716 1.5 -1.5 1.5s-1.5 -0.6716 -1.5 -1.5ZM16.7773 43.1972c0.4067 0.1287 0.8339 0.2188 1.2789 0.2651 1.4053 0.1465 3.4156 0.2877 5.9442 0.2877 2.5287 0 4.539 -0.1412 5.9442 -0.2877 0.526 -0.0548 1.0271 -0.1706 1.4987 -0.3391l-0.0222 0.2608c-0.16 1.8859 -1.5229 3.5943 -3.5752 3.8649 -1.0203 0.1346 -2.3382 0.2511 -3.8457 0.2511 -1.5325 0 -2.8037 -0.1204 -3.7624 -0.2599 -1.8753 -0.2729 -3.1275 -1.7869 -3.378 -3.4809 -0.0264 -0.1779 -0.0539 -0.3657 -0.0825 -0.562Z" clip-rule="evenodd" stroke-width="1"></path></g></svg>