<svg xmlns="http://www.w3.org/2000/svg" fill="none" viewBox="0 0 48 48" id="Light-Display-Mode--Streamline-Plump"><desc>Light Display Mode Streamline Icon: https://streamlinehq.com</desc><g id="Solid/Interface Essential/Lighting/light-display-mode"><path id="Subtract" fill="#000000" fill-rule="evenodd" d="M24 0.5C36.9787 0.5 47.5 11.0213 47.5 24S36.9787 47.5 24 47.5 0.5 36.9787 0.5 24 11.0213 0.5 24 0.5ZM24 5c1.1046 0 2 0.89543 2 2v2c0 1.1046 -0.8954 2 -2 2s-2 -0.8954 -2 -2V7c0 -1.10457 0.8954 -2 2 -2Zm0 32c1.1046 0 2 0.8954 2 2v2c0 1.1046 -0.8954 2 -2 2s-2 -0.8954 -2 -2v-2c0 -1.1046 0.8954 -2 2 -2ZM13 24c0 -6.0751 4.9249 -11 11 -11s11 4.9249 11 11 -4.9249 11 -11 11 -11 -4.9249 -11 -11Zm23.0205 -9.1924 1.4142 -1.4142c0.7811 -0.7811 0.7811 -2.0474 0 -2.8284 -0.781 -0.78108 -2.0474 -0.78108 -2.8284 0l-1.4142 1.4142c-0.7811 0.781 -0.7811 2.0474 0 2.8284 0.781 0.7811 2.0474 0.7811 2.8284 0ZM14.8073 33.1924c0.7811 0.781 0.7811 2.0474 0 2.8284l-1.4142 1.4142c-0.7811 0.7811 -2.0474 0.7811 -2.8284 0 -0.78108 -0.781 -0.78108 -2.0474 0 -2.8284l1.4142 -1.4142c0.781 -0.7811 2.0474 -0.7811 2.8284 0ZM43 24c0 1.1046 -0.8954 2 -2 2h-2c-1.1046 0 -2 -0.8954 -2 -2s0.8954 -2 2 -2h2c1.1046 0 2 0.8954 2 2ZM9 26c1.1046 0 2 -0.8954 2 -2s-0.8954 -2 -2 -2H7c-1.10457 0 -2 0.8954 -2 2s0.89543 2 2 2h2Zm25.607 11.4351c0.781 0.781 2.0473 0.781 2.8284 0 0.781 -0.7811 0.781 -2.0474 0 -2.8284l-1.4142 -1.4143c-0.7811 -0.781 -2.0474 -0.781 -2.8284 0 -0.7811 0.7811 -0.7811 2.0474 0 2.8285l1.4142 1.4142ZM14.808 14.8077c-0.7811 0.781 -2.0474 0.781 -2.8284 0l-1.4143 -1.4142c-0.78101 -0.7811 -0.78101 -2.0474 0 -2.8285 0.7811 -0.78102 2.0474 -0.78102 2.8285 0l1.4142 1.4142c0.781 0.7811 0.781 2.0474 0 2.8285Z" clip-rule="evenodd" stroke-width="1"></path></g></svg>