<svg xmlns="http://www.w3.org/2000/svg" fill="none" viewBox="0 0 48 48" id="Like-1--Streamline-Plump"><desc>Like 1 Streamline Icon: https://streamlinehq.com</desc><g id="Solid/Interface Essential/Bookmark Favorite/like-1--reward-social-up-rating-media-like-thumb-hand"><path id="Union" fill="#000000" fill-rule="evenodd" d="M23.5703 3.71719c-2.36 -0.26329 -4.448 1.25259 -5.2262 3.43171l-3.4989 9.7969c0.0083 0.1075 0.0139 0.2145 0.0168 0.3209 0.0614 2.2648 0.1381 8.0374 0.1381 12.7323 0 4.5418 -0.0718 10.0922 -0.1321 12.4998h0.0926l0.0668 0.0105c0.0701 0.011 0.174 0.027 0.3102 0.0476 0.2724 0.0411 0.674 0.1001 1.1924 0.1723 1.0367 0.1442 2.5407 0.3408 4.4128 0.5507 3.7436 0.4196 8.9612 0.8923 14.8578 1.1048 3.9846 0.1436 7.6494 -2.1663 8.7574 -6.0589 1.1087 -3.8952 2.327 -9.6898 2.7695 -17.2948 0.21 -3.6092 -2.7469 -6.5482 -6.3488 -6.3783 -2.9795 0.1406 -5.7371 0.3528 -7.7495 0.5298 -1.0064 0.0885 -1.8268 0.1683 -2.396 0.226 -0.1343 0.0136 -0.2547 0.026 -0.3602 0.037l-0.2937 -5.87436c-0.1201 -2.40218 -1.3343 -4.83544 -3.8786 -5.40982 -0.9109 -0.20564 -1.8585 -0.34686 -2.7304 -0.44413ZM6.5 44.5c-1.28363 0 -2.37785 -0.157 -3.24535 -0.3538C1.59729 43.7701 0.679993 42.244 0.637166 40.6646 0.576528 38.4284 0.5 34.6793 0.5 30c0 -4.6793 0.076528 -8.4284 0.137166 -10.6646 0.042827 -1.5794 0.960124 -3.1055 2.617484 -3.4816C4.12215 15.657 5.21638 15.5 6.5 15.5c1.28362 0 2.37785 0.157 3.24535 0.3538 1.65735 0.3761 2.57465 1.9022 2.61745 3.4816 0.0607 2.2362 0.1372 5.9853 0.1372 10.6646 0 4.6793 -0.0765 8.4284 -0.1372 10.6646 -0.0428 1.5794 -0.9601 3.1055 -2.61745 3.4816 -0.8675 0.1968 -1.96173 0.3538 -3.24535 0.3538Zm0 -10.5c1.10457 0 2 0.8954 2 2v2c0 1.1046 -0.89543 2 -2 2s-2 -0.8954 -2 -2l0 -2c0 -1.1046 0.89543 -2 2 -2Z" clip-rule="evenodd" stroke-width="1"></path></g></svg>