<svg xmlns="http://www.w3.org/2000/svg" fill="none" viewBox="0 0 48 48" id="Line-Arrow-Left-1--Streamline-Plump"><desc>Line Arrow Left 1 Streamline Icon: https://streamlinehq.com</desc><g id="Solid/Arrows/Single line arrow/line-arrow-left-1--arrow-keyboard-left"><path id="Union" fill="#000000" fill-rule="evenodd" d="M15.9834 19.0352c10.4735 0.1202 21.7743 0.5036 26.8514 0.6911 1.6552 0.0612 3.0364 1.1684 3.1273 2.8223 0.0235 0.428 0.0379 0.9103 0.0379 1.4497s-0.0144 1.0217 -0.0379 1.4497c-0.0909 1.6538 -1.4721 2.7611 -3.1273 2.8222 -5.0771 0.1876 -16.3779 0.571 -26.8514 0.6912l3.7422 4.5863c0.8016 0.9823 1.1208 2.3165 0.462 3.3999 -0.2577 0.4238 -0.5858 0.8686 -0.9971 1.2727 -0.4174 0.41 -0.8775 0.736 -1.3146 0.9909 -1.0965 0.6393 -2.4329 0.315 -3.3788 -0.5314 -4.3464 -3.8891 -8.70554 -8.9053 -11.11013 -12.4129 -0.95876 -1.3986 -1.04892 -3.186 -0.12017 -4.6047 2.2949 -3.5055 6.8568 -8.4851 11.2265 -12.35 0.9507 -0.84086 2.2861 -1.16588 3.3824 -0.52639 0.437 0.25488 0.897 0.5809 1.3144 0.99098 0.4113 0.40411 0.7396 0.84891 0.9973 1.27251 0.6589 1.0833 0.3398 2.4175 -0.4619 3.3999l-3.7421 4.586Z" clip-rule="evenodd" stroke-width="1"></path></g></svg>