<svg xmlns="http://www.w3.org/2000/svg" fill="none" viewBox="0 0 48 48" id="Line-Arrow-Up-1--Streamline-Plump"><desc>Line Arrow Up 1 Streamline Icon: https://streamlinehq.com</desc><g id="Solid/Arrows/Single line arrow/line-arrow-up-1--arrow-up-keyboard"><path id="Union" fill="#000000" fill-rule="evenodd" d="M19.0369 15.9834c0.1202 10.4735 0.5036 21.7743 0.6911 26.8514 0.0612 1.6552 1.1685 3.0364 2.8223 3.1273 0.428 0.0235 0.9103 0.0379 1.4497 0.0379s1.0217 -0.0144 1.4497 -0.0379c1.6538 -0.0909 2.7611 -1.4721 2.8223 -3.1273 0.1875 -5.0771 0.5709 -16.3779 0.6911 -26.8514l4.5863 3.7422c0.9824 0.8016 2.3165 1.1208 3.3999 0.462 0.4238 -0.2577 0.8686 -0.5858 1.2727 -0.9971 0.41 -0.4174 0.736 -0.8775 0.9909 -1.3146 0.6393 -1.0965 0.315 -2.4329 -0.5314 -3.3788 -3.889 -4.3464 -8.9053 -8.70554 -12.4129 -11.11013 -1.3986 -0.95876 -3.186 -1.04892 -4.6047 -0.12017 -3.5055 2.2949 -8.4851 6.8568 -12.35 11.2265 -0.84085 0.9507 -1.16587 2.2861 -0.52638 3.3824 0.25488 0.437 0.5809 0.897 0.99098 1.3144 0.4041 0.4113 0.8489 0.7396 1.2725 0.9973 1.0833 0.6589 2.4175 0.3398 3.3999 -0.4619l4.586 -3.7421Z" clip-rule="evenodd" stroke-width="1"></path></g></svg>