<svg xmlns="http://www.w3.org/2000/svg" fill="none" viewBox="0 0 48 48" id="Line-Arrow-Down-1--Streamline-Plump"><desc>Line Arrow Down 1 Streamline Icon: https://streamlinehq.com</desc><g id="Solid/Arrows/Single line arrow/line-arrow-down-1--arrow-down-keyboard"><path id="Union" fill="#000000" fill-rule="evenodd" d="M28.9631 32.0166c-0.1202 -10.4735 -0.5036 -21.7743 -0.6911 -26.85145 -0.0612 -1.65517 -1.1685 -3.03633 -2.8223 -3.12721C25.0217 2.01443 24.5394 2 24 2s-1.0217 0.01443 -1.4497 0.03794c-1.6538 0.09088 -2.7611 1.47204 -2.8223 3.12722 -0.1875 5.07714 -0.5709 16.37794 -0.6911 26.85144l-4.5863 -3.7422c-0.9824 -0.8016 -2.3165 -1.1208 -3.3999 -0.462 -0.4238 0.2577 -0.8686 0.5858 -1.27271 0.9971 -0.41001 0.4174 -0.73599 0.8775 -0.99086 1.3146 -0.63933 1.0965 -0.31503 2.4329 0.53133 3.3788 3.88904 4.3464 8.90534 8.7055 12.41294 11.1101 1.3986 0.9588 3.186 1.0489 4.6047 0.1202 3.5055 -2.2949 8.4851 -6.8568 12.35 -11.2265 0.8409 -0.9507 1.1659 -2.2861 0.5264 -3.3824 -0.2549 -0.437 -0.5809 -0.897 -0.991 -1.3144 -0.4041 -0.4113 -0.8489 -0.7396 -1.2725 -0.9973 -1.0833 -0.6589 -2.4175 -0.3398 -3.3999 0.4619l-4.586 3.7421Z" clip-rule="evenodd" stroke-width="1"></path></g></svg>