<svg xmlns="http://www.w3.org/2000/svg" fill="none" viewBox="0 0 48 48" id="Link-Share-2--Streamline-Plump"><desc>Link Share 2 Streamline Icon: https://streamlinehq.com</desc><g id="link-share-2--create-hyperlink-link-make-unlink-square"><path id="Union" fill="#000000" fill-rule="evenodd" d="M42.1902 15.7909c1.9 1.7369 4.3555 0.7947 4.5618 -1.7713 0.0831 -1.0334 0.1575 -2.2521 0.2116 -3.678 0.1239 -3.26113 -0.0891 -5.39193 -0.33 -6.70165 -0.218 -1.18549 -1.0879 -2.05552 -2.2734 -2.27359 -1.3097 -0.24094 -3.4406 -0.453996 -6.7017 -0.32986 -1.4252 0.05425 -2.6434 0.12869 -3.6764 0.21175 -2.5665 0.20634 -3.5092 2.66245 -1.7719 4.56286 0.6083 0.66549 1.3272 1.4332 2.1753 2.31516 -5.8041 5.83883 -10.9688 11.18813 -13.427 13.74813 -0.9493 0.9886 -1.3426 2.4326 -0.5401 3.5436 0.5797 0.8027 1.3406 1.5655 2.1425 2.1485 1.1202 0.8143 2.58 0.4098 3.5716 -0.557 2.5492 -2.4853 7.8567 -7.6702 13.6976 -13.4371 0.9008 0.867 1.6833 1.5999 2.3601 2.2185ZM22 5c-5.57 0 -9.7018 0.1825 -12.56045 0.38296 -4.36854 0.30635 -7.75024 3.68804 -8.05659 8.05654C1.1825 16.2982 1 20.43 1 26c0 5.5699 0.1825 9.7018 0.38296 12.5604 0.30635 4.3686 3.68805 7.7503 8.05659 8.0566C12.2982 46.8175 16.43 47 22 47c5.57 0 9.7018 -0.1825 12.5604 -0.383 4.3686 -0.3063 7.7503 -3.688 8.0566 -8.0565C42.8175 35.7018 43 31.57 43 26c0 -1.2063 -0.0086 -2.3451 -0.024 -3.4182 -0.0239 -1.6567 -1.3862 -2.9803 -3.0429 -2.9565 -1.6567 0.0239 -2.9803 1.3862 -2.9565 3.0429C36.9916 23.712 37 24.8221 37 26c0 5.4392 -0.1782 9.4308 -0.3683 12.1407 -0.0971 1.3857 -1.1053 2.3939 -2.491 2.491C31.4308 40.8218 27.4392 41 22 41c-5.4392 0 -9.4308 -0.1782 -12.14072 -0.3683 -1.3857 -0.0971 -2.39384 -1.1053 -2.49102 -2.491C7.17822 35.4308 7 31.4392 7 26c0 -5.4392 0.17822 -9.4308 0.36826 -12.1407 0.09718 -1.3857 1.10532 -2.3939 2.49102 -2.491C12.5692 11.1782 16.5608 11 22 11c1.1779 0 2.288 0.0084 3.3318 0.0234 1.6567 0.0238 3.019 -1.29984 3.0429 -2.95652 0.0238 -1.65668 -1.2998 -3.01902 -2.9565 -3.04287C24.3451 5.00856 23.2063 5 22 5Z" clip-rule="evenodd" stroke-width="1"></path></g></svg>