<svg xmlns="http://www.w3.org/2000/svg" fill="none" viewBox="0 0 48 48" id="Link-Chain--Streamline-Plump"><desc>Link Chain Streamline Icon: https://streamlinehq.com</desc><g id="Solid/Interface Essential/Link Unlink/link-chain--create-hyperlink-link-make-unlink-connection-chain"><path id="Union" fill="#000000" fill-rule="evenodd" d="M41.6548 6.34603C35.1935 -0.115341 24.7175 -0.115343 18.2561 6.34602L15.837 8.76516c-1.3668 1.36684 -1.3668 3.58294 0 4.94974l1.4356 1.4356c1.3467 1.3467 3.5177 1.3665 4.8887 0.0596l2.4895 -2.4894c1.4907 -1.4908 3.4536 -2.2191 5.4077 -2.1906 1.8902 0.0272 3.7724 0.7626 5.211 2.2013 2.9254 2.9254 2.9431 7.6849 0.0107 10.6173l-2.4298 2.4298c-1.3669 1.3668 -1.3669 3.5829 -0.0001 4.9497l1.4356 1.4356c1.3669 1.3669 3.583 1.3669 4.9498 0l2.4191 -2.4191c6.4614 -6.4614 6.4614 -16.9373 0 -23.39867ZM15.1887 22.1827c1.3285 -1.3697 1.3158 -3.557 -0.0382 -4.9109l-1.4356 -1.4356c-1.3668 -1.3669 -3.5829 -1.3669 -4.94974 0l-2.41914 2.4191c-6.461363 6.4614 -6.461361 16.9373 0.00001 23.3987 6.46137 6.4613 16.93727 6.4613 23.39867 0l2.4191 -2.4192c1.3669 -1.3668 1.3669 -3.5829 0 -4.9497l-1.4356 -1.4356c-1.3668 -1.3668 -3.5829 -1.3668 -4.9497 0l-2.4298 2.4298c-1.3417 1.3417 -3.0659 2.0659 -4.822 2.1764 -2.082 0.1313 -4.2089 -0.5999 -5.796 -2.187 -2.92541 -2.9255 -2.94305 -7.6849 -0.0107 -10.6173l2.4687 -2.4687Zm2.0831 2.1601c0.0175 -0.0175 0.0349 -0.0351 0.0521 -0.0527 1.5764 -1.5764 3.1529 -3.1526 4.7295 -4.7288 1.5734 -1.573 3.1468 -3.1461 4.7201 -4.7193 0.8922 -0.8922 2.0705 -1.3296 3.2449 -1.3122 1.1337 0.0171 2.2636 0.4581 3.1283 1.3228 1.7609 1.7609 1.7646 4.6208 0.0107 6.3747L21.2267 33.158c-0.7929 0.793 -1.8119 1.2266 -2.8533 1.3011 -1.2617 0.0901 -2.5561 -0.3472 -3.5207 -1.3118 -1.7609 -1.7609 -1.7646 -4.6208 -0.0107 -6.3747l2.4298 -2.4298Z" clip-rule="evenodd" stroke-width="1"></path></g></svg>