<svg xmlns="http://www.w3.org/2000/svg" fill="none" viewBox="0 0 48 48" id="Linkedin-Logo--Streamline-Plump"><desc>Linkedin Logo Streamline Icon: https://streamlinehq.com</desc><g id="linkedin-logo--network-linkedin-professional"><path id="Union" fill="#000000" fill-rule="evenodd" d="M7.88745 1C4.70322 1 2 3.4826 2 6.77109 2 10.05 4.77631 12.484 7.88745 12.484c3.16145 0 5.88745 -2.3755 5.88745 -5.71291C13.7749 3.42466 11.122 1 7.88745 1ZM31.7636 16c-3.9131 0 -8.3483 0.6586 -11.8515 2.9522l-0.0069 0.0046C18.3234 20.0112 17 21.571 17 23.8048v18.2908c0 1.7821 0.643 3.0984 1.8382 3.9157 1.1213 0.7668 2.5816 0.9887 4.023 0.9887 0.3386 0 0.6886 -0.0058 1.0442 -0.0205 2.4471 -0.1017 3.9384 -2.2579 3.9384 -4.443V28.2159c0 -1.1952 0.6505 -2.13 1.5449 -2.3538 0.7364 -0.1842 1.4918 -0.2804 2.2577 -0.2804 1.0894 0 1.9922 0.2819 2.5996 0.7613 0.5765 0.4551 0.9688 1.1488 0.9688 2.1988v13.5538c0 1.7892 0.6242 3.112 1.8224 3.9301 1.1201 0.7647 2.5849 0.9743 4.0387 0.9743 0.3207 0 0.6505 -0.0055 0.9852 -0.0192C44.5099 46.8807 46 44.7203 46 42.5365V27.2629c0 -4.0762 -1.861 -6.9475 -4.6174 -8.7571C38.6754 16.7286 35.154 16 31.7636 16Zm-24.99457 -0.9522C7.14284 15.0177 7.5527 15 8 15c0.4473 0 0.85716 0.0177 1.23097 0.0478 2.39153 0.1932 3.60903 2.3154 3.65423 4.3401C12.9384 21.7779 13 25.6894 13 31s-0.0616 9.2221 -0.1148 11.6121c-0.0452 2.0246 -1.2627 4.1469 -3.65423 4.3401C8.85716 46.9823 8.4473 47 8 47c-0.44731 0 -0.85716 -0.0177 -1.23098 -0.0478 -2.39153 -0.1932 -3.60906 -2.3155 -3.65418 -4.3401C3.06158 40.2221 3 36.3106 3 31s0.06158 -9.2221 0.11484 -11.6121c0.04512 -2.0247 1.26265 -4.1469 3.65419 -4.3401Z" clip-rule="evenodd" stroke-width="1"></path></g></svg>