<svg xmlns="http://www.w3.org/2000/svg" fill="none" viewBox="0 0 48 48" id="Loading-1--Streamline-Plump"><desc>Loading 1 Streamline Icon: https://streamlinehq.com</desc><g id="Solid/Interface Essential/Page Controller/loading-1--progress-loading-load-wait-waiting"><path id="Union" fill="#000000" fill-rule="evenodd" d="M22.5396 0.560302C22.9419 0.523428 23.4239 0.5 24 0.5s1.0581 0.023428 1.4604 0.060302c1.5889 0.145653 2.4239 1.485158 2.477 2.800988C27.9701 4.17074 28 5.25246 28 6.5s-0.0299 2.32926 -0.0626 3.13871c-0.0531 1.31579 -0.8881 2.65529 -2.477 2.80099 -0.4023 0.0369 -0.8843 0.0603 -1.4604 0.0603s-1.0581 -0.0234 -1.4604 -0.0603c-1.5889 -0.1457 -2.4239 -1.4852 -2.477 -2.80099C20.0299 8.82926 20 7.74754 20 6.5s0.0299 -2.32927 0.0626 -3.13871c0.0531 -1.31583 0.8881 -2.655335 2.477 -2.800988ZM39.5419 6.39288c0.3105 0.25836 0.6679 0.58264 1.0753 0.99001 0.4074 0.40737 0.7316 0.76477 0.99 1.07529 1.0205 1.22651 0.6638 2.76412 -0.2291 3.73212 -0.5492 0.5955 -1.293 1.3815 -2.1751 2.2637 -0.8822 0.8821 -1.6682 1.6258 -2.2637 2.1751 -0.968 0.8929 -2.5056 1.2496 -3.7321 0.2291 -0.3105 -0.2584 -0.6679 -0.5827 -1.0753 -0.99 -0.4074 -0.4074 -0.7316 -0.7648 -0.99 -1.0753 -1.0205 -1.2265 -0.6638 -2.7642 0.2291 -3.7321 0.5492 -0.5955 1.293 -1.38156 2.1751 -2.2637 0.8822 -0.88214 1.6682 -1.62588 2.2637 -2.17514 0.968 -0.89288 2.5056 -1.2496 3.7321 -0.22908ZM47.5 24c0 -0.5761 -0.0234 -1.0581 -0.0603 -1.4604 -0.1457 -1.5889 -1.4852 -2.4239 -2.801 -2.477C43.8293 20.0299 42.7475 20 41.5 20s-2.3293 0.0299 -3.1387 0.0626c-1.3158 0.0531 -2.6553 0.8881 -2.801 2.477 -0.0369 0.4023 -0.0603 0.8843 -0.0603 1.4604s0.0234 1.0581 0.0603 1.4604c0.1457 1.5889 1.4852 2.4239 2.801 2.477 0.8094 0.0327 1.8912 0.0626 3.1387 0.0626s2.3293 -0.0299 3.1387 -0.0626c1.3158 -0.0531 2.6553 -0.8881 2.801 -2.477 0.0369 -0.4023 0.0603 -0.8843 0.0603 -1.4604Zm-5.8933 15.5429c-0.2583 0.3105 -0.5826 0.6679 -0.99 1.0753 -0.4074 0.4073 -0.7648 0.7316 -1.0753 0.99 -1.2265 1.0205 -2.7641 0.6638 -3.7321 -0.2291 -0.5955 -0.5493 -1.3815 -1.293 -2.2637 -2.1751 -0.8821 -0.8822 -1.6258 -1.6682 -2.1751 -2.2637 -0.8929 -0.968 -1.2496 -2.5056 -0.2291 -3.7321 0.2584 -0.3105 0.5827 -0.6679 0.99 -1.0753 0.4074 -0.4074 0.7648 -0.7317 1.0753 -0.99 1.2265 -1.0205 2.7641 -0.6638 3.7321 0.2291 0.5955 0.5492 1.3816 1.293 2.2637 2.1751 0.8821 0.8821 1.6259 1.6682 2.1751 2.2637 0.8929 0.9679 1.2496 2.5056 0.2291 3.7321ZM24 47.5c-0.5761 0 -1.0581 -0.0234 -1.4604 -0.0603 -1.5889 -0.1457 -2.4239 -1.4852 -2.477 -2.801C20.0299 43.8293 20 42.7475 20 41.5s0.0299 -2.3293 0.0626 -3.1387c0.0531 -1.3158 0.8881 -2.6553 2.477 -2.801 0.4023 -0.0369 0.8843 -0.0603 1.4604 -0.0603s1.0581 0.0234 1.4604 0.0603c1.5889 0.1457 2.4239 1.4852 2.477 2.801 0.0327 0.8094 0.0626 1.8912 0.0626 3.1387s-0.0299 2.3293 -0.0626 3.1387c-0.0531 1.3158 -0.8881 2.6553 -2.477 2.801 -0.4023 0.0369 -0.8843 0.0603 -1.4604 0.0603ZM6.39288 39.5429c0.25836 0.3105 0.58264 0.6679 0.99001 1.0753 0.40737 0.4073 0.76477 0.7316 1.07529 0.99 1.22651 1.0205 2.76412 0.6638 3.73212 -0.2291 0.5955 -0.5493 1.3815 -1.293 2.2637 -2.1751 0.8821 -0.8822 1.6258 -1.6682 2.1751 -2.2637 0.8929 -0.968 1.2496 -2.5056 0.2291 -3.7321 -0.2584 -0.3105 -0.5827 -0.6679 -0.99 -1.0753 -0.4074 -0.4074 -0.7648 -0.7317 -1.0753 -0.99 -1.2265 -1.0205 -2.7642 -0.6638 -3.7321 0.2291 -0.5955 0.5492 -1.38156 1.293 -2.2637 2.1751 -0.88214 0.8821 -1.62588 1.6682 -2.17514 2.2637 -0.89288 0.9679 -1.2496 2.5056 -0.22908 3.7321ZM0.5 24c0 -0.5761 0.023428 -1.0581 0.060302 -1.4604 0.145653 -1.5889 1.485158 -2.4239 2.800988 -2.477C4.17073 20.0299 5.25246 20 6.5 20s2.32926 0.0299 3.13871 0.0626c1.31579 0.0531 2.65529 0.8881 2.80099 2.477 0.0369 0.4023 0.0603 0.8843 0.0603 1.4604s-0.0234 1.0581 -0.0603 1.4604c-0.1457 1.5889 -1.4852 2.4239 -2.80099 2.477C8.82926 27.9701 7.74754 28 6.5 28s-2.32926 -0.0299 -3.13871 -0.0626c-1.31583 -0.0531 -2.655335 -0.8881 -2.800988 -2.477C0.523428 25.0581 0.5 24.5761 0.5 24ZM8.45818 6.39288c-0.31052 0.25836 -0.66792 0.58264 -1.07529 0.99001 -0.40737 0.40737 -0.73165 0.76477 -0.99001 1.07529 -1.02052 1.2265 -0.6638 2.76412 0.22908 3.73212 0.54926 0.5955 1.293 1.3815 2.17514 2.2637 0.88214 0.8821 1.6682 1.6258 2.2637 2.1751 0.9679 0.8929 2.5056 1.2496 3.7321 0.2291 0.3105 -0.2584 0.6679 -0.5827 1.0753 -0.99 0.4073 -0.4074 0.7316 -0.7648 0.99 -1.0753 1.0205 -1.2265 0.6638 -2.7642 -0.2291 -3.7321 -0.5493 -0.5955 -1.293 -1.38155 -2.1751 -2.2637 -0.8822 -0.88214 -1.6682 -1.62588 -2.2637 -2.17514 -0.968 -0.89288 -2.50561 -1.2496 -3.73212 -0.22908Z" clip-rule="evenodd" stroke-width="1"></path></g></svg>