<svg xmlns="http://www.w3.org/2000/svg" fill="none" viewBox="0 0 48 48" id="Log--Streamline-Plump"><desc>Log Streamline Icon: https://streamlinehq.com</desc><g id="log--nature-tree-plant-circle-round-log"><path id="Union" fill="#000000" fill-rule="evenodd" d="M18.9138 4.5544c0.4266 -0.0423 0.8809 -0.0709 1.3331 -0.0709 0.6479 0 1.3047 0.0589 1.8839 0.1342 1.8723 0.2432 3.3568 1.4354 4.2272 2.9149l3.5298 6.0008 9.1654 0.4582c2.7322 0.02 4.8678 2.0607 6.2353 4.6003 0.3961 0.7355 0.746 1.5419 1.0444 2.4056h-15.327c-0.8291 0 -1.5013 0.6721 -1.5013 1.5012S30.1768 24 31.0059 24h16.1103c0.2636 1.4244 0.4038 2.9399 0.4038 4.5038 0 0.5059 -0.0147 1.0069 -0.0434 1.5013h-7.4631c-0.8291 0 -1.5012 0.6722 -1.5012 1.5013s0.6721 1.5012 1.5012 1.5012h7.1027c-0.3754 2.0288 -1.0009 3.8728 -1.8277 5.4081 -1.3633 2.532 -3.4902 4.5679 -6.2105 4.6l-0.0161 0.0013 -0.0963 0.0075 -0.1158 0.0089c-0.1859 0.0139 -0.4599 0.0339 -0.8162 0.0576 -0.7125 0.0475 -1.7541 0.1106 -3.078 0.1736 -2.6471 0.1261 -6.4244 0.2519 -10.9555 0.2519 -4.5316 0 -8.061 -0.1259 -10.4628 -0.2523 -0.7281 -0.0383 -1.3527 -0.0766 -1.8701 -0.1116 1.4583 -1.0253 2.5997 -2.5086 3.4163 -4.0251 0.356 -0.661 0.6758 -1.3692 0.9573 -2.1165h7.9591c0.8291 0 1.5013 -0.6721 1.5013 -1.5012s-0.6722 -1.5013 -1.5013 -1.5013h-7.0807c0.3768 -1.734 0.5752 -3.5931 0.5752 -5.5047 0 -3.9903 -0.8644 -7.7518 -2.4109 -10.6237 -0.8066 -1.4979 -1.9301 -2.9633 -3.3628 -3.9872l5.3002 -0.2944 -1.2319 -4.1886c-0.6237 -2.1207 0.6268 -4.608 3.1248 -4.8555ZM7.4859 41.5149c3.8693 0 7.006 -5.8253 7.006 -13.0111s-3.1367 -13.011 -7.006 -13.011C3.6167 15.4928 0.48 21.318 0.48 28.5038s3.1367 13.0111 7.0059 13.0111Z" clip-rule="evenodd" stroke-width="1"></path></g></svg>