<svg xmlns="http://www.w3.org/2000/svg" fill="none" viewBox="0 0 48 48" id="Login-1--Streamline-Plump"><desc>Login 1 Streamline Icon: https://streamlinehq.com</desc><g id="login-1--arrow-enter-frame-left-login-point-rectangle"><path id="Union" fill="#000000" fill-rule="evenodd" d="M20.497 47.52c4.2237 0 7.6827 -0.2393 10.1298 -0.4867 3.1185 -0.3152 5.5193 -2.7105 5.7965 -5.8497 0.1948 -2.2077 0.396 -5.4202 0.5051 -9.9139l-9.1652 0.3916c-0.0306 0.5299 -0.0619 1.0282 -0.0927 1.4872 -0.1294 1.9366 -1.2513 3.6535 -3.0144 4.4583 -1.7989 0.821 -3.8938 0.5167 -5.4516 -0.8014 -1.0515 -0.8898 -2.4014 -2.107 -4.0809 -3.7552 -2.8457 -2.7925 -4.3539 -4.8701 -5.153 -6.2428 -1.0171 -1.7472 -1.0173 -3.8691 -0.0003 -5.6165 0.7992 -1.373 2.3075 -3.4509 5.1535 -6.2433 1.679 -1.6474 3.0287 -2.8643 4.0799 -3.754 1.5579 -1.3183 3.6531 -1.6225 5.452 -0.8016 1.7632 0.8047 2.8855 2.5216 3.0149 4.4587 0.0308 0.4594 0.0621 0.9581 0.0928 1.4886l9.165 0.3917c-0.1091 -4.4941 -0.3103 -7.7069 -0.5051 -9.9146 -0.2772 -3.1392 -2.678 -5.5345 -5.7965 -5.8497C28.1797 0.7194 24.7207 0.48 20.497 0.48s-7.6826 0.2394 -10.1297 0.4867c-3.1186 0.3152 -5.5193 2.7105 -5.7965 5.8497C4.2837 10.0688 3.983 15.5022 3.983 24s0.3007 13.9313 0.5878 17.1836c0.2772 3.1392 2.6779 5.5345 5.7965 5.8497 2.4471 0.2474 5.906 0.4867 10.1297 0.4867Zm2.9118 -34.3968c-0.7078 -0.3231 -1.5668 -0.2293 -2.2657 0.3621 -0.9885 0.8364 -2.2837 2.0029 -3.9167 3.605 -2.6971 2.6464 -4.0244 4.5162 -4.6613 5.6105 -0.4735 0.8137 -0.4735 1.7819 0.0002 2.5956 0.6369 1.0941 1.9642 2.9637 4.661 5.6104 1.6334 1.6029 2.9289 2.7696 3.9175 3.6061 0.6988 0.5913 1.5575 0.685 2.2653 0.362 0.7025 -0.3207 1.2052 -1.0279 1.2654 -1.9271 0.0785 -1.1741 0.1614 -2.6079 0.2241 -4.1698l16.0726 -0.6869c1.4355 -0.0613 2.7736 -1.0221 2.9541 -2.553 0.0545 -0.4614 0.0917 -0.9807 0.0917 -1.5382 0 -0.5576 -0.0372 -1.0769 -0.0917 -1.5383 -0.1805 -1.5309 -1.5186 -2.4916 -2.9541 -2.553l-16.0725 -0.6868c-0.0627 -1.5624 -0.1457 -2.9968 -0.2241 -4.1713 -0.0602 -0.8994 -0.5631 -1.6067 -1.2658 -1.9273Z" clip-rule="evenodd" stroke-width="1"></path></g></svg>