<svg xmlns="http://www.w3.org/2000/svg" fill="none" viewBox="0 0 48 48" id="Logout-1--Streamline-Plump"><desc>Logout 1 Streamline Icon: https://streamlinehq.com</desc><g id="logout-1--arrow-exit-frame-leave-logout-rectangle-right"><path id="Union" fill="#000000" fill-rule="evenodd" d="M27.5031 47.52c-4.2236 0 -7.6825 -0.2393 -10.1297 -0.4867 -3.1186 -0.3152 -5.5193 -2.7105 -5.7964 -5.8497 -0.0981 -1.111 -0.1978 -2.4767 -0.2866 -4.1321 1.5181 1.1071 3.4577 1.3225 5.1386 0.5553 1.7631 -0.8048 2.885 -2.5217 3.0144 -4.4583 0.0308 -0.459 0.0621 -0.9573 0.0927 -1.4872l13.3366 -0.5699c2.57 -0.1098 5.4177 -1.895 5.8076 -5.2011 0.0664 -0.5621 0.1124 -1.1998 0.1124 -1.89 0 -0.6901 -0.046 -1.3278 -0.1124 -1.89 -0.3899 -3.3061 -3.2376 -5.0912 -5.8076 -5.201l-13.3364 -0.57c-0.0306 -0.5304 -0.062 -1.0292 -0.0928 -1.4886 -0.1294 -1.9371 -1.2517 -3.654 -3.0149 -4.4586 -1.6806 -0.767 -3.62 -0.5519 -5.1381 0.5548 0.0887 -1.6546 0.1884 -3.0198 0.2865 -4.1305 0.2771 -3.1392 2.6778 -5.5345 5.7964 -5.8497C19.8206 0.7194 23.2795 0.48 27.5031 0.48c4.2237 0 7.6826 0.2394 10.1298 0.4867 3.1186 0.3152 5.5193 2.7105 5.7964 5.8497 0.2872 3.2524 0.5878 8.6858 0.5878 17.1836s-0.3006 13.9313 -0.5878 17.1836c-0.2771 3.1392 -2.6778 5.5345 -5.7964 5.8497 -2.4472 0.2474 -5.9061 0.4867 -10.1298 0.4867ZM15.1817 13.1232c-0.7079 -0.3231 -1.5668 -0.2293 -2.2657 0.3621 -0.9885 0.8364 -2.2837 2.0029 -3.9167 3.605 -2.6971 2.6464 -4.0244 4.5162 -4.6613 5.6105 -0.4736 0.8137 -0.4735 1.7819 0.0001 2.5956 0.637 1.0941 1.9642 2.9637 4.6612 5.6104 1.6333 1.6029 2.9288 2.7696 3.9174 3.6061 0.6987 0.5913 1.5575 0.685 2.2652 0.362 0.7026 -0.3207 1.2053 -1.0279 1.2655 -1.9271 0.0785 -1.1741 0.1614 -2.6079 0.2241 -4.1698l16.0727 -0.6869c1.4354 -0.0613 2.7734 -1.0221 2.9541 -2.553 0.0543 -0.4614 0.0916 -0.9807 0.0916 -1.5382 0 -0.5576 -0.0373 -1.0769 -0.0916 -1.5383 -0.1807 -1.5309 -1.5187 -2.4916 -2.9541 -2.553l-16.0726 -0.6868c-0.0627 -1.5624 -0.1456 -2.9968 -0.2242 -4.1713 -0.0601 -0.8994 -0.563 -1.6067 -1.2657 -1.9273Z" clip-rule="evenodd" stroke-width="1"></path></g></svg>