<svg xmlns="http://www.w3.org/2000/svg" fill="none" viewBox="0 0 48 48" id="Magic-Wand-2--Streamline-Plump"><desc>Magic Wand 2 Streamline Icon: https://streamlinehq.com</desc><g id="Solid/Interface Essential/Select Copy/magic-wand-2--design-magic-star-supplies-tool-wand"><path id="Union" fill="#000000" fill-rule="evenodd" d="M23.8565 3.86188c0.0742 -1.97402 2.2718 -3.015857 3.8939 -1.91378l5.4965 3.73455c0.3848 0.26146 0.8571 0.33349 1.2811 0.20507l6.2936 -1.90625c1.9327 -0.58536 3.78 1.26199 3.1947 3.19463L42.11 13.4697c-0.1284 0.424 -0.0564 0.8963 0.2051 1.2811l3.7345 5.4965c1.1021 1.6221 0.0603 3.8197 -1.9138 3.8939l-6.8709 0.2582c-0.4268 0.0161 -0.8153 0.2159 -1.0692 0.5438l-4.1814 5.4014c-1.2322 1.5916 -3.7263 1.0806 -4.3798 -0.7978l-2.1214 -6.0988c-0.1564 -0.4496 -0.5138 -0.807 -0.9634 -0.9633l-6.0987 -2.1215c-1.8785 -0.6534 -2.3895 -3.1476 -0.7978 -4.3797l5.4013 -4.1815c0.3279 -0.2538 0.5277 -0.6423 0.5438 -1.0692l0.2582 -6.87092ZM3.30245 36.2255 18.1899 22.9189l5.1103 1.7777 1.7786 5.1131 -13.3057 14.8865c-1.2098 1.3536 -3.09329 2.2928 -4.95385 1.5421 -0.9542 -0.3849 -2.03769 -1.0078 -3.04437 -2.0145 -1.00668 -1.0067 -1.62961 -2.0902 -2.01456 -3.0444 -0.75062 -1.8605 0.18852 -3.744 1.54213 -4.9539Z" clip-rule="evenodd" stroke-width="1"></path></g></svg>