<svg xmlns="http://www.w3.org/2000/svg" fill="none" viewBox="0 0 48 48" id="Magic-Wand-1--Streamline-Plump"><desc>Magic Wand 1 Streamline Icon: https://streamlinehq.com</desc><g id="Solid/Interface Essential/Select Copy/magic-wand-1--sselection-wand-object-work"><path id="Union" fill="#000000" fill-rule="evenodd" d="M33.2053 3.0365c0 -1.4118 -1.1445 -2.5562 -2.5562 -2.5562s-2.5562 1.1444 -2.5562 2.5562v4.0899c0 1.4117 1.1445 2.5562 2.5562 2.5562s2.5562 -1.1445 2.5562 -2.5562V3.0365Zm11.7585 16.8708c1.4117 0 2.5562 -1.1444 2.5562 -2.5562s-1.1445 -2.5562 -2.5562 -2.5562h-4.0899c-1.4117 0 -2.5562 1.1445 -2.5562 2.5562s1.1445 2.5562 2.5562 2.5562h4.0899ZM42.5775 5.4211c0.9983 0.9983 0.9983 2.6167 0 3.615l-2.8919 2.892c-0.9983 0.9983 -2.6168 0.9983 -3.6151 0 -0.9983 -0.9982 -0.9983 -2.6167 0 -3.615l2.8921 -2.892c0.9982 -0.9983 2.6167 -0.9983 3.6149 0Zm-3.6153 23.8595c0.9982 0.9983 2.6167 0.9983 3.6149 0 0.9983 -0.9982 0.9983 -2.6167 0 -3.6151l-2.8919 -2.8919c-0.9983 -0.9983 -2.6168 -0.9983 -3.615 0 -0.9983 0.9982 -0.9983 2.6167 0 3.615l2.892 2.892ZM18.7211 5.4217c0.9982 -0.9983 2.6167 -0.9983 3.6149 0l2.892 2.892c0.9983 0.9983 0.9983 2.6168 0 3.615 -0.9982 0.9983 -2.6167 0.9983 -3.6149 0l-2.892 -2.892c-0.9983 -0.9983 -0.9983 -2.6167 0 -3.615ZM33.706 20.256l-3.9977 4.4726c-1.0779 -1.0203 -2.2396 -2.1496 -3.4891 -3.3991 -1.073 -1.073 -2.0573 -2.0812 -2.9602 -3.0273l4.4844 -4.0083c0.9454 -0.8449 2.3424 -1.3732 3.6386 -0.7353 0.5659 0.2784 1.1957 0.6845 1.7853 1.2742 0.5895 0.5895 0.9957 1.2194 1.2741 1.7852 0.6377 1.296 0.1094 2.6928 -0.7354 3.638ZM2.329 37.0096l18.6417 -16.6622c0.9396 0.9857 1.9635 2.0352 3.0795 3.1511 1.2921 1.2922 2.4951 2.461 3.6132 3.5181L10.99 45.6707c-1.237 1.3841 -3.1628 2.3444 -5.0652 1.5769 -0.9756 -0.3936 -2.0835 -1.0306 -3.1128 -2.0599 -1.0293 -1.0293 -1.6662 -2.1372 -2.0598 -3.1128 -0.7675 -1.9023 0.1927 -3.8282 1.5768 -5.0653Z" clip-rule="evenodd" stroke-width="1"></path></g></svg>