<svg xmlns="http://www.w3.org/2000/svg" fill="none" viewBox="0 0 48 48" id="Magnifying-Glass--Streamline-Plump"><desc>Magnifying Glass Streamline Icon: https://streamlinehq.com</desc><g id="Solid/Interface Essential/Search/magnifying-glass--glass-search-magnifying"><path id="Subtract" fill="#000000" fill-rule="evenodd" d="M1.5 22C1.5 10.6782 10.6782 1.5 22 1.5S42.5 10.6782 42.5 22c0 3.9985 -1.1448 7.7297 -3.1245 10.8836 0.2027 0.1685 0.4052 0.3365 0.6074 0.5042l0.0667 0.0553c1.6342 1.3555 3.2564 2.7011 4.8586 4.1868 1.9232 1.7834 2.1885 4.5573 0.3196 6.4904 -0.1714 0.1772 -0.354 0.3631 -0.5485 0.5577 -0.1946 0.1947 -0.3803 0.3774 -0.5574 0.5489 -1.932 1.8705 -4.7045 1.6049 -6.4868 -0.3198 -1.4846 -1.6033 -2.8292 -3.2266 -4.1837 -4.862l-0.0553 -0.0668c-0.1678 -0.2024 -0.3357 -0.4051 -0.5041 -0.6081C29.7363 41.3532 26.0021 42.5 22 42.5 10.6782 42.5 1.5 33.3218 1.5 22Zm5 0c0 -8.5604 6.9396 -15.5 15.5 -15.5S37.5 13.4396 37.5 22 30.5604 37.5 22 37.5 6.5 30.5604 6.5 22Z" clip-rule="evenodd" stroke-width="1"></path></g></svg>