<svg xmlns="http://www.w3.org/2000/svg" fill="none" viewBox="0 0 48 48" id="Magnet--Streamline-Plump"><desc>Magnet Streamline Icon: https://streamlinehq.com</desc><g id="Solid/Interface Essential/Edit/magnet--design-magnet-snap-supplies-to-tool"><path id="Union" fill="#000000" fill-rule="evenodd" d="M23.3368 0.7426c1.155 -0.4777 2.4982 -0.2689 3.402 0.6422 1.6554 1.6689 4.4632 5.042 4.9435 9.1823 0.1466 1.2629 -0.5944 2.3688 -1.6062 2.9653 -1.0879 0.6414 -2.6546 1.5736 -4.1881 2.5155 -2.4513 -2.8776 -4.3889 -6.2067 -5.7744 -8.999 -0.77 -1.552 -1.3607 -2.92 -1.7671 -3.9245 1.621 -0.8779 3.286 -1.6769 4.9903 -2.3818Zm-7.6369 3.907c-0.8308 0.5081 -1.6485 1.0359 -2.4522 1.5813C6.9274 10.5186 2.4001 16.1822 0.9641 22.3274c-1.4427 6.1744 0.2558 12.7507 6.2214 18.771 5.7882 5.8413 12.416 7.3625 18.6251 5.8738 6.1823 -1.4823 11.8949 -5.9328 15.949 -11.9327 0.469 -0.6941 0.9264 -1.4015 1.3701 -2.1207 -0.9402 -0.4147 -2.0903 -0.9534 -3.3594 -1.6141 -2.874 -1.4965 -6.416 -3.6485 -9.5156 -6.4457 -0.1769 0.2692 -0.3463 0.5238 -0.5053 0.7593 -1.9196 2.8409 -4.1728 4.8191 -6.31 5.68 -2.1115 0.8507 -4.0804 0.6102 -5.6075 -0.931 -1.5375 -1.5515 -1.8363 -3.554 -1.0376 -5.6943 0.8079 -2.1648 2.7433 -4.4575 5.6531 -6.4316 0.2623 -0.178 0.5492 -0.3679 0.8541 -0.5663 -2.5412 -3.0606 -4.5105 -6.4814 -5.8996 -9.281 -0.7148 -1.4404 -1.2828 -2.7308 -1.702 -3.7444ZM41.168 28.6198c-2.8787 -1.499 -6.3444 -3.6303 -9.2565 -6.3483 0.9265 -1.4732 1.8548 -2.9831 2.5216 -4.0753 0.6868 -1.1248 1.9811 -1.8425 3.3448 -1.5692 4.3127 0.8644 7.3597 3.339 8.885 4.8537 0.8864 0.8802 1.0711 2.1787 0.6197 3.2945 -0.7614 1.8825 -1.6447 3.7254 -2.6209 5.5098 -0.9394 -0.4069 -2.1453 -0.9632 -3.4937 -1.6652Z" clip-rule="evenodd" stroke-width="1"></path></g></svg>