<svg xmlns="http://www.w3.org/2000/svg" fill="none" viewBox="0 0 48 48" id="Mail-Send-Envelope--Streamline-Plump"><desc>Mail Send Envelope Streamline Icon: https://streamlinehq.com</desc><g id="mail-send-envelope--envelope-email-message-unopened-sealed-close"><path id="Subtract" fill="#000000" fill-rule="evenodd" d="M7.18822 43.9935C10.5933 44.2379 16.0892 44.5 24 44.5c7.9108 0 13.4067 -0.2621 16.8118 -0.5065 3.2661 -0.2344 5.8571 -2.7043 6.1529 -6.0004 0.268 -2.9864 0.5353 -7.574 0.5353 -13.9931 0 -0.54 -0.0019 -1.0671 -0.0055 -1.5813 -0.4248 0.188 -0.9393 0.4136 -1.5268 0.6673 -1.7524 0.757 -4.1612 1.7676 -6.7815 2.7797 -2.6157 1.0102 -5.4673 2.0318 -8.0997 2.8035C28.5067 29.4255 25.95 30 23.9999 30s-4.5068 -0.5745 -7.0865 -1.3308c-2.6325 -0.7717 -5.4841 -1.7932 -8.09972 -2.8035 -2.6203 -1.0121 -5.02905 -2.0227 -6.78139 -2.7796 -0.58754 -0.2538 -1.102017 -0.4794 -1.526774 -0.6673C0.501892 22.933 0.5 23.46 0.5 24c0 6.4191 0.267302 11.0067 0.5353 13.9931 0.29579 3.2961 2.88682 5.7659 6.15292 6.0004ZM0.581997 18.0864c0.099584 -3.436 0.276295 -6.107 0.453313 -8.0795 0.29578 -3.29608 2.88681 -5.76595 6.15291 -6.00038C10.5933 3.76212 16.0892 3.5 24 3.5c7.9108 0 13.4067 0.26212 16.8118 0.50652 3.2661 0.23443 5.8571 2.70431 6.1529 6.00038 0.177 1.9725 0.3537 4.6435 0.4533 8.0794 -0.0851 0.026 -0.1694 0.058 -0.2524 0.0961l-0.0001 0 -0.0003 0.0001 -0.0018 0.0009 -0.0085 0.0039 -0.0354 0.0161 -0.1427 0.0649c-0.1262 0.0573 -0.3134 0.1417 -0.5546 0.2496 -0.4826 0.2158 -1.1812 0.5248 -2.0407 0.8961 -1.7203 0.743 -4.0787 1.7324 -6.6365 2.7203 -2.5624 0.9898 -5.2999 1.9682 -7.7839 2.6965C27.4244 25.5745 25.3373 26 23.9999 26c-1.3374 0 -3.4245 -0.4255 -5.9612 -1.1692 -2.484 -0.7282 -5.2214 -1.7067 -7.7838 -2.6964 -2.55781 -0.988 -4.9162 -1.9773 -6.63647 -2.7204 -0.85946 -0.3712 -1.55801 -0.6803 -2.0406 -0.896 -0.24126 -0.1079 -0.42844 -0.1924 -0.55465 -0.2496l-0.142691 -0.0649 -0.035415 -0.0162 -0.008441 -0.0038 -0.001868 -0.0009 -0.000286 -0.0001 -0.000055 0c-0.083058 -0.0382 -0.167372 -0.0701 -0.252427 -0.0961Z" clip-rule="evenodd" stroke-width="1"></path></g></svg>