<svg xmlns="http://www.w3.org/2000/svg" fill="none" viewBox="0 0 48 48" id="Map-Search--Streamline-Plump"><desc>Map Search Streamline Icon: https://streamlinehq.com</desc><g id="map-search--map-search-magnifier-navigation-gps-travel"><path id="Union" fill="#000000" fill-rule="evenodd" d="M4.14116 3.5177C6.33741 2.6992 9.95605 1.50273 14 0.791572V38.1012c-0.2762 0.0582 -0.5746 0.123 -0.893 0.1948 -1.9488 0.4396 -4.64011 1.1389 -7.6056 2.1757 -2.14062 0.7484 -4.56583 -0.67 -4.68791 -3.0864C0.674387 34.6319 0.5 29.8034 0.5 22.8998c0 -7.1969 0.189519 -12.1386 0.331012 -14.82516C0.937713 6.04868 2.19349 4.24357 4.14116 3.5177ZM22 34.6035c0 -5.7089 3.7965 -10.5275 9 -12.0792V3.82336c-3.2666 -1.15372 -6.6903 -1.94693 -9.4029 -2.46562 -1.5802 -0.30216 -2.9331 -0.513762 -3.8929 -0.650074 -0.2659 -0.037754 -0.5018 -0.06976 -0.7042 -0.096338V37.8608c1.9129 0.3007 3.9113 0.7174 5.7968 1.1617 -0.5151 -1.3749 -0.7968 -2.8639 -0.7968 -4.419Zm12.6114 -12.6037c-0.205 0 -0.4088 0.0049 -0.6114 0.0146V3.89843c0.2762 -0.0582 0.5746 -0.12304 0.893 -0.19487 1.9488 -0.43958 4.6401 -1.13883 7.6056 -2.17563 2.1406 -0.74841 4.5658 0.66996 4.6879 3.0864 0.1391 2.75338 0.3135 7.58187 0.3135 14.48547 0 6.931 -0.1758 11.7704 -0.3151 14.5182 -0.5032 -6.5031 -5.9434 -11.6182 -12.5735 -11.6182Zm0 2.5002C29.0283 24.5 24.5 29.0223 24.5 34.6037c0 5.5814 4.5283 10.1038 10.1114 10.1038 1.7004 0 3.303 -0.4195 4.7096 -1.1607l0.0043 0.0053 0.0002 0.0002c0.8009 0.9702 1.5999 1.938 2.4799 2.8945 1.16 1.2609 2.9906 1.4438 4.2632 0.2021 0.0942 -0.092 0.1924 -0.1892 0.2946 -0.2917 0.1021 -0.1026 0.1988 -0.2011 0.2905 -0.2958 1.2367 -1.2777 1.0545 -3.1157 -0.2013 -4.2804 -0.9522 -0.8832 -1.9158 -1.6851 -2.8816 -2.489 0.7357 -1.401 1.152 -2.996 1.152 -4.6883 0 -5.5814 -4.5283 -10.1037 -10.1114 -10.1037Zm-0.0005 4.9121c-2.872 0 -5.1978 2.3257 -5.1978 5.1918s2.3258 5.1918 5.1978 5.1918c2.8719 0 5.1977 -2.3257 5.1977 -5.1918s-2.3258 -5.1918 -5.1977 -5.1918Z" clip-rule="evenodd" stroke-width="1"></path></g></svg>