<svg xmlns="http://www.w3.org/2000/svg" fill="none" viewBox="0 0 48 48"><g id="martial-arts--sports-martial-arts-fighting-close-combat"><path id="Union" fill="#000000" fill-rule="evenodd" d="M24.6218 9.25224c-0.8873 -1.5466 -2.8603 -1.64675 -4.2108 -0.78473 -1.2856 0.82056 -1.8542 2.36969 -1.4356 3.82809 0.1565 0.5449 0.2312 0.9624 0.1897 1.3691 -0.0405 0.3976 -0.1978 0.8321 -0.5906 1.3899 -1.2817 1.8199 -2.514 3.1631 -3.4247 4.0989 -0.8471 0.8704 -1.5509 1.8337 -2.3573 3.1134l-0.0253 0.0401c-1.4385 2.2829 -2.7226 4.3207 -3.39493 5.979 -0.98842 2.438 -0.525 6.1202 1.38543 8.9378 1.0007 1.4758 2.9756 1.4279 4.2578 0.4672 1.2204 -0.9146 1.6715 -2.5019 1.1448 -3.9249 -0.1968 -0.5317 -0.3026 -0.9424 -0.2917 -1.351 0.0107 -0.3995 0.135 -0.8447 0.485 -1.4303 0.5341 -0.8938 0.9699 -1.5104 1.342 -1.973 1.3712 1.096 2.6908 1.9219 4.2826 2.7337 -1.065 4.3697 -0.8999 8.2142 -0.7515 11.656 0.0748 1.7361 1.4157 3.1767 3.1557 3.3382 1.7418 0.1617 3.3269 -1.014 3.6737 -2.7298l0.1084 -0.5365c1.0467 -5.1823 1.758 -8.7003 2.868 -12.0915 2.8399 -1.8805 8.4589 -5.1157 12.3813 -7.1702 0.9685 -0.5073 1.629 -1.713 1.9165 -2.8802 0.2863 -1.1621 0.2632 -2.5361 -0.4345 -3.4094l-0.0767 -0.096c-0.5987 -0.7493 -1.5806 -1.0983 -2.5221 -0.8603 -4.583 1.1582 -8.5999 2.7726 -14.9153 5.7348 -1.1865 -0.656 -2.3676 -1.2765 -3.4941 -1.8479 0.5615 -0.9122 1.0377 -1.7594 1.4464 -2.584 1.1682 -2.3572 0.9819 -6.0637 -0.7122 -9.01646Zm-14.1856 -0.76492c3.249 0.59003 5.4045 3.70218 4.8145 6.95118 -0.59 3.2491 -3.7022 5.4046 -6.95122 4.8146 -3.24902 -0.5901 -5.40456 -3.7022 -4.81453 -6.9513 0.59003 -3.249 3.7022 -5.40451 6.95125 -4.81448Z" clip-rule="evenodd" stroke-width="1"></path></g></svg>