<svg xmlns="http://www.w3.org/2000/svg" fill="none" viewBox="0 0 48 48" id="Meditation--Streamline-Plump"><desc>Meditation Streamline Icon: https://streamlinehq.com</desc><path fill="#000000" fill-rule="evenodd" d="M23.9965 14.875c-3.866 0 -7 -3.134 -7 -7 0 -3.86599 3.134 -7 7 -7s7 3.13401 7 7c0 3.866 -3.134 7 -7 7Zm2.2752 2.0648c3.0949 0.2059 5.4015 1.8547 6.77 4.1324 1.0682 1.778 2.4129 3.4782 4.2987 4.342 3.3018 1.5124 5.2672 3.1543 5.0269 4.9129 -0.3287 2.4049 -2.641 3.0846 -4.5523 2.5749 -0.34 -0.0907 -0.712 -0.2683 -1.0971 -0.4522l-0.0001 0c-0.3372 -0.161 -0.6844 -0.3268 -1.0291 -0.4433l0 0.0033c-1.1969 -0.5325 -2.1598 -0.9696 -2.4532 -1.1104 -0.9442 -0.4532 -2.3188 -2.0298 -2.6864 -2.8037 -0.1133 0.9647 -0.1131 1.5928 -0.1129 2.4623l0 0.1122c0 0.9993 0.1344 2.2777 1.5011 2.9338 0.396 0.1901 1.9927 0.9125 3.7675 1.6935l0.0002 0.0327 3.7882 1.6364c3.4714 2.9894 1.3537 8.4559 -3.2266 8.5453 -2.4045 0.047 -4.8139 0.0914 -6.9057 0.1253 0.4641 -1.2139 0.588 -2.6771 0.3584 -4.0313 -0.2688 -1.5859 -1.0778 -3.2999 -2.7553 -4.246 -0.2928 -0.1651 -0.6154 -0.2533 -0.8463 -0.3062 -0.2589 -0.0593 -0.5454 -0.1049 -0.8353 -0.1412 -0.5815 -0.0727 -1.2663 -0.1188 -1.9498 -0.1463 -1.3643 -0.0549 -2.8374 -0.0401 -3.6838 0.012 -0.8269 0.051 -1.4559 0.7626 -1.4049 1.5895 0.051 0.8268 0.7626 1.4558 1.5894 1.4049 0.7241 -0.0447 2.093 -0.0606 3.3787 -0.0088 0.6414 0.0258 1.2335 0.0674 1.698 0.1255 0.233 0.0291 0.4117 0.0598 0.5375 0.0886 0.0434 0.0099 0.073 0.018 0.0912 0.0233 0.6071 0.3666 1.052 1.0983 1.2228 2.106 0.1745 1.0297 0.0082 2.0736 -0.3182 2.7216 -0.0193 0.0192 -0.1151 0.1072 -0.4011 0.2188 -0.3955 0.1543 -0.9762 0.2829 -1.7552 0.3749 -1.5588 0.1841 -3.5576 0.1863 -5.7216 0.1863 -0.0899 0 -0.178 0.0079 -0.2636 0.0231 -2.0141 -0.0332 -4.2989 -0.0755 -6.5792 -0.12 -4.58035 -0.0894 -6.5746 -5.571 -3.10316 -8.5603l3.67926 -1.6601c0.0001 -0.0017 0.0003 -0.0067 0.0004 -0.0147 1.7559 -0.773 3.3279 -1.4844 3.7205 -1.6728 1.3667 -0.6561 1.5011 -1.9345 1.5011 -2.9338l0 -0.1122c0.0002 -0.8695 0.0003 -1.4976 -0.113 -2.4623 -0.3675 0.7739 -1.7422 2.3505 -2.6863 2.8037 -0.2912 0.1398 -1.2415 0.5712 -2.4254 1.098 -0.3448 0.1174 -0.6933 0.2858 -1.0318 0.4493l-0.0001 0 -0.0003 0.0002c-0.0641 0.0309 -0.1278 0.0617 -0.191 0.0919 -0.2047 0.0902 -0.4118 0.1811 -0.6196 0.272 -0.0995 0.0373 -0.1967 0.0695 -0.2915 0.0948 -1.9112 0.5096 -4.00059 -0.1736 -4.32924 -2.5785 -0.24004 -1.7564 1.59437 -3.3969 4.83274 -4.9075 1.8804 -0.8771 3.2429 -2.5747 4.3536 -4.3273 1.4198 -2.2404 3.7935 -3.9584 6.7115 -4.1525 1.5328 -0.102 3.0087 -0.102 4.5414 0Zm-7.9699 28.6921c0.2322 0.0038 0.4608 0.0075 0.6854 0.0111l-0.6854 -0.0111Z" clip-rule="evenodd" stroke-width="1"></path></svg>