<svg xmlns="http://www.w3.org/2000/svg" fill="none" viewBox="0 0 48 48" id="Megaphone-2--Streamline-Plump"><desc>Megaphone 2 Streamline Icon: https://streamlinehq.com</desc><g id="Solid/Interface Essential/Share/interface-share-mega-phone-1--bullhorn-loud-megaphone-share-speaker-transmit"><path id="Union" fill="#000000" fill-rule="evenodd" d="M31.5055 39.6832c-6.835 -4.6083 -16.5968 -6.9932 -22.8446 -8.1404v-20.709c6.2478 -1.1473 16.0096 -3.5321 22.8446 -8.1404 1.3268 -0.8946 2.8979 -1.176 4.262 -0.7195 1.4059 0.4705 2.4388 1.6772 2.686 3.4076 0.4695 3.2873 0.8858 8.3132 0.8858 15.8068s-0.4163 12.5194 -0.8858 15.8067c-0.2472 1.7305 -1.2801 2.9372 -2.686 3.4077 -1.3641 0.4564 -2.9352 0.1751 -4.262 -0.7195ZM0.48 21.1883c0 2.9395 0.2249 5.007 0.4767 6.4016 0.3477 1.9245 1.9276 3.0453 3.5948 3.2829 0.3148 0.0448 0.6631 0.096 1.0416 0.1539V11.35c-0.3785 0.0578 -0.7268 0.109 -1.0416 0.1538 -1.6672 0.2376 -3.2472 1.3583 -3.5948 3.283C0.7049 16.1812 0.48 18.2488 0.48 21.1883Zm41.2336 8.0299c0.1137 -2.3128 0.1821 -4.9739 0.1821 -8.0301 0 -2.6084 -0.0498 -4.9289 -0.1351 -6.9907 1.7744 0.6621 3.2419 1.3136 3.9793 1.6525 0.522 0.2399 1.0733 0.6877 1.2986 1.4177 0.2307 0.7473 0.4815 2.0923 0.4815 4.4314s-0.2507 3.6841 -0.4815 4.4314c-0.2253 0.73 -0.7766 1.1778 -1.2986 1.4177 -0.7439 0.3419 -2.2308 1.002 -4.0263 1.6701ZM10.0232 34.41c1.8181 0.3688 3.8437 0.8334 5.9493 1.4125 1.6041 0.4413 3.2364 0.9442 4.8463 1.5149l-1.7584 6.0863c-0.4983 2.0146 -2.5246 3.2386 -4.51 2.6846L9.8196 44.788c-2.2327 -0.6231 -3.3304 -3.167 -2.3073 -5.2607l2.5109 -5.1173Z" clip-rule="evenodd" stroke-width="1"></path></g></svg>