<svg xmlns="http://www.w3.org/2000/svg" fill="none" viewBox="0 0 48 48" id="Module-Puzzle-2--Streamline-Plump"><desc>Module Puzzle 2 Streamline Icon: https://streamlinehq.com</desc><g id="module-puzzle-2--code-puzzle-module-programming-plugin-piece"><path id="Union" fill="#000000" fill-rule="evenodd" d="M24.02 0.5c-4.6978 0 -8.5079 3.80458 -8.5079 8.5 0 0.86272 0.1289 1.6965 0.3688 2.4824 -2.9135 0.185 -6.3736 0.4459 -7.73325 0.7051 -2.29453 0.4374 -3.79711 2.2805 -4.0035 4.527 -0.21352 2.324 -0.43028 6.2546 -0.43028 12.6426s0.21676 10.3187 0.43028 12.6427c0.20639 2.2465 1.70898 4.0896 4.0035 4.527 2.49955 0.4765 8.92465 0.9732 15.87235 0.9732 6.9477 0 13.3728 -0.4967 15.8723 -0.9732 2.2946 -0.4374 3.7972 -2.2805 4.0036 -4.527 0.1218 -1.3261 0.2446 -3.1738 0.3276 -5.7009 0.0304 -0.9262 -0.5546 -1.5903 -1.1727 -1.9177 -0.6111 -0.3237 -1.4186 -0.4194 -2.1426 -0.1002 -0.7354 0.3242 -1.5496 0.5047 -2.4086 0.5047 -3.2991 0 -5.9717 -2.6713 -5.9717 -5.9643 0 -3.293 2.6726 -5.9643 5.9717 -5.9643 0.8478 0 1.6518 0.1759 2.3796 0.4921 0.7261 0.3155 1.5336 0.2153 2.1431 -0.1121 0.6166 -0.3311 1.1983 -0.9995 1.1607 -1.9268 -0.0798 -1.9711 -0.1838 -3.4711 -0.2871 -4.5958 -0.2064 -2.2465 -1.709 -4.0896 -4.0036 -4.527 -1.3596 -0.2592 -4.8197 -0.5201 -7.7332 -0.7051 0.2399 -0.7859 0.3688 -1.61968 0.3688 -2.4824 0 -4.69542 -3.8101 -8.5 -8.5079 -8.5Z" clip-rule="evenodd" stroke-width="1"></path></g></svg>