<svg xmlns="http://www.w3.org/2000/svg" fill="none" viewBox="0 0 48 48" id="Moon-Stars--Streamline-Plump"><desc>Moon Stars Streamline Icon: https://streamlinehq.com</desc><g id="moon-stars--night-time"><path id="Union" fill="#000000" fill-rule="evenodd" d="M28.6017 1.5026c0.8472 0 1.5339 0.6868 1.5339 1.5339v1.5339h1.534c0.8471 0 1.5339 0.6868 1.5339 1.5339s-0.6868 1.5339 -1.5339 1.5339h-1.5339v1.534c0 0.8471 -0.6868 1.5339 -1.534 1.5339s-1.5339 -0.6868 -1.5339 -1.5339V7.6383h-1.5339c-0.8471 0 -1.5339 -0.6868 -1.5339 -1.534s0.6868 -1.5339 1.5339 -1.5339h1.5339V3.0365c0 -0.8471 0.6868 -1.5339 1.5339 -1.5339Zm-8.6921 6.1357C9.1789 7.6383 0.48 16.3372 0.48 27.0678s8.6989 19.4296 19.4296 19.4296c8.0632 0 14.9759 -4.9115 17.9162 -11.8999 0.4401 -1.0461 0.0961 -2.081 -0.5467 -2.7211 -0.6197 -0.6168 -1.5656 -0.9351 -2.5253 -0.7047 -0.9508 0.2283 -1.9446 0.3496 -2.969 0.3496 -6.9943 0 -12.6644 -5.6701 -12.6644 -12.6645 0 -2.8536 0.942 -5.4828 2.5326 -7.5996 0.5274 -0.7018 0.5782 -1.5809 0.2748 -2.2853 -0.3124 -0.7253 -1.0408 -1.3336 -2.0182 -1.3336Zm15.0846 2.6872c0.7299 -2.2195 3.8695 -2.2195 4.5995 0l1.5497 4.7119 4.712 1.5498c2.2195 0.7299 2.2195 3.8696 0 4.5995l-4.712 1.5498 -1.5497 4.7119c-0.73 2.2195 -3.8696 2.2195 -4.5995 0l-1.5498 -4.7119 -4.712 -1.5498c-2.2194 -0.7299 -2.2194 -3.8696 0 -4.5995l4.712 -1.5498 1.5498 -4.7119Z" clip-rule="evenodd" stroke-width="1"></path></g></svg>