<svg xmlns="http://www.w3.org/2000/svg" fill="none" viewBox="0 0 48 48" id="Mountain--Streamline-Plump"><desc>Mountain Streamline Icon: https://streamlinehq.com</desc><g id="mountain--sun-landmark-mountain-place-travel-places"><path id="Union" fill="#000000" fill-rule="evenodd" d="M13 4.5c-3.03757 0 -5.5 2.46243 -5.5 5.5 0 3.0376 2.46243 5.5 5.5 5.5 3.0376 0 5.5 -2.4624 5.5 -5.5 0 -3.03757 -2.4624 -5.5 -5.5 -5.5Zm22.2191 11.823c-1.042 -1.4236 -2.531 -2.2624 -4.1461 -2.2625 -1.6152 0 -3.1043 0.8386 -4.1463 2.2622 -1.2599 1.7212 -2.8797 4.2529 -4.8619 7.9654 -0.8483 -1.1618 -1.5959 -2.0871 -2.2432 -2.8232 -1.0221 -1.1625 -2.3831 -1.8189 -3.8221 -1.8189 -1.4389 -0.0001 -2.8 0.6561 -3.8222 1.8186 -1.287 1.4636 -2.97216 3.677 -5.05836 7.0139 0.8138 0.7397 1.92775 1.6674 3.09666 2.5488 0.8821 0.6651 1.7606 1.2773 2.5237 1.7404 0.8158 0.4952 1.3371 0.7179 1.5549 0.7614 -0.0044 -0.0009 -0.0044 -0.0008 0.0006 -0.0007 0.0205 0.0008 0.1238 0.0046 0.3399 -0.037 0.2496 -0.048 0.5662 -0.1398 0.9427 -0.2778 0.753 -0.2762 1.6232 -0.6913 2.4716 -1.1397 0.8415 -0.4448 1.6276 -0.9042 2.2055 -1.254 0.2882 -0.1744 0.5226 -0.3204 0.684 -0.4221 0.0807 -0.0508 0.143 -0.0905 0.1845 -0.1171l0.0463 -0.0298 0.0108 -0.007 0.0023 -0.0015 0.0001 -0.0001 0.0002 -0.0001c0.5418 -0.3521 1.2483 -0.3176 1.7532 0.0856l0.0003 0.0002 0 0.0001 0.0018 0.0014 0.0111 0.0088 0.0493 0.0387c0.0446 0.0349 0.1123 0.0873 0.2006 0.1546 0.1767 0.1347 0.4355 0.3285 0.7575 0.5596 0.6463 0.4638 1.5369 1.0704 2.523 1.6508 0.9932 0.5844 2.0436 1.1186 3.0145 1.4602 1.0109 0.3558 1.739 0.4316 2.1806 0.3335 0.7701 -0.1711 1.8571 -0.7947 3.1568 -1.8436 1.2582 -1.0154 2.563 -2.302 3.7569 -3.5878 0.9503 -1.0234 1.8152 -2.0298 2.5119 -2.8704 -0.1806 -0.3496 -0.366 -0.7062 -0.5563 -1.0701 -2.1945 -4.1947 -3.9683 -6.9876 -5.3248 -8.8408ZM1.86047 37.6679c0.7607 -1.5181 1.9279 -3.6893 3.66604 -6.5892 0.84952 0.7479 1.86676 1.5778 2.88291 2.344 0.93039 0.7015 1.89568 1.3769 2.77318 1.9096 0.8248 0.5006 1.741 0.9821 2.5232 1.1386 0.5225 0.1045 1.0533 0.0516 1.4954 -0.0334 0.4613 -0.0887 0.9417 -0.236 1.4089 -0.4073 0.9345 -0.3426 1.9393 -0.8275 2.8409 -1.3041 0.9085 -0.4802 1.7474 -0.9708 2.357 -1.3397l0.1106 -0.0672c0.0903 0.0661 0.1867 0.1361 0.2889 0.2094 0.6949 0.4986 1.6637 1.1593 2.7505 1.7989 1.0797 0.6354 2.3157 1.2737 3.5402 1.7046 1.1844 0.4169 2.5604 0.7137 3.8272 0.4322 1.4799 -0.3289 3.0179 -1.3303 4.3901 -2.4376 1.4137 -1.1409 2.8276 -2.5418 4.0712 -3.881 0.6423 -0.6917 1.2455 -1.3739 1.7871 -2.0054 1.9674 3.9593 3.1942 6.7751 3.923 8.5802 0.4254 1.0537 0.4023 2.2056 -0.1047 3.1785 -0.5139 0.9861 -1.4659 1.6705 -2.6418 1.8617 -2.248 0.3654 -6.1402 0.7396 -12.6773 0.7396H15.9995c-5.6499 0 -9.18636 -0.2499 -11.34724 -0.5127 -1.26143 -0.1534 -2.30284 -0.8588 -2.84323 -1.9193 -0.53519 -1.0503 -0.50232 -2.2954 0.05144 -3.4004Z" clip-rule="evenodd" stroke-width="1"></path></g></svg>