<svg xmlns="http://www.w3.org/2000/svg" fill="none" viewBox="0 0 48 48" id="Moustache--Streamline-Plump"><desc>Moustache Streamline Icon: https://streamlinehq.com</desc><g id="Solid/Money Shopping/Fashion/moustache--fashion-beauty-moustache-grooming"><path id="Union" fill="#000000" fill-rule="evenodd" d="M17.8309 10.4885c-3.2334 0 -5.3872 1.3047 -6.8531 3.2674 -0.6475 0.8671 -1.1527 1.8553 -1.5726 2.8694l-5.4091 9.8695c-0.2899 0.0778 -0.6059 0.1285 -0.9526 0.1504 -0.9481 0.0598 -1.7505 0.6007 -2.1898 1.324 -0.4578 0.754 -0.5779 1.8415 0.1174 2.7628l1.1984 -0.9042 -1.1984 0.9042c3.2109 4.255 7.5514 6.7795 13.7869 6.7795 2.8233 0 5.1347 -1.3361 6.8894 -3.2208 0.9193 -0.9874 1.702 -2.1396 2.3526 -3.3712 0.6507 1.2316 1.4333 2.3838 2.3525 3.3712 1.7547 1.8847 4.0662 3.2208 6.8895 3.2208 6.2356 0 10.576 -2.5245 13.7869 -6.7795 0.6953 -0.9214 0.5752 -2.0088 0.1173 -2.7628 -0.4392 -0.7233 -1.2417 -1.2642 -2.1897 -1.3241 -1.5611 -0.0983 -2.4995 -0.7826 -3.2406 -1.8788 -0.8144 -1.2047 -1.3413 -2.8351 -1.9541 -4.779l-0.039 -0.1238c-0.6272 -1.9906 -1.3579 -4.3096 -2.7006 -6.1076 -1.4659 -1.9627 -3.6197 -3.2674 -6.8531 -3.2674 -1.8594 0 -3.4241 0.3319 -4.7026 1.0239 -0.5594 0.3027 -1.0457 0.6646 -1.4665 1.0748 -0.4207 -0.4102 -0.9071 -0.7721 -1.4664 -1.0748 -1.2785 -0.692 -2.8433 -1.0239 -4.7027 -1.0239ZM3.0904 28.1474l0.9057 -1.6526 0.0123 -0.0033 -0.9056 1.6547c-0.0041 0.0004 -0.0083 0.0008 -0.0124 0.0012Zm0.918 -1.6559 5.3895 -9.8486c-0.4473 1.0833 -0.7977 2.1954 -1.1207 3.2206l-0.039 0.1238c-0.6128 1.9439 -1.1397 3.5743 -1.9541 4.7791 -0.5742 0.8492 -1.2668 1.4513 -2.2757 1.7251Zm5.3895 -9.8486 1.5799 -2.887 -1.5726 2.8694c-0.0024 0.0059 -0.0048 0.0117 -0.0073 0.0176Z" clip-rule="evenodd" stroke-width="1"></path></g></svg>