<svg xmlns="http://www.w3.org/2000/svg" fill="none" viewBox="0 0 48 48" id="Multiple-Stars--Streamline-Plump"><desc>Multiple Stars Streamline Icon: https://streamlinehq.com</desc><g id="multiple-stars--reward-rating-rate-social-star-media-favorite-like-stars-spark"><path id="Union" fill="#000000" fill-rule="evenodd" d="M13.2518 2.51985c-0.9091 -1.885843 -3.59487 -1.88584 -4.50398 0L6.94968 6.24986c-0.14738 0.30573 -0.39409 0.55244 -0.69982 0.69982L2.51985 8.74782c-1.885843 0.90911 -1.88584 3.59488 0 4.50398l3.73001 1.7981c0.30573 0.1474 0.55244 0.3941 0.69982 0.6998l1.79814 3.7301c0.90911 1.8858 3.59488 1.8858 4.50398 0l1.7981 -3.7301c0.1474 -0.3057 0.3941 -0.5524 0.6998 -0.6998l3.7301 -1.7981c1.8858 -0.9091 1.8858 -3.59487 0 -4.50398l-3.7301 -1.79814c-0.3057 -0.14738 -0.5524 -0.39409 -0.6998 -0.69982l-1.7981 -3.73001Zm21 5c-0.9091 -1.88584 -3.5949 -1.88585 -4.504 0l-3.4245 7.10365c-0.1473 0.3057 -0.3941 0.5525 -0.6998 0.6998l-7.1036 3.4245c-1.8859 0.9091 -1.8859 3.5949 -0.0001 4.504l7.1037 3.4245c0.3057 0.1474 0.5525 0.3941 0.6998 0.6998l3.4245 7.1037c0.9091 1.8858 3.5949 1.8858 4.504 0l3.4245 -7.1037c0.1474 -0.3057 0.3941 -0.5524 0.6998 -0.6998l7.1037 -3.4245c1.8858 -0.9091 1.8858 -3.5949 0 -4.504l-7.1037 -3.4245c-0.3057 -0.1473 -0.5524 -0.3941 -0.6998 -0.6998l-3.4245 -7.10365ZM10.7478 24.5198c0.9091 -1.8858 3.5949 -1.8858 4.504 0l2.4487 5.0795c0.1473 0.3058 0.3941 0.5525 0.6998 0.6998l5.0795 2.4487c1.8858 0.9091 1.8858 3.5949 0 4.504l-5.0795 2.4487c-0.3057 0.1473 -0.5525 0.3941 -0.6998 0.6998l-2.4487 5.0795c-0.9091 1.8858 -3.5949 1.8858 -4.504 0l-2.44866 -5.0795c-0.14738 -0.3057 -0.39409 -0.5525 -0.69981 -0.6998l-5.07948 -2.4487c-1.885843 -0.9091 -1.88584 -3.5949 0 -4.504l5.07948 -2.4487c0.30572 -0.1473 0.55243 -0.394 0.69981 -0.6998l2.44866 -5.0795Z" clip-rule="evenodd" stroke-width="1"></path></g></svg>