<svg xmlns="http://www.w3.org/2000/svg" fill="none" viewBox="0 0 48 48"><g id="nature-garden-grass--nature-garden-grass-aloe-vera-low-profile-plant"><path id="Union" fill="#000000" fill-rule="evenodd" d="M10.0811 8.93649c0.8158 -0.91159 2.151 -1.37117 3.521 -0.82367 3.9914 1.59498 7.4946 4.63438 10.5321 8.96378 3.8768 -4.7558 8.3927 -7.17114 12.3449 -8.68104 1.4607 -0.55802 2.8705 -0.02784 3.7137 0.9323 0.8285 0.94344 1.1804 2.36694 0.6202 3.73054 -1.0584 2.576 -2.411 6.2004 -3.5321 10.275 1.5404 -0.9678 3.1337 -1.6418 4.6028 -2.1008 1.7909 -0.5594 3.4024 0.1681 4.267 1.4746 0.8289 1.2525 0.9445 2.969 0.1439 4.4754 -1.2929 2.4327 -2.8518 5.5715 -4.1623 8.8016 -0.9845 2.4265 -1.807 4.8521 -2.2832 7.0402h5.0103c1.1045 0 2 0.8954 2 2s-0.8955 2 -2 2H3.13965c-1.10457 0 -2 -0.8954 -2 -2s0.89543 -2 2 -2h5.02017c-0.98417 -4.6637 -3.41532 -9.9684 -5.42454 -13.8099 -0.81345 -1.5553 -0.6689 -3.3088 0.21016 -4.5733 0.91168 -1.3114 2.56763 -2.0079 4.37626 -1.427 1.52851 0.491 3.1818 1.1556 4.87 2.0348 -0.5875 -5.1959 -1.8436 -9.8881 -2.81203 -12.8645 -0.4109 -1.2628 -0.08656 -2.56752 0.70143 -3.44801ZM23.1023 43.0244h-3.0679c-0.8391 -3.6964 -2.3393 -6.3649 -3.7311 -8.0788 -0.5222 -0.6431 -0.4242 -1.5878 0.2189 -2.11 0.6431 -0.5223 1.5878 -0.4243 2.11 0.2188 1.7705 2.1804 3.5662 5.4878 4.4701 9.97Zm5.0595 0H25.144c0.5223 -4.9814 2.0471 -10.074 3.4652 -13.586 0.3102 -0.7682 1.1844 -1.1395 1.9525 -0.8293 0.7682 0.3102 1.1395 1.1844 0.8293 1.9525 -1.318 3.264 -2.7146 7.938 -3.2292 12.4628Z" clip-rule="evenodd" stroke-width="1"></path></g></svg>