<svg xmlns="http://www.w3.org/2000/svg" fill="none" viewBox="0 0 48 48" id="New-Sticky-Note--Streamline-Plump"><desc>New Sticky Note Streamline Icon: https://streamlinehq.com</desc><g id="new-sticky-note--empty-common-file"><path id="Union" fill="#000000" fill-rule="evenodd" d="M24 1.5c-7.4014 0 -12.5927 0.27808 -15.8643 0.54389 -3.28785 0.26713 -5.82468 2.80396 -6.09181 6.09181C1.77808 11.4073 1.5 16.5986 1.5 24c0 7.4014 0.27808 12.5927 0.54389 15.8643 0.26713 3.2879 2.80396 5.8247 6.09181 6.0918 3.2716 0.2658 8.4629 0.5439 15.8643 0.5439 1.5467 0 2.9968 -0.0121 4.3531 -0.0338 0.0542 -0.0008 0.1086 -0.0023 0.1632 -0.0043 0.0735 -3.6186 0.3813 -7.6853 0.6559 -10.727 0.3156 -3.4955 3.0675 -6.2473 6.563 -6.5629 3.0416 -0.2745 7.1082 -0.5823 10.7267 -0.6557 0.002 -0.0545 0.0034 -0.1088 0.0043 -0.163 0.0216 -1.3563 0.0338 -2.8065 0.0338 -4.3533 0 -7.4014 -0.2781 -12.5927 -0.5439 -15.8643 -0.2671 -3.28785 -2.804 -5.82468 -6.0918 -6.09181C36.5927 1.77808 31.4014 1.5 24 1.5Zm16.0607 38.561c-3.0004 3.0004 -6.4003 4.7376 -8.5239 5.6193 0.0974 -3.2891 0.3715 -6.8877 0.6232 -9.6753 0.1853 -2.0517 1.7932 -3.6596 3.8449 -3.8448 2.7875 -0.2516 6.3861 -0.5257 9.6752 -0.6231 -0.8818 2.1236 -2.619 5.5235 -5.6194 8.5239Z" clip-rule="evenodd" stroke-width="1"></path></g></svg>