<svg xmlns="http://www.w3.org/2000/svg" fill="none" viewBox="0 0 48 48" id="Notification-Application-1--Streamline-Plump"><desc>Notification Application 1 Streamline Icon: https://streamlinehq.com</desc><g id="Solid/Phone/Notification/notification-application-1--android-phone-mobile-device-smartphone-iphone-alert-box"><path id="Union" fill="#000000" fill-rule="evenodd" d="M37.5 19.5c4.9706 0 9 -4.0294 9 -9 0 -4.97056 -4.0294 -9 -9 -9s-9 4.02944 -9 9c0 4.9706 4.0294 9 9 9Zm0 3c1.7669 0 3.4447 -0.3819 4.9552 -1.0676 0.0284 1.4131 0.0448 2.9356 0.0448 4.5676 0 6.1579 -0.2332 10.7565 -0.4651 13.8062 -0.2557 3.3638 -2.8649 5.973 -6.2287 6.2287 -3.0498 0.2319 -7.6483 0.4651 -13.8062 0.4651 -6.1579 0 -10.7564 -0.2332 -13.80616 -0.4651 -3.36382 -0.2557 -5.97308 -2.8649 -6.22878 -6.2287C1.73324 36.7564 1.5 32.1579 1.5 26c0 -6.1579 0.23324 -10.7564 0.46506 -13.8062 0.2557 -3.36378 2.86496 -5.97304 6.22878 -6.22873C11.2436 5.73324 15.8421 5.5 22 5.5c1.632 0 3.1545 0.01638 4.5676 0.04478C25.8819 7.0553 25.5 8.73305 25.5 10.5c0 6.6274 5.3726 12 12 12Z" clip-rule="evenodd" stroke-width="1"></path></g></svg>