<svg xmlns="http://www.w3.org/2000/svg" fill="none" viewBox="0 0 48 48" id="Octopus--Streamline-Plump"><desc>Octopus Streamline Icon: https://streamlinehq.com</desc><g id="octopus--nature-sealife-animals"><path id="Subtract" fill="#000000" fill-rule="evenodd" d="M18.1785 35.0284c0.061 -0.281 0.31 -0.495 0.5951 -0.4582 0.2904 0.0374 0.4694 0.3169 0.4217 0.6058 -0.3378 2.0455 -0.8982 3.9433 -2.5158 5.4044 -1.44 1.3006 -3.612 2.1697 -6.6794 2.1697 -3.10788 0 -5.27212 -1.4233 -6.10232 -2.0814 -0.97381 -0.7719 -2.389 -0.6082 -3.160908 0.3656 -0.7719081 0.9738 -0.608231 2.389 0.365588 3.1609 1.26481 1.0026 4.39451 3.0549 8.89764 3.0549 3.9326 0 7.2606 -1.1309 9.6957 -3.3302 2.3883 -2.1573 3.8091 -5.3534 4.0361 -8.5542 0.0102 -0.1442 0.1224 -0.2628 0.267 -0.2634 0.1455 -0.0006 0.2589 0.1185 0.2691 0.2636 0.2252 3.2001 1.6491 6.3978 4.0362 8.554 2.4351 2.1993 5.7631 3.3302 9.6957 3.3302 4.5031 0 7.6328 -2.0523 8.8976 -3.0549 0.9739 -0.7719 1.1375 -2.1871 0.3656 -3.1609 -0.7719 -0.9738 -2.1871 -1.1375 -3.1609 -0.3656 -0.8302 0.6581 -2.9944 2.0814 -6.1023 2.0814 -3.0674 0 -5.2394 -0.8691 -6.6794 -2.1697 -1.3375 -1.2081 -2.2338 -2.9598 -2.5232 -5.2408 -0.0352 -0.2772 0.1358 -0.5369 0.41 -0.5907 0.3017 -0.0592 0.5811 0.1586 0.6519 0.4577 0.815 3.444 3.8668 6.0066 7.5284 5.8032l1.104 -0.0614c3.1697 -0.1761 5.8052 -2.5027 6.3731 -5.6261 0.3319 -1.8256 -0.0894 -3.7079 -1.1679 -5.2178l-0.288 -0.4033c-0.4292 -0.6009 -0.6364 -1.4742 -0.5119 -2.2792 0.1185 -0.7655 0.4921 -1.2772 1.0389 -1.5337 0.6031 -0.2829 1.2937 -0.5396 2.0055 -0.682 1.2185 -0.2437 2.0088 -1.429 1.7651 -2.6476 -0.2437 -1.2185 -1.4291 -2.0087 -2.6476 -1.765 -1.1609 0.2322 -2.2027 0.6306 -3.0342 1.0206 -2.158 1.0124 -3.274 2.9756 -3.5748 4.9197 -0.2946 1.9047 0.1494 3.9758 1.2972 5.5827l0.288 0.4033c0.3715 0.5201 0.5166 1.1685 0.4023 1.7974 -0.1956 1.0759 -1.1035 1.8773 -2.1953 1.9379l-1.104 0.0614c-1.3588 0.0755 -2.5725 -0.8439 -2.8677 -2.1724 -0.5146 -2.3157 0.1136 -4.8093 1.6178 -6.949 2.1953 -3.1231 4.3619 -7.1686 4.3619 -11.7637l0 -0.0409c0.0003 -1.2089 0.0012 -4.8894 -2.0786 -8.30278C35.9448 3.63343 31.6441 0.75 24 0.75S12.0552 3.63343 9.82857 7.28792c-2.07979 3.41338 -2.0789 7.09388 -2.07861 8.30278l0.00001 0.0409c0 4.5951 2.16662 8.6406 4.36193 11.7637 1.5042 2.1397 2.1324 4.6333 1.6178 6.949 -0.2952 1.3285 -1.5089 2.2479 -2.8677 2.1724l-1.10399 -0.0614c-1.09185 -0.0606 -1.99967 -0.862 -2.19528 -1.9379 -0.11451 -0.6298 0.04471 -1.2968 0.58055 -2.047 1.15359 -1.6151 1.59642 -3.7338 1.31902 -5.6623 -0.28232 -1.9626 -1.37263 -4.024 -3.60347 -5.0479 -0.81018 -0.3718 -1.80928 -0.7448 -2.91763 -0.9665 -1.21851 -0.2437 -2.403863 0.5465 -2.647562 1.765 -0.2436988 1.2186 0.546542 2.4039 1.765052 2.6476 0.6786 0.1357 1.33869 0.3755 1.92305 0.6437 0.51058 0.2344 0.90413 0.7488 1.02641 1.5988 0.1272 0.8843 -0.10465 1.8152 -0.52671 2.4061 -1.04999 1.47 -1.73118 3.3497 -1.34613 5.4674 0.56788 3.1234 3.20335 5.45 6.37305 5.6261l1.10404 0.0614c3.7448 0.208 6.8005 -2.4591 7.5661 -5.9814ZM19 17c-1.1046 0 -2 0.8954 -2 2v1c0 1.1046 0.8954 2 2 2s2 -0.8954 2 -2v-1c0 -1.1046 -0.8954 -2 -2 -2Zm10 0c1.1046 0 2 0.8954 2 2v1c0 1.1046 -0.8954 2 -2 2s-2 -0.8954 -2 -2v-1c0 -1.1046 0.8954 -2 2 -2Z" clip-rule="evenodd" stroke-width="1"></path></g></svg>