<svg xmlns="http://www.w3.org/2000/svg" fill="none" viewBox="0 0 48 48" id="One-Finger-Drag-Horizontal--Streamline-Plump"><desc>One Finger Drag Horizontal Streamline Icon: https://streamlinehq.com</desc><g id="Solid/Interface Essential/Hand Gestures/one-finger-drag-horizontal"><path id="Union" fill="#000000" fill-rule="evenodd" d="M11.5331 3.1165c0 -1.7322 -1.7398 -3.0647 -3.4693 -2.3593 -1.1679 0.4763 -2.4812 1.0969 -3.6871 1.7976 -1.183 0.6875 -2.3628 1.5093 -3.1795 2.4128 -0.9564 1.0581 -0.9562 2.6481 0.0001 3.706 0.8167 0.9034 1.9965 1.7253 3.1795 2.4129 1.2059 0.7009 2.5193 1.3216 3.6874 1.7979 1.7296 0.7052 3.4689 -0.6275 3.4689 -2.3593v-1.648h11.3105v1.648c0 1.7318 1.7393 3.0645 3.4689 2.3593 1.1681 -0.4763 2.4816 -1.097 3.6874 -1.7979 1.1831 -0.6876 2.3628 -1.5095 3.1796 -2.4129 0.9562 -1.0579 0.9564 -2.6479 0.0001 -3.706 -0.8167 -0.9035 -1.9965 -1.7253 -3.1796 -2.4128 -1.2058 -0.7007 -2.5192 -1.3213 -3.6871 -1.7976 -1.7295 -0.7054 -3.4693 0.6271 -3.4693 2.3593v1.6477H11.5331V3.1165ZM16.6365 13.82c2.088 -0.8673 4.3181 0.1366 5.555 1.873 1.4625 2.0531 3.4383 4.88 4.51 6.6442 0.152 -0.046 0.3456 -0.1039 0.5766 -0.1713 0.6131 -0.1791 1.4891 -0.4261 2.5434 -0.6985 2.1067 -0.5441 4.9334 -1.1915 7.7993 -1.599 3.0853 -0.4386 6.0333 1.1917 7.2178 4.0742 0.8377 2.0384 1.7732 4.768 2.4871 8.0865 0.7109 3.3039 -0.5604 6.6808 -3.301 8.6754 -1.3071 0.9512 -2.8945 2.0139 -4.6943 3.0404 -2.5034 1.4279 -4.8153 2.4423 -6.543 3.1113 -2.0661 0.8 -4.3948 0.8354 -6.3826 -0.299 -2.0653 -1.1786 -4.9696 -3.3107 -8.0728 -7.068 -1.3403 -1.6229 -1.6571 -3.8013 -1.0528 -5.7632l1.0742 -3.4877c-2.6287 -4.505 -4.269 -7.5665 -5.2541 -9.5064 -0.9374 -1.8455 -0.6803 -4.14 1.0379 -5.4617 0.3897 -0.2998 0.8171 -0.5944 1.2691 -0.8522 0.4024 -0.2296 0.8206 -0.4278 1.2302 -0.5979Z" clip-rule="evenodd" stroke-width="1"></path></g></svg>