<svg xmlns="http://www.w3.org/2000/svg" fill="none" viewBox="0 0 48 48" id="One-Finger-Double-Tap--Streamline-Plump"><desc>One Finger Double Tap Streamline Icon: https://streamlinehq.com</desc><g id="Solid/Interface Essential/Hand Gestures/one-finger-double-tap"><path id="Union" fill="#000000" fill-rule="evenodd" d="M22.8706 4.5264c-5.0283 0 -9.1045 4.0763 -9.1045 9.1046 0 1.1174 -0.9058 2.0232 -2.0232 2.0232s-2.0232 -0.9058 -2.0232 -2.0232C9.7197 6.3679 15.6075 0.48 22.8706 0.48s13.151 5.8879 13.151 13.151c0 1.1174 -0.9058 2.0232 -2.0232 2.0232s-2.0233 -0.9058 -2.0233 -2.0232c0 -5.0283 -4.0762 -9.1046 -9.1045 -9.1046Zm16.8398 0.8747c-0.6343 -0.9198 -1.8944 -1.1511 -2.8142 -0.5167 -0.9197 0.6345 -1.1511 1.8944 -0.5166 2.8142 1.8395 2.6669 2.1954 6.9505 0.869 10.2325 -0.4187 1.036 0.0816 2.2153 1.1176 2.634 1.036 0.4187 2.2152 -0.0818 2.634 -1.1178 1.7746 -4.391 1.411 -10.1309 -1.2898 -14.0462ZM8.8557 4.8915c0.9158 0.6403 1.1392 1.9017 0.499 2.8175 -1.8595 2.6598 -2.1933 6.9506 -0.8097 10.1842 0.4396 1.0273 -0.0369 2.2164 -1.0642 2.656 -1.0273 0.4395 -2.2165 -0.0369 -2.656 -1.0642C2.952 15.1081 3.2927 9.3179 6.0383 5.3905c0.6402 -0.9158 1.9016 -1.1392 2.8174 -0.499Zm12.4828 3.2683c0.4435 -0.0566 0.9094 -0.0927 1.3775 -0.0927 0.454 0 0.9058 0.034 1.3371 0.0877 2.2467 0.2796 3.6486 2.281 3.8084 4.4056 0.2337 3.1064 0.5555 7.716 0.5931 10.0368 0.1791 0.0372 0.4138 0.0869 0.6963 0.1487 0.6936 0.1516 1.6765 0.3763 2.8353 0.669 2.3153 0.5845 5.3436 1.4424 8.1747 2.5337 2.8531 1.0996 4.5402 3.9322 4.1266 6.9649 -0.2981 2.185 -0.8592 5.0324 -1.911 8.2898 -1.0586 3.2787 -3.9374 5.586 -7.3547 5.9643 -1.7755 0.1965 -3.8779 0.3524 -6.0815 0.3524 -2.4018 0 -4.6021 -0.1852 -6.3754 -0.4068 -2.9607 -0.3698 -5.7266 -1.8868 -7.1116 -4.6271 -1.0511 -2.0796 -2.1757 -5.0859 -2.8324 -9.1817 -0.3259 -2.0326 0.4791 -4.0383 1.9541 -5.4175l2.7305 -2.553c0.0039 -5.8596 0.163 -10.1466 0.3034 -12.7965 0.1123 -2.119 1.5065 -4.0938 3.7296 -4.3776Z" clip-rule="evenodd" stroke-width="1"></path></g></svg>