<svg xmlns="http://www.w3.org/2000/svg" fill="none" viewBox="0 0 48 48" id="One-Finger-Long-Tap--Streamline-Plump"><desc>One Finger Long Tap Streamline Icon: https://streamlinehq.com</desc><g id="Solid/Interface Essential/Hand Gestures/one-finger-long-tap"><path id="Union" fill="#000000" fill-rule="evenodd" d="M20.8711 0.48c1.1175 0 2.0233 0.9058 2.0233 2.0232v3.0349c0 1.1174 -0.9058 2.0232 -2.0233 2.0232s-2.0232 -0.9058 -2.0232 -2.0232V2.5032c0 -1.1174 0.9058 -2.0232 2.0232 -2.0232Zm5.7226 6.5901c-0.7902 0.7902 -0.7902 2.0712 0 2.8613 0.7901 0.7902 2.0712 0.7902 2.8613 0l2.1459 -2.1459c0.7902 -0.7901 0.7902 -2.0712 0 -2.8613 -0.7901 -0.7901 -2.0711 -0.7901 -2.8613 0l-2.1459 2.146ZM10.1413 4.9247c0.7902 -0.7901 2.0712 -0.7901 2.8613 0l2.146 2.146c0.7901 0.7901 0.7901 2.0711 0 2.8613 -0.7901 0.7901 -2.0711 0.7901 -2.8613 0l-2.146 -2.146c-0.7901 -0.7901 -0.7901 -2.0712 0 -2.8613ZM7.7202 13.631c-1.1174 0 -2.0233 0.9058 -2.0233 2.0232s0.9059 2.0232 2.0233 2.0232h3.0348c1.1174 0 2.0232 -0.9058 2.0232 -2.0232s-0.9058 -2.0232 -2.0232 -2.0232H7.7202Zm23.2671 0c-1.1175 0 -2.0233 0.9058 -2.0233 2.0232s0.9058 2.0232 2.0233 2.0232h3.0348c1.1174 0 2.0232 -0.9058 2.0232 -2.0232s-0.9058 -2.0232 -2.0232 -2.0232h-3.0348ZM19.3389 9.1714c0.4435 -0.0566 0.9094 -0.0927 1.3774 -0.0927 0.454 0 0.9058 0.034 1.3372 0.0877 2.2467 0.2796 3.6486 2.281 3.8084 4.4056 0.2337 3.1065 0.5555 7.716 0.5931 10.0368 0.1798 0.0374 0.4156 0.0873 0.6997 0.1494 0.6956 0.1522 1.6814 0.3777 2.8432 0.6711 2.3213 0.5864 5.3567 1.447 8.1911 2.5415 2.8364 1.0953 4.5156 3.9133 4.0313 6.9295 -0.3105 1.9336 -0.8582 4.4131 -1.8214 7.3148 -1.0845 3.2667 -3.9589 5.5741 -7.3767 5.9525 -1.7755 0.1965 -3.8779 0.3524 -6.0815 0.3524 -2.929 0 -5.559 -0.2754 -7.4804 -0.5565 -2.2214 -0.3248 -4.3898 -1.3264 -5.6296 -3.3278 -1.1533 -1.8617 -2.4705 -4.8316 -3.2053 -9.319 -0.333 -2.0332 0.4755 -4.0394 1.95 -5.4182l2.7305 -2.553c0.0039 -5.8595 0.163 -10.1465 0.3034 -12.7965 0.1123 -2.119 1.5065 -4.0937 3.7296 -4.3776Z" clip-rule="evenodd" stroke-width="1"></path></g></svg>