<svg xmlns="http://www.w3.org/2000/svg" fill="none" viewBox="0 0 48 48" id="One-Finger-Short-Tap--Streamline-Plump"><desc>One Finger Short Tap Streamline Icon: https://streamlinehq.com</desc><g id="Solid/Interface Essential/Hand Gestures/one-finger-short-tap"><path id="Union" fill="#000000" fill-rule="evenodd" d="M20 1c1.1046 0 2 0.89543 2 2v1c0 1.10457 -0.8954 2 -2 2s-2 -0.89543 -2 -2V3c0 -1.10457 0.8954 -2 2 -2ZM9 12c-1.10457 0 -2 0.8954 -2 2s0.89543 2 2 2h1c1.1046 0 2 -0.8954 2 -2s-0.8954 -2 -2 -2H9Zm21 0c-1.1046 0 -2 0.8954 -2 2s0.8954 2 2 2h1c1.1046 0 2 -0.8954 2 -2s-0.8954 -2 -2 -2h-1Zm-4.3421 -6.4855c-0.7811 0.78105 -0.7811 2.04738 0 2.82843 0.781 0.78104 2.0473 0.78104 2.8284 0l0.7071 -0.70711c0.781 -0.78105 0.781 -2.04738 0 -2.82843s-2.0474 -0.78105 -2.8284 0l-0.7071 0.70711Zm-14.8495 -0.70698c0.7811 -0.78104 2.0474 -0.78104 2.8285 0l0.7071 0.70711c0.781 0.78105 0.781 2.04738 0 2.82843 -0.7811 0.78105 -2.0474 0.78105 -2.8285 0l-0.7071 -0.70711c-0.781 -0.78105 -0.781 -2.04738 0 -2.82843Zm7.6771 3.78414c0.4384 -0.05597 0.8989 -0.09166 1.3616 -0.09166 0.4487 0 0.8954 0.03358 1.3218 0.08665 2.2209 0.27643 3.6067 2.25485 3.7647 4.35505 0.231 3.0708 0.5491 7.6274 0.5863 9.9216 0.177 0.0368 0.409 0.0859 0.6883 0.147 0.6856 0.1499 1.6571 0.372 2.8027 0.6613 2.2887 0.5778 5.2823 1.4259 8.0809 2.5046 2.8203 1.087 4.4881 3.8871 4.0792 6.885 -0.2947 2.1599 -0.8493 4.9746 -1.889 8.1946 -1.0465 3.2411 -3.8922 5.5219 -7.2703 5.8958 -1.7551 0.1943 -3.8334 0.3484 -6.0117 0.3484 -2.3742 0 -4.5493 -0.1831 -6.3022 -0.4021 -2.9267 -0.3656 -5.6609 -1.8652 -7.0301 -4.574 -1.0389 -2.0557 -2.1506 -5.0275 -2.79977 -9.0763 -0.32216 -2.0093 0.47357 -3.992 1.93167 -5.3553l2.6992 -2.5237c0.0038 -5.7923 0.1611 -10.0301 0.2999 -12.6496 0.111 -2.0947 1.4892 -4.04678 3.6868 -4.32734Z" clip-rule="evenodd" stroke-width="1"></path></g></svg>