<svg xmlns="http://www.w3.org/2000/svg" fill="none" viewBox="0 0 48 48" id="Open-Umbrella--Streamline-Plump"><desc>Open Umbrella Streamline Icon: https://streamlinehq.com</desc><g id="Solid/Interface Essential/Weather/open-umbrella--storm-rain-umbrella-open-weather"><path id="Union" fill="#000000" d="M8.1714 7.1147c4.15 -3.6659 9.695 -6.2363 15.8287 -6.2363 6.1335 0 11.6785 2.5704 15.8285 6.2363 4.1339 3.6516 7.0037 8.4977 7.6554 13.2142 0.2554 1.8486 -0.8699 3.553 -2.6935 4.0189 -2.4195 0.6181 -7.4633 1.4674 -17.2718 1.6338v13.0977c0 0.5552 0.4501 1.0053 1.0053 1.0053 0.5552 0 1.0052 -0.4501 1.0052 -1.0053v-1.2769c0 -1.2379 0.8017 -2.4252 2.118 -2.6286 0.4316 -0.0667 0.9132 -0.1156 1.4006 -0.1156 0.4874 0 0.9691 0.0489 1.4006 0.1156 1.3163 0.2034 2.1179 1.3907 2.1179 2.6286v1.2769c0 4.4417 -3.6007 8.0423 -8.0423 8.0423 -4.4416 0 -8.0424 -3.6006 -8.0424 -8.0423V25.9816c-9.8086 -0.1664 -14.8525 -1.0157 -17.2721 -1.6338C1.3859 23.8819 0.2606 22.1775 0.516 20.3289c0.6517 -4.7165 3.5216 -9.5626 7.6554 -13.2142Z" stroke-width="1"></path></g></svg>