<svg xmlns="http://www.w3.org/2000/svg" fill="none" viewBox="0 0 48 48" id="Open-Folder--Streamline-Plump"><desc>Open Folder Streamline Icon: https://streamlinehq.com</desc><path fill="#000000" fill-rule="evenodd" d="M14.628 2.97111c2.0058 -0.04414 3.8825 0.9698 4.9953 2.64274l1.3283 1.99678c0.5564 0.83647 1.4972 1.33759 2.5003 1.34408 6.2079 0.04015 10.9239 0.30692 14.0256 0.5544 2.607 0.20802 4.6503 2.19999 4.9008 4.80889 0.0264 0.2746 0.0537 0.5431 0.0811 0.8129 0.0368 0.3628 0.0739 0.7278 0.1093 1.1129 -3.3837 -0.4141 -8.8596 -0.9068 -13.4307 -0.9068 -0.2709 0 -0.5827 -0.0011 -0.9283 -0.0023 -1.5545 -0.0054 -3.7914 -0.0133 -6.0534 0.0653 -2.714 0.0943 -5.6751 0.3164 -7.5775 0.8909 -2.1358 0.645 -4.2414 2.4033 -4.76506 5.0561 -0.00297 0.0151 -0.00571 0.0302 -0.00822 0.0453L8.2897 30.5418c-0.1354 0.8173 0.41738 1.5896 1.23466 1.725 0.81734 0.1354 1.58964 -0.4174 1.72504 -1.2347l1.5116 -9.1245c0.271 -1.3265 1.3764 -2.3496 2.685 -2.7448 1.4784 -0.4464 4.0673 -0.6692 6.8145 -0.7646 2.1977 -0.0764 4.3614 -0.0689 5.9182 -0.0635 0.3532 0.0012 0.6752 0.0023 0.9593 0.0023 5.7992 0 13.1648 0.8274 15.372 1.208 1.0053 0.1733 1.8081 0.7902 2.2658 1.6896 0.2508 0.6259 0.3832 1.3184 0.3832 2.039 0 0.8532 -0.2042 2.6309 -0.5173 4.698 -0.114 0.7429 -0.2422 1.5264 -0.3813 2.3249 -0.5528 3.1732 -1.2294 6.3045 -1.7548 7.7597 -0.0218 0.0603 -0.0394 0.121 -0.0531 0.1819 -1.106 3.0372 -2.7612 6.3724 -6.2432 6.5303 -1.7589 0.0797 -6.409 0.1733 -9.3588 0.1799 -2.0454 0.051 -4.3724 0.0819 -7.0083 0.0819 -7.7186 0 -12.78956 -0.2653 -15.89392 -0.5229 -2.48448 -0.2061 -4.35144 -2.1131 -4.55655 -4.6031 -0.2657 -3.2255 -0.550666 -8.4309 -0.550666 -15.921 0 -7.3805 0.276686 -12.5427 0.538996 -15.77816 0.20762 -2.56104 2.16349 -4.53588 4.71683 -4.76837 2.13213 -0.19413 5.01461 -0.38817 8.53111 -0.46556Z" clip-rule="evenodd" stroke-width="1"></path></svg>