<svg xmlns="http://www.w3.org/2000/svg" fill="none" viewBox="0 0 48 48" id="Package--Streamline-Plump"><desc>Package Streamline Icon: https://streamlinehq.com</desc><path fill="#000000" fill-rule="evenodd" d="M19.1581 2.03166c1.6865 -0.53811 3.3704 -0.9135 4.8419 -0.9135 1.4714 0 3.1553 0.37539 4.8418 0.9135 1.7059 0.5443 3.5083 1.2862 5.245 2.08625 3.4738 1.60021 6.7756 3.47554 8.6661 4.59476 0.4958 0.29351 0.9328 0.66802 1.303 1.10388 -1.399 0.77825 -3.4492 1.90115 -5.7371 3.09745 -0.3075 -0.3786 -0.6711 -0.709 -1.0948 -0.9599 -2.2776 -1.3484 -6.386 -3.68507 -10.6269 -5.83787 -1.2896 -0.65459 -2.5969 -1.29507 -3.8723 -1.88672 -1.4452 0.22812 -3.2357 0.79454 -5.1893 1.58547 -1.2552 0.50816 -2.5342 1.09061 -3.7721 1.69409 1.956 0.80068 4.0783 1.78475 6.1737 2.82153 4.2048 2.0806 8.2467 4.3458 10.5088 5.685 0.2331 0.138 0.4571 0.2893 0.6677 0.455 -1.1261 0.5128 -2.2052 0.9768 -3.1922 1.3629 -0.9222 0.3607 -1.7438 0.6453 -2.4354 0.8379 -0.713 0.1986 -1.2003 0.2739 -1.485 0.2739 -0.2846 0 -0.7719 -0.0753 -1.485 -0.2739 -0.6915 -0.1926 -1.5131 -0.4772 -2.4354 -0.8379 -1.8438 -0.7212 -4.0093 -1.7146 -6.2021 -2.7898 -3.85 -1.8878 -7.71301 -3.9925 -9.93376 -5.22796 0.37002 -0.43552 0.80678 -0.80974 1.30227 -1.10307C7.13755 7.59345 10.4394 5.71812 13.9131 4.1179c1.7367 -0.80004 3.5392 -1.54195 5.245 -2.08624ZM2.6632 12.5357c-0.03058 0.158 -0.05535 0.3179 -0.07417 0.4795 -1.12229 7.9478 -1.12229 13.3113 0 21.2592 0.21085 1.81 1.16944 3.4213 2.65798 4.3025 1.89053 1.1192 5.19239 2.9945 8.66609 4.5947 1.7367 0.8001 3.5392 1.542 5.245 2.0863 1.1425 0.3645 2.2839 0.6544 3.3589 0.8035 -0.0105 -0.0716 -0.016 -0.1449 -0.016 -0.2194l0 -24.0832c-0.2603 -0.0566 -0.5248 -0.1236 -0.7897 -0.1973 -0.823 -0.2292 -1.7465 -0.552 -2.7235 -0.9342 -1.9546 -0.7645 -4.204 -1.7985 -6.43 -2.89 -3.81323 -1.8697 -7.6255 -3.9416 -9.8946 -5.2016Zm22.822 33.5254c1.0742 -0.1492 2.2149 -0.4389 3.3566 -0.8032 1.7059 -0.5443 3.5083 -1.2862 5.245 -2.0863 3.4738 -1.6002 6.7756 -3.4755 8.6661 -4.5947 1.4886 -0.8812 2.4472 -2.4925 2.658 -4.3025 1.1223 -7.9479 1.1223 -13.3114 0 -21.2592 -0.0188 -0.1612 -0.0435 -0.3208 -0.074 -0.4784 -1.4386 0.7988 -3.4968 1.9236 -5.7821 3.1162 0.0282 0.1389 0.0518 0.2761 0.0708 0.4105 0.3412 2.4137 0.2024 4.0538 0.0319 6.0688l-0.0287 0.3403c-0.0142 0.1688 -0.1129 0.319 -0.2622 0.399l-5.8953 3.1583c-0.1616 0.0865 -0.3575 0.0777 -0.5107 -0.0229 -0.1532 -0.1006 -0.239 -0.277 -0.2237 -0.4596 0.1812 -2.1622 0.2425 -4.1555 0.0014 -6.288 -0.0083 -0.0742 -0.0186 -0.1472 -0.0306 -0.2191 -1.2901 0.5936 -2.5428 1.137 -3.6935 1.587 -0.9769 0.3822 -1.9005 0.705 -2.7234 0.9342 -0.265 0.0737 -0.5294 0.1407 -0.7898 0.1973l0 24.0832c0 0.0744 -0.0054 0.1476 -0.0158 0.2191Z" clip-rule="evenodd" stroke-width="1"></path></svg>