<svg xmlns="http://www.w3.org/2000/svg" fill="none" viewBox="0 0 48 48" id="Padlock-Square-1--Streamline-Plump"><desc>Padlock Square 1 Streamline Icon: https://streamlinehq.com</desc><g id="Solid/Interface Essential/Lock Unlock/padlock-square-1--combination-combo-lock-locked-padlock-secure-security-shield-keyhole"><path id="Subtract" fill="#000000" fill-rule="evenodd" d="M10.5848 11.9619C11.1246 5.48328 16.5405 0.5 23.0416 0.5h1.9168c6.5011 0 11.9169 4.98328 12.4568 11.4619l0.5713 6.8555 0.0175 0.001c3.2025 0.1711 5.8598 2.5093 6.1592 5.8078 0.1834 2.0205 0.3368 4.7836 0.3368 8.3738 0 3.5902 -0.1534 6.3533 -0.3368 8.3738 -0.2994 3.2985 -2.9567 5.6367 -6.1592 5.8078 -2.9652 0.1585 -7.5546 0.3184 -14.004 0.3184s-11.0388 -0.1599 -14.00396 -0.3184c-3.20254 -0.1711 -5.85981 -2.5093 -6.15922 -5.8079C3.65342 39.3533 3.5 36.5902 3.5 33c0 -3.5902 0.15342 -6.3533 0.33682 -8.3737 0.29941 -3.2986 2.95669 -5.6368 6.15922 -5.8079l0.01746 -0.001 0.5713 -6.8555Zm18.2096 1.0588 0.3245 5.5153c-1.5556 -0.0227 -3.26 -0.036 -5.1189 -0.036 -1.859 0 -3.5634 0.0133 -5.1189 0.036l0.3244 -5.5153C19.3548 10.4822 21.457 8.5 24 8.5c2.5429 0 4.6451 1.9822 4.7944 4.5207ZM28.5 30c0 1.6215 -0.8576 3.0427 -2.1441 3.8347l1.2938 4.8517c0.1988 0.7454 -0.21 1.4979 -0.9719 1.6194 -0.6517 0.1039 -1.5443 0.1942 -2.6778 0.1942s-2.0261 -0.0903 -2.6778 -0.1942c-0.7619 -0.1215 -1.1707 -0.874 -0.9719 -1.6194l1.2938 -4.8517C20.3576 33.0427 19.5 31.6215 19.5 30c0 -2.4853 2.0147 -4.5 4.5 -4.5s4.5 2.0147 4.5 4.5Z" clip-rule="evenodd" stroke-width="1"></path></g></svg>