<svg xmlns="http://www.w3.org/2000/svg" fill="none" viewBox="0 0 48 48" id="Padlock-Circle-1--Streamline-Plump"><desc>Padlock Circle 1 Streamline Icon: https://streamlinehq.com</desc><g id="Solid/Interface Essential/Lock Unlock/padlock-circle-1--combination-combo-lock-locked-padlock-secure-security-shield-keyhole"><path id="Subtract" fill="#000000" fill-rule="evenodd" d="M12.1011 10.5629C12.3354 4.9388 16.963 0.5 22.592 0.5h2.816c5.629 0 10.2566 4.4388 10.4909 10.0629l0.3979 9.5508C39.4956 22.9938 41.5 27.0026 41.5 31.5c0 8.9721 -7.9774 16 -17.5 16s-17.5 -7.0279 -17.5 -16c0 -4.4974 2.00443 -8.5062 5.2032 -11.3863l0.3979 -9.5508Zm16.6096 0.243 0.2979 5.3623C27.4161 15.7329 25.7337 15.5 24 15.5c-1.7337 0 -3.4161 0.2329 -5.0086 0.6682l0.2979 -5.3623C19.3924 8.95115 20.9264 7.5 22.7839 7.5h2.4322c1.8575 0 3.3915 1.45115 3.4946 3.3059ZM28.5 29c0 1.5242 -0.7578 2.8714 -1.9172 3.6855l1.0669 4.0009c0.1988 0.7454 -0.21 1.4979 -0.9719 1.6194 -0.6517 0.1039 -1.5443 0.1942 -2.6778 0.1942s-2.0261 -0.0903 -2.6778 -0.1942c-0.7619 -0.1215 -1.1707 -0.874 -0.9719 -1.6194l1.0669 -4.0009C20.2578 31.8714 19.5 30.5242 19.5 29c0 -2.4853 2.0147 -4.5 4.5 -4.5s4.5 2.0147 4.5 4.5Z" clip-rule="evenodd" stroke-width="1"></path></g></svg>