<svg xmlns="http://www.w3.org/2000/svg" fill="none" viewBox="0 0 48 48" id="Padlock-Square-2--Streamline-Plump"><desc>Padlock Square 2 Streamline Icon: https://streamlinehq.com</desc><g id="Solid/Interface Essential/Lock Unlock/padlock-square-2--combination-combo-key-keyhole-lock-secure-security-square-unlock-unlocked"><path id="Subtract" fill="#000000" fill-rule="evenodd" d="M10.2815 12.201C10.8336 5.5759 16.372 0.48 23.02 0.48h1.9602c6.6481 0 12.1863 5.0959 12.7384 11.721l0.0996 1.1953c0.0121 0.145 -0.0382 0.2883 -0.1384 0.3941 -0.1001 0.1056 -0.2405 0.1636 -0.386 0.1594 -2.2262 -0.0648 -4.8463 -0.1191 -7.8835 -0.1496 -0.2687 -0.0027 -0.4895 -0.2129 -0.5052 -0.4813l-0.0022 -0.0351c-0.1527 -2.5959 -2.3024 -4.6229 -4.9028 -4.6229 -2.6005 0 -4.7502 2.027 -4.9029 4.6229l-0.2716 4.6164c1.5745 -0.0227 3.2974 -0.0359 5.1744 -0.0359 6.5952 0 11.2884 0.1636 14.3206 0.3256 3.2749 0.175 5.9923 2.5661 6.2985 5.9392 0.1875 2.0661 0.3444 4.8917 0.3444 8.5631 0 3.6713 -0.1569 6.4969 -0.3444 8.5631 -0.3062 3.3731 -3.0236 5.7641 -6.2985 5.9391 -3.0322 0.1621 -7.7254 0.3256 -14.3206 0.3256s-11.2884 -0.1635 -14.3206 -0.3256c-3.2749 -0.175 -5.9923 -2.566 -6.2984 -5.9392 -0.1876 -2.0661 -0.3445 -4.8917 -0.3445 -8.563 0 -3.6714 0.1569 -6.497 0.3445 -8.563 0.3061 -3.3732 3.0235 -5.7643 6.2984 -5.9393l0.1036 -0.0055 0.4985 -5.9834Zm18.3202 17.4233c0 1.6582 -0.8769 3.1115 -2.1925 3.9214l1.323 4.9614c0.2033 0.7623 -0.2147 1.5318 -0.9939 1.656 -0.6664 0.1063 -1.5792 0.1986 -2.7383 0.1986s-2.0719 -0.0923 -2.7383 -0.1986c-0.7792 -0.1242 -1.1972 -0.8937 -0.9939 -1.656l1.323 -4.9614c-1.3155 -0.8099 -2.1925 -2.2632 -2.1925 -3.9214 0 -2.5414 2.0602 -4.6017 4.6017 -4.6017s4.6017 2.0603 4.6017 4.6017Z" clip-rule="evenodd" stroke-width="1"></path></g></svg>