<svg xmlns="http://www.w3.org/2000/svg" fill="none" viewBox="0 0 48 48" id="Paint-Palette--Streamline-Plump"><desc>Paint Palette Streamline Icon: https://streamlinehq.com</desc><g id="Solid/Interface Essential/Color/paint-palette--color-colors-design-paint-painting-palette"><path id="Subtract" fill="#000000" fill-rule="evenodd" d="M0.5 24C0.5 11.021 11.024 0.5 24.0053 0.5c12.064 0 21.8184 9.40284 23.2995 20.6674 0.6489 4.9355 -3.0757 9.0478 -7.9997 9.076 -0.9732 0.0056 -1.9518 -0.015 -2.8802 -0.0345l-0.014 -0.0003c-0.9411 -0.0198 -1.8257 -0.0382 -2.6431 -0.0305 -0.8195 0.0077 -1.532 0.0417 -2.1259 0.1188 -0.6091 0.0791 -0.9991 0.1926 -1.2253 0.3057 -1.0785 0.5391 -2.0477 2.2318 -1.1965 4.3063 0.5287 1.2885 0.9671 2.2961 1.3257 3.1204l0.0392 0.09c0.3593 0.8258 0.6556 1.5084 0.8655 2.0889 0.2145 0.5932 0.3684 1.1573 0.4103 1.7591 0.0425 0.6113 -0.0365 1.1734 -0.1795 1.7581 -0.3943 1.6127 -1.6061 2.5715 -2.9766 3.0943 -1.3347 0.509 -2.9831 0.6803 -4.6994 0.6803C11.024 47.5 0.5 36.979 0.5 24Zm21 -10c0 -3.0376 2.4624 -5.5 5.5 -5.5s5.5 2.4624 5.5 5.5 -2.4624 5.5 -5.5 5.5 -5.5 -2.4624 -5.5 -5.5Zm-12 8.5c0 -2.7614 2.2386 -5 5 -5s5 2.2386 5 5 -2.2386 5 -5 5 -5 -2.2386 -5 -5Zm5 13c0 -2.2091 1.7909 -4 4 -4 2.2091 0 4 1.7909 4 4 0 2.2091 -1.7909 4 -4 4 -2.2091 0 -4 -1.7909 -4 -4Z" clip-rule="evenodd" stroke-width="1"></path></g></svg>