<svg xmlns="http://www.w3.org/2000/svg" fill="none" viewBox="0 0 48 48" id="Paperclip-2--Streamline-Plump"><desc>Paperclip 2 Streamline Icon: https://streamlinehq.com</desc><g id="Solid/Interface Essential/Edit/paperclip-2--attachment-link-paperclip-unlink"><path id="Union" fill="#000000" d="M24 0.5c-1.8727 0 -3.5409 0.024243 -5.0234 0.065279C12.1075 0.75543 7.5 6.35121 7.5 13.0602v25.8814c0 4.262 3.026 8.0897 7.4193 8.43 1.0049 0.0779 2.0525 0.1284 3.0807 0.1284s2.0758 -0.0505 3.0807 -0.1284c4.3933 -0.3403 7.4193 -4.168 7.4193 -8.43V15.8019c0 -1.479 -0.9718 -2.9421 -2.6221 -3.1706 -0.5444 -0.0754 -1.182 -0.1313 -1.8779 -0.1313s-1.3335 0.0559 -1.8779 0.1313c-1.6503 0.2285 -2.6221 1.6916 -2.6221 3.1706v21.653c0 0.6204 -0.3334 0.9334 -0.6325 0.9792 -0.2582 0.0395 -0.5496 0.0659 -0.8675 0.0659 -0.3179 0 -0.6093 -0.0264 -0.8675 -0.0659 -0.2991 -0.0458 -0.6325 -0.3588 -0.6325 -0.9792V14.7801c0 -2.7076 1.7874 -4.92201 4.2896 -5.14012C21.759 9.55549 22.838 9.5 24 9.5s2.241 0.05549 3.2104 0.13998C29.7126 9.85809 31.5 12.0725 31.5 14.7801v23.418c0 1.479 0.9718 2.9421 2.6221 3.1706 0.5444 0.0754 1.182 0.1313 1.8779 0.1313s1.3335 -0.0559 1.8779 -0.1313c1.6503 -0.2285 2.6221 -1.6916 2.6221 -3.1706V13.0602C40.5 6.35121 35.8925 0.75543 29.0234 0.565279 27.5409 0.524243 25.8727 0.5 24 0.5Z" stroke-width="1"></path></g></svg>