<svg xmlns="http://www.w3.org/2000/svg" fill="none" viewBox="0 0 48 48" id="Paperclip-1--Streamline-Plump"><desc>Paperclip 1 Streamline Icon: https://streamlinehq.com</desc><g id="Solid/Interface Essential/Edit/paperclip-1--attachment-link-paperclip-unlink"><path id="Union" fill="#000000" d="M33.7993 2.52086C30.546 -0.264706 25.8375 0.287737 22.9111 3.21414L5.20281 20.9224C0.601941 25.5233 -0.0782268 32.5245 4.50544 37.3692c0.98645 1.0426 2.11149 2.2008 3.39301 3.4823 1.28152 1.2816 2.43975 2.4066 3.48235 3.393 4.8447 4.5837 11.8459 3.9035 16.4467 -0.6973l17.1997 -17.1996c1.0211 -1.0212 1.3625 -2.7052 0.3782 -4.0059 -0.3216 -0.4251 -0.7207 -0.9007 -1.198 -1.3781 -0.4773 -0.4773 -0.953 -0.8763 -1.378 -1.1979 -1.3008 -0.9844 -2.9848 -0.643 -4.0059 0.3782L22.8006 36.1667c-1.843 1.843 -4.5621 2.1301 -6.4082 0.5801 -0.7204 -0.6049 -1.496 -1.3047 -2.2903 -2.099 -0.7943 -0.7943 -1.494 -1.5698 -2.0989 -2.2902 -1.55 -1.8461 -1.2629 -4.5652 0.5801 -6.4082L28.0976 10.435c0.417 -0.417 0.8415 -0.3949 1.0607 -0.234 0.2025 0.1487 0.4186 0.329 0.6349 0.5453 0.2162 0.2162 0.3965 0.4324 0.5452 0.6349 0.161 0.2191 0.183 0.6437 -0.234 1.0607L15.2892 27.2571c-1.0211 1.0211 -1.3625 2.7051 -0.3782 4.0059 0.3216 0.425 0.7206 0.9007 1.198 1.378 0.4773 0.4773 0.953 0.8764 1.378 1.198 1.3008 0.9843 2.9848 0.6429 4.0059 -0.3782l15.8324 -15.8324c2.9264 -2.9264 3.4789 -7.63492 0.6933 -10.88825 -0.6348 -0.74136 -1.3175 -1.49335 -2.0217 -2.19757 -0.7042 -0.70422 -1.4562 -1.38696 -2.1976 -2.02172Z" stroke-width="1"></path></g></svg>