<svg xmlns="http://www.w3.org/2000/svg" fill="none" viewBox="0 0 48 48" id="Party-Hat--Streamline-Plump"><desc>Party Hat Streamline Icon: https://streamlinehq.com</desc><g id="Solid/Entertainment/Party/party-hat"><path id="Union" fill="#000000" fill-rule="evenodd" d="M17.5 7c0 -3.58985 2.9101 -6.5 6.5 -6.5s6.5 2.91015 6.5 6.5c0 1.81758 -0.746 3.4609 -1.9486 4.6405 0.8427 1.4376 1.8101 3.1166 2.8565 4.9832 0.3538 0.6312 0.7168 1.2841 1.0872 1.9566 -5.4484 1.9387 -12.443 4.1368 -20.1165 5.8353 1.4701 -2.8238 2.905 -5.4565 4.2142 -7.7919 1.0463 -1.8665 2.0136 -3.5453 2.8562 -4.9828C18.2462 10.4613 17.5 8.81779 17.5 7ZM5.10633 39.7468c1.22791 -2.9152 2.55444 -5.8191 3.9091 -8.6291C19.3661 29.0895 28.7545 26.0028 35.1935 23.596c1.1178 2.1292 2.2614 4.3761 3.3903 6.6935 -6.8904 2.742 -19.5812 7.2519 -33.51153 9.5401 0.0111 -0.0277 0.02245 -0.0553 0.03406 -0.0828Zm1.47595 5.8253C21.7039 42.9007 35.1469 37.7478 40.9557 35.3232c0.6655 1.4644 1.3148 2.9425 1.9386 4.4236 1.1808 2.8032 -0.2563 6.0947 -3.4768 6.6608 -3.0682 0.5393 -8.0177 1.0924 -15.4172 1.0924s-12.3489 -0.5531 -15.41713 -1.0924c-0.77377 -0.136 -1.44459 -0.4294 -2.00089 -0.8355Z" clip-rule="evenodd" stroke-width="1"></path></g></svg>