<svg xmlns="http://www.w3.org/2000/svg" fill="none" viewBox="0 0 48 48" id="Pen-Draw--Streamline-Plump"><desc>Pen Draw Streamline Icon: https://streamlinehq.com</desc><g id="Solid/Interface Essential/Edit/pen-draw"><path id="Union" fill="#000000" d="M36.5967 5.00172c-3.2104 -2.65598 -6.9586 -2.93175 -10.5549 -2.05252 -3.5828 0.87593 -7.0574 2.90466 -9.8208 4.92753C9.57245 12.7437 3.65732 19.8544 1.08717 24.4206c-0.781673 1.3887 -0.810841 3.1014 0.0814 4.4948 0.53372 0.8335 1.30504 1.8339 2.3265 2.6389 0.7689 0.606 1.69277 1.0739 2.61128 1.0571 0.97802 -0.0179 1.82146 -0.5801 2.37432 -1.7517 3.98613 -8.4475 11.83693 -15.4658 18.55663 -18.957 0.7345 -0.3815 1.6392 -0.0953 2.0208 0.6397 0.3816 0.7351 0.0952 1.6404 -0.6394 2.022C21.9694 17.915 14.5958 24.6668 11.03 32.4903c-0.9738 2.1365 -1.34092 4.3717 -0.899 6.3919 0.4452 2.0351 1.7032 3.8084 3.8883 5.0016 1.9108 1.0435 3.7137 1.3053 5.4093 1.0098 1.6841 -0.2934 3.2233 -1.1294 4.6318 -2.2156 1.4084 -1.0861 2.7095 -2.441 3.9158 -3.8022 0.548 -0.6184 1.0669 -1.2265 1.5686 -1.8145 0.6235 -0.7307 1.2208 -1.4307 1.8143 -2.0805 1.6627 -1.8202 4.8505 -4.3063 7.1294 -5.7839 0.5331 -0.3457 1.2442 -0.2574 1.7203 0.2188l0.0257 0.0256c0.4696 0.4696 0.3981 1.347 -0.1822 1.7878 -1.0973 0.8333 -4.1145 3.1886 -6.2749 5.7495 -1.0741 1.2732 -1.9831 2.6504 -2.3017 3.9541 -0.1614 0.6608 -0.1771 1.3266 0.0373 1.9548 0.216 0.633 0.6501 1.182 1.3084 1.6295 1.0609 0.7211 2.4349 0.9986 3.8098 1.0243 1.3822 0.0259 2.8169 -0.2016 4.0466 -0.5406 0.4775 -0.1316 0.7179 -0.5448 0.6931 -0.9539 -0.0236 -0.3903 -0.2829 -0.7621 -0.7109 -0.9041 -0.6124 -0.2031 -1.2734 -0.4894 -1.7718 -0.8691 -0.4979 -0.3792 -0.7688 -0.7981 -0.7688 -1.2739 0 -1.218 0.7008 -2.2828 1.8327 -3.359 0.7332 -0.697 1.5835 -1.3443 2.467 -2.017 0.4996 -0.3803 1.0098 -0.7688 1.5154 -1.1788 1.3563 -1.0999 2.6452 -2.3344 3.2556 -3.8553 0.6284 -1.5656 0.5081 -3.3502 -0.7638 -5.4597 -0.8794 -1.4584 -1.9622 -2.4124 -3.176 -2.9521 -1.2102 -0.5382 -2.5144 -0.6486 -3.815 -0.4812 -2.585 0.3329 -5.2235 1.7714 -7.2947 3.288 -4.389 3.2139 -8.4514 7.7793 -10.6181 10.6382 -0.5002 0.6599 -1.4402 0.7892 -2.0998 0.289 -0.6596 -0.5004 -0.789 -1.4411 -0.2888 -2.1011 2.2739 -3.0003 6.5365 -7.8047 11.2363 -11.2462l0.2447 -0.1791c2.8518 -2.087 6.3305 -4.6327 8.1521 -7.4847 0.9475 -1.4834 1.4795 -3.0975 1.2066 -4.8031 -0.2726 -1.70424 -1.3337 -3.40551 -3.3769 -5.09588Z" stroke-width="1"></path></g></svg>