<svg xmlns="http://www.w3.org/2000/svg" fill="none" viewBox="0 0 48 48" id="Pencil--Streamline-Plump"><desc>Pencil Streamline Icon: https://streamlinehq.com</desc><g id="Solid/Interface Essential/Edit/pencil--change-edit-modify-pencil-write-writing"><path id="Union" fill="#000000" fill-rule="evenodd" d="M36.6233 1.62763c-3.0851 -1.967637 -6.6707 -0.841626 -8.9374 1.42499l-1.6146 1.61457c0.4802 0.2344 1.0569 0.53995 1.7189 0.93298 2.0205 1.19957 4.8291 3.2101 8.1096 6.49063 3.2804 3.2805 5.2931 6.0911 6.4948 8.1136 0.3948 0.6645 0.7017 1.2432 0.937 1.7247l1.6155 -1.6155c2.2668 -2.2667 3.393 -5.8526 1.425 -8.9378 -0.9733 -1.52584 -2.3759 -3.35742 -4.3833 -5.36474 -2.0077 -2.00752 -3.8395 -3.41015 -5.3655 -4.38343ZM3.33008 27.4071 23.8014 6.93652c0.8633 0.31505 1.6692 0.77546 2.457 1.24314 1.8022 1.06995 4.4132 2.92574 7.5197 6.03224 3.1066 3.1066 4.9648 5.72 6.0371 7.5248 0.4649 0.7825 0.9289 1.601 1.2466 2.4616L20.5912 44.6679c-0.2592 -0.3697 -0.5468 -0.7718 -0.8616 -1.2011 -1.6361 -2.2311 -4.0187 -5.21 -7.0031 -8.1944 -2.98443 -2.9844 -5.96337 -5.367 -8.19445 -7.0031 -0.42964 -0.3151 -0.83204 -0.6028 -1.20197 -0.8622ZM0.76617 31.4203c0.073773 -0.6357 0.27691 -1.2226 0.57009 -1.7465 0.42452 0.2944 0.90202 0.6333 1.42211 1.0147 2.14392 1.5722 4.99832 3.8563 7.84723 6.7052 2.8489 2.849 5.133 5.7033 6.7052 7.8473 0.3811 0.5196 0.7198 0.9968 1.014 1.4211 -0.5238 0.2931 -1.1106 0.4961 -1.7462 0.5699 -1.9016 0.2207 -5.9443 0.485 -12.60076 -0.0268 -1.70032 -0.1308 -3.054097 -1.4845 -3.184854 -3.1848C0.281131 37.3644 0.545505 33.3218 0.76617 31.4203Z" clip-rule="evenodd" stroke-width="1"></path></g></svg>