<svg xmlns="http://www.w3.org/2000/svg" fill="none" viewBox="0 0 48 48">
  <g id="phone-call-ring-volume--phone-call-ring-volume-telephone">
    <path id="Union" fill="#000000" fill-rule="evenodd" d="M21.6627 1.19958c-1.7499 0.33107 -2.4595 2.01746 -2.1804 3.47473 0.6676 3.48722 1.9833 6.54299 2.8339 8.27689 0.7006 1.4281 2.6679 1.4281 3.3685 0 0.8505 -1.7339 2.1663 -4.78967 2.8339 -8.27689 0.279 -1.45727 -0.4305 -3.14366 -2.1804 -3.47473C25.7184 1.08232 24.9463 1 24.0004 1c-0.9458 0 -1.7179 0.08232 -2.3377 0.19958ZM44.2349 29.8731c-10.956 -10.9439 -28.5843 -11.1588 -39.80291 -0.6448 -0.05605 0.0422 -0.10943 0.0885 -0.15969 0.1387l-0.81099 0.8101c-3.948412 3.944 -3.948415 10.3393 0 14.2833l0.3463 0.3459c1.18052 1.1793 2.96014 1.5213 4.49387 0.8647l5.25402 -2.2492c1.8172 -0.7779 2.9967 -2.5635 2.9967 -4.5404v-3.7413c0 -0.0426 0.0112 -0.0756 0.0229 -0.096 0.0106 -0.0185 0.0193 -0.0238 0.0232 -0.0258 4.6101 -2.4597 10.1939 -2.4597 14.804 0 0.0039 0.002 0.0126 0.0073 0.0232 0.0258 0.0117 0.0204 0.0229 0.0534 0.0229 0.096v3.7413c0 1.9769 1.1795 3.7625 2.9967 4.5404l5.254 2.2492c1.5337 0.6566 3.3134 0.3146 4.4939 -0.8647l0.3463 -0.3459c3.9484 -3.944 3.9484 -10.3393 0 -14.2833l-0.3044 -0.304 -1.0601 1.0612 1.0601 -1.0612ZM40.1553 5.34926c-1.4714 -1.00324 -3.1656 -0.31254 -3.9988 0.9152 -1.9937 2.93795 -3.2241 6.02904 -3.8487 7.85654 -0.5144 1.5052 0.8767 2.8963 2.3819 2.3819 1.8274 -0.6246 4.9186 -1.855 7.8565 -3.8488 1.2277 -0.8331 1.9185 -2.5273 0.9152 -3.99877 -0.3553 -0.52115 -0.8431 -1.12532 -1.5119 -1.79416 -0.6688 -0.66883 -1.273 -1.15659 -1.7942 -1.51191Zm-32.31064 0c1.47145 -1.00324 3.16564 -0.31254 3.99884 0.9152 1.9937 2.93795 3.2241 6.02904 3.8487 7.85654 0.5144 1.5052 -0.8767 2.8963 -2.3819 2.3819 -1.8274 -0.6246 -4.91856 -1.855 -7.85651 -3.8488 -1.22774 -0.8331 -1.91844 -2.5273 -0.9152 -3.99877 0.35532 -0.52115 0.84308 -1.12532 1.51191 -1.79416 0.66884 -0.66883 1.27301 -1.15659 1.79416 -1.51191Z" clip-rule="evenodd" stroke-width="1"></path>
  </g>
</svg>