<svg xmlns="http://www.w3.org/2000/svg" fill="none" viewBox="0 0 48 48" id="Piano-Keys--Streamline-Plump"><desc>Piano Keys Streamline Icon: https://streamlinehq.com</desc><g id="Solid/Entertainment/Leisure/piano-keys"><path id="Union" fill="#000000" fill-rule="evenodd" d="M14.25 40.5947c-2.6358 -0.0904 -4.74071 -0.2087 -6.35225 -0.3227 -1.71462 -0.1213 -2.99912 -1.3756 -3.14729 -3.0437C4.50093 34.419 4.25 30.0819 4.25 24c0 -6.0819 0.25093 -10.419 0.50047 -13.2283 0.14816 -1.66809 1.43266 -2.92236 3.14729 -3.04366 0.77623 -0.05491 1.66693 -0.11083 2.67624 -0.16415 -0.0396 2.05862 -0.074 4.64931 -0.074 7.43791 0 4.5758 0.0927 8.3928 0.1491 10.292 0.0405 1.3663 0.9433 2.7656 2.5637 3.016 0.3008 0.0465 0.6458 0.089 1.0372 0.1221v12.1628Zm3.5 0.0947V28.4319c0.3914 -0.0331 0.7364 -0.0756 1.0371 -0.1221l-0.229 -1.4824 0.2291 1.4824c1.6204 -0.2504 2.5232 -1.6497 2.5637 -3.016 0.0564 -1.8992 0.1491 -5.7162 0.1491 -10.292 0 -2.9277 -0.0379 -5.63718 -0.08 -7.74195C22.2482 7.25343 23.1081 7.25 24 7.25c0.8919 0 1.7518 0.00343 2.58 0.00986 -0.0421 2.10476 -0.08 4.81424 -0.08 7.74194 0 4.5758 0.0927 8.3928 0.1491 10.292 0.0405 1.3663 0.9433 2.7656 2.5637 3.016l0.2291 -1.4824 -0.229 1.4824c0.3007 0.0465 0.6457 0.089 1.0371 0.1221v12.2575c-1.8771 0.038 -3.9576 0.0606 -6.25 0.0606s-4.3729 -0.0226 -6.25 -0.0606Zm16 -12.2575v12.1628c2.6358 -0.0904 4.7407 -0.2087 6.3522 -0.3227 1.7147 -0.1213 2.9992 -1.3756 3.1473 -3.0437 0.2496 -2.8093 0.5005 -7.1464 0.5005 -13.2283 0 -6.0819 -0.2509 -10.419 -0.5005 -13.2283 -0.1481 -1.66808 -1.4326 -2.92236 -3.1473 -3.04366 -0.7762 -0.05491 -1.6669 -0.11083 -2.6763 -0.16415 0.0397 2.05863 0.0741 4.64931 0.0741 7.43791 0 4.5758 -0.0927 8.3928 -0.1491 10.292 -0.0405 1.3663 -0.9433 2.7656 -2.5638 3.016 -0.3007 0.0465 -0.6457 0.089 -1.0371 0.1221ZM7.65078 43.7632C10.9927 43.9996 16.34 44.25 24 44.25c7.66 0 13.0073 -0.2504 16.3492 -0.4868 3.3848 -0.2394 6.0825 -2.8012 6.3866 -6.2252 0.2593 -2.9193 0.5142 -7.3601 0.5142 -13.538s-0.2549 -10.6187 -0.5142 -13.538c-0.3041 -3.42402 -3.0018 -5.98579 -6.3866 -6.22523C37.0073 4.00035 31.66 3.75 24 3.75s-13.0073 0.25035 -16.34922 0.48676C4.266 4.47621 1.56833 7.03798 1.26419 10.462 1.00489 13.3813 0.75 17.8221 0.75 24s0.25488 10.6187 0.51419 13.538c0.30413 3.424 3.0018 5.9858 6.38659 6.2252Z" clip-rule="evenodd" stroke-width="1"></path></g></svg>