<svg xmlns="http://www.w3.org/2000/svg" fill="none" viewBox="0 0 48 48" id="Pin-1--Streamline-Plump"><desc>Pin 1 Streamline Icon: https://streamlinehq.com</desc><g id="Solid/Interface Essential/Edit/pin-1--pin-push-thumbtack"><path id="Union" fill="#000000" fill-rule="evenodd" d="M27.5381 0.495365c-1.3886 -0.10708 -2.6892 0.411213 -3.6576 1.293495 -4.4342 4.04006 -5.7637 10.48374 -6.1788 13.76654 -0.0529 0.4188 -0.4914 0.829 -0.9785 0.8352 -1.9968 0.0254 -5.03 0.3371 -7.94682 1.7401 -2.4173 1.1627 -3.04139 4.0164 -1.84791 6.1742 1.26635 2.2896 3.54513 5.7567 7.29933 9.5114 3.7504 3.7509 7.2003 6.0148 9.4795 7.2702 2.1552 1.187 4.9952 0.5572 6.1553 -1.8482 1.4089 -2.9212 1.7217 -5.961 1.7471 -7.961 0.0062 -0.4871 0.4164 -0.9256 0.8353 -0.9786 3.2874 -0.4154 9.746 -1.7478 13.7847 -6.1988 0.8657 -0.954 1.3822 -2.2331 1.2851 -3.6045 -0.181 -2.5571 -1.3655 -7.4826 -6.9257 -13.04345C35.042 1.90412 30.1078 0.693525 27.5381 0.495365ZM40.5188 20.5323c-0.539 0.9641 -1.7576 1.3087 -2.7217 0.7697 -1.9107 -1.0683 -4.031 -2.6221 -6.2749 -4.8663 -2.1643 -2.1646 -3.6836 -4.2114 -4.743 -6.0655 -0.548 -0.95903 -0.2147 -2.18073 0.7443 -2.72871 0.9591 -0.54797 2.1808 -0.21473 2.7288 0.74433 0.8694 1.52162 2.1655 3.28838 4.0986 5.22168 2.0038 2.0041 3.8329 3.328 5.3982 4.2031 0.9641 0.539 1.3087 1.7575 0.7697 2.7217ZM12.1064 35.938c-1.2492 -1.2494 -2.34685 -2.4713 -3.30777 -3.6372 -2.04574 2.9025 -3.95681 5.674 -5.42223 7.9998 -1.03837 1.6481 -1.86563 3.092 -2.35792 4.21 -0.244838 0.5561 -0.419454 1.0592 -0.487082 1.4814 -0.062953 0.3929 -0.058166 0.8743 0.272674 1.2052 0.330768 0.3307 0.812018 0.3356 1.204918 0.2727 0.42204 -0.0676 0.92504 -0.2421 1.48089 -0.4868 1.11762 -0.492 2.56109 -1.3189 4.20861 -2.3569 2.32501 -1.4647 5.09551 -3.375 7.99711 -5.42 -1.1505 -0.9503 -2.3559 -2.0347 -3.5892 -3.2682Z" clip-rule="evenodd" stroke-width="1"></path></g></svg>