<svg xmlns="http://www.w3.org/2000/svg" fill="none" viewBox="0 0 48 48" id="Pinwheel--Streamline-Plump"><desc>Pinwheel Streamline Icon: https://streamlinehq.com</desc><g id="Solid/Interface Essential/Weather/pinwheel--windmill-velocity-weather-wind"><path id="Union" fill="#000000" fill-rule="evenodd" d="M35.9775 4.0692c1.7386 1.838 2.2778 4.4249 1.8523 6.9188 -0.2408 1.411 -0.5848 3.108 -1.0682 4.9129 -0.4245 1.5846 -1.8187 2.6916 -3.4499 2.8655l-3.9535 0.4216 3.2599 0.8734c3.156 0.8457 5.2748 1.5 6.6361 1.9568 1.2784 0.4291 2.0591 1.7098 1.5817 2.971 -0.7613 2.0112 -2.1483 3.6796 -3.4477 4.9088 -1.8379 1.7387 -4.4248 2.2779 -6.9188 1.8524 -1.411 -0.2408 -3.108 -0.5848 -4.913 -1.0683 -1.5844 -0.4244 -2.6914 -1.8184 -2.8655 -3.4495l-0.2901 -2.7173 -0.5415 2.0209c-0.8456 3.1561 -1.5 5.2749 -1.9568 6.6362 -0.4291 1.2784 -1.7097 2.0591 -2.9709 1.5817 -2.0111 -0.7614 -3.6795 -2.1483 -4.9088 -3.4477 -1.7387 -1.8378 -2.2779 -4.4248 -1.8523 -6.9188 0.2406 -1.4109 0.5846 -3.1078 1.068 -4.9126 0.4245 -1.5846 1.8187 -2.6916 3.45 -2.8655l3.953 -0.4216 -3.2596 -0.8734c-3.156 -0.8456 -5.2749 -1.5 -6.6361 -1.9568 -1.2785 -0.4291 -2.0591 -1.7097 -1.5817 -2.9709 0.7614 -2.0112 2.1482 -3.6796 3.4476 -4.9088 1.838 -1.7387 4.4249 -2.2779 6.9189 -1.8524 1.4093 0.2405 3.104 0.584 4.9066 1.0666 1.5851 0.4243 2.6924 1.819 2.8662 3.4506l0.2913 2.735 0.5461 -2.0384c0.8458 -3.156 1.5 -5.2748 1.9569 -6.6361 0.4291 -1.2785 1.7097 -2.0591 2.971 -1.5817 2.0111 0.7614 3.6795 2.1482 4.9088 3.4476Zm-7.5619 13.6166c0 2.3126 -1.8747 4.1872 -4.1873 4.1872 -2.3125 0 -4.1872 -1.8746 -4.1872 -4.1872 0 -2.3125 1.8747 -4.1872 4.1872 -4.1872 2.3126 0 4.1873 1.8747 4.1873 4.1872Zm-6.5269 16.153c-0.075 0.2236 -0.1678 0.4424 -0.2769 0.6538V44.903c0 1.4453 1.1717 2.617 2.6171 2.617s2.617 -1.1717 2.617 -2.617v-11.86c-1.3659 -0.328 -2.8282 -0.7351 -4.3079 -1.2386 -0.2462 0.8063 -0.4627 1.4787 -0.6493 2.0344Z" clip-rule="evenodd" stroke-width="1"></path></g></svg>