<svg xmlns="http://www.w3.org/2000/svg" fill="none" viewBox="0 0 48 48" id="Potted-Tree-2--Streamline-Plump"><desc>Potted Tree 2 Streamline Icon: https://streamlinehq.com</desc><g id="nature-ecology-potted-tree-2--tree-plant-pot"><path id="Union" fill="#000000" fill-rule="evenodd" d="M27.3028 5.20681C29.966 2.54365 33.3447 1.32275 36.45 0.816894 39.5555 0.311017 42.4558 0.50823 44.2555 0.739667 45.837 0.94303 47.057 2.163 47.2603 3.74446c0.2315 1.79976 0.4287 4.70007 -0.0772 7.80554 -0.5059 3.1053 -1.7267 6.484 -4.3899 9.1472 -3.0056 3.0056 -7.1168 4.2841 -10.8234 3.6417 0.3938 -0.7754 0.8209 -1.5221 1.2709 -2.2368 2.1298 -3.3829 4.6756 -5.8925 6.2766 -7.115 1.0974 -0.838 1.3076 -2.4069 0.4697 -3.5043 -0.0216 -0.0282 -0.0437 -0.0559 -0.0662 -0.083 -2.2663 1.5995 -5.524 4.5072 -8.2681 8.3123C28.7146 23.7862 26.5 28.6983 26.5 33.9998c0 0.0328 -0.0007 0.0655 -0.0019 0.098 0.0013 0.0758 0.0019 0.1517 0.0019 0.2276v0.1781c3.9168 0.0111 6.5766 0.0469 8.144 0.0758 1.218 0.0225 2.622 0.6356 2.8071 2.1101 0.0308 0.2452 0.0489 0.5151 0.0489 0.8106s-0.0181 0.5654 -0.0489 0.8106c-0.1364 1.0862 -0.949 1.7131 -1.8412 1.9693 -0.2209 1.1848 -0.522 2.6771 -0.8596 4.0109 -0.486 1.9204 -2.1806 3.0927 -4.1042 3.1418 -1.4439 0.0368 -3.5696 0.0674 -6.6461 0.0674s-5.2022 -0.0306 -6.6461 -0.0674c-1.9236 -0.0491 -3.6182 -1.2214 -4.1042 -3.1417 -0.3376 -1.3339 -0.6387 -2.8262 -0.8596 -4.011 -0.8922 -0.2562 -1.7048 -0.8831 -1.8412 -1.9693 -0.0308 -0.2452 -0.0489 -0.5151 -0.0489 -0.8106s0.0181 -0.5654 0.0489 -0.8106c0.1851 -1.4745 1.5891 -2.0876 2.8071 -2.1101 1.5674 -0.0289 4.2272 -0.0647 8.144 -0.0758v-0.1781c0 -3.3653 -2.0137 -7.0647 -5.0153 -10.5325 -2.6355 -3.045 -5.7644 -5.6014 -8.06579 -7.1782 -0.73809 1.1068 -0.47972 2.6092 0.60428 3.4027 1.42001 1.0395 3.49771 2.8623 5.39791 5.1151 -3.3355 0.9862 -7.24776 -0.0281 -10.01682 -2.7972 -2.28958 -2.2895 -3.29212 -5.2097 -3.683309 -7.8446C0.3296 11.8546 0.537834 9.42745 0.736908 8.02194 0.905907 6.82877 1.82877 5.90591 3.02194 5.73691c1.40551 -0.19908 3.83262 -0.40731 6.46875 -0.01594 2.63491 0.39119 5.55511 1.39373 7.84461 3.68331 2.9604 2.96042 3.9152 7.22752 2.564 10.69942 0.1228 0.138 0.2448 0.277 0.366 0.417 1.0773 1.2447 2.1258 2.611 3.0461 4.0708 0.5902 -1.535 1.2969 -2.9956 2.078 -4.3718 -3.1212 -4.3988 -2.3048 -10.79468 1.9134 -15.01289Z" clip-rule="evenodd" stroke-width="1"></path></g></svg>