<svg xmlns="http://www.w3.org/2000/svg" fill="none" viewBox="0 0 48 48" id="Praying-Hand--Streamline-Plump"><desc>Praying Hand Streamline Icon: https://streamlinehq.com</desc><g id="Solid/Interface Essential/Hand Gestures/praying-hand"><path id="Union" fill="#000000" fill-rule="evenodd" d="M15.784 0.8674c0.2186 -0.0157 0.4392 -0.0249 0.6567 -0.0249 0.0916 0 0.1829 0.0017 0.2736 0.0047 2.1604 0.0728 3.4598 2.0583 3.4984 4.024l0.1721 8.7573 -0.0003 -0.0008c-1.491 -0.0078 -2.7703 0.3281 -3.8479 0.9388 -1.4639 0.8295 -2.3971 2.0761 -2.9883 3.2781 -0.5885 1.1965 -0.8705 2.4117 -1.0089 3.3023 -0.07 0.4508 -0.1056 0.8327 -0.1235 1.1071 -0.0091 0.1374 -0.0137 0.2488 -0.0162 0.3294 -0.0012 0.0403 -0.0019 0.073 -0.0023 0.0974l-0.0003 0.0304 -0.0001 0.0105v0.0073c0 0.8737 0.7084 1.5821 1.5822 1.5821 0.8722 0 1.5795 -0.7057 1.5822 -1.5774l0.0001 -0.0064 0.0002 -0.0145 0.0008 -0.0331c0.0015 -0.0463 0.0044 -0.1206 0.0109 -0.2184 0.0129 -0.1964 0.0392 -0.4841 0.0928 -0.8284 0.1087 -0.6999 0.3213 -1.5778 0.7216 -2.3918 0.3977 -0.8087 0.9478 -1.4904 1.7088 -1.9216 0.5585 -0.3165 1.3204 -0.5492 2.3795 -0.5264 0.0362 0.0141 0.0726 0.0289 0.1089 0.0442 1.5866 0.668 2.3602 2.3444 2.3602 3.938v15.3748c0 1.5941 -0.5531 3.343 -2.1197 4.1881 -1.3863 0.7479 -3.1308 1.3072 -4.7838 1.716 -0.8651 -2.9594 -3.0379 -9.7909 -6.1818 -15.1833 -0.4261 -0.7307 -1.0678 -1.4229 -1.87 -1.928 0.1717 -1.272 0.387 -2.8013 0.6422 -4.4887 0.7209 -4.7662 1.7625 -10.8077 3.0427 -15.8756 0.4869 -1.9276 2.0233 -3.5615 4.1092 -3.7112Zm4.6624 15.9144 0.0004 -0.0009v0.001l-0.0004 -0.0001ZM32.2157 0.8674c-0.2186 -0.0157 -0.4393 -0.0249 -0.6567 -0.0249 -0.0916 0 -0.1829 0.0017 -0.2737 0.0047 -2.1604 0.0728 -3.4597 2.0583 -3.4983 4.024l-0.1722 8.7573 0.0003 -0.0008c1.4911 -0.0078 2.7704 0.3281 3.848 0.9388 1.4639 0.8295 2.3971 2.0761 2.9883 3.2781 0.5884 1.1965 0.8705 2.4117 1.0089 3.3023 0.07 0.4508 0.1055 0.8327 0.1235 1.1071 0.009 0.1374 0.0137 0.2488 0.0162 0.3294 0.0012 0.0403 0.0019 0.073 0.0022 0.0974l0.0003 0.0304 0.0002 0.0105v0.0073c0 0.8737 -0.7084 1.5821 -1.5822 1.5821 -0.8722 0 -1.5795 -0.7057 -1.5822 -1.5774l-0.0001 -0.0064c-0.0001 -0.0085 -0.0004 -0.0245 -0.001 -0.0476 -0.0015 -0.0463 -0.0045 -0.1206 -0.0109 -0.2184 -0.013 -0.1964 -0.0392 -0.4841 -0.0928 -0.8284 -0.1088 -0.6999 -0.3213 -1.5778 -0.7216 -2.3918 -0.3978 -0.8087 -0.9478 -1.4904 -1.7088 -1.9216 -0.5585 -0.3165 -1.3204 -0.5492 -2.3795 -0.5264 -0.0362 0.0141 -0.0726 0.0289 -0.109 0.0442 -1.5866 0.668 -2.3601 2.3444 -2.3601 3.938v15.3748c0 1.5941 0.5531 3.343 2.1196 4.1881 1.3863 0.7479 3.1308 1.3072 4.7839 1.716 0.8651 -2.9594 3.0378 -9.7909 6.1818 -15.1833 0.426 -0.7307 1.0678 -1.4229 1.8699 -1.928 -0.1717 -1.272 -0.387 -2.8013 -0.6421 -4.4887 -0.721 -4.7662 -1.7626 -10.8077 -3.0427 -15.8756 -0.4869 -1.9276 -2.0233 -3.5615 -4.1092 -3.7112Zm-4.6625 15.9144 -0.0003 -0.0009v0.001l0.0003 -0.0001Zm13.3205 11.6824c0.4527 -0.7764 1.3405 -1.3185 2.3153 -1.119 1.2767 0.2614 2.4459 0.8576 3.237 1.3367 0.8845 0.5355 1.2484 1.5672 1.034 2.5286 -1.3419 6.0216 -3.8975 12.0434 -5.0212 14.5356 -0.4168 0.9243 -1.3647 1.5389 -2.4237 1.3888 -1.0589 -0.15 -2.6033 -0.4961 -4.0602 -1.302 -0.981 -0.5427 -1.3074 -1.6896 -1.0213 -2.6786 0.8084 -2.794 2.9247 -9.5182 5.9401 -14.6901Zm-33.7474 0c-0.4527 -0.7764 -1.3405 -1.3185 -2.3154 -1.119 -1.2766 0.2614 -2.4458 0.8576 -3.2369 1.3367 -0.8845 0.5355 -1.2483 1.5672 -1.0341 2.5286 1.3421 6.0216 3.8975 12.0434 5.0213 14.5356 0.4168 0.9243 1.3647 1.5389 2.4237 1.3888 1.0588 -0.15 2.6033 -0.4961 4.0601 -1.302 0.9811 -0.5427 1.3074 -1.6896 1.0214 -2.6786 -0.8084 -2.794 -2.9247 -9.5182 -5.9401 -14.6901Z" clip-rule="evenodd" stroke-width="1"></path></g></svg>