<svg xmlns="http://www.w3.org/2000/svg" fill="none" viewBox="0 0 48 48" id="Presentation--Streamline-Plump"><desc>Presentation Streamline Icon: https://streamlinehq.com</desc><g id="Solid/Interface Essential/Presentation/presentation"><path id="Union" fill="#000000" fill-rule="evenodd" d="M7.43112 0.942452C10.416 0.72581 15.5515 0.5 24 0.5s13.584 0.22581 16.5689 0.442452c2.8685 0.208188 5.1864 2.270508 5.5142 5.214618 0.2226 1.99885 0.4169 4.87863 0.4169 8.84283 0 3.9643 -0.1943 6.8441 -0.4169 8.843 -0.3278 2.9441 -2.6458 5.0065 -5.5143 5.2147 -1.0283 0.0746 -2.3119 0.1503 -3.8983 0.2175 -0.1652 -0.6649 -0.3301 -1.2908 -0.484 -1.8543 -0.636 -2.3275 -2.3288 -4.4252 -4.8277 -5.238C32.3927 20.7175 33 18.9297 33 17c0 -4.9706 -4.0294 -9 -9 -9 -4.9705 0 -9 4.0294 -9 9 0 1.9297 0.6074 3.7176 1.6413 5.183 -2.4994 0.8132 -4.1923 2.9118 -4.828 5.24 -0.1537 0.5629 -0.3183 1.1881 -0.4832 1.8521 -1.58667 -0.0672 -2.87046 -0.1429 -3.89894 -0.2175 -2.8685 -0.2082 -5.18648 -2.2706 -5.51429 -5.2147C1.6943 21.844 1.5 18.9642 1.5 14.9999c0 -3.9642 0.1943 -6.84398 0.41686 -8.84283 0.32782 -2.94411 2.64578 -5.00643 5.51426 -5.214618ZM5.60159 36.0176C5.54077 36.43 5.5 36.9221 5.5 37.5s0.04077 1.07 0.10159 1.4824c0.24167 1.6386 1.68922 2.3996 2.91812 2.4195 0.43794 0.0071 1.0007 0.0154 1.69089 0.0242 0.4523 2.1221 0.8454 3.9227 1.0597 4.8987 0.1511 0.6885 0.7609 1.1752 1.4633 1.1752h22.5328c0.7024 0 1.3122 -0.4867 1.4633 -1.1752 0.2143 -0.976 0.6074 -2.7766 1.0597 -4.8987 0.6902 -0.0088 1.253 -0.0171 1.6909 -0.0242 1.2289 -0.0199 2.6764 -0.7809 2.9181 -2.4195 0.0608 -0.4124 0.1016 -0.9045 0.1016 -1.4824s-0.0408 -1.07 -0.1016 -1.4824c-0.2417 -1.6386 -1.6892 -2.3996 -2.9181 -2.4195C37.3565 33.5637 32.2972 33.5 24 33.5s-13.3565 0.0637 -15.48029 0.0981c-1.2289 0.0199 -2.67645 0.7809 -2.91812 2.4195ZM24 23c3.3137 0 6 -2.6863 6 -6s-2.6863 -6 -6 -6 -6 2.6863 -6 6 2.6863 6 6 6Zm-5.7489 1.8761c1.3572 -0.2025 3.2494 -0.3761 5.7491 -0.3761 2.5003 0 4.3928 0.1737 5.7499 0.3763 1.7699 0.2642 3.0708 1.609 3.5424 3.3352 0.2247 0.8225 0.4723 1.7781 0.7075 2.7885h-8.5v-3c0 -0.8284 -0.6716 -1.5 -1.5 -1.5s-1.5 0.6716 -1.5 1.5v3h-8.4995c0.2351 -1.0097 0.4824 -1.9647 0.7068 -2.7868 0.4716 -1.7272 1.773 -3.0728 3.5438 -3.3371Z" clip-rule="evenodd" stroke-width="1"></path></g></svg>