<svg xmlns="http://www.w3.org/2000/svg" fill="none" viewBox="0 0 48 48" id="Rain-Cloud--Streamline-Plump"><desc>Rain Cloud Streamline Icon: https://streamlinehq.com</desc><g id="rain-cloud--cloud-rain-rainy-meteorology-precipitation-weather"><path id="Union" fill="#000000" fill-rule="evenodd" d="M21.931 34.9982c-3.3106 -0.0099 -6.1071 -0.0655 -8.4527 -0.1455C6.16446 34.6033 0.5 29.5125 0.5 21.9998c0 -5.4091 2.96104 -9.6315 7.43585 -11.6173C9.43815 4.0798 14.686 0.0171951 21.6425 0.000191212c0.1181 -0.000288606 0.2372 -0.000435353 0.3575 -0.000435353 0.1203 0 0.2394 0.000146747 0.3575 0.000435233C26.1509 0.00946295 29.4758 1.21938 31.9614 3.41283c2.177 1.92112 3.6444 4.53926 4.2395 7.60307 3.1866 0.148 5.9512 1.309 7.9626 3.3204 2.1574 2.1574 3.3365 5.1816 3.3365 8.6635 0 3.3878 -1.116 6.3432 -3.1663 8.4893 -2.0152 2.1094 -4.8361 3.3352 -8.1039 3.4932 -0.0749 0.0115 -0.1517 0.0175 -0.2298 0.0175H22c-0.0231 0 -0.0461 -0.0006 -0.069 -0.0016Zm-10.6944 5.6197c0.6175 -1.235 0.1169 -2.7367 -1.118 -3.3542 -1.23496 -0.6174 -2.73665 -0.1169 -3.35412 1.1181l-3 6c-0.61747 1.2349 -0.11691 2.7366 1.11803 3.3541 1.23495 0.6175 2.73663 0.1169 3.35411 -1.118l2.99998 -6Zm9 0c0.6175 -1.235 0.1169 -2.7367 -1.118 -3.3542 -1.235 -0.6174 -2.7366 -0.1169 -3.3541 1.1181l-3 6c-0.6175 1.2349 -0.1169 2.7366 1.118 3.3541 1.235 0.6175 2.7366 0.1169 3.3541 -1.118l3 -6Zm9 0c0.6175 -1.235 0.1169 -2.7367 -1.118 -3.3542 -1.235 -0.6174 -2.7366 -0.1169 -3.3541 1.1181l-3 6c-0.6175 1.2349 -0.1169 2.7366 1.118 3.3541 1.235 0.6175 2.7366 0.1169 3.3541 -1.118l3 -6Zm9 0c0.6175 -1.235 0.1169 -2.7367 -1.118 -3.3542 -1.235 -0.6174 -2.7366 -0.1169 -3.3541 1.1181l-3 6c-0.6175 1.2349 -0.1169 2.7366 1.118 3.3541 1.235 0.6175 2.7366 0.1169 3.3541 -1.118l3 -6Z" clip-rule="evenodd" stroke-width="1"></path></g></svg>