<svg xmlns="http://www.w3.org/2000/svg" fill="none" viewBox="0 0 48 48" id="Razor-Cutter-Tool--Streamline-Plump"><desc>Razor Cutter Tool Streamline Icon: https://streamlinehq.com</desc><g id="Solid/Interface Essential/Image Audio Video/razor-cutter-tool"><path id="Subtract" fill="#000000" fill-rule="evenodd" d="M15.3444 3.03307c1.3516 -1.28446 3.4176 -1.43109 4.9388 -0.36324l0.2794 0.19615c0.5568 0.39091 1.2977 0.39564 1.8595 0.01188 1.3852 -0.94624 3.2482 -0.81164 4.476 0.35228 1.7824 1.68948 5.2983 5.05184 9.0572 8.81076 3.7589 3.7589 7.1213 7.2748 8.8108 9.0571 1.1639 1.2279 1.2985 3.0909 0.3522 4.4761 -0.3837 0.5618 -0.379 1.3026 0.0119 1.8595l0.1937 0.2759c1.0691 1.5229 0.9213 3.5909 -0.368 4.9422 -1.6938 1.7753 -4.5655 4.7739 -6.0508 6.2592 -1.891 1.891 -4.6155 4.4961 -6.2592 6.0581 -1.3516 1.2844 -3.4176 1.4311 -4.9387 0.3632l-0.2795 -0.1961c-0.5568 -0.3909 -1.2977 -0.3957 -1.8595 -0.0119 -1.3852 0.9462 -3.2481 0.8116 -4.476 -0.3523 -1.7823 -1.6895 -5.2983 -5.0518 -9.0572 -8.8107 -3.75889 -3.7589 -7.12124 -7.2749 -8.81072 -9.0572 -1.16392 -1.2279 -1.29852 -3.0908 -0.35229 -4.476 0.38377 -0.5618 0.37904 -1.3027 -0.01187 -1.8595l-0.19615 -0.2794c-1.06785 -1.5212 -0.92122 -3.5872 0.36324 -4.9388 1.56194 -1.6437 4.16697 -4.3681 6.05806 -6.25917 1.89113 -1.89109 4.61553 -4.49612 6.25913 -6.05806Zm4.2045 14.39853c0.4849 -1.1485 0.3765 -2.4522 -0.5016 -3.3302 -1.2292 -1.2292 -3.2925 -0.9502 -4.5962 0.3535 -1.3037 1.3038 -1.5827 3.367 -0.3535 4.5962 0.878 0.878 2.1815 0.9865 3.3299 0.5017l2.4762 2.4762c-0.9732 1.7513 -0.9645 3.9853 0.5578 5.5076s3.7563 1.531 5.5076 0.5578l2.476 2.476c-0.4848 1.1483 -0.3763 2.4519 0.5017 3.3299 1.2292 1.2292 3.2924 0.9502 4.5962 -0.3535 1.3037 -1.3038 1.5827 -3.367 0.3535 -4.5962 -0.8781 -0.8781 -2.1818 -0.9865 -3.3302 -0.5016l-2.4759 -2.476c0.9731 -1.7512 0.9644 -3.9852 -0.5579 -5.5075 -1.5222 -1.5223 -3.7562 -1.531 -5.5075 -0.5578l-2.4761 -2.4761Z" clip-rule="evenodd" stroke-width="1"></path></g></svg>