<svg xmlns="http://www.w3.org/2000/svg" fill="none" viewBox="0 0 48 48" id="Recycle-Bin-2--Streamline-Plump"><desc>Recycle Bin 2 Streamline Icon: https://streamlinehq.com</desc><g id="recycle-bin-2--remove-delete-empty-bin-trash-garbage"><path id="Union" fill="#000000" fill-rule="evenodd" d="M15.8636 6.09514C17.3559 3.01719 20.4954 1 24.0003 1c3.5048 0 6.6444 2.01718 8.1367 5.09515 3.5856 0.08467 6.3585 0.2085 8.0519 0.29735 1.4211 0.07456 2.9633 0.68745 3.7693 2.14119 0.3614 0.65169 0.724 1.48031 0.955 2.46071 0.0644 0.2735 0.0868 0.5408 0.0868 0.788 0 1.9411 -1.4562 3.5947 -3.4361 3.7349 -2.9259 0.2072 -8.5174 0.4827 -17.5631 0.4827 -9.0462 0 -14.63845 -0.2756 -17.56467 -0.4827C4.45617 15.3771 3 13.7235 3 11.7824c0 -0.2472 0.02236 -0.5145 0.08682 -0.788 0.23102 -0.9804 0.59362 -1.80901 0.95495 -2.46071 0.80602 -1.45374 2.34822 -2.06663 3.76932 -2.14119 1.69351 -0.08886 4.46661 -0.2127 8.05251 -0.29736ZM7.13791 18.0605c-0.27871 -0.0183 -0.5524 0.0807 -0.7548 0.2732 -0.2024 0.1925 -0.31506 0.4609 -0.31072 0.7402 0.13705 8.821 0.44131 16.3634 0.66456 21.0143 0.16171 3.369 2.73964 6.1205 6.12635 6.4038 3.0216 0.2528 7.0761 0.508 11.1379 0.508 4.0614 0 8.1151 -0.2551 11.1362 -0.5079 3.3866 -0.2834 5.9644 -3.0348 6.1261 -6.4037 0.2233 -4.651 0.5275 -12.1933 0.6646 -21.0145 0.0043 -0.2793 -0.1083 -0.5476 -0.3107 -0.7401 -0.2024 -0.1925 -0.4761 -0.2916 -0.7548 -0.2733 -3.0068 0.1979 -8.4096 0.4395 -16.8615 0.4395 -8.4525 0 -13.856 -0.2417 -16.86319 -0.4395Zm10.81239 5.4403c0.8279 -0.0276 1.5215 0.6213 1.5491 1.4492l0.5 15c0.0276 0.828 -0.6212 1.5216 -1.4492 1.5492 -0.828 0.0276 -1.5215 -0.6213 -1.5491 -1.4492l-0.5 -15c-0.0276 -0.828 0.6212 -1.5216 1.4492 -1.5492Zm12.0999 0c0.828 0.0276 1.4768 0.7212 1.4492 1.5492l-0.5 15c-0.0276 0.8279 -0.7212 1.4768 -1.5491 1.4492 -0.828 -0.0276 -1.4768 -0.7212 -1.4492 -1.5492l0.5 -15c0.0276 -0.8279 0.7211 -1.4768 1.5491 -1.4492Z" clip-rule="evenodd" stroke-width="1"></path></g></svg>