<svg xmlns="http://www.w3.org/2000/svg" fill="none" viewBox="0 0 48 48" id="Ringing-Bell-Notification--Streamline-Plump"><desc>Ringing Bell Notification Streamline Icon: https://streamlinehq.com</desc><g id="Solid/Interface Essential/Alerts/ringing-bell-notification--notification-vibrate-ring-sound-alarm-alert-bell-noise"><path id="Union" fill="#000000" fill-rule="evenodd" d="M10.1029 4.07907c0.8721 -0.88521 0.8615 -2.30979 -0.0237 -3.181888C9.19395 0.0250835 7.76937 0.035715 6.89727 0.920927 3.1464 4.72821 0.688521 10.1988 0.255659 16.3419c-0.087344 1.2395 0.846721 2.3152 2.086281 2.4025 1.23957 0.0874 2.31525 -0.8467 2.40259 -2.0862 0.36356 -5.1596 2.41889 -9.59543 5.35837 -12.57913ZM37.921 0.897182c0.8852 -0.8720985 2.3098 -0.861467 3.1819 0.023745C44.8538 4.72821 47.3117 10.1988 47.7445 16.3419c0.0874 1.2395 -0.8467 2.3152 -2.0863 2.4025 -1.2395 0.0874 -2.3152 -0.8467 -2.4025 -2.0862 -0.3636 -5.1596 -2.4189 -9.59543 -5.3584 -12.57913 -0.8721 -0.88521 -0.8615 -2.30979 0.0237 -3.181888ZM7.35823 15.8301C8.07021 7.16763 15.3084 0.5 24 0.5c8.6917 0 15.9298 6.66763 16.6418 15.3301l0.5387 6.5547c0.1873 2.279 0.911 4.4814 2.1119 6.4273l1.877 3.0415c0.7898 1.2797 1.0893 2.784 0.5923 4.1402 -0.5186 1.4149 -1.7788 2.3273 -3.3837 2.5715 -3.1762 0.4833 -8.7164 0.9347 -18.378 0.9347 -9.6615 0 -15.2018 -0.4514 -18.37795 -0.9347 -1.60495 -0.2442 -2.86514 -1.1566 -3.38371 -2.5715 -0.49706 -1.3562 -0.19757 -2.8605 0.59223 -4.1402l1.877 -3.0414c1.20093 -1.946 1.9246 -4.1484 2.11192 -6.4274l0.53874 -6.5547ZM24.0004 42.4998c-3.267 0 -6.0805 -0.0511 -8.5049 -0.1385 1.5576 3.1193 4.7808 5.2616 8.5044 5.2616 3.7235 0 6.9468 -2.1423 8.5044 -5.2615 -2.4243 0.0873 -5.2374 0.1384 -8.5039 0.1384Z" clip-rule="evenodd" stroke-width="1"></path></g></svg>