<svg xmlns="http://www.w3.org/2000/svg" fill="none" viewBox="0 0 48 48" id="Ring--Streamline-Plump"><desc>Ring Streamline Icon: https://streamlinehq.com</desc><g id="Solid/Money Shopping/Jewelry/ring--money-diamond-payment-wealth-finance-ring-accessories-shopping-fashion"><path id="Union" fill="#000000" fill-rule="evenodd" d="M38.3711 1.55844C37.6057 0.792984 36.4872 0.499275 35.4444 0.789885L30.9138 2.05252c-1.2793 0.35653 -2.172 1.51174 -2.1942 2.83961l-0.11 6.56317c3.3409 1.8337 6.1013 4.594 7.9351 7.9348l6.5629 -0.11c1.3278 -0.0222 2.4831 -0.9149 2.8396 -2.1942l1.2626 -4.5306c0.2906 -1.0428 -0.0031 -2.1613 -0.7685 -2.92671l-8.0702 -8.07015ZM19 10.5C8.78274 10.5 0.5 18.7827 0.5 29S8.78274 47.5 19 47.5c10.2173 0 18.5 -8.2827 18.5 -18.5S29.2173 10.5 19 10.5ZM6.5 29c0 -6.9036 5.5964 -12.5 12.5 -12.5S31.5 22.0964 31.5 29 25.9036 41.5 19 41.5 6.5 35.9036 6.5 29Z" clip-rule="evenodd" stroke-width="1"></path></g></svg>