<svg xmlns="http://www.w3.org/2000/svg" fill="none" viewBox="0 0 48 48" id="Running--Streamline-Plump"><desc>Running Streamline Icon: https://streamlinehq.com</desc><path fill="#000000" fill-rule="evenodd" d="M13.6152 16.026c-1.5603 -0.14 -2.7645 -1.444 -2.7645 -3.0105l0 -1.5097c0 -1.2957 0.9887 -2.37282 2.2826 -2.44129 1.0895 -0.05766 2.4926 -0.1131 4.0369 -0.12792 4.4699 -0.04289 8.7722 1.66741 11.9383 4.82311 0.5449 0.5432 1.0527 1.0682 1.5182 1.5631 2.1872 2.3252 5.0549 4.0368 8.2472 4.0436 1.1645 0.0025 2.2495 -0.0324 3.1654 -0.0784 1.4866 -0.0747 2.7804 1.0949 2.7804 2.5833l0 1.4124c0 1.389 -0.9516 2.6127 -2.324 2.8265 -4.3657 0.6804 -8.8535 0.3816 -13.0168 -1.0062l-0.8627 2.1573c-0.1425 0.3565 -0.0652 0.7633 0.1851 1.0543 4.313 5.0134 3.8109 9.5189 3.1718 15.2526 -0.0232 0.2088 -0.0467 0.4192 -0.0701 0.6313 -0.1418 1.2855 -1.223 2.2731 -2.5164 2.2731l-1.7908 0c-1.3807 0 -2.4915 -1.1196 -2.4234 -2.4986 0.0079 -0.1597 0.0159 -0.3193 0.024 -0.4787 0.2148 -4.2365 0.4218 -8.3203 -3.3882 -11.179 -5.9348 3.8756 -10.0839 4.2527 -16.47749 3.4841 -1.23535 -0.1486 -2.15045 -1.2098 -2.15045 -2.4541l0 -1.7633c0 -1.4353 1.21082 -2.5622 2.64603 -2.5651 8.26161 -0.0167 10.20161 -2.9185 15.14441 -10.7968 0.3888 -0.6196 0.0056 -1.438 -0.721 -1.5221 -2.4122 -0.2791 -4.8474 -0.5127 -6.6345 -0.673Zm21.2907 -2.1687c3.6311 0 6.5746 -2.9436 6.5746 -6.57464 0 -3.63108 -2.9435 -6.574652 -6.5746 -6.574653 -3.6311 0 -6.5747 2.943573 -6.5747 6.574653 0 3.63104 2.9436 6.57464 6.5747 6.57464Z" clip-rule="evenodd" stroke-width="1"></path></svg>