<svg xmlns="http://www.w3.org/2000/svg" fill="none" viewBox="0 0 48 48" id="Scanner--Streamline-Plump"><desc>Scanner Streamline Icon: https://streamlinehq.com</desc><g id="money-cashier-scanner-2--codes-tags-upc-barcode-qr"><path id="Union" fill="#000000" fill-rule="evenodd" d="M16.4989 3.92401c0.0419 1.38007 -1.0428 2.53288 -2.4229 2.57486l-6.31073 0.19196c-0.5816 0.04662 -1.02749 0.49252 -1.07416 1.07394l-0.19225 6.31133c-0.04203 1.3801 -1.19488 2.4648 -2.57495 2.4228 -1.38007 -0.0421 -2.46476 -1.1949 -2.42273 -2.575l0.19363 -6.35679c0.00073 -0.02389 0.0018 -0.04777 0.00321 -0.07163 0.18542 -3.13208 2.66646 -5.61262 5.79837 -5.79775 0.02382 -0.00141 0.04766 -0.00248 0.07151 -0.0032l6.3561 -0.19335c1.3801 -0.04198 2.5329 1.04276 2.5749 2.42283ZM33.924 6.49887c-1.3801 -0.04198 -2.4648 -1.19479 -2.4228 -2.57486 0.042 -1.38007 1.1948 -2.46481 2.5748 -2.42283l6.3561 0.19335c0.0239 0.00072 0.0477 0.00179 0.0716 0.0032 3.1319 0.18513 5.6129 2.66567 5.7983 5.79775 0.0014 0.02386 0.0025 0.04774 0.0032 0.07163l0.1937 6.35679c0.042 1.3801 -1.0427 2.5329 -2.4228 2.575 -1.38 0.042 -2.5329 -1.0427 -2.5749 -2.4228l-0.1923 -6.31133c-0.0466 -0.58142 -0.4925 -1.02732 -1.0741 -1.07394l-6.3108 -0.19196ZM46.4989 34.0761c0.042 -1.38 -1.0427 -2.5329 -2.4228 -2.5749 -1.38 -0.0421 -2.5329 1.0426 -2.5749 2.4227l-0.1923 6.3114c-0.0466 0.5814 -0.4925 1.0273 -1.0741 1.0739l-6.3108 0.192c-1.3801 0.042 -2.4648 1.1948 -2.4228 2.5748 0.042 1.3801 1.1948 2.4648 2.5748 2.4229l6.3561 -0.1934c0.0239 -0.0007 0.0477 -0.0018 0.0716 -0.0032 3.1319 -0.1851 5.6129 -2.6657 5.7983 -5.7977l0.0014 -0.0244 0.001 -0.0222 0.0008 -0.0251 0.1937 -6.3568Zm-44.99772 0c-0.04203 -1.38 1.04266 -2.5329 2.42273 -2.5749 1.38007 -0.0421 2.53292 1.0426 2.57495 2.4227l0.19225 6.3114c0.04667 0.5814 0.49256 1.0273 1.07417 1.0739l6.31072 0.192c1.3801 0.042 2.4648 1.1948 2.4229 2.5748 -0.042 1.3801 -1.1948 2.4648 -2.5749 2.4229l-6.35609 -0.1934c-0.02386 -0.0007 -0.0477 -0.0018 -0.07152 -0.0032 -3.1319 -0.1851 -5.61295 -2.6657 -5.79837 -5.7977 -0.00141 -0.0239 -0.00248 -0.0478 -0.00321 -0.0717l-0.19363 -6.3568Zm45.94072 -8.8345c0.0355 -0.3522 0.0581 -0.7641 0.0581 -1.2416 0 -0.482 -0.0231 -0.8965 -0.0591 -1.2501 -0.1331 -1.3065 -1.2549 -2.0229 -2.4222 -2.0607C42.6303 20.612 36.9384 20.5 24 20.5c-12.9084 0 -18.60357 0.1072 -21.00138 0.1814 -1.17801 0.0365 -2.308072 0.7606 -2.440541 2.077C0.52264 23.1106 0.5 23.5225 0.5 24c0 0.4775 0.02264 0.8894 0.058079 1.2416 0.132469 1.3164 1.262531 2.0405 2.440541 2.077C5.39643 27.3929 11.0916 27.5 24 27.5s18.6036 -0.1072 21.0014 -0.1814c1.178 -0.0365 2.3081 -0.7606 2.4405 -2.077Z" clip-rule="evenodd" stroke-width="1"></path></g></svg>