<svg xmlns="http://www.w3.org/2000/svg" fill="none" viewBox="0 0 48 48" id="Scissors--Streamline-Plump"><desc>Scissors Streamline Icon: https://streamlinehq.com</desc><g id="Solid/Interface Essential/Select Copy/scissors--clipboard-copy-cut-paste-right-scissors"><path id="Union" fill="#000000" fill-rule="evenodd" d="M11 3.5c-5.24671 0 -9.5 4.25329 -9.5 9.5 0 3.1709 1.55405 5.9789 3.93988 7.7037 1.09435 0.8915 2.79946 2.0358 4.85002 3.2963 -2.05056 1.2605 -3.75567 2.4048 -4.85003 3.2963C3.05405 29.0211 1.5 31.8291 1.5 35c0 5.2467 4.25329 9.5 9.5 9.5 5.2467 0 9.5 -4.2533 9.5 -9.5 0 -1.8855 -0.5495 -3.6429 -1.4967 -5.1204 1.5568 0.8424 3.6874 1.9623 6.0006 3.0828 2.3235 1.1254 4.8387 2.2551 7.1454 3.1044 2.2895 0.8431 4.4333 1.4332 5.9907 1.4332 4.5207 0 6.8309 -2.6331 7.7758 -4.137 0.5162 -0.8215 0.0138 -1.7659 -0.8109 -2.0125 -3.0673 -0.9169 -12.4037 -3.8002 -20.8311 -7.3505 8.4514 -3.5605 17.817 -6.4501 20.8572 -7.3583 0.8104 -0.2422 1.3162 -1.1634 0.8223 -1.9833C45.0434 13.1483 42.7741 10.5 38.14 10.5c-1.5574 0 -3.7012 0.5901 -5.9907 1.4332 -2.3067 0.8493 -4.8219 1.979 -7.1454 3.1044 -2.3132 1.1205 -4.4438 2.2404 -6.0006 3.0828C19.9505 16.6429 20.5 14.8855 20.5 13c0 -5.24671 -4.2533 -9.5 -9.5 -9.5ZM8.5 13c0 -1.3807 1.11929 -2.5 2.5 -2.5 1.3807 0 2.5 1.1193 2.5 2.5s-1.1193 2.5 -2.5 2.5c-1.38071 0 -2.5 -1.1193 -2.5 -2.5Zm0 22c0 -1.3807 1.11929 -2.5 2.5 -2.5 1.3807 0 2.5 1.1193 2.5 2.5s-1.1193 2.5 -2.5 2.5c-1.38071 0 -2.5 -1.1193 -2.5 -2.5Z" clip-rule="evenodd" stroke-width="1"></path></g></svg>