<svg xmlns="http://www.w3.org/2000/svg" fill="none" viewBox="0 0 48 48" id="Screenshot--Streamline-Plump"><desc>Screenshot Streamline Icon: https://streamlinehq.com</desc><g id="Solid/Interface Essential/Image Audio Video/screenshot"><path id="Union" fill="#000000" fill-rule="evenodd" d="M16.4989 3.92401c0.0419 1.38007 -1.0428 2.53288 -2.4229 2.57486l-6.31073 0.19196c-0.5816 0.04662 -1.02749 0.49252 -1.07416 1.07394l-0.19225 6.31133c-0.04203 1.3801 -1.19488 2.4648 -2.57495 2.4228 -1.38007 -0.0421 -2.46476 -1.1949 -2.42273 -2.575l0.19363 -6.35679c0.00073 -0.02389 0.0018 -0.04777 0.00321 -0.07163 0.18542 -3.13208 2.66646 -5.61262 5.79837 -5.79775 0.02382 -0.00141 0.04766 -0.00248 0.07151 -0.0032l6.3561 -0.19335c1.3801 -0.04198 2.5329 1.04276 2.5749 2.42283ZM33.924 6.49887c-1.3801 -0.04198 -2.4648 -1.19479 -2.4228 -2.57486 0.042 -1.38007 1.1948 -2.46481 2.5748 -2.42283l6.3561 0.19335c0.0239 0.00072 0.0477 0.00179 0.0716 0.0032 3.1319 0.18513 5.6129 2.66567 5.7983 5.79775 0.0014 0.02386 0.0025 0.04774 0.0032 0.07163l0.1937 6.35679c0.042 1.3801 -1.0427 2.5329 -2.4228 2.575 -1.38 0.042 -2.5329 -1.0427 -2.5749 -2.4228l-0.1923 -6.31133c-0.0466 -0.58142 -0.4925 -1.02732 -1.0741 -1.07394l-6.3108 -0.19196ZM46.4989 34.0761c0.042 -1.38 -1.0427 -2.5329 -2.4228 -2.5749 -1.38 -0.0421 -2.5329 1.0426 -2.5749 2.4227l-0.1923 6.3114c-0.0466 0.5814 -0.4925 1.0273 -1.0741 1.0739l-6.3108 0.192c-1.3801 0.042 -2.4648 1.1948 -2.4228 2.5748 0.042 1.3801 1.1948 2.4648 2.5748 2.4229l6.3561 -0.1934c0.0239 -0.0007 0.0477 -0.0018 0.0716 -0.0032 3.1319 -0.1851 5.6129 -2.6657 5.7983 -5.7977l0.0014 -0.0244 0.001 -0.0222 0.0008 -0.0251 0.1937 -6.3568Zm-44.99772 0c-0.04203 -1.38 1.04266 -2.5329 2.42273 -2.5749 1.38007 -0.0421 2.53292 1.0426 2.57495 2.4227l0.19225 6.3114c0.04667 0.5814 0.49256 1.0273 1.07417 1.0739l6.31072 0.192c1.3801 0.042 2.4648 1.1948 2.4229 2.5748 -0.042 1.3801 -1.1948 2.4648 -2.5749 2.4229l-6.35609 -0.1934c-0.02386 -0.0007 -0.0477 -0.0018 -0.07152 -0.0032 -3.1319 -0.1851 -5.61295 -2.6657 -5.79837 -5.7977 -0.00141 -0.0239 -0.00248 -0.0478 -0.00321 -0.0717l-0.19363 -6.3568ZM21.2943 9.5931C22.0174 9.54128 22.9293 9.5 24 9.5c1.0707 0 1.9826 0.04128 2.7057 0.0931 1.7501 0.12545 3.1219 1.3283 3.6568 2.8717l0.3995 1.1529c1.0147 0.0377 1.8957 0.081 2.6432 0.1244 2.5461 0.1477 4.5835 2.1036 4.8041 4.6583 0.1489 1.7251 0.2907 4.0385 0.2907 6.5996 0 2.5611 -0.1418 4.8745 -0.2907 6.5996 -0.2206 2.5547 -2.258 4.5106 -4.8041 4.6583 -2.09 0.1212 -5.2227 0.2421 -9.4052 0.2421 -4.1825 0 -7.3152 -0.1209 -9.4052 -0.2421 -2.5461 -0.1477 -4.5836 -2.1036 -4.8041 -4.6583C9.64177 29.8745 9.5 27.5611 9.5 25c0 -2.5611 0.14177 -4.8745 0.2907 -6.5996 0.2206 -2.5547 2.258 -4.5106 4.8041 -4.6583 0.7475 -0.0434 1.6285 -0.0867 2.6432 -0.1244l0.3995 -1.1529c0.5349 -1.5434 1.9067 -2.74625 3.6568 -2.8717ZM18.5 25c0 -3.0376 2.4624 -5.5 5.5 -5.5s5.5 2.4624 5.5 5.5 -2.4624 5.5 -5.5 5.5 -5.5 -2.4624 -5.5 -5.5Z" clip-rule="evenodd" stroke-width="1"></path></g></svg>