<svg xmlns="http://www.w3.org/2000/svg" fill="none" viewBox="0 0 48 48"><g id="search-quick-action--search-quick-action-flash-magnifier-find"><path id="Union" fill="#000000" fill-rule="evenodd" d="M1.5 21.8844C1.5 10.6266 10.6219 1.5 21.8748 1.5s20.3747 9.1266 20.3747 20.3844c0 3.9708 -1.1353 7.6778 -3.0991 10.812 0.2967 0.2471 0.5928 0.4927 0.8885 0.7379l0.0052 0.0043 0.0011 0.0009 0.0049 0.0041c1.634 1.3554 3.256 2.7007 4.858 4.1863 1.9233 1.7835 2.1885 4.5573 0.3196 6.4904 -0.1713 0.1773 -0.3539 0.3631 -0.5485 0.5578 -0.1945 0.1947 -0.3802 0.3774 -0.5573 0.5489 -1.932 1.8705 -4.7045 1.6048 -6.4868 -0.3199 -1.4844 -1.603 -2.8287 -3.226 -4.183 -4.861l0 -0.0001 -0.0001 0 -0.0001 -0.0001 0 -0.0001 -0.0064 -0.0077 -0.002 -0.0024c-0.244 -0.2946 -0.4882 -0.5894 -0.7339 -0.885 -3.1387 1.9754 -6.8541 3.1181 -10.8348 3.1181C10.6219 42.2688 1.5 33.1422 1.5 21.8844ZM6.5 22c0 -8.5604 6.9396 -15.5 15.5 -15.5S37.5 13.4396 37.5 22 30.5604 37.5 22 37.5 6.5 30.5604 6.5 22Zm16.4253 -11.9398c1.2149 -1.13885 3.1181 -0.17921 3.0296 1.4242 -0.1659 3.0049 -0.3692 5.4853 -0.5665 7.4561 2.1451 0.3211 3.8003 0.6731 4.8336 0.9183 1.2925 0.3067 1.7928 1.8252 0.9809 2.8474 -1.6357 2.0597 -5.7504 7.0835 -10.1283 11.1873 -1.2149 1.1388 -3.118 0.1792 -3.0295 -1.4242 0.1658 -3.0049 0.3692 -5.4853 0.5664 -7.4562 -2.1451 -0.321 -3.8002 -0.673 -4.8336 -0.9183 -1.2924 -0.3067 -1.7927 -1.8251 -0.9809 -2.8473 1.6358 -2.0597 5.7505 -7.0835 10.1283 -11.1873Z" clip-rule="evenodd" stroke-width="1"></path></g></svg>