<svg xmlns="http://www.w3.org/2000/svg" fill="none" viewBox="0 0 48 48" id="Search-Setting--Streamline-Plump"><desc>Search Setting Streamline Icon: https://streamlinehq.com</desc><g id="Solid/Interface Essential/Search/search-setting--search-setting-magnifier-cog"><path id="Union" fill="#000000" fill-rule="evenodd" d="M22 1.5C10.6782 1.5 1.5 10.6782 1.5 22S10.6782 42.5 22 42.5c4.0021 0 7.7363 -1.1468 10.892 -3.1298 0.1684 0.203 0.3363 0.4057 0.5041 0.6081l0.0553 0.0668c1.3545 1.6354 2.6991 3.2587 4.1837 4.862 1.7823 1.9247 4.5548 2.1903 6.4868 0.3198 0.1771 -0.1715 0.3628 -0.3542 0.5574 -0.5489 0.1945 -0.1946 0.3771 -0.3805 0.5485 -0.5577 1.8689 -1.9331 1.6036 -4.707 -0.3196 -6.4904 -1.6022 -1.4857 -3.2244 -2.8313 -4.8586 -4.1868l-0.0667 -0.0553c-0.2022 -0.1677 -0.4047 -0.3357 -0.6074 -0.5042C41.3552 29.7297 42.5 25.9985 42.5 22c0 -11.3218 -9.1782 -20.5 -20.5 -20.5Zm0 5C13.4396 6.5 6.5 13.4396 6.5 22S13.4396 37.5 22 37.5 37.5 30.5604 37.5 22 30.5604 6.5 22 6.5Zm-0.001 3.5c-1.192 0 -1.9814 0.2007 -2.4773 0.4082 -0.5592 0.2339 -0.8754 0.6879 -1.0473 1.0549 -0.0985 0.2103 -0.228 0.4946 -0.3657 0.8176 -0.1936 0.4546 -0.5707 0.8559 -1.0655 1.1424 -0.4917 0.2846 -1.0212 0.4081 -1.515 0.3481 -0.3488 -0.0424 -0.66 -0.0723 -0.8915 -0.0922 -0.4038 -0.0346 -0.955 0.0122 -1.4373 0.3795 -0.4275 0.3257 -0.9961 0.9091 -1.5921 1.9413 -0.5959 1.0323 -0.8168 1.8163 -0.8851 2.3495 -0.077 0.6013 0.158 1.1021 0.3899 1.4344 0.1328 0.1903 0.314 0.4444 0.5248 0.7248 0.2987 0.3976 0.4577 0.9221 0.4577 1.4918 0 0.5692 -0.1589 1.0934 -0.4575 1.4907 -0.2111 0.2809 -0.3926 0.5353 -0.5255 0.7258 -0.2319 0.3324 -0.4669 0.8332 -0.3899 1.4345 0.0683 0.5331 0.2892 1.3172 0.8852 2.3494 0.5959 1.0322 1.1645 1.6156 1.592 1.9413 0.4823 0.3673 1.0335 0.4142 1.4373 0.3795 0.2315 -0.0198 0.5428 -0.0498 0.8917 -0.0922 0.4939 -0.06 1.0236 0.0635 1.5154 0.3482 0.4949 0.2865 0.8721 0.6879 1.0657 1.1425 0.1375 0.3228 0.267 0.6068 0.3654 0.8169 0.1719 0.367 0.4881 0.821 1.0473 1.055 0.4959 0.2074 1.2853 0.4081 2.4773 0.4081 1.1919 0 1.9814 -0.2007 2.4772 -0.4081 0.5593 -0.234 0.8754 -0.688 1.0473 -1.055 0.0983 -0.2098 0.2276 -0.4934 0.3649 -0.8156 0.1939 -0.4552 0.5716 -0.857 1.067 -1.1439 0.4925 -0.2851 1.0228 -0.4088 1.5174 -0.3488 0.3483 0.0424 0.6591 0.0723 0.8903 0.0921 0.4038 0.0346 0.955 -0.0122 1.4373 -0.3795 0.4275 -0.3257 0.9961 -0.9091 1.5921 -1.9413 0.5959 -1.0323 0.8168 -1.8163 0.8851 -2.3495 0.077 -0.6013 -0.158 -1.102 -0.3899 -1.4344 -0.1332 -0.191 -0.3153 -0.4461 -0.5269 -0.7277 -0.2981 -0.3966 -0.4569 -0.9198 -0.4569 -1.488 0 -0.5695 0.159 -1.0939 0.4577 -1.4914 0.2107 -0.2804 0.3919 -0.5345 0.5247 -0.7248 0.2319 -0.3323 0.4669 -0.8331 0.3899 -1.4344 -0.0683 -0.5331 -0.2892 -1.3172 -0.8851 -2.3494 -0.596 -1.0323 -1.1646 -1.6156 -1.5921 -1.9413 -0.4823 -0.3674 -1.0335 -0.4142 -1.4373 -0.3796 -0.2312 0.0199 -0.5419 0.0498 -0.8902 0.0921 -0.4942 0.06 -1.0241 -0.0636 -1.5162 -0.3485 -0.4952 -0.2867 -0.8727 -0.6883 -1.0665 -1.1433 -0.1375 -0.3226 -0.2669 -0.6065 -0.3653 -0.8166 -0.1719 -0.367 -0.488 -0.821 -1.0473 -1.0549C23.9804 10.2007 23.1909 10 21.999 10Zm3.7801 11.9973c0 2.1867 -1.7726 3.9593 -3.9593 3.9593 -2.1866 0 -3.9592 -1.7726 -3.9592 -3.9593 0 -2.1866 1.7726 -3.9592 3.9592 -3.9592 2.1867 0 3.9593 1.7726 3.9593 3.9592Z" clip-rule="evenodd" stroke-width="1"></path></g></svg>