<svg xmlns="http://www.w3.org/2000/svg" fill="none" viewBox="0 0 48 48"><g id="search-saved-results--search-saved-results-frequently-magnifier"><path id="Union" fill="#000000" fill-rule="evenodd" d="M21.8748 1.5C10.6219 1.5 1.5 10.6266 1.5 21.8844s9.1219 20.3844 20.3748 20.3844c3.9807 0 7.6961 -1.1427 10.8348 -3.1181 0.2457 0.2956 0.4899 0.5904 0.7339 0.885l0.002 0.0024 0.0064 0.0077 0 0.0001 0.0001 0.0001 0.0001 0c1.3542 1.6351 2.6986 3.2581 4.183 4.8611 1.7823 1.9247 4.5548 2.1904 6.4868 0.3199 0.1771 -0.1715 0.3628 -0.3542 0.5573 -0.5489 0.1946 -0.1947 0.3772 -0.3805 0.5485 -0.5578 1.8689 -1.9331 1.6037 -4.7069 -0.3196 -6.4904 -1.602 -1.4856 -3.224 -2.8309 -4.858 -4.1863l-0.0049 -0.0041 -0.0011 -0.0009 -0.0052 -0.0043c-0.2957 -0.2452 -0.5918 -0.4908 -0.8885 -0.7379 1.9638 -3.1342 3.0991 -6.8412 3.0991 -10.812C42.2495 10.6266 33.1277 1.5 21.8748 1.5ZM22 6.5C13.4396 6.5 6.5 13.4396 6.5 22S13.4396 37.5 22 37.5 37.5 30.5604 37.5 22 30.5604 6.5 22 6.5Zm1.9633 6.3518c-0.7415 -1.273 -2.5806 -1.273 -3.3221 0l-1.8897 3.2445c-0.2716 0.4663 -0.7268 0.797 -1.2542 0.9112l-3.6697 0.7947c-1.4398 0.3118 -2.0081 2.0608 -1.0266 3.1594l2.5018 2.7999c0.3596 0.4024 0.5334 0.9375 0.479 1.4744l-0.3782 3.7356c-0.1484 1.4657 1.3395 2.5467 2.6876 1.9526l3.4359 -1.514c0.4939 -0.2177 1.0564 -0.2177 1.5503 0l3.4359 1.514c1.3481 0.5941 2.836 -0.4869 2.6876 -1.9526l-0.3783 -3.7356c-0.0543 -0.5369 0.1195 -1.072 0.4791 -1.4744l2.5017 -2.7999c0.9816 -1.0986 0.4133 -2.8476 -1.0265 -3.1594l-3.6697 -0.7947c-0.5274 -0.1142 -0.9826 -0.4449 -1.2542 -0.9112l-1.8897 -3.2445Z" clip-rule="evenodd" stroke-width="1"></path></g></svg>