<svg xmlns="http://www.w3.org/2000/svg" fill="none" viewBox="0 0 48 48" id="Select-Frame--Streamline-Plump"><desc>Select Frame Streamline Icon: https://streamlinehq.com</desc><g id="Solid/Interface Essential/Cursor/select-frame--cursor-frame-select"><path id="Union" fill="#000000" fill-rule="evenodd" d="M16.9009 0.500951C18.2811 0.46324 19.4305 1.55154 19.4683 2.93174c0.0377 1.38019 -1.0506 2.52963 -2.4308 2.56735 -3.7411 0.10221 -6.596 0.27602 -8.64374 0.44234 -1.34547 0.10928 -2.34303 1.10685 -2.45232 2.45231 -0.16632 2.04786 -0.34013 4.90286 -0.44235 8.64406 -0.03771 1.3802 -1.18715 2.4685 -2.56734 2.4308 -1.3802 -0.0377 -2.468503 -1.1872 -2.430794 -2.5674 0.104541 -3.8263 0.282974 -6.7709 0.456897 -8.91224C1.26548 4.20156 4.20156 1.26547 7.98897 0.957842 10.1302 0.783922 13.0747 0.605495 16.9009 0.500951Zm14.1983 0C29.719 0.46324 28.5695 1.55154 28.5318 2.93174c-0.0377 1.38019 1.0506 2.52963 2.4308 2.56735 3.741 0.10221 6.596 0.27602 8.6437 0.44234 1.3455 0.10928 2.343 1.10685 2.4523 2.45231 0.1663 2.04786 0.3402 4.90286 0.4424 8.64406 0.0377 1.3802 1.1871 2.4685 2.5673 2.4308 1.3802 -0.0377 2.4685 -1.1872 2.4308 -2.5674 -0.1045 -3.8263 -0.283 -6.7709 -0.4569 -8.91224 -0.3076 -3.7874 -3.2437 -6.72349 -7.0311 -7.031118 -2.1413 -0.17392 -5.0857 -0.352347 -8.9119 -0.456891ZM2.93174 28.5312c1.3802 -0.0377 2.52964 1.0506 2.56735 2.4308 0.10221 3.7412 0.27602 6.5962 0.44235 8.644 0.10928 1.3455 1.10685 2.343 2.45231 2.4523 2.04775 0.1663 4.90265 0.3401 8.64365 0.4424 1.3802 0.0377 2.4685 1.1871 2.4308 2.5673 -0.0377 1.3802 -1.1872 2.4685 -2.5674 2.4308 -3.8261 -0.1045 -6.7706 -0.283 -8.91183 -0.4569 -3.78741 -0.3076 -6.7235 -3.2437 -7.031121 -7.0311 -0.173926 -2.1413 -0.352357 -5.0859 -0.456898 -8.9122 -0.037709 -1.3802 1.050589 -2.5297 2.430789 -2.5674ZM42.501 30.962c0.0377 -1.3802 1.1871 -2.4685 2.5673 -2.4308 1.3802 0.0377 2.4685 1.1872 2.4308 2.5674 -0.1045 3.8263 -0.283 6.7709 -0.4569 8.9122 -0.3076 3.7874 -3.2437 6.7235 -7.0311 7.0311 -2.1413 0.1739 -5.0857 0.3524 -8.9119 0.4569 -1.3802 0.0377 -2.5296 -1.0506 -2.5673 -2.4308 -0.0377 -1.3802 1.0506 -2.5296 2.4308 -2.5673 3.741 -0.1023 6.5959 -0.2761 8.6436 -0.4424 1.3455 -0.1093 2.343 -1.1068 2.4523 -2.4523 0.1664 -2.0478 0.3402 -4.9028 0.4424 -8.644Z" clip-rule="evenodd" stroke-width="1"></path></g></svg>