<svg xmlns="http://www.w3.org/2000/svg" fill="none" viewBox="0 0 48 48" id="Send-Email--Streamline-Plump"><desc>Send Email Streamline Icon: https://streamlinehq.com</desc><g id="send-email--mail-send-email-paper-airplane"><path id="Subtract" fill="#000000" fill-rule="evenodd" d="M11.6837 30.7915c-4.77166 -3.3923 -7.47477 -5.6363 -8.98893 -7.0348 -0.82975 -0.7664 -1.26602 -1.8116 -1.18525 -2.8883 0.08084 -1.0776 0.6693 -2.0469 1.60952 -2.6786 3.6002 -2.4188 10.59316 -6.1033 17.97646 -9.40122 7.3661 -3.29027 15.3153 -6.2841 20.8095 -7.22937 2.687 -0.46229 4.7664 1.76706 4.5836 4.28577 -0.3833 5.28182 -1.597 12.93242 -3.1537 20.04422 -1.5429 7.0491 -3.4749 13.8205 -5.3666 17.1992 -1.0334 1.8458 -3.1845 2.1231 -4.7659 1.3151 -1.3734 -0.7016 -3.5836 -1.921 -6.8388 -3.9594 -2.7793 2.9456 -5.9745 5.1126 -9.184 5.8784 1.5995 -5.0141 3.2506 -11.7264 3.6629 -13.4275 2.98 -3.7535 7.8658 -9.2424 12.0406 -13.8275 2.0826 -2.2874 3.977 -4.3374 5.3507 -5.8157 0.6868 -0.739 1.2433 -1.3349 1.6277 -1.7457 0.1923 -0.2055 0.3415 -0.3646 0.4425 -0.4722l0.1528 -0.1626c0.757 -0.8044 0.7192 -2.07068 -0.0852 -2.8277 -0.8043 -0.75703 -2.0701 -0.71867 -2.8271 0.08569l-0.0008 0.00078 -0.1562 0.16628c-0.1023 0.10901 -0.2529 0.26959 -0.4465 0.47653 -0.3873 0.41385 -0.947 1.01314 -1.6373 1.75592 -1.3804 1.4855 -3.2843 3.5458 -5.3783 5.8457 -4.1747 4.585 -9.1504 10.1712 -12.2241 14.044 -0.3673 0.4628 -0.6125 0.9825 -0.7459 1.5329 -0.4029 1.6623 -1.8869 7.6814 -3.3508 12.4068 0 0 -0.0001 0.0005 -0.0003 0.0014 -0.2075 -0.4571 -0.3792 -0.9586 -0.5249 -1.4667 -0.4446 -1.551 -0.7425 -3.5142 -0.9462 -5.3876 -0.2056 -1.8896 -0.3225 -3.7577 -0.3881 -5.1485 -0.0298 -0.6317 -0.0492 -1.1675 -0.0614 -1.5653Z" clip-rule="evenodd" stroke-width="1"></path></g></svg>