<svg xmlns="http://www.w3.org/2000/svg" fill="none" viewBox="0 0 48 48"><g id="shield-privacy-tip-info--shield-privacy-tip-info-security-protection"><path id="Subtract" fill="#000000" fill-rule="evenodd" d="M26.8256 1.1776C25.111 0.107469 22.889 0.107467 21.1744 1.17759 16.3226 4.2058 8.74676 6.37107 5.35065 7.23927c-1.51402 0.38705 -2.84762 1.56256 -3.1456 3.28763C1.88588 12.3747 1.5 15.6691 1.5 20.7991c0 0.212 0.00066 0.4225 0.00195 0.6312 0.05734 9.3082 4.97186 17.8952 13.06135 22.5388 1.6567 0.951 3.3472 1.82 4.9278 2.4551 1.5519 0.6235 3.1254 1.0749 4.5089 1.0749 1.3835 0 2.957 -0.4514 4.5089 -1.075 1.5806 -0.635 3.2711 -1.504 4.9278 -2.455 8.0895 -4.6436 13.004 -13.2306 13.0614 -22.5388 0.0012 -0.2087 0.0019 -0.4192 0.0019 -0.6312 0 -5.13 -0.3859 -8.4244 -0.7051 -10.2722 -0.2979 -1.72507 -1.6315 -2.90058 -3.1455 -3.28763 -3.3962 -0.8682 -10.972 -3.03347 -15.8238 -6.06167Zm-6.6865 13.9595c-0.0917 -1.2963 0.4896 -2.5714 1.75 -2.8882C22.4623 12.1048 23.1659 12 24 12c0.8341 0 1.5377 0.1048 2.1109 0.2489 1.2604 0.3168 1.8417 1.5919 1.75 2.8882 -0.1908 2.6959 -0.5549 7.3786 -0.9486 10.0033 -0.1297 0.8647 -0.6503 1.6086 -1.5125 1.754C25.0311 26.9565 24.5696 27 24 27c-0.5696 0 -1.0311 -0.0435 -1.3998 -0.1056 -0.8622 -0.1454 -1.3828 -0.8893 -1.5125 -1.754 -0.3937 -2.6247 -0.7578 -7.3074 -0.9486 -10.0033ZM24 37c1.933 0 3.5 -1.567 3.5 -3.5S25.933 30 24 30s-3.5 1.567 -3.5 3.5S22.067 37 24 37Z" clip-rule="evenodd" stroke-width="1"></path></g></svg>