<svg xmlns="http://www.w3.org/2000/svg" fill="none" viewBox="0 0 48 48" id="Shopping-Basket-3--Streamline-Plump"><desc>Shopping Basket 3 Streamline Icon: https://streamlinehq.com</desc><g id="Solid/Money Shopping/Cart/shopping-basket-3--shopping-basket"><path id="Union" fill="#000000" fill-rule="evenodd" d="M21.1635 1.01661C22.0626 1.00601 23.0092 1 24 1c0.9894 0 1.9346 0.00599 2.8324 0.01657C34.036 1.10142 41 6.19466 41 14c0 0.5658 -0.0062 1.0906 -0.0174 1.5769 0.5842 0.0065 1.0811 0.0127 1.4934 0.0183 0.638 0.0086 1.3869 0.1149 2.0737 0.4401 0.7151 0.3386 1.4048 0.9423 1.7133 1.9026 0.1457 0.4537 0.237 0.9748 0.237 1.5621s-0.0913 1.1084 -0.237 1.5621c-0.3085 0.9603 -0.9982 1.564 -1.7133 1.9026 -0.6868 0.3252 -1.4357 0.4315 -2.0737 0.4401 -2.5881 0.0349 -8.5065 0.0952 -18.476 0.0952 -9.9695 0 -15.88791 -0.0603 -18.47597 -0.0952 -0.63805 -0.0086 -1.38698 -0.1149 -2.07372 -0.4401 -0.71513 -0.3386 -1.40478 -0.9423 -1.71328 -1.9026C1.59129 20.6084 1.5 20.0873 1.5 19.5s0.09129 -1.1084 0.23703 -1.5621c0.3085 -0.9603 0.99815 -1.564 1.71328 -1.9026 0.68675 -0.3252 1.43567 -0.4315 2.07372 -0.4401 0.41302 -0.0056 0.91085 -0.0118 1.49642 -0.0183C7.00738 15.0865 7 14.5612 7 14 7 6.22206 13.9849 1.1013 21.1635 1.01661ZM11.021 15.5411C14.1816 15.5186 18.4669 15.5 24 15.5c5.5351 0 9.8214 0.0186 12.9823 0.0411C36.9936 15.0714 37 14.5587 37 14c0 -5.03777 -4.576 -8.91729 -10.2147 -8.98371C25.9028 5.00589 24.9732 5 24 5c-0.9747 0 -1.9055 0.00591 -2.7893 0.01634C15.5997 5.08253 11 8.98733 11 14c0 0.5535 0.0077 1.0669 0.021 1.5411ZM5.18688 27.2966c-0.04087 -0.3108 -0.07971 -0.613 -0.11657 -0.906 0.1434 0.0084 0.28134 0.013 0.41284 0.0148 2.60293 0.0351 8.53485 0.0955 18.51635 0.0955 9.9816 0 15.9135 -0.0604 18.5164 -0.0955 0.131 -0.0018 0.2683 -0.0064 0.4111 -0.0147 -0.0369 0.2929 -0.0757 0.5951 -0.1166 0.9059 -0.483 3.672 -1.2533 8.5582 -2.402 13.3752 -0.6789 2.8472 -3.0487 4.9551 -5.9698 5.2691 -2.5553 0.2746 -6.2231 0.5599 -10.44 0.5599 -4.2168 0 -7.8846 -0.2853 -10.4399 -0.5599 -2.9211 -0.314 -5.29095 -2.4219 -5.96985 -5.2691 -1.14863 -4.817 -1.91898 -9.7032 -2.40197 -13.3752Zm12.29772 4.4923c-0.1171 -0.8201 -0.8769 -1.3899 -1.697 -1.2728 -0.8201 0.1172 -1.39 0.877 -1.2728 1.6971l1 7c0.1172 0.8201 0.877 1.3899 1.6971 1.2728 0.8201 -0.1172 1.3899 -0.877 1.2727 -1.6971l-1 -7Zm13.0302 0c0.1172 -0.8201 0.877 -1.3899 1.6971 -1.2728 0.8201 0.1172 1.3899 0.877 1.2727 1.6971l-1 7c-0.1171 0.8201 -0.8769 1.3899 -1.697 1.2728 -0.8201 -0.1172 -1.39 -0.877 -1.2728 -1.6971l1 -7Zm-6.5151 -1.2878c0.8284 0 1.5 0.6715 1.5 1.5v7c0 0.8284 -0.6716 1.5 -1.5 1.5s-1.5 -0.6716 -1.5 -1.5v-7c0 -0.8285 0.6716 -1.5 1.5 -1.5Z" clip-rule="evenodd" stroke-width="1"></path></g></svg>