<svg xmlns="http://www.w3.org/2000/svg" fill="none" viewBox="0 0 48 48" id="Show-Hat-Magician--Streamline-Plump"><desc>Show Hat Magician Streamline Icon: https://streamlinehq.com</desc><g id="Solid/Entertainment/Leisure/show-hat-magician"><path id="Union" fill="#000000" fill-rule="evenodd" d="M9 2c0 -1.10457 -0.89543 -2 -2 -2S5 0.89543 5 2v3H2C0.895431 5 0 5.89543 0 7s0.895431 2 2 2h3v3c0 1.1046 0.89543 2 2 2s2 -0.8954 2 -2V9h3c1.1046 0 2 -0.89543 2 -2s-0.8954 -2 -2 -2H9V2Zm11.5 1C21.8807 3 23 4.11929 23 5.5S21.8807 8 20.5 8 18 6.88071 18 5.5 19.1193 3 20.5 3ZM17 14.5c0 -1.3807 -1.1193 -2.5 -2.5 -2.5S12 13.1193 12 14.5s1.1193 2.5 2.5 2.5 2.5 -1.1193 2.5 -2.5Zm15 8c0 1.1046 -0.8954 2 -2 2v-4c1.1046 0 2 0.8954 2 2Zm-30 0v-2c-1.10457 0 -2 0.8954 -2 2s0.89543 2 2 2v-2Zm0 0 0.00005 -2H30l0 2 0 2h-2.722c0.2112 1.0328 0.4582 2.2952 0.7091 3.6967l0.0145 0.0811c-0.116 0.0059 -0.2746 0.0137 -0.4765 0.0228 -0.4886 0.022 -1.2308 0.0515 -2.2371 0.081 -2.0125 0.0591 -5.0812 0.1184 -9.2893 0.1184 -4.2081 0 -7.27679 -0.0593 -9.28932 -0.1184 -1.00626 -0.0295 -1.74847 -0.059 -2.23706 -0.081 -0.2003 -0.009 -0.35798 -0.0167 -0.47374 -0.0227l0.01451 -0.0812c0.25093 -1.4015 0.49791 -2.6639 0.70915 -3.6967H2.00005L2 22.5Zm1.62021 7.9998c-0.04646 0.7593 -0.04637 0.7593 -0.04627 0.7593l0.00033 0 0.00092 0.0001 0.00291 0.0002 0.01011 0.0006 0.0374 0.0021c0.03259 0.0019 0.08052 0.0046 0.14396 0.0079 0.12688 0.0068 0.31578 0.0163 0.56802 0.0276 0.50446 0.0227 1.26225 0.0527 2.28377 0.0827 2.04302 0.06 5.14104 0.1197 9.37734 0.1197s7.3343 -0.0597 9.3773 -0.1197c1.0216 -0.03 1.7793 -0.06 2.2838 -0.0827 0.2522 -0.0113 0.4412 -0.0208 0.568 -0.0276l0.0805 -0.0043 0.0635 -0.0036 0.0374 -0.0021 0.0101 -0.0006 0.0029 -0.0002 0.0009 -0.0001 0.0004 0c0.0001 0 0.0002 0 -0.048 -0.7876l0 0.0002 0.0482 0.7874c0.0255 -0.0016 0.0508 -0.0038 0.0759 -0.0066 0.4834 3.1045 0.899 6.5429 0.9844 9.5803 0.0974 3.4611 -2.5764 6.087 -5.871 6.3605 -1.991 0.1653 -4.5801 0.3067 -7.6129 0.3067s-5.6218 -0.1414 -7.61287 -0.3067c-3.29456 -0.2735 -5.96832 -2.8994 -5.87098 -6.3605 0.08542 -3.0373 0.50095 -6.4756 0.98437 -9.5799 0.02418 0.0026 0.04854 0.0047 0.07308 0.0062l0.04649 -0.7592 0.00002 -0.0001ZM46.4756 1.90926C45.4023 0.362951 43.4403 0.334823 41.9537 1.1602c-3.6048 2.00156 -8.2339 4.84605 -12.1289 7.29945l3.8546 6.35385c4.0011 -2.2168 8.6797 -4.85408 12.1771 -6.96086 1.4517 -0.87447 2.4159 -2.57197 1.5954 -4.27094 -0.1288 -0.26672 -0.2796 -0.55187 -0.4563 -0.85446 -0.1766 -0.30259 -0.3509 -0.57434 -0.52 -0.81798ZM24.348 11.9532c0.926 -0.5979 2.0751 -1.3364 3.3639 -2.15648l3.777 6.22598c-1.3339 0.7339 -2.5323 1.3887 -3.5065 1.919 -1.6817 0.9156 -3.7906 0.329 -4.7521 -1.3183 -0.9379 -1.6066 -0.4524 -3.6565 1.1177 -4.6702Z" clip-rule="evenodd" stroke-width="1"></path></g></svg>