<svg xmlns="http://www.w3.org/2000/svg" fill="none" viewBox="0 0 48 48" id="Skull-1--Streamline-Plump"><desc>Skull 1 Streamline Icon: https://streamlinehq.com</desc><g id="Solid/Interface Essential/Edit/skull-1--crash-death-delete-die-error-garbage-remove-skull-trash"><path id="Subtract" fill="#000000" fill-rule="evenodd" d="M2.5 21.5C2.5 9.86645 12.1619 0.5 24 0.5s21.5 9.36645 21.5 21c0 6.5247 -3.0471 12.3461 -7.8061 16.1902 -0.1712 0.1384 -0.2491 0.317 -0.2534 0.47 -0.0518 1.8488 -0.1314 3.2368 -0.2141 4.2647 -0.1744 2.1699 -1.6256 4.0253 -3.9135 4.4339 -0.3325 0.0594 -0.7003 0.1182 -1.1063 0.1746 -0.4298 0.0598 -0.8643 -0.0695 -1.1915 -0.3543 -0.3272 -0.2849 -0.5151 -0.6975 -0.5151 -1.1314V42.5c0 -0.8284 -0.6716 -1.5 -1.5 -1.5s-1.5 0.6716 -1.5 1.5v3.4781c0 0.8152 -0.6511 1.4812 -1.4661 1.4996 -0.6392 0.0145 -1.3165 0.0223 -2.0339 0.0223s-1.3947 -0.0078 -2.0339 -0.0223c-0.815 -0.0184 -1.4661 -0.6844 -1.4661 -1.4996V42.5c0 -0.8284 -0.6716 -1.5 -1.5 -1.5s-1.5 0.6716 -1.5 1.5v3.0477c0 0.4339 -0.1879 0.8465 -0.5151 1.1314 -0.3272 0.2848 -0.7617 0.4141 -1.1915 0.3543 -0.406 -0.0564 -0.7738 -0.1152 -1.1063 -0.1746 -2.2879 -0.4086 -3.7391 -2.264 -3.9135 -4.4339 -0.0827 -1.0279 -0.1623 -2.4159 -0.2141 -4.2647 -0.0043 -0.153 -0.0822 -0.3316 -0.2534 -0.47C5.54712 33.8461 2.5 28.0247 2.5 21.5Zm9 0.5c0 -2.9277 1.9164 -5.5 4.5 -5.5 2.5836 0 4.5 2.5723 4.5 5.5s-1.9164 5.5 -4.5 5.5c-2.5836 0 -4.5 -2.5723 -4.5 -5.5ZM32 16.5c2.5836 0 4.5 2.5723 4.5 5.5s-1.9164 5.5 -4.5 5.5c-2.5836 0 -4.5 -2.5723 -4.5 -5.5s1.9164 -5.5 4.5 -5.5Z" clip-rule="evenodd" stroke-width="1"></path></g></svg>