<svg xmlns="http://www.w3.org/2000/svg" fill="none" viewBox="0 0 48 48" id="Sleep--Streamline-Plump"><desc>Sleep Streamline Icon: https://streamlinehq.com</desc><g id="sleep"><path id="Union" fill="#000000" fill-rule="evenodd" d="M27.4103 0.5c-1.2549 0 -2.594 0.70908 -2.8256 2.12479 -0.0514 0.3137 -0.0847 0.65764 -0.0847 1.02227s0.0333 0.70857 0.0847 1.02226c0.2316 1.41572 1.5707 2.1248 2.8256 2.1248h3.5359l-5.1069 6.61108c-0.8727 1.1298 -1.035 2.6546 -0.4197 3.9428 0.6282 1.3149 1.9558 2.152 3.4131 2.152h8.7143c1.2808 0 2.6389 -0.7338 2.8718 -2.1698 0.0492 -0.3036 0.0812 -0.6331 0.0812 -0.9773 0 -0.3441 -0.032 -0.6736 -0.0812 -0.9772 -0.2329 -1.4361 -1.591 -2.1698 -2.8718 -2.1698h-3.4932l5.1069 -6.61111c0.8727 -1.12975 1.035 -2.65461 0.4197 -3.94275C38.9522 1.33713 37.6246 0.5 36.1673 0.5h-8.757ZM3.82607 15.7503C3.9667 14.2828 5.28803 13.5 6.59173 13.5H17.396c1.7126 0 3.2708 0.9902 3.998 2.5408 0.7284 1.553 0.4915 3.3874 -0.6075 4.7044L13.0635 30h6.2825c1.3391 0 2.6919 0.817 2.8318 2.3154 0.0265 0.2844 0.0427 0.5964 0.0427 0.9346 0 0.3382 -0.0162 0.6502 -0.0427 0.9346C22.0379 35.683 20.6851 36.5 19.346 36.5H8.60423c-1.71262 0 -3.2708 -0.9902 -3.99803 -2.5408 -0.72842 -1.553 -0.49153 -3.3874 0.60753 -4.7044L12.9367 20H6.59173c-1.30371 0 -2.62503 -0.7828 -2.76566 -2.2503 -0.0287 -0.2995 -0.04628 -0.6328 -0.04628 -0.9997s0.01758 -0.7002 0.04628 -0.9997Zm21.02783 9.9833c0.156 -1.4578 1.4712 -2.2336 2.7707 -2.2336h11.6107c1.7392 0 3.3226 1.0022 4.067 2.574 0.7677 1.6211 0.5948 3.5396 -0.5764 4.9296L34.5142 40.75h6.7984c1.3353 0 2.6812 0.8102 2.8371 2.2987 0.0339 0.3233 0.0551 0.6828 0.0551 1.0763 0 0.3935 -0.0212 0.753 -0.0551 1.0763 -0.1559 1.4885 -1.5018 2.2987 -2.8371 2.2987h-11.548c-1.7392 0 -3.3227 -1.0022 -4.067 -2.5741 -0.7677 -1.621 -0.5948 -3.5395 0.5764 -4.9295l8.2117 -9.7464h-6.8611c-1.2995 0 -2.6147 -0.7758 -2.7707 -2.2336 -0.0361 -0.3373 -0.0587 -0.7178 -0.0587 -1.1414s0.0226 -0.8041 0.0587 -1.1414Z" clip-rule="evenodd" stroke-width="1"></path></g></svg>