<svg xmlns="http://www.w3.org/2000/svg" fill="none" viewBox="0 0 48 48" id="Smiley-In-Love--Streamline-Plump"><desc>Smiley In Love Streamline Icon: https://streamlinehq.com</desc><g id="smiley-in-love"><path id="Union" fill="#000000" fill-rule="evenodd" d="M0.5 24c0 -1.7311 0.187182 -3.4185 0.54241 -5.0431 0.06138 0.0819 0.12352 0.1627 0.18631 0.2427 1.54617 1.9677 3.65282 3.5638 5.2638 4.7463 2.08311 1.5291 4.93218 1.5291 7.01538 0 1.6109 -1.1825 3.7176 -2.7786 5.2638 -4.7463 1.5734 -2.0025 2.7351 -4.6142 2.0115 -7.698 -1.0881 -4.86529 -6.7925 -7.04368 -10.783 -4.31388 -0.49811 -0.34073 -1.0229 -0.60499 -1.56209 -0.79711C12.583 2.72493 18.0316 0.5 24 0.5c5.9684 0 11.4171 2.22497 15.562 5.89071 -0.5391 0.1921 -1.0638 0.45633 -1.5618 0.79701 -3.9906 -2.72982 -9.695 -0.55138 -10.7831 4.31398 -0.7235 3.0838 0.4381 5.6954 2.0116 7.6979 1.5462 1.9677 3.6528 3.5638 5.2638 4.7463 2.0831 1.5291 4.9322 1.5291 7.0154 0 1.6109 -1.1825 3.7176 -2.7786 5.2638 -4.7463 0.0626 -0.0798 0.1247 -0.1606 0.186 -0.2423 0.3552 1.6244 0.5423 3.3117 0.5423 5.0427 0 12.9787 -10.5213 23.5 -23.5 23.5S0.5 36.9787 0.5 24Zm34.8311 9.9584c-1.6354 4.6828 -6.0913 8.0422 -11.332 8.0422 -5.2406 0 -9.6965 -3.3594 -11.3319 -8.0422 -0.6626 -1.8972 1.2845 -3.4237 3.2625 -3.069 2.1433 0.3842 4.9853 0.7475 8.0694 0.7475 3.0842 0 5.9262 -0.3633 8.0695 -0.7475 1.978 -0.3547 3.9251 1.1718 3.2625 3.069ZM18.0478 16.7302c0.8824 -1.4102 1.1695 -3.1572 0.7857 -4.7816 -0.8201 -3.70028 -5.3612 -5.21229 -8.1898 -2.73261 -0.1589 0.13835 -0.3053 0.29171 -0.4557 0.44919l0 0.00002 -0.0001 0.0001c-0.0616 0.06453 -0.1238 0.12974 -0.1879 0.19491 -0.06409 -0.0652 -0.12638 -0.13045 -0.18802 -0.19501l0 -0.00001 -0.00005 -0.00004c-0.15034 -0.15747 -0.29674 -0.31082 -0.4556 -0.44916 -2.82865 -2.47968 -7.36976 -0.96767 -8.18983 2.73261 -0.383826 1.6244 -0.09673 3.3714 0.78574 4.7816 1.38766 2.221 3.53905 4.0002 5.72358 5.6038 1.37881 1.0121 3.26958 1.0121 4.64838 0 2.1845 -1.6036 4.3359 -3.3828 5.7236 -5.6038Zm28 0c0.8824 -1.4102 1.1695 -3.1572 0.7857 -4.7816 -0.8201 -3.70028 -5.3612 -5.21229 -8.1898 -2.73261 -0.1589 0.13835 -0.3053 0.29171 -0.4557 0.44919 -0.0616 0.06456 -0.1239 0.12982 -0.188 0.19503 -0.0641 -0.0652 -0.1264 -0.13046 -0.188 -0.19502 -0.1504 -0.15748 -0.2968 -0.31084 -0.4557 -0.4492 -2.8286 -2.47968 -7.3697 -0.96767 -8.1898 2.73261 -0.3838 1.6244 -0.0967 3.3714 0.7857 4.7816 1.3877 2.221 3.5391 4.0002 5.7236 5.6038 1.3788 1.0121 3.2696 1.0121 4.6484 0 2.1845 -1.6036 4.3359 -3.3828 5.7236 -5.6038Z" clip-rule="evenodd" stroke-width="1"></path></g></svg>