<svg xmlns="http://www.w3.org/2000/svg" fill="none" viewBox="0 0 48 48" id="Smiley-Sparks--Streamline-Plump"><desc>Smiley Sparks Streamline Icon: https://streamlinehq.com</desc><g id="smiley-sparks"><path id="Union" fill="#000000" fill-rule="evenodd" d="M0.5 24c0 -3.0294 0.57321 -5.9249 1.61709 -8.584l3.67279 1.7408 2.27459 5.857c1.02848 2.6483 4.84263 2.6483 5.87103 0l2.2746 -5.857 5.0134 -2.3761c2.3687 -1.1227 2.3687 -4.4387 0 -5.56137L16.2101 6.8432l-1.6903 -4.35257C17.4195 1.21074 20.6267 0.5 24 0.5c3.3733 0 6.5805 0.71074 9.4802 1.99063L31.7899 6.8432l-5.0134 2.37613c-2.3687 1.12267 -2.3687 4.43867 0 5.56137l5.0134 2.3761 2.2746 5.857c1.0284 2.6483 4.8426 2.6483 5.871 0l2.2746 -5.857 3.6728 -1.7408C46.9268 18.0751 47.5 20.9706 47.5 24c0 12.9787 -10.5213 23.5 -23.5 23.5S0.5 36.9787 0.5 24Zm15.5183 5.3952c-1.1346 -0.2034 -2.2713 0.1288 -3.0405 0.8073 -0.7832 0.6909 -1.1891 1.7538 -0.7823 2.9188 1.7033 4.8772 6.3443 8.3773 11.804 8.3773 5.4598 0 10.1008 -3.5001 11.8041 -8.3773 0.4068 -1.165 0.0009 -2.2279 -0.7823 -2.9188 -0.7692 -0.6785 -1.906 -1.0107 -3.0405 -0.8073 -2.1232 0.3807 -4.9346 0.7398 -7.9813 0.7398 -3.0466 0 -5.858 -0.3591 -7.9812 -0.7398ZM12.0712 1.71025c-0.3678 -0.947001 -1.7746 -0.946998 -2.14239 0L7.36597 8.30946 1.63311 11.0266c-0.844145 0.4001 -0.844145 1.5467 0 1.9468l5.73286 2.7171 2.56284 6.5993c0.36779 0.947 1.77459 0.9469 2.14239 0l2.5628 -6.5993 5.7329 -2.7171c0.8441 -0.4001 0.8441 -1.5467 0 -1.9468L14.634 8.30946l-2.5628 -6.59921Zm23.8576 0c0.3678 -0.947001 1.7746 -0.946998 2.1424 0l2.5628 6.59921 5.7329 2.71714c0.8441 0.4001 0.8441 1.5467 0 1.9468l-5.7329 2.7171 -2.5628 6.5993c-0.3678 0.947 -1.7746 0.9469 -2.1424 0l-2.5628 -6.5993 -5.7329 -2.7171c-0.8441 -0.4001 -0.8441 -1.5467 0 -1.9468l5.7329 -2.71714 2.5628 -6.59921Z" clip-rule="evenodd" stroke-width="1"></path></g></svg>