<svg xmlns="http://www.w3.org/2000/svg" fill="none" viewBox="0 0 48 48" id="Smiley-Mad--Streamline-Plump"><desc>Smiley Mad Streamline Icon: https://streamlinehq.com</desc><g id="smiley-mad"><path id="Subtract" fill="#000000" fill-rule="evenodd" d="M0.5 24C0.5 11.0213 11.0213 0.5 24 0.5S47.5 11.0213 47.5 24 36.9787 47.5 24 47.5 0.5 36.9787 0.5 24Zm10.6426 -8.7422c0.4102 -1.0256 1.5742 -1.5244 2.5997 -1.1142l5 2c1.0256 0.4102 1.5244 1.5741 1.1142 2.5997 -0.4102 1.0256 -1.5742 1.5244 -2.5997 1.1142l-5 -2c-1.0256 -0.4102 -1.5244 -1.5742 -1.1142 -2.5997Zm23.1142 -1.1142c1.0255 -0.4102 2.1895 0.0886 2.5997 1.1142 0.4102 1.0255 -0.0886 2.1895 -1.1142 2.5997l-5 2c-1.0255 0.4102 -2.1895 -0.0886 -2.5997 -1.1142 -0.4102 -1.0256 0.0886 -2.1895 1.1142 -2.5997l5 -2ZM15.1823 36.8259c1.0079 0.4513 2.1907 0.0002 2.6423 -1.0074l0.0047 -0.0102 0.0243 -0.0526c0.0228 -0.0489 0.0585 -0.1245 0.1065 -0.223 0.0961 -0.1972 0.2406 -0.4847 0.4281 -0.8322 0.3776 -0.6995 0.9174 -1.6193 1.5746 -2.5272 0.6652 -0.919 1.4016 -1.7571 2.1564 -2.3485 0.7638 -0.5985 1.3898 -0.8243 1.8804 -0.8243 0.4906 0 1.1166 0.2258 1.8803 0.8243 0.7548 0.5914 1.4912 1.4295 2.1564 2.3485 0.6572 0.9079 1.197 1.8277 1.5746 2.5272 0.1875 0.3475 0.3321 0.635 0.4281 0.8322 0.048 0.0985 0.0837 0.1741 0.1065 0.223l0.0243 0.0526 0.0044 0.0095 0.0006 0.0015c0.4519 1.0071 1.6344 1.4578 2.642 1.0066 1.0082 -0.4513 1.4595 -1.6345 1.0082 -2.6426l-0.0005 -0.0009 -0.0004 -0.0011 -0.0013 -0.0028 -0.0034 -0.0077 -0.0109 -0.024c-0.0048 -0.0105 -0.0106 -0.0231 -0.0174 -0.0378 -0.006 -0.0129 -0.0127 -0.0273 -0.0201 -0.0433 -0.0318 -0.0683 -0.0774 -0.1646 -0.136 -0.2848 -0.117 -0.2403 -0.2869 -0.5778 -0.5041 -0.9803 -0.4321 -0.8005 -1.0639 -1.8807 -1.8544 -2.9728 -0.7825 -1.081 -1.77 -2.243 -2.9294 -3.1515 -1.1504 -0.9015 -2.629 -1.6758 -4.3475 -1.6758 -1.7186 0 -3.1972 0.7743 -4.3476 1.6758 -1.1594 0.9085 -2.1469 2.0705 -2.9294 3.1515 -0.7905 1.0921 -1.4223 2.1723 -1.8544 2.9728 -0.2172 0.4025 -0.387 0.74 -0.5041 0.9803 -0.0586 0.1202 -0.1041 0.2165 -0.136 0.2848 -0.0081 0.0173 -0.0152 0.0328 -0.0215 0.0465 -0.0062 0.0133 -0.0115 0.0249 -0.0159 0.0346l-0.0109 0.024 -0.0035 0.0077 -0.0012 0.0028 -0.0009 0.002c-0.4514 1.0081 0 2.1913 1.0081 2.6426Z" clip-rule="evenodd" stroke-width="1"></path></g></svg>