<svg xmlns="http://www.w3.org/2000/svg" fill="none" viewBox="0 0 48 48" id="Smiley-Sleepy--Streamline-Plump"><desc>Smiley Sleepy Streamline Icon: https://streamlinehq.com</desc><g id="smiley-sleepy"><path id="Union" fill="#000000" fill-rule="evenodd" d="m25.4271 12.4393 0.1891 -0.2269C24.6354 11.4834 24 10.3159 24 9c0 -2.20914 1.7909 -4 4 -4h5.5c0.3907 0 0.7725 0.05689 1.1356 0.16444C34.2334 4.54053 34 3.79752 34 3c0 -0.09011 0.003 -0.17952 0.0088 -0.26814C30.9723 1.30035 27.5796 0.5 24 0.5 11.0213 0.5 0.5 11.0213 0.5 24S11.0213 47.5 24 47.5 47.5 36.9787 47.5 24c0 -3.1881 -0.6349 -6.228 -1.7851 -9h-7.0482c-0.226 0 -0.449 -0.019 -0.6671 -0.0559l0.0003 0.0286L38 15c0 2.2091 -1.7909 4 -4 4h-5.5c-1.5521 0 -2.964 -0.8978 -3.6224 -2.3034 -0.6583 -1.4055 -0.4441 -3.065 0.5495 -4.2573ZM24 29.4995c-3.1191 0 -5.5 2.9994 -5.5 6.5 0 3.5007 2.3809 6.5 5.5 6.5s5.5 -2.9993 5.5 -6.5c0 -3.5006 -2.3809 -6.5 -5.5 -6.5Zm-4.209 -7.3313c-0.9964 -0.4359 -2.155 0.0048 -2.613 0.9845 -0.019 0.0346 -0.124 0.2074 -0.3038 0.3717 -0.2294 0.2098 -0.6371 0.4761 -1.3848 0.4761s-1.1554 -0.2663 -1.3848 -0.4761c-0.1798 -0.1643 -0.2848 -0.3372 -0.3038 -0.3717 -0.458 -0.9797 -1.6166 -1.4204 -2.613 -0.9845 -1.0424 0.456 -1.47364 1.7174 -0.9901 2.7221 0.1252 0.2601 0.4725 0.914 1.2078 1.5863 0.8643 0.7902 2.2066 1.5239 4.0839 1.5239s3.2196 -0.7337 4.0839 -1.5239c0.7354 -0.6723 1.0826 -1.3262 1.2078 -1.5863 0.4836 -1.0046 0.0521 -2.2662 -0.9901 -2.7221Zm12.6985 5.8323c-1.8773 0 -3.2196 -0.7337 -4.0839 -1.5239 -0.7353 -0.6723 -1.0826 -1.3262 -1.2078 -1.5863 -0.4776 -1.0072 -0.0566 -2.2642 0.9901 -2.7221 0.9964 -0.4359 2.155 0.0048 2.613 0.9845 0.019 0.0346 0.124 0.2074 0.3038 0.3717 0.2294 0.2098 0.6371 0.4761 1.3848 0.4761s1.1554 -0.2663 1.3848 -0.4761c0.1798 -0.1643 0.2848 -0.3372 0.3038 -0.3717 0.458 -0.9797 1.6166 -1.4204 2.613 -0.9845 1.127 0.493 1.4611 1.8416 0.9219 2.8566 -0.1643 0.3093 -0.5099 0.8761 -1.1396 1.4518 -0.8643 0.7902 -2.2066 1.5239 -4.0839 1.5239ZM36.5 3c0 -0.82843 0.6716 -1.5 1.5 -1.5h7.3333c0.5821 0 1.1115 0.33669 1.3584 0.86377 0.2469 0.52707 0.1666 1.14938 -0.206 1.59651L41.8692 9.5H46c0.8284 0 1.5 0.6716 1.5 1.5s-0.6716 1.5 -1.5 1.5h-7.3333c-0.5821 0 -1.1115 -0.3367 -1.3584 -0.8638 -0.2469 -0.527 -0.1666 -1.1494 0.206 -1.5965L42.1308 4.5H38c-0.8284 0 -1.5 -0.67157 -1.5 -1.5Zm-10 6c0 -0.82843 0.6716 -1.5 1.5 -1.5h5.5c0.582 0 1.1115 0.33669 1.3584 0.86377 0.2469 0.52707 0.1665 1.14938 -0.2061 1.59651L31.7026 13.5H34c0.8284 0 1.5 0.6716 1.5 1.5s-0.6716 1.5 -1.5 1.5h-5.5c-0.582 0 -1.1115 -0.3367 -1.3584 -0.8638 -0.2469 -0.527 -0.1665 -1.1494 0.2061 -1.5965L30.2974 10.5H28c-0.8284 0 -1.5 -0.67157 -1.5 -1.5Z" clip-rule="evenodd" stroke-width="1"></path></g></svg>