<svg xmlns="http://www.w3.org/2000/svg" fill="none" viewBox="0 0 48 48" id="Smiley-Very-Happy-1--Streamline-Plump"><desc>Smiley Very Happy 1 Streamline Icon: https://streamlinehq.com</desc><g id="smiley-very-happy-1"><path id="Subtract" fill="#000000" fill-rule="evenodd" d="M0.5 24C0.5 11.0213 11.0213 0.5 24 0.5S47.5 11.0213 47.5 24 36.9787 47.5 24 47.5 0.5 36.9787 0.5 24ZM12 24c1.1046 0 2 0.8954 2 2 0 5.5228 4.4772 10 10 10s10 -4.4772 10 -10c0 -1.1046 0.8954 -2 2 -2s2 0.8954 2 2c0 7.732 -6.268 14 -14 14s-14 -6.268 -14 -14c0 -1.1046 0.8954 -2 2 -2Zm15.2083 -7.8898c-0.4776 1.0072 -0.0566 2.2642 0.9901 2.7221 0.9964 0.436 2.155 -0.0048 2.613 -0.9845 0.019 -0.0345 0.124 -0.2074 0.3038 -0.3717 0.2294 -0.2098 0.6371 -0.4761 1.3848 -0.4761s1.1554 0.2663 1.3848 0.4761c0.1798 0.1643 0.2848 0.3372 0.3038 0.3717 0.458 0.9797 1.6166 1.4205 2.613 0.9845 1.127 -0.493 1.4611 -1.8416 0.9219 -2.8565 -0.1643 -0.3094 -0.5099 -0.8762 -1.1396 -1.4519C35.7196 13.7337 34.3773 13 32.5 13s-3.2196 0.7337 -4.0839 1.5239c-0.7353 0.6723 -1.0826 1.3262 -1.2078 1.5863Zm-10.0197 1.7376c0.458 0.9797 1.6166 1.4205 2.613 0.9845 1.0422 -0.4559 1.4737 -1.7175 0.9901 -2.7221 -0.1252 -0.2601 -0.4725 -0.914 -1.2078 -1.5863C18.7196 13.7337 17.3773 13 15.5 13s-3.2196 0.7337 -4.0839 1.5239c-0.7353 0.6723 -1.0826 1.3262 -1.2078 1.5863 -0.48355 1.0047 -0.0523 2.2661 0.9901 2.7221 0.9964 0.436 2.155 -0.0048 2.613 -0.9845 0.019 -0.0345 0.124 -0.2074 0.3038 -0.3717 0.2294 -0.2098 0.6371 -0.4761 1.3848 -0.4761s1.1554 0.2663 1.3848 0.4761c0.1798 0.1643 0.2848 0.3372 0.3038 0.3717Z" clip-rule="evenodd" stroke-width="1"></path></g></svg>