<svg xmlns="http://www.w3.org/2000/svg" fill="none" viewBox="0 0 48 48" id="Snooze-Alarm--Streamline-Plump"><desc>Snooze Alarm Streamline Icon: https://streamlinehq.com</desc><g id="Solid/Interface Essential/Time/snooze-alarm--time-tock-stopwatch-measure-clock-tick-snooze"><path id="Union" fill="#000000" fill-rule="evenodd" d="M10 0.5c1.982 0 3.8222 0.60695 5.345 1.64513C9.32792 4.53003 4.53003 9.32792 2.14513 15.345 1.10695 13.8222 0.5 11.982 0.5 10 0.5 4.75329 4.75329 0.5 10 0.5Zm22.655 1.64513C38.6721 4.53003 43.47 9.32792 45.8549 15.345 46.893 13.8222 47.5 11.982 47.5 10c0 -5.24671 -4.2533 -9.5 -9.5 -9.5 -1.982 0 -3.8222 0.60695 -5.345 1.64513ZM6.85296 36.9723C4.12092 33.3666 2.5 28.8726 2.5 24 2.5 12.1259 12.1259 2.5 24 2.5S45.5 12.1259 45.5 24c0 4.8726 -1.6209 9.3666 -4.353 12.9723 0.9474 1.9685 1.9512 4.1021 2.5973 5.4822 0.5057 1.0802 0.4665 2.4613 -0.4927 3.3633 -0.3196 0.3005 -0.701 0.6068 -1.1272 0.847 -0.4554 0.2567 -0.9522 0.4323 -1.4025 0.5533 -1.2229 0.3285 -2.3901 -0.2888 -3.0708 -1.2223 -0.6648 -0.9115 -1.6105 -2.2126 -2.5806 -3.5612C31.8368 44.3807 28.0491 45.5 24 45.5c-4.0491 0 -7.8368 -1.1193 -11.0705 -3.0654 -0.9701 1.3486 -1.9158 2.6497 -2.5806 3.5612 -0.68069 0.9335 -1.84791 1.5508 -3.07082 1.2223 -0.45028 -0.121 -0.94708 -0.2966 -1.40251 -0.5533 -0.42618 -0.2402 -0.80756 -0.5465 -1.12717 -0.847 -0.95924 -0.902 -0.99844 -2.2831 -0.49272 -3.3633 0.64615 -1.3801 1.64996 -3.5137 2.59728 -5.4822ZM24.5 13c-1.1046 0 -2 0.8954 -2 2s0.8954 2 2 2h6.7299l-7.2663 8.7196c-0.4968 0.5962 -0.6039 1.4259 -0.2748 2.1287C24.018 28.5511 24.724 29 25.5 29h11c1.1046 0 2 -0.8954 2 -2s-0.8954 -2 -2 -2h-6.7299l7.2663 -8.7196c0.4968 -0.5962 0.6039 -1.4259 0.2748 -2.1287C36.982 13.4489 36.276 13 35.5 13h-11Zm-15 12c0 -1.1046 0.8954 -2 2 -2h7.3333c0.7761 0 1.4821 0.4489 1.8112 1.1517 0.3292 0.7028 0.2221 1.5325 -0.2747 2.1287L16.4368 31H19.5c1.1046 0 2 0.8954 2 2s-0.8954 2 -2 2h-7.3333c-0.7761 0 -1.4821 -0.4489 -1.8112 -1.1517 -0.3292 -0.7028 -0.2221 -1.5325 0.2747 -2.1287L14.5633 27H11.5c-1.1046 0 -2 -0.8954 -2 -2Z" clip-rule="evenodd" stroke-width="1"></path></g></svg>