<svg xmlns="http://www.w3.org/2000/svg" fill="none" viewBox="0 0 48 48" id="Spray-Paint--Streamline-Plump"><desc>Spray Paint Streamline Icon: https://streamlinehq.com</desc><g id="Solid/Interface Essential/Color/spray-paint--can-color-colors-design-paint-painting-spray"><path id="Union" fill="#000000" fill-rule="evenodd" d="M40.6916 2.5032c0 -1.1174 0.9058 -2.0232 2.0232 -2.0232h1.0117c1.1174 0 2.0232 0.9058 2.0232 2.0232s-0.9058 2.0233 -2.0232 2.0233h-1.0117c-1.1174 0 -2.0232 -0.9059 -2.0232 -2.0233ZM30.5755 6.0439c-1.1174 0 -2.0232 0.9058 -2.0232 2.0232s0.9058 2.0232 2.0232 2.0232h1.0116c1.1174 0 2.0232 -0.9058 2.0232 -2.0232s-0.9058 -2.0232 -2.0232 -2.0232h-1.0116Zm12.1393 0c-1.1174 0 -2.0232 0.9058 -2.0232 2.0232s0.9058 2.0232 2.0232 2.0232h1.0116c1.1175 0 2.0233 -0.9058 2.0233 -2.0232s-0.9058 -2.0232 -2.0233 -2.0232h-1.0116Zm0 5.5638c-1.1174 0 -2.0232 0.9058 -2.0232 2.0233s0.9058 2.0232 2.0232 2.0232h1.0116c1.1175 0 2.0233 -0.9058 2.0233 -2.0232s-0.9058 -2.0233 -2.0233 -2.0233h-1.0116Zm-8.0929 -6.0696c0 -1.1174 0.9058 -2.0233 2.0233 -2.0233h1.0116c1.1174 0 2.0232 0.9059 2.0232 2.0233s-0.9058 2.0232 -2.0232 2.0232h-1.0116c-1.1175 0 -2.0233 -0.9058 -2.0233 -2.0232Zm2.0233 3.0348c-1.1175 0 -2.0233 0.9058 -2.0233 2.0232 0 1.1175 0.9058 2.0233 2.0233 2.0233h1.0116c1.1174 0 2.0232 -0.9058 2.0232 -2.0233 0 -1.1174 -0.9058 -2.0232 -2.0232 -2.0232h-1.0116Zm-4.0465 22.8288c0 -4.8971 -0.2893 -8.4048 -0.6117 -10.7938 -0.4055 -3.0047 -2.3617 -5.5521 -5.3837 -6.3728 -0.6729 -0.1828 -1.4301 -0.359 -2.2732 -0.5152 0.653 -0.7006 1.0667 -1.63 1.1191 -2.6862 0.0216 -0.4324 0.0395 -0.9149 0.0516 -1.4492h-3.0182c-0.838 0 -1.5174 -0.6794 -1.5174 -1.5174s0.6794 -1.5174 1.5174 -1.5174h3.0182c-0.0121 -0.5344 -0.03 -1.0168 -0.0516 -1.4493 -0.1121 -2.2607 -1.88 -3.9412 -4.1061 -4.0375 -1.0186 -0.0441 -2.3163 -0.0771 -3.9186 -0.0771s-2.9 0.033 -3.9186 0.0771c-2.226 0.0964 -3.9939 1.7768 -4.1061 4.0375 -0.0403 0.8097 -0.0682 1.7941 -0.0682 2.9667s0.0279 2.1571 0.0682 2.9667c0.0524 1.0561 0.4661 1.9855 1.1191 2.6861 -0.843 0.1562 -1.6002 0.3324 -2.2731 0.5152 -3.022 0.8207 -4.9783 3.3681 -5.3838 6.3729 -0.3224 2.3889 -0.6117 5.8967 -0.6117 10.7937 0 5.5867 0.3766 9.2734 0.7504 11.5576 0.3859 2.3579 2.2452 3.9886 4.5788 4.2034 2.0082 0.1847 5.1416 0.3573 9.845 0.3573s7.8369 -0.1726 9.845 -0.3573c2.3336 -0.2148 4.193 -1.8455 4.5788 -4.2033 0.3739 -2.2843 0.7504 -5.971 0.7504 -11.5577Z" clip-rule="evenodd" stroke-width="1"></path></g></svg>