<svg xmlns="http://www.w3.org/2000/svg" fill="none" viewBox="0 0 48 48" id="Star-1--Streamline-Plump"><desc>Star 1 Streamline Icon: https://streamlinehq.com</desc><g id="Solid/Interface Essential/Bookmark Favorite/star-1--reward-rating-rate-social-star-media-favorite-like-stars"><path id="Union" fill="#000000" d="M27.855 3.998c-1.7489 -2.90619 -5.9623 -2.90619 -7.7112 0l-5.1678 8.5871c-0.2095 0.348 -0.5511 0.5962 -0.9468 0.6879l-9.76376 2.2613c-3.304406 0.7653 -4.606401 4.7724 -2.38291 7.3338l6.56989 7.5685c0.26626 0.3067 0.39675 0.7083 0.36163 1.113l-0.86654 9.9846c-0.29327 3.3792 3.11539 5.8557 6.23859 4.5326l9.2282 -3.9096c0.374 -0.1584 0.7962 -0.1584 1.1702 0l9.2283 3.9096c3.1231 1.3231 6.5318 -1.1534 6.2385 -4.5326l-0.8665 -9.9846c-0.0352 -0.4047 0.0953 -0.8063 0.3616 -1.113l6.5699 -7.5685c2.2235 -2.5614 0.9215 -6.5685 -2.3829 -7.3338l-9.7638 -2.2613c-0.3957 -0.0917 -0.7373 -0.3399 -0.9468 -0.6879L27.855 3.998Z" stroke-width="1"></path></g></svg>