<svg xmlns="http://www.w3.org/2000/svg" fill="none" viewBox="0 0 48 48" id="Star-Medal-1--Streamline-Plump"><desc>Star Medal 1 Streamline Icon: https://streamlinehq.com</desc><g id="Solid/Interface Essential/Trophy Award/star-medal-1--ribbon-reward-like-social-rating-media"><path id="Union" fill="#000000" fill-rule="evenodd" d="m34.9918 1.13967 -0.0571 0.0894c-0.3454 0.54023 -0.8524 1.32859 -1.4956 2.31588 -1.2869 1.97508 -3.1176 4.74373 -5.2894 7.91315l-0.1329 0.1938c-1.1973 -0.0912 -2.5465 -0.1519 -4.0174 -0.1519 -1.4708 0 -2.82 0.0607 -4.0173 0.1519l-0.1329 -0.1938c-2.1718 -3.16942 -4.0024 -5.93807 -5.2893 -7.91315 -0.6433 -0.98729 -1.1503 -1.77565 -1.4957 -2.31588l-0.0571 -0.08942C15.0643 0.850562 18.6597 0.5 23.9994 0.5c5.3398 0 8.9353 0.350576 10.9924 0.63967ZM4.93861 16.5852c-0.61186 -1.0004 -0.70756 -2.2222 -0.27813 -3.3134C7.34886 6.44045 9.99961 2 9.99961 2s3.96099 6.29695 9.41759 14.106c-4.1285 1.1172 -7.6516 3.7073 -9.97064 7.1716 -2.03427 -2.7608 -3.58988 -5.1914 -4.50795 -6.6924Zm33.61399 6.6925c2.0343 -2.7608 3.5899 -5.1915 4.508 -6.6925 0.6119 -1.0004 0.7076 -2.2222 0.2781 -3.3134C40.6504 6.44045 37.9996 2 37.9996 2s-3.961 6.29697 -9.4176 14.1061c4.1285 1.1171 7.6516 3.7073 9.9706 7.1716ZM23.9995 18.5c-8.0081 0 -14.49999 6.4919 -14.49999 14.5 0 8.0081 6.49189 14.5 14.49999 14.5s14.5 -6.4919 14.5 -14.5c0 -8.0081 -6.4919 -14.5 -14.5 -14.5Zm1.1096 6.6393 1.8384 3.5444 3.8921 0.7664c0.952 0.1874 1.3368 1.3408 0.688 2.0622l-2.7581 3.0675 0.507 4.1085c0.1222 0.9895 -0.9067 1.7168 -1.7988 1.2715l-3.4782 -1.7361 -3.4782 1.7361c-0.8921 0.4453 -1.9209 -0.282 -1.7988 -1.2715l0.507 -4.1085 -2.7581 -3.0675c-0.6487 -0.7214 -0.264 -1.8748 0.688 -2.0622l3.8921 -0.7664 1.8384 -3.5444c0.4664 -0.8993 1.7528 -0.8993 2.2192 0Z" clip-rule="evenodd" stroke-width="1"></path></g></svg>