<svg xmlns="http://www.w3.org/2000/svg" fill="none" viewBox="0 0 48 48" id="Star-Square--Streamline-Plump"><desc>Star Square Streamline Icon: https://streamlinehq.com</desc><g id="Solid/Interface Essential/Bookmark Favorite/star-square--reward-social-rating-media-rate-it-star"><path id="Subtract" fill="#000000" fill-rule="evenodd" d="M45.9561 39.8643C46.2219 36.5927 46.5 31.4014 46.5 24c0 -7.4014 -0.2781 -12.5927 -0.5439 -15.86429 -0.2671 -3.28785 -2.8039 -5.82468 -6.0918 -6.09181C36.5927 1.77808 31.4015 1.5 24 1.5c-7.4014 0 -12.5927 0.27807 -15.86429 0.54388 -3.28785 0.26713 -5.82468 2.80396 -6.09181 6.09181C1.77808 11.4073 1.5 16.5985 1.5 24c0 7.4014 0.27807 12.5926 0.54389 15.8643 0.26712 3.2878 2.80395 5.8247 6.0918 6.0918C11.4073 46.2219 16.5986 46.5 24 46.5c7.4014 0 12.5927 -0.2781 15.8643 -0.5439 3.2879 -0.2671 5.8247 -2.804 6.0918 -6.0918ZM21.8399 10.7154c0.9644 -1.65568 3.3562 -1.65569 4.3206 0l3.0007 5.1519c0.2119 0.3639 0.5671 0.6219 0.9787 0.7111l5.827 1.2618c1.8726 0.4055 2.6118 2.6803 1.3351 4.1091l-3.9724 4.4458c-0.2806 0.3141 -0.4163 0.7316 -0.3739 1.1506l0.6006 5.9317c0.193 1.9063 -1.742 3.3122 -3.4954 2.5396l-5.4558 -2.4042c-0.3854 -0.1698 -0.8244 -0.1698 -1.2098 0l-5.4558 2.4042c-1.7534 0.7726 -3.6884 -0.6333 -3.4954 -2.5396l0.6006 -5.9317c0.0424 -0.419 -0.0933 -0.8365 -0.3739 -1.1506l-3.9724 -4.4458c-1.27668 -1.4288 -0.5376 -3.7036 1.3351 -4.1091l5.827 -1.2618c0.4116 -0.0892 0.7668 -0.3472 0.9787 -0.7111l3.0007 -5.1519Z" clip-rule="evenodd" stroke-width="1"></path></g></svg>