<svg xmlns="http://www.w3.org/2000/svg" fill="none" viewBox="0 0 48 48" id="Store-Phone--Streamline-Plump"><desc>Store Phone Streamline Icon: https://streamlinehq.com</desc><g id="store-phone--store-shop-shops-stores-online-mobile-phone"><path id="Union" fill="#000000" fill-rule="evenodd" d="M10.6913 1.06813c-2.49134 0.26438 -4.50064 1.95905 -5.33643 4.32091C2.59198 13.1966 3.02461 15.8743 3.02461 15.8743c0 1.959 1.7007 4.6257 4.81867 4.6257 3.11792 0 5.38562 -2.6667 5.38562 -4.6257 0 1.959 2.2676 4.6257 5.3855 4.6257C21.7324 20.5 24 17.8333 24 15.8743c0 1.959 2.2676 4.6257 5.3856 4.6257 3.1179 0 5.3855 -2.6667 5.3855 -4.6257 0 1.959 2.2677 4.6257 5.3856 4.6257 3.118 0 4.8187 -2.6667 4.8187 -4.6257 0 0 0.4326 -2.6777 -2.3303 -10.48526 -0.8358 -2.36186 -2.8451 -4.05653 -5.3364 -4.32091C34.6066 0.781389 30.3399 0.5 24 0.5s-10.6066 0.281389 -13.3087 0.56813ZM36 24.0007c0 -0.5435 -0.0011 -1.0756 -0.0033 -1.5964 1.1868 0.6672 2.596 1.0964 4.16 1.0964 0.1156 0 0.2299 -0.0023 0.343 -0.0067l0.0003 0.5067c0 7.9672 -0.2101 13.48 -0.4039 16.8705 -0.1827 3.1961 -2.5107 5.8467 -5.795 6.1772 -2.3685 0.2384 -5.7591 0.4523 -10.3011 0.4523s-7.9326 -0.2139 -10.3012 -0.4523c-3.2843 -0.3305 -5.61225 -2.9811 -5.79493 -6.1772C7.71008 37.4807 7.5 31.9679 7.5 24.0007l0.00028 -0.5067c0.11312 0.0044 0.22745 0.0067 0.343 0.0067 1.56404 0 2.97322 -0.4292 4.16002 -1.0964 -0.0022 0.5208 -0.0033 1.0529 -0.0033 1.5964 0 8.0314 0.2463 13.5906 0.4323 16.6437 0.0625 1.0255 0.7704 1.7674 1.6921 1.8742 2.0183 0.2339 5.2496 0.4821 9.8756 0.4821s7.8573 -0.2482 9.8756 -0.4821c0.9217 -0.1068 1.6296 -0.8487 1.6921 -1.8742 0.186 -3.053 0.4323 -8.6123 0.4323 -16.6437Zm-14 13c-1.1046 0 -2 0.8954 -2 2 0 1.1045 0.8954 2 2 2h4c1.1046 0 2 -0.8955 2 -2 0 -1.1046 -0.8954 -2 -2 -2h-4Z" clip-rule="evenodd" stroke-width="1"></path></g></svg>