<svg xmlns="http://www.w3.org/2000/svg" fill="none" viewBox="0 0 48 48" id="Strenght-Skills--Streamline-Plump"><desc>Strenght Skills Streamline Icon: https://streamlinehq.com</desc><g id="Solid/Entertainment/Gaming/strenght-skills--entertainment-gaming-strenght-skills"><path id="Subtract" fill="#000000" fill-rule="evenodd" d="M19.7548 1.5c-2.1604 0 -3.8672 0.12615 -5.037 0.25295 -0.585 0.0634 -1.0358 0.12697 -1.342 0.17503 -0.1532 0.02403 -0.2702 0.04419 -0.3497 0.05851 -0.0398 0.00716 -0.0703 0.01286 -0.0912 0.01686l-0.0242 0.00469 -0.0067 0.00133 -0.002 0.0004 -0.0007 0.00013 -0.0002 0.00005c-0.0001 0.00002 -0.0002 0.00004 0.0989 0.49012l-0.0991 -0.49008c-0.026 0.00526 -0.0516 0.01259 -0.0765 0.02191 -1.8787 0.70451 -3.09098 2.63554 -3.72271 4.69551 -0.63622 2.07462 -0.73296 4.42909 -0.25082 6.17729 0.38937 1.4118 1.67203 2.221 2.98133 2.458 1.5979 0.2893 4.1317 0.4672 7.261 -0.274 0.3152 -0.0747 0.6163 -0.1884 0.9035 -0.3299 -0.0427 -1.581 -0.4975 -2.5753 -1.0215 -3.1652 -0.5468 -0.6157 -1.2799 -0.9198 -2.0756 -0.9337 -0.8283 -0.0144 -1.488 -0.69761 -1.4736 -1.52591 0.0145 -0.8283 0.6976 -1.48806 1.5259 -1.47361 1.5612 0.02724 3.1153 0.64502 4.2663 1.94096 0.8002 0.90086 1.3508 2.06586 1.6109 3.46036 0.8278 3.3836 2.3569 7.3414 3.7437 10.5871 0.6481 1.5168 1.2681 2.8847 1.7762 3.9751 -7.3791 -6.6473 -15.0551 -6.9375 -20.52376 -5.5546 -3.54015 0.8953 -5.74688 4.1192 -6.07172 7.6635C1.60808 31.3198 1.5 33.1926 1.5 35.2547c0 2.2934 0.1337 4.3529 0.30381 6.0453 0.30994 3.0835 2.99385 5.208 6.03111 5.2 14.73778 -0.039 24.02838 -0.2545 29.76028 -0.4752 5.1812 -0.1995 9.0832 -4.381 8.7155 -9.5746 -0.2112 -2.9836 -0.5866 -6.2896 -1.2533 -9.0634 -1.1956 -4.9742 -4.2489 -9.9792 -7.464 -14.1861 -3.2211 -4.21467 -6.6362 -7.66875 -8.6003 -9.54298 -1.1429 -1.09057 -2.5978 -1.77848 -4.1802 -1.92625C23.5394 1.61254 21.7954 1.5 19.7548 1.5Zm-4.272 29.7444c-2.4119 -0.2297 -4.5303 0.2579 -5.65079 1.0048 -0.68931 0.4595 -1.6206 0.2732 -2.08011 -0.4161 -0.45951 -0.6893 -0.27322 -1.6206 0.41609 -2.0801 1.87951 -1.2529 4.76111 -1.7653 7.59921 -1.495 2.8763 0.2739 5.9865 1.3755 8.2934 3.6824 0.5858 0.5858 0.5859 1.5355 0.0001 2.1213 -0.5858 0.5858 -1.5355 0.5858 -2.1213 0.0001 -1.6931 -1.693 -4.0829 -2.5913 -6.4566 -2.8174Z" clip-rule="evenodd" stroke-width="1"></path></g></svg>