<svg xmlns="http://www.w3.org/2000/svg" fill="none" viewBox="0 0 48 48" id="Subtract-2--Streamline-Plump"><desc>Subtract 2 Streamline Icon: https://streamlinehq.com</desc><g id="Solid/Interface Essential/Add Remove Delete/subtract-2--delete-box-subtract-buttons-button-remove-textbox-text-add-bold-mathematics-math-minus"><path id="Union" fill="#000000" d="M24 31.5c9.8183 0 15.1515 -0.2254 17.8303 -0.4027 1.8973 -0.1256 3.9547 -1.2229 4.387 -3.5663 0.1662 -0.9008 0.2827 -2.0572 0.2827 -3.531 0 -1.4738 -0.1165 -2.6302 -0.2827 -3.531 -0.4323 -2.3434 -2.4897 -3.4407 -4.387 -3.5663C39.1515 16.7254 33.8183 16.5 24 16.5s-15.15151 0.2254 -17.83029 0.4027c-1.89728 0.1256 -3.95468 1.2229 -4.38699 3.5663C1.61653 21.3698 1.5 22.5262 1.5 24c0 1.4738 0.11652 2.6302 0.28272 3.531 0.43231 2.3433 2.48971 3.4407 4.38699 3.5663C8.84849 31.2746 14.1817 31.5 24 31.5Z" stroke-width="1"></path></g></svg>