<svg xmlns="http://www.w3.org/2000/svg" fill="none" viewBox="0 0 48 48" id="Sunset--Streamline-Plump"><desc>Sunset Streamline Icon: https://streamlinehq.com</desc><g id="sunset--sunset-sunrise"><path id="Union" fill="#000000" fill-rule="evenodd" d="M22 5.5c0 1.10457 0.8954 2 2 2s2 -0.89543 2 -2V3c0 -1.10457 -0.8954 -2 -2 -2s-2 0.89543 -2 2v2.5ZM9.14994 12.4796c0.78105 0.7811 2.04736 0.7811 2.82846 0 0.781 -0.781 0.781 -2.0473 0 -2.82838l-1.7678 -1.76777c-0.78105 -0.78105 -2.04738 -0.78105 -2.82843 0s-0.78105 2.04738 0 2.82845l1.76777 1.7677ZM8.5 24.5005c0 -8.5604 6.9396 -15.50001 15.5 -15.50001S39.5 15.9401 39.5 24.5005c0 3.4823 -1.1501 6.7003 -3.0907 9.2889 -0.3677 0.4905 -0.9598 0.7469 -1.5588 0.6919 -0.8326 -0.0765 -5.4911 -0.4808 -10.8505 -0.4808s-10.0179 0.4043 -10.8505 0.4808c-0.599 0.055 -1.1911 -0.2013 -1.5588 -0.6919C9.65014 31.2008 8.5 27.9828 8.5 24.5005Zm37 2c1.1046 0 2 -0.8954 2 -2s-0.8954 -2 -2 -2H43c-1.1046 0 -2 0.8954 -2 2s0.8954 2 2 2h2.5Zm-38.5 -2c0 1.1046 -0.89543 2 -2 2H2.5c-1.10457 0 -2 -0.8954 -2 -2s0.89543 -2 2 -2H5c1.10457 0 2 0.8954 2 2Zm29.0216 -12.0209c0.7811 0.7811 2.0474 0.7811 2.8285 0l1.7677 -1.7677c0.7811 -0.78107 0.7811 -2.0474 0 -2.82845 -0.781 -0.78105 -2.0474 -0.78105 -2.8284 0l-1.7678 1.76777c-0.781 0.78108 -0.781 2.04738 0 2.82838ZM0.01138 39.7098c0.122664 1.1654 1.18198 1.8831 2.29941 1.7694 0.48774 -0.0492 2.71287 -0.2658 6.12917 -0.4827 3.90584 -0.248 9.36254 -0.496 15.56084 -0.496 6.1983 0 11.6548 0.248 15.5604 0.496 3.4161 0.2169 5.6411 0.4335 6.1288 0.4827 1.1171 0.1137 2.1768 -0.6044 2.2994 -1.7693 0.1236 -1.1738 -0.7752 -2.0962 -1.8981 -2.2105 -0.5291 -0.0534 -2.8022 -0.2743 -6.2766 -0.4949 -3.9693 -0.252 -9.5126 -0.504 -15.8139 -0.504 -6.3013 0 -11.8448 0.252 -15.81429 0.504 -3.47458 0.2206 -5.74783 0.4415 -6.27702 0.4948 -1.122895 0.1144 -2.021653 1.0368 -1.89811 2.2105Zm14.27472 7.0383c-2.2215 0.1084 -3.7298 0.2167 -4.0624 0.2413 -1.11051 0.083 -2.12881 -0.6928 -2.21671 -1.8355 -0.08829 -1.1478 0.80727 -2.0703 1.9212 -2.1536 0.35961 -0.0266 1.90021 -0.1371 4.16301 -0.2474 2.584 -0.1261 6.118 -0.2524 9.9095 -0.2524 3.7915 0 7.3255 0.1263 9.9095 0.2524 2.2629 0.1103 3.8035 0.2208 4.163 0.2474 1.1142 0.0833 2.0095 1.0055 1.9212 2.1536 -0.0878 1.1423 -1.1064 1.9185 -2.2167 1.8355 -0.3325 -0.0246 -1.8409 -0.1329 -4.0624 -0.2413 -2.5409 -0.1239 -6.0067 -0.2476 -9.7146 -0.2476 -3.7079 0 -7.1737 0.1237 -9.7146 0.2476Z" clip-rule="evenodd" stroke-width="1"></path></g></svg>