<svg xmlns="http://www.w3.org/2000/svg" fill="none" viewBox="0 0 48 48" id="Swimming--Streamline-Plump"><desc>Swimming Streamline Icon: https://streamlinehq.com</desc><path fill="#000000" fill-rule="evenodd" d="m22.813 2.80432 0.7596 -0.0202c1.5962 -0.04246 2.8393 1.40363 2.6469 2.98882 -0.1445 1.19054 -0.2817 2.62857 -0.3411 4.13117 -0.1272 3.22469 1.6798 6.09249 4.0713 8.25939 1.6351 1.4815 3.5714 3.3939 5.3628 5.5662 0.2219 0.2503 0.4372 0.5083 0.6449 0.77 -0.6251 0.1942 -1.2267 0.4798 -1.7827 0.8569 -0.9666 0.6557 -2.0718 0.9795 -3.1747 0.9795l-3.1747 -0.9795c-2.2919 -1.5545 -5.3587 -1.5545 -7.6506 0 -0.9666 0.6557 -2.0718 0.9795 -3.1747 0.9795s-2.2081 -0.3238 -3.1747 -0.9795c-0.2508 -0.1701 -0.5109 -0.3215 -0.7782 -0.4544 0.0474 -0.0342 0.0943 -0.0677 0.1406 -0.1003 0.1085 -0.0763 0.2351 -0.1276 0.3647 -0.1555 6.166 -1.3253 7.1338 -5.5295 7.1338 -5.5295 -1.4003 -3.856 -1.5844 -9.49316 -0.55 -14.20185 0.2734 -1.24475 1.4029 -2.07685 2.6768 -2.11073Zm8.5212 10.79648c-0.0881 -3.3126 2.5258 -6.06933 5.8383 -6.15744 3.3126 -0.08811 6.0693 2.52581 6.1574 5.83834 0.0881 3.3125 -2.5258 6.0693 -5.8383 6.1574 -3.3125 0.0881 -6.0693 -2.5258 -6.1574 -5.8383ZM24 32.806c-0.0874 0 -0.1482 0.0259 -0.1766 0.0452 -2.0617 1.3984 -4.4419 2.1002 -6.8234 2.1002s-4.7617 -0.7018 -6.8234 -2.1002c-0.0284 -0.0193 -0.0892 -0.0452 -0.1766 -0.0452s-0.14819 0.0259 -0.17659 0.0452C7.76168 34.2496 5.38152 34.9514 3 34.9514c-1.38071 0 -2.5 -1.1193 -2.5 -2.5s1.11929 -2.5 2.5 -2.5c1.398 0 2.79735 -0.4111 4.01671 -1.2381 1.78354 -1.2098 4.18309 -1.2098 5.96659 0 1.2193 0.827 2.6187 1.2381 4.0167 1.2381 1.398 0 2.7974 -0.4111 4.0167 -1.2381 1.7835 -1.2098 4.1831 -1.2098 5.9666 0 1.2193 0.827 2.6187 1.2381 4.0167 1.2381 1.398 0 2.7974 -0.4111 4.0167 -1.2381 1.7835 -1.2098 4.1831 -1.2098 5.9666 0 1.2193 0.827 2.6187 1.2381 4.0167 1.2381 1.3807 0 2.5 1.1193 2.5 2.5s-1.1193 2.5 -2.5 2.5c-2.3815 0 -4.7617 -0.7018 -6.8234 -2.1002 -0.0284 -0.0193 -0.0892 -0.0452 -0.1766 -0.0452s-0.1482 0.0259 -0.1766 0.0452c-2.0617 1.3984 -4.4419 2.1002 -6.8234 2.1002s-4.7617 -0.7018 -6.8234 -2.1002c-0.0284 -0.0193 -0.0892 -0.0452 -0.1766 -0.0452Zm-0.1766 9.4915c0.0284 -0.0193 0.0892 -0.0453 0.1766 -0.0453s0.1482 0.026 0.1766 0.0453c2.0617 1.3984 4.4419 2.1002 6.8234 2.1002s4.7617 -0.7018 6.8234 -2.1002c0.0284 -0.0193 0.0892 -0.0453 0.1766 -0.0453s0.1482 0.026 0.1766 0.0453c2.0617 1.3984 4.4419 2.1002 6.8234 2.1002 1.3807 0 2.5 -1.1193 2.5 -2.5 0 -1.3808 -1.1193 -2.5 -2.5 -2.5 -1.398 0 -2.7974 -0.4111 -4.0167 -1.2382 -1.7835 -1.2097 -4.1831 -1.2097 -5.9666 0 -1.2193 0.8271 -2.6187 1.2382 -4.0167 1.2382 -1.398 0 -2.7974 -0.4111 -4.0167 -1.2382 -1.7835 -1.2097 -4.1831 -1.2097 -5.9666 0 -1.2193 0.8271 -2.6187 1.2382 -4.0167 1.2382 -1.398 0 -2.7974 -0.4111 -4.0167 -1.2382 -1.7835 -1.2097 -4.18305 -1.2097 -5.96659 0C5.79735 38.9866 4.398 39.3977 3 39.3977c-1.38071 0 -2.5 1.1192 -2.5 2.5 0 1.3807 1.11929 2.5 2.5 2.5 2.38152 0 4.76168 -0.7018 6.82341 -2.1002 0.0284 -0.0193 0.08919 -0.0453 0.17659 -0.0453 0.0874 0 0.1482 0.026 0.1766 0.0453 2.0617 1.3984 4.4419 2.1002 6.8234 2.1002s4.7617 -0.7018 6.8234 -2.1002Z" clip-rule="evenodd" stroke-width="1"></path></svg>