<svg xmlns="http://www.w3.org/2000/svg" fill="none" viewBox="0 0 48 48" id="Sword-Attack--Streamline-Plump"><desc>Sword Attack Streamline Icon: https://streamlinehq.com</desc><g id="Solid/Entertainment/Gaming/sword-attack--entertainment-gaming-sword-attack"><path id="Union" fill="#000000" fill-rule="evenodd" d="M44.4572 0.7498C41.6165 0.43586 38.783 0.474992 36.917 0.561524c-1.5404 0.071433 -2.9609 0.761606 -4.013 1.865976 -5.0233 5.27296 -10.3474 11.4424 -14.4132 16.2902 -1.7476 2.0837 -3.2636 3.9243 -4.4244 5.3461 1.1922 1.1063 2.5406 2.385 3.9645 3.7847L37.94 7.93934c0.5858 -0.58579 1.5356 -0.58579 2.1214 0 0.5857 0.58579 0.5857 1.53553 0 2.12136l-19.9091 19.909c1.3999 1.4239 2.6787 2.7722 3.785 3.9643 1.4217 -1.1608 3.2622 -2.6767 5.3457 -4.4241 4.8479 -4.0658 11.0173 -9.3899 16.2902 -14.4132 1.1044 -1.0521 1.7945 -2.4726 1.866 -4.013 0.0865 -1.866 0.1256 -4.69943 -0.1883 -7.54017 -0.163 -1.47462 -1.3191 -2.630764 -2.7937 -2.79373ZM5.10153 23.0586c1.14366 -0.9014 2.66404 -0.6348 3.66581 0.2507 1.72406 1.524 4.81266 4.3219 8.20596 7.7149 3.3933 3.393 6.1914 6.4813 7.7155 8.2051 0.8855 1.0016 1.1523 2.5219 0.2511 3.6656 -0.3611 0.4582 -0.8192 0.9566 -1.3793 1.4144 -1.1469 0.9375 -2.6966 0.5986 -3.6772 -0.2876 -1.0886 -0.9839 -2.7283 -2.4887 -4.6531 -4.3295l-0.9967 0.1424c-1.178 0.1683 -2.2696 0.7141 -3.1111 1.5555l-1.29526 1.2951c0.01893 0.8938 -0.0476 1.895 -0.27915 2.9257 -0.18159 0.8084 -0.81588 1.4223 -1.6212 1.5903 -1.18409 0.2469 -3.29349 0.5224 -5.53551 0.0189 -0.80836 -0.1816 -1.422339 -0.8158 -1.590324 -1.6212 -0.246969 -1.184 -0.522458 -3.2931 -0.018871 -5.5349 0.181592 -0.8084 0.815885 -1.4223 1.621205 -1.5902 0.70532 -0.1471 1.73203 -0.3029 2.91654 -0.3011l1.29236 -1.2922c0.84156 -0.8415 1.38748 -1.9333 1.5558 -3.1114l0.14228 -0.9959c-1.84326 -1.9269 -3.35007 -3.5685 -4.33503 -4.6581 -0.88644 -0.9807 -1.22537 -2.5306 -0.2877 -3.6776 0.45764 -0.5599 0.95579 -1.0179 1.41389 -1.3789Z" clip-rule="evenodd" stroke-width="1"></path></g></svg>