<svg xmlns="http://www.w3.org/2000/svg" fill="none" viewBox="0 0 48 48" id="Table-Lamp-1--Streamline-Plump"><desc>Table Lamp 1 Streamline Icon: https://streamlinehq.com</desc><g id="Solid/Interface Essential/Lighting/table-lamp-1--lighting-light-incandescent-bulb-lights-table-lamp"><path id="Union" fill="#000000" fill-rule="evenodd" d="M12.6914 3.19831c0.9422 -1.30773 2.5412 -1.91798 4.106 -1.59962 0.6397 0.13014 1.4392 0.30922 2.3622 0.54941 0.9335 0.24294 1.7254 0.47871 2.3499 0.67815 1.4994 0.47889 2.6017 1.76952 2.7809 3.37 0.1503 1.34164 0.2856 3.40261 0.1422 5.93205 2.2775 2.7185 3.4213 6.314 2.9697 10.0034 -0.2398 1.959 -2.0956 3.0283 -3.8096 2.72 -1.8851 -0.3391 -5.2485 -1.0183 -10.0284 -2.2622 -4.73354 -1.2319 -7.97911 -2.2689 -9.79684 -2.8929 -1.68317 -0.5778 -2.78427 -2.4809 -1.96119 -4.3243 1.53155 -3.43 4.40923 -5.98066 7.80918 -7.19698C10.7876 5.9712 11.9121 4.27978 12.6914 3.19831Zm14.083 2.71998c0.1411 1.25969 0.2674 3.07887 0.2 5.29031 1.1039 0.4378 2.092 1.0772 2.9661 1.9157 1.8432 1.768 3.2947 4.5336 4.1406 8.4863 0.7951 3.7156 -0.0689 7.8376 -1.7874 11.7127 -0.8177 1.844 -1.8136 3.5966 -2.8739 5.1765 -0.1388 -0.0003 -0.2788 -0.0004 -0.42 -0.0004 -6.41 0 -10.3308 0.3003 -12.6387 0.595 -1.0918 0.1394 -2.259 0.5266 -3.1876 1.2409 -0.9623 0.7401 -1.6991 1.8706 -1.6728 3.3472 0.0015 0.0833 0.005 0.1671 0.0108 0.2511 0.0672 0.9772 0.6294 1.6722 1.2837 2.0683 0.6101 0.3694 1.3087 0.4975 1.9081 0.4975h28.593c0.5994 0 1.298 -0.1281 1.9081 -0.4974 0.6543 -0.3961 1.2165 -1.0911 1.2838 -2.0683 0.0058 -0.0838 0.0094 -0.1675 0.0109 -0.2507 0.0265 -1.4768 -0.7103 -2.6074 -1.6726 -3.3476 -0.9287 -0.7143 -2.096 -1.1016 -3.1878 -1.241 -0.5599 -0.0715 -1.2147 -0.1433 -1.9769 -0.2111 2.6134 -5.7125 3.6899 -12.5506 2.0823 -19.2347 -1.9445 -8.0848 -8.2339 -12.60093 -14.9795 -13.81364 0.0034 0.02772 0.0067 0.05549 0.0098 0.08333Z" clip-rule="evenodd" stroke-width="1"></path></g></svg>