<svg xmlns="http://www.w3.org/2000/svg" fill="none" viewBox="0 0 48 48" id="Tag--Streamline-Plump"><desc>Tag Streamline Icon: https://streamlinehq.com</desc><g id="Solid/Interface Essential/Bookmark Favorite/tag--tags-bookmark-favorite"><path id="Subtract" fill="#000000" fill-rule="evenodd" d="M29.573 0.4898c-2.2477 -0.1067 -4.4228 0.6633 -6.1129 2.1293 -2.2567 1.9573 -6.1261 5.4435 -11.1415 10.4587C7.4615 17.935 4.0385 21.7175 2.0495 24.001 0.3824 25.9148 0.0069 28.6919 1.408 30.9462c1.3312 2.1417 3.5367 5.2749 6.8085 8.716 3.4328 3.6103 6.7345 5.8585 8.9604 7.1326 2.1929 1.2552 4.7822 0.8016 6.5705 -0.7503 2.2613 -1.9626 6.1178 -5.4392 11.1083 -10.4299 5.0153 -5.0152 8.5014 -8.8849 10.4587 -11.1416 1.4659 -1.6901 2.2357 -3.8652 2.129 -6.1128 -0.1313 -2.7682 -0.4663 -7.1896 -1.3256 -11.6912 -0.4703 -2.4635 -2.3903 -4.3836 -4.8538 -4.8538C36.7624 0.956 32.3411 0.6211 29.573 0.4898ZM31.2277 12.63c0 -2.2507 1.8245 -4.0752 4.0752 -4.0752 2.2506 0 4.0752 1.8245 4.0752 4.0752 0 2.2506 -1.8246 4.0751 -4.0752 4.0751 -2.2507 0 -4.0752 -1.8245 -4.0752 -4.0751Z" clip-rule="evenodd" stroke-width="1"></path></g></svg>