<svg xmlns="http://www.w3.org/2000/svg" fill="none" viewBox="0 0 48 48" id="Tag-New-Square--Streamline-Plump"><desc>Tag New Square Streamline Icon: https://streamlinehq.com</desc><g id="tag-new-square"><path id="Subtract" fill="#000000" fill-rule="evenodd" d="M7.11291 4.11866C10.4986 3.81815 15.9771 3.5 24 3.5s13.5014 0.31815 16.8871 0.61866c3.2889 0.29193 5.7871 2.85964 6.0658 6.12164 0.2663 3.1175 0.5471 7.8138 0.5471 13.7596 0 5.9459 -0.2808 10.6423 -0.5471 13.7597 -0.2787 3.2621 -2.7769 5.8298 -6.0658 6.1217 -3.3857 0.3006 -8.8643 0.6187 -16.8871 0.6187s-13.5014 -0.3181 -16.88708 -0.6187c-3.2889 -0.2919 -5.78714 -2.8596 -6.06582 -6.1217C0.780777 34.6422 0.5 29.9458 0.5 23.9999c0 -5.9458 0.280774 -10.6421 0.5471 -13.7596 0.27867 -3.262 2.77691 -5.82971 6.06581 -6.12164ZM37.0782 31.415c0.8966 0 1.6602 -0.6517 1.801 -1.5371l1.8522 -11.642c0.1301 -0.8181 -0.4276 -1.5869 -1.2457 -1.717 -0.8182 -0.1302 -1.5869 0.4275 -1.7171 1.2456l-0.8223 5.1691 -0.7758 -3.8789c-0.1711 -0.8555 -0.9223 -1.4713 -1.7948 -1.4713 -0.8724 0 -1.6236 0.6158 -1.7947 1.4713l-0.7758 3.8788 -0.8223 -5.169c-0.1302 -0.8181 -0.8989 -1.3758 -1.7171 -1.2456 -0.8181 0.1301 -1.3758 0.8989 -1.2457 1.717l1.8522 11.642c0.1409 0.8854 0.9044 1.5371 1.801 1.5371 0.8693 0 1.6178 -0.6136 1.7882 -1.466l0.9143 -4.571 0.9142 4.571c0.1705 0.8524 0.9189 1.466 1.7882 1.466ZM11.1155 17.4662c-0.2921 -0.6428 -0.993 -0.9948 -1.68305 -0.8453 -0.69005 0.1495 -1.18245 0.7599 -1.18245 1.466v11.9148c0 0.8284 0.67157 1.5 1.5 1.5 0.8284 0 1.5 -0.6716 1.5 -1.5v-4.9899l2.5503 5.6106c0.2921 0.6428 0.993 0.9948 1.6831 0.8453 0.69 -0.1495 1.1824 -0.7599 1.1824 -1.466V18.0869c0 -0.8284 -0.6716 -1.5 -1.5 -1.5s-1.5 0.6716 -1.5 1.5v4.9899l-2.5503 -5.6106Zm7.9879 -0.44c0.2813 -0.2813 0.6628 -0.4393 1.0607 -0.4393h5.4158c0.8284 0 1.5 0.6716 1.5 1.5s-0.6716 1.5 -1.5 1.5h-3.9158v2.4158h2.8326c0.8284 0 1.5 0.6716 1.5 1.5 0 0.8285 -0.6716 1.5 -1.5 1.5h-2.8326v3.499h3.9158c0.8284 0 1.5 0.6716 1.5 1.5s-0.6716 1.5 -1.5 1.5h-5.4158c-0.8285 0 -1.5 -0.6716 -1.5 -1.5V18.0869c0 -0.3978 0.158 -0.7794 0.4393 -1.0607Z" clip-rule="evenodd" stroke-width="1"></path></g></svg>