<svg xmlns="http://www.w3.org/2000/svg" fill="none" viewBox="0 0 48 48" id="Tag-Empty--Streamline-Plump"><desc>Tag Empty Streamline Icon: https://streamlinehq.com</desc><g id="Solid/Interface Essential/Add Remove Delete/tag-empty"><path id="Union" fill="#000000" d="M19.0925 5.5c-5.7585 0 -9.94957 0.2764 -12.65013 0.5425 -2.88994 0.28477 -5.18275 2.41962 -5.476492 5.3873C0.724485 13.8686 0.500022 17.6899 0.5 23.4751c-0.000023 5.9947 0.241001 10.1257 0.49051 12.7966 0.28937 3.0977 2.67436 5.4224 5.74108 5.7138 2.70683 0.2571 6.80411 0.5145 12.36091 0.5145 6.9082 0 11.489 -0.3978 13.9666 -0.6988 1.6832 -0.2046 3.3071 -0.8838 4.5976 -2.096 2.1403 -2.0103 5.8087 -6.0809 8.6321 -12.4696 0.9311 -2.1068 0.9269 -4.5157 -0.0161 -6.6191 -2.8217 -6.2941 -6.4809 -10.3283 -8.6163 -12.32597 -1.2914 -1.20811 -2.914 -1.88715 -4.5973 -2.09169C30.5815 5.89778 26.0007 5.5 19.0925 5.5Z" stroke-width="1"></path></g></svg>