<svg xmlns="http://www.w3.org/2000/svg" fill="none" viewBox="0 0 48 48" id="Tailless-Line-Arrow-Left-1--Streamline-Plump"><desc>Tailless Line Arrow Left 1 Streamline Icon: https://streamlinehq.com</desc><g id="Solid/Arrows/Tailless Line arrow/tailless-line-arrow-left-1--arrow-keyboard-left"><path id="Union" fill="#000000" fill-rule="evenodd" d="M23.6359 23.658c-0.1687 0.1892 -0.1688 0.474 -0.0004 0.6635 1.2506 1.407 6.349 7.1369 12.8213 14.3299 0.9923 1.1027 1.5795 2.5872 0.9112 3.9117 -0.2958 0.5864 -0.7304 1.2393 -1.3688 1.8922 -0.743 0.76 -1.486 1.2375 -2.1264 1.5377 -1.1491 0.5386 -2.4294 0.1139 -3.4287 -0.6682 -6.9655 -5.4515 -13.8428 -13.2647 -17.5771 -17.7673 -1.7266 -2.0818 -1.7271 -5.0546 -0.0006 -7.1365 3.7345 -4.5035 10.6132 -12.31646 17.5799 -17.75081 0.9976 -0.77822 2.2742 -1.20029 3.4204 -0.66452 0.6418 0.29999 1.3871 0.77819 2.1325 1.54047 0.6379 0.65246 1.0724 1.30493 1.3684 1.891 0.669 1.32487 0.0819 2.81023 -0.911 3.91338C29.9854 16.5399 24.8873 22.2542 23.6359 23.658Z" clip-rule="evenodd" stroke-width="1"></path></g></svg>