<svg xmlns="http://www.w3.org/2000/svg" fill="none" viewBox="0 0 48 48" id="Tailless-Line-Arrow-Right-1--Streamline-Plump"><desc>Tailless Line Arrow Right 1 Streamline Icon: https://streamlinehq.com</desc><g id="Solid/Arrows/Tailless Line arrow/tailless-line-arrow-right-1--arrow-right-keyboard"><path id="Union" fill="#000000" fill-rule="evenodd" d="M24.3638 24.3419c0.1687 -0.1893 0.1689 -0.4741 0.0005 -0.6636 -1.2506 -1.4069 -6.3491 -7.1369 -12.8214 -14.32981 -0.9923 -1.10279 -1.57941 -2.58726 -0.9112 -3.91174 0.2959 -0.58642 0.7305 -1.23935 1.3688 -1.89222 0.7431 -0.75994 1.486 -1.23753 2.1264 -1.53768 1.1492 -0.53858 2.4294 -0.11394 3.4288 0.66823C24.5212 8.12654 31.3985 15.9398 35.1328 20.4423c1.7266 2.0818 1.727 5.0546 0.0006 7.1365 -3.7346 4.5035 -10.6132 12.3165 -17.5799 17.7509 -0.9977 0.7782 -2.2742 1.2002 -3.4205 0.6645 -0.6418 -0.3 -1.3871 -0.7782 -2.1324 -1.5405 -0.6379 -0.6525 -1.0725 -1.3049 -1.3684 -1.891 -0.66906 -1.3249 -0.082 -2.8102 0.911 -3.9134 6.4712 -7.1894 11.5692 -12.9036 12.8206 -14.3074Z" clip-rule="evenodd" stroke-width="1"></path></g></svg>