<svg xmlns="http://www.w3.org/2000/svg" fill="none" viewBox="0 0 48 48" id="Tailless-Line-Arrow-Down-1--Streamline-Plump"><desc>Tailless Line Arrow Down 1 Streamline Icon: https://streamlinehq.com</desc><g id="Solid/Arrows/Tailless Line arrow/tailless-line-arrow-down-1--arrow-down-keyboard"><path id="Union" fill="#000000" fill-rule="evenodd" d="M24.3429 24.3653c-0.1893 0.1687 -0.4741 0.1689 -0.6636 0.0004 -1.407 -1.2506 -7.1369 -6.349 -14.32983 -12.8213 -1.10279 -0.9923 -2.58726 -1.57945 -3.91174 -0.9112 -0.58643 0.2959 -1.23935 0.7304 -1.89222 1.3688 -0.75995 0.743 -1.23754 1.486 -1.53768 2.1264 -0.53858 1.1491 -0.11394 2.4294 0.66823 3.4288C8.12752 24.5226 15.9408 31.3999 20.4433 35.1343c2.0818 1.7266 5.0546 1.727 7.1365 0.0006 4.5035 -3.7346 12.3165 -10.6133 17.7508 -17.58 0.7783 -0.9976 1.2003 -2.2742 0.6646 -3.4204 -0.3 -0.6418 -0.7782 -1.3871 -1.5405 -2.1324 -0.6525 -0.638 -1.3049 -1.0725 -1.891 -1.3685 -1.3249 -0.669 -2.8102 -0.0819 -3.9134 0.9111 -7.1894 6.4712 -12.9037 11.5692 -14.3074 12.8206Z" clip-rule="evenodd" stroke-width="1"></path></g></svg>