<svg xmlns="http://www.w3.org/2000/svg" fill="none" viewBox="0 0 48 48" id="Take-Off--Streamline-Plump"><desc>Take Off Streamline Icon: https://streamlinehq.com</desc><g id="travel-airport-take-off--travel-plane-adventure-airplane-take-off"><path id="Union" fill="#000000" fill-rule="evenodd" d="M13.6646 15.8248c2.1846 -0.9799 4.9091 -2.6784 7.8101 -4.4886l0.0123 -0.0076c2.6778 -1.6709 5.4927 -3.4273 8.1006 -4.7378 2.5905 -1.3018 5.0719 -2.2149 7.0564 -2.0972 3.6785 0.2182 6.4879 2.7769 8.1742 4.8248 1.3995 1.6997 0.5763 4.0658 -1.3311 4.8996 -3.3363 1.4584 -6.8079 2.8501 -10.1935 4.1339 -1.3036 3.9106 -2.6345 7.0201 -3.4065 8.7176 -0.4587 1.009 -1.1941 1.9076 -2.2301 2.4206 -0.7108 0.352 -1.656 0.7391 -2.7258 0.9681 -0.7646 0.1635 -1.4539 -0.1094 -1.9157 -0.6101 -0.4549 -0.4932 -0.6876 -1.2008 -0.603 -1.9334 0.1761 -1.5232 0.4532 -3.6839 0.8332 -5.9499 -4.7068 1.609 -8.6257 2.841 -10.8787 3.5316 -1.4488 0.444 -3.0131 -0.0845 -3.8624 -1.3679 -1.1738 -1.774 -3.0103 -4.7383 -4.7677 -8.3556 -0.5414 -1.1142 -0.2187 -2.5523 0.97 -3.1411 0.833 -0.4126 1.5822 -0.6571 2.1067 -0.7966 0.6159 -0.1637 1.2409 -0.0244 1.7452 0.2976 1.4108 0.9006 2.7466 1.8721 3.728 2.6169 0.4913 0.3727 0.8948 0.6896 1.1759 0.9135 0.0766 0.0611 0.1442 0.1152 0.2019 0.1616ZM3.0982 36.7454c2.5703 -0.0886 8.6634 -0.2348 20.9018 -0.2348 12.2384 0 18.3315 0.1462 20.9018 0.2348 1.1261 0.0389 2.3443 0.6221 2.5342 1.9627 0.0515 0.3634 0.084 0.795 0.084 1.3055s-0.0325 0.9421 -0.084 1.3055c-0.1899 1.3407 -1.4081 1.9239 -2.5342 1.9627 -2.5703 0.0887 -8.6634 0.2348 -20.9018 0.2348s-18.3315 -0.1461 -20.9018 -0.2348C1.9721 43.243 0.7539 42.6598 0.564 41.3191c-0.0515 -0.3634 -0.084 -0.7949 -0.084 -1.3055s0.0325 -0.9421 0.084 -1.3055c0.1899 -1.3406 1.4081 -1.9238 2.5342 -1.9627Z" clip-rule="evenodd" stroke-width="1"></path></g></svg>