<svg xmlns="http://www.w3.org/2000/svg" fill="none" viewBox="0 0 48 48" id="Target--Streamline-Plump"><desc>Target Streamline Icon: https://streamlinehq.com</desc><g id="Solid/Business/Marketing strategy/target--shop-bullseye-arrow-target"><path id="Union" fill="#000000" fill-rule="evenodd" d="m29.2133 9.32899 0.2123 1.58421 -6.2365 6.9835c-1.73 1.9372 -1.6467 4.8881 0.1898 6.7246 1.8365 1.8366 4.7874 1.9199 6.7246 0.1898l6.9835 -6.2365 1.5842 0.2123c1.7642 0.2364 3.5423 -0.3227 4.8537 -1.5261l1.4756 -1.3541C45.969 18.4181 46.5 21.1471 46.5 24c0 12.4264 -10.0736 22.5 -22.5 22.5S1.5 36.4264 1.5 24 11.5736 1.5 24 1.5c2.853 0 5.582 0.53101 8.0935 1.49958l-1.3542 1.47576c-1.2034 1.31145 -1.7624 3.08951 -1.526 4.85365ZM24 9.5C15.9919 9.5 9.5 15.9919 9.5 24c0 8.0081 6.4919 14.5 14.5 14.5 8.0081 0 14.5 -6.4919 14.5 -14.5 0 -0.8284 0.6716 -1.5 1.5 -1.5s1.5 0.6716 1.5 1.5c0 9.665 -7.835 17.5 -17.5 17.5S6.5 33.665 6.5 24 14.335 6.5 24 6.5c0.8284 0 1.5 0.67157 1.5 1.5s-0.6716 1.5 -1.5 1.5Zm-3.2489 8.8687c0.7171 -0.4149 0.9621 -1.3324 0.5473 -2.0495 -0.4148 -0.7171 -1.3324 -0.9622 -2.0495 -0.5474C16.4133 17.4122 14.5 20.4818 14.5 24c0 5.2467 4.2533 9.5 9.5 9.5 3.5182 0 6.5878 -1.9133 8.2282 -4.7489 0.4148 -0.7171 0.1697 -1.6347 -0.5474 -2.0495 -0.7171 -0.4148 -1.6346 -0.1698 -2.0495 0.5473C28.5052 29.1957 26.404 30.5 24 30.5c-3.5899 0 -6.5 -2.9102 -6.5 -6.5 0 -2.404 1.3043 -4.5052 3.2511 -5.6313ZM38.4907 2.71743c-0.2147 -0.75152 -1.1699 -0.97727 -1.6983 -0.40139l-3.8427 4.18761c-0.6017 0.65573 -0.8812 1.54475 -0.763 2.42682l0.3956 2.95183 -7.1556 8.0127c-0.6702 0.7504 -0.638 1.8936 0.0735 2.605 0.7114 0.7114 1.8546 0.7437 2.605 0.0735l8.0127 -7.1557 2.9517 0.3956c0.8821 0.1183 1.7712 -0.1613 2.4269 -0.763l4.1875 -3.8428c0.5759 -0.5284 0.3501 -1.48356 -0.4014 -1.69828L40 8l-1.5093 -5.28257Z" clip-rule="evenodd" stroke-width="1"></path></g></svg>