<svg xmlns="http://www.w3.org/2000/svg" fill="none" viewBox="0 0 48 48" id="Temporary-Lock--Streamline-Plump"><desc>Temporary Lock Streamline Icon: https://streamlinehq.com</desc><path fill="#000000" fill-rule="evenodd" d="M18.7322 16.3447c-1.8347 0 -3.5083 0.0142 -5.0271 0.0382l0.2899 -4.9272c0.1475 -2.50782 2.2242 -4.46598 4.7363 -4.46598 2.5122 0 4.5889 1.95816 4.7364 4.46598l0.2899 4.9272c-1.5183 -0.024 -3.1914 -0.0382 -5.0254 -0.0382Zm11.5564 -5.7729 0.5021 6.0251c0.3792 0.0182 0.7357 0.0367 1.0698 0.0551 2.3678 0.1304 4.26 1.8858 4.4743 4.3193 0.0119 0.1349 0.0237 0.2734 0.0353 0.4156 -0.2116 -0.0092 -0.4243 -0.0139 -0.6382 -0.0139 -7.9806 0 -14.4502 6.4696 -14.4502 14.4502 0 2.0481 0.4261 3.9967 1.1945 5.7619 -1.1647 0.0133 -2.4119 0.0208 -3.744 0.0208 -6.0576 0 -10.35946 -0.1547 -13.12827 -0.3072 -2.36781 -0.1305 -4.25992 -1.8859 -4.47428 -4.3193 -0.168848 -1.9169 -0.311779 -4.5574 -0.311779 -8.0041 0 -3.4467 0.142932 -6.0872 0.311779 -8.004 0.21436 -2.4335 2.10648 -4.1889 4.47428 -4.3193 0.33362 -0.0184 0.68951 -0.0368 1.06803 -0.055l0.50211 -6.0252C7.6378 5.00694 12.2897 0.726562 17.8738 0.726562h1.7151c5.5841 0 10.236 4.280378 10.6997 9.845238Zm5.4433 13.8012c0.2765 0 0.5507 0.0098 0.8222 0.0291 5.94 0.4215 10.628 5.3738 10.628 11.4211 0 6.3238 -5.1264 11.4502 -11.4502 11.4502 -4.2467 0 -7.9534 -2.3119 -9.9303 -5.7457 -0.9668 -1.6795 -1.5199 -3.6274 -1.5199 -5.7045 0 -6.3237 5.1265 -11.4502 11.4502 -11.4502Zm1.5 5.9502c0 -0.8284 -0.6715 -1.5 -1.5 -1.5 -0.8284 0 -1.5 0.6716 -1.5 1.5v5.5c0 0.3979 0.1581 0.7794 0.4394 1.0607l3.5 3.5c0.5858 0.5858 1.5355 0.5858 2.1213 0 0.5858 -0.5858 0.5858 -1.5355 0 -2.1213l-3.0607 -3.0607v-4.8787Z" clip-rule="evenodd" stroke-width="1"></path></svg>