<svg xmlns="http://www.w3.org/2000/svg" fill="none" viewBox="0 0 48 48" id="Theater-Mask--Streamline-Plump"><desc>Theater Mask Streamline Icon: https://streamlinehq.com</desc><g id="theater-mask--hobby-theater-masks-drama-event-show-entertainment-travel-places"><path id="Union" fill="#000000" fill-rule="evenodd" d="M19 1.5c-7.3508 0 -11.38635 0.52234 -13.55291 1.00148 -2.04834 0.453 -3.20388 2.17268 -3.414 3.98422C1.79719 8.51954 1.5 11.8615 1.5 15.8c0 5.8827 2.36133 11.5108 6.55125 15.4457 -0.61814 -3.4512 -0.47116 -7.0509 0.45664 -10.5135 1.05053 -3.9206 2.23681 -7.1656 3.01631 -9.1329 0.972 -2.45291 3.3723 -4.69121 6.7634 -4.5414 2.4654 0.10892 6.6912 0.69505 13.887 2.62314 1.5343 0.41116 2.9212 0.80756 4.175 1.18796 -0.1069 -1.77362 -0.2539 -3.27328 -0.3827 -4.3833 -0.2101 -1.81154 -1.3657 -3.53122 -3.414 -3.98422C30.3863 2.02234 26.3508 1.5 19 1.5Zm-0.822 8.05524c2.2168 0.09793 6.25 0.63786 13.3503 2.54036 7.1004 1.9026 10.8632 3.4516 12.832 4.4751 1.8612 0.9678 2.5323 2.9279 2.2664 4.7321 -0.2985 2.0256 -0.8764 5.3306 -1.8958 9.1349 -2.003 7.4755 -7.8396 13.4675 -15.4904 15.1262 -2.3606 0.5118 -4.9126 0.837 -6.7708 0.3391 -1.8582 -0.4979 -3.9057 -2.0555 -5.6942 -3.679 -5.7964 -5.2619 -7.85503 -13.3694 -5.852 -20.845 1.0194 -3.8042 2.1714 -6.9554 2.9257 -8.8589 0.6718 -1.6954 2.233 -3.05745 4.3288 -2.96486Zm8.3587 14.17316c0.8922 -0.3717 1.3141 -1.3963 0.9423 -2.2884 -0.9809 -2.3544 -3.3548 -3.3521 -5.4249 -3.3521 -2.07 0 -4.4439 0.9977 -5.4249 3.3521 -0.3717 0.8921 0.0502 1.9167 0.9423 2.2884 0.8922 0.3717 1.9168 -0.0501 2.2885 -0.9423 0.283 -0.6792 1.0866 -1.1982 2.1941 -1.1982 1.1075 0 1.9112 0.519 2.1942 1.1982 0.3717 0.8922 1.3963 1.314 2.2884 0.9423Zm3.5038 0.9396c-0.5868 -0.768 -0.4399 -1.8662 0.3281 -2.453 2.0267 -1.5484 4.5814 -1.2256 6.3742 -0.1905 1.7927 1.035 3.3497 3.086 3.022 5.6154 -0.1241 0.9585 -1.0018 1.6349 -1.9602 1.5107 -0.9585 -0.1241 -1.6349 -1.0018 -1.5108 -1.9603 0.0946 -0.7297 -0.3419 -1.581 -1.301 -2.1347 -0.9591 -0.5538 -1.9146 -0.5061 -2.4993 -0.0594 -0.768 0.5867 -1.8663 0.4398 -2.453 -0.3282Zm-8.8479 5.163c-0.1405 -0.9563 -1.0296 -1.6175 -1.9859 -1.4769 -0.9562 0.1405 -1.6174 1.0296 -1.4769 1.9859 0.2787 1.8958 1.0812 3.8767 2.1506 5.487 1.0332 1.5559 2.5216 3.0698 4.3365 3.5561 1.8148 0.4863 3.8607 -0.0806 5.5335 -0.9114 1.7312 -0.8599 3.4166 -2.1742 4.6059 -3.6766 0.5999 -0.7578 0.4719 -1.8584 -0.2859 -2.4583 -0.7578 -0.5999 -1.8584 -0.4719 -2.4583 0.2859 -0.8391 1.06 -2.1035 2.0611 -3.4186 2.7143 -1.3737 0.6823 -2.4708 0.8261 -3.0708 0.6654 -0.5999 -0.1608 -1.4782 -0.8339 -2.3267 -2.1116 -0.8124 -1.2233 -1.4068 -2.7225 -1.6034 -4.0598Z" clip-rule="evenodd" stroke-width="1"></path></g></svg>