<svg xmlns="http://www.w3.org/2000/svg" fill="none" viewBox="0 0 48 48" id="Tickets--Streamline-Plump"><desc>Tickets Streamline Icon: https://streamlinehq.com</desc><g id="Solid/Religion/Tickets/ticket-1--hobby-ticket-event-entertainment-stub-theater-entertainment-culture"><path id="Union" fill="#000000" fill-rule="evenodd" d="M18.4948 4.90486c-0.9294 2.78929 -2.3784 7.50944 -4.4375 15.19404 -2.0591 7.6847 -3.1643 12.497 -3.7541 15.3772 -0.59664 2.9137 0.8024 5.7929 3.703 6.872 0.5882 0.2189 1.2625 0.4579 2.0333 0.7159 1.5935 0.5334 3.0785 -0.2195 3.9633 -1.0454 1.0604 -0.9896 2.5771 -1.4199 4.0609 -1.0223 1.4839 0.3976 2.5822 1.5286 3.0057 2.9159 0.3533 1.1576 1.2629 2.5521 2.9096 2.887 0.7972 0.1621 1.5012 0.2924 2.1205 0.397 3.0516 0.5157 5.7027 -1.2782 6.6429 -4.0998 0.9293 -2.7893 2.3783 -7.5095 4.4374 -15.1941 2.0591 -7.6846 3.1643 -12.4969 3.7541 -15.3772 0.5967 -2.91365 -0.8024 -5.7928 -3.703 -6.87198 -0.5886 -0.21902 -1.2635 -0.45819 -2.035 -0.71642 -1.5935 -0.53337 -3.0785 0.2196 -3.9633 1.04544 -1.0604 0.98968 -2.577 1.42006 -4.0609 1.02245 -1.4839 -0.3976 -2.5822 -1.52861 -3.0057 -2.91588 -0.3534 -1.15761 -1.2629 -2.55219 -2.9097 -2.88699 -0.7964 -0.16194 -1.4998 -0.292114 -2.1187 -0.396693C22.0861 0.28934 19.4349 2.08323 18.4948 4.90486ZM31.9817 16.5876c-0.2613 -1.1873 -1.7524 -1.5868 -2.5723 -0.6893l-2.7247 2.9823 -3.9699 -0.2679c-1.1616 -0.0784 -1.9658 1.1389 -1.4379 2.1767l1.8794 3.6949 -1.5687 3.8758c-0.4489 1.1091 0.5178 2.2716 1.6901 2.0325l3.836 -0.7821 2.931 2.5953c0.8958 0.7932 2.3142 0.2698 2.48 -0.9151l0.5793 -4.1409 3.4751 -2.2602c0.9761 -0.6348 0.8883 -2.0911 -0.1569 -2.604l-3.572 -1.753 -0.8685 -3.945ZM15.6486 3.95651c0.1133 -0.34 0.2446 -0.671 0.3928 -0.9917 -0.4748 0.41054 -1.0464 0.72196 -1.6933 0.89528 -1.4838 0.39761 -3.0005 -0.03277 -4.0609 -1.02245 -0.88484 -0.82584 -2.36982 -1.57881 -3.96333 -1.04544 -0.77259 0.2586 -1.44682 0.49845 -2.03443 0.71708C1.38936 3.58827 -0.0108669 6.46642 0.585894 9.38061 1.17569 12.2608 2.28072 17.074 4.33983 24.7587c0.17865 0.6667 0.3527 1.3111 0.52221 1.9338 0.50853 1.8682 0.97622 3.5415 1.40466 5.0381l0.00531 0.0181c0.37029 1.2931 0.71127 2.4542 1.02399 3.4952 0.02027 -0.1233 0.043 -0.2466 0.06821 -0.3696 0.60501 -2.9546 1.72553 -7.8273 3.79529 -15.5519 2.0698 -7.7245 3.5358 -12.50469 4.4891 -15.36589Z" clip-rule="evenodd" stroke-width="1"></path></g></svg>