<svg xmlns="http://www.w3.org/2000/svg" fill="none" viewBox="0 0 48 48" id="Tiktok-Logo--Streamline-Plump"><desc>Tiktok Logo Streamline Icon: https://streamlinehq.com</desc><g id="tiktok-logo"><path id="Union" fill="#000000" fill-rule="evenodd" d="M25.0755 0.5c-0.9375 0 -1.7373 0.139783 -2.3392 0.296283 -0.9791 0.254537 -1.5125 1.160787 -1.5309 2.072347l-0.6449 31.93667 -0.0001 0v0.0101c0 1.9724 -1.5792 3.5615 -3.5151 3.5615s-3.5151 -1.5891 -3.5151 -3.5615c0 -1.048 0.376 -1.8379 0.9585 -2.4055 0.5911 -0.5761 1.421 -0.9471 2.3505 -1.09 0.716 -0.1102 1.3811 -0.6803 1.4189 -1.4966l0.2838 -6.1231c0.0391 -0.8448 -0.6422 -1.5939 -1.5328 -1.5319C10.3215 22.6334 4.5 27.4217 4.5 34.8154 4.5 41.8155 10.1113 47.5 17.0453 47.5c6.934 0 12.5453 -5.6845 12.5453 -12.6846h0.0001l-0.0002 -0.0096 -0.329 -17.1979c3.1345 2.0617 7.634 3.2805 11.7923 3.4903 0.9338 0.0471 2.0017 -0.3813 2.2666 -1.4854 0.1052 -0.4385 0.1796 -0.9945 0.1796 -1.6896 0 -0.695 -0.0744 -1.251 -0.1796 -1.6896 -0.265 -1.1048 -1.3371 -1.4897 -2.1818 -1.5882 -2.8954 -0.3375 -5.7354 -1.8711 -7.9556 -4.0531 -2.2206 -2.18234 -3.7837 -4.97651 -4.1706 -7.7877 -0.1164 -0.84645 -0.6127 -1.752 -1.5959 -2.007838C26.8144 0.640067 26.0139 0.5 25.0755 0.5Z" clip-rule="evenodd" stroke-width="1"></path></g></svg>