<svg xmlns="http://www.w3.org/2000/svg" fill="none" viewBox="0 0 48 48" id="Traffic-Cone--Streamline-Plump"><desc>Traffic Cone Streamline Icon: https://streamlinehq.com</desc><g id="traffic-cone--street-sign-traffic-cone-road"><path id="Union" fill="#000000" fill-rule="evenodd" d="M22.6038 0.5c-2.4255 0 -4.5725 1.59268 -5.2607 3.9269 -1.0242 3.47391 -1.9796 6.8533 -2.8607 10.0731H24l9.518 0c-0.8811 -3.2198 -1.8365 -6.59919 -2.8607 -10.0731C29.9692 2.09269 27.8221 0.5 25.3966 0.5h-2.7928Zm-8.9336 17c-1.0609 3.9613 -1.9987 7.6308 -2.8018 10.8742 3.1757 0.0652 7.6109 0.1258 13.1316 0.1258 5.5209 0 9.9563 -0.0606 13.1321 -0.1259 -0.8032 -3.2433 -1.7409 -6.9128 -2.8019 -10.8741h-20.66Zm-5.66019 23c0.43211 -1.9457 1.15098 -5.1063 2.12749 -9.1407 3.2294 0.0708 7.9217 0.1407 13.8625 0.1407 5.9411 0 10.6336 -0.0699 13.8629 -0.1407 0.9766 4.0344 1.6954 7.195 2.1275 9.1407h2.6579c1.3068 0 2.6182 0.7814 2.7832 2.2387 0.0418 0.3689 0.0685 0.7894 0.0685 1.2613 0 0.4931 -0.0292 0.9227 -0.0745 1.2925 -0.1677 1.3697 -1.3945 2.073 -2.6032 2.0892 -3.0478 0.0409 -9.9867 0.1183 -18.8223 0.1183 -8.8356 0 -15.7745 -0.0774 -18.82233 -0.1183 -1.20868 -0.0162 -2.43545 -0.7195 -2.6032 -2.0892C2.52918 44.9227 2.5 44.4931 2.5 44c0 -0.4719 0.02672 -0.8924 0.0685 -1.2613C2.73353 41.2814 4.04491 40.5 5.35169 40.5h2.65832Z" clip-rule="evenodd" stroke-width="1"></path></g></svg>