<svg xmlns="http://www.w3.org/2000/svg" fill="none" viewBox="0 0 48 48" id="Transparent--Streamline-Plump"><desc>Transparent Streamline Icon: https://streamlinehq.com</desc><g id="Solid/Interface Essential/Edit/transparent"><path id="Union" fill="#000000" fill-rule="evenodd" d="M31.0392 37.1223c-2.673 0.1944 -6.6285 0.3777 -12.0392 0.3777 -2.3672 0 -4.4558 -0.0351 -6.2804 -0.0908 -2.3459 -0.0717 -4.25525 -0.1776 -5.75881 -0.2869 -3.29963 -0.2399 -5.84321 -2.7834 -6.083101 -6.0831C0.683353 28.3662 0.5 24.4107 0.5 19 0.499998 13.5893 0.683351 9.63379 0.877687 6.9608 1.11758 3.66116 3.66115 1.11758 6.96079 0.877692 9.63378 0.683356 13.5893 0.500002 19 0.5c5.4107 0 9.3662 0.183354 12.0392 0.37769 3.2996 0.23989 5.8432 2.78347 6.0831 6.0831 0.0988 1.359 0.1948 3.04951 0.2652 5.09421l0.0002 0.0048c0.0681 1.976 0.1123 4.2826 0.1123 6.9402 0 5.4107 -0.1834 9.3662 -0.3777 12.0392 -0.2399 3.2996 -2.7835 5.8432 -6.0831 6.0831ZM29 10.5c1.1656 0 2.2636 0.0085 3.2958 0.0238 -0.0602 -1.12801 -0.1275 -2.07419 -0.1924 -2.84785 -0.0817 -0.97375 -0.8056 -1.69764 -1.7794 -1.77933C28.0786 5.70822 24.3798 5.5 19 5.5c-5.3798 0 -9.07859 0.20822 -11.32406 0.39662 -0.97375 0.0817 -1.69763 0.80558 -1.77933 1.77933C5.70822 9.92142 5.5 13.6202 5.5 19c0 5.3798 0.20822 9.0786 0.39661 11.3241 0.0817 0.9737 0.80559 1.6976 1.77933 1.7793 0.77367 0.0649 1.71985 0.1322 2.84786 0.1925C10.5085 31.2636 10.5 30.1656 10.5 29c0 -5.4107 0.1834 -9.3662 0.3777 -12.0392 0.2399 -3.2996 2.7835 -5.8432 6.0831 -6.0831C19.6338 10.6834 23.5893 10.5 29 10.5ZM18.9997 40.4997c5.4783 0 9.5066 -0.1856 12.2568 -0.3856 4.7849 -0.3478 8.5098 -4.0727 8.8576 -8.8576 0.2 -2.7502 0.3856 -6.7785 0.3856 -12.2568 0 -3.2098 -0.0637 -5.9218 -0.1567 -8.1706 0.241 0.016 0.4729 0.0321 0.6959 0.0483 3.2997 0.2399 5.8432 2.7835 6.0831 6.0831 0.1944 2.673 0.3777 6.6286 0.3777 12.0392 0 5.4107 -0.1833 9.3662 -0.3777 12.0392 -0.2399 3.2997 -2.7834 5.8432 -6.0831 6.0831 -2.673 0.1944 -6.6285 0.3777 -12.0392 0.3777 -5.4106 0 -9.3662 -0.1833 -12.0392 -0.3777 -3.2996 -0.2399 -5.8432 -2.7834 -6.0831 -6.0831 -0.0162 -0.223 -0.0323 -0.4549 -0.0483 -0.6959 2.2488 0.093 4.9608 0.1567 8.1706 0.1567Z" clip-rule="evenodd" stroke-width="1"></path></g></svg>