<svg xmlns="http://www.w3.org/2000/svg" fill="none" viewBox="0 0 48 48" id="Trending-Content--Streamline-Plump"><desc>Trending Content Streamline Icon: https://streamlinehq.com</desc><g id="Solid/Interface Essential/Content/trending-content--lit-flame-torch-trending"><path id="Subtract" fill="#000000" fill-rule="evenodd" d="M23.8716 2.28669c-0.693 0.61965 -1.1079 1.52085 -1.1573 2.46684 -0.1345 2.57943 -0.637 5.1308 -1.7799 6.68477 -0.1054 0.1433 -0.2475 0.2139 -0.3603 0.2294 -0.097 0.0133 -0.1564 -0.011 -0.2087 -0.0628 -0.6674 -0.6605 -1.2777 -1.806 -1.7901 -3.244 -0.7469 -2.09556 -3.4593 -3.39574 -5.5325 -1.73599C7.49477 11.0664 1.5 18.078 1.5 27.676c0 6.4262 2.55272 11.2145 6.7542 14.3499 4.1415 3.0906 9.7445 4.4752 15.7477 4.4752 6.0033 0 11.6062 -1.3846 15.7477 -4.4752 4.2015 -3.1354 6.7542 -7.9237 6.7542 -14.3499 0 -6.5682 -2.8149 -11.9342 -6.3553 -16.0743 -3.5317 -4.12988 -7.8385 -7.10699 -10.9961 -8.95323 -0.7783 -0.45508 -1.599 -0.8006 -2.4425 -1.03514 -1.0941 -0.30424 -2.1213 0.03223 -2.8383 0.67336Zm0.8572 21.04431c-0.4609 -0.2265 -0.9928 -0.2265 -1.4537 0 -1.9715 0.9687 -7.2731 4.0581 -7.2731 9.2681 0 4.4183 3.5817 6.4 8 6.4 4.4182 0 8 -1.9817 8 -6.4 0 -5.21 -5.3017 -8.2994 -7.2732 -9.2681Z" clip-rule="evenodd" stroke-width="1"></path></g></svg>