<svg xmlns="http://www.w3.org/2000/svg" fill="none" viewBox="0 0 48 48" id="Triangle-Arrow-Rotate-Right-5--Streamline-Plump"><desc>Triangle Arrow Rotate Right 5 Streamline Icon: https://streamlinehq.com</desc><g id="Solid/Arrows/Rotation Sync Triangle arrow/triangle-arrow-rotate-right-5"><path id="Union" fill="#000000" fill-rule="evenodd" d="M2.50098 23.998c0 11.8742 9.62592 21.5 21.50002 21.5 11.8741 0 21.5 -9.6258 21.5 -21.5 0 -8.6372 -5.0932 -16.08392 -12.438 -19.5024 -1.1779 -0.54825 -2.7181 -0.48267 -3.598 0.68808 -0.6347 0.84448 -1.2394 2.11032 -1.2985 3.88263 -0.0454 1.36379 0.9558 2.38119 2.003 2.92009 4.3547 2.2411 7.3315 6.7791 7.3315 12.0116 0 7.4559 -6.0442 13.5 -13.5 13.5 -7.4559 0 -13.5 -6.0441 -13.5 -13.5 0 -3.4357 1.2828 -6.5708 3.3965 -8.954 0.9438 0.8662 1.751 1.5621 2.4292 2.1179 0.7961 0.6524 1.7586 0.7724 2.5578 0.4254 0.7977 -0.3463 1.371 -1.131 1.4532 -2.1531 0.2462 -3.0608 0.1781 -6.45387 0.0307 -9.24867 -0.094 -1.78227 -1.5131 -3.20125 -3.2954 -3.29522 -2.7754 -0.14633 -6.1407 -0.21441 -9.18464 0.0257 -1.03433 0.0816 -1.8253 0.66579 -2.17346 1.47351 -0.34856 0.80863 -0.22821 1.78338 0.43174 2.58711 0.55393 0.67461 1.24205 1.473 2.0911 2.40039C4.67813 13.213 2.50098 18.3518 2.50098 23.998Z" clip-rule="evenodd" stroke-width="1"></path></g></svg>