<svg xmlns="http://www.w3.org/2000/svg" fill="none" viewBox="0 0 48 48" id="Under-Construction--Streamline-Plump"><desc>Under Construction Streamline Icon: https://streamlinehq.com</desc><path fill="#000000" fill-rule="evenodd" d="m35.4374 10.1682 8.1056 14.0393c-0.015 0.3281 -0.031 0.6371 -0.0475 0.9274 -0.0678 1.1895 -0.9925 2.1208 -2.2908 2.1849 -0.1521 0.0075 -0.309 0.0151 -0.4705 0.0227l-9.9713 -17.2708c1.7192 0.0251 3.2763 0.0585 4.6745 0.0965Zm-14.2719 -0.1359c-1.6464 0.0094 -3.1758 0.0267 -4.5902 0.0496l10.1555 17.5898c1.6459 -0.009 3.1755 -0.026 4.5908 -0.0485L21.1655 10.0323Zm11.2664 21.5723c-2.4459 0.0454 -5.253 0.0745 -8.4319 0.0745 -3.24 0 -6.0937 -0.0302 -8.5725 -0.0771 0.0014 2.4635 0.0022 7.081 0.0022 7.3626 0 2.3368 -0.0504 3.9347 -0.1074 4.9955 -0.0962 1.7918 -1.4416 3.2609 -3.3739 3.3002 -0.3218 0.0065 -1.7156 0.0065 -2.03745 0 -1.9323 -0.0393 -3.27766 -1.5084 -3.3739 -3.3002 -0.05699 -1.0608 -0.10736 -2.6587 -0.10736 -4.9955 0 -2.2749 0.00094 -5.742 0.00273 -7.6599 -3.1565 -0.2337 -5.734376 -2.6609 -5.921432 -5.9421 -0.092643 -1.6252 -0.165773 -3.7745 -0.165773 -6.5109s0.073131 -4.8858 0.165774 -6.5109C0.699412 9.03559 3.31374 6.59691 6.50176 6.39391c0.00943 -1.34811 0.05552 -2.30925 0.10801 -2.98043C6.75593 1.54445 8.55563 0.758665 9.99079 0.738651c0.31551 -0.0044 1.70291 -0.0044 2.01841 0 1.4352 0.020014 3.2349 0.805789 3.381 2.674829 0.0486 0.62137 0.0917 1.49126 0.1053 2.68666 2.463 -0.0462 5.2941 -0.07584 8.5045 -0.07584s6.0415 0.02964 8.5045 0.07584c0.0136 -1.1954 0.0567 -2.06529 0.1053 -2.68666 0.1461 -1.86904 1.9458 -2.654815 3.381 -2.674829 0.3155 -0.0044 1.7029 -0.0044 2.0184 0 1.4352 0.020014 3.2349 0.805789 3.381 2.674829 0.0525 0.67118 0.0986 1.63232 0.108 2.98043 3.1881 0.203 5.8024 2.64168 5.9908 5.94689 0.0927 1.6251 0.1658 3.7745 0.1658 6.5109s-0.0731 4.8858 -0.1658 6.5109c-0.1898 3.3291 -2.8406 5.7791 -6.0599 5.9509 0.0004 1.2904 0.0006 3.5974 0.0006 7.6511 0 2.3368 -0.0504 3.9347 -0.1074 4.9955 -0.0962 1.7918 -1.4416 3.2609 -3.3739 3.3002 -0.3218 0.0065 -1.7156 0.0065 -2.0374 0 -1.9323 -0.0393 -3.2777 -1.5084 -3.374 -3.3002 -0.0569 -1.0608 -0.1073 -2.6587 -0.1073 -4.9955 0 -0.2815 0.0007 -4.8958 0.0022 -7.36Zm-20.0392 -4.0741L4.44511 13.7649c0.01835 -0.4295 0.03839 -0.828 0.0594 -1.1964 0.06781 -1.1896 0.99249 -2.1208 2.29081 -2.1849 0.10053 -0.005 0.20312 -0.0099 0.30778 -0.0149l9.9654 17.2605c-1.7221 -0.0258 -3.2796 -0.06 -4.6758 -0.0987Z" clip-rule="evenodd" stroke-width="1"></path></svg>