<svg xmlns="http://www.w3.org/2000/svg" fill="none" viewBox="0 0 48 48" id="Upload-Box-2--Streamline-Plump"><desc>Upload Box 2 Streamline Icon: https://streamlinehq.com</desc><g id="upload-box-2--arrow-button-download-internet-network-server-up-upload"><path id="Union" fill="#000000" fill-rule="evenodd" d="m27.9602 12.5752 -0.4087 17.7828c-0.0305 1.3269 -0.935 2.4782 -2.2575 2.5903 -0.3962 0.0335 -0.8314 0.0553 -1.2933 0.0553 -0.4621 0 -0.8974 -0.0218 -1.2938 -0.0554 -1.3227 -0.112 -2.2274 -1.2635 -2.2578 -2.5905l-0.4084 -17.7825c-1.494 -0.0758 -2.7964 -0.188 -3.8931 -0.3092 -2.0469 -0.2261 -2.8407 -2.34871 -1.4362 -3.85475 0.7246 -0.77695 1.6269 -1.70927 2.7435 -2.81197 2.2713 -2.24309 3.9513 -3.48554 5.0404 -4.16134 0.9408 -0.583858 2.0693 -0.583935 3.0102 -0.00014 1.0891 0.67577 2.7693 1.91824 5.0403 4.16148 1.1165 1.10281 2.0187 2.03521 2.7432 2.81221 1.4042 1.50603 0.6104 3.62841 -1.4363 3.85451 -1.0965 0.1212 -2.3987 0.2333 -3.8925 0.3092ZM7 28.9308c0 -4.359 0.18276 -7.5896 0.38209 -9.8167 0.08892 -0.9935 0.8612 -1.7951 2.0404 -1.8645 0.23703 -0.014 0.48406 -0.028 0.74101 -0.0421 1.6544 -0.0903 2.9224 -1.5047 2.832 -3.1591 -0.0903 -1.6543 -1.5047 -2.9223 -3.15906 -2.8319 -0.26556 0.0145 -0.52115 0.029 -0.76671 0.0434 -3.96048 0.2333 -7.29368 3.1846 -7.66375 7.3193C1.18977 20.9949 1 24.4043 1 28.9308c0 4.5775 0.19408 8.0127 0.41332 10.433 0.36928 4.0767 3.63206 7.0166 7.57019 7.2533 3.14779 0.1892 8.06569 0.3827 15.01649 0.3827 6.9508 0 11.8687 -0.1935 15.0165 -0.3827 3.9381 -0.2367 7.2009 -3.1766 7.5702 -7.2533 0.2192 -2.4203 0.4133 -5.8555 0.4133 -10.433 0 -4.5265 -0.1898 -7.9359 -0.406 -10.3516 -0.3701 -4.1347 -3.7032 -7.086 -7.6637 -7.3193 -0.2456 -0.0144 -0.5012 -0.0289 -0.7667 -0.0434 -1.6544 -0.0904 -3.0688 1.1776 -3.1591 2.8319 -0.0904 1.6544 1.1776 3.0688 2.8319 3.1591 0.257 0.0141 0.5041 0.0281 0.7411 0.0421 1.1792 0.0694 1.9515 0.871 2.0404 1.8644 0.1993 2.2272 0.3821 5.4578 0.3821 9.8168 0 4.4082 -0.1869 7.6624 -0.3889 9.8917 -0.0883 0.9759 -0.8287 1.7378 -1.9546 1.8054 -3.0191 0.1815 -7.8166 0.3719 -14.6565 0.3719 -6.8399 0 -11.6374 -0.1904 -14.65651 -0.3719 -1.12587 -0.0677 -1.86624 -0.8295 -1.95464 -1.8054C7.18691 36.5932 7 33.339 7 28.9308Z" clip-rule="evenodd" stroke-width="1"></path></g></svg>