<svg xmlns="http://www.w3.org/2000/svg" fill="none" viewBox="0 0 48 48" id="User-Square-Single--Streamline-Plump"><desc>User Square Single Streamline Icon: https://streamlinehq.com</desc><g id="Solid/Interface Essential/User/user-square-single--square-geometric-human-person-single-user"><path id="Union" fill="#000000" fill-rule="evenodd" d="M2.0439 8.13569C1.77808 11.4073 1.5 16.5986 1.5 24c0 7.4014 0.27807 12.5927 0.54389 15.8643 0.26713 3.2878 2.80395 5.8247 6.0918 6.0918C11.4073 46.2219 16.5986 46.5 24 46.5c7.4014 0 12.5927 -0.2781 15.8643 -0.5439 3.2878 -0.2671 5.8247 -2.804 6.0918 -6.0918 0.2658 -3.2716 0.5439 -8.4629 0.5439 -15.8643 0 -7.4014 -0.2781 -12.5927 -0.5439 -15.86429 -0.2671 -3.28785 -2.8039 -5.82468 -6.0918 -6.09181C36.5927 1.77808 31.4015 1.5 24 1.5c-7.4014 0 -12.5927 0.27807 -15.86429 0.54389 -3.28785 0.26713 -5.82468 2.80395 -6.09181 6.0918ZM39.4288 41.8714c-1.4388 -2.8888 -4.5024 -7.3535 -10.217 -9.1174C32.9437 30.8533 35.5 26.9752 35.5 22.5 35.5 16.1487 30.3512 11 24 11c-6.3513 0 -11.5 5.1487 -11.5 11.5 0 4.4753 2.5564 8.3536 6.2885 10.2541 -5.7144 1.7641 -8.7782 6.2287 -10.21708 9.1174 0.24091 0.0691 0.49347 0.1153 0.75538 0.136 3.0433 0.2416 7.8476 0.4925 14.6732 0.4925s11.6299 -0.2509 14.6732 -0.4924c0.262 -0.0208 0.5146 -0.067 0.7556 -0.1362Z" clip-rule="evenodd" stroke-width="1"></path></g></svg>