<svg xmlns="http://www.w3.org/2000/svg" fill="none" viewBox="0 0 48 48" id="User-Multiple-Group--Streamline-Plump"><desc>User Multiple Group Streamline Icon: https://streamlinehq.com</desc><g id="Solid/Interface Essential/User/user-multiple-group--close-geometric-human-multiple-person-user"><path id="Union" fill="#000000" fill-rule="evenodd" d="M4.99509 17c0 -6.6274 5.37261 -12 12.00001 -12s12 5.3726 12 12c0 4.1315 -2.0878 7.7738 -5.2635 9.9319 4.7055 2.1097 8.2077 6.365 9.1868 11.5039 0.2093 1.0989 0.0006 2.1648 -0.6039 3.0047 -0.6052 0.8409 -1.5506 1.3767 -2.6644 1.5193 -2.1807 0.2793 -5.9927 0.5402 -12.6514 0.5402 -6.6588 0 -10.47074 -0.2609 -12.65147 -0.5402 -1.11378 -0.1426 -2.05918 -0.6784 -2.66436 -1.5193 -0.60454 -0.8399 -0.813237 -1.9058 -0.60389 -3.0047 0.97875 -5.1374 4.47908 -9.3916 9.18242 -11.5019C7.0841 24.776 4.99509 21.1327 4.99509 17ZM34.7493 43.193c-0.0689 0.0957 -0.1399 0.1889 -0.2129 0.2797 4.5282 -0.0738 7.3528 -0.2874 9.1137 -0.5129 1.1138 -0.1426 2.0592 -0.6784 2.6644 -1.5193 0.6045 -0.8399 0.8132 -1.9058 0.6038 -3.0047 -0.979 -5.1389 -4.4812 -9.3942 -9.1867 -11.5039 3.1757 -2.1581 5.2635 -5.8004 5.2635 -9.9319 0 -6.6274 -5.3726 -12 -12 -12 -1.4437 0 -2.8278 0.25494 -4.1098 0.72224C30.0176 8.47143 31.9949 12.5048 31.9949 17c0 3.5602 -1.2414 6.829 -3.3095 9.3986 3.6584 2.7624 6.2893 6.8014 7.1798 11.4758 0.3461 1.8168 0.0211 3.7387 -1.1159 5.3186Z" clip-rule="evenodd" stroke-width="1"></path></g></svg>