<svg xmlns="http://www.w3.org/2000/svg" fill="none" viewBox="0 0 48 48" id="User-Single-Neutral--Streamline-Plump"><desc>User Single Neutral Streamline Icon: https://streamlinehq.com</desc><g id="Solid/Interface Essential/User/user-single-neutral--close-geometric-human-person-single-user"><path id="Union" fill="#000000" d="M23.9984 0.5C15.438 0.5 8.49837 7.43959 8.49837 16c0 5.1591 2.52043 9.7274 6.39383 12.544 -4.96935 2.3859 -8.70866 6.682 -9.95144 11.8896 -0.70966 2.9737 1.37157 5.5486 4.1506 6.032C11.972 46.9666 16.7417 47.5 23.9984 47.5c7.2566 0 12.0264 -0.5334 14.907 -1.0344 2.779 -0.4834 4.8602 -3.0583 4.1506 -6.032 -1.2428 -5.2076 -4.9821 -9.5037 -9.9514 -11.8896 3.8733 -2.8166 6.3938 -7.3849 6.3938 -12.544 0 -8.56041 -6.9396 -15.5 -15.5 -15.5Z" stroke-width="1"></path></g></svg>