<svg xmlns="http://www.w3.org/2000/svg" fill="none" viewBox="0 0 48 48" id="User-Multiple-Circle--Streamline-Plump"><desc>User Multiple Circle Streamline Icon: https://streamlinehq.com</desc><g id="Solid/Interface Essential/User/user-multiple-circle--close-geometric-human-multiple-person-user-circle"><path id="Union" fill="#000000" fill-rule="evenodd" d="M0.5 24C0.5 11.0213 11.0213 0.5 24 0.5S47.5 11.0213 47.5 24 36.9787 47.5 24 47.5 0.5 36.9787 0.5 24Zm19 18.9782v-4.9783c0 -2.9838 0.871 -5.7626 2.3715 -8.0974 -1.2443 -1.2118 -2.7506 -2.1558 -4.426 -2.7388 2.4088 -1.2479 4.0549 -3.7636 4.0549 -6.6637 0 -4.1421 -3.3578 -7.5 -7.5 -7.5 -4.1421 0 -7.49997 3.3579 -7.49997 7.5 0 2.7515 1.48171 5.157 3.69077 6.462 -1.83252 0.5245 -3.48561 1.4738 -4.84597 2.7346C7.35269 36.2788 12.7483 41.3833 19.5 42.9782Zm23.1548 -13.2816C40.2178 37.6871 32.7877 43.5 24 43.5c-0.5047 0 -1.0049 -0.0192 -1.5 -0.0568v-4.9433c0 -5.2453 3.3654 -9.7045 8.0547 -11.3363C28.146 25.9157 26.5 23.4001 26.5 20.5c0 -4.1421 3.3579 -7.5 7.5 -7.5s7.5 3.3579 7.5 7.5c0 2.7516 -1.4818 5.1571 -3.6909 6.4621 1.8324 0.5246 3.4854 1.4738 4.8457 2.7345Z" clip-rule="evenodd" stroke-width="1"></path></g></svg>