<svg xmlns="http://www.w3.org/2000/svg" fill="none" viewBox="0 0 48 48" id="User-Group--Streamline-Plump"><desc>User Group Streamline Icon: https://streamlinehq.com</desc><path fill="#000000" fill-rule="evenodd" d="M13.967 16.0274c0.8609 -4.7375 4.9988 -8.32916 9.9737 -8.32916 5.0306 0 9.2053 3.67246 10.0015 8.48856 0.09 0.5444 0.1368 1.1034 0.1368 1.6734 0 2.3191 -0.775 4.4562 -2.079 6.1659 -0.6632 0.8696 -1.4633 1.6286 -2.3679 2.2448 1.2423 0.5583 2.3854 1.294 3.3951 2.1746 2.2215 1.9372 3.7977 4.5754 4.3664 7.5673 0.0795 0.4184 0.0876 0.8312 0.026 1.2236 -0.0754 0.48 -0.2552 0.9294 -0.5362 1.3208 -0.5113 0.7121 -1.31 1.1658 -2.251 1.2866 -1.8424 0.2365 -5.063 0.4575 -10.6886 0.4575 -5.6257 0 -8.8463 -0.221 -10.6887 -0.4575 -0.9409 -0.1208 -1.7397 -0.5745 -2.2509 -1.2866 -0.2809 -0.3912 -0.4607 -0.8402 -0.5362 -1.32 -0.0617 -0.3926 -0.0537 -0.8057 0.0259 -1.2244 0.4135 -2.1753 1.3595 -4.1636 2.6989 -5.8314 0.5465 -0.6805 1.1585 -1.3077 1.8265 -1.8724 0.9692 -0.8195 2.0563 -1.5075 3.2325 -2.0365 -0.837 -0.5698 -1.5847 -1.2619 -2.2173 -2.0507l0 0.0001c-0.0373 -0.0466 -0.0743 -0.0935 -0.1108 -0.1408 -1.3295 -1.7187 -2.1212 -3.8768 -2.1212 -6.2209 0 -0.6257 0.0564 -1.2383 0.1644 -1.8328l0.0001 0Zm-3.1575 1.8328c0 -1.1151 0.1383 -2.1978 0.3987 -3.2318 -0.5585 -0.1416 -1.1434 -0.2168 -1.74586 -0.2168 -3.92063 0 -7.09893 3.1858 -7.09893 7.1156 0 2.4505 1.23581 4.6109 3.11545 5.8904C2.69645 28.669 0.625731 31.1916 0.0467228 34.2378c-0.1238451 0.6516 -0.0003872 1.2837 0.3572472 1.7817 0.358013 0.4986 0.91729 0.8163 1.57618 0.9009 1.05252 0.1351 2.74738 0.263 5.47509 0.3055 -0.04739 -0.593 -0.01239 -1.1907 0.09859 -1.7746 0.74414 -3.915 2.88457 -7.316 5.86957 -9.7101 -1.6397 -2.1952 -2.6139 -4.9235 -2.6139 -7.881Zm27.7237 -3.4486c-0.641 0 -1.2623 0.0852 -1.853 0.2449 0.2559 1.0255 0.3917 2.0987 0.3917 3.2037 0 2.9561 -0.9733 5.6832 -2.6116 7.878 2.987 2.3942 5.1289 5.7964 5.8733 9.7131 0.1111 0.5845 0.1461 1.1827 0.0985 1.7763 2.7937 -0.0407 4.5207 -0.1702 5.5876 -0.3072 0.6589 -0.0846 1.2181 -0.4023 1.5762 -0.9009 0.3576 -0.498 0.4811 -1.1301 0.3572 -1.7817 -0.5792 -3.0472 -2.651 -5.5704 -5.4347 -6.8213 1.8787 -1.2797 3.1138 -3.4395 3.1138 -5.8893 0 -3.9298 -3.1783 -7.1156 -7.099 -7.1156Z" clip-rule="evenodd" stroke-width="1"></path></svg>