<svg xmlns="http://www.w3.org/2000/svg" fill="none" viewBox="0 0 48 48" id="User-Full-Body--Streamline-Plump"><desc>User Full Body Streamline Icon: https://streamlinehq.com</desc><g id="user-full-body--geometric-human-person-single-user-full-body"><path id="Union" fill="#000000" fill-rule="evenodd" d="M17 7.5c0 -3.86599 3.134 -7 7 -7s7 3.13401 7 7c0 3.866 -3.134 7 -7 7s-7 -3.134 -7 -7Zm1.4285 8.6398C19.9731 16.0552 21.817 16 23.9999 16c2.183 0 4.0269 0.0552 5.5715 0.1398 4.5228 0.248 7.8729 3.6381 8.4547 8.0893 0.3037 2.3228 0.5322 4.8939 0.4605 7.0739 -0.0566 1.7209 -1.3355 3.025 -3.0203 3.2179 -0.841 0.0962 -1.9419 0.195 -3.3625 0.2776 -0.2543 2.9541 -0.6468 6.5496 -1.2191 9.5001 -0.2532 1.3052 -1.1578 2.4345 -2.521 2.7482 -1.0295 0.2369 -2.4843 0.4532 -4.3639 0.4532 -1.8795 0 -3.3344 -0.2163 -4.3638 -0.4532 -1.3633 -0.3137 -2.2679 -1.4431 -2.5211 -2.7483 -0.5723 -2.9505 -0.9647 -6.5459 -1.2191 -9.5 -1.4205 -0.0826 -2.5213 -0.1814 -3.3622 -0.2776 -1.6849 -0.1929 -2.96381 -1.4971 -3.02037 -3.218 -0.07163 -2.1799 0.15685 -4.751 0.46048 -7.0737 0.58189 -4.4513 3.93199 -7.8415 8.45479 -8.0894Z" clip-rule="evenodd" stroke-width="1"></path></g></svg>