<svg xmlns="http://www.w3.org/2000/svg" fill="none" viewBox="0 0 48 48" id="User-Circle-Single--Streamline-Plump"><desc>User Circle Single Streamline Icon: https://streamlinehq.com</desc><g id="Solid/Interface Essential/User/user-circle-single--circle-geometric-human-person-single-user"><path id="Union" fill="#000000" fill-rule="evenodd" d="M24 0.5C36.9787 0.5 47.5 11.0213 47.5 24S36.9787 47.5 24 47.5 0.5 36.9787 0.5 24 11.0213 0.5 24 0.5Zm-5.2167 32.2514C15.054 30.8499 12.5 26.9732 12.5 22.5 12.5 16.1487 17.6487 11 24 11s11.5 5.1487 11.5 11.5c0 4.4731 -2.5538 8.3497 -6.2829 10.2513 3.9457 1.2055 6.5325 3.6305 8.0492 5.5406C33.7862 41.5237 29.1239 43.5 24 43.5c-5.1238 0 -9.786 -1.9762 -13.2661 -5.2079 1.5168 -1.9101 4.1037 -4.335 8.0494 -5.5407Z" clip-rule="evenodd" stroke-width="1"></path></g></svg>