<svg xmlns="http://www.w3.org/2000/svg" fill="none" viewBox="0 0 48 48" id="User-Friendship-Group--Streamline-Plump"><desc>User Friendship Group Streamline Icon: https://streamlinehq.com</desc><g id="user-friendship-group"><path id="Union" fill="#000000" fill-rule="evenodd" d="M15.5 0.5c3.866 0 7 3.13401 7 7 0 3.866 -3.134 7 -7 7s-7 -3.134 -7 -7c0 -3.86599 3.134 -7 7 -7Zm11.6168 15.2777c-0.9997 -0.0179 -2.0583 -0.0277 -3.1773 -0.0277 -6.2555 0 -10.5908 0.3078 -13.3246 0.6063 -2.49346 0.2723 -4.40048 2.1433 -4.84689 4.5889 -0.45992 2.5195 -1.00005 6.0287 -1.19398 9.466 -0.0955 1.6928 1.10964 3.1325 2.73961 3.4585l2.18771 0.4376c0.02572 4.0712 0.42672 7.9341 0.71375 10.1991 0.1845 1.4559 1.2982 2.6244 2.7785 2.7987 0.8735 0.1028 1.9374 0.1919 3.0064 0.1919 1.1174 0 2.2293 -0.0973 3.1243 -0.206 1.4093 -0.1712 2.4901 -1.2445 2.7503 -2.6164 0.4834 -2.5478 1.3443 -7.5187 2.1362 -14.3079 0.2463 -2.6198 0.5351 -5.4738 0.8718 -8.5045 0.307 -2.7624 1.1457 -4.7198 2.2342 -6.0845ZM32.5 0.5c-3.866 0 -7 3.13401 -7 7 0 3.866 3.134 7 7 7s7 -3.134 7 -7c0 -3.86599 -3.134 -7 -7 -7Zm-6.7783 39.2988 0.5307 4.5874c0.1738 1.5022 1.3042 2.7553 2.849 2.9319 0.8523 0.0974 1.873 0.1794 2.8986 0.1794 1.0601 0 2.1151 -0.0876 2.9844 -0.1894 1.4935 -0.1748 2.6115 -1.3612 2.7918 -2.8274 0.2867 -2.3308 0.6948 -6.2963 0.7223 -10.173l2.1879 -0.4375c1.63 -0.326 2.8351 -1.7658 2.7396 -3.4585 -0.1933 -3.4273 -0.7307 -6.9259 -1.1896 -9.4438 -0.448 -2.4583 -2.3702 -4.3359 -4.875 -4.6075 -1.2639 -0.1371 -2.8658 -0.2764 -4.8332 -0.3872 -0.5152 -0.029 -1.0554 -0.0561 -1.6212 -0.0806 -1.3758 0.627 -3.0858 2.1616 -3.5397 6.2461 -0.7908 7.1173 -1.3159 13.2554 -1.6456 17.6601Z" clip-rule="evenodd" stroke-width="1"></path></g></svg>