<svg xmlns="http://www.w3.org/2000/svg" fill="none" viewBox="0 0 48 48" id="Validated-Bookmark--Streamline-Plump"><desc>Validated Bookmark Streamline Icon: https://streamlinehq.com</desc><g id="Solid/Interface Essential/Bookmark Favorite/validated-bookmark--bookmarks-double-tags-favorite-check-read"><path id="Subtract" fill="#000000" fill-rule="evenodd" d="M10.9754 1.0905C14.0081 0.808072 18.5622 0.5 24 0.5c5.4378 0 9.9919 0.308072 13.0246 0.5905 2.6671 0.24838 4.7404 2.23565 4.9603 4.92931 0.2558 3.13376 0.5151 8.41169 0.5151 16.93469v20.3862c0 2.2997 -1.8643 4.1593 -4.1627 4.1593 -0.9816 0 -1.9315 -0.3468 -2.6821 -0.9792l-9.4001 -7.9195c-1.303 -1.0978 -3.2072 -1.0978 -4.5102 0l-9.4001 7.9195c-0.7506 0.6324 -1.7005 0.9792 -2.68205 0.9792C7.36435 47.5 5.5 45.6404 5.5 43.3407V22.9545c0 -8.523 0.25931 -13.80093 0.51511 -16.93469 0.21988 -2.69366 2.2932 -4.68093 4.96029 -4.92931Zm22.5203 13.7448c0.6213 -0.8689 0.7706 -2.0495 0.066 -2.8523 -0.7239 -0.8249 -1.605 -1.402 -2.3696 -1.7908 -1.0445 -0.531 -2.2549 -0.0984 -2.9655 0.8332 -4.1014 5.3772 -5.069 7.3189 -5.069 7.3189s-0.9388 -1.152 -3.4625 -3.6102c-0.9244 -0.9004 -2.3365 -1.0853 -3.3565 -0.2949 -0.5336 0.4134 -1.1182 0.9228 -1.6524 1.5109 -0.8269 0.9102 -0.6654 2.2706 0.1535 3.188 2.4791 2.7772 4.6835 4.8744 6.2636 6.2739 1.4258 1.2629 3.4731 1.1114 4.6842 -0.3587 1.5302 -1.8573 3.9842 -5.01 7.7082 -10.218Z" clip-rule="evenodd" stroke-width="1"></path></g></svg>