<svg xmlns="http://www.w3.org/2000/svg" fill="none" viewBox="0 0 48 48" id="Vertical-Menu--Streamline-Plump"><desc>Vertical Menu Streamline Icon: https://streamlinehq.com</desc><g id="vertical-menu--navigation-vertical-three-circle-button-menu-dots"><path id="Union" fill="#000000" fill-rule="evenodd" d="M31 8c0 -3.86599 -3.134 -7 -7 -7s-7 3.13401 -7 7c0 3.866 3.134 7 7 7s7 -3.134 7 -7Zm0 32c0 -3.866 -3.134 -7 -7 -7s-7 3.134 -7 7 3.134 7 7 7 7 -3.134 7 -7Zm-7 -23c3.866 0 7 3.134 7 7s-3.134 7 -7 7 -7 -3.134 -7 -7 3.134 -7 7 -7Z" clip-rule="evenodd" stroke-width="1"></path></g></svg>