<svg xmlns="http://www.w3.org/2000/svg" fill="none" viewBox="0 0 48 48" id="Vertical-Menu-Square--Streamline-Plump"><desc>Vertical Menu Square Streamline Icon: https://streamlinehq.com</desc><g id="vertical-menu-square"><path id="Subtract" fill="#000000" fill-rule="evenodd" d="M2.04389 8.1357C1.77808 11.4073 1.5 16.5986 1.5 24c0 7.4014 0.27808 12.5927 0.54389 15.8643 0.26713 3.2878 2.80396 5.8247 6.09181 6.0918 3.2716 0.2658 8.4629 0.5439 15.8643 0.5439 7.4014 0 12.5927 -0.2781 15.8643 -0.5439 3.2878 -0.2671 5.8247 -2.8039 6.0918 -6.0918 0.2658 -3.2716 0.5439 -8.4629 0.5439 -15.8643 0 -7.4014 -0.2781 -12.5927 -0.5439 -15.86429 -0.2671 -3.28786 -2.8039 -5.82469 -6.0918 -6.09182C36.5927 1.77808 31.4014 1.5 24 1.5c-7.4014 0 -12.5927 0.27808 -15.8643 0.54389 -3.28785 0.26713 -5.82468 2.80396 -6.09181 6.09181ZM28 12.5c0 -2.2091 -1.7909 -4 -4 -4 -2.2091 0 -4 1.7909 -4 4 0 2.2091 1.7909 4 4 4 2.2091 0 4 -1.7909 4 -4ZM28 24c0 -2.2091 -1.7909 -4 -4 -4 -2.2091 0 -4 1.7909 -4 4 0 2.2091 1.7909 4 4 4 2.2091 0 4 -1.7909 4 -4Zm-4 7.5c2.2091 0 4 1.7909 4 4 0 2.2091 -1.7909 4 -4 4 -2.2091 0 -4 -1.7909 -4 -4 0 -2.2091 1.7909 -4 4 -4Z" clip-rule="evenodd" stroke-width="1"></path></g></svg>