<svg xmlns="http://www.w3.org/2000/svg" fill="none" viewBox="0 0 48 48" id="Video-Swap-Camera--Streamline-Plump"><desc>Video Swap Camera Streamline Icon: https://streamlinehq.com</desc><g id="Solid/Interface Essential/Image Audio Video/video-swap-camera"><path id="Subtract" fill="#000000" fill-rule="evenodd" d="M19.1363 3.67465C20.3825 3.58067 22.0268 3.5 24 3.5c1.9732 0 3.6175 0.08067 4.8637 0.17465 2.2077 0.16648 4.0324 1.55445 4.9539 3.45318l-1.3495 0.6549 1.3495 -0.65489 1.2364 2.54769c2.1427 0.07255 3.9422 0.15938 5.3993 0.244 3.437 0.19957 6.2031 2.81667 6.5279 6.26727C47.2424 18.9613 47.5 22.769 47.5 27s-0.2576 8.0387 -0.5188 10.8132c-0.3248 3.4506 -3.0909 6.0677 -6.5279 6.2673 -3.5024 0.2034 -8.9821 0.4195 -16.4533 0.4195 -7.4712 0 -12.9509 -0.2161 -16.45334 -0.4195 -3.43698 -0.1996 -6.2031 -2.8167 -6.52789 -6.2674C0.757632 35.0387 0.5 31.231 0.5 27c0 -4.231 0.257632 -8.0387 0.51877 -10.8132 0.32479 -3.4506 3.0909 -6.0677 6.52788 -6.26727 1.45719 -0.08462 3.25665 -0.17145 5.39935 -0.244l1.2364 -2.54769c0.9215 -1.89874 2.7462 -3.28671 4.9539 -3.45319Zm-1.41 19.21545C18.8742 20.5803 21.2542 19 23.9998 19c2.1267 0 4.0341 0.9482 5.3194 2.4492 -0.1927 0.2458 -0.3746 0.4924 -0.5437 0.7377 -0.7432 1.078 -0.184 2.5164 1.0532 2.8502 1.6919 0.4565 3.6926 0.719 4.9106 0.8496 1.243 0.1334 2.2814 -0.908 2.1393 -2.1529 -0.1346 -1.1792 -0.3987 -3.0921 -0.8501 -4.8444 -0.3201 -1.2427 -1.772 -1.8569 -2.8806 -1.087 -0.3415 0.2372 -0.6853 0.4991 -1.0258 0.7799C30.112 16.3825 27.2184 15 23.9998 15c-4.322 0 -8.058 2.4928 -9.8555 6.1099 -0.4916 0.9892 -0.0882 2.1896 0.9009 2.6811 0.9892 0.4916 2.1895 0.0882 2.6811 -0.9009Zm-2.8747 11.3075c0.3415 -0.2372 0.6854 -0.4991 1.0258 -0.7799C17.8875 35.6175 20.7812 37 23.9998 37c4.3219 0 8.0579 -2.4928 9.8555 -6.1099 0.4915 -0.9892 0.0882 -2.1896 -0.901 -2.6811 -0.9892 -0.4916 -2.1895 -0.0882 -2.6811 0.9009C29.1254 31.4197 26.7453 33 23.9998 33c-2.1267 0 -4.0342 -0.9482 -5.3195 -2.4492 0.1927 -0.2458 0.3747 -0.4924 0.5438 -0.7377 0.7432 -1.078 0.1839 -2.5164 -1.0532 -2.8502 -1.692 -0.4565 -3.6927 -0.719 -4.9106 -0.8496 -1.243 -0.1334 -2.2815 0.908 -2.1393 2.1529 0.1346 1.1792 0.3987 3.0921 0.8501 4.8444 0.3201 1.2427 1.772 1.8569 2.8805 1.087Z" clip-rule="evenodd" stroke-width="1"></path></g></svg>