<svg xmlns="http://www.w3.org/2000/svg" fill="none" viewBox="0 0 48 48" id="Warning-Square--Streamline-Plump"><desc>Warning Square Streamline Icon: https://streamlinehq.com</desc><g id="Solid/Interface Essential/Alerts/warning-square--warning-alert-frame-exclamation-caution-square"><path id="Subtract" fill="#000000" fill-rule="evenodd" d="M8.13571 2.04389C11.4073 1.77808 16.5986 1.5 24 1.5c7.4014 0 12.5927 0.27808 15.8643 0.54389 3.2878 0.26714 5.8247 2.80397 6.0918 6.09182C46.2219 11.4073 46.5 16.5986 46.5 24c0 7.4014 -0.2781 12.5927 -0.5439 15.8643 -0.2671 3.2879 -2.804 5.8247 -6.0918 6.0918 -3.2716 0.2658 -8.4629 0.5439 -15.8643 0.5439 -7.4014 0 -12.5927 -0.2781 -15.8643 -0.5439 -3.28785 -0.2671 -5.82468 -2.8039 -6.09181 -6.0918C1.77808 36.5927 1.5 31.4014 1.5 24c0 -7.4014 0.27808 -12.5927 0.5439 -15.86431 0.26713 -3.28785 2.80396 -5.82467 6.09181 -6.0918ZM21.889 12.2489c-1.2603 0.3168 -1.8416 1.5919 -1.7499 2.8882 0.1908 2.6959 0.5549 7.3786 0.9486 10.0033 0.1297 0.8647 0.6503 1.6086 1.5125 1.754 0.3687 0.0621 0.8302 0.1056 1.3998 0.1056 0.5696 0 1.0311 -0.0435 1.3998 -0.1056 0.8622 -0.1454 1.3828 -0.8893 1.5125 -1.754 0.3937 -2.6247 0.7578 -7.3074 0.9486 -10.0033 0.0917 -1.2963 -0.4896 -2.5714 -1.75 -2.8882C25.5377 12.1048 24.8341 12 24 12c-0.8341 0 -1.5377 0.1048 -2.111 0.2489ZM27.5 33.5c0 1.933 -1.567 3.5 -3.5 3.5s-3.5 -1.567 -3.5 -3.5S22.067 30 24 30s3.5 1.567 3.5 3.5Z" clip-rule="evenodd" stroke-width="1"></path></g></svg>