<svg xmlns="http://www.w3.org/2000/svg" fill="none" viewBox="0 0 48 48" id="Waving-Hand--Streamline-Plump"><desc>Waving Hand Streamline Icon: https://streamlinehq.com</desc><g id="Solid/Interface Essential/Hand Gestures/waving-hand"><path id="Union" fill="#000000" fill-rule="evenodd" d="M28.8666 2.622c0.4755 -0.998 1.6701 -1.4216 2.668 -0.946 3.9942 1.903 7.0961 5.9554 8.4285 10.2174 0.3299 1.0551 -0.2581 2.178 -1.3132 2.5079 -1.0552 0.3297 -2.1779 -0.2582 -2.5078 -1.3134 -1.0626 -3.399 -3.5163 -6.4575 -6.3294 -7.7978 -0.9981 -0.4755 -1.4216 -1.6701 -0.9461 -2.6681ZM2.6554 20.6565c1.1028 0.0777 1.9337 1.0346 1.856 2.1375 -0.2494 3.5393 1.1884 7.6167 3.5223 10.4409 0.7043 0.8521 0.5844 2.1139 -0.2678 2.8181 -0.8522 0.7043 -2.1139 0.5844 -2.8181 -0.2679C2.031 32.2557 0.1887 27.1848 0.5179 22.5125c0.0777 -1.1027 1.0347 -1.9337 2.1375 -1.856ZM29.6417 8.3942c-0.8799 -1.4308 -2.6206 -2.4094 -4.3316 -1.6932 -0.2553 0.1068 -0.5134 0.2311 -0.7634 0.3757 -0.3346 0.1935 -0.6311 0.3927 -0.8929 0.5899 -1.4205 1.0705 -1.2918 2.9353 -0.472 4.2562 1.3385 2.1569 3.4874 5.6294 4.8334 7.8545 0.3888 0.6428 0.1714 1.4768 -0.4885 1.8584 -0.6483 0.3748 -1.4709 0.1665 -1.8588 -0.4697 -1.4857 -2.4364 -4.3439 -7.1235 -5.8579 -9.6042 -0.626 -1.0255 -1.7889 -1.9212 -3.161 -1.5275 -0.464 0.1331 -0.9903 0.3442 -1.5588 0.6729 -0.4052 0.2344 -0.7567 0.4722 -1.0596 0.7022 -1.3225 1.0047 -1.3169 2.7224 -0.5472 4.0048 0.9756 1.6255 2.4482 4.0048 3.8232 6.2265l0.0018 0.0028c0.8225 1.329 1.6102 2.6018 2.2377 3.626 0.3958 0.646 0.1791 1.4902 -0.4842 1.8737 -0.6416 0.371 -1.4609 0.1658 -1.8518 -0.4638l-4.0987 -6.6012c-0.6055 -0.9752 -1.7351 -1.8375 -3.0552 -1.3949 -0.4067 0.1363 -0.8705 0.3393 -1.3855 0.637 -0.3604 0.2084 -0.6822 0.4265 -0.9673 0.6436 -1.4852 1.1304 -1.3737 3.1083 -0.4901 4.5092 1.4525 2.3027 3.8793 6.2103 6.116 10.0912 1.5771 2.7483 4.0106 6.0922 6.4776 8.8281 3.1683 3.5137 8.1072 3.9826 12.2345 1.8254 0.8945 -0.4675 1.8647 -0.9981 2.8994 -1.5964 2.6083 -1.5084 4.4334 -2.7457 5.6551 -3.6538 1.4917 -1.1087 2.6063 -2.6128 3.3018 -4.3218 2.1213 -5.212 3.1476 -11.087 3.5628 -14.0317 0.1874 -1.3286 -0.0424 -2.8015 -1.0538 -3.8472 -0.5803 -0.5999 -1.2057 -1.0711 -1.8065 -1.4388 -0.9425 -0.5769 -1.9779 -0.5705 -2.862 -0.1685 -0.8738 0.3975 -1.5952 1.1759 -1.9787 2.1478 -0.5651 1.4318 -1.0546 2.7609 -1.4029 3.7318 -0.0713 0.1989 -0.1367 0.3828 -0.1957 0.5495l0.0012 0.0042c-1.4444 0.4194 -3.0752 1.541 -4.2166 3.0957 -1.1267 1.5349 -1.666 3.3298 -1.2678 5.1238 0.2096 0.9444 -0.386 1.8798 -1.3304 2.0894 -0.9443 0.2097 -1.8798 -0.386 -2.0894 -1.3303 -0.6683 -3.0115 0.2959 -5.8201 1.8639 -7.9559 1.3627 -1.8561 3.2654 -3.3275 5.234 -4.1028l0.0012 0.0007c-2.5867 -4.3765 -5.2028 -8.66 -6.7152 -11.1193Zm8.5178 14.195 0.0004 0.0007 -0.0003 0.0009 -0.0001 -0.0016Z" clip-rule="evenodd" stroke-width="1"></path></g></svg>