<svg xmlns="http://www.w3.org/2000/svg" fill="none" viewBox="0 0 48 48" id="Web--Streamline-Plump"><desc>Web Streamline Icon: https://streamlinehq.com</desc><g id="web--server-world-internet-earth-www-globe-worldwide-web-network"><path id="Subtract" fill="#000000" fill-rule="evenodd" d="M16.2681 33.5c0.4899 2.8889 1.1941 5.472 2.0535 7.6206 0.863 2.1574 1.8531 3.8027 2.8758 4.8841C22.2171 47.0829 23.1646 47.5 24 47.5c0.8354 0 1.7829 -0.4171 2.8026 -1.4953 1.0227 -1.0814 2.0128 -2.7267 2.8758 -4.8841 0.8594 -2.1486 1.5636 -4.7317 2.0535 -7.6206H16.2681Zm1.6333 13.2009C10.9967 44.8506 5.34641 39.934 2.49938 33.5H13.2277c0.5231 3.2759 1.3111 6.2412 2.3085 8.7348 0.6781 1.6951 1.4681 3.2104 2.3652 4.4661ZM1.4105 30.5H12.833c-0.2179 -2.0826 -0.333 -4.2611 -0.333 -6.5 0 -2.239 0.1157 -4.4175 0.3344 -6.5H1.4105C0.817599 19.5643 0.5 21.7451 0.5 24s0.317599 4.4357 0.9105 6.5Zm1.08888 -16H13.2307c0.5249 -3.2764 1.3154 -6.24195 2.3144 -8.73551 0.6797 -1.6966 1.4711 -3.2127 2.3689 -4.46877C11.0036 3.14341 5.34814 8.06209 2.49938 14.5ZM24 0.5c-0.828 0 -1.7727 0.415459 -2.7925 1.4948 -1.0222 1.08185 -2.0132 2.72772 -2.8776 4.88538 -0.8607 2.14851 -1.567 4.73132 -2.0586 7.61982h15.4574c-0.4916 -2.8885 -1.1979 -5.47131 -2.0586 -7.61982 -0.8644 -2.15766 -1.8554 -3.80353 -2.8776 -4.88538C25.7727 0.915459 24.828 0.5 24 0.5Zm6.086 0.79572C36.9964 3.14342 42.6519 8.06209 45.5006 14.5H34.7693c-0.5249 -3.2764 -1.3154 -6.24195 -2.3144 -8.73551 -0.6797 -1.6966 -1.4711 -3.2127 -2.3689 -4.46877ZM46.5895 17.5H35.1656c0.2187 2.0825 0.3344 4.261 0.3344 6.5 0 2.2389 -0.1151 4.4174 -0.333 6.5h11.4225c0.5929 -2.0643 0.9105 -4.2451 0.9105 -6.5s-0.3176 -4.4357 -0.9105 -6.5Zm-1.0889 16c-2.847 6.434 -8.4973 11.3506 -15.402 13.2009 0.8971 -1.2557 1.6871 -2.771 2.3652 -4.4661 0.9974 -2.4936 1.7854 -5.4589 2.3085 -8.7348h10.7283ZM32.5 24c0 -2.2586 -0.1233 -4.4382 -0.3518 -6.5H15.8518c-0.2285 2.0618 -0.3518 4.2414 -0.3518 6.5 0 2.2587 0.1226 4.4382 0.3502 6.5h16.2996c0.2276 -2.0618 0.3502 -4.2413 0.3502 -6.5Z" clip-rule="evenodd" stroke-width="1"></path></g></svg>