<svg xmlns="http://www.w3.org/2000/svg" fill="none" viewBox="0 0 48 48" id="X-Twitter-Logo--Streamline-Plump"><desc>X Twitter Logo Streamline Icon: https://streamlinehq.com</desc><path fill="#000000" fill-rule="evenodd" d="M14.1231 3.95342c-1.727 -0.10496 -3.1616 -0.1303 -4.71651 -0.08267 -2.7906 0.08549 -4.1986 3.21112 -2.69335 5.40423C11.036 15.5731 14.6216 20.6555 18.2034 25.4636L5.42914 39.6572c-0.92365 1.0263 -0.84045 2.607 0.18582 3.5306 1.02628 0.9237 2.607 0.8405 3.53065 -0.1858L21.2769 29.5228c3.0791 4.0006 6.3049 7.9967 10.1217 12.5585 0.8976 1.0727 2.1887 1.7857 3.6221 1.9132 1.7955 0.1598 3.2997 0.1964 4.9754 0.1157 2.772 -0.1335 4.0712 -3.2391 2.6094 -5.3781 -5.0441 -7.3809 -9.0746 -13.1188 -13.0506 -18.4071L40.4254 8.24663c0.9237 -1.02627 0.8405 -2.607 -0.1858 -3.53065 -1.0263 -0.92364 -2.607 -0.84045 -3.5306 0.18583L26.4614 16.288c-2.6787 -3.4288 -5.4439 -6.79474 -8.5809 -10.45302 -0.9404 -1.09674 -2.2895 -1.79236 -3.7574 -1.88156Z" clip-rule="evenodd" stroke-width="1"></path></svg>