<svg xmlns="http://www.w3.org/2000/svg" fill="none" viewBox="0 0 48 48" id="Youtube-Logo--Streamline-Plump"><desc>Youtube Logo Streamline Icon: https://streamlinehq.com</desc><g id="youtube-logo--youtube-clip-social-video"><path id="Subtract" fill="#000000" fill-rule="evenodd" d="M7.15404 6.92913C10.5491 6.72281 16.0547 6.5 24 6.5c7.9453 0 13.4509 0.22281 16.846 0.42913 3.2202 0.19571 5.8579 2.56775 6.1792 5.85847 0.247 2.5286 0.4748 6.2154 0.4748 11.2124 0 4.997 -0.2278 8.6838 -0.4748 11.2124 -0.3213 3.2907 -2.959 5.6628 -6.1792 5.8585 -3.3951 0.2063 -8.9007 0.4291 -16.846 0.4291s-13.4509 -0.2228 -16.84597 -0.4291c-3.22024 -0.1957 -5.85791 -2.5678 -6.179279 -5.8585C0.727815 32.6838 0.5 28.997 0.5 24c0 -4.997 0.227817 -8.6838 0.474753 -11.2124C1.29612 9.49688 3.93379 7.12483 7.15404 6.92913ZM18.2737 16.5233c0.7576 -0.4713 1.7121 -0.5669 2.6649 -0.1983 1.1656 0.451 2.7256 1.15 4.7666 2.2343 1.9518 1.0369 3.4608 1.9572 4.6029 2.7206 1.0075 0.6735 1.5409 1.683 1.5409 2.7209 0 1.038 -0.5334 2.0474 -1.5409 2.7209 -1.1421 0.7635 -2.6511 1.6838 -4.6029 2.7207 -2.041 1.0842 -3.601 1.7833 -4.7666 2.2342 -0.9528 0.3687 -1.9073 0.273 -2.6649 -0.1982 -0.7539 -0.469 -1.2721 -1.2841 -1.416 -2.2801 -0.1931 -1.3368 -0.3577 -3.0934 -0.3577 -5.1975s0.1646 -3.8607 0.3577 -5.1975c0.1439 -0.996 0.6621 -1.811 1.416 -2.28Z" clip-rule="evenodd" stroke-width="1"></path></g></svg>